<?xml version="1.0" encoding="utf-8" standalone="no"?>
<!DOCTYPE svg PUBLIC "-//W3C//DTD SVG 1.1//EN"
  "http://www.w3.org/Graphics/SVG/1.1/DTD/svg11.dtd">
<svg xmlns:xlink="http://www.w3.org/1999/xlink" width="460.8pt" height="345.6pt" viewBox="0 0 460.8 345.6" xmlns="http://www.w3.org/2000/svg" version="1.1">
 <metadata>
  <rdf:RDF xmlns:dc="http://purl.org/dc/elements/1.1/" xmlns:cc="http://creativecommons.org/ns#" xmlns:rdf="http://www.w3.org/1999/02/22-rdf-syntax-ns#">
   <cc:Work>
    <dc:type rdf:resource="http://purl.org/dc/dcmitype/StillImage"/>
    <dc:date>2025-11-17T18:58:51.615345</dc:date>
    <dc:format>image/svg+xml</dc:format>
    <dc:creator>
     <cc:Agent>
      <dc:title>Matplotlib v3.10.0, https://matplotlib.org/</dc:title>
     </cc:Agent>
    </dc:creator>
   </cc:Work>
  </rdf:RDF>
 </metadata>
 <defs>
  <style type="text/css">*{stroke-linejoin: round; stroke-linecap: butt}</style>
 </defs>
 <g id="figure_1">
  <g id="patch_1">
   <path d="M 0 345.6 
L 460.8 345.6 
L 460.8 0 
L 0 0 
z
" style="fill: #ffffff"/>
  </g>
  <g id="axes_1">
   <g id="patch_2">
    <path d="M 113.676051 204.671266 
L 450 204.671266 
L 450 10.8 
L 113.676051 10.8 
z
" style="fill: #ffffff"/>
   </g>
   <g id="patch_3">
    <path d="M 128.963503 204.671266 
L 160.32238 204.671266 
L 160.32238 142.355502 
L 128.963503 142.355502 
z
" clip-path="url(#p389f86ace5)" style="fill: #0072b2; stroke: #000000; stroke-linejoin: miter"/>
   </g>
   <g id="patch_4">
    <path d="M 168.162099 204.671266 
L 199.520975 204.671266 
L 199.520975 142.355502 
L 168.162099 142.355502 
z
" clip-path="url(#p389f86ace5)" style="fill: #0072b2; stroke: #000000; stroke-linejoin: miter"/>
   </g>
   <g id="patch_5">
    <path d="M 207.360694 204.671266 
L 238.719571 204.671266 
L 238.719571 142.355502 
L 207.360694 142.355502 
z
" clip-path="url(#p389f86ace5)" style="fill: #0072b2; stroke: #000000; stroke-linejoin: miter"/>
   </g>
   <g id="patch_6">
    <path d="M 246.55929 204.671266 
L 277.918166 204.671266 
L 277.918166 170.051397 
L 246.55929 170.051397 
z
" clip-path="url(#p389f86ace5)" style="fill: #0072b2; stroke: #000000; stroke-linejoin: miter"/>
   </g>
   <g id="patch_7">
    <path d="M 285.757885 204.671266 
L 317.116761 204.671266 
L 317.116761 197.747292 
L 285.757885 197.747292 
z
" clip-path="url(#p389f86ace5)" style="fill: #0072b2; stroke: #000000; stroke-linejoin: miter"/>
   </g>
   <g id="patch_8">
    <path d="M 324.956481 204.671266 
L 356.315357 204.671266 
L 356.315357 190.823318 
L 324.956481 190.823318 
z
" clip-path="url(#p389f86ace5)" style="fill: #0072b2; stroke: #000000; stroke-linejoin: miter"/>
   </g>
   <g id="patch_9">
    <path d="M 364.155076 204.671266 
L 395.513952 204.671266 
L 395.513952 10.8 
L 364.155076 10.8 
z
" clip-path="url(#p389f86ace5)" style="fill: #0072b2; stroke: #000000; stroke-linejoin: miter"/>
   </g>
   <g id="patch_10">
    <path d="M 403.353671 204.671266 
L 434.712548 204.671266 
L 434.712548 31.571921 
L 403.353671 31.571921 
z
" clip-path="url(#p389f86ace5)" style="fill: #0072b2; stroke: #000000; stroke-linejoin: miter"/>
   </g>
   <g id="patch_11">
    <path d="M 128.963503 142.355502 
L 160.32238 142.355502 
L 160.32238 142.355502 
L 128.963503 142.355502 
z
" clip-path="url(#p389f86ace5)" style="fill: #e69f00; stroke: #000000; stroke-linejoin: miter"/>
   </g>
   <g id="patch_12">
    <path d="M 168.162099 142.355502 
L 199.520975 142.355502 
L 199.520975 142.355502 
L 168.162099 142.355502 
z
" clip-path="url(#p389f86ace5)" style="fill: #e69f00; stroke: #000000; stroke-linejoin: miter"/>
   </g>
   <g id="patch_13">
    <path d="M 207.360694 142.355502 
L 238.719571 142.355502 
L 238.719571 135.431528 
L 207.360694 135.431528 
z
" clip-path="url(#p389f86ace5)" style="fill: #e69f00; stroke: #000000; stroke-linejoin: miter"/>
   </g>
   <g id="patch_14">
    <path d="M 246.55929 170.051397 
L 277.918166 170.051397 
L 277.918166 170.051397 
L 246.55929 170.051397 
z
" clip-path="url(#p389f86ace5)" style="fill: #e69f00; stroke: #000000; stroke-linejoin: miter"/>
   </g>
   <g id="patch_15">
    <path d="M 285.757885 197.747292 
L 317.116761 197.747292 
L 317.116761 190.823318 
L 285.757885 190.823318 
z
" clip-path="url(#p389f86ace5)" style="fill: #e69f00; stroke: #000000; stroke-linejoin: miter"/>
   </g>
   <g id="patch_16">
    <path d="M 324.956481 190.823318 
L 356.315357 190.823318 
L 356.315357 190.823318 
L 324.956481 190.823318 
z
" clip-path="url(#p389f86ace5)" style="fill: #e69f00; stroke: #000000; stroke-linejoin: miter"/>
   </g>
   <g id="patch_17">
    <path d="M 364.155076 10.8 
L 395.513952 10.8 
L 395.513952 10.8 
L 364.155076 10.8 
z
" clip-path="url(#p389f86ace5)" style="fill: #e69f00; stroke: #000000; stroke-linejoin: miter"/>
   </g>
   <g id="patch_18">
    <path d="M 403.353671 31.571921 
L 434.712548 31.571921 
L 434.712548 31.571921 
L 403.353671 31.571921 
z
" clip-path="url(#p389f86ace5)" style="fill: #e69f00; stroke: #000000; stroke-linejoin: miter"/>
   </g>
   <g id="matplotlib.axis_1">
    <g id="xtick_1">
     <g id="line2d_1">
      <defs>
       <path id="m72dae37348" d="M 0 0 
L 0 3.5 
" style="stroke: #000000; stroke-width: 0.8"/>
      </defs>
      <g>
       <use xlink:href="#m72dae37348" x="144.642941" y="204.671266" style="stroke: #000000; stroke-width: 0.8"/>
      </g>
     </g>
     <g id="text_1">
      <!-- Gryniukova et al. -->
      <g transform="translate(16.665592 310.982217) rotate(-35) scale(0.18 -0.18)">
       <defs>
        <path id="DejaVuSans-47" d="M 3809 666 
L 3809 1919 
L 2778 1919 
L 2778 2438 
L 4434 2438 
L 4434 434 
Q 4069 175 3628 42 
Q 3188 -91 2688 -91 
Q 1594 -91 976 548 
Q 359 1188 359 2328 
Q 359 3472 976 4111 
Q 1594 4750 2688 4750 
Q 3144 4750 3555 4637 
Q 3966 4525 4313 4306 
L 4313 3634 
Q 3963 3931 3569 4081 
Q 3175 4231 2741 4231 
Q 1884 4231 1454 3753 
Q 1025 3275 1025 2328 
Q 1025 1384 1454 906 
Q 1884 428 2741 428 
Q 3075 428 3337 486 
Q 3600 544 3809 666 
z
" transform="scale(0.015625)"/>
        <path id="DejaVuSans-72" d="M 2631 2963 
Q 2534 3019 2420 3045 
Q 2306 3072 2169 3072 
Q 1681 3072 1420 2755 
Q 1159 2438 1159 1844 
L 1159 0 
L 581 0 
L 581 3500 
L 1159 3500 
L 1159 2956 
Q 1341 3275 1631 3429 
Q 1922 3584 2338 3584 
Q 2397 3584 2469 3576 
Q 2541 3569 2628 3553 
L 2631 2963 
z
" transform="scale(0.015625)"/>
        <path id="DejaVuSans-79" d="M 2059 -325 
Q 1816 -950 1584 -1140 
Q 1353 -1331 966 -1331 
L 506 -1331 
L 506 -850 
L 844 -850 
Q 1081 -850 1212 -737 
Q 1344 -625 1503 -206 
L 1606 56 
L 191 3500 
L 800 3500 
L 1894 763 
L 2988 3500 
L 3597 3500 
L 2059 -325 
z
" transform="scale(0.015625)"/>
        <path id="DejaVuSans-6e" d="M 3513 2113 
L 3513 0 
L 2938 0 
L 2938 2094 
Q 2938 2591 2744 2837 
Q 2550 3084 2163 3084 
Q 1697 3084 1428 2787 
Q 1159 2491 1159 1978 
L 1159 0 
L 581 0 
L 581 3500 
L 1159 3500 
L 1159 2956 
Q 1366 3272 1645 3428 
Q 1925 3584 2291 3584 
Q 2894 3584 3203 3211 
Q 3513 2838 3513 2113 
z
" transform="scale(0.015625)"/>
        <path id="DejaVuSans-69" d="M 603 3500 
L 1178 3500 
L 1178 0 
L 603 0 
L 603 3500 
z
M 603 4863 
L 1178 4863 
L 1178 4134 
L 603 4134 
L 603 4863 
z
" transform="scale(0.015625)"/>
        <path id="DejaVuSans-75" d="M 544 1381 
L 544 3500 
L 1119 3500 
L 1119 1403 
Q 1119 906 1312 657 
Q 1506 409 1894 409 
Q 2359 409 2629 706 
Q 2900 1003 2900 1516 
L 2900 3500 
L 3475 3500 
L 3475 0 
L 2900 0 
L 2900 538 
Q 2691 219 2414 64 
Q 2138 -91 1772 -91 
Q 1169 -91 856 284 
Q 544 659 544 1381 
z
M 1991 3584 
L 1991 3584 
z
" transform="scale(0.015625)"/>
        <path id="DejaVuSans-6b" d="M 581 4863 
L 1159 4863 
L 1159 1991 
L 2875 3500 
L 3609 3500 
L 1753 1863 
L 3688 0 
L 2938 0 
L 1159 1709 
L 1159 0 
L 581 0 
L 581 4863 
z
" transform="scale(0.015625)"/>
        <path id="DejaVuSans-6f" d="M 1959 3097 
Q 1497 3097 1228 2736 
Q 959 2375 959 1747 
Q 959 1119 1226 758 
Q 1494 397 1959 397 
Q 2419 397 2687 759 
Q 2956 1122 2956 1747 
Q 2956 2369 2687 2733 
Q 2419 3097 1959 3097 
z
M 1959 3584 
Q 2709 3584 3137 3096 
Q 3566 2609 3566 1747 
Q 3566 888 3137 398 
Q 2709 -91 1959 -91 
Q 1206 -91 779 398 
Q 353 888 353 1747 
Q 353 2609 779 3096 
Q 1206 3584 1959 3584 
z
" transform="scale(0.015625)"/>
        <path id="DejaVuSans-76" d="M 191 3500 
L 800 3500 
L 1894 563 
L 2988 3500 
L 3597 3500 
L 2284 0 
L 1503 0 
L 191 3500 
z
" transform="scale(0.015625)"/>
        <path id="DejaVuSans-61" d="M 2194 1759 
Q 1497 1759 1228 1600 
Q 959 1441 959 1056 
Q 959 750 1161 570 
Q 1363 391 1709 391 
Q 2188 391 2477 730 
Q 2766 1069 2766 1631 
L 2766 1759 
L 2194 1759 
z
M 3341 1997 
L 3341 0 
L 2766 0 
L 2766 531 
Q 2569 213 2275 61 
Q 1981 -91 1556 -91 
Q 1019 -91 701 211 
Q 384 513 384 1019 
Q 384 1609 779 1909 
Q 1175 2209 1959 2209 
L 2766 2209 
L 2766 2266 
Q 2766 2663 2505 2880 
Q 2244 3097 1772 3097 
Q 1472 3097 1187 3025 
Q 903 2953 641 2809 
L 641 3341 
Q 956 3463 1253 3523 
Q 1550 3584 1831 3584 
Q 2591 3584 2966 3190 
Q 3341 2797 3341 1997 
z
" transform="scale(0.015625)"/>
        <path id="DejaVuSans-20" transform="scale(0.015625)"/>
        <path id="DejaVuSans-65" d="M 3597 1894 
L 3597 1613 
L 953 1613 
Q 991 1019 1311 708 
Q 1631 397 2203 397 
Q 2534 397 2845 478 
Q 3156 559 3463 722 
L 3463 178 
Q 3153 47 2828 -22 
Q 2503 -91 2169 -91 
Q 1331 -91 842 396 
Q 353 884 353 1716 
Q 353 2575 817 3079 
Q 1281 3584 2069 3584 
Q 2775 3584 3186 3129 
Q 3597 2675 3597 1894 
z
M 3022 2063 
Q 3016 2534 2758 2815 
Q 2500 3097 2075 3097 
Q 1594 3097 1305 2825 
Q 1016 2553 972 2059 
L 3022 2063 
z
" transform="scale(0.015625)"/>
        <path id="DejaVuSans-74" d="M 1172 4494 
L 1172 3500 
L 2356 3500 
L 2356 3053 
L 1172 3053 
L 1172 1153 
Q 1172 725 1289 603 
Q 1406 481 1766 481 
L 2356 481 
L 2356 0 
L 1766 0 
Q 1100 0 847 248 
Q 594 497 594 1153 
L 594 3053 
L 172 3053 
L 172 3500 
L 594 3500 
L 594 4494 
L 1172 4494 
z
" transform="scale(0.015625)"/>
        <path id="DejaVuSans-6c" d="M 603 4863 
L 1178 4863 
L 1178 0 
L 603 0 
L 603 4863 
z
" transform="scale(0.015625)"/>
        <path id="DejaVuSans-2e" d="M 684 794 
L 1344 794 
L 1344 0 
L 684 0 
L 684 794 
z
" transform="scale(0.015625)"/>
       </defs>
       <use xlink:href="#DejaVuSans-47"/>
       <use xlink:href="#DejaVuSans-72" transform="translate(77.490234 0)"/>
       <use xlink:href="#DejaVuSans-79" transform="translate(118.603516 0)"/>
       <use xlink:href="#DejaVuSans-6e" transform="translate(177.783203 0)"/>
       <use xlink:href="#DejaVuSans-69" transform="translate(241.162109 0)"/>
       <use xlink:href="#DejaVuSans-75" transform="translate(268.945312 0)"/>
       <use xlink:href="#DejaVuSans-6b" transform="translate(332.324219 0)"/>
       <use xlink:href="#DejaVuSans-6f" transform="translate(386.609375 0)"/>
       <use xlink:href="#DejaVuSans-76" transform="translate(447.791016 0)"/>
       <use xlink:href="#DejaVuSans-61" transform="translate(506.970703 0)"/>
       <use xlink:href="#DejaVuSans-20" transform="translate(568.25 0)"/>
       <use xlink:href="#DejaVuSans-65" transform="translate(600.037109 0)"/>
       <use xlink:href="#DejaVuSans-74" transform="translate(661.560547 0)"/>
       <use xlink:href="#DejaVuSans-20" transform="translate(700.769531 0)"/>
       <use xlink:href="#DejaVuSans-61" transform="translate(732.556641 0)"/>
       <use xlink:href="#DejaVuSans-6c" transform="translate(793.835938 0)"/>
       <use xlink:href="#DejaVuSans-2e" transform="translate(821.619141 0)"/>
      </g>
     </g>
    </g>
    <g id="xtick_2">
     <g id="line2d_2">
      <g>
       <use xlink:href="#m72dae37348" x="183.841537" y="204.671266" style="stroke: #000000; stroke-width: 0.8"/>
      </g>
     </g>
     <g id="text_2">
      <!-- Zhou et al. -->
      <g transform="translate(101.84012 278.789523) rotate(-35) scale(0.18 -0.18)">
       <defs>
        <path id="DejaVuSans-5a" d="M 359 4666 
L 4025 4666 
L 4025 4184 
L 1075 531 
L 4097 531 
L 4097 0 
L 288 0 
L 288 481 
L 3238 4134 
L 359 4134 
L 359 4666 
z
" transform="scale(0.015625)"/>
        <path id="DejaVuSans-68" d="M 3513 2113 
L 3513 0 
L 2938 0 
L 2938 2094 
Q 2938 2591 2744 2837 
Q 2550 3084 2163 3084 
Q 1697 3084 1428 2787 
Q 1159 2491 1159 1978 
L 1159 0 
L 581 0 
L 581 4863 
L 1159 4863 
L 1159 2956 
Q 1366 3272 1645 3428 
Q 1925 3584 2291 3584 
Q 2894 3584 3203 3211 
Q 3513 2838 3513 2113 
z
" transform="scale(0.015625)"/>
       </defs>
       <use xlink:href="#DejaVuSans-5a"/>
       <use xlink:href="#DejaVuSans-68" transform="translate(68.505859 0)"/>
       <use xlink:href="#DejaVuSans-6f" transform="translate(131.884766 0)"/>
       <use xlink:href="#DejaVuSans-75" transform="translate(193.066406 0)"/>
       <use xlink:href="#DejaVuSans-20" transform="translate(256.445312 0)"/>
       <use xlink:href="#DejaVuSans-65" transform="translate(288.232422 0)"/>
       <use xlink:href="#DejaVuSans-74" transform="translate(349.755859 0)"/>
       <use xlink:href="#DejaVuSans-20" transform="translate(388.964844 0)"/>
       <use xlink:href="#DejaVuSans-61" transform="translate(420.751953 0)"/>
       <use xlink:href="#DejaVuSans-6c" transform="translate(482.03125 0)"/>
       <use xlink:href="#DejaVuSans-2e" transform="translate(509.814453 0)"/>
      </g>
     </g>
    </g>
    <g id="xtick_3">
     <g id="line2d_3">
      <g>
       <use xlink:href="#m72dae37348" x="223.040132" y="204.671266" style="stroke: #000000; stroke-width: 0.8"/>
      </g>
     </g>
     <g id="text_3">
      <!-- Singh, Fengling et al. -->
      <g transform="translate(65.626299 331.593866) rotate(-35) scale(0.18 -0.18)">
       <defs>
        <path id="DejaVuSans-53" d="M 3425 4513 
L 3425 3897 
Q 3066 4069 2747 4153 
Q 2428 4238 2131 4238 
Q 1616 4238 1336 4038 
Q 1056 3838 1056 3469 
Q 1056 3159 1242 3001 
Q 1428 2844 1947 2747 
L 2328 2669 
Q 3034 2534 3370 2195 
Q 3706 1856 3706 1288 
Q 3706 609 3251 259 
Q 2797 -91 1919 -91 
Q 1588 -91 1214 -16 
Q 841 59 441 206 
L 441 856 
Q 825 641 1194 531 
Q 1563 422 1919 422 
Q 2459 422 2753 634 
Q 3047 847 3047 1241 
Q 3047 1584 2836 1778 
Q 2625 1972 2144 2069 
L 1759 2144 
Q 1053 2284 737 2584 
Q 422 2884 422 3419 
Q 422 4038 858 4394 
Q 1294 4750 2059 4750 
Q 2388 4750 2728 4690 
Q 3069 4631 3425 4513 
z
" transform="scale(0.015625)"/>
        <path id="DejaVuSans-67" d="M 2906 1791 
Q 2906 2416 2648 2759 
Q 2391 3103 1925 3103 
Q 1463 3103 1205 2759 
Q 947 2416 947 1791 
Q 947 1169 1205 825 
Q 1463 481 1925 481 
Q 2391 481 2648 825 
Q 2906 1169 2906 1791 
z
M 3481 434 
Q 3481 -459 3084 -895 
Q 2688 -1331 1869 -1331 
Q 1566 -1331 1297 -1286 
Q 1028 -1241 775 -1147 
L 775 -588 
Q 1028 -725 1275 -790 
Q 1522 -856 1778 -856 
Q 2344 -856 2625 -561 
Q 2906 -266 2906 331 
L 2906 616 
Q 2728 306 2450 153 
Q 2172 0 1784 0 
Q 1141 0 747 490 
Q 353 981 353 1791 
Q 353 2603 747 3093 
Q 1141 3584 1784 3584 
Q 2172 3584 2450 3431 
Q 2728 3278 2906 2969 
L 2906 3500 
L 3481 3500 
L 3481 434 
z
" transform="scale(0.015625)"/>
        <path id="DejaVuSans-2c" d="M 750 794 
L 1409 794 
L 1409 256 
L 897 -744 
L 494 -744 
L 750 256 
L 750 794 
z
" transform="scale(0.015625)"/>
        <path id="DejaVuSans-46" d="M 628 4666 
L 3309 4666 
L 3309 4134 
L 1259 4134 
L 1259 2759 
L 3109 2759 
L 3109 2228 
L 1259 2228 
L 1259 0 
L 628 0 
L 628 4666 
z
" transform="scale(0.015625)"/>
       </defs>
       <use xlink:href="#DejaVuSans-53"/>
       <use xlink:href="#DejaVuSans-69" transform="translate(63.476562 0)"/>
       <use xlink:href="#DejaVuSans-6e" transform="translate(91.259766 0)"/>
       <use xlink:href="#DejaVuSans-67" transform="translate(154.638672 0)"/>
       <use xlink:href="#DejaVuSans-68" transform="translate(218.115234 0)"/>
       <use xlink:href="#DejaVuSans-2c" transform="translate(281.494141 0)"/>
       <use xlink:href="#DejaVuSans-20" transform="translate(313.28125 0)"/>
       <use xlink:href="#DejaVuSans-46" transform="translate(345.068359 0)"/>
       <use xlink:href="#DejaVuSans-65" transform="translate(397.087891 0)"/>
       <use xlink:href="#DejaVuSans-6e" transform="translate(458.611328 0)"/>
       <use xlink:href="#DejaVuSans-67" transform="translate(521.990234 0)"/>
       <use xlink:href="#DejaVuSans-6c" transform="translate(585.466797 0)"/>
       <use xlink:href="#DejaVuSans-69" transform="translate(613.25 0)"/>
       <use xlink:href="#DejaVuSans-6e" transform="translate(641.033203 0)"/>
       <use xlink:href="#DejaVuSans-67" transform="translate(704.412109 0)"/>
       <use xlink:href="#DejaVuSans-20" transform="translate(767.888672 0)"/>
       <use xlink:href="#DejaVuSans-65" transform="translate(799.675781 0)"/>
       <use xlink:href="#DejaVuSans-74" transform="translate(861.199219 0)"/>
       <use xlink:href="#DejaVuSans-20" transform="translate(900.408203 0)"/>
       <use xlink:href="#DejaVuSans-61" transform="translate(932.195312 0)"/>
       <use xlink:href="#DejaVuSans-6c" transform="translate(993.474609 0)"/>
       <use xlink:href="#DejaVuSans-2e" transform="translate(1021.257812 0)"/>
      </g>
     </g>
    </g>
    <g id="xtick_4">
     <g id="line2d_4">
      <g>
       <use xlink:href="#m72dae37348" x="262.238728" y="204.671266" style="stroke: #000000; stroke-width: 0.8"/>
      </g>
     </g>
     <g id="text_4">
      <!-- Gahbauer et al. -->
      <g transform="translate(145.368313 303.205059) rotate(-35) scale(0.18 -0.18)">
       <defs>
        <path id="DejaVuSans-62" d="M 3116 1747 
Q 3116 2381 2855 2742 
Q 2594 3103 2138 3103 
Q 1681 3103 1420 2742 
Q 1159 2381 1159 1747 
Q 1159 1113 1420 752 
Q 1681 391 2138 391 
Q 2594 391 2855 752 
Q 3116 1113 3116 1747 
z
M 1159 2969 
Q 1341 3281 1617 3432 
Q 1894 3584 2278 3584 
Q 2916 3584 3314 3078 
Q 3713 2572 3713 1747 
Q 3713 922 3314 415 
Q 2916 -91 2278 -91 
Q 1894 -91 1617 61 
Q 1341 213 1159 525 
L 1159 0 
L 581 0 
L 581 4863 
L 1159 4863 
L 1159 2969 
z
" transform="scale(0.015625)"/>
       </defs>
       <use xlink:href="#DejaVuSans-47"/>
       <use xlink:href="#DejaVuSans-61" transform="translate(77.490234 0)"/>
       <use xlink:href="#DejaVuSans-68" transform="translate(138.769531 0)"/>
       <use xlink:href="#DejaVuSans-62" transform="translate(202.148438 0)"/>
       <use xlink:href="#DejaVuSans-61" transform="translate(265.625 0)"/>
       <use xlink:href="#DejaVuSans-75" transform="translate(326.904297 0)"/>
       <use xlink:href="#DejaVuSans-65" transform="translate(390.283203 0)"/>
       <use xlink:href="#DejaVuSans-72" transform="translate(451.806641 0)"/>
       <use xlink:href="#DejaVuSans-20" transform="translate(492.919922 0)"/>
       <use xlink:href="#DejaVuSans-65" transform="translate(524.707031 0)"/>
       <use xlink:href="#DejaVuSans-74" transform="translate(586.230469 0)"/>
       <use xlink:href="#DejaVuSans-20" transform="translate(625.439453 0)"/>
       <use xlink:href="#DejaVuSans-61" transform="translate(657.226562 0)"/>
       <use xlink:href="#DejaVuSans-6c" transform="translate(718.505859 0)"/>
       <use xlink:href="#DejaVuSans-2e" transform="translate(746.289062 0)"/>
      </g>
     </g>
    </g>
    <g id="xtick_5">
     <g id="line2d_5">
      <g>
       <use xlink:href="#m72dae37348" x="301.437323" y="204.671266" style="stroke: #000000; stroke-width: 0.8"/>
      </g>
     </g>
     <g id="text_5">
      <!-- Bender et al. -->
      <g transform="translate(204.218877 289.444601) rotate(-35) scale(0.18 -0.18)">
       <defs>
        <path id="DejaVuSans-42" d="M 1259 2228 
L 1259 519 
L 2272 519 
Q 2781 519 3026 730 
Q 3272 941 3272 1375 
Q 3272 1813 3026 2020 
Q 2781 2228 2272 2228 
L 1259 2228 
z
M 1259 4147 
L 1259 2741 
L 2194 2741 
Q 2656 2741 2882 2914 
Q 3109 3088 3109 3444 
Q 3109 3797 2882 3972 
Q 2656 4147 2194 4147 
L 1259 4147 
z
M 628 4666 
L 2241 4666 
Q 2963 4666 3353 4366 
Q 3744 4066 3744 3513 
Q 3744 3084 3544 2831 
Q 3344 2578 2956 2516 
Q 3422 2416 3680 2098 
Q 3938 1781 3938 1306 
Q 3938 681 3513 340 
Q 3088 0 2303 0 
L 628 0 
L 628 4666 
z
" transform="scale(0.015625)"/>
        <path id="DejaVuSans-64" d="M 2906 2969 
L 2906 4863 
L 3481 4863 
L 3481 0 
L 2906 0 
L 2906 525 
Q 2725 213 2448 61 
Q 2172 -91 1784 -91 
Q 1150 -91 751 415 
Q 353 922 353 1747 
Q 353 2572 751 3078 
Q 1150 3584 1784 3584 
Q 2172 3584 2448 3432 
Q 2725 3281 2906 2969 
z
M 947 1747 
Q 947 1113 1208 752 
Q 1469 391 1925 391 
Q 2381 391 2643 752 
Q 2906 1113 2906 1747 
Q 2906 2381 2643 2742 
Q 2381 3103 1925 3103 
Q 1469 3103 1208 2742 
Q 947 2381 947 1747 
z
" transform="scale(0.015625)"/>
       </defs>
       <use xlink:href="#DejaVuSans-42"/>
       <use xlink:href="#DejaVuSans-65" transform="translate(68.603516 0)"/>
       <use xlink:href="#DejaVuSans-6e" transform="translate(130.126953 0)"/>
       <use xlink:href="#DejaVuSans-64" transform="translate(193.505859 0)"/>
       <use xlink:href="#DejaVuSans-65" transform="translate(256.982422 0)"/>
       <use xlink:href="#DejaVuSans-72" transform="translate(318.505859 0)"/>
       <use xlink:href="#DejaVuSans-20" transform="translate(359.619141 0)"/>
       <use xlink:href="#DejaVuSans-65" transform="translate(391.40625 0)"/>
       <use xlink:href="#DejaVuSans-74" transform="translate(452.929688 0)"/>
       <use xlink:href="#DejaVuSans-20" transform="translate(492.138672 0)"/>
       <use xlink:href="#DejaVuSans-61" transform="translate(523.925781 0)"/>
       <use xlink:href="#DejaVuSans-6c" transform="translate(585.205078 0)"/>
       <use xlink:href="#DejaVuSans-2e" transform="translate(612.988281 0)"/>
      </g>
     </g>
    </g>
    <g id="xtick_6">
     <g id="line2d_6">
      <g>
       <use xlink:href="#m72dae37348" x="340.635919" y="204.671266" style="stroke: #000000; stroke-width: 0.8"/>
      </g>
     </g>
     <g id="text_6">
      <!-- Manglik et al. -->
      <g transform="translate(239.252085 292.361238) rotate(-35) scale(0.18 -0.18)">
       <defs>
        <path id="DejaVuSans-4d" d="M 628 4666 
L 1569 4666 
L 2759 1491 
L 3956 4666 
L 4897 4666 
L 4897 0 
L 4281 0 
L 4281 4097 
L 3078 897 
L 2444 897 
L 1241 4097 
L 1241 0 
L 628 0 
L 628 4666 
z
" transform="scale(0.015625)"/>
       </defs>
       <use xlink:href="#DejaVuSans-4d"/>
       <use xlink:href="#DejaVuSans-61" transform="translate(86.279297 0)"/>
       <use xlink:href="#DejaVuSans-6e" transform="translate(147.558594 0)"/>
       <use xlink:href="#DejaVuSans-67" transform="translate(210.9375 0)"/>
       <use xlink:href="#DejaVuSans-6c" transform="translate(274.414062 0)"/>
       <use xlink:href="#DejaVuSans-69" transform="translate(302.197266 0)"/>
       <use xlink:href="#DejaVuSans-6b" transform="translate(329.980469 0)"/>
       <use xlink:href="#DejaVuSans-20" transform="translate(387.890625 0)"/>
       <use xlink:href="#DejaVuSans-65" transform="translate(419.677734 0)"/>
       <use xlink:href="#DejaVuSans-74" transform="translate(481.201172 0)"/>
       <use xlink:href="#DejaVuSans-20" transform="translate(520.410156 0)"/>
       <use xlink:href="#DejaVuSans-61" transform="translate(552.197266 0)"/>
       <use xlink:href="#DejaVuSans-6c" transform="translate(613.476562 0)"/>
       <use xlink:href="#DejaVuSans-2e" transform="translate(641.259766 0)"/>
      </g>
     </g>
    </g>
    <g id="xtick_7">
     <g id="line2d_7">
      <g>
       <use xlink:href="#m72dae37348" x="379.834514" y="204.671266" style="stroke: #000000; stroke-width: 0.8"/>
      </g>
     </g>
     <g id="text_7">
      <!-- Singh, Seth et al. -->
      <g transform="translate(251.207475 311.437135) rotate(-35) scale(0.18 -0.18)">
       <use xlink:href="#DejaVuSans-53"/>
       <use xlink:href="#DejaVuSans-69" transform="translate(63.476562 0)"/>
       <use xlink:href="#DejaVuSans-6e" transform="translate(91.259766 0)"/>
       <use xlink:href="#DejaVuSans-67" transform="translate(154.638672 0)"/>
       <use xlink:href="#DejaVuSans-68" transform="translate(218.115234 0)"/>
       <use xlink:href="#DejaVuSans-2c" transform="translate(281.494141 0)"/>
       <use xlink:href="#DejaVuSans-20" transform="translate(313.28125 0)"/>
       <use xlink:href="#DejaVuSans-53" transform="translate(345.068359 0)"/>
       <use xlink:href="#DejaVuSans-65" transform="translate(408.544922 0)"/>
       <use xlink:href="#DejaVuSans-74" transform="translate(470.068359 0)"/>
       <use xlink:href="#DejaVuSans-68" transform="translate(509.277344 0)"/>
       <use xlink:href="#DejaVuSans-20" transform="translate(572.65625 0)"/>
       <use xlink:href="#DejaVuSans-65" transform="translate(604.443359 0)"/>
       <use xlink:href="#DejaVuSans-74" transform="translate(665.966797 0)"/>
       <use xlink:href="#DejaVuSans-20" transform="translate(705.175781 0)"/>
       <use xlink:href="#DejaVuSans-61" transform="translate(736.962891 0)"/>
       <use xlink:href="#DejaVuSans-6c" transform="translate(798.242188 0)"/>
       <use xlink:href="#DejaVuSans-2e" transform="translate(826.025391 0)"/>
      </g>
     </g>
    </g>
    <g id="xtick_8">
     <g id="line2d_8">
      <g>
       <use xlink:href="#m72dae37348" x="419.03311" y="204.671266" style="stroke: #000000; stroke-width: 0.8"/>
      </g>
     </g>
     <g id="text_8">
      <!-- Alon et al. -->
      <g transform="translate(342.293721 275.105011) rotate(-35) scale(0.18 -0.18)">
       <defs>
        <path id="DejaVuSans-41" d="M 2188 4044 
L 1331 1722 
L 3047 1722 
L 2188 4044 
z
M 1831 4666 
L 2547 4666 
L 4325 0 
L 3669 0 
L 3244 1197 
L 1141 1197 
L 716 0 
L 50 0 
L 1831 4666 
z
" transform="scale(0.015625)"/>
       </defs>
       <use xlink:href="#DejaVuSans-41"/>
       <use xlink:href="#DejaVuSans-6c" transform="translate(68.408203 0)"/>
       <use xlink:href="#DejaVuSans-6f" transform="translate(96.191406 0)"/>
       <use xlink:href="#DejaVuSans-6e" transform="translate(157.373047 0)"/>
       <use xlink:href="#DejaVuSans-20" transform="translate(220.751953 0)"/>
       <use xlink:href="#DejaVuSans-65" transform="translate(252.539062 0)"/>
       <use xlink:href="#DejaVuSans-74" transform="translate(314.0625 0)"/>
       <use xlink:href="#DejaVuSans-20" transform="translate(353.271484 0)"/>
       <use xlink:href="#DejaVuSans-61" transform="translate(385.058594 0)"/>
       <use xlink:href="#DejaVuSans-6c" transform="translate(446.337891 0)"/>
       <use xlink:href="#DejaVuSans-2e" transform="translate(474.121094 0)"/>
      </g>
     </g>
    </g>
   </g>
   <g id="matplotlib.axis_2">
    <g id="ytick_1">
     <g id="line2d_9">
      <defs>
       <path id="mb00a5a2525" d="M 0 0 
L -3.5 0 
" style="stroke: #000000; stroke-width: 0.8"/>
      </defs>
      <g>
       <use xlink:href="#mb00a5a2525" x="113.676051" y="204.671266" style="stroke: #000000; stroke-width: 0.8"/>
      </g>
     </g>
     <g id="text_9">
      <!-- 0 -->
      <g transform="translate(95.223551 211.509859) scale(0.18 -0.18)">
       <defs>
        <path id="DejaVuSans-30" d="M 2034 4250 
Q 1547 4250 1301 3770 
Q 1056 3291 1056 2328 
Q 1056 1369 1301 889 
Q 1547 409 2034 409 
Q 2525 409 2770 889 
Q 3016 1369 3016 2328 
Q 3016 3291 2770 3770 
Q 2525 4250 2034 4250 
z
M 2034 4750 
Q 2819 4750 3233 4129 
Q 3647 3509 3647 2328 
Q 3647 1150 3233 529 
Q 2819 -91 2034 -91 
Q 1250 -91 836 529 
Q 422 1150 422 2328 
Q 422 3509 836 4129 
Q 1250 4750 2034 4750 
z
" transform="scale(0.015625)"/>
       </defs>
       <use xlink:href="#DejaVuSans-30"/>
      </g>
     </g>
    </g>
    <g id="ytick_2">
     <g id="line2d_10">
      <g>
       <use xlink:href="#mb00a5a2525" x="113.676051" y="170.051397" style="stroke: #000000; stroke-width: 0.8"/>
      </g>
     </g>
     <g id="text_10">
      <!-- 5 -->
      <g transform="translate(95.223551 176.88999) scale(0.18 -0.18)">
       <defs>
        <path id="DejaVuSans-35" d="M 691 4666 
L 3169 4666 
L 3169 4134 
L 1269 4134 
L 1269 2991 
Q 1406 3038 1543 3061 
Q 1681 3084 1819 3084 
Q 2600 3084 3056 2656 
Q 3513 2228 3513 1497 
Q 3513 744 3044 326 
Q 2575 -91 1722 -91 
Q 1428 -91 1123 -41 
Q 819 9 494 109 
L 494 744 
Q 775 591 1075 516 
Q 1375 441 1709 441 
Q 2250 441 2565 725 
Q 2881 1009 2881 1497 
Q 2881 1984 2565 2268 
Q 2250 2553 1709 2553 
Q 1456 2553 1204 2497 
Q 953 2441 691 2322 
L 691 4666 
z
" transform="scale(0.015625)"/>
       </defs>
       <use xlink:href="#DejaVuSans-35"/>
      </g>
     </g>
    </g>
    <g id="ytick_3">
     <g id="line2d_11">
      <g>
       <use xlink:href="#mb00a5a2525" x="113.676051" y="135.431528" style="stroke: #000000; stroke-width: 0.8"/>
      </g>
     </g>
     <g id="text_11">
      <!-- 10 -->
      <g transform="translate(83.771051 142.270122) scale(0.18 -0.18)">
       <defs>
        <path id="DejaVuSans-31" d="M 794 531 
L 1825 531 
L 1825 4091 
L 703 3866 
L 703 4441 
L 1819 4666 
L 2450 4666 
L 2450 531 
L 3481 531 
L 3481 0 
L 794 0 
L 794 531 
z
" transform="scale(0.015625)"/>
       </defs>
       <use xlink:href="#DejaVuSans-31"/>
       <use xlink:href="#DejaVuSans-30" transform="translate(63.623047 0)"/>
      </g>
     </g>
    </g>
    <g id="ytick_4">
     <g id="line2d_12">
      <g>
       <use xlink:href="#mb00a5a2525" x="113.676051" y="100.811659" style="stroke: #000000; stroke-width: 0.8"/>
      </g>
     </g>
     <g id="text_12">
      <!-- 15 -->
      <g transform="translate(83.771051 107.650253) scale(0.18 -0.18)">
       <use xlink:href="#DejaVuSans-31"/>
       <use xlink:href="#DejaVuSans-35" transform="translate(63.623047 0)"/>
      </g>
     </g>
    </g>
    <g id="ytick_5">
     <g id="line2d_13">
      <g>
       <use xlink:href="#mb00a5a2525" x="113.676051" y="66.19179" style="stroke: #000000; stroke-width: 0.8"/>
      </g>
     </g>
     <g id="text_13">
      <!-- 20 -->
      <g transform="translate(83.771051 73.030384) scale(0.18 -0.18)">
       <defs>
        <path id="DejaVuSans-32" d="M 1228 531 
L 3431 531 
L 3431 0 
L 469 0 
L 469 531 
Q 828 903 1448 1529 
Q 2069 2156 2228 2338 
Q 2531 2678 2651 2914 
Q 2772 3150 2772 3378 
Q 2772 3750 2511 3984 
Q 2250 4219 1831 4219 
Q 1534 4219 1204 4116 
Q 875 4013 500 3803 
L 500 4441 
Q 881 4594 1212 4672 
Q 1544 4750 1819 4750 
Q 2544 4750 2975 4387 
Q 3406 4025 3406 3419 
Q 3406 3131 3298 2873 
Q 3191 2616 2906 2266 
Q 2828 2175 2409 1742 
Q 1991 1309 1228 531 
z
" transform="scale(0.015625)"/>
       </defs>
       <use xlink:href="#DejaVuSans-32"/>
       <use xlink:href="#DejaVuSans-30" transform="translate(63.623047 0)"/>
      </g>
     </g>
    </g>
    <g id="ytick_6">
     <g id="line2d_14">
      <g>
       <use xlink:href="#mb00a5a2525" x="113.676051" y="31.571921" style="stroke: #000000; stroke-width: 0.8"/>
      </g>
     </g>
     <g id="text_14">
      <!-- 25 -->
      <g transform="translate(83.771051 38.410515) scale(0.18 -0.18)">
       <use xlink:href="#DejaVuSans-32"/>
       <use xlink:href="#DejaVuSans-35" transform="translate(63.623047 0)"/>
      </g>
     </g>
    </g>
    <g id="text_15">
     <!-- Paper Ligand Count -->
     <g transform="translate(55.871551 195.832977) rotate(-90) scale(0.18 -0.18)">
      <defs>
       <path id="DejaVuSans-50" d="M 1259 4147 
L 1259 2394 
L 2053 2394 
Q 2494 2394 2734 2622 
Q 2975 2850 2975 3272 
Q 2975 3691 2734 3919 
Q 2494 4147 2053 4147 
L 1259 4147 
z
M 628 4666 
L 2053 4666 
Q 2838 4666 3239 4311 
Q 3641 3956 3641 3272 
Q 3641 2581 3239 2228 
Q 2838 1875 2053 1875 
L 1259 1875 
L 1259 0 
L 628 0 
L 628 4666 
z
" transform="scale(0.015625)"/>
       <path id="DejaVuSans-70" d="M 1159 525 
L 1159 -1331 
L 581 -1331 
L 581 3500 
L 1159 3500 
L 1159 2969 
Q 1341 3281 1617 3432 
Q 1894 3584 2278 3584 
Q 2916 3584 3314 3078 
Q 3713 2572 3713 1747 
Q 3713 922 3314 415 
Q 2916 -91 2278 -91 
Q 1894 -91 1617 61 
Q 1341 213 1159 525 
z
M 3116 1747 
Q 3116 2381 2855 2742 
Q 2594 3103 2138 3103 
Q 1681 3103 1420 2742 
Q 1159 2381 1159 1747 
Q 1159 1113 1420 752 
Q 1681 391 2138 391 
Q 2594 391 2855 752 
Q 3116 1113 3116 1747 
z
" transform="scale(0.015625)"/>
       <path id="DejaVuSans-4c" d="M 628 4666 
L 1259 4666 
L 1259 531 
L 3531 531 
L 3531 0 
L 628 0 
L 628 4666 
z
" transform="scale(0.015625)"/>
       <path id="DejaVuSans-43" d="M 4122 4306 
L 4122 3641 
Q 3803 3938 3442 4084 
Q 3081 4231 2675 4231 
Q 1875 4231 1450 3742 
Q 1025 3253 1025 2328 
Q 1025 1406 1450 917 
Q 1875 428 2675 428 
Q 3081 428 3442 575 
Q 3803 722 4122 1019 
L 4122 359 
Q 3791 134 3420 21 
Q 3050 -91 2638 -91 
Q 1578 -91 968 557 
Q 359 1206 359 2328 
Q 359 3453 968 4101 
Q 1578 4750 2638 4750 
Q 3056 4750 3426 4639 
Q 3797 4528 4122 4306 
z
" transform="scale(0.015625)"/>
      </defs>
      <use xlink:href="#DejaVuSans-50"/>
      <use xlink:href="#DejaVuSans-61" transform="translate(55.802734 0)"/>
      <use xlink:href="#DejaVuSans-70" transform="translate(117.082031 0)"/>
      <use xlink:href="#DejaVuSans-65" transform="translate(180.558594 0)"/>
      <use xlink:href="#DejaVuSans-72" transform="translate(242.082031 0)"/>
      <use xlink:href="#DejaVuSans-20" transform="translate(283.195312 0)"/>
      <use xlink:href="#DejaVuSans-4c" transform="translate(314.982422 0)"/>
      <use xlink:href="#DejaVuSans-69" transform="translate(370.695312 0)"/>
      <use xlink:href="#DejaVuSans-67" transform="translate(398.478516 0)"/>
      <use xlink:href="#DejaVuSans-61" transform="translate(461.955078 0)"/>
      <use xlink:href="#DejaVuSans-6e" transform="translate(523.234375 0)"/>
      <use xlink:href="#DejaVuSans-64" transform="translate(586.613281 0)"/>
      <use xlink:href="#DejaVuSans-20" transform="translate(650.089844 0)"/>
      <use xlink:href="#DejaVuSans-43" transform="translate(681.876953 0)"/>
      <use xlink:href="#DejaVuSans-6f" transform="translate(751.701172 0)"/>
      <use xlink:href="#DejaVuSans-75" transform="translate(812.882812 0)"/>
      <use xlink:href="#DejaVuSans-6e" transform="translate(876.261719 0)"/>
      <use xlink:href="#DejaVuSans-74" transform="translate(939.640625 0)"/>
     </g>
     <!--  -->
     <g transform="translate(76.027614 107.735633) rotate(-90) scale(0.18 -0.18)"/>
    </g>
   </g>
   <g id="patch_19">
    <path d="M 113.676051 204.671266 
L 113.676051 10.8 
" style="fill: none; stroke: #000000; stroke-width: 0.8; stroke-linejoin: miter; stroke-linecap: square"/>
   </g>
   <g id="patch_20">
    <path d="M 450 204.671266 
L 450 10.8 
" style="fill: none; stroke: #000000; stroke-width: 0.8; stroke-linejoin: miter; stroke-linecap: square"/>
   </g>
   <g id="patch_21">
    <path d="M 113.676051 204.671266 
L 450 204.671266 
" style="fill: none; stroke: #000000; stroke-width: 0.8; stroke-linejoin: miter; stroke-linecap: square"/>
   </g>
   <g id="patch_22">
    <path d="M 113.676051 10.8 
L 450 10.8 
" style="fill: none; stroke: #000000; stroke-width: 0.8; stroke-linejoin: miter; stroke-linecap: square"/>
   </g>
   <g id="legend_1">
    <g id="patch_23">
     <path d="M 126.276051 78.04125 
L 276.089489 78.04125 
Q 279.689489 78.04125 279.689489 74.44125 
L 279.689489 23.4 
Q 279.689489 19.8 276.089489 19.8 
L 126.276051 19.8 
Q 122.676051 19.8 122.676051 23.4 
L 122.676051 74.44125 
Q 122.676051 78.04125 126.276051 78.04125 
z
" style="fill: #ffffff; opacity: 0.8; stroke: #cccccc; stroke-linejoin: miter"/>
    </g>
    <g id="patch_24">
     <path d="M 129.876051 40.677188 
L 165.876051 40.677188 
L 165.876051 28.077188 
L 129.876051 28.077188 
z
" style="fill: #0072b2; stroke: #000000; stroke-linejoin: miter"/>
    </g>
    <g id="text_16">
     <!-- Found -->
     <g transform="translate(180.276051 40.677188) scale(0.18 -0.18)">
      <use xlink:href="#DejaVuSans-46"/>
      <use xlink:href="#DejaVuSans-6f" transform="translate(53.894531 0)"/>
      <use xlink:href="#DejaVuSans-75" transform="translate(115.076172 0)"/>
      <use xlink:href="#DejaVuSans-6e" transform="translate(178.455078 0)"/>
      <use xlink:href="#DejaVuSans-64" transform="translate(241.833984 0)"/>
     </g>
    </g>
    <g id="patch_25">
     <path d="M 129.876051 67.097812 
L 165.876051 67.097812 
L 165.876051 54.497812 
L 129.876051 54.497812 
z
" style="fill: #e69f00; stroke: #000000; stroke-linejoin: miter"/>
    </g>
    <g id="text_17">
     <!-- Not Found -->
     <g transform="translate(180.276051 67.097812) scale(0.18 -0.18)">
      <defs>
       <path id="DejaVuSans-4e" d="M 628 4666 
L 1478 4666 
L 3547 763 
L 3547 4666 
L 4159 4666 
L 4159 0 
L 3309 0 
L 1241 3903 
L 1241 0 
L 628 0 
L 628 4666 
z
" transform="scale(0.015625)"/>
      </defs>
      <use xlink:href="#DejaVuSans-4e"/>
      <use xlink:href="#DejaVuSans-6f" transform="translate(74.804688 0)"/>
      <use xlink:href="#DejaVuSans-74" transform="translate(135.986328 0)"/>
      <use xlink:href="#DejaVuSans-20" transform="translate(175.195312 0)"/>
      <use xlink:href="#DejaVuSans-46" transform="translate(206.982422 0)"/>
      <use xlink:href="#DejaVuSans-6f" transform="translate(260.876953 0)"/>
      <use xlink:href="#DejaVuSans-75" transform="translate(322.058594 0)"/>
      <use xlink:href="#DejaVuSans-6e" transform="translate(385.4375 0)"/>
      <use xlink:href="#DejaVuSans-64" transform="translate(448.816406 0)"/>
     </g>
    </g>
   </g>
  </g>
 </g>
 <defs>
  <clipPath id="p389f86ace5">
   <rect x="113.676051" y="10.8" width="336.323949" height="193.871266"/>
  </clipPath>
 </defs>
</svg>
