<?xml version="1.0" encoding="utf-8" standalone="no"?>
<!DOCTYPE svg PUBLIC "-//W3C//DTD SVG 1.1//EN"
  "http://www.w3.org/Graphics/SVG/1.1/DTD/svg11.dtd">
<svg xmlns:xlink="http://www.w3.org/1999/xlink" width="856.37125pt" height="437.103091pt" viewBox="0 0 856.37125 437.103091" xmlns="http://www.w3.org/2000/svg" version="1.1">
 <metadata>
  <rdf:RDF xmlns:dc="http://purl.org/dc/elements/1.1/" xmlns:cc="http://creativecommons.org/ns#" xmlns:rdf="http://www.w3.org/1999/02/22-rdf-syntax-ns#">
   <cc:Work>
    <dc:type rdf:resource="http://purl.org/dc/dcmitype/StillImage"/>
    <dc:date>2025-11-29T20:14:11.345958</dc:date>
    <dc:format>image/svg+xml</dc:format>
    <dc:creator>
     <cc:Agent>
      <dc:title>Matplotlib v3.10.0, https://matplotlib.org/</dc:title>
     </cc:Agent>
    </dc:creator>
   </cc:Work>
  </rdf:RDF>
 </metadata>
 <defs>
  <style type="text/css">*{stroke-linejoin: round; stroke-linecap: butt}</style>
 </defs>
 <g id="figure_1">
  <g id="patch_1">
   <path d="M 0 437.103091 
L 856.37125 437.103091 
L 856.37125 0 
L 0 0 
L 0 437.103091 
z
" style="fill: none"/>
  </g>
  <g id="axes_1">
   <g id="patch_2">
    <path d="M 43.78125 295.042153 
L 849.17125 295.042153 
L 849.17125 24.047897 
L 43.78125 24.047897 
L 43.78125 295.042153 
z
" style="fill: none"/>
   </g>
   <g id="patch_3">
    <path d="M 80.389886 295.042153 
L 113.670465 295.042153 
L 113.670465 189.827599 
L 80.389886 189.827599 
L 80.389886 295.042153 
z
" clip-path="url(#p4d08ae657e)" style="fill: none; opacity: 0"/>
   </g>
   <g id="patch_4">
    <path d="M 163.591333 295.042153 
L 196.871911 295.042153 
L 196.871911 189.827599 
L 163.591333 189.827599 
L 163.591333 295.042153 
z
" clip-path="url(#p4d08ae657e)" style="fill: none; opacity: 0"/>
   </g>
   <g id="patch_5">
    <path d="M 246.792779 295.042153 
L 280.073357 295.042153 
L 280.073357 189.827599 
L 246.792779 189.827599 
L 246.792779 295.042153 
z
" clip-path="url(#p4d08ae657e)" style="fill: none; opacity: 0"/>
   </g>
   <g id="patch_6">
    <path d="M 329.994225 295.042153 
L 363.274804 295.042153 
L 363.274804 189.827599 
L 329.994225 189.827599 
L 329.994225 295.042153 
z
" clip-path="url(#p4d08ae657e)" style="fill: none; opacity: 0"/>
   </g>
   <g id="patch_7">
    <path d="M 413.195671 295.042153 
L 446.47625 295.042153 
L 446.47625 189.827599 
L 413.195671 189.827599 
L 413.195671 295.042153 
z
" clip-path="url(#p4d08ae657e)" style="fill: none; opacity: 0"/>
   </g>
   <g id="patch_8">
    <path d="M 496.397118 295.042153 
L 529.677696 295.042153 
L 529.677696 189.827599 
L 496.397118 189.827599 
L 496.397118 295.042153 
z
" clip-path="url(#p4d08ae657e)" style="fill: none; opacity: 0"/>
   </g>
   <g id="patch_9">
    <path d="M 579.598564 295.042153 
L 612.879143 295.042153 
L 612.879143 189.827599 
L 579.598564 189.827599 
L 579.598564 295.042153 
z
" clip-path="url(#p4d08ae657e)" style="fill: none; opacity: 0"/>
   </g>
   <g id="patch_10">
    <path d="M 662.80001 295.042153 
L 696.080589 295.042153 
L 696.080589 189.827599 
L 662.80001 189.827599 
L 662.80001 295.042153 
z
" clip-path="url(#p4d08ae657e)" style="fill: none; opacity: 0"/>
   </g>
   <g id="patch_11">
    <path d="M 746.001457 295.042153 
L 779.282035 295.042153 
L 779.282035 189.827599 
L 746.001457 189.827599 
L 746.001457 295.042153 
z
" clip-path="url(#p4d08ae657e)" style="fill: none; opacity: 0"/>
   </g>
   <g id="patch_12">
    <path d="M 113.670465 295.042153 
L 146.951043 295.042153 
L 146.951043 166.008626 
L 113.670465 166.008626 
L 113.670465 295.042153 
z
" clip-path="url(#p4d08ae657e)" style="fill: none; opacity: 0"/>
   </g>
   <g id="patch_13">
    <path d="M 196.871911 295.042153 
L 230.15249 295.042153 
L 230.15249 222.531723 
L 196.871911 222.531723 
L 196.871911 295.042153 
z
" clip-path="url(#p4d08ae657e)" style="fill: none; opacity: 0"/>
   </g>
   <g id="patch_14">
    <path d="M 280.073357 295.042153 
L 313.353936 295.042153 
L 313.353936 186.072473 
L 280.073357 186.072473 
L 280.073357 295.042153 
z
" clip-path="url(#p4d08ae657e)" style="fill: none; opacity: 0"/>
   </g>
   <g id="patch_15">
    <path d="M 363.274804 295.042153 
L 396.555382 295.042153 
L 396.555382 196.004709 
L 363.274804 196.004709 
L 363.274804 295.042153 
z
" clip-path="url(#p4d08ae657e)" style="fill: none; opacity: 0"/>
   </g>
   <g id="patch_16">
    <path d="M 446.47625 295.042153 
L 479.756829 295.042153 
L 479.756829 253.336771 
L 446.47625 253.336771 
L 446.47625 295.042153 
z
" clip-path="url(#p4d08ae657e)" style="fill: none; opacity: 0"/>
   </g>
   <g id="patch_17">
    <path d="M 529.677696 295.042153 
L 562.958275 295.042153 
L 562.958275 246.134392 
L 529.677696 246.134392 
L 529.677696 295.042153 
z
" clip-path="url(#p4d08ae657e)" style="fill: none; opacity: 0"/>
   </g>
   <g id="patch_18">
    <path d="M 612.879143 295.042153 
L 646.159721 295.042153 
L 646.159721 137.219543 
L 612.879143 137.219543 
L 612.879143 295.042153 
z
" clip-path="url(#p4d08ae657e)" style="fill: none; opacity: 0"/>
   </g>
   <g id="patch_19">
    <path d="M 696.080589 295.042153 
L 729.361167 295.042153 
L 729.361167 226.894538 
L 696.080589 226.894538 
L 696.080589 295.042153 
z
" clip-path="url(#p4d08ae657e)" style="fill: none; opacity: 0"/>
   </g>
   <g id="patch_20">
    <path d="M 779.282035 295.042153 
L 812.562614 295.042153 
L 812.562614 226.894538 
L 779.282035 226.894538 
L 779.282035 295.042153 
z
" clip-path="url(#p4d08ae657e)" style="fill: none; opacity: 0"/>
   </g>
   <g id="matplotlib.axis_1">
    <g id="xtick_1">
     <g id="line2d_1">
      <defs>
       <path id="m0e6698f5b7" d="M 0 0 
L 0 3.5 
" style="stroke: #000000; stroke-width: 0.8"/>
      </defs>
      <g>
       <use xlink:href="#m0e6698f5b7" x="113.670465" y="295.042153" style="stroke: #000000; stroke-width: 0.8"/>
      </g>
     </g>
     <g id="text_1">
      <!-- 0889 -->
      <g transform="translate(116.42984 327.492153) rotate(-90) scale(0.1 -0.1)">
       <defs>
        <path id="DejaVuSans-30" d="M 2034 4250 
Q 1547 4250 1301 3770 
Q 1056 3291 1056 2328 
Q 1056 1369 1301 889 
Q 1547 409 2034 409 
Q 2525 409 2770 889 
Q 3016 1369 3016 2328 
Q 3016 3291 2770 3770 
Q 2525 4250 2034 4250 
z
M 2034 4750 
Q 2819 4750 3233 4129 
Q 3647 3509 3647 2328 
Q 3647 1150 3233 529 
Q 2819 -91 2034 -91 
Q 1250 -91 836 529 
Q 422 1150 422 2328 
Q 422 3509 836 4129 
Q 1250 4750 2034 4750 
z
" transform="scale(0.015625)"/>
        <path id="DejaVuSans-38" d="M 2034 2216 
Q 1584 2216 1326 1975 
Q 1069 1734 1069 1313 
Q 1069 891 1326 650 
Q 1584 409 2034 409 
Q 2484 409 2743 651 
Q 3003 894 3003 1313 
Q 3003 1734 2745 1975 
Q 2488 2216 2034 2216 
z
M 1403 2484 
Q 997 2584 770 2862 
Q 544 3141 544 3541 
Q 544 4100 942 4425 
Q 1341 4750 2034 4750 
Q 2731 4750 3128 4425 
Q 3525 4100 3525 3541 
Q 3525 3141 3298 2862 
Q 3072 2584 2669 2484 
Q 3125 2378 3379 2068 
Q 3634 1759 3634 1313 
Q 3634 634 3220 271 
Q 2806 -91 2034 -91 
Q 1263 -91 848 271 
Q 434 634 434 1313 
Q 434 1759 690 2068 
Q 947 2378 1403 2484 
z
M 1172 3481 
Q 1172 3119 1398 2916 
Q 1625 2713 2034 2713 
Q 2441 2713 2670 2916 
Q 2900 3119 2900 3481 
Q 2900 3844 2670 4047 
Q 2441 4250 2034 4250 
Q 1625 4250 1398 4047 
Q 1172 3844 1172 3481 
z
" transform="scale(0.015625)"/>
        <path id="DejaVuSans-39" d="M 703 97 
L 703 672 
Q 941 559 1184 500 
Q 1428 441 1663 441 
Q 2288 441 2617 861 
Q 2947 1281 2994 2138 
Q 2813 1869 2534 1725 
Q 2256 1581 1919 1581 
Q 1219 1581 811 2004 
Q 403 2428 403 3163 
Q 403 3881 828 4315 
Q 1253 4750 1959 4750 
Q 2769 4750 3195 4129 
Q 3622 3509 3622 2328 
Q 3622 1225 3098 567 
Q 2575 -91 1691 -91 
Q 1453 -91 1209 -44 
Q 966 3 703 97 
z
M 1959 2075 
Q 2384 2075 2632 2365 
Q 2881 2656 2881 3163 
Q 2881 3666 2632 3958 
Q 2384 4250 1959 4250 
Q 1534 4250 1286 3958 
Q 1038 3666 1038 3163 
Q 1038 2656 1286 2365 
Q 1534 2075 1959 2075 
z
" transform="scale(0.015625)"/>
       </defs>
       <use xlink:href="#DejaVuSans-30"/>
       <use xlink:href="#DejaVuSans-38" transform="translate(63.623047 0)"/>
       <use xlink:href="#DejaVuSans-38" transform="translate(127.246094 0)"/>
       <use xlink:href="#DejaVuSans-39" transform="translate(190.869141 0)"/>
      </g>
     </g>
    </g>
    <g id="xtick_2">
     <g id="line2d_2">
      <g>
       <use xlink:href="#m0e6698f5b7" x="196.871911" y="295.042153" style="stroke: #000000; stroke-width: 0.8"/>
      </g>
     </g>
     <g id="text_2">
      <!-- 3547 -->
      <g transform="translate(199.631286 327.492153) rotate(-90) scale(0.1 -0.1)">
       <defs>
        <path id="DejaVuSans-33" d="M 2597 2516 
Q 3050 2419 3304 2112 
Q 3559 1806 3559 1356 
Q 3559 666 3084 287 
Q 2609 -91 1734 -91 
Q 1441 -91 1130 -33 
Q 819 25 488 141 
L 488 750 
Q 750 597 1062 519 
Q 1375 441 1716 441 
Q 2309 441 2620 675 
Q 2931 909 2931 1356 
Q 2931 1769 2642 2001 
Q 2353 2234 1838 2234 
L 1294 2234 
L 1294 2753 
L 1863 2753 
Q 2328 2753 2575 2939 
Q 2822 3125 2822 3475 
Q 2822 3834 2567 4026 
Q 2313 4219 1838 4219 
Q 1578 4219 1281 4162 
Q 984 4106 628 3988 
L 628 4550 
Q 988 4650 1302 4700 
Q 1616 4750 1894 4750 
Q 2613 4750 3031 4423 
Q 3450 4097 3450 3541 
Q 3450 3153 3228 2886 
Q 3006 2619 2597 2516 
z
" transform="scale(0.015625)"/>
        <path id="DejaVuSans-35" d="M 691 4666 
L 3169 4666 
L 3169 4134 
L 1269 4134 
L 1269 2991 
Q 1406 3038 1543 3061 
Q 1681 3084 1819 3084 
Q 2600 3084 3056 2656 
Q 3513 2228 3513 1497 
Q 3513 744 3044 326 
Q 2575 -91 1722 -91 
Q 1428 -91 1123 -41 
Q 819 9 494 109 
L 494 744 
Q 775 591 1075 516 
Q 1375 441 1709 441 
Q 2250 441 2565 725 
Q 2881 1009 2881 1497 
Q 2881 1984 2565 2268 
Q 2250 2553 1709 2553 
Q 1456 2553 1204 2497 
Q 953 2441 691 2322 
L 691 4666 
z
" transform="scale(0.015625)"/>
        <path id="DejaVuSans-34" d="M 2419 4116 
L 825 1625 
L 2419 1625 
L 2419 4116 
z
M 2253 4666 
L 3047 4666 
L 3047 1625 
L 3713 1625 
L 3713 1100 
L 3047 1100 
L 3047 0 
L 2419 0 
L 2419 1100 
L 313 1100 
L 313 1709 
L 2253 4666 
z
" transform="scale(0.015625)"/>
        <path id="DejaVuSans-37" d="M 525 4666 
L 3525 4666 
L 3525 4397 
L 1831 0 
L 1172 0 
L 2766 4134 
L 525 4134 
L 525 4666 
z
" transform="scale(0.015625)"/>
       </defs>
       <use xlink:href="#DejaVuSans-33"/>
       <use xlink:href="#DejaVuSans-35" transform="translate(63.623047 0)"/>
       <use xlink:href="#DejaVuSans-34" transform="translate(127.246094 0)"/>
       <use xlink:href="#DejaVuSans-37" transform="translate(190.869141 0)"/>
      </g>
     </g>
    </g>
    <g id="xtick_3">
     <g id="line2d_3">
      <g>
       <use xlink:href="#m0e6698f5b7" x="280.073357" y="295.042153" style="stroke: #000000; stroke-width: 0.8"/>
      </g>
     </g>
     <g id="text_3">
      <!-- 5262 -->
      <g transform="translate(282.832732 327.492153) rotate(-90) scale(0.1 -0.1)">
       <defs>
        <path id="DejaVuSans-32" d="M 1228 531 
L 3431 531 
L 3431 0 
L 469 0 
L 469 531 
Q 828 903 1448 1529 
Q 2069 2156 2228 2338 
Q 2531 2678 2651 2914 
Q 2772 3150 2772 3378 
Q 2772 3750 2511 3984 
Q 2250 4219 1831 4219 
Q 1534 4219 1204 4116 
Q 875 4013 500 3803 
L 500 4441 
Q 881 4594 1212 4672 
Q 1544 4750 1819 4750 
Q 2544 4750 2975 4387 
Q 3406 4025 3406 3419 
Q 3406 3131 3298 2873 
Q 3191 2616 2906 2266 
Q 2828 2175 2409 1742 
Q 1991 1309 1228 531 
z
" transform="scale(0.015625)"/>
        <path id="DejaVuSans-36" d="M 2113 2584 
Q 1688 2584 1439 2293 
Q 1191 2003 1191 1497 
Q 1191 994 1439 701 
Q 1688 409 2113 409 
Q 2538 409 2786 701 
Q 3034 994 3034 1497 
Q 3034 2003 2786 2293 
Q 2538 2584 2113 2584 
z
M 3366 4563 
L 3366 3988 
Q 3128 4100 2886 4159 
Q 2644 4219 2406 4219 
Q 1781 4219 1451 3797 
Q 1122 3375 1075 2522 
Q 1259 2794 1537 2939 
Q 1816 3084 2150 3084 
Q 2853 3084 3261 2657 
Q 3669 2231 3669 1497 
Q 3669 778 3244 343 
Q 2819 -91 2113 -91 
Q 1303 -91 875 529 
Q 447 1150 447 2328 
Q 447 3434 972 4092 
Q 1497 4750 2381 4750 
Q 2619 4750 2861 4703 
Q 3103 4656 3366 4563 
z
" transform="scale(0.015625)"/>
       </defs>
       <use xlink:href="#DejaVuSans-35"/>
       <use xlink:href="#DejaVuSans-32" transform="translate(63.623047 0)"/>
       <use xlink:href="#DejaVuSans-36" transform="translate(127.246094 0)"/>
       <use xlink:href="#DejaVuSans-32" transform="translate(190.869141 0)"/>
      </g>
     </g>
    </g>
    <g id="xtick_4">
     <g id="line2d_4">
      <g>
       <use xlink:href="#m0e6698f5b7" x="363.274804" y="295.042153" style="stroke: #000000; stroke-width: 0.8"/>
      </g>
     </g>
     <g id="text_4">
      <!-- 5299 -->
      <g transform="translate(366.034179 327.492153) rotate(-90) scale(0.1 -0.1)">
       <use xlink:href="#DejaVuSans-35"/>
       <use xlink:href="#DejaVuSans-32" transform="translate(63.623047 0)"/>
       <use xlink:href="#DejaVuSans-39" transform="translate(127.246094 0)"/>
       <use xlink:href="#DejaVuSans-39" transform="translate(190.869141 0)"/>
      </g>
     </g>
    </g>
    <g id="xtick_5">
     <g id="line2d_5">
      <g>
       <use xlink:href="#m0e6698f5b7" x="446.47625" y="295.042153" style="stroke: #000000; stroke-width: 0.8"/>
      </g>
     </g>
     <g id="text_5">
      <!-- 6566 -->
      <g transform="translate(449.235625 327.492153) rotate(-90) scale(0.1 -0.1)">
       <use xlink:href="#DejaVuSans-36"/>
       <use xlink:href="#DejaVuSans-35" transform="translate(63.623047 0)"/>
       <use xlink:href="#DejaVuSans-36" transform="translate(127.246094 0)"/>
       <use xlink:href="#DejaVuSans-36" transform="translate(190.869141 0)"/>
      </g>
     </g>
    </g>
    <g id="xtick_6">
     <g id="line2d_6">
      <g>
       <use xlink:href="#m0e6698f5b7" x="529.677696" y="295.042153" style="stroke: #000000; stroke-width: 0.8"/>
      </g>
     </g>
     <g id="text_6">
      <!-- 8519 -->
      <g transform="translate(532.437071 327.492153) rotate(-90) scale(0.1 -0.1)">
       <defs>
        <path id="DejaVuSans-31" d="M 794 531 
L 1825 531 
L 1825 4091 
L 703 3866 
L 703 4441 
L 1819 4666 
L 2450 4666 
L 2450 531 
L 3481 531 
L 3481 0 
L 794 0 
L 794 531 
z
" transform="scale(0.015625)"/>
       </defs>
       <use xlink:href="#DejaVuSans-38"/>
       <use xlink:href="#DejaVuSans-35" transform="translate(63.623047 0)"/>
       <use xlink:href="#DejaVuSans-31" transform="translate(127.246094 0)"/>
       <use xlink:href="#DejaVuSans-39" transform="translate(190.869141 0)"/>
      </g>
     </g>
    </g>
    <g id="xtick_7">
     <g id="line2d_7">
      <g>
       <use xlink:href="#m0e6698f5b7" x="612.879143" y="295.042153" style="stroke: #000000; stroke-width: 0.8"/>
      </g>
     </g>
     <g id="text_7">
      <!-- 5682 -->
      <g transform="translate(615.638518 327.492153) rotate(-90) scale(0.1 -0.1)">
       <use xlink:href="#DejaVuSans-35"/>
       <use xlink:href="#DejaVuSans-36" transform="translate(63.623047 0)"/>
       <use xlink:href="#DejaVuSans-38" transform="translate(127.246094 0)"/>
       <use xlink:href="#DejaVuSans-32" transform="translate(190.869141 0)"/>
      </g>
     </g>
    </g>
    <g id="xtick_8">
     <g id="line2d_8">
      <g>
       <use xlink:href="#m0e6698f5b7" x="696.080589" y="295.042153" style="stroke: #000000; stroke-width: 0.8"/>
      </g>
     </g>
     <g id="text_8">
      <!-- Seltorexant -->
      <g transform="translate(698.839964 359.529653) rotate(-90) scale(0.1 -0.1)">
       <defs>
        <path id="DejaVuSans-53" d="M 3425 4513 
L 3425 3897 
Q 3066 4069 2747 4153 
Q 2428 4238 2131 4238 
Q 1616 4238 1336 4038 
Q 1056 3838 1056 3469 
Q 1056 3159 1242 3001 
Q 1428 2844 1947 2747 
L 2328 2669 
Q 3034 2534 3370 2195 
Q 3706 1856 3706 1288 
Q 3706 609 3251 259 
Q 2797 -91 1919 -91 
Q 1588 -91 1214 -16 
Q 841 59 441 206 
L 441 856 
Q 825 641 1194 531 
Q 1563 422 1919 422 
Q 2459 422 2753 634 
Q 3047 847 3047 1241 
Q 3047 1584 2836 1778 
Q 2625 1972 2144 2069 
L 1759 2144 
Q 1053 2284 737 2584 
Q 422 2884 422 3419 
Q 422 4038 858 4394 
Q 1294 4750 2059 4750 
Q 2388 4750 2728 4690 
Q 3069 4631 3425 4513 
z
" transform="scale(0.015625)"/>
        <path id="DejaVuSans-65" d="M 3597 1894 
L 3597 1613 
L 953 1613 
Q 991 1019 1311 708 
Q 1631 397 2203 397 
Q 2534 397 2845 478 
Q 3156 559 3463 722 
L 3463 178 
Q 3153 47 2828 -22 
Q 2503 -91 2169 -91 
Q 1331 -91 842 396 
Q 353 884 353 1716 
Q 353 2575 817 3079 
Q 1281 3584 2069 3584 
Q 2775 3584 3186 3129 
Q 3597 2675 3597 1894 
z
M 3022 2063 
Q 3016 2534 2758 2815 
Q 2500 3097 2075 3097 
Q 1594 3097 1305 2825 
Q 1016 2553 972 2059 
L 3022 2063 
z
" transform="scale(0.015625)"/>
        <path id="DejaVuSans-6c" d="M 603 4863 
L 1178 4863 
L 1178 0 
L 603 0 
L 603 4863 
z
" transform="scale(0.015625)"/>
        <path id="DejaVuSans-74" d="M 1172 4494 
L 1172 3500 
L 2356 3500 
L 2356 3053 
L 1172 3053 
L 1172 1153 
Q 1172 725 1289 603 
Q 1406 481 1766 481 
L 2356 481 
L 2356 0 
L 1766 0 
Q 1100 0 847 248 
Q 594 497 594 1153 
L 594 3053 
L 172 3053 
L 172 3500 
L 594 3500 
L 594 4494 
L 1172 4494 
z
" transform="scale(0.015625)"/>
        <path id="DejaVuSans-6f" d="M 1959 3097 
Q 1497 3097 1228 2736 
Q 959 2375 959 1747 
Q 959 1119 1226 758 
Q 1494 397 1959 397 
Q 2419 397 2687 759 
Q 2956 1122 2956 1747 
Q 2956 2369 2687 2733 
Q 2419 3097 1959 3097 
z
M 1959 3584 
Q 2709 3584 3137 3096 
Q 3566 2609 3566 1747 
Q 3566 888 3137 398 
Q 2709 -91 1959 -91 
Q 1206 -91 779 398 
Q 353 888 353 1747 
Q 353 2609 779 3096 
Q 1206 3584 1959 3584 
z
" transform="scale(0.015625)"/>
        <path id="DejaVuSans-72" d="M 2631 2963 
Q 2534 3019 2420 3045 
Q 2306 3072 2169 3072 
Q 1681 3072 1420 2755 
Q 1159 2438 1159 1844 
L 1159 0 
L 581 0 
L 581 3500 
L 1159 3500 
L 1159 2956 
Q 1341 3275 1631 3429 
Q 1922 3584 2338 3584 
Q 2397 3584 2469 3576 
Q 2541 3569 2628 3553 
L 2631 2963 
z
" transform="scale(0.015625)"/>
        <path id="DejaVuSans-78" d="M 3513 3500 
L 2247 1797 
L 3578 0 
L 2900 0 
L 1881 1375 
L 863 0 
L 184 0 
L 1544 1831 
L 300 3500 
L 978 3500 
L 1906 2253 
L 2834 3500 
L 3513 3500 
z
" transform="scale(0.015625)"/>
        <path id="DejaVuSans-61" d="M 2194 1759 
Q 1497 1759 1228 1600 
Q 959 1441 959 1056 
Q 959 750 1161 570 
Q 1363 391 1709 391 
Q 2188 391 2477 730 
Q 2766 1069 2766 1631 
L 2766 1759 
L 2194 1759 
z
M 3341 1997 
L 3341 0 
L 2766 0 
L 2766 531 
Q 2569 213 2275 61 
Q 1981 -91 1556 -91 
Q 1019 -91 701 211 
Q 384 513 384 1019 
Q 384 1609 779 1909 
Q 1175 2209 1959 2209 
L 2766 2209 
L 2766 2266 
Q 2766 2663 2505 2880 
Q 2244 3097 1772 3097 
Q 1472 3097 1187 3025 
Q 903 2953 641 2809 
L 641 3341 
Q 956 3463 1253 3523 
Q 1550 3584 1831 3584 
Q 2591 3584 2966 3190 
Q 3341 2797 3341 1997 
z
" transform="scale(0.015625)"/>
        <path id="DejaVuSans-6e" d="M 3513 2113 
L 3513 0 
L 2938 0 
L 2938 2094 
Q 2938 2591 2744 2837 
Q 2550 3084 2163 3084 
Q 1697 3084 1428 2787 
Q 1159 2491 1159 1978 
L 1159 0 
L 581 0 
L 581 3500 
L 1159 3500 
L 1159 2956 
Q 1366 3272 1645 3428 
Q 1925 3584 2291 3584 
Q 2894 3584 3203 3211 
Q 3513 2838 3513 2113 
z
" transform="scale(0.015625)"/>
       </defs>
       <use xlink:href="#DejaVuSans-53"/>
       <use xlink:href="#DejaVuSans-65" transform="translate(63.476562 0)"/>
       <use xlink:href="#DejaVuSans-6c" transform="translate(125 0)"/>
       <use xlink:href="#DejaVuSans-74" transform="translate(152.783203 0)"/>
       <use xlink:href="#DejaVuSans-6f" transform="translate(191.992188 0)"/>
       <use xlink:href="#DejaVuSans-72" transform="translate(253.173828 0)"/>
       <use xlink:href="#DejaVuSans-65" transform="translate(292.037109 0)"/>
       <use xlink:href="#DejaVuSans-78" transform="translate(351.810547 0)"/>
       <use xlink:href="#DejaVuSans-61" transform="translate(410.990234 0)"/>
       <use xlink:href="#DejaVuSans-6e" transform="translate(472.269531 0)"/>
       <use xlink:href="#DejaVuSans-74" transform="translate(535.648438 0)"/>
      </g>
     </g>
    </g>
    <g id="xtick_9">
     <g id="line2d_9">
      <g>
       <use xlink:href="#m0e6698f5b7" x="779.282035" y="295.042153" style="stroke: #000000; stroke-width: 0.8"/>
      </g>
     </g>
     <g id="text_9">
      <!-- YSeltorexant_CROPOUT -->
      <g transform="translate(781.902348 419.768716) rotate(-90) scale(0.1 -0.1)">
       <defs>
        <path id="DejaVuSans-59" d="M -13 4666 
L 666 4666 
L 1959 2747 
L 3244 4666 
L 3922 4666 
L 2272 2222 
L 2272 0 
L 1638 0 
L 1638 2222 
L -13 4666 
z
" transform="scale(0.015625)"/>
        <path id="DejaVuSans-5f" d="M 3263 -1063 
L 3263 -1509 
L -63 -1509 
L -63 -1063 
L 3263 -1063 
z
" transform="scale(0.015625)"/>
        <path id="DejaVuSans-43" d="M 4122 4306 
L 4122 3641 
Q 3803 3938 3442 4084 
Q 3081 4231 2675 4231 
Q 1875 4231 1450 3742 
Q 1025 3253 1025 2328 
Q 1025 1406 1450 917 
Q 1875 428 2675 428 
Q 3081 428 3442 575 
Q 3803 722 4122 1019 
L 4122 359 
Q 3791 134 3420 21 
Q 3050 -91 2638 -91 
Q 1578 -91 968 557 
Q 359 1206 359 2328 
Q 359 3453 968 4101 
Q 1578 4750 2638 4750 
Q 3056 4750 3426 4639 
Q 3797 4528 4122 4306 
z
" transform="scale(0.015625)"/>
        <path id="DejaVuSans-52" d="M 2841 2188 
Q 3044 2119 3236 1894 
Q 3428 1669 3622 1275 
L 4263 0 
L 3584 0 
L 2988 1197 
Q 2756 1666 2539 1819 
Q 2322 1972 1947 1972 
L 1259 1972 
L 1259 0 
L 628 0 
L 628 4666 
L 2053 4666 
Q 2853 4666 3247 4331 
Q 3641 3997 3641 3322 
Q 3641 2881 3436 2590 
Q 3231 2300 2841 2188 
z
M 1259 4147 
L 1259 2491 
L 2053 2491 
Q 2509 2491 2742 2702 
Q 2975 2913 2975 3322 
Q 2975 3731 2742 3939 
Q 2509 4147 2053 4147 
L 1259 4147 
z
" transform="scale(0.015625)"/>
        <path id="DejaVuSans-4f" d="M 2522 4238 
Q 1834 4238 1429 3725 
Q 1025 3213 1025 2328 
Q 1025 1447 1429 934 
Q 1834 422 2522 422 
Q 3209 422 3611 934 
Q 4013 1447 4013 2328 
Q 4013 3213 3611 3725 
Q 3209 4238 2522 4238 
z
M 2522 4750 
Q 3503 4750 4090 4092 
Q 4678 3434 4678 2328 
Q 4678 1225 4090 567 
Q 3503 -91 2522 -91 
Q 1538 -91 948 565 
Q 359 1222 359 2328 
Q 359 3434 948 4092 
Q 1538 4750 2522 4750 
z
" transform="scale(0.015625)"/>
        <path id="DejaVuSans-50" d="M 1259 4147 
L 1259 2394 
L 2053 2394 
Q 2494 2394 2734 2622 
Q 2975 2850 2975 3272 
Q 2975 3691 2734 3919 
Q 2494 4147 2053 4147 
L 1259 4147 
z
M 628 4666 
L 2053 4666 
Q 2838 4666 3239 4311 
Q 3641 3956 3641 3272 
Q 3641 2581 3239 2228 
Q 2838 1875 2053 1875 
L 1259 1875 
L 1259 0 
L 628 0 
L 628 4666 
z
" transform="scale(0.015625)"/>
        <path id="DejaVuSans-55" d="M 556 4666 
L 1191 4666 
L 1191 1831 
Q 1191 1081 1462 751 
Q 1734 422 2344 422 
Q 2950 422 3222 751 
Q 3494 1081 3494 1831 
L 3494 4666 
L 4128 4666 
L 4128 1753 
Q 4128 841 3676 375 
Q 3225 -91 2344 -91 
Q 1459 -91 1007 375 
Q 556 841 556 1753 
L 556 4666 
z
" transform="scale(0.015625)"/>
        <path id="DejaVuSans-54" d="M -19 4666 
L 3928 4666 
L 3928 4134 
L 2272 4134 
L 2272 0 
L 1638 0 
L 1638 4134 
L -19 4134 
L -19 4666 
z
" transform="scale(0.015625)"/>
       </defs>
       <use xlink:href="#DejaVuSans-59"/>
       <use xlink:href="#DejaVuSans-53" transform="translate(61.083984 0)"/>
       <use xlink:href="#DejaVuSans-65" transform="translate(124.560547 0)"/>
       <use xlink:href="#DejaVuSans-6c" transform="translate(186.083984 0)"/>
       <use xlink:href="#DejaVuSans-74" transform="translate(213.867188 0)"/>
       <use xlink:href="#DejaVuSans-6f" transform="translate(253.076172 0)"/>
       <use xlink:href="#DejaVuSans-72" transform="translate(314.257812 0)"/>
       <use xlink:href="#DejaVuSans-65" transform="translate(353.121094 0)"/>
       <use xlink:href="#DejaVuSans-78" transform="translate(412.894531 0)"/>
       <use xlink:href="#DejaVuSans-61" transform="translate(472.074219 0)"/>
       <use xlink:href="#DejaVuSans-6e" transform="translate(533.353516 0)"/>
       <use xlink:href="#DejaVuSans-74" transform="translate(596.732422 0)"/>
       <use xlink:href="#DejaVuSans-5f" transform="translate(635.941406 0)"/>
       <use xlink:href="#DejaVuSans-43" transform="translate(685.941406 0)"/>
       <use xlink:href="#DejaVuSans-52" transform="translate(755.765625 0)"/>
       <use xlink:href="#DejaVuSans-4f" transform="translate(825.248047 0)"/>
       <use xlink:href="#DejaVuSans-50" transform="translate(903.958984 0)"/>
       <use xlink:href="#DejaVuSans-4f" transform="translate(964.261719 0)"/>
       <use xlink:href="#DejaVuSans-55" transform="translate(1042.972656 0)"/>
       <use xlink:href="#DejaVuSans-54" transform="translate(1116.166016 0)"/>
      </g>
     </g>
    </g>
   </g>
   <g id="matplotlib.axis_2">
    <g id="ytick_1">
     <g id="line2d_10">
      <defs>
       <path id="m3f53d9a7d2" d="M 0 0 
L -3.5 0 
" style="stroke: #000000; stroke-width: 0.8"/>
      </defs>
      <g>
       <use xlink:href="#m3f53d9a7d2" x="43.78125" y="295.042153" style="stroke: #000000; stroke-width: 0.8"/>
      </g>
     </g>
     <g id="text_10">
      <!-- 0.0 -->
      <g transform="translate(20.878125 298.841372) scale(0.1 -0.1)">
       <defs>
        <path id="DejaVuSans-2e" d="M 684 794 
L 1344 794 
L 1344 0 
L 684 0 
L 684 794 
z
" transform="scale(0.015625)"/>
       </defs>
       <use xlink:href="#DejaVuSans-30"/>
       <use xlink:href="#DejaVuSans-2e" transform="translate(63.623047 0)"/>
       <use xlink:href="#DejaVuSans-30" transform="translate(95.410156 0)"/>
      </g>
     </g>
    </g>
    <g id="ytick_2">
     <g id="line2d_11">
      <g>
       <use xlink:href="#m3f53d9a7d2" x="43.78125" y="242.434876" style="stroke: #000000; stroke-width: 0.8"/>
      </g>
     </g>
     <g id="text_11">
      <!-- 0.5 -->
      <g transform="translate(20.878125 246.234095) scale(0.1 -0.1)">
       <use xlink:href="#DejaVuSans-30"/>
       <use xlink:href="#DejaVuSans-2e" transform="translate(63.623047 0)"/>
       <use xlink:href="#DejaVuSans-35" transform="translate(95.410156 0)"/>
      </g>
     </g>
    </g>
    <g id="ytick_3">
     <g id="line2d_12">
      <g>
       <use xlink:href="#m3f53d9a7d2" x="43.78125" y="189.827599" style="stroke: #000000; stroke-width: 0.8"/>
      </g>
     </g>
     <g id="text_12">
      <!-- 1.0 -->
      <g transform="translate(20.878125 193.626818) scale(0.1 -0.1)">
       <use xlink:href="#DejaVuSans-31"/>
       <use xlink:href="#DejaVuSans-2e" transform="translate(63.623047 0)"/>
       <use xlink:href="#DejaVuSans-30" transform="translate(95.410156 0)"/>
      </g>
     </g>
    </g>
    <g id="ytick_4">
     <g id="line2d_13">
      <g>
       <use xlink:href="#m3f53d9a7d2" x="43.78125" y="137.220322" style="stroke: #000000; stroke-width: 0.8"/>
      </g>
     </g>
     <g id="text_13">
      <!-- 1.5 -->
      <g transform="translate(20.878125 141.019541) scale(0.1 -0.1)">
       <use xlink:href="#DejaVuSans-31"/>
       <use xlink:href="#DejaVuSans-2e" transform="translate(63.623047 0)"/>
       <use xlink:href="#DejaVuSans-35" transform="translate(95.410156 0)"/>
      </g>
     </g>
    </g>
    <g id="ytick_5">
     <g id="line2d_14">
      <g>
       <use xlink:href="#m3f53d9a7d2" x="43.78125" y="84.613045" style="stroke: #000000; stroke-width: 0.8"/>
      </g>
     </g>
     <g id="text_14">
      <!-- 2.0 -->
      <g transform="translate(20.878125 88.412264) scale(0.1 -0.1)">
       <use xlink:href="#DejaVuSans-32"/>
       <use xlink:href="#DejaVuSans-2e" transform="translate(63.623047 0)"/>
       <use xlink:href="#DejaVuSans-30" transform="translate(95.410156 0)"/>
      </g>
     </g>
    </g>
    <g id="ytick_6">
     <g id="line2d_15">
      <g>
       <use xlink:href="#m3f53d9a7d2" x="43.78125" y="32.005769" style="stroke: #000000; stroke-width: 0.8"/>
      </g>
     </g>
     <g id="text_15">
      <!-- 2.5 -->
      <g transform="translate(20.878125 35.804987) scale(0.1 -0.1)">
       <use xlink:href="#DejaVuSans-32"/>
       <use xlink:href="#DejaVuSans-2e" transform="translate(63.623047 0)"/>
       <use xlink:href="#DejaVuSans-35" transform="translate(95.410156 0)"/>
      </g>
     </g>
    </g>
    <g id="text_16">
     <!-- Normalized numberofbouts: Binned - 60 -->
     <g transform="translate(14.798438 259.703619) rotate(-90) scale(0.1 -0.1)">
      <defs>
       <path id="DejaVuSans-4e" d="M 628 4666 
L 1478 4666 
L 3547 763 
L 3547 4666 
L 4159 4666 
L 4159 0 
L 3309 0 
L 1241 3903 
L 1241 0 
L 628 0 
L 628 4666 
z
" transform="scale(0.015625)"/>
       <path id="DejaVuSans-6d" d="M 3328 2828 
Q 3544 3216 3844 3400 
Q 4144 3584 4550 3584 
Q 5097 3584 5394 3201 
Q 5691 2819 5691 2113 
L 5691 0 
L 5113 0 
L 5113 2094 
Q 5113 2597 4934 2840 
Q 4756 3084 4391 3084 
Q 3944 3084 3684 2787 
Q 3425 2491 3425 1978 
L 3425 0 
L 2847 0 
L 2847 2094 
Q 2847 2600 2669 2842 
Q 2491 3084 2119 3084 
Q 1678 3084 1418 2786 
Q 1159 2488 1159 1978 
L 1159 0 
L 581 0 
L 581 3500 
L 1159 3500 
L 1159 2956 
Q 1356 3278 1631 3431 
Q 1906 3584 2284 3584 
Q 2666 3584 2933 3390 
Q 3200 3197 3328 2828 
z
" transform="scale(0.015625)"/>
       <path id="DejaVuSans-69" d="M 603 3500 
L 1178 3500 
L 1178 0 
L 603 0 
L 603 3500 
z
M 603 4863 
L 1178 4863 
L 1178 4134 
L 603 4134 
L 603 4863 
z
" transform="scale(0.015625)"/>
       <path id="DejaVuSans-7a" d="M 353 3500 
L 3084 3500 
L 3084 2975 
L 922 459 
L 3084 459 
L 3084 0 
L 275 0 
L 275 525 
L 2438 3041 
L 353 3041 
L 353 3500 
z
" transform="scale(0.015625)"/>
       <path id="DejaVuSans-64" d="M 2906 2969 
L 2906 4863 
L 3481 4863 
L 3481 0 
L 2906 0 
L 2906 525 
Q 2725 213 2448 61 
Q 2172 -91 1784 -91 
Q 1150 -91 751 415 
Q 353 922 353 1747 
Q 353 2572 751 3078 
Q 1150 3584 1784 3584 
Q 2172 3584 2448 3432 
Q 2725 3281 2906 2969 
z
M 947 1747 
Q 947 1113 1208 752 
Q 1469 391 1925 391 
Q 2381 391 2643 752 
Q 2906 1113 2906 1747 
Q 2906 2381 2643 2742 
Q 2381 3103 1925 3103 
Q 1469 3103 1208 2742 
Q 947 2381 947 1747 
z
" transform="scale(0.015625)"/>
       <path id="DejaVuSans-20" transform="scale(0.015625)"/>
       <path id="DejaVuSans-75" d="M 544 1381 
L 544 3500 
L 1119 3500 
L 1119 1403 
Q 1119 906 1312 657 
Q 1506 409 1894 409 
Q 2359 409 2629 706 
Q 2900 1003 2900 1516 
L 2900 3500 
L 3475 3500 
L 3475 0 
L 2900 0 
L 2900 538 
Q 2691 219 2414 64 
Q 2138 -91 1772 -91 
Q 1169 -91 856 284 
Q 544 659 544 1381 
z
M 1991 3584 
L 1991 3584 
z
" transform="scale(0.015625)"/>
       <path id="DejaVuSans-62" d="M 3116 1747 
Q 3116 2381 2855 2742 
Q 2594 3103 2138 3103 
Q 1681 3103 1420 2742 
Q 1159 2381 1159 1747 
Q 1159 1113 1420 752 
Q 1681 391 2138 391 
Q 2594 391 2855 752 
Q 3116 1113 3116 1747 
z
M 1159 2969 
Q 1341 3281 1617 3432 
Q 1894 3584 2278 3584 
Q 2916 3584 3314 3078 
Q 3713 2572 3713 1747 
Q 3713 922 3314 415 
Q 2916 -91 2278 -91 
Q 1894 -91 1617 61 
Q 1341 213 1159 525 
L 1159 0 
L 581 0 
L 581 4863 
L 1159 4863 
L 1159 2969 
z
" transform="scale(0.015625)"/>
       <path id="DejaVuSans-66" d="M 2375 4863 
L 2375 4384 
L 1825 4384 
Q 1516 4384 1395 4259 
Q 1275 4134 1275 3809 
L 1275 3500 
L 2222 3500 
L 2222 3053 
L 1275 3053 
L 1275 0 
L 697 0 
L 697 3053 
L 147 3053 
L 147 3500 
L 697 3500 
L 697 3744 
Q 697 4328 969 4595 
Q 1241 4863 1831 4863 
L 2375 4863 
z
" transform="scale(0.015625)"/>
       <path id="DejaVuSans-73" d="M 2834 3397 
L 2834 2853 
Q 2591 2978 2328 3040 
Q 2066 3103 1784 3103 
Q 1356 3103 1142 2972 
Q 928 2841 928 2578 
Q 928 2378 1081 2264 
Q 1234 2150 1697 2047 
L 1894 2003 
Q 2506 1872 2764 1633 
Q 3022 1394 3022 966 
Q 3022 478 2636 193 
Q 2250 -91 1575 -91 
Q 1294 -91 989 -36 
Q 684 19 347 128 
L 347 722 
Q 666 556 975 473 
Q 1284 391 1588 391 
Q 1994 391 2212 530 
Q 2431 669 2431 922 
Q 2431 1156 2273 1281 
Q 2116 1406 1581 1522 
L 1381 1569 
Q 847 1681 609 1914 
Q 372 2147 372 2553 
Q 372 3047 722 3315 
Q 1072 3584 1716 3584 
Q 2034 3584 2315 3537 
Q 2597 3491 2834 3397 
z
" transform="scale(0.015625)"/>
       <path id="DejaVuSans-3a" d="M 750 794 
L 1409 794 
L 1409 0 
L 750 0 
L 750 794 
z
M 750 3309 
L 1409 3309 
L 1409 2516 
L 750 2516 
L 750 3309 
z
" transform="scale(0.015625)"/>
       <path id="DejaVuSans-42" d="M 1259 2228 
L 1259 519 
L 2272 519 
Q 2781 519 3026 730 
Q 3272 941 3272 1375 
Q 3272 1813 3026 2020 
Q 2781 2228 2272 2228 
L 1259 2228 
z
M 1259 4147 
L 1259 2741 
L 2194 2741 
Q 2656 2741 2882 2914 
Q 3109 3088 3109 3444 
Q 3109 3797 2882 3972 
Q 2656 4147 2194 4147 
L 1259 4147 
z
M 628 4666 
L 2241 4666 
Q 2963 4666 3353 4366 
Q 3744 4066 3744 3513 
Q 3744 3084 3544 2831 
Q 3344 2578 2956 2516 
Q 3422 2416 3680 2098 
Q 3938 1781 3938 1306 
Q 3938 681 3513 340 
Q 3088 0 2303 0 
L 628 0 
L 628 4666 
z
" transform="scale(0.015625)"/>
       <path id="DejaVuSans-2d" d="M 313 2009 
L 1997 2009 
L 1997 1497 
L 313 1497 
L 313 2009 
z
" transform="scale(0.015625)"/>
      </defs>
      <use xlink:href="#DejaVuSans-4e"/>
      <use xlink:href="#DejaVuSans-6f" transform="translate(74.804688 0)"/>
      <use xlink:href="#DejaVuSans-72" transform="translate(135.986328 0)"/>
      <use xlink:href="#DejaVuSans-6d" transform="translate(175.349609 0)"/>
      <use xlink:href="#DejaVuSans-61" transform="translate(272.761719 0)"/>
      <use xlink:href="#DejaVuSans-6c" transform="translate(334.041016 0)"/>
      <use xlink:href="#DejaVuSans-69" transform="translate(361.824219 0)"/>
      <use xlink:href="#DejaVuSans-7a" transform="translate(389.607422 0)"/>
      <use xlink:href="#DejaVuSans-65" transform="translate(442.097656 0)"/>
      <use xlink:href="#DejaVuSans-64" transform="translate(503.621094 0)"/>
      <use xlink:href="#DejaVuSans-20" transform="translate(567.097656 0)"/>
      <use xlink:href="#DejaVuSans-6e" transform="translate(598.884766 0)"/>
      <use xlink:href="#DejaVuSans-75" transform="translate(662.263672 0)"/>
      <use xlink:href="#DejaVuSans-6d" transform="translate(725.642578 0)"/>
      <use xlink:href="#DejaVuSans-62" transform="translate(823.054688 0)"/>
      <use xlink:href="#DejaVuSans-65" transform="translate(886.53125 0)"/>
      <use xlink:href="#DejaVuSans-72" transform="translate(948.054688 0)"/>
      <use xlink:href="#DejaVuSans-6f" transform="translate(986.917969 0)"/>
      <use xlink:href="#DejaVuSans-66" transform="translate(1048.099609 0)"/>
      <use xlink:href="#DejaVuSans-62" transform="translate(1083.304688 0)"/>
      <use xlink:href="#DejaVuSans-6f" transform="translate(1146.78125 0)"/>
      <use xlink:href="#DejaVuSans-75" transform="translate(1207.962891 0)"/>
      <use xlink:href="#DejaVuSans-74" transform="translate(1271.341797 0)"/>
      <use xlink:href="#DejaVuSans-73" transform="translate(1310.550781 0)"/>
      <use xlink:href="#DejaVuSans-3a" transform="translate(1362.650391 0)"/>
      <use xlink:href="#DejaVuSans-20" transform="translate(1396.341797 0)"/>
      <use xlink:href="#DejaVuSans-42" transform="translate(1428.128906 0)"/>
      <use xlink:href="#DejaVuSans-69" transform="translate(1496.732422 0)"/>
      <use xlink:href="#DejaVuSans-6e" transform="translate(1524.515625 0)"/>
      <use xlink:href="#DejaVuSans-6e" transform="translate(1587.894531 0)"/>
      <use xlink:href="#DejaVuSans-65" transform="translate(1651.273438 0)"/>
      <use xlink:href="#DejaVuSans-64" transform="translate(1712.796875 0)"/>
      <use xlink:href="#DejaVuSans-20" transform="translate(1776.273438 0)"/>
      <use xlink:href="#DejaVuSans-2d" transform="translate(1808.060547 0)"/>
      <use xlink:href="#DejaVuSans-20" transform="translate(1844.144531 0)"/>
      <use xlink:href="#DejaVuSans-36" transform="translate(1875.931641 0)"/>
      <use xlink:href="#DejaVuSans-30" transform="translate(1939.554688 0)"/>
     </g>
    </g>
   </g>
   <g id="line2d_16">
    <path d="M 92.870103 205.150486 
L 101.190248 205.150486 
M 97.030176 205.150486 
L 97.030176 174.504713 
M 92.870103 174.504713 
L 101.190248 174.504713 
" clip-path="url(#p4d08ae657e)" style="fill: none; stroke: #000000; stroke-width: 2; stroke-linecap: square"/>
   </g>
   <g id="line2d_17">
    <path d="M 176.07155 201.750713 
L 184.391694 201.750713 
M 180.231622 201.750713 
L 180.231622 177.904486 
M 176.07155 177.904486 
L 184.391694 177.904486 
" clip-path="url(#p4d08ae657e)" style="fill: none; stroke: #000000; stroke-width: 2; stroke-linecap: square"/>
   </g>
   <g id="line2d_18">
    <path d="M 259.272996 199.549826 
L 267.59314 199.549826 
M 263.433068 199.549826 
L 263.433068 180.105372 
M 259.272996 180.105372 
L 267.59314 180.105372 
" clip-path="url(#p4d08ae657e)" style="fill: none; stroke: #000000; stroke-width: 2; stroke-linecap: square"/>
   </g>
   <g id="line2d_19">
    <path d="M 342.474442 203.157332 
L 350.794587 203.157332 
M 346.634514 203.157332 
L 346.634514 176.497867 
M 342.474442 176.497867 
L 350.794587 176.497867 
" clip-path="url(#p4d08ae657e)" style="fill: none; stroke: #000000; stroke-width: 2; stroke-linecap: square"/>
   </g>
   <g id="line2d_20">
    <path d="M 425.675888 203.692046 
L 433.996033 203.692046 
M 429.835961 203.692046 
L 429.835961 175.963153 
M 425.675888 175.963153 
L 433.996033 175.963153 
" clip-path="url(#p4d08ae657e)" style="fill: none; stroke: #000000; stroke-width: 2; stroke-linecap: square"/>
   </g>
   <g id="line2d_21">
    <path d="M 508.877335 202.142706 
L 517.197479 202.142706 
M 513.037407 202.142706 
L 513.037407 177.512493 
M 508.877335 177.512493 
L 517.197479 177.512493 
" clip-path="url(#p4d08ae657e)" style="fill: none; stroke: #000000; stroke-width: 2; stroke-linecap: square"/>
   </g>
   <g id="line2d_22">
    <path d="M 592.078781 201.593169 
L 600.398926 201.593169 
M 596.238853 201.593169 
L 596.238853 178.06203 
M 592.078781 178.06203 
L 600.398926 178.06203 
" clip-path="url(#p4d08ae657e)" style="fill: none; stroke: #000000; stroke-width: 2; stroke-linecap: square"/>
   </g>
   <g id="line2d_23">
    <path d="M 675.280227 201.066832 
L 683.600372 201.066832 
M 679.4403 201.066832 
L 679.4403 178.588366 
M 675.280227 178.588366 
L 683.600372 178.588366 
" clip-path="url(#p4d08ae657e)" style="fill: none; stroke: #000000; stroke-width: 2; stroke-linecap: square"/>
   </g>
   <g id="line2d_24">
    <path d="M 758.481674 201.066832 
L 766.801818 201.066832 
M 762.641746 201.066832 
L 762.641746 178.588366 
M 758.481674 178.588366 
L 766.801818 178.588366 
" clip-path="url(#p4d08ae657e)" style="fill: none; stroke: #000000; stroke-width: 2; stroke-linecap: square"/>
   </g>
   <g id="line2d_25">
    <path d="M 126.150682 181.939383 
L 134.470826 181.939383 
M 130.310754 181.939383 
L 130.310754 150.077869 
M 126.150682 150.077869 
L 134.470826 150.077869 
" clip-path="url(#p4d08ae657e)" style="fill: none; stroke: #ff0000; stroke-width: 2; stroke-linecap: square"/>
   </g>
   <g id="line2d_26">
    <path d="M 209.352128 235.18795 
L 217.672273 235.18795 
M 213.5122 235.18795 
L 213.5122 209.875495 
M 209.352128 209.875495 
L 217.672273 209.875495 
" clip-path="url(#p4d08ae657e)" style="fill: none; stroke: #ff0000; stroke-width: 2; stroke-linecap: square"/>
   </g>
   <g id="line2d_27">
    <path d="M 292.553574 197.974058 
L 300.873719 197.974058 
M 296.713647 197.974058 
L 296.713647 174.170888 
M 292.553574 174.170888 
L 300.873719 174.170888 
" clip-path="url(#p4d08ae657e)" style="fill: none; stroke: #ff0000; stroke-width: 2; stroke-linecap: square"/>
   </g>
   <g id="line2d_28">
    <path d="M 375.755021 204.694905 
L 384.075165 204.694905 
M 379.915093 204.694905 
L 379.915093 187.314514 
M 375.755021 187.314514 
L 384.075165 187.314514 
" clip-path="url(#p4d08ae657e)" style="fill: none; stroke: #ff0000; stroke-width: 2; stroke-linecap: square"/>
   </g>
   <g id="line2d_29">
    <path d="M 458.956467 262.832355 
L 467.276612 262.832355 
M 463.116539 262.832355 
L 463.116539 243.841188 
M 458.956467 243.841188 
L 467.276612 243.841188 
" clip-path="url(#p4d08ae657e)" style="fill: none; stroke: #ff0000; stroke-width: 2; stroke-linecap: square"/>
   </g>
   <g id="line2d_30">
    <path d="M 542.157913 254.037467 
L 550.478058 254.037467 
M 546.317986 254.037467 
L 546.317986 238.231318 
M 542.157913 238.231318 
L 550.478058 238.231318 
" clip-path="url(#p4d08ae657e)" style="fill: none; stroke: #ff0000; stroke-width: 2; stroke-linecap: square"/>
   </g>
   <g id="line2d_31">
    <path d="M 625.35936 154.186665 
L 633.679504 154.186665 
M 629.519432 154.186665 
L 629.519432 120.25242 
M 625.35936 120.25242 
L 633.679504 120.25242 
" clip-path="url(#p4d08ae657e)" style="fill: none; stroke: #ff0000; stroke-width: 2; stroke-linecap: square"/>
   </g>
   <g id="line2d_32">
    <path d="M 708.560806 232.557223 
L 716.88095 232.557223 
M 712.720878 232.557223 
L 712.720878 221.231853 
M 708.560806 221.231853 
L 716.88095 221.231853 
" clip-path="url(#p4d08ae657e)" style="fill: none; stroke: #ff0000; stroke-width: 2; stroke-linecap: square"/>
   </g>
   <g id="line2d_33">
    <path d="M 791.762252 232.557223 
L 800.082397 232.557223 
M 795.922324 232.557223 
L 795.922324 221.231853 
M 791.762252 221.231853 
L 800.082397 221.231853 
" clip-path="url(#p4d08ae657e)" style="fill: none; stroke: #ff0000; stroke-width: 2; stroke-linecap: square"/>
   </g>
   <g id="line2d_34">
    <path d="M 97.030176 39.056676 
L 97.030176 36.952385 
L 130.310754 36.952385 
L 130.310754 39.056676 
" clip-path="url(#p4d08ae657e)" style="fill: none; stroke: #000000; stroke-width: 1.5; stroke-linecap: square"/>
   </g>
   <g id="line2d_35">
    <path d="M 180.231622 39.056676 
L 180.231622 36.952385 
L 213.5122 36.952385 
L 213.5122 39.056676 
" clip-path="url(#p4d08ae657e)" style="fill: none; stroke: #000000; stroke-width: 1.5; stroke-linecap: square"/>
   </g>
   <g id="line2d_36">
    <path d="M 263.433068 39.056676 
L 263.433068 36.952385 
L 296.713647 36.952385 
L 296.713647 39.056676 
" clip-path="url(#p4d08ae657e)" style="fill: none; stroke: #000000; stroke-width: 1.5; stroke-linecap: square"/>
   </g>
   <g id="line2d_37">
    <path d="M 346.634514 39.056676 
L 346.634514 36.952385 
L 379.915093 36.952385 
L 379.915093 39.056676 
" clip-path="url(#p4d08ae657e)" style="fill: none; stroke: #000000; stroke-width: 1.5; stroke-linecap: square"/>
   </g>
   <g id="line2d_38">
    <path d="M 429.835961 39.056676 
L 429.835961 36.952385 
L 463.116539 36.952385 
L 463.116539 39.056676 
" clip-path="url(#p4d08ae657e)" style="fill: none; stroke: #000000; stroke-width: 1.5; stroke-linecap: square"/>
   </g>
   <g id="line2d_39">
    <path d="M 513.037407 39.056676 
L 513.037407 36.952385 
L 546.317986 36.952385 
L 546.317986 39.056676 
" clip-path="url(#p4d08ae657e)" style="fill: none; stroke: #000000; stroke-width: 1.5; stroke-linecap: square"/>
   </g>
   <g id="line2d_40">
    <path d="M 596.238853 39.056676 
L 596.238853 36.952385 
L 629.519432 36.952385 
L 629.519432 39.056676 
" clip-path="url(#p4d08ae657e)" style="fill: none; stroke: #000000; stroke-width: 1.5; stroke-linecap: square"/>
   </g>
   <g id="line2d_41">
    <path d="M 679.4403 39.056676 
L 679.4403 36.952385 
L 712.720878 36.952385 
L 712.720878 39.056676 
" clip-path="url(#p4d08ae657e)" style="fill: none; stroke: #000000; stroke-width: 1.5; stroke-linecap: square"/>
   </g>
   <g id="line2d_42">
    <path d="M 762.641746 39.056676 
L 762.641746 36.952385 
L 795.922324 36.952385 
L 795.922324 39.056676 
" clip-path="url(#p4d08ae657e)" style="fill: none; stroke: #000000; stroke-width: 1.5; stroke-linecap: square"/>
   </g>
   <g id="patch_21">
    <path d="M 43.78125 295.042153 
L 43.78125 32.005769 
" style="fill: none; stroke: #000000; stroke-width: 0.8; stroke-linejoin: miter; stroke-linecap: square"/>
   </g>
   <g id="patch_22">
    <path d="M 113.670465 295.042153 
L 779.282035 295.042153 
" style="fill: none; stroke: #000000; stroke-width: 0.8; stroke-linejoin: miter; stroke-linecap: square"/>
   </g>
   <g id="PathCollection_1">
    <defs>
     <path id="C0_0_176f293eeb" d="M 0 2.5 
C 0.663008 2.5 1.29895 2.236584 1.767767 1.767767 
C 2.236584 1.29895 2.5 0.663008 2.5 -0 
C 2.5 -0.663008 2.236584 -1.29895 1.767767 -1.767767 
C 1.29895 -2.236584 0.663008 -2.5 0 -2.5 
C -0.663008 -2.5 -1.29895 -2.236584 -1.767767 -1.767767 
C -2.236584 -1.29895 -2.5 -0.663008 -2.5 0 
C -2.5 0.663008 -2.236584 1.29895 -1.767767 1.767767 
C -1.29895 2.236584 -0.663008 2.5 0 2.5 
z
"/>
    </defs>
    <g clip-path="url(#p4d08ae657e)">
     <use xlink:href="#C0_0_176f293eeb" x="94.528721" y="248.864378" style="fill-opacity: 0.3"/>
    </g>
    <g clip-path="url(#p4d08ae657e)">
     <use xlink:href="#C0_0_176f293eeb" x="95.82782" y="236.917172" style="fill-opacity: 0.3"/>
    </g>
    <g clip-path="url(#p4d08ae657e)">
     <use xlink:href="#C0_0_176f293eeb" x="100.964474" y="233.881615" style="fill-opacity: 0.3"/>
    </g>
    <g clip-path="url(#p4d08ae657e)">
     <use xlink:href="#C0_0_176f293eeb" x="101.125423" y="161.341978" style="fill-opacity: 0.3"/>
    </g>
    <g clip-path="url(#p4d08ae657e)">
     <use xlink:href="#C0_0_176f293eeb" x="96.442461" y="221.569803" style="fill-opacity: 0.3"/>
    </g>
    <g clip-path="url(#p4d08ae657e)">
     <use xlink:href="#C0_0_176f293eeb" x="98.418729" y="237.875323" style="fill-opacity: 0.3"/>
    </g>
    <g clip-path="url(#p4d08ae657e)">
     <use xlink:href="#C0_0_176f293eeb" x="98.273273" y="198.591145" style="fill-opacity: 0.3"/>
    </g>
    <g clip-path="url(#p4d08ae657e)">
     <use xlink:href="#C0_0_176f293eeb" x="94.095195" y="252.340854" style="fill-opacity: 0.3"/>
    </g>
    <g clip-path="url(#p4d08ae657e)">
     <use xlink:href="#C0_0_176f293eeb" x="96.926298" y="135.887391" style="fill-opacity: 0.3"/>
    </g>
    <g clip-path="url(#p4d08ae657e)">
     <use xlink:href="#C0_0_176f293eeb" x="100.83204" y="98.104033" style="fill-opacity: 0.3"/>
    </g>
    <g clip-path="url(#p4d08ae657e)">
     <use xlink:href="#C0_0_176f293eeb" x="101.124644" y="201.558868" style="fill-opacity: 0.3"/>
    </g>
    <g clip-path="url(#p4d08ae657e)">
     <use xlink:href="#C0_0_176f293eeb" x="95.132697" y="236.459295" style="fill-opacity: 0.3"/>
    </g>
    <g clip-path="url(#p4d08ae657e)">
     <use xlink:href="#C0_0_176f293eeb" x="100.591282" y="202.745958" style="fill-opacity: 0.3"/>
    </g>
    <g clip-path="url(#p4d08ae657e)">
     <use xlink:href="#C0_0_176f293eeb" x="92.939596" y="96.611692" style="fill-opacity: 0.3"/>
    </g>
    <g clip-path="url(#p4d08ae657e)">
     <use xlink:href="#C0_0_176f293eeb" x="101.108312" y="84.664486" style="fill-opacity: 0.3"/>
    </g>
   </g>
   <g id="PathCollection_2">
    <defs>
     <path id="C1_0_1b1b0fa9a0" d="M 0 2.5 
C 0.663008 2.5 1.29895 2.236584 1.767767 1.767767 
C 2.236584 1.29895 2.5 0.663008 2.5 -0 
C 2.5 -0.663008 2.236584 -1.29895 1.767767 -1.767767 
C 1.29895 -2.236584 0.663008 -2.5 0 -2.5 
C -0.663008 -2.5 -1.29895 -2.236584 -1.767767 -1.767767 
C -2.236584 -1.29895 -2.5 -0.663008 -2.5 0 
C -2.5 0.663008 -2.236584 1.29895 -1.767767 1.767767 
C -1.29895 2.236584 -0.663008 2.5 0 2.5 
z
"/>
    </defs>
    <g clip-path="url(#p4d08ae657e)">
     <use xlink:href="#C1_0_1b1b0fa9a0" x="126.341787" y="178.605648" style="fill: #ff0000; fill-opacity: 0.3"/>
    </g>
    <g clip-path="url(#p4d08ae657e)">
     <use xlink:href="#C1_0_1b1b0fa9a0" x="128.607829" y="221.883533" style="fill: #ff0000; fill-opacity: 0.3"/>
    </g>
    <g clip-path="url(#p4d08ae657e)">
     <use xlink:href="#C1_0_1b1b0fa9a0" x="130.083548" y="161.265665" style="fill: #ff0000; fill-opacity: 0.3"/>
    </g>
    <g clip-path="url(#p4d08ae657e)">
     <use xlink:href="#C1_0_1b1b0fa9a0" x="129.33062" y="236.28971" style="fill: #ff0000; fill-opacity: 0.3"/>
    </g>
    <g clip-path="url(#p4d08ae657e)">
     <use xlink:href="#C1_0_1b1b0fa9a0" x="132.875751" y="112.145604" style="fill: #ff0000; fill-opacity: 0.3"/>
    </g>
    <g clip-path="url(#p4d08ae657e)">
     <use xlink:href="#C1_0_1b1b0fa9a0" x="126.421102" y="131.240784" style="fill: #ff0000; fill-opacity: 0.3"/>
    </g>
    <g clip-path="url(#p4d08ae657e)">
     <use xlink:href="#C1_0_1b1b0fa9a0" x="134.18047" y="217.169093" style="fill: #ff0000; fill-opacity: 0.3"/>
    </g>
    <g clip-path="url(#p4d08ae657e)">
     <use xlink:href="#C1_0_1b1b0fa9a0" x="130.129352" y="107.634665" style="fill: #ff0000; fill-opacity: 0.3"/>
    </g>
    <g clip-path="url(#p4d08ae657e)">
     <use xlink:href="#C1_0_1b1b0fa9a0" x="130.087895" y="136.701395" style="fill: #ff0000; fill-opacity: 0.3"/>
    </g>
    <g clip-path="url(#p4d08ae657e)">
     <use xlink:href="#C1_0_1b1b0fa9a0" x="128.663872" y="95.848563" style="fill: #ff0000; fill-opacity: 0.3"/>
    </g>
    <g clip-path="url(#p4d08ae657e)">
     <use xlink:href="#C1_0_1b1b0fa9a0" x="127.604482" y="227.310228" style="fill: #ff0000; fill-opacity: 0.3"/>
    </g>
   </g>
   <g id="PathCollection_3">
    <defs>
     <path id="C2_0_68333cb90d" d="M 0 2.5 
C 0.663008 2.5 1.29895 2.236584 1.767767 1.767767 
C 2.236584 1.29895 2.5 0.663008 2.5 -0 
C 2.5 -0.663008 2.236584 -1.29895 1.767767 -1.767767 
C 1.29895 -2.236584 0.663008 -2.5 0 -2.5 
C -0.663008 -2.5 -1.29895 -2.236584 -1.767767 -1.767767 
C -2.236584 -1.29895 -2.5 -0.663008 -2.5 0 
C -2.5 0.663008 -2.236584 1.29895 -1.767767 1.767767 
C -1.29895 2.236584 -0.663008 2.5 0 2.5 
z
"/>
    </defs>
    <g clip-path="url(#p4d08ae657e)">
     <use xlink:href="#C2_0_68333cb90d" x="183.583939" y="192.966303" style="fill-opacity: 0.3"/>
    </g>
    <g clip-path="url(#p4d08ae657e)">
     <use xlink:href="#C2_0_68333cb90d" x="179.178732" y="179.934162" style="fill-opacity: 0.3"/>
    </g>
    <g clip-path="url(#p4d08ae657e)">
     <use xlink:href="#C2_0_68333cb90d" x="181.705485" y="222.438477" style="fill-opacity: 0.3"/>
    </g>
    <g clip-path="url(#p4d08ae657e)">
     <use xlink:href="#C2_0_68333cb90d" x="181.621508" y="166.413594" style="fill-opacity: 0.3"/>
    </g>
    <g clip-path="url(#p4d08ae657e)">
     <use xlink:href="#C2_0_68333cb90d" x="181.588854" y="136.724957" style="fill-opacity: 0.3"/>
    </g>
    <g clip-path="url(#p4d08ae657e)">
     <use xlink:href="#C2_0_68333cb90d" x="177.836154" y="218.692015" style="fill-opacity: 0.3"/>
    </g>
    <g clip-path="url(#p4d08ae657e)">
     <use xlink:href="#C2_0_68333cb90d" x="179.742989" y="230.808353" style="fill-opacity: 0.3"/>
    </g>
    <g clip-path="url(#p4d08ae657e)">
     <use xlink:href="#C2_0_68333cb90d" x="181.121557" y="223.415333" style="fill-opacity: 0.3"/>
    </g>
    <g clip-path="url(#p4d08ae657e)">
     <use xlink:href="#C2_0_68333cb90d" x="183.953613" y="203.578506" style="fill-opacity: 0.3"/>
    </g>
    <g clip-path="url(#p4d08ae657e)">
     <use xlink:href="#C2_0_68333cb90d" x="184.116595" y="123.304294" style="fill-opacity: 0.3"/>
    </g>
   </g>
   <g id="PathCollection_4">
    <defs>
     <path id="C3_0_331237e638" d="M 0 2.5 
C 0.663008 2.5 1.29895 2.236584 1.767767 1.767767 
C 2.236584 1.29895 2.5 0.663008 2.5 -0 
C 2.5 -0.663008 2.236584 -1.29895 1.767767 -1.767767 
C 1.29895 -2.236584 0.663008 -2.5 0 -2.5 
C -0.663008 -2.5 -1.29895 -2.236584 -1.767767 -1.767767 
C -2.236584 -1.29895 -2.5 -0.663008 -2.5 0 
C -2.5 0.663008 -2.236584 1.29895 -1.767767 1.767767 
C -1.29895 2.236584 -0.663008 2.5 0 2.5 
z
"/>
    </defs>
    <g clip-path="url(#p4d08ae657e)">
     <use xlink:href="#C3_0_331237e638" x="209.758868" y="247.731265" style="fill: #ff0000; fill-opacity: 0.3"/>
    </g>
    <g clip-path="url(#p4d08ae657e)">
     <use xlink:href="#C3_0_331237e638" x="211.031091" y="219.524562" style="fill: #ff0000; fill-opacity: 0.3"/>
    </g>
    <g clip-path="url(#p4d08ae657e)">
     <use xlink:href="#C3_0_331237e638" x="214.776757" y="231.330083" style="fill: #ff0000; fill-opacity: 0.3"/>
    </g>
    <g clip-path="url(#p4d08ae657e)">
     <use xlink:href="#C3_0_331237e638" x="215.521208" y="188.34844" style="fill: #ff0000; fill-opacity: 0.3"/>
    </g>
    <g clip-path="url(#p4d08ae657e)">
     <use xlink:href="#C3_0_331237e638" x="211.819237" y="275.743706" style="fill: #ff0000; fill-opacity: 0.3"/>
    </g>
    <g clip-path="url(#p4d08ae657e)">
     <use xlink:href="#C3_0_331237e638" x="209.506711" y="264.770733" style="fill: #ff0000; fill-opacity: 0.3"/>
    </g>
    <g clip-path="url(#p4d08ae657e)">
     <use xlink:href="#C3_0_331237e638" x="210.935776" y="149.718245" style="fill: #ff0000; fill-opacity: 0.3"/>
    </g>
    <g clip-path="url(#p4d08ae657e)">
     <use xlink:href="#C3_0_331237e638" x="214.521427" y="256.722776" style="fill: #ff0000; fill-opacity: 0.3"/>
    </g>
    <g clip-path="url(#p4d08ae657e)">
     <use xlink:href="#C3_0_331237e638" x="211.131538" y="196.535155" style="fill: #ff0000; fill-opacity: 0.3"/>
    </g>
    <g clip-path="url(#p4d08ae657e)">
     <use xlink:href="#C3_0_331237e638" x="216.813895" y="194.892262" style="fill: #ff0000; fill-opacity: 0.3"/>
    </g>
   </g>
   <g id="PathCollection_5">
    <defs>
     <path id="C4_0_de016631d3" d="M 0 2.5 
C 0.663008 2.5 1.29895 2.236584 1.767767 1.767767 
C 2.236584 1.29895 2.5 0.663008 2.5 -0 
C 2.5 -0.663008 2.236584 -1.29895 1.767767 -1.767767 
C 1.29895 -2.236584 0.663008 -2.5 0 -2.5 
C -0.663008 -2.5 -1.29895 -2.236584 -1.767767 -1.767767 
C -2.236584 -1.29895 -2.5 -0.663008 -2.5 0 
C -2.5 0.663008 -2.236584 1.29895 -1.767767 1.767767 
C -1.29895 2.236584 -0.663008 2.5 0 2.5 
z
"/>
    </defs>
    <g clip-path="url(#p4d08ae657e)">
     <use xlink:href="#C4_0_de016631d3" x="261.680062" y="218.485178" style="fill-opacity: 0.3"/>
    </g>
    <g clip-path="url(#p4d08ae657e)">
     <use xlink:href="#C4_0_de016631d3" x="262.348662" y="225.770557" style="fill-opacity: 0.3"/>
    </g>
    <g clip-path="url(#p4d08ae657e)">
     <use xlink:href="#C4_0_de016631d3" x="267.347162" y="176.529809" style="fill-opacity: 0.3"/>
    </g>
    <g clip-path="url(#p4d08ae657e)">
     <use xlink:href="#C4_0_de016631d3" x="260.36803" y="218.79027" style="fill-opacity: 0.3"/>
    </g>
    <g clip-path="url(#p4d08ae657e)">
     <use xlink:href="#C4_0_de016631d3" x="267.098457" y="162.579755" style="fill-opacity: 0.3"/>
    </g>
    <g clip-path="url(#p4d08ae657e)">
     <use xlink:href="#C4_0_de016631d3" x="267.307715" y="95.890918" style="fill-opacity: 0.3"/>
    </g>
    <g clip-path="url(#p4d08ae657e)">
     <use xlink:href="#C4_0_de016631d3" x="259.892668" y="268.173043" style="fill-opacity: 0.3"/>
    </g>
    <g clip-path="url(#p4d08ae657e)">
     <use xlink:href="#C4_0_de016631d3" x="261.027531" y="155.510044" style="fill-opacity: 0.3"/>
    </g>
    <g clip-path="url(#p4d08ae657e)">
     <use xlink:href="#C4_0_de016631d3" x="265.103139" y="224.897364" style="fill-opacity: 0.3"/>
    </g>
    <g clip-path="url(#p4d08ae657e)">
     <use xlink:href="#C4_0_de016631d3" x="260.578394" y="206.660245" style="fill-opacity: 0.3"/>
    </g>
    <g clip-path="url(#p4d08ae657e)">
     <use xlink:href="#C4_0_de016631d3" x="267.091043" y="188.559891" style="fill-opacity: 0.3"/>
    </g>
    <g clip-path="url(#p4d08ae657e)">
     <use xlink:href="#C4_0_de016631d3" x="265.29758" y="192.078966" style="fill-opacity: 0.3"/>
    </g>
    <g clip-path="url(#p4d08ae657e)">
     <use xlink:href="#C4_0_de016631d3" x="262.048579" y="177.618671" style="fill-opacity: 0.3"/>
    </g>
    <g clip-path="url(#p4d08ae657e)">
     <use xlink:href="#C4_0_de016631d3" x="263.629933" y="169.360155" style="fill-opacity: 0.3"/>
    </g>
    <g clip-path="url(#p4d08ae657e)">
     <use xlink:href="#C4_0_de016631d3" x="260.370166" y="165.630672" style="fill-opacity: 0.3"/>
    </g>
    <g clip-path="url(#p4d08ae657e)">
     <use xlink:href="#C4_0_de016631d3" x="267.107103" y="190.706053" style="fill-opacity: 0.3"/>
    </g>
   </g>
   <g id="PathCollection_6">
    <defs>
     <path id="C5_0_931771ceef" d="M 0 2.5 
C 0.663008 2.5 1.29895 2.236584 1.767767 1.767767 
C 2.236584 1.29895 2.5 0.663008 2.5 -0 
C 2.5 -0.663008 2.236584 -1.29895 1.767767 -1.767767 
C 1.29895 -2.236584 0.663008 -2.5 0 -2.5 
C -0.663008 -2.5 -1.29895 -2.236584 -1.767767 -1.767767 
C -2.236584 -1.29895 -2.5 -0.663008 -2.5 0 
C -2.5 0.663008 -2.236584 1.29895 -1.767767 1.767767 
C -1.29895 2.236584 -0.663008 2.5 0 2.5 
z
"/>
    </defs>
    <g clip-path="url(#p4d08ae657e)">
     <use xlink:href="#C5_0_931771ceef" x="298.900482" y="147.677603" style="fill: #ff0000; fill-opacity: 0.3"/>
    </g>
    <g clip-path="url(#p4d08ae657e)">
     <use xlink:href="#C5_0_931771ceef" x="293.369262" y="232.072279" style="fill: #ff0000; fill-opacity: 0.3"/>
    </g>
    <g clip-path="url(#p4d08ae657e)">
     <use xlink:href="#C5_0_931771ceef" x="300.041357" y="176.80334" style="fill: #ff0000; fill-opacity: 0.3"/>
    </g>
    <g clip-path="url(#p4d08ae657e)">
     <use xlink:href="#C5_0_931771ceef" x="296.795523" y="245.427931" style="fill: #ff0000; fill-opacity: 0.3"/>
    </g>
    <g clip-path="url(#p4d08ae657e)">
     <use xlink:href="#C5_0_931771ceef" x="299.200399" y="173.910229" style="fill: #ff0000; fill-opacity: 0.3"/>
    </g>
    <g clip-path="url(#p4d08ae657e)">
     <use xlink:href="#C5_0_931771ceef" x="297.210956" y="213.793078" style="fill: #ff0000; fill-opacity: 0.3"/>
    </g>
    <g clip-path="url(#p4d08ae657e)">
     <use xlink:href="#C5_0_931771ceef" x="297.555249" y="204.729751" style="fill: #ff0000; fill-opacity: 0.3"/>
    </g>
    <g clip-path="url(#p4d08ae657e)">
     <use xlink:href="#C5_0_931771ceef" x="293.09623" y="114.559374" style="fill: #ff0000; fill-opacity: 0.3"/>
    </g>
    <g clip-path="url(#p4d08ae657e)">
     <use xlink:href="#C5_0_931771ceef" x="297.652072" y="153.479606" style="fill: #ff0000; fill-opacity: 0.3"/>
    </g>
    <g clip-path="url(#p4d08ae657e)">
     <use xlink:href="#C5_0_931771ceef" x="296.900287" y="131.67607" style="fill: #ff0000; fill-opacity: 0.3"/>
    </g>
    <g clip-path="url(#p4d08ae657e)">
     <use xlink:href="#C5_0_931771ceef" x="300.268502" y="196.150362" style="fill: #ff0000; fill-opacity: 0.3"/>
    </g>
    <g clip-path="url(#p4d08ae657e)">
     <use xlink:href="#C5_0_931771ceef" x="298.152004" y="215.976062" style="fill: #ff0000; fill-opacity: 0.3"/>
    </g>
    <g clip-path="url(#p4d08ae657e)">
     <use xlink:href="#C5_0_931771ceef" x="296.896893" y="208.680162" style="fill: #ff0000; fill-opacity: 0.3"/>
    </g>
    <g clip-path="url(#p4d08ae657e)">
     <use xlink:href="#C5_0_931771ceef" x="300.496745" y="226.733174" style="fill: #ff0000; fill-opacity: 0.3"/>
    </g>
    <g clip-path="url(#p4d08ae657e)">
     <use xlink:href="#C5_0_931771ceef" x="295.306969" y="88.484554" style="fill: #ff0000; fill-opacity: 0.3"/>
    </g>
    <g clip-path="url(#p4d08ae657e)">
     <use xlink:href="#C5_0_931771ceef" x="298.887625" y="247.005991" style="fill: #ff0000; fill-opacity: 0.3"/>
    </g>
   </g>
   <g id="PathCollection_7">
    <defs>
     <path id="C6_0_7ef76eb5b6" d="M 0 2.5 
C 0.663008 2.5 1.29895 2.236584 1.767767 1.767767 
C 2.236584 1.29895 2.5 0.663008 2.5 -0 
C 2.5 -0.663008 2.236584 -1.29895 1.767767 -1.767767 
C 1.29895 -2.236584 0.663008 -2.5 0 -2.5 
C -0.663008 -2.5 -1.29895 -2.236584 -1.767767 -1.767767 
C -2.236584 -1.29895 -2.5 -0.663008 -2.5 0 
C -2.5 0.663008 -2.236584 1.29895 -1.767767 1.767767 
C -1.29895 2.236584 -0.663008 2.5 0 2.5 
z
"/>
    </defs>
    <g clip-path="url(#p4d08ae657e)">
     <use xlink:href="#C6_0_7ef76eb5b6" x="348.034125" y="174.291069" style="fill-opacity: 0.3"/>
    </g>
    <g clip-path="url(#p4d08ae657e)">
     <use xlink:href="#C6_0_7ef76eb5b6" x="344.240146" y="199.715681" style="fill-opacity: 0.3"/>
    </g>
    <g clip-path="url(#p4d08ae657e)">
     <use xlink:href="#C6_0_7ef76eb5b6" x="346.927652" y="185.84819" style="fill-opacity: 0.3"/>
    </g>
    <g clip-path="url(#p4d08ae657e)">
     <use xlink:href="#C6_0_7ef76eb5b6" x="350.472032" y="242.346743" style="fill-opacity: 0.3"/>
    </g>
    <g clip-path="url(#p4d08ae657e)">
     <use xlink:href="#C6_0_7ef76eb5b6" x="344.829061" y="230.362361" style="fill-opacity: 0.3"/>
    </g>
    <g clip-path="url(#p4d08ae657e)">
     <use xlink:href="#C6_0_7ef76eb5b6" x="345.779726" y="174.074801" style="fill-opacity: 0.3"/>
    </g>
    <g clip-path="url(#p4d08ae657e)">
     <use xlink:href="#C6_0_7ef76eb5b6" x="350.307027" y="253.608475" style="fill-opacity: 0.3"/>
    </g>
    <g clip-path="url(#p4d08ae657e)">
     <use xlink:href="#C6_0_7ef76eb5b6" x="350.253082" y="250.401387" style="fill-opacity: 0.3"/>
    </g>
    <g clip-path="url(#p4d08ae657e)">
     <use xlink:href="#C6_0_7ef76eb5b6" x="343.479332" y="160.666219" style="fill-opacity: 0.3"/>
    </g>
    <g clip-path="url(#p4d08ae657e)">
     <use xlink:href="#C6_0_7ef76eb5b6" x="347.475601" y="125.667816" style="fill-opacity: 0.3"/>
    </g>
    <g clip-path="url(#p4d08ae657e)">
     <use xlink:href="#C6_0_7ef76eb5b6" x="344.412801" y="119.570129" style="fill-opacity: 0.3"/>
    </g>
    <g clip-path="url(#p4d08ae657e)">
     <use xlink:href="#C6_0_7ef76eb5b6" x="345.901731" y="161.37832" style="fill-opacity: 0.3"/>
    </g>
   </g>
   <g id="PathCollection_8">
    <defs>
     <path id="C7_0_212c9c5635" d="M 0 2.5 
C 0.663008 2.5 1.29895 2.236584 1.767767 1.767767 
C 2.236584 1.29895 2.5 0.663008 2.5 -0 
C 2.5 -0.663008 2.236584 -1.29895 1.767767 -1.767767 
C 1.29895 -2.236584 0.663008 -2.5 0 -2.5 
C -0.663008 -2.5 -1.29895 -2.236584 -1.767767 -1.767767 
C -2.236584 -1.29895 -2.5 -0.663008 -2.5 0 
C -2.5 0.663008 -2.236584 1.29895 -1.767767 1.767767 
C -1.29895 2.236584 -0.663008 2.5 0 2.5 
z
"/>
    </defs>
    <g clip-path="url(#p4d08ae657e)">
     <use xlink:href="#C7_0_212c9c5635" x="378.119389" y="230.436209" style="fill: #ff0000; fill-opacity: 0.3"/>
    </g>
    <g clip-path="url(#p4d08ae657e)">
     <use xlink:href="#C7_0_212c9c5635" x="376.973317" y="177.746073" style="fill: #ff0000; fill-opacity: 0.3"/>
    </g>
    <g clip-path="url(#p4d08ae657e)">
     <use xlink:href="#C7_0_212c9c5635" x="384.000601" y="180.193588" style="fill: #ff0000; fill-opacity: 0.3"/>
    </g>
    <g clip-path="url(#p4d08ae657e)">
     <use xlink:href="#C7_0_212c9c5635" x="383.661084" y="218.741942" style="fill: #ff0000; fill-opacity: 0.3"/>
    </g>
    <g clip-path="url(#p4d08ae657e)">
     <use xlink:href="#C7_0_212c9c5635" x="383.216671" y="109.326437" style="fill: #ff0000; fill-opacity: 0.3"/>
    </g>
    <g clip-path="url(#p4d08ae657e)">
     <use xlink:href="#C7_0_212c9c5635" x="382.254107" y="109.632376" style="fill: #ff0000; fill-opacity: 0.3"/>
    </g>
    <g clip-path="url(#p4d08ae657e)">
     <use xlink:href="#C7_0_212c9c5635" x="382.885659" y="236.697415" style="fill: #ff0000; fill-opacity: 0.3"/>
    </g>
    <g clip-path="url(#p4d08ae657e)">
     <use xlink:href="#C7_0_212c9c5635" x="376.052338" y="211.098734" style="fill: #ff0000; fill-opacity: 0.3"/>
    </g>
    <g clip-path="url(#p4d08ae657e)">
     <use xlink:href="#C7_0_212c9c5635" x="381.18136" y="158.055186" style="fill: #ff0000; fill-opacity: 0.3"/>
    </g>
    <g clip-path="url(#p4d08ae657e)">
     <use xlink:href="#C7_0_212c9c5635" x="379.13451" y="204.890276" style="fill: #ff0000; fill-opacity: 0.3"/>
    </g>
    <g clip-path="url(#p4d08ae657e)">
     <use xlink:href="#C7_0_212c9c5635" x="378.225955" y="217.992918" style="fill: #ff0000; fill-opacity: 0.3"/>
    </g>
    <g clip-path="url(#p4d08ae657e)">
     <use xlink:href="#C7_0_212c9c5635" x="378.910813" y="231.791836" style="fill: #ff0000; fill-opacity: 0.3"/>
    </g>
    <g clip-path="url(#p4d08ae657e)">
     <use xlink:href="#C7_0_212c9c5635" x="381.942533" y="192.030274" style="fill: #ff0000; fill-opacity: 0.3"/>
    </g>
    <g clip-path="url(#p4d08ae657e)">
     <use xlink:href="#C7_0_212c9c5635" x="383.202579" y="169.876048" style="fill: #ff0000; fill-opacity: 0.3"/>
    </g>
    <g clip-path="url(#p4d08ae657e)">
     <use xlink:href="#C7_0_212c9c5635" x="379.075144" y="212.580957" style="fill: #ff0000; fill-opacity: 0.3"/>
    </g>
    <g clip-path="url(#p4d08ae657e)">
     <use xlink:href="#C7_0_212c9c5635" x="378.78009" y="233.97561" style="fill: #ff0000; fill-opacity: 0.3"/>
    </g>
    <g clip-path="url(#p4d08ae657e)">
     <use xlink:href="#C7_0_212c9c5635" x="382.980175" y="222.729703" style="fill: #ff0000; fill-opacity: 0.3"/>
    </g>
    <g clip-path="url(#p4d08ae657e)">
     <use xlink:href="#C7_0_212c9c5635" x="378.967072" y="212.369964" style="fill: #ff0000; fill-opacity: 0.3"/>
    </g>
    <g clip-path="url(#p4d08ae657e)">
     <use xlink:href="#C7_0_212c9c5635" x="383.401737" y="193.923933" style="fill: #ff0000; fill-opacity: 0.3"/>
    </g>
   </g>
   <g id="PathCollection_9">
    <defs>
     <path id="C8_0_961803df99" d="M 0 2.5 
C 0.663008 2.5 1.29895 2.236584 1.767767 1.767767 
C 2.236584 1.29895 2.5 0.663008 2.5 -0 
C 2.5 -0.663008 2.236584 -1.29895 1.767767 -1.767767 
C 1.29895 -2.236584 0.663008 -2.5 0 -2.5 
C -0.663008 -2.5 -1.29895 -2.236584 -1.767767 -1.767767 
C -2.236584 -1.29895 -2.5 -0.663008 -2.5 0 
C -2.5 0.663008 -2.236584 1.29895 -1.767767 1.767767 
C -1.29895 2.236584 -0.663008 2.5 0 2.5 
z
"/>
    </defs>
    <g clip-path="url(#p4d08ae657e)">
     <use xlink:href="#C8_0_961803df99" x="428.907702" y="130.595317" style="fill-opacity: 0.3"/>
    </g>
    <g clip-path="url(#p4d08ae657e)">
     <use xlink:href="#C8_0_961803df99" x="432.703925" y="235.268815" style="fill-opacity: 0.3"/>
    </g>
    <g clip-path="url(#p4d08ae657e)">
     <use xlink:href="#C8_0_961803df99" x="432.554661" y="217.034503" style="fill-opacity: 0.3"/>
    </g>
    <g clip-path="url(#p4d08ae657e)">
     <use xlink:href="#C8_0_961803df99" x="427.827005" y="223.87795" style="fill-opacity: 0.3"/>
    </g>
    <g clip-path="url(#p4d08ae657e)">
     <use xlink:href="#C8_0_961803df99" x="426.068951" y="229.930543" style="fill-opacity: 0.3"/>
    </g>
    <g clip-path="url(#p4d08ae657e)">
     <use xlink:href="#C8_0_961803df99" x="432.81104" y="95.395887" style="fill-opacity: 0.3"/>
    </g>
    <g clip-path="url(#p4d08ae657e)">
     <use xlink:href="#C8_0_961803df99" x="426.654008" y="240.670865" style="fill-opacity: 0.3"/>
    </g>
    <g clip-path="url(#p4d08ae657e)">
     <use xlink:href="#C8_0_961803df99" x="427.938119" y="212.531731" style="fill-opacity: 0.3"/>
    </g>
    <g clip-path="url(#p4d08ae657e)">
     <use xlink:href="#C8_0_961803df99" x="428.789745" y="131.277748" style="fill-opacity: 0.3"/>
    </g>
    <g clip-path="url(#p4d08ae657e)">
     <use xlink:href="#C8_0_961803df99" x="429.504054" y="179.928092" style="fill-opacity: 0.3"/>
    </g>
    <g clip-path="url(#p4d08ae657e)">
     <use xlink:href="#C8_0_961803df99" x="427.766392" y="210.031608" style="fill-opacity: 0.3"/>
    </g>
    <g clip-path="url(#p4d08ae657e)">
     <use xlink:href="#C8_0_961803df99" x="428.688683" y="171.388132" style="fill-opacity: 0.3"/>
    </g>
   </g>
   <g id="PathCollection_10">
    <defs>
     <path id="C9_0_bd1dd19a91" d="M 0 2.5 
C 0.663008 2.5 1.29895 2.236584 1.767767 1.767767 
C 2.236584 1.29895 2.5 0.663008 2.5 -0 
C 2.5 -0.663008 2.236584 -1.29895 1.767767 -1.767767 
C 1.29895 -2.236584 0.663008 -2.5 0 -2.5 
C -0.663008 -2.5 -1.29895 -2.236584 -1.767767 -1.767767 
C -2.236584 -1.29895 -2.5 -0.663008 -2.5 0 
C -2.5 0.663008 -2.236584 1.29895 -1.767767 1.767767 
C -1.29895 2.236584 -0.663008 2.5 0 2.5 
z
"/>
    </defs>
    <g clip-path="url(#p4d08ae657e)">
     <use xlink:href="#C9_0_bd1dd19a91" x="461.69359" y="252.15102" style="fill: #ff0000; fill-opacity: 0.3"/>
    </g>
    <g clip-path="url(#p4d08ae657e)">
     <use xlink:href="#C9_0_bd1dd19a91" x="461.836924" y="285.481736" style="fill: #ff0000; fill-opacity: 0.3"/>
    </g>
    <g clip-path="url(#p4d08ae657e)">
     <use xlink:href="#C9_0_bd1dd19a91" x="464.642376" y="287.331316" style="fill: #ff0000; fill-opacity: 0.3"/>
    </g>
    <g clip-path="url(#p4d08ae657e)">
     <use xlink:href="#C9_0_bd1dd19a91" x="464.996129" y="248.962088" style="fill: #ff0000; fill-opacity: 0.3"/>
    </g>
    <g clip-path="url(#p4d08ae657e)">
     <use xlink:href="#C9_0_bd1dd19a91" x="460.19679" y="267.221912" style="fill: #ff0000; fill-opacity: 0.3"/>
    </g>
    <g clip-path="url(#p4d08ae657e)">
     <use xlink:href="#C9_0_bd1dd19a91" x="461.378984" y="282.54154" style="fill: #ff0000; fill-opacity: 0.3"/>
    </g>
    <g clip-path="url(#p4d08ae657e)">
     <use xlink:href="#C9_0_bd1dd19a91" x="460.293001" y="281.718796" style="fill: #ff0000; fill-opacity: 0.3"/>
    </g>
    <g clip-path="url(#p4d08ae657e)">
     <use xlink:href="#C9_0_bd1dd19a91" x="464.250571" y="245.109859" style="fill: #ff0000; fill-opacity: 0.3"/>
    </g>
    <g clip-path="url(#p4d08ae657e)">
     <use xlink:href="#C9_0_bd1dd19a91" x="459.169005" y="271.935153" style="fill: #ff0000; fill-opacity: 0.3"/>
    </g>
    <g clip-path="url(#p4d08ae657e)">
     <use xlink:href="#C9_0_bd1dd19a91" x="465.893543" y="226.754367" style="fill: #ff0000; fill-opacity: 0.3"/>
    </g>
    <g clip-path="url(#p4d08ae657e)">
     <use xlink:href="#C9_0_bd1dd19a91" x="462.491283" y="197.818" style="fill: #ff0000; fill-opacity: 0.3"/>
    </g>
    <g clip-path="url(#p4d08ae657e)">
     <use xlink:href="#C9_0_bd1dd19a91" x="461.044991" y="193.015468" style="fill: #ff0000; fill-opacity: 0.3"/>
    </g>
   </g>
   <g id="PathCollection_11">
    <defs>
     <path id="Ca_0_4a5e29d9cc" d="M 0 2.5 
C 0.663008 2.5 1.29895 2.236584 1.767767 1.767767 
C 2.236584 1.29895 2.5 0.663008 2.5 -0 
C 2.5 -0.663008 2.236584 -1.29895 1.767767 -1.767767 
C 1.29895 -2.236584 0.663008 -2.5 0 -2.5 
C -0.663008 -2.5 -1.29895 -2.236584 -1.767767 -1.767767 
C -2.236584 -1.29895 -2.5 -0.663008 -2.5 0 
C -2.5 0.663008 -2.236584 1.29895 -1.767767 1.767767 
C -1.29895 2.236584 -0.663008 2.5 0 2.5 
z
"/>
    </defs>
    <g clip-path="url(#p4d08ae657e)">
     <use xlink:href="#Ca_0_4a5e29d9cc" x="512.478025" y="225.119772" style="fill-opacity: 0.3"/>
    </g>
    <g clip-path="url(#p4d08ae657e)">
     <use xlink:href="#Ca_0_4a5e29d9cc" x="510.330307" y="249.20384" style="fill-opacity: 0.3"/>
    </g>
    <g clip-path="url(#p4d08ae657e)">
     <use xlink:href="#Ca_0_4a5e29d9cc" x="512.827709" y="209.268665" style="fill-opacity: 0.3"/>
    </g>
    <g clip-path="url(#p4d08ae657e)">
     <use xlink:href="#Ca_0_4a5e29d9cc" x="516.376783" y="156.14966" style="fill-opacity: 0.3"/>
    </g>
    <g clip-path="url(#p4d08ae657e)">
     <use xlink:href="#Ca_0_4a5e29d9cc" x="509.683881" y="171.496897" style="fill-opacity: 0.3"/>
    </g>
    <g clip-path="url(#p4d08ae657e)">
     <use xlink:href="#Ca_0_4a5e29d9cc" x="512.200481" y="138.611281" style="fill-opacity: 0.3"/>
    </g>
    <g clip-path="url(#p4d08ae657e)">
     <use xlink:href="#Ca_0_4a5e29d9cc" x="512.912995" y="143.881116" style="fill-opacity: 0.3"/>
    </g>
    <g clip-path="url(#p4d08ae657e)">
     <use xlink:href="#Ca_0_4a5e29d9cc" x="515.409597" y="166.056024" style="fill-opacity: 0.3"/>
    </g>
    <g clip-path="url(#p4d08ae657e)">
     <use xlink:href="#Ca_0_4a5e29d9cc" x="516.88872" y="218.82833" style="fill-opacity: 0.3"/>
    </g>
    <g clip-path="url(#p4d08ae657e)">
     <use xlink:href="#Ca_0_4a5e29d9cc" x="509.646264" y="219.660409" style="fill-opacity: 0.3"/>
    </g>
   </g>
   <g id="PathCollection_12">
    <defs>
     <path id="Cb_0_b9316739c0" d="M 0 2.5 
C 0.663008 2.5 1.29895 2.236584 1.767767 1.767767 
C 2.236584 1.29895 2.5 0.663008 2.5 -0 
C 2.5 -0.663008 2.236584 -1.29895 1.767767 -1.767767 
C 1.29895 -2.236584 0.663008 -2.5 0 -2.5 
C -0.663008 -2.5 -1.29895 -2.236584 -1.767767 -1.767767 
C -2.236584 -1.29895 -2.5 -0.663008 -2.5 0 
C -2.5 0.663008 -2.236584 1.29895 -1.767767 1.767767 
C -1.29895 2.236584 -0.663008 2.5 0 2.5 
z
"/>
    </defs>
    <g clip-path="url(#p4d08ae657e)">
     <use xlink:href="#Cb_0_b9316739c0" x="543.889361" y="235.881329" style="fill: #ff0000; fill-opacity: 0.3"/>
    </g>
    <g clip-path="url(#p4d08ae657e)">
     <use xlink:href="#Cb_0_b9316739c0" x="546.030807" y="261.477007" style="fill: #ff0000; fill-opacity: 0.3"/>
    </g>
    <g clip-path="url(#p4d08ae657e)">
     <use xlink:href="#Cb_0_b9316739c0" x="546.534022" y="223.400142" style="fill: #ff0000; fill-opacity: 0.3"/>
    </g>
    <g clip-path="url(#p4d08ae657e)">
     <use xlink:href="#Cb_0_b9316739c0" x="543.057055" y="236.311236" style="fill: #ff0000; fill-opacity: 0.3"/>
    </g>
    <g clip-path="url(#p4d08ae657e)">
     <use xlink:href="#Cb_0_b9316739c0" x="543.197768" y="201.742972" style="fill: #ff0000; fill-opacity: 0.3"/>
    </g>
    <g clip-path="url(#p4d08ae657e)">
     <use xlink:href="#Cb_0_b9316739c0" x="544.846057" y="232.220181" style="fill: #ff0000; fill-opacity: 0.3"/>
    </g>
    <g clip-path="url(#p4d08ae657e)">
     <use xlink:href="#Cb_0_b9316739c0" x="544.632934" y="274.915084" style="fill: #ff0000; fill-opacity: 0.3"/>
    </g>
    <g clip-path="url(#p4d08ae657e)">
     <use xlink:href="#Cb_0_b9316739c0" x="546.992889" y="284.6689" style="fill: #ff0000; fill-opacity: 0.3"/>
    </g>
    <g clip-path="url(#p4d08ae657e)">
     <use xlink:href="#Cb_0_b9316739c0" x="546.458235" y="258.49539" style="fill: #ff0000; fill-opacity: 0.3"/>
    </g>
    <g clip-path="url(#p4d08ae657e)">
     <use xlink:href="#Cb_0_b9316739c0" x="550.226597" y="252.231683" style="fill: #ff0000; fill-opacity: 0.3"/>
    </g>
   </g>
   <g id="PathCollection_13">
    <defs>
     <path id="Cc_0_8f5b8d2dcf" d="M 0 2.5 
C 0.663008 2.5 1.29895 2.236584 1.767767 1.767767 
C 2.236584 1.29895 2.5 0.663008 2.5 -0 
C 2.5 -0.663008 2.236584 -1.29895 1.767767 -1.767767 
C 1.29895 -2.236584 0.663008 -2.5 0 -2.5 
C -0.663008 -2.5 -1.29895 -2.236584 -1.767767 -1.767767 
C -2.236584 -1.29895 -2.5 -0.663008 -2.5 0 
C -2.5 0.663008 -2.236584 1.29895 -1.767767 1.767767 
C -1.29895 2.236584 -0.663008 2.5 0 2.5 
z
"/>
    </defs>
    <g clip-path="url(#p4d08ae657e)">
     <use xlink:href="#Cc_0_8f5b8d2dcf" x="599.7478" y="237.806926" style="fill-opacity: 0.3"/>
    </g>
    <g clip-path="url(#p4d08ae657e)">
     <use xlink:href="#Cc_0_8f5b8d2dcf" x="594.683465" y="246.038079" style="fill-opacity: 0.3"/>
    </g>
    <g clip-path="url(#p4d08ae657e)">
     <use xlink:href="#Cc_0_8f5b8d2dcf" x="597.549874" y="167.593277" style="fill-opacity: 0.3"/>
    </g>
    <g clip-path="url(#p4d08ae657e)">
     <use xlink:href="#Cc_0_8f5b8d2dcf" x="597.598008" y="114.811806" style="fill-opacity: 0.3"/>
    </g>
    <g clip-path="url(#p4d08ae657e)">
     <use xlink:href="#Cc_0_8f5b8d2dcf" x="594.174578" y="199.535255" style="fill-opacity: 0.3"/>
    </g>
    <g clip-path="url(#p4d08ae657e)">
     <use xlink:href="#Cc_0_8f5b8d2dcf" x="599.644531" y="188.790091" style="fill-opacity: 0.3"/>
    </g>
    <g clip-path="url(#p4d08ae657e)">
     <use xlink:href="#Cc_0_8f5b8d2dcf" x="597.652022" y="171.000592" style="fill-opacity: 0.3"/>
    </g>
    <g clip-path="url(#p4d08ae657e)">
     <use xlink:href="#Cc_0_8f5b8d2dcf" x="595.266782" y="177.151624" style="fill-opacity: 0.3"/>
    </g>
    <g clip-path="url(#p4d08ae657e)">
     <use xlink:href="#Cc_0_8f5b8d2dcf" x="598.151794" y="189.453688" style="fill-opacity: 0.3"/>
    </g>
    <g clip-path="url(#p4d08ae657e)">
     <use xlink:href="#Cc_0_8f5b8d2dcf" x="592.352482" y="206.094655" style="fill-opacity: 0.3"/>
    </g>
   </g>
   <g id="PathCollection_14">
    <defs>
     <path id="Cd_0_f6cd961eee" d="M 0 2.5 
C 0.663008 2.5 1.29895 2.236584 1.767767 1.767767 
C 2.236584 1.29895 2.5 0.663008 2.5 -0 
C 2.5 -0.663008 2.236584 -1.29895 1.767767 -1.767767 
C 1.29895 -2.236584 0.663008 -2.5 0 -2.5 
C -0.663008 -2.5 -1.29895 -2.236584 -1.767767 -1.767767 
C -2.236584 -1.29895 -2.5 -0.663008 -2.5 0 
C -2.5 0.663008 -2.236584 1.29895 -1.767767 1.767767 
C -1.29895 2.236584 -0.663008 2.5 0 2.5 
z
"/>
    </defs>
    <g clip-path="url(#p4d08ae657e)">
     <use xlink:href="#Cd_0_f6cd961eee" x="626.269792" y="147.14939" style="fill: #ff0000; fill-opacity: 0.3"/>
    </g>
    <g clip-path="url(#p4d08ae657e)">
     <use xlink:href="#Cd_0_f6cd961eee" x="628.597657" y="233.110703" style="fill: #ff0000; fill-opacity: 0.3"/>
    </g>
    <g clip-path="url(#p4d08ae657e)">
     <use xlink:href="#Cd_0_f6cd961eee" x="633.185894" y="107.154919" style="fill: #ff0000; fill-opacity: 0.3"/>
    </g>
    <g clip-path="url(#p4d08ae657e)">
     <use xlink:href="#Cd_0_f6cd961eee" x="633.347563" y="119.967443" style="fill: #ff0000; fill-opacity: 0.3"/>
    </g>
    <g clip-path="url(#p4d08ae657e)">
     <use xlink:href="#Cd_0_f6cd961eee" x="630.258103" y="120.388572" style="fill: #ff0000; fill-opacity: 0.3"/>
    </g>
    <g clip-path="url(#p4d08ae657e)">
     <use xlink:href="#Cd_0_f6cd961eee" x="626.657977" y="171.217537" style="fill: #ff0000; fill-opacity: 0.3"/>
    </g>
    <g clip-path="url(#p4d08ae657e)">
     <use xlink:href="#Cd_0_f6cd961eee" x="633.316057" y="143.193332" style="fill: #ff0000; fill-opacity: 0.3"/>
    </g>
    <g clip-path="url(#p4d08ae657e)">
     <use xlink:href="#Cd_0_f6cd961eee" x="627.12348" y="148.476584" style="fill: #ff0000; fill-opacity: 0.3"/>
    </g>
    <g clip-path="url(#p4d08ae657e)">
     <use xlink:href="#Cd_0_f6cd961eee" x="633.400765" y="44.317404" style="fill: #ff0000; fill-opacity: 0.3"/>
    </g>
   </g>
   <g id="PathCollection_15">
    <defs>
     <path id="Ce_0_3bf1f3b35e" d="M 0 2.5 
C 0.663008 2.5 1.29895 2.236584 1.767767 1.767767 
C 2.236584 1.29895 2.5 0.663008 2.5 -0 
C 2.5 -0.663008 2.236584 -1.29895 1.767767 -1.767767 
C 1.29895 -2.236584 0.663008 -2.5 0 -2.5 
C -0.663008 -2.5 -1.29895 -2.236584 -1.767767 -1.767767 
C -2.236584 -1.29895 -2.5 -0.663008 -2.5 0 
C -2.5 0.663008 -2.236584 1.29895 -1.767767 1.767767 
C -1.29895 2.236584 -0.663008 2.5 0 2.5 
z
"/>
    </defs>
    <g clip-path="url(#p4d08ae657e)">
     <use xlink:href="#Ce_0_3bf1f3b35e" x="676.432104" y="221.464059" style="fill-opacity: 0.3"/>
    </g>
    <g clip-path="url(#p4d08ae657e)">
     <use xlink:href="#Ce_0_3bf1f3b35e" x="676.753287" y="228.579185" style="fill-opacity: 0.3"/>
    </g>
    <g clip-path="url(#p4d08ae657e)">
     <use xlink:href="#Ce_0_3bf1f3b35e" x="678.299424" y="143.367501" style="fill-opacity: 0.3"/>
    </g>
    <g clip-path="url(#p4d08ae657e)">
     <use xlink:href="#Ce_0_3bf1f3b35e" x="680.196115" y="230.08087" style="fill-opacity: 0.3"/>
    </g>
    <g clip-path="url(#p4d08ae657e)">
     <use xlink:href="#Ce_0_3bf1f3b35e" x="676.591936" y="162.648064" style="fill-opacity: 0.3"/>
    </g>
    <g clip-path="url(#p4d08ae657e)">
     <use xlink:href="#Ce_0_3bf1f3b35e" x="682.664442" y="179.658222" style="fill-opacity: 0.3"/>
    </g>
    <g clip-path="url(#p4d08ae657e)">
     <use xlink:href="#Ce_0_3bf1f3b35e" x="681.457451" y="223.69424" style="fill-opacity: 0.3"/>
    </g>
    <g clip-path="url(#p4d08ae657e)">
     <use xlink:href="#Ce_0_3bf1f3b35e" x="680.07587" y="135.036725" style="fill-opacity: 0.3"/>
    </g>
    <g clip-path="url(#p4d08ae657e)">
     <use xlink:href="#Ce_0_3bf1f3b35e" x="683.434797" y="249.437411" style="fill-opacity: 0.3"/>
    </g>
    <g clip-path="url(#p4d08ae657e)">
     <use xlink:href="#Ce_0_3bf1f3b35e" x="680.158992" y="120.37295" style="fill-opacity: 0.3"/>
    </g>
    <g clip-path="url(#p4d08ae657e)">
     <use xlink:href="#Ce_0_3bf1f3b35e" x="681.593114" y="195.729826" style="fill-opacity: 0.3"/>
    </g>
    <g clip-path="url(#p4d08ae657e)">
     <use xlink:href="#Ce_0_3bf1f3b35e" x="678.185907" y="185.732001" style="fill-opacity: 0.3"/>
    </g>
    <g clip-path="url(#p4d08ae657e)">
     <use xlink:href="#Ce_0_3bf1f3b35e" x="676.712148" y="191.957737" style="fill-opacity: 0.3"/>
    </g>
   </g>
   <g id="PathCollection_16">
    <defs>
     <path id="Cf_0_93e986e573" d="M 0 2.5 
C 0.663008 2.5 1.29895 2.236584 1.767767 1.767767 
C 2.236584 1.29895 2.5 0.663008 2.5 -0 
C 2.5 -0.663008 2.236584 -1.29895 1.767767 -1.767767 
C 1.29895 -2.236584 0.663008 -2.5 0 -2.5 
C -0.663008 -2.5 -1.29895 -2.236584 -1.767767 -1.767767 
C -2.236584 -1.29895 -2.5 -0.663008 -2.5 0 
C -2.5 0.663008 -2.236584 1.29895 -1.767767 1.767767 
C -1.29895 2.236584 -0.663008 2.5 0 2.5 
z
"/>
    </defs>
    <g clip-path="url(#p4d08ae657e)">
     <use xlink:href="#Cf_0_93e986e573" x="714.370606" y="260.489991" style="fill: #ff0000; fill-opacity: 0.3"/>
    </g>
    <g clip-path="url(#p4d08ae657e)">
     <use xlink:href="#Cf_0_93e986e573" x="709.314051" y="225.321065" style="fill: #ff0000; fill-opacity: 0.3"/>
    </g>
    <g clip-path="url(#p4d08ae657e)">
     <use xlink:href="#Cf_0_93e986e573" x="711.037697" y="259.462052" style="fill: #ff0000; fill-opacity: 0.3"/>
    </g>
    <g clip-path="url(#p4d08ae657e)">
     <use xlink:href="#Cf_0_93e986e573" x="712.926454" y="214.563459" style="fill: #ff0000; fill-opacity: 0.3"/>
    </g>
    <g clip-path="url(#p4d08ae657e)">
     <use xlink:href="#Cf_0_93e986e573" x="712.360914" y="224.574692" style="fill: #ff0000; fill-opacity: 0.3"/>
    </g>
    <g clip-path="url(#p4d08ae657e)">
     <use xlink:href="#Cf_0_93e986e573" x="714.051182" y="232.673064" style="fill: #ff0000; fill-opacity: 0.3"/>
    </g>
    <g clip-path="url(#p4d08ae657e)">
     <use xlink:href="#Cf_0_93e986e573" x="712.135977" y="188.856042" style="fill: #ff0000; fill-opacity: 0.3"/>
    </g>
    <g clip-path="url(#p4d08ae657e)">
     <use xlink:href="#Cf_0_93e986e573" x="715.575252" y="227.287557" style="fill: #ff0000; fill-opacity: 0.3"/>
    </g>
    <g clip-path="url(#p4d08ae657e)">
     <use xlink:href="#Cf_0_93e986e573" x="713.125907" y="238.469747" style="fill: #ff0000; fill-opacity: 0.3"/>
    </g>
    <g clip-path="url(#p4d08ae657e)">
     <use xlink:href="#Cf_0_93e986e573" x="714.766653" y="215.729946" style="fill: #ff0000; fill-opacity: 0.3"/>
    </g>
    <g clip-path="url(#p4d08ae657e)">
     <use xlink:href="#Cf_0_93e986e573" x="712.881206" y="231.917753" style="fill: #ff0000; fill-opacity: 0.3"/>
    </g>
    <g clip-path="url(#p4d08ae657e)">
     <use xlink:href="#Cf_0_93e986e573" x="712.221726" y="181.870525" style="fill: #ff0000; fill-opacity: 0.3"/>
    </g>
    <g clip-path="url(#p4d08ae657e)">
     <use xlink:href="#Cf_0_93e986e573" x="713.497974" y="210.456172" style="fill: #ff0000; fill-opacity: 0.3"/>
    </g>
    <g clip-path="url(#p4d08ae657e)">
     <use xlink:href="#Cf_0_93e986e573" x="712.580228" y="216.391403" style="fill: #ff0000; fill-opacity: 0.3"/>
    </g>
    <g clip-path="url(#p4d08ae657e)">
     <use xlink:href="#Cf_0_93e986e573" x="716.776887" y="251.573736" style="fill: #ff0000; fill-opacity: 0.3"/>
    </g>
    <g clip-path="url(#p4d08ae657e)">
     <use xlink:href="#Cf_0_93e986e573" x="712.555787" y="250.675407" style="fill: #ff0000; fill-opacity: 0.3"/>
    </g>
   </g>
   <g id="PathCollection_17">
    <defs>
     <path id="C10_0_30b032160f" d="M 0 2.5 
C 0.663008 2.5 1.29895 2.236584 1.767767 1.767767 
C 2.236584 1.29895 2.5 0.663008 2.5 -0 
C 2.5 -0.663008 2.236584 -1.29895 1.767767 -1.767767 
C 1.29895 -2.236584 0.663008 -2.5 0 -2.5 
C -0.663008 -2.5 -1.29895 -2.236584 -1.767767 -1.767767 
C -2.236584 -1.29895 -2.5 -0.663008 -2.5 0 
C -2.5 0.663008 -2.236584 1.29895 -1.767767 1.767767 
C -1.29895 2.236584 -0.663008 2.5 0 2.5 
z
"/>
    </defs>
    <g clip-path="url(#p4d08ae657e)">
     <use xlink:href="#C10_0_30b032160f" x="759.552699" y="221.464059" style="fill-opacity: 0.3"/>
    </g>
    <g clip-path="url(#p4d08ae657e)">
     <use xlink:href="#C10_0_30b032160f" x="766.765964" y="228.579185" style="fill-opacity: 0.3"/>
    </g>
    <g clip-path="url(#p4d08ae657e)">
     <use xlink:href="#C10_0_30b032160f" x="761.604539" y="143.367501" style="fill-opacity: 0.3"/>
    </g>
    <g clip-path="url(#p4d08ae657e)">
     <use xlink:href="#C10_0_30b032160f" x="761.665101" y="230.08087" style="fill-opacity: 0.3"/>
    </g>
    <g clip-path="url(#p4d08ae657e)">
     <use xlink:href="#C10_0_30b032160f" x="763.92639" y="162.648064" style="fill-opacity: 0.3"/>
    </g>
    <g clip-path="url(#p4d08ae657e)">
     <use xlink:href="#C10_0_30b032160f" x="765.128082" y="179.658222" style="fill-opacity: 0.3"/>
    </g>
    <g clip-path="url(#p4d08ae657e)">
     <use xlink:href="#C10_0_30b032160f" x="764.622579" y="223.69424" style="fill-opacity: 0.3"/>
    </g>
    <g clip-path="url(#p4d08ae657e)">
     <use xlink:href="#C10_0_30b032160f" x="760.44332" y="135.036725" style="fill-opacity: 0.3"/>
    </g>
    <g clip-path="url(#p4d08ae657e)">
     <use xlink:href="#C10_0_30b032160f" x="762.95962" y="249.437411" style="fill-opacity: 0.3"/>
    </g>
    <g clip-path="url(#p4d08ae657e)">
     <use xlink:href="#C10_0_30b032160f" x="758.774845" y="120.37295" style="fill-opacity: 0.3"/>
    </g>
    <g clip-path="url(#p4d08ae657e)">
     <use xlink:href="#C10_0_30b032160f" x="764.606424" y="195.729826" style="fill-opacity: 0.3"/>
    </g>
    <g clip-path="url(#p4d08ae657e)">
     <use xlink:href="#C10_0_30b032160f" x="760.15893" y="185.732001" style="fill-opacity: 0.3"/>
    </g>
    <g clip-path="url(#p4d08ae657e)">
     <use xlink:href="#C10_0_30b032160f" x="763.989393" y="191.957737" style="fill-opacity: 0.3"/>
    </g>
   </g>
   <g id="PathCollection_18">
    <defs>
     <path id="C11_0_e2d9e27eb8" d="M 0 2.5 
C 0.663008 2.5 1.29895 2.236584 1.767767 1.767767 
C 2.236584 1.29895 2.5 0.663008 2.5 -0 
C 2.5 -0.663008 2.236584 -1.29895 1.767767 -1.767767 
C 1.29895 -2.236584 0.663008 -2.5 0 -2.5 
C -0.663008 -2.5 -1.29895 -2.236584 -1.767767 -1.767767 
C -2.236584 -1.29895 -2.5 -0.663008 -2.5 0 
C -2.5 0.663008 -2.236584 1.29895 -1.767767 1.767767 
C -1.29895 2.236584 -0.663008 2.5 0 2.5 
z
"/>
    </defs>
    <g clip-path="url(#p4d08ae657e)">
     <use xlink:href="#C11_0_e2d9e27eb8" x="798.757814" y="260.489991" style="fill: #ff0000; fill-opacity: 0.3"/>
    </g>
    <g clip-path="url(#p4d08ae657e)">
     <use xlink:href="#C11_0_e2d9e27eb8" x="798.907815" y="225.321065" style="fill: #ff0000; fill-opacity: 0.3"/>
    </g>
    <g clip-path="url(#p4d08ae657e)">
     <use xlink:href="#C11_0_e2d9e27eb8" x="792.882094" y="259.462052" style="fill: #ff0000; fill-opacity: 0.3"/>
    </g>
    <g clip-path="url(#p4d08ae657e)">
     <use xlink:href="#C11_0_e2d9e27eb8" x="798.50399" y="214.563459" style="fill: #ff0000; fill-opacity: 0.3"/>
    </g>
    <g clip-path="url(#p4d08ae657e)">
     <use xlink:href="#C11_0_e2d9e27eb8" x="795.326617" y="224.574692" style="fill: #ff0000; fill-opacity: 0.3"/>
    </g>
    <g clip-path="url(#p4d08ae657e)">
     <use xlink:href="#C11_0_e2d9e27eb8" x="794.347774" y="232.673064" style="fill: #ff0000; fill-opacity: 0.3"/>
    </g>
    <g clip-path="url(#p4d08ae657e)">
     <use xlink:href="#C11_0_e2d9e27eb8" x="793.136534" y="188.856042" style="fill: #ff0000; fill-opacity: 0.3"/>
    </g>
    <g clip-path="url(#p4d08ae657e)">
     <use xlink:href="#C11_0_e2d9e27eb8" x="794.991427" y="227.287557" style="fill: #ff0000; fill-opacity: 0.3"/>
    </g>
    <g clip-path="url(#p4d08ae657e)">
     <use xlink:href="#C11_0_e2d9e27eb8" x="797.210486" y="238.469747" style="fill: #ff0000; fill-opacity: 0.3"/>
    </g>
    <g clip-path="url(#p4d08ae657e)">
     <use xlink:href="#C11_0_e2d9e27eb8" x="796.778569" y="215.729946" style="fill: #ff0000; fill-opacity: 0.3"/>
    </g>
    <g clip-path="url(#p4d08ae657e)">
     <use xlink:href="#C11_0_e2d9e27eb8" x="799.401125" y="231.917753" style="fill: #ff0000; fill-opacity: 0.3"/>
    </g>
    <g clip-path="url(#p4d08ae657e)">
     <use xlink:href="#C11_0_e2d9e27eb8" x="797.082841" y="181.870525" style="fill: #ff0000; fill-opacity: 0.3"/>
    </g>
    <g clip-path="url(#p4d08ae657e)">
     <use xlink:href="#C11_0_e2d9e27eb8" x="795.05629" y="210.456172" style="fill: #ff0000; fill-opacity: 0.3"/>
    </g>
    <g clip-path="url(#p4d08ae657e)">
     <use xlink:href="#C11_0_e2d9e27eb8" x="797.725331" y="216.391403" style="fill: #ff0000; fill-opacity: 0.3"/>
    </g>
    <g clip-path="url(#p4d08ae657e)">
     <use xlink:href="#C11_0_e2d9e27eb8" x="795.133564" y="251.573736" style="fill: #ff0000; fill-opacity: 0.3"/>
    </g>
    <g clip-path="url(#p4d08ae657e)">
     <use xlink:href="#C11_0_e2d9e27eb8" x="794.397296" y="250.675407" style="fill: #ff0000; fill-opacity: 0.3"/>
    </g>
   </g>
   <g id="text_17">
    <!-- 0.232 -->
    <g transform="translate(93.630777 17.837812) scale(0.14 -0.14)">
     <use xlink:href="#DejaVuSans-30"/>
     <use xlink:href="#DejaVuSans-2e" transform="translate(63.623047 0)"/>
     <use xlink:href="#DejaVuSans-32" transform="translate(95.410156 0)"/>
     <use xlink:href="#DejaVuSans-33" transform="translate(159.033203 0)"/>
     <use xlink:href="#DejaVuSans-32" transform="translate(222.65625 0)"/>
    </g>
    <!-- ns -->
    <g transform="translate(105.587652 33.51475) scale(0.14 -0.14)">
     <use xlink:href="#DejaVuSans-6e"/>
     <use xlink:href="#DejaVuSans-73" transform="translate(63.378906 0)"/>
    </g>
   </g>
   <g id="text_18">
    <!-- 0.088 -->
    <g transform="translate(176.832224 17.837812) scale(0.14 -0.14)">
     <use xlink:href="#DejaVuSans-30"/>
     <use xlink:href="#DejaVuSans-2e" transform="translate(63.623047 0)"/>
     <use xlink:href="#DejaVuSans-30" transform="translate(95.410156 0)"/>
     <use xlink:href="#DejaVuSans-38" transform="translate(159.033203 0)"/>
     <use xlink:href="#DejaVuSans-38" transform="translate(222.65625 0)"/>
    </g>
    <!-- ns -->
    <g transform="translate(188.789099 33.51475) scale(0.14 -0.14)">
     <use xlink:href="#DejaVuSans-6e"/>
     <use xlink:href="#DejaVuSans-73" transform="translate(63.378906 0)"/>
    </g>
   </g>
   <g id="text_19">
    <!-- 1.0 -->
    <g transform="translate(268.94117 17.837812) scale(0.14 -0.14)">
     <use xlink:href="#DejaVuSans-31"/>
     <use xlink:href="#DejaVuSans-2e" transform="translate(63.623047 0)"/>
     <use xlink:href="#DejaVuSans-30" transform="translate(95.410156 0)"/>
    </g>
    <!-- ns -->
    <g transform="translate(271.990545 33.51475) scale(0.14 -0.14)">
     <use xlink:href="#DejaVuSans-6e"/>
     <use xlink:href="#DejaVuSans-73" transform="translate(63.378906 0)"/>
    </g>
   </g>
   <g id="text_20">
    <!-- 0.700 -->
    <g transform="translate(343.235116 17.837812) scale(0.14 -0.14)">
     <use xlink:href="#DejaVuSans-30"/>
     <use xlink:href="#DejaVuSans-2e" transform="translate(63.623047 0)"/>
     <use xlink:href="#DejaVuSans-37" transform="translate(95.410156 0)"/>
     <use xlink:href="#DejaVuSans-30" transform="translate(159.033203 0)"/>
     <use xlink:href="#DejaVuSans-30" transform="translate(222.65625 0)"/>
    </g>
    <!-- ns -->
    <g transform="translate(355.191991 33.51475) scale(0.14 -0.14)">
     <use xlink:href="#DejaVuSans-6e"/>
     <use xlink:href="#DejaVuSans-73" transform="translate(63.378906 0)"/>
    </g>
   </g>
   <g id="text_21">
    <!-- 0.001 -->
    <g transform="translate(426.436563 17.837812) scale(0.14 -0.14)">
     <use xlink:href="#DejaVuSans-30"/>
     <use xlink:href="#DejaVuSans-2e" transform="translate(63.623047 0)"/>
     <use xlink:href="#DejaVuSans-30" transform="translate(95.410156 0)"/>
     <use xlink:href="#DejaVuSans-30" transform="translate(159.033203 0)"/>
     <use xlink:href="#DejaVuSans-31" transform="translate(222.65625 0)"/>
    </g>
    <!-- ** -->
    <g transform="translate(439.47625 33.51475) scale(0.14 -0.14)">
     <defs>
      <path id="DejaVuSans-2a" d="M 3009 3897 
L 1888 3291 
L 3009 2681 
L 2828 2375 
L 1778 3009 
L 1778 1831 
L 1422 1831 
L 1422 3009 
L 372 2375 
L 191 2681 
L 1313 3291 
L 191 3897 
L 372 4206 
L 1422 3572 
L 1422 4750 
L 1778 4750 
L 1778 3572 
L 2828 4206 
L 3009 3897 
z
" transform="scale(0.015625)"/>
     </defs>
     <use xlink:href="#DejaVuSans-2a"/>
     <use xlink:href="#DejaVuSans-2a" transform="translate(50 0)"/>
    </g>
   </g>
   <g id="text_22">
    <!-- 0.002 -->
    <g transform="translate(509.638009 17.837812) scale(0.14 -0.14)">
     <use xlink:href="#DejaVuSans-30"/>
     <use xlink:href="#DejaVuSans-2e" transform="translate(63.623047 0)"/>
     <use xlink:href="#DejaVuSans-30" transform="translate(95.410156 0)"/>
     <use xlink:href="#DejaVuSans-30" transform="translate(159.033203 0)"/>
     <use xlink:href="#DejaVuSans-32" transform="translate(222.65625 0)"/>
    </g>
    <!-- ** -->
    <g transform="translate(522.677696 33.51475) scale(0.14 -0.14)">
     <use xlink:href="#DejaVuSans-2a"/>
     <use xlink:href="#DejaVuSans-2a" transform="translate(50 0)"/>
    </g>
   </g>
   <g id="text_23">
    <!-- 0.019 -->
    <g transform="translate(592.839455 17.837812) scale(0.14 -0.14)">
     <use xlink:href="#DejaVuSans-30"/>
     <use xlink:href="#DejaVuSans-2e" transform="translate(63.623047 0)"/>
     <use xlink:href="#DejaVuSans-30" transform="translate(95.410156 0)"/>
     <use xlink:href="#DejaVuSans-31" transform="translate(159.033203 0)"/>
     <use xlink:href="#DejaVuSans-39" transform="translate(222.65625 0)"/>
    </g>
    <!-- * -->
    <g transform="translate(609.379143 33.51475) scale(0.14 -0.14)">
     <use xlink:href="#DejaVuSans-2a"/>
    </g>
   </g>
   <g id="text_24">
    <!-- 0.013 -->
    <g transform="translate(676.040901 17.837812) scale(0.14 -0.14)">
     <use xlink:href="#DejaVuSans-30"/>
     <use xlink:href="#DejaVuSans-2e" transform="translate(63.623047 0)"/>
     <use xlink:href="#DejaVuSans-30" transform="translate(95.410156 0)"/>
     <use xlink:href="#DejaVuSans-31" transform="translate(159.033203 0)"/>
     <use xlink:href="#DejaVuSans-33" transform="translate(222.65625 0)"/>
    </g>
    <!-- * -->
    <g transform="translate(692.580589 33.51475) scale(0.14 -0.14)">
     <use xlink:href="#DejaVuSans-2a"/>
    </g>
   </g>
   <g id="text_25">
    <!-- 0.013 -->
    <g transform="translate(759.242348 17.837812) scale(0.14 -0.14)">
     <use xlink:href="#DejaVuSans-30"/>
     <use xlink:href="#DejaVuSans-2e" transform="translate(63.623047 0)"/>
     <use xlink:href="#DejaVuSans-30" transform="translate(95.410156 0)"/>
     <use xlink:href="#DejaVuSans-31" transform="translate(159.033203 0)"/>
     <use xlink:href="#DejaVuSans-33" transform="translate(222.65625 0)"/>
    </g>
    <!-- * -->
    <g transform="translate(775.782035 33.51475) scale(0.14 -0.14)">
     <use xlink:href="#DejaVuSans-2a"/>
    </g>
   </g>
  </g>
  <g id="text_26">
   <!-- time_day1day -->
   <g transform="translate(378.449531 426.602153) scale(0.14 -0.14)">
    <defs>
     <path id="DejaVuSans-79" d="M 2059 -325 
Q 1816 -950 1584 -1140 
Q 1353 -1331 966 -1331 
L 506 -1331 
L 506 -850 
L 844 -850 
Q 1081 -850 1212 -737 
Q 1344 -625 1503 -206 
L 1606 56 
L 191 3500 
L 800 3500 
L 1894 763 
L 2988 3500 
L 3597 3500 
L 2059 -325 
z
" transform="scale(0.015625)"/>
    </defs>
    <use xlink:href="#DejaVuSans-74"/>
    <use xlink:href="#DejaVuSans-69" transform="translate(39.208984 0)"/>
    <use xlink:href="#DejaVuSans-6d" transform="translate(66.992188 0)"/>
    <use xlink:href="#DejaVuSans-65" transform="translate(164.404297 0)"/>
    <use xlink:href="#DejaVuSans-5f" transform="translate(225.927734 0)"/>
    <use xlink:href="#DejaVuSans-64" transform="translate(275.927734 0)"/>
    <use xlink:href="#DejaVuSans-61" transform="translate(339.404297 0)"/>
    <use xlink:href="#DejaVuSans-79" transform="translate(400.683594 0)"/>
    <use xlink:href="#DejaVuSans-31" transform="translate(459.863281 0)"/>
    <use xlink:href="#DejaVuSans-64" transform="translate(523.486328 0)"/>
    <use xlink:href="#DejaVuSans-61" transform="translate(586.962891 0)"/>
    <use xlink:href="#DejaVuSans-79" transform="translate(648.242188 0)"/>
   </g>
  </g>
 </g>
 <defs>
  <clipPath id="p4d08ae657e">
   <rect x="43.78125" y="24.047897" width="805.39" height="270.994256"/>
  </clipPath>
 </defs>
</svg>
