<?xml version="1.0" encoding="utf-8" standalone="no"?>
<!DOCTYPE svg PUBLIC "-//W3C//DTD SVG 1.1//EN"
  "http://www.w3.org/Graphics/SVG/1.1/DTD/svg11.dtd">
<svg xmlns:xlink="http://www.w3.org/1999/xlink" width="856.548125pt" height="437.049113pt" viewBox="0 0 856.548125 437.049113" xmlns="http://www.w3.org/2000/svg" version="1.1">
 <metadata>
  <rdf:RDF xmlns:dc="http://purl.org/dc/elements/1.1/" xmlns:cc="http://creativecommons.org/ns#" xmlns:rdf="http://www.w3.org/1999/02/22-rdf-syntax-ns#">
   <cc:Work>
    <dc:type rdf:resource="http://purl.org/dc/dcmitype/StillImage"/>
    <dc:date>2025-11-29T20:14:07.073045</dc:date>
    <dc:format>image/svg+xml</dc:format>
    <dc:creator>
     <cc:Agent>
      <dc:title>Matplotlib v3.10.0, https://matplotlib.org/</dc:title>
     </cc:Agent>
    </dc:creator>
   </cc:Work>
  </rdf:RDF>
 </metadata>
 <defs>
  <style type="text/css">*{stroke-linejoin: round; stroke-linecap: butt}</style>
 </defs>
 <g id="figure_1">
  <g id="patch_1">
   <path d="M 0 437.049113 
L 856.548125 437.049113 
L 856.548125 0 
L 0 0 
L 0 437.049113 
z
" style="fill: none"/>
  </g>
  <g id="axes_1">
   <g id="patch_2">
    <path d="M 44.059375 294.988175 
L 849.348125 294.988175 
L 849.348125 24.377293 
L 44.059375 24.377293 
L 44.059375 294.988175 
z
" style="fill: none"/>
   </g>
   <g id="patch_3">
    <path d="M 80.663409 294.988175 
L 113.939804 294.988175 
L 113.939804 127.545628 
L 80.663409 127.545628 
L 80.663409 294.988175 
z
" clip-path="url(#pb17161ece9)" style="fill: none; opacity: 0"/>
   </g>
   <g id="patch_4">
    <path d="M 163.854396 294.988175 
L 197.13079 294.988175 
L 197.13079 127.545628 
L 163.854396 127.545628 
L 163.854396 294.988175 
z
" clip-path="url(#pb17161ece9)" style="fill: none; opacity: 0"/>
   </g>
   <g id="patch_5">
    <path d="M 247.045382 294.988175 
L 280.321777 294.988175 
L 280.321777 127.545628 
L 247.045382 127.545628 
L 247.045382 294.988175 
z
" clip-path="url(#pb17161ece9)" style="fill: none; opacity: 0"/>
   </g>
   <g id="patch_6">
    <path d="M 330.236369 294.988175 
L 363.512763 294.988175 
L 363.512763 127.545628 
L 330.236369 127.545628 
L 330.236369 294.988175 
z
" clip-path="url(#pb17161ece9)" style="fill: none; opacity: 0"/>
   </g>
   <g id="patch_7">
    <path d="M 413.427355 294.988175 
L 446.70375 294.988175 
L 446.70375 127.545628 
L 413.427355 127.545628 
L 413.427355 294.988175 
z
" clip-path="url(#pb17161ece9)" style="fill: none; opacity: 0"/>
   </g>
   <g id="patch_8">
    <path d="M 496.618342 294.988175 
L 529.894737 294.988175 
L 529.894737 127.545628 
L 496.618342 127.545628 
L 496.618342 294.988175 
z
" clip-path="url(#pb17161ece9)" style="fill: none; opacity: 0"/>
   </g>
   <g id="patch_9">
    <path d="M 579.809329 294.988175 
L 613.085723 294.988175 
L 613.085723 127.545628 
L 579.809329 127.545628 
L 579.809329 294.988175 
z
" clip-path="url(#pb17161ece9)" style="fill: none; opacity: 0"/>
   </g>
   <g id="patch_10">
    <path d="M 663.000315 294.988175 
L 696.27671 294.988175 
L 696.27671 127.545628 
L 663.000315 127.545628 
L 663.000315 294.988175 
z
" clip-path="url(#pb17161ece9)" style="fill: none; opacity: 0"/>
   </g>
   <g id="patch_11">
    <path d="M 746.191302 294.988175 
L 779.467696 294.988175 
L 779.467696 127.545628 
L 746.191302 127.545628 
L 746.191302 294.988175 
z
" clip-path="url(#pb17161ece9)" style="fill: none; opacity: 0"/>
   </g>
   <g id="patch_12">
    <path d="M 113.939804 294.988175 
L 147.216198 294.988175 
L 147.216198 112.223769 
L 113.939804 112.223769 
L 113.939804 294.988175 
z
" clip-path="url(#pb17161ece9)" style="fill: none; opacity: 0"/>
   </g>
   <g id="patch_13">
    <path d="M 197.13079 294.988175 
L 230.407185 294.988175 
L 230.407185 138.54076 
L 197.13079 138.54076 
L 197.13079 294.988175 
z
" clip-path="url(#pb17161ece9)" style="fill: none; opacity: 0"/>
   </g>
   <g id="patch_14">
    <path d="M 280.321777 294.988175 
L 313.598171 294.988175 
L 313.598171 122.415953 
L 280.321777 122.415953 
L 280.321777 294.988175 
z
" clip-path="url(#pb17161ece9)" style="fill: none; opacity: 0"/>
   </g>
   <g id="patch_15">
    <path d="M 363.512763 294.988175 
L 396.789158 294.988175 
L 396.789158 146.074147 
L 363.512763 146.074147 
L 363.512763 294.988175 
z
" clip-path="url(#pb17161ece9)" style="fill: none; opacity: 0"/>
   </g>
   <g id="patch_16">
    <path d="M 446.70375 294.988175 
L 479.980145 294.988175 
L 479.980145 168.035125 
L 446.70375 168.035125 
L 446.70375 294.988175 
z
" clip-path="url(#pb17161ece9)" style="fill: none; opacity: 0"/>
   </g>
   <g id="patch_17">
    <path d="M 529.894737 294.988175 
L 563.171131 294.988175 
L 563.171131 169.805933 
L 529.894737 169.805933 
L 529.894737 294.988175 
z
" clip-path="url(#pb17161ece9)" style="fill: none; opacity: 0"/>
   </g>
   <g id="patch_18">
    <path d="M 613.085723 294.988175 
L 646.362118 294.988175 
L 646.362118 83.276954 
L 613.085723 83.276954 
L 613.085723 294.988175 
z
" clip-path="url(#pb17161ece9)" style="fill: none; opacity: 0"/>
   </g>
   <g id="patch_19">
    <path d="M 696.27671 294.988175 
L 729.553104 294.988175 
L 729.553104 153.976293 
L 696.27671 153.976293 
L 696.27671 294.988175 
z
" clip-path="url(#pb17161ece9)" style="fill: none; opacity: 0"/>
   </g>
   <g id="patch_20">
    <path d="M 779.467696 294.988175 
L 812.744091 294.988175 
L 812.744091 153.976293 
L 779.467696 153.976293 
L 779.467696 294.988175 
z
" clip-path="url(#pb17161ece9)" style="fill: none; opacity: 0"/>
   </g>
   <g id="matplotlib.axis_1">
    <g id="xtick_1">
     <g id="line2d_1">
      <defs>
       <path id="m577749de41" d="M 0 0 
L 0 3.5 
" style="stroke: #000000; stroke-width: 0.8"/>
      </defs>
      <g>
       <use xlink:href="#m577749de41" x="113.939804" y="294.988175" style="stroke: #000000; stroke-width: 0.8"/>
      </g>
     </g>
     <g id="text_1">
      <!-- 0889 -->
      <g transform="translate(116.699179 327.438175) rotate(-90) scale(0.1 -0.1)">
       <defs>
        <path id="DejaVuSans-30" d="M 2034 4250 
Q 1547 4250 1301 3770 
Q 1056 3291 1056 2328 
Q 1056 1369 1301 889 
Q 1547 409 2034 409 
Q 2525 409 2770 889 
Q 3016 1369 3016 2328 
Q 3016 3291 2770 3770 
Q 2525 4250 2034 4250 
z
M 2034 4750 
Q 2819 4750 3233 4129 
Q 3647 3509 3647 2328 
Q 3647 1150 3233 529 
Q 2819 -91 2034 -91 
Q 1250 -91 836 529 
Q 422 1150 422 2328 
Q 422 3509 836 4129 
Q 1250 4750 2034 4750 
z
" transform="scale(0.015625)"/>
        <path id="DejaVuSans-38" d="M 2034 2216 
Q 1584 2216 1326 1975 
Q 1069 1734 1069 1313 
Q 1069 891 1326 650 
Q 1584 409 2034 409 
Q 2484 409 2743 651 
Q 3003 894 3003 1313 
Q 3003 1734 2745 1975 
Q 2488 2216 2034 2216 
z
M 1403 2484 
Q 997 2584 770 2862 
Q 544 3141 544 3541 
Q 544 4100 942 4425 
Q 1341 4750 2034 4750 
Q 2731 4750 3128 4425 
Q 3525 4100 3525 3541 
Q 3525 3141 3298 2862 
Q 3072 2584 2669 2484 
Q 3125 2378 3379 2068 
Q 3634 1759 3634 1313 
Q 3634 634 3220 271 
Q 2806 -91 2034 -91 
Q 1263 -91 848 271 
Q 434 634 434 1313 
Q 434 1759 690 2068 
Q 947 2378 1403 2484 
z
M 1172 3481 
Q 1172 3119 1398 2916 
Q 1625 2713 2034 2713 
Q 2441 2713 2670 2916 
Q 2900 3119 2900 3481 
Q 2900 3844 2670 4047 
Q 2441 4250 2034 4250 
Q 1625 4250 1398 4047 
Q 1172 3844 1172 3481 
z
" transform="scale(0.015625)"/>
        <path id="DejaVuSans-39" d="M 703 97 
L 703 672 
Q 941 559 1184 500 
Q 1428 441 1663 441 
Q 2288 441 2617 861 
Q 2947 1281 2994 2138 
Q 2813 1869 2534 1725 
Q 2256 1581 1919 1581 
Q 1219 1581 811 2004 
Q 403 2428 403 3163 
Q 403 3881 828 4315 
Q 1253 4750 1959 4750 
Q 2769 4750 3195 4129 
Q 3622 3509 3622 2328 
Q 3622 1225 3098 567 
Q 2575 -91 1691 -91 
Q 1453 -91 1209 -44 
Q 966 3 703 97 
z
M 1959 2075 
Q 2384 2075 2632 2365 
Q 2881 2656 2881 3163 
Q 2881 3666 2632 3958 
Q 2384 4250 1959 4250 
Q 1534 4250 1286 3958 
Q 1038 3666 1038 3163 
Q 1038 2656 1286 2365 
Q 1534 2075 1959 2075 
z
" transform="scale(0.015625)"/>
       </defs>
       <use xlink:href="#DejaVuSans-30"/>
       <use xlink:href="#DejaVuSans-38" transform="translate(63.623047 0)"/>
       <use xlink:href="#DejaVuSans-38" transform="translate(127.246094 0)"/>
       <use xlink:href="#DejaVuSans-39" transform="translate(190.869141 0)"/>
      </g>
     </g>
    </g>
    <g id="xtick_2">
     <g id="line2d_2">
      <g>
       <use xlink:href="#m577749de41" x="197.13079" y="294.988175" style="stroke: #000000; stroke-width: 0.8"/>
      </g>
     </g>
     <g id="text_2">
      <!-- 3547 -->
      <g transform="translate(199.890165 327.438175) rotate(-90) scale(0.1 -0.1)">
       <defs>
        <path id="DejaVuSans-33" d="M 2597 2516 
Q 3050 2419 3304 2112 
Q 3559 1806 3559 1356 
Q 3559 666 3084 287 
Q 2609 -91 1734 -91 
Q 1441 -91 1130 -33 
Q 819 25 488 141 
L 488 750 
Q 750 597 1062 519 
Q 1375 441 1716 441 
Q 2309 441 2620 675 
Q 2931 909 2931 1356 
Q 2931 1769 2642 2001 
Q 2353 2234 1838 2234 
L 1294 2234 
L 1294 2753 
L 1863 2753 
Q 2328 2753 2575 2939 
Q 2822 3125 2822 3475 
Q 2822 3834 2567 4026 
Q 2313 4219 1838 4219 
Q 1578 4219 1281 4162 
Q 984 4106 628 3988 
L 628 4550 
Q 988 4650 1302 4700 
Q 1616 4750 1894 4750 
Q 2613 4750 3031 4423 
Q 3450 4097 3450 3541 
Q 3450 3153 3228 2886 
Q 3006 2619 2597 2516 
z
" transform="scale(0.015625)"/>
        <path id="DejaVuSans-35" d="M 691 4666 
L 3169 4666 
L 3169 4134 
L 1269 4134 
L 1269 2991 
Q 1406 3038 1543 3061 
Q 1681 3084 1819 3084 
Q 2600 3084 3056 2656 
Q 3513 2228 3513 1497 
Q 3513 744 3044 326 
Q 2575 -91 1722 -91 
Q 1428 -91 1123 -41 
Q 819 9 494 109 
L 494 744 
Q 775 591 1075 516 
Q 1375 441 1709 441 
Q 2250 441 2565 725 
Q 2881 1009 2881 1497 
Q 2881 1984 2565 2268 
Q 2250 2553 1709 2553 
Q 1456 2553 1204 2497 
Q 953 2441 691 2322 
L 691 4666 
z
" transform="scale(0.015625)"/>
        <path id="DejaVuSans-34" d="M 2419 4116 
L 825 1625 
L 2419 1625 
L 2419 4116 
z
M 2253 4666 
L 3047 4666 
L 3047 1625 
L 3713 1625 
L 3713 1100 
L 3047 1100 
L 3047 0 
L 2419 0 
L 2419 1100 
L 313 1100 
L 313 1709 
L 2253 4666 
z
" transform="scale(0.015625)"/>
        <path id="DejaVuSans-37" d="M 525 4666 
L 3525 4666 
L 3525 4397 
L 1831 0 
L 1172 0 
L 2766 4134 
L 525 4134 
L 525 4666 
z
" transform="scale(0.015625)"/>
       </defs>
       <use xlink:href="#DejaVuSans-33"/>
       <use xlink:href="#DejaVuSans-35" transform="translate(63.623047 0)"/>
       <use xlink:href="#DejaVuSans-34" transform="translate(127.246094 0)"/>
       <use xlink:href="#DejaVuSans-37" transform="translate(190.869141 0)"/>
      </g>
     </g>
    </g>
    <g id="xtick_3">
     <g id="line2d_3">
      <g>
       <use xlink:href="#m577749de41" x="280.321777" y="294.988175" style="stroke: #000000; stroke-width: 0.8"/>
      </g>
     </g>
     <g id="text_3">
      <!-- 5262 -->
      <g transform="translate(283.081152 327.438175) rotate(-90) scale(0.1 -0.1)">
       <defs>
        <path id="DejaVuSans-32" d="M 1228 531 
L 3431 531 
L 3431 0 
L 469 0 
L 469 531 
Q 828 903 1448 1529 
Q 2069 2156 2228 2338 
Q 2531 2678 2651 2914 
Q 2772 3150 2772 3378 
Q 2772 3750 2511 3984 
Q 2250 4219 1831 4219 
Q 1534 4219 1204 4116 
Q 875 4013 500 3803 
L 500 4441 
Q 881 4594 1212 4672 
Q 1544 4750 1819 4750 
Q 2544 4750 2975 4387 
Q 3406 4025 3406 3419 
Q 3406 3131 3298 2873 
Q 3191 2616 2906 2266 
Q 2828 2175 2409 1742 
Q 1991 1309 1228 531 
z
" transform="scale(0.015625)"/>
        <path id="DejaVuSans-36" d="M 2113 2584 
Q 1688 2584 1439 2293 
Q 1191 2003 1191 1497 
Q 1191 994 1439 701 
Q 1688 409 2113 409 
Q 2538 409 2786 701 
Q 3034 994 3034 1497 
Q 3034 2003 2786 2293 
Q 2538 2584 2113 2584 
z
M 3366 4563 
L 3366 3988 
Q 3128 4100 2886 4159 
Q 2644 4219 2406 4219 
Q 1781 4219 1451 3797 
Q 1122 3375 1075 2522 
Q 1259 2794 1537 2939 
Q 1816 3084 2150 3084 
Q 2853 3084 3261 2657 
Q 3669 2231 3669 1497 
Q 3669 778 3244 343 
Q 2819 -91 2113 -91 
Q 1303 -91 875 529 
Q 447 1150 447 2328 
Q 447 3434 972 4092 
Q 1497 4750 2381 4750 
Q 2619 4750 2861 4703 
Q 3103 4656 3366 4563 
z
" transform="scale(0.015625)"/>
       </defs>
       <use xlink:href="#DejaVuSans-35"/>
       <use xlink:href="#DejaVuSans-32" transform="translate(63.623047 0)"/>
       <use xlink:href="#DejaVuSans-36" transform="translate(127.246094 0)"/>
       <use xlink:href="#DejaVuSans-32" transform="translate(190.869141 0)"/>
      </g>
     </g>
    </g>
    <g id="xtick_4">
     <g id="line2d_4">
      <g>
       <use xlink:href="#m577749de41" x="363.512763" y="294.988175" style="stroke: #000000; stroke-width: 0.8"/>
      </g>
     </g>
     <g id="text_4">
      <!-- 5299 -->
      <g transform="translate(366.272138 327.438175) rotate(-90) scale(0.1 -0.1)">
       <use xlink:href="#DejaVuSans-35"/>
       <use xlink:href="#DejaVuSans-32" transform="translate(63.623047 0)"/>
       <use xlink:href="#DejaVuSans-39" transform="translate(127.246094 0)"/>
       <use xlink:href="#DejaVuSans-39" transform="translate(190.869141 0)"/>
      </g>
     </g>
    </g>
    <g id="xtick_5">
     <g id="line2d_5">
      <g>
       <use xlink:href="#m577749de41" x="446.70375" y="294.988175" style="stroke: #000000; stroke-width: 0.8"/>
      </g>
     </g>
     <g id="text_5">
      <!-- 6566 -->
      <g transform="translate(449.463125 327.438175) rotate(-90) scale(0.1 -0.1)">
       <use xlink:href="#DejaVuSans-36"/>
       <use xlink:href="#DejaVuSans-35" transform="translate(63.623047 0)"/>
       <use xlink:href="#DejaVuSans-36" transform="translate(127.246094 0)"/>
       <use xlink:href="#DejaVuSans-36" transform="translate(190.869141 0)"/>
      </g>
     </g>
    </g>
    <g id="xtick_6">
     <g id="line2d_6">
      <g>
       <use xlink:href="#m577749de41" x="529.894737" y="294.988175" style="stroke: #000000; stroke-width: 0.8"/>
      </g>
     </g>
     <g id="text_6">
      <!-- 8519 -->
      <g transform="translate(532.654112 327.438175) rotate(-90) scale(0.1 -0.1)">
       <defs>
        <path id="DejaVuSans-31" d="M 794 531 
L 1825 531 
L 1825 4091 
L 703 3866 
L 703 4441 
L 1819 4666 
L 2450 4666 
L 2450 531 
L 3481 531 
L 3481 0 
L 794 0 
L 794 531 
z
" transform="scale(0.015625)"/>
       </defs>
       <use xlink:href="#DejaVuSans-38"/>
       <use xlink:href="#DejaVuSans-35" transform="translate(63.623047 0)"/>
       <use xlink:href="#DejaVuSans-31" transform="translate(127.246094 0)"/>
       <use xlink:href="#DejaVuSans-39" transform="translate(190.869141 0)"/>
      </g>
     </g>
    </g>
    <g id="xtick_7">
     <g id="line2d_7">
      <g>
       <use xlink:href="#m577749de41" x="613.085723" y="294.988175" style="stroke: #000000; stroke-width: 0.8"/>
      </g>
     </g>
     <g id="text_7">
      <!-- 5682 -->
      <g transform="translate(615.845098 327.438175) rotate(-90) scale(0.1 -0.1)">
       <use xlink:href="#DejaVuSans-35"/>
       <use xlink:href="#DejaVuSans-36" transform="translate(63.623047 0)"/>
       <use xlink:href="#DejaVuSans-38" transform="translate(127.246094 0)"/>
       <use xlink:href="#DejaVuSans-32" transform="translate(190.869141 0)"/>
      </g>
     </g>
    </g>
    <g id="xtick_8">
     <g id="line2d_8">
      <g>
       <use xlink:href="#m577749de41" x="696.27671" y="294.988175" style="stroke: #000000; stroke-width: 0.8"/>
      </g>
     </g>
     <g id="text_8">
      <!-- Seltorexant -->
      <g transform="translate(699.036085 359.475675) rotate(-90) scale(0.1 -0.1)">
       <defs>
        <path id="DejaVuSans-53" d="M 3425 4513 
L 3425 3897 
Q 3066 4069 2747 4153 
Q 2428 4238 2131 4238 
Q 1616 4238 1336 4038 
Q 1056 3838 1056 3469 
Q 1056 3159 1242 3001 
Q 1428 2844 1947 2747 
L 2328 2669 
Q 3034 2534 3370 2195 
Q 3706 1856 3706 1288 
Q 3706 609 3251 259 
Q 2797 -91 1919 -91 
Q 1588 -91 1214 -16 
Q 841 59 441 206 
L 441 856 
Q 825 641 1194 531 
Q 1563 422 1919 422 
Q 2459 422 2753 634 
Q 3047 847 3047 1241 
Q 3047 1584 2836 1778 
Q 2625 1972 2144 2069 
L 1759 2144 
Q 1053 2284 737 2584 
Q 422 2884 422 3419 
Q 422 4038 858 4394 
Q 1294 4750 2059 4750 
Q 2388 4750 2728 4690 
Q 3069 4631 3425 4513 
z
" transform="scale(0.015625)"/>
        <path id="DejaVuSans-65" d="M 3597 1894 
L 3597 1613 
L 953 1613 
Q 991 1019 1311 708 
Q 1631 397 2203 397 
Q 2534 397 2845 478 
Q 3156 559 3463 722 
L 3463 178 
Q 3153 47 2828 -22 
Q 2503 -91 2169 -91 
Q 1331 -91 842 396 
Q 353 884 353 1716 
Q 353 2575 817 3079 
Q 1281 3584 2069 3584 
Q 2775 3584 3186 3129 
Q 3597 2675 3597 1894 
z
M 3022 2063 
Q 3016 2534 2758 2815 
Q 2500 3097 2075 3097 
Q 1594 3097 1305 2825 
Q 1016 2553 972 2059 
L 3022 2063 
z
" transform="scale(0.015625)"/>
        <path id="DejaVuSans-6c" d="M 603 4863 
L 1178 4863 
L 1178 0 
L 603 0 
L 603 4863 
z
" transform="scale(0.015625)"/>
        <path id="DejaVuSans-74" d="M 1172 4494 
L 1172 3500 
L 2356 3500 
L 2356 3053 
L 1172 3053 
L 1172 1153 
Q 1172 725 1289 603 
Q 1406 481 1766 481 
L 2356 481 
L 2356 0 
L 1766 0 
Q 1100 0 847 248 
Q 594 497 594 1153 
L 594 3053 
L 172 3053 
L 172 3500 
L 594 3500 
L 594 4494 
L 1172 4494 
z
" transform="scale(0.015625)"/>
        <path id="DejaVuSans-6f" d="M 1959 3097 
Q 1497 3097 1228 2736 
Q 959 2375 959 1747 
Q 959 1119 1226 758 
Q 1494 397 1959 397 
Q 2419 397 2687 759 
Q 2956 1122 2956 1747 
Q 2956 2369 2687 2733 
Q 2419 3097 1959 3097 
z
M 1959 3584 
Q 2709 3584 3137 3096 
Q 3566 2609 3566 1747 
Q 3566 888 3137 398 
Q 2709 -91 1959 -91 
Q 1206 -91 779 398 
Q 353 888 353 1747 
Q 353 2609 779 3096 
Q 1206 3584 1959 3584 
z
" transform="scale(0.015625)"/>
        <path id="DejaVuSans-72" d="M 2631 2963 
Q 2534 3019 2420 3045 
Q 2306 3072 2169 3072 
Q 1681 3072 1420 2755 
Q 1159 2438 1159 1844 
L 1159 0 
L 581 0 
L 581 3500 
L 1159 3500 
L 1159 2956 
Q 1341 3275 1631 3429 
Q 1922 3584 2338 3584 
Q 2397 3584 2469 3576 
Q 2541 3569 2628 3553 
L 2631 2963 
z
" transform="scale(0.015625)"/>
        <path id="DejaVuSans-78" d="M 3513 3500 
L 2247 1797 
L 3578 0 
L 2900 0 
L 1881 1375 
L 863 0 
L 184 0 
L 1544 1831 
L 300 3500 
L 978 3500 
L 1906 2253 
L 2834 3500 
L 3513 3500 
z
" transform="scale(0.015625)"/>
        <path id="DejaVuSans-61" d="M 2194 1759 
Q 1497 1759 1228 1600 
Q 959 1441 959 1056 
Q 959 750 1161 570 
Q 1363 391 1709 391 
Q 2188 391 2477 730 
Q 2766 1069 2766 1631 
L 2766 1759 
L 2194 1759 
z
M 3341 1997 
L 3341 0 
L 2766 0 
L 2766 531 
Q 2569 213 2275 61 
Q 1981 -91 1556 -91 
Q 1019 -91 701 211 
Q 384 513 384 1019 
Q 384 1609 779 1909 
Q 1175 2209 1959 2209 
L 2766 2209 
L 2766 2266 
Q 2766 2663 2505 2880 
Q 2244 3097 1772 3097 
Q 1472 3097 1187 3025 
Q 903 2953 641 2809 
L 641 3341 
Q 956 3463 1253 3523 
Q 1550 3584 1831 3584 
Q 2591 3584 2966 3190 
Q 3341 2797 3341 1997 
z
" transform="scale(0.015625)"/>
        <path id="DejaVuSans-6e" d="M 3513 2113 
L 3513 0 
L 2938 0 
L 2938 2094 
Q 2938 2591 2744 2837 
Q 2550 3084 2163 3084 
Q 1697 3084 1428 2787 
Q 1159 2491 1159 1978 
L 1159 0 
L 581 0 
L 581 3500 
L 1159 3500 
L 1159 2956 
Q 1366 3272 1645 3428 
Q 1925 3584 2291 3584 
Q 2894 3584 3203 3211 
Q 3513 2838 3513 2113 
z
" transform="scale(0.015625)"/>
       </defs>
       <use xlink:href="#DejaVuSans-53"/>
       <use xlink:href="#DejaVuSans-65" transform="translate(63.476562 0)"/>
       <use xlink:href="#DejaVuSans-6c" transform="translate(125 0)"/>
       <use xlink:href="#DejaVuSans-74" transform="translate(152.783203 0)"/>
       <use xlink:href="#DejaVuSans-6f" transform="translate(191.992188 0)"/>
       <use xlink:href="#DejaVuSans-72" transform="translate(253.173828 0)"/>
       <use xlink:href="#DejaVuSans-65" transform="translate(292.037109 0)"/>
       <use xlink:href="#DejaVuSans-78" transform="translate(351.810547 0)"/>
       <use xlink:href="#DejaVuSans-61" transform="translate(410.990234 0)"/>
       <use xlink:href="#DejaVuSans-6e" transform="translate(472.269531 0)"/>
       <use xlink:href="#DejaVuSans-74" transform="translate(535.648438 0)"/>
      </g>
     </g>
    </g>
    <g id="xtick_9">
     <g id="line2d_9">
      <g>
       <use xlink:href="#m577749de41" x="779.467696" y="294.988175" style="stroke: #000000; stroke-width: 0.8"/>
      </g>
     </g>
     <g id="text_9">
      <!-- YSeltorexant_CROPOUT -->
      <g transform="translate(782.088009 419.714738) rotate(-90) scale(0.1 -0.1)">
       <defs>
        <path id="DejaVuSans-59" d="M -13 4666 
L 666 4666 
L 1959 2747 
L 3244 4666 
L 3922 4666 
L 2272 2222 
L 2272 0 
L 1638 0 
L 1638 2222 
L -13 4666 
z
" transform="scale(0.015625)"/>
        <path id="DejaVuSans-5f" d="M 3263 -1063 
L 3263 -1509 
L -63 -1509 
L -63 -1063 
L 3263 -1063 
z
" transform="scale(0.015625)"/>
        <path id="DejaVuSans-43" d="M 4122 4306 
L 4122 3641 
Q 3803 3938 3442 4084 
Q 3081 4231 2675 4231 
Q 1875 4231 1450 3742 
Q 1025 3253 1025 2328 
Q 1025 1406 1450 917 
Q 1875 428 2675 428 
Q 3081 428 3442 575 
Q 3803 722 4122 1019 
L 4122 359 
Q 3791 134 3420 21 
Q 3050 -91 2638 -91 
Q 1578 -91 968 557 
Q 359 1206 359 2328 
Q 359 3453 968 4101 
Q 1578 4750 2638 4750 
Q 3056 4750 3426 4639 
Q 3797 4528 4122 4306 
z
" transform="scale(0.015625)"/>
        <path id="DejaVuSans-52" d="M 2841 2188 
Q 3044 2119 3236 1894 
Q 3428 1669 3622 1275 
L 4263 0 
L 3584 0 
L 2988 1197 
Q 2756 1666 2539 1819 
Q 2322 1972 1947 1972 
L 1259 1972 
L 1259 0 
L 628 0 
L 628 4666 
L 2053 4666 
Q 2853 4666 3247 4331 
Q 3641 3997 3641 3322 
Q 3641 2881 3436 2590 
Q 3231 2300 2841 2188 
z
M 1259 4147 
L 1259 2491 
L 2053 2491 
Q 2509 2491 2742 2702 
Q 2975 2913 2975 3322 
Q 2975 3731 2742 3939 
Q 2509 4147 2053 4147 
L 1259 4147 
z
" transform="scale(0.015625)"/>
        <path id="DejaVuSans-4f" d="M 2522 4238 
Q 1834 4238 1429 3725 
Q 1025 3213 1025 2328 
Q 1025 1447 1429 934 
Q 1834 422 2522 422 
Q 3209 422 3611 934 
Q 4013 1447 4013 2328 
Q 4013 3213 3611 3725 
Q 3209 4238 2522 4238 
z
M 2522 4750 
Q 3503 4750 4090 4092 
Q 4678 3434 4678 2328 
Q 4678 1225 4090 567 
Q 3503 -91 2522 -91 
Q 1538 -91 948 565 
Q 359 1222 359 2328 
Q 359 3434 948 4092 
Q 1538 4750 2522 4750 
z
" transform="scale(0.015625)"/>
        <path id="DejaVuSans-50" d="M 1259 4147 
L 1259 2394 
L 2053 2394 
Q 2494 2394 2734 2622 
Q 2975 2850 2975 3272 
Q 2975 3691 2734 3919 
Q 2494 4147 2053 4147 
L 1259 4147 
z
M 628 4666 
L 2053 4666 
Q 2838 4666 3239 4311 
Q 3641 3956 3641 3272 
Q 3641 2581 3239 2228 
Q 2838 1875 2053 1875 
L 1259 1875 
L 1259 0 
L 628 0 
L 628 4666 
z
" transform="scale(0.015625)"/>
        <path id="DejaVuSans-55" d="M 556 4666 
L 1191 4666 
L 1191 1831 
Q 1191 1081 1462 751 
Q 1734 422 2344 422 
Q 2950 422 3222 751 
Q 3494 1081 3494 1831 
L 3494 4666 
L 4128 4666 
L 4128 1753 
Q 4128 841 3676 375 
Q 3225 -91 2344 -91 
Q 1459 -91 1007 375 
Q 556 841 556 1753 
L 556 4666 
z
" transform="scale(0.015625)"/>
        <path id="DejaVuSans-54" d="M -19 4666 
L 3928 4666 
L 3928 4134 
L 2272 4134 
L 2272 0 
L 1638 0 
L 1638 4134 
L -19 4134 
L -19 4666 
z
" transform="scale(0.015625)"/>
       </defs>
       <use xlink:href="#DejaVuSans-59"/>
       <use xlink:href="#DejaVuSans-53" transform="translate(61.083984 0)"/>
       <use xlink:href="#DejaVuSans-65" transform="translate(124.560547 0)"/>
       <use xlink:href="#DejaVuSans-6c" transform="translate(186.083984 0)"/>
       <use xlink:href="#DejaVuSans-74" transform="translate(213.867188 0)"/>
       <use xlink:href="#DejaVuSans-6f" transform="translate(253.076172 0)"/>
       <use xlink:href="#DejaVuSans-72" transform="translate(314.257812 0)"/>
       <use xlink:href="#DejaVuSans-65" transform="translate(353.121094 0)"/>
       <use xlink:href="#DejaVuSans-78" transform="translate(412.894531 0)"/>
       <use xlink:href="#DejaVuSans-61" transform="translate(472.074219 0)"/>
       <use xlink:href="#DejaVuSans-6e" transform="translate(533.353516 0)"/>
       <use xlink:href="#DejaVuSans-74" transform="translate(596.732422 0)"/>
       <use xlink:href="#DejaVuSans-5f" transform="translate(635.941406 0)"/>
       <use xlink:href="#DejaVuSans-43" transform="translate(685.941406 0)"/>
       <use xlink:href="#DejaVuSans-52" transform="translate(755.765625 0)"/>
       <use xlink:href="#DejaVuSans-4f" transform="translate(825.248047 0)"/>
       <use xlink:href="#DejaVuSans-50" transform="translate(903.958984 0)"/>
       <use xlink:href="#DejaVuSans-4f" transform="translate(964.261719 0)"/>
       <use xlink:href="#DejaVuSans-55" transform="translate(1042.972656 0)"/>
       <use xlink:href="#DejaVuSans-54" transform="translate(1116.166016 0)"/>
      </g>
     </g>
    </g>
   </g>
   <g id="matplotlib.axis_2">
    <g id="ytick_1">
     <g id="line2d_10">
      <defs>
       <path id="md0e7e94bea" d="M 0 0 
L -3.5 0 
" style="stroke: #000000; stroke-width: 0.8"/>
      </defs>
      <g>
       <use xlink:href="#md0e7e94bea" x="44.059375" y="294.988175" style="stroke: #000000; stroke-width: 0.8"/>
      </g>
     </g>
     <g id="text_10">
      <!-- 0.0 -->
      <g transform="translate(21.15625 298.787394) scale(0.1 -0.1)">
       <defs>
        <path id="DejaVuSans-2e" d="M 684 794 
L 1344 794 
L 1344 0 
L 684 0 
L 684 794 
z
" transform="scale(0.015625)"/>
       </defs>
       <use xlink:href="#DejaVuSans-30"/>
       <use xlink:href="#DejaVuSans-2e" transform="translate(63.623047 0)"/>
       <use xlink:href="#DejaVuSans-30" transform="translate(95.410156 0)"/>
      </g>
     </g>
    </g>
    <g id="ytick_2">
     <g id="line2d_11">
      <g>
       <use xlink:href="#md0e7e94bea" x="44.059375" y="261.499666" style="stroke: #000000; stroke-width: 0.8"/>
      </g>
     </g>
     <g id="text_11">
      <!-- 0.2 -->
      <g transform="translate(21.15625 265.298884) scale(0.1 -0.1)">
       <use xlink:href="#DejaVuSans-30"/>
       <use xlink:href="#DejaVuSans-2e" transform="translate(63.623047 0)"/>
       <use xlink:href="#DejaVuSans-32" transform="translate(95.410156 0)"/>
      </g>
     </g>
    </g>
    <g id="ytick_3">
     <g id="line2d_12">
      <g>
       <use xlink:href="#md0e7e94bea" x="44.059375" y="228.011156" style="stroke: #000000; stroke-width: 0.8"/>
      </g>
     </g>
     <g id="text_12">
      <!-- 0.4 -->
      <g transform="translate(21.15625 231.810375) scale(0.1 -0.1)">
       <use xlink:href="#DejaVuSans-30"/>
       <use xlink:href="#DejaVuSans-2e" transform="translate(63.623047 0)"/>
       <use xlink:href="#DejaVuSans-34" transform="translate(95.410156 0)"/>
      </g>
     </g>
    </g>
    <g id="ytick_4">
     <g id="line2d_13">
      <g>
       <use xlink:href="#md0e7e94bea" x="44.059375" y="194.522647" style="stroke: #000000; stroke-width: 0.8"/>
      </g>
     </g>
     <g id="text_13">
      <!-- 0.6 -->
      <g transform="translate(21.15625 198.321866) scale(0.1 -0.1)">
       <use xlink:href="#DejaVuSans-30"/>
       <use xlink:href="#DejaVuSans-2e" transform="translate(63.623047 0)"/>
       <use xlink:href="#DejaVuSans-36" transform="translate(95.410156 0)"/>
      </g>
     </g>
    </g>
    <g id="ytick_5">
     <g id="line2d_14">
      <g>
       <use xlink:href="#md0e7e94bea" x="44.059375" y="161.034138" style="stroke: #000000; stroke-width: 0.8"/>
      </g>
     </g>
     <g id="text_14">
      <!-- 0.8 -->
      <g transform="translate(21.15625 164.833356) scale(0.1 -0.1)">
       <use xlink:href="#DejaVuSans-30"/>
       <use xlink:href="#DejaVuSans-2e" transform="translate(63.623047 0)"/>
       <use xlink:href="#DejaVuSans-38" transform="translate(95.410156 0)"/>
      </g>
     </g>
    </g>
    <g id="ytick_6">
     <g id="line2d_15">
      <g>
       <use xlink:href="#md0e7e94bea" x="44.059375" y="127.545628" style="stroke: #000000; stroke-width: 0.8"/>
      </g>
     </g>
     <g id="text_15">
      <!-- 1.0 -->
      <g transform="translate(21.15625 131.344847) scale(0.1 -0.1)">
       <use xlink:href="#DejaVuSans-31"/>
       <use xlink:href="#DejaVuSans-2e" transform="translate(63.623047 0)"/>
       <use xlink:href="#DejaVuSans-30" transform="translate(95.410156 0)"/>
      </g>
     </g>
    </g>
    <g id="ytick_7">
     <g id="line2d_16">
      <g>
       <use xlink:href="#md0e7e94bea" x="44.059375" y="94.057119" style="stroke: #000000; stroke-width: 0.8"/>
      </g>
     </g>
     <g id="text_16">
      <!-- 1.2 -->
      <g transform="translate(21.15625 97.856338) scale(0.1 -0.1)">
       <use xlink:href="#DejaVuSans-31"/>
       <use xlink:href="#DejaVuSans-2e" transform="translate(63.623047 0)"/>
       <use xlink:href="#DejaVuSans-32" transform="translate(95.410156 0)"/>
      </g>
     </g>
    </g>
    <g id="ytick_8">
     <g id="line2d_17">
      <g>
       <use xlink:href="#md0e7e94bea" x="44.059375" y="60.56861" style="stroke: #000000; stroke-width: 0.8"/>
      </g>
     </g>
     <g id="text_17">
      <!-- 1.4 -->
      <g transform="translate(21.15625 64.367828) scale(0.1 -0.1)">
       <use xlink:href="#DejaVuSans-31"/>
       <use xlink:href="#DejaVuSans-2e" transform="translate(63.623047 0)"/>
       <use xlink:href="#DejaVuSans-34" transform="translate(95.410156 0)"/>
      </g>
     </g>
    </g>
    <g id="text_18">
     <!-- Normalized dpix_active: Binned - 60over3600 -->
     <g transform="translate(14.798438 273.92414) rotate(-90) scale(0.1 -0.1)">
      <defs>
       <path id="DejaVuSans-4e" d="M 628 4666 
L 1478 4666 
L 3547 763 
L 3547 4666 
L 4159 4666 
L 4159 0 
L 3309 0 
L 1241 3903 
L 1241 0 
L 628 0 
L 628 4666 
z
" transform="scale(0.015625)"/>
       <path id="DejaVuSans-6d" d="M 3328 2828 
Q 3544 3216 3844 3400 
Q 4144 3584 4550 3584 
Q 5097 3584 5394 3201 
Q 5691 2819 5691 2113 
L 5691 0 
L 5113 0 
L 5113 2094 
Q 5113 2597 4934 2840 
Q 4756 3084 4391 3084 
Q 3944 3084 3684 2787 
Q 3425 2491 3425 1978 
L 3425 0 
L 2847 0 
L 2847 2094 
Q 2847 2600 2669 2842 
Q 2491 3084 2119 3084 
Q 1678 3084 1418 2786 
Q 1159 2488 1159 1978 
L 1159 0 
L 581 0 
L 581 3500 
L 1159 3500 
L 1159 2956 
Q 1356 3278 1631 3431 
Q 1906 3584 2284 3584 
Q 2666 3584 2933 3390 
Q 3200 3197 3328 2828 
z
" transform="scale(0.015625)"/>
       <path id="DejaVuSans-69" d="M 603 3500 
L 1178 3500 
L 1178 0 
L 603 0 
L 603 3500 
z
M 603 4863 
L 1178 4863 
L 1178 4134 
L 603 4134 
L 603 4863 
z
" transform="scale(0.015625)"/>
       <path id="DejaVuSans-7a" d="M 353 3500 
L 3084 3500 
L 3084 2975 
L 922 459 
L 3084 459 
L 3084 0 
L 275 0 
L 275 525 
L 2438 3041 
L 353 3041 
L 353 3500 
z
" transform="scale(0.015625)"/>
       <path id="DejaVuSans-64" d="M 2906 2969 
L 2906 4863 
L 3481 4863 
L 3481 0 
L 2906 0 
L 2906 525 
Q 2725 213 2448 61 
Q 2172 -91 1784 -91 
Q 1150 -91 751 415 
Q 353 922 353 1747 
Q 353 2572 751 3078 
Q 1150 3584 1784 3584 
Q 2172 3584 2448 3432 
Q 2725 3281 2906 2969 
z
M 947 1747 
Q 947 1113 1208 752 
Q 1469 391 1925 391 
Q 2381 391 2643 752 
Q 2906 1113 2906 1747 
Q 2906 2381 2643 2742 
Q 2381 3103 1925 3103 
Q 1469 3103 1208 2742 
Q 947 2381 947 1747 
z
" transform="scale(0.015625)"/>
       <path id="DejaVuSans-20" transform="scale(0.015625)"/>
       <path id="DejaVuSans-70" d="M 1159 525 
L 1159 -1331 
L 581 -1331 
L 581 3500 
L 1159 3500 
L 1159 2969 
Q 1341 3281 1617 3432 
Q 1894 3584 2278 3584 
Q 2916 3584 3314 3078 
Q 3713 2572 3713 1747 
Q 3713 922 3314 415 
Q 2916 -91 2278 -91 
Q 1894 -91 1617 61 
Q 1341 213 1159 525 
z
M 3116 1747 
Q 3116 2381 2855 2742 
Q 2594 3103 2138 3103 
Q 1681 3103 1420 2742 
Q 1159 2381 1159 1747 
Q 1159 1113 1420 752 
Q 1681 391 2138 391 
Q 2594 391 2855 752 
Q 3116 1113 3116 1747 
z
" transform="scale(0.015625)"/>
       <path id="DejaVuSans-63" d="M 3122 3366 
L 3122 2828 
Q 2878 2963 2633 3030 
Q 2388 3097 2138 3097 
Q 1578 3097 1268 2742 
Q 959 2388 959 1747 
Q 959 1106 1268 751 
Q 1578 397 2138 397 
Q 2388 397 2633 464 
Q 2878 531 3122 666 
L 3122 134 
Q 2881 22 2623 -34 
Q 2366 -91 2075 -91 
Q 1284 -91 818 406 
Q 353 903 353 1747 
Q 353 2603 823 3093 
Q 1294 3584 2113 3584 
Q 2378 3584 2631 3529 
Q 2884 3475 3122 3366 
z
" transform="scale(0.015625)"/>
       <path id="DejaVuSans-76" d="M 191 3500 
L 800 3500 
L 1894 563 
L 2988 3500 
L 3597 3500 
L 2284 0 
L 1503 0 
L 191 3500 
z
" transform="scale(0.015625)"/>
       <path id="DejaVuSans-3a" d="M 750 794 
L 1409 794 
L 1409 0 
L 750 0 
L 750 794 
z
M 750 3309 
L 1409 3309 
L 1409 2516 
L 750 2516 
L 750 3309 
z
" transform="scale(0.015625)"/>
       <path id="DejaVuSans-42" d="M 1259 2228 
L 1259 519 
L 2272 519 
Q 2781 519 3026 730 
Q 3272 941 3272 1375 
Q 3272 1813 3026 2020 
Q 2781 2228 2272 2228 
L 1259 2228 
z
M 1259 4147 
L 1259 2741 
L 2194 2741 
Q 2656 2741 2882 2914 
Q 3109 3088 3109 3444 
Q 3109 3797 2882 3972 
Q 2656 4147 2194 4147 
L 1259 4147 
z
M 628 4666 
L 2241 4666 
Q 2963 4666 3353 4366 
Q 3744 4066 3744 3513 
Q 3744 3084 3544 2831 
Q 3344 2578 2956 2516 
Q 3422 2416 3680 2098 
Q 3938 1781 3938 1306 
Q 3938 681 3513 340 
Q 3088 0 2303 0 
L 628 0 
L 628 4666 
z
" transform="scale(0.015625)"/>
       <path id="DejaVuSans-2d" d="M 313 2009 
L 1997 2009 
L 1997 1497 
L 313 1497 
L 313 2009 
z
" transform="scale(0.015625)"/>
      </defs>
      <use xlink:href="#DejaVuSans-4e"/>
      <use xlink:href="#DejaVuSans-6f" transform="translate(74.804688 0)"/>
      <use xlink:href="#DejaVuSans-72" transform="translate(135.986328 0)"/>
      <use xlink:href="#DejaVuSans-6d" transform="translate(175.349609 0)"/>
      <use xlink:href="#DejaVuSans-61" transform="translate(272.761719 0)"/>
      <use xlink:href="#DejaVuSans-6c" transform="translate(334.041016 0)"/>
      <use xlink:href="#DejaVuSans-69" transform="translate(361.824219 0)"/>
      <use xlink:href="#DejaVuSans-7a" transform="translate(389.607422 0)"/>
      <use xlink:href="#DejaVuSans-65" transform="translate(442.097656 0)"/>
      <use xlink:href="#DejaVuSans-64" transform="translate(503.621094 0)"/>
      <use xlink:href="#DejaVuSans-20" transform="translate(567.097656 0)"/>
      <use xlink:href="#DejaVuSans-64" transform="translate(598.884766 0)"/>
      <use xlink:href="#DejaVuSans-70" transform="translate(662.361328 0)"/>
      <use xlink:href="#DejaVuSans-69" transform="translate(725.837891 0)"/>
      <use xlink:href="#DejaVuSans-78" transform="translate(753.621094 0)"/>
      <use xlink:href="#DejaVuSans-5f" transform="translate(812.800781 0)"/>
      <use xlink:href="#DejaVuSans-61" transform="translate(862.800781 0)"/>
      <use xlink:href="#DejaVuSans-63" transform="translate(924.080078 0)"/>
      <use xlink:href="#DejaVuSans-74" transform="translate(979.060547 0)"/>
      <use xlink:href="#DejaVuSans-69" transform="translate(1018.269531 0)"/>
      <use xlink:href="#DejaVuSans-76" transform="translate(1046.052734 0)"/>
      <use xlink:href="#DejaVuSans-65" transform="translate(1105.232422 0)"/>
      <use xlink:href="#DejaVuSans-3a" transform="translate(1166.755859 0)"/>
      <use xlink:href="#DejaVuSans-20" transform="translate(1200.447266 0)"/>
      <use xlink:href="#DejaVuSans-42" transform="translate(1232.234375 0)"/>
      <use xlink:href="#DejaVuSans-69" transform="translate(1300.837891 0)"/>
      <use xlink:href="#DejaVuSans-6e" transform="translate(1328.621094 0)"/>
      <use xlink:href="#DejaVuSans-6e" transform="translate(1392 0)"/>
      <use xlink:href="#DejaVuSans-65" transform="translate(1455.378906 0)"/>
      <use xlink:href="#DejaVuSans-64" transform="translate(1516.902344 0)"/>
      <use xlink:href="#DejaVuSans-20" transform="translate(1580.378906 0)"/>
      <use xlink:href="#DejaVuSans-2d" transform="translate(1612.166016 0)"/>
      <use xlink:href="#DejaVuSans-20" transform="translate(1648.25 0)"/>
      <use xlink:href="#DejaVuSans-36" transform="translate(1680.037109 0)"/>
      <use xlink:href="#DejaVuSans-30" transform="translate(1743.660156 0)"/>
      <use xlink:href="#DejaVuSans-6f" transform="translate(1807.283203 0)"/>
      <use xlink:href="#DejaVuSans-76" transform="translate(1868.464844 0)"/>
      <use xlink:href="#DejaVuSans-65" transform="translate(1927.644531 0)"/>
      <use xlink:href="#DejaVuSans-72" transform="translate(1989.167969 0)"/>
      <use xlink:href="#DejaVuSans-33" transform="translate(2030.28125 0)"/>
      <use xlink:href="#DejaVuSans-36" transform="translate(2093.904297 0)"/>
      <use xlink:href="#DejaVuSans-30" transform="translate(2157.527344 0)"/>
      <use xlink:href="#DejaVuSans-30" transform="translate(2221.150391 0)"/>
     </g>
    </g>
   </g>
   <g id="line2d_18">
    <path d="M 93.142057 139.296172 
L 101.461156 139.296172 
M 97.301606 139.296172 
L 97.301606 115.795085 
M 93.142057 115.795085 
L 101.461156 115.795085 
" clip-path="url(#pb17161ece9)" style="fill: none; stroke: #000000; stroke-width: 2; stroke-linecap: square"/>
   </g>
   <g id="line2d_19">
    <path d="M 176.333044 133.343466 
L 184.652142 133.343466 
M 180.492593 133.343466 
L 180.492593 121.747791 
M 176.333044 121.747791 
L 184.652142 121.747791 
" clip-path="url(#pb17161ece9)" style="fill: none; stroke: #000000; stroke-width: 2; stroke-linecap: square"/>
   </g>
   <g id="line2d_20">
    <path d="M 259.52403 132.309549 
L 267.843129 132.309549 
M 263.68358 132.309549 
L 263.68358 122.781708 
M 259.52403 122.781708 
L 267.843129 122.781708 
" clip-path="url(#pb17161ece9)" style="fill: none; stroke: #000000; stroke-width: 2; stroke-linecap: square"/>
   </g>
   <g id="line2d_21">
    <path d="M 342.715017 134.373735 
L 351.034115 134.373735 
M 346.874566 134.373735 
L 346.874566 120.717521 
M 342.715017 120.717521 
L 351.034115 120.717521 
" clip-path="url(#pb17161ece9)" style="fill: none; stroke: #000000; stroke-width: 2; stroke-linecap: square"/>
   </g>
   <g id="line2d_22">
    <path d="M 425.906003 135.736939 
L 434.225102 135.736939 
M 430.065553 135.736939 
L 430.065553 119.354318 
M 425.906003 119.354318 
L 434.225102 119.354318 
" clip-path="url(#pb17161ece9)" style="fill: none; stroke: #000000; stroke-width: 2; stroke-linecap: square"/>
   </g>
   <g id="line2d_23">
    <path d="M 509.09699 132.858929 
L 517.416089 132.858929 
M 513.256539 132.858929 
L 513.256539 122.232328 
M 509.09699 122.232328 
L 517.416089 122.232328 
" clip-path="url(#pb17161ece9)" style="fill: none; stroke: #000000; stroke-width: 2; stroke-linecap: square"/>
   </g>
   <g id="line2d_24">
    <path d="M 592.287976 142.238656 
L 600.607075 142.238656 
M 596.447526 142.238656 
L 596.447526 112.8526 
M 592.287976 112.8526 
L 600.607075 112.8526 
" clip-path="url(#pb17161ece9)" style="fill: none; stroke: #000000; stroke-width: 2; stroke-linecap: square"/>
   </g>
   <g id="line2d_25">
    <path d="M 675.478963 134.511745 
L 683.798062 134.511745 
M 679.638512 134.511745 
L 679.638512 120.579512 
M 675.478963 120.579512 
L 683.798062 120.579512 
" clip-path="url(#pb17161ece9)" style="fill: none; stroke: #000000; stroke-width: 2; stroke-linecap: square"/>
   </g>
   <g id="line2d_26">
    <path d="M 758.66995 134.511745 
L 766.989048 134.511745 
M 762.829499 134.511745 
L 762.829499 120.579512 
M 758.66995 120.579512 
L 766.989048 120.579512 
" clip-path="url(#pb17161ece9)" style="fill: none; stroke: #000000; stroke-width: 2; stroke-linecap: square"/>
   </g>
   <g id="line2d_27">
    <path d="M 126.418452 121.019496 
L 134.73755 121.019496 
M 130.578001 121.019496 
L 130.578001 103.428043 
M 126.418452 103.428043 
L 134.73755 103.428043 
" clip-path="url(#pb17161ece9)" style="fill: none; stroke: #ff0000; stroke-width: 2; stroke-linecap: square"/>
   </g>
   <g id="line2d_28">
    <path d="M 209.609438 145.127929 
L 217.928537 145.127929 
M 213.768988 145.127929 
L 213.768988 131.95359 
M 209.609438 131.95359 
L 217.928537 131.95359 
" clip-path="url(#pb17161ece9)" style="fill: none; stroke: #ff0000; stroke-width: 2; stroke-linecap: square"/>
   </g>
   <g id="line2d_29">
    <path d="M 292.800425 126.27797 
L 301.119524 126.27797 
M 296.959974 126.27797 
L 296.959974 118.553937 
M 292.800425 118.553937 
L 301.119524 118.553937 
" clip-path="url(#pb17161ece9)" style="fill: none; stroke: #ff0000; stroke-width: 2; stroke-linecap: square"/>
   </g>
   <g id="line2d_30">
    <path d="M 375.991411 151.266188 
L 384.31051 151.266188 
M 380.150961 151.266188 
L 380.150961 140.882106 
M 375.991411 140.882106 
L 384.31051 140.882106 
" clip-path="url(#pb17161ece9)" style="fill: none; stroke: #ff0000; stroke-width: 2; stroke-linecap: square"/>
   </g>
   <g id="line2d_31">
    <path d="M 459.182398 177.282905 
L 467.501497 177.282905 
M 463.341947 177.282905 
L 463.341947 158.787344 
M 459.182398 158.787344 
L 467.501497 158.787344 
" clip-path="url(#pb17161ece9)" style="fill: none; stroke: #ff0000; stroke-width: 2; stroke-linecap: square"/>
   </g>
   <g id="line2d_32">
    <path d="M 542.373385 176.993977 
L 550.692483 176.993977 
M 546.532934 176.993977 
L 546.532934 162.61789 
M 542.373385 162.61789 
L 550.692483 162.61789 
" clip-path="url(#pb17161ece9)" style="fill: none; stroke: #ff0000; stroke-width: 2; stroke-linecap: square"/>
   </g>
   <g id="line2d_33">
    <path d="M 625.564371 87.443895 
L 633.88347 87.443895 
M 629.72392 87.443895 
L 629.72392 79.110012 
M 625.564371 79.110012 
L 633.88347 79.110012 
" clip-path="url(#pb17161ece9)" style="fill: none; stroke: #ff0000; stroke-width: 2; stroke-linecap: square"/>
   </g>
   <g id="line2d_34">
    <path d="M 708.755358 159.885611 
L 717.074456 159.885611 
M 712.914907 159.885611 
L 712.914907 148.066974 
M 708.755358 148.066974 
L 717.074456 148.066974 
" clip-path="url(#pb17161ece9)" style="fill: none; stroke: #ff0000; stroke-width: 2; stroke-linecap: square"/>
   </g>
   <g id="line2d_35">
    <path d="M 791.946344 159.885611 
L 800.265443 159.885611 
M 796.105894 159.885611 
L 796.105894 148.066974 
M 791.946344 148.066974 
L 800.265443 148.066974 
" clip-path="url(#pb17161ece9)" style="fill: none; stroke: #ff0000; stroke-width: 2; stroke-linecap: square"/>
   </g>
   <g id="line2d_36">
    <path d="M 97.301606 40.612376 
L 97.301606 37.263525 
L 130.578001 37.263525 
L 130.578001 40.612376 
" clip-path="url(#pb17161ece9)" style="fill: none; stroke: #000000; stroke-width: 1.5; stroke-linecap: square"/>
   </g>
   <g id="line2d_37">
    <path d="M 180.492593 40.612376 
L 180.492593 37.263525 
L 213.768988 37.263525 
L 213.768988 40.612376 
" clip-path="url(#pb17161ece9)" style="fill: none; stroke: #000000; stroke-width: 1.5; stroke-linecap: square"/>
   </g>
   <g id="line2d_38">
    <path d="M 263.68358 40.612376 
L 263.68358 37.263525 
L 296.959974 37.263525 
L 296.959974 40.612376 
" clip-path="url(#pb17161ece9)" style="fill: none; stroke: #000000; stroke-width: 1.5; stroke-linecap: square"/>
   </g>
   <g id="line2d_39">
    <path d="M 346.874566 40.612376 
L 346.874566 37.263525 
L 380.150961 37.263525 
L 380.150961 40.612376 
" clip-path="url(#pb17161ece9)" style="fill: none; stroke: #000000; stroke-width: 1.5; stroke-linecap: square"/>
   </g>
   <g id="line2d_40">
    <path d="M 430.065553 40.612376 
L 430.065553 37.263525 
L 463.341947 37.263525 
L 463.341947 40.612376 
" clip-path="url(#pb17161ece9)" style="fill: none; stroke: #000000; stroke-width: 1.5; stroke-linecap: square"/>
   </g>
   <g id="line2d_41">
    <path d="M 513.256539 40.612376 
L 513.256539 37.263525 
L 546.532934 37.263525 
L 546.532934 40.612376 
" clip-path="url(#pb17161ece9)" style="fill: none; stroke: #000000; stroke-width: 1.5; stroke-linecap: square"/>
   </g>
   <g id="line2d_42">
    <path d="M 596.447526 40.612376 
L 596.447526 37.263525 
L 629.72392 37.263525 
L 629.72392 40.612376 
" clip-path="url(#pb17161ece9)" style="fill: none; stroke: #000000; stroke-width: 1.5; stroke-linecap: square"/>
   </g>
   <g id="line2d_43">
    <path d="M 679.638512 40.612376 
L 679.638512 37.263525 
L 712.914907 37.263525 
L 712.914907 40.612376 
" clip-path="url(#pb17161ece9)" style="fill: none; stroke: #000000; stroke-width: 1.5; stroke-linecap: square"/>
   </g>
   <g id="line2d_44">
    <path d="M 762.829499 40.612376 
L 762.829499 37.263525 
L 796.105894 37.263525 
L 796.105894 40.612376 
" clip-path="url(#pb17161ece9)" style="fill: none; stroke: #000000; stroke-width: 1.5; stroke-linecap: square"/>
   </g>
   <g id="patch_21">
    <path d="M 44.059375 294.988175 
L 44.059375 60.56861 
" style="fill: none; stroke: #000000; stroke-width: 0.8; stroke-linejoin: miter; stroke-linecap: square"/>
   </g>
   <g id="patch_22">
    <path d="M 113.939804 294.988175 
L 779.467696 294.988175 
" style="fill: none; stroke: #000000; stroke-width: 0.8; stroke-linejoin: miter; stroke-linecap: square"/>
   </g>
   <g id="PathCollection_1">
    <defs>
     <path id="C0_0_1de9fcddc7" d="M 0 2.5 
C 0.663008 2.5 1.29895 2.236584 1.767767 1.767767 
C 2.236584 1.29895 2.5 0.663008 2.5 -0 
C 2.5 -0.663008 2.236584 -1.29895 1.767767 -1.767767 
C 1.29895 -2.236584 0.663008 -2.5 0 -2.5 
C -0.663008 -2.5 -1.29895 -2.236584 -1.767767 -1.767767 
C -2.236584 -1.29895 -2.5 -0.663008 -2.5 0 
C -2.5 0.663008 -2.236584 1.29895 -1.767767 1.767767 
C -1.29895 2.236584 -0.663008 2.5 0 2.5 
z
"/>
    </defs>
    <g clip-path="url(#pb17161ece9)">
     <use xlink:href="#C0_0_1de9fcddc7" x="100.023114" y="167.192159" style="fill-opacity: 0.3"/>
    </g>
    <g clip-path="url(#pb17161ece9)">
     <use xlink:href="#C0_0_1de9fcddc7" x="95.215242" y="173.413614" style="fill-opacity: 0.3"/>
    </g>
    <g clip-path="url(#pb17161ece9)">
     <use xlink:href="#C0_0_1de9fcddc7" x="99.338633" y="91.217208" style="fill-opacity: 0.3"/>
    </g>
    <g clip-path="url(#pb17161ece9)">
     <use xlink:href="#C0_0_1de9fcddc7" x="98.28609" y="65.160288" style="fill-opacity: 0.3"/>
    </g>
    <g clip-path="url(#pb17161ece9)">
     <use xlink:href="#C0_0_1de9fcddc7" x="98.52316" y="177.292875" style="fill-opacity: 0.3"/>
    </g>
    <g clip-path="url(#pb17161ece9)">
     <use xlink:href="#C0_0_1de9fcddc7" x="98.447793" y="99.707665" style="fill-opacity: 0.3"/>
    </g>
    <g clip-path="url(#pb17161ece9)">
     <use xlink:href="#C0_0_1de9fcddc7" x="99.985196" y="78.993877" style="fill-opacity: 0.3"/>
    </g>
    <g clip-path="url(#pb17161ece9)">
     <use xlink:href="#C0_0_1de9fcddc7" x="95.404452" y="169.607547" style="fill-opacity: 0.3"/>
    </g>
    <g clip-path="url(#pb17161ece9)">
     <use xlink:href="#C0_0_1de9fcddc7" x="94.730182" y="131.034523" style="fill-opacity: 0.3"/>
    </g>
    <g clip-path="url(#pb17161ece9)">
     <use xlink:href="#C0_0_1de9fcddc7" x="99.864896" y="48.984503" style="fill-opacity: 0.3"/>
    </g>
    <g clip-path="url(#pb17161ece9)">
     <use xlink:href="#C0_0_1de9fcddc7" x="101.240533" y="187.027623" style="fill-opacity: 0.3"/>
    </g>
    <g clip-path="url(#pb17161ece9)">
     <use xlink:href="#C0_0_1de9fcddc7" x="99.659215" y="174.95068" style="fill-opacity: 0.3"/>
    </g>
    <g clip-path="url(#pb17161ece9)">
     <use xlink:href="#C0_0_1de9fcddc7" x="95.736374" y="123.568776" style="fill-opacity: 0.3"/>
    </g>
    <g clip-path="url(#pb17161ece9)">
     <use xlink:href="#C0_0_1de9fcddc7" x="100.708422" y="100.366407" style="fill-opacity: 0.3"/>
    </g>
    <g clip-path="url(#pb17161ece9)">
     <use xlink:href="#C0_0_1de9fcddc7" x="97.939126" y="124.66668" style="fill-opacity: 0.3"/>
    </g>
   </g>
   <g id="PathCollection_2">
    <defs>
     <path id="C1_0_69be4faee4" d="M 0 2.5 
C 0.663008 2.5 1.29895 2.236584 1.767767 1.767767 
C 2.236584 1.29895 2.5 0.663008 2.5 -0 
C 2.5 -0.663008 2.236584 -1.29895 1.767767 -1.767767 
C 1.29895 -2.236584 0.663008 -2.5 0 -2.5 
C -0.663008 -2.5 -1.29895 -2.236584 -1.767767 -1.767767 
C -2.236584 -1.29895 -2.5 -0.663008 -2.5 0 
C -2.5 0.663008 -2.236584 1.29895 -1.767767 1.767767 
C -1.29895 2.236584 -0.663008 2.5 0 2.5 
z
"/>
    </defs>
    <g clip-path="url(#pb17161ece9)">
     <use xlink:href="#C1_0_69be4faee4" x="131.408395" y="116.981353" style="fill: #ff0000; fill-opacity: 0.3"/>
    </g>
    <g clip-path="url(#pb17161ece9)">
     <use xlink:href="#C1_0_69be4faee4" x="133.259607" y="155.481184" style="fill: #ff0000; fill-opacity: 0.3"/>
    </g>
    <g clip-path="url(#pb17161ece9)">
     <use xlink:href="#C1_0_69be4faee4" x="131.694256" y="88.509045" style="fill: #ff0000; fill-opacity: 0.3"/>
    </g>
    <g clip-path="url(#pb17161ece9)">
     <use xlink:href="#C1_0_69be4faee4" x="134.61493" y="148.527792" style="fill: #ff0000; fill-opacity: 0.3"/>
    </g>
    <g clip-path="url(#pb17161ece9)">
     <use xlink:href="#C1_0_69be4faee4" x="129.270807" y="105.416765" style="fill: #ff0000; fill-opacity: 0.3"/>
    </g>
    <g clip-path="url(#pb17161ece9)">
     <use xlink:href="#C1_0_69be4faee4" x="131.436436" y="89.314174" style="fill: #ff0000; fill-opacity: 0.3"/>
    </g>
    <g clip-path="url(#pb17161ece9)">
     <use xlink:href="#C1_0_69be4faee4" x="133.036653" y="103.367344" style="fill: #ff0000; fill-opacity: 0.3"/>
    </g>
    <g clip-path="url(#pb17161ece9)">
     <use xlink:href="#C1_0_69be4faee4" x="128.853734" y="77.603199" style="fill: #ff0000; fill-opacity: 0.3"/>
    </g>
    <g clip-path="url(#pb17161ece9)">
     <use xlink:href="#C1_0_69be4faee4" x="131.942425" y="90.85124" style="fill: #ff0000; fill-opacity: 0.3"/>
    </g>
    <g clip-path="url(#pb17161ece9)">
     <use xlink:href="#C1_0_69be4faee4" x="132.863766" y="98.756148" style="fill: #ff0000; fill-opacity: 0.3"/>
    </g>
    <g clip-path="url(#pb17161ece9)">
     <use xlink:href="#C1_0_69be4faee4" x="131.521248" y="159.653219" style="fill: #ff0000; fill-opacity: 0.3"/>
    </g>
   </g>
   <g id="PathCollection_3">
    <defs>
     <path id="C2_0_f4bf8d2a74" d="M 0 2.5 
C 0.663008 2.5 1.29895 2.236584 1.767767 1.767767 
C 2.236584 1.29895 2.5 0.663008 2.5 -0 
C 2.5 -0.663008 2.236584 -1.29895 1.767767 -1.767767 
C 1.29895 -2.236584 0.663008 -2.5 0 -2.5 
C -0.663008 -2.5 -1.29895 -2.236584 -1.767767 -1.767767 
C -2.236584 -1.29895 -2.5 -0.663008 -2.5 0 
C -2.5 0.663008 -2.236584 1.29895 -1.767767 1.767767 
C -1.29895 2.236584 -0.663008 2.5 0 2.5 
z
"/>
    </defs>
    <g clip-path="url(#pb17161ece9)">
     <use xlink:href="#C2_0_f4bf8d2a74" x="180.570918" y="143.271013" style="fill-opacity: 0.3"/>
    </g>
    <g clip-path="url(#pb17161ece9)">
     <use xlink:href="#C2_0_f4bf8d2a74" x="179.609437" y="110.472182" style="fill-opacity: 0.3"/>
    </g>
    <g clip-path="url(#pb17161ece9)">
     <use xlink:href="#C2_0_f4bf8d2a74" x="177.71813" y="122.087181" style="fill-opacity: 0.3"/>
    </g>
    <g clip-path="url(#pb17161ece9)">
     <use xlink:href="#C2_0_f4bf8d2a74" x="176.57169" y="111.916534" style="fill-opacity: 0.3"/>
    </g>
    <g clip-path="url(#pb17161ece9)">
     <use xlink:href="#C2_0_f4bf8d2a74" x="176.511504" y="121.60573" style="fill-opacity: 0.3"/>
    </g>
    <g clip-path="url(#pb17161ece9)">
     <use xlink:href="#C2_0_f4bf8d2a74" x="177.593126" y="164.876115" style="fill-opacity: 0.3"/>
    </g>
    <g clip-path="url(#pb17161ece9)">
     <use xlink:href="#C2_0_f4bf8d2a74" x="183.542471" y="148.446608" style="fill-opacity: 0.3"/>
    </g>
    <g clip-path="url(#pb17161ece9)">
     <use xlink:href="#C2_0_f4bf8d2a74" x="177.348213" y="111.916534" style="fill-opacity: 0.3"/>
    </g>
    <g clip-path="url(#pb17161ece9)">
     <use xlink:href="#C2_0_f4bf8d2a74" x="180.613437" y="119.619746" style="fill-opacity: 0.3"/>
    </g>
    <g clip-path="url(#pb17161ece9)">
     <use xlink:href="#C2_0_f4bf8d2a74" x="180.970016" y="121.244642" style="fill-opacity: 0.3"/>
    </g>
   </g>
   <g id="PathCollection_4">
    <defs>
     <path id="C3_0_304315f233" d="M 0 2.5 
C 0.663008 2.5 1.29895 2.236584 1.767767 1.767767 
C 2.236584 1.29895 2.5 0.663008 2.5 -0 
C 2.5 -0.663008 2.236584 -1.29895 1.767767 -1.767767 
C 1.29895 -2.236584 0.663008 -2.5 0 -2.5 
C -0.663008 -2.5 -1.29895 -2.236584 -1.767767 -1.767767 
C -2.236584 -1.29895 -2.5 -0.663008 -2.5 0 
C -2.5 0.663008 -2.236584 1.29895 -1.767767 1.767767 
C -1.29895 2.236584 -0.663008 2.5 0 2.5 
z
"/>
    </defs>
    <g clip-path="url(#pb17161ece9)">
     <use xlink:href="#C3_0_304315f233" x="209.654592" y="116.309772" style="fill: #ff0000; fill-opacity: 0.3"/>
    </g>
    <g clip-path="url(#pb17161ece9)">
     <use xlink:href="#C3_0_304315f233" x="210.444605" y="145.557904" style="fill: #ff0000; fill-opacity: 0.3"/>
    </g>
    <g clip-path="url(#pb17161ece9)">
     <use xlink:href="#C3_0_304315f233" x="217.246723" y="140.863759" style="fill: #ff0000; fill-opacity: 0.3"/>
    </g>
    <g clip-path="url(#pb17161ece9)">
     <use xlink:href="#C3_0_304315f233" x="212.206568" y="134.303993" style="fill: #ff0000; fill-opacity: 0.3"/>
    </g>
    <g clip-path="url(#pb17161ece9)">
     <use xlink:href="#C3_0_304315f233" x="215.361487" y="144.956091" style="fill: #ff0000; fill-opacity: 0.3"/>
    </g>
    <g clip-path="url(#pb17161ece9)">
     <use xlink:href="#C3_0_304315f233" x="210.328539" y="170.95443" style="fill: #ff0000; fill-opacity: 0.3"/>
    </g>
    <g clip-path="url(#pb17161ece9)">
     <use xlink:href="#C3_0_304315f233" x="209.714462" y="127.142413" style="fill: #ff0000; fill-opacity: 0.3"/>
    </g>
    <g clip-path="url(#pb17161ece9)">
     <use xlink:href="#C3_0_304315f233" x="210.890612" y="172.218238" style="fill: #ff0000; fill-opacity: 0.3"/>
    </g>
    <g clip-path="url(#pb17161ece9)">
     <use xlink:href="#C3_0_304315f233" x="215.05553" y="113.782156" style="fill: #ff0000; fill-opacity: 0.3"/>
    </g>
    <g clip-path="url(#pb17161ece9)">
     <use xlink:href="#C3_0_304315f233" x="216.329805" y="119.318839" style="fill: #ff0000; fill-opacity: 0.3"/>
    </g>
   </g>
   <g id="PathCollection_5">
    <defs>
     <path id="C4_0_868063dbf4" d="M 0 2.5 
C 0.663008 2.5 1.29895 2.236584 1.767767 1.767767 
C 2.236584 1.29895 2.5 0.663008 2.5 -0 
C 2.5 -0.663008 2.236584 -1.29895 1.767767 -1.767767 
C 1.29895 -2.236584 0.663008 -2.5 0 -2.5 
C -0.663008 -2.5 -1.29895 -2.236584 -1.767767 -1.767767 
C -2.236584 -1.29895 -2.5 -0.663008 -2.5 0 
C -2.5 0.663008 -2.236584 1.29895 -1.767767 1.767767 
C -1.29895 2.236584 -0.663008 2.5 0 2.5 
z
"/>
    </defs>
    <g clip-path="url(#pb17161ece9)">
     <use xlink:href="#C4_0_868063dbf4" x="263.366023" y="132.067938" style="fill-opacity: 0.3"/>
    </g>
    <g clip-path="url(#pb17161ece9)">
     <use xlink:href="#C4_0_868063dbf4" x="267.525394" y="138.448932" style="fill-opacity: 0.3"/>
    </g>
    <g clip-path="url(#pb17161ece9)">
     <use xlink:href="#C4_0_868063dbf4" x="264.708788" y="131.365444" style="fill-opacity: 0.3"/>
    </g>
    <g clip-path="url(#pb17161ece9)">
     <use xlink:href="#C4_0_868063dbf4" x="265.966474" y="100.68984" style="fill-opacity: 0.3"/>
    </g>
    <g clip-path="url(#pb17161ece9)">
     <use xlink:href="#C4_0_868063dbf4" x="260.166423" y="109.822272" style="fill-opacity: 0.3"/>
    </g>
    <g clip-path="url(#pb17161ece9)">
     <use xlink:href="#C4_0_868063dbf4" x="264.186813" y="145.825127" style="fill-opacity: 0.3"/>
    </g>
    <g clip-path="url(#pb17161ece9)">
     <use xlink:href="#C4_0_868063dbf4" x="265.126546" y="171.290561" style="fill-opacity: 0.3"/>
    </g>
    <g clip-path="url(#pb17161ece9)">
     <use xlink:href="#C4_0_868063dbf4" x="266.472755" y="105.490221" style="fill-opacity: 0.3"/>
    </g>
    <g clip-path="url(#pb17161ece9)">
     <use xlink:href="#C4_0_868063dbf4" x="265.635411" y="142.429736" style="fill-opacity: 0.3"/>
    </g>
    <g clip-path="url(#pb17161ece9)">
     <use xlink:href="#C4_0_868063dbf4" x="263.051497" y="130.370243" style="fill-opacity: 0.3"/>
    </g>
    <g clip-path="url(#pb17161ece9)">
     <use xlink:href="#C4_0_868063dbf4" x="266.324693" y="99.343392" style="fill-opacity: 0.3"/>
    </g>
    <g clip-path="url(#pb17161ece9)">
     <use xlink:href="#C4_0_868063dbf4" x="260.207082" y="115.266606" style="fill-opacity: 0.3"/>
    </g>
    <g clip-path="url(#pb17161ece9)">
     <use xlink:href="#C4_0_868063dbf4" x="263.144223" y="136.282907" style="fill-opacity: 0.3"/>
    </g>
    <g clip-path="url(#pb17161ece9)">
     <use xlink:href="#C4_0_868063dbf4" x="265.746888" y="117.257008" style="fill-opacity: 0.3"/>
    </g>
    <g clip-path="url(#pb17161ece9)">
     <use xlink:href="#C4_0_868063dbf4" x="262.175306" y="140.088086" style="fill-opacity: 0.3"/>
    </g>
    <g clip-path="url(#pb17161ece9)">
     <use xlink:href="#C4_0_868063dbf4" x="259.768652" y="124.691744" style="fill-opacity: 0.3"/>
    </g>
   </g>
   <g id="PathCollection_6">
    <defs>
     <path id="C5_0_471ab3656d" d="M 0 2.5 
C 0.663008 2.5 1.29895 2.236584 1.767767 1.767767 
C 2.236584 1.29895 2.5 0.663008 2.5 -0 
C 2.5 -0.663008 2.236584 -1.29895 1.767767 -1.767767 
C 1.29895 -2.236584 0.663008 -2.5 0 -2.5 
C -0.663008 -2.5 -1.29895 -2.236584 -1.767767 -1.767767 
C -2.236584 -1.29895 -2.5 -0.663008 -2.5 0 
C -2.5 0.663008 -2.236584 1.29895 -1.767767 1.767767 
C -1.29895 2.236584 -0.663008 2.5 0 2.5 
z
"/>
    </defs>
    <g clip-path="url(#pb17161ece9)">
     <use xlink:href="#C5_0_471ab3656d" x="300.130318" y="114.329946" style="fill: #ff0000; fill-opacity: 0.3"/>
    </g>
    <g clip-path="url(#pb17161ece9)">
     <use xlink:href="#C5_0_471ab3656d" x="299.108193" y="157.065042" style="fill: #ff0000; fill-opacity: 0.3"/>
    </g>
    <g clip-path="url(#pb17161ece9)">
     <use xlink:href="#C5_0_471ab3656d" x="296.284328" y="116.90576" style="fill: #ff0000; fill-opacity: 0.3"/>
    </g>
    <g clip-path="url(#pb17161ece9)">
     <use xlink:href="#C5_0_471ab3656d" x="293.871946" y="116.027642" style="fill: #ff0000; fill-opacity: 0.3"/>
    </g>
    <g clip-path="url(#pb17161ece9)">
     <use xlink:href="#C5_0_471ab3656d" x="293.89789" y="118.369291" style="fill: #ff0000; fill-opacity: 0.3"/>
    </g>
    <g clip-path="url(#pb17161ece9)">
     <use xlink:href="#C5_0_471ab3656d" x="301.085871" y="122.584259" style="fill: #ff0000; fill-opacity: 0.3"/>
    </g>
    <g clip-path="url(#pb17161ece9)">
     <use xlink:href="#C5_0_471ab3656d" x="297.851509" y="112.339544" style="fill: #ff0000; fill-opacity: 0.3"/>
    </g>
    <g clip-path="url(#pb17161ece9)">
     <use xlink:href="#C5_0_471ab3656d" x="300.589921" y="132.594809" style="fill: #ff0000; fill-opacity: 0.3"/>
    </g>
    <g clip-path="url(#pb17161ece9)">
     <use xlink:href="#C5_0_471ab3656d" x="299.518489" y="131.892315" style="fill: #ff0000; fill-opacity: 0.3"/>
    </g>
    <g clip-path="url(#pb17161ece9)">
     <use xlink:href="#C5_0_471ab3656d" x="296.978647" y="112.924957" style="fill: #ff0000; fill-opacity: 0.3"/>
    </g>
    <g clip-path="url(#pb17161ece9)">
     <use xlink:href="#C5_0_471ab3656d" x="295.593181" y="101.6265" style="fill: #ff0000; fill-opacity: 0.3"/>
    </g>
    <g clip-path="url(#pb17161ece9)">
     <use xlink:href="#C5_0_471ab3656d" x="297.790822" y="111.461426" style="fill: #ff0000; fill-opacity: 0.3"/>
    </g>
    <g clip-path="url(#pb17161ece9)">
     <use xlink:href="#C5_0_471ab3656d" x="296.661968" y="141.083287" style="fill: #ff0000; fill-opacity: 0.3"/>
    </g>
    <g clip-path="url(#pb17161ece9)">
     <use xlink:href="#C5_0_471ab3656d" x="299.394213" y="110.466225" style="fill: #ff0000; fill-opacity: 0.3"/>
    </g>
    <g clip-path="url(#pb17161ece9)">
     <use xlink:href="#C5_0_471ab3656d" x="297.933931" y="110.817473" style="fill: #ff0000; fill-opacity: 0.3"/>
    </g>
    <g clip-path="url(#pb17161ece9)">
     <use xlink:href="#C5_0_471ab3656d" x="294.738174" y="148.166776" style="fill: #ff0000; fill-opacity: 0.3"/>
    </g>
   </g>
   <g id="PathCollection_7">
    <defs>
     <path id="C6_0_1e27077fe4" d="M 0 2.5 
C 0.663008 2.5 1.29895 2.236584 1.767767 1.767767 
C 2.236584 1.29895 2.5 0.663008 2.5 -0 
C 2.5 -0.663008 2.236584 -1.29895 1.767767 -1.767767 
C 1.29895 -2.236584 0.663008 -2.5 0 -2.5 
C -0.663008 -2.5 -1.29895 -2.236584 -1.767767 -1.767767 
C -2.236584 -1.29895 -2.5 -0.663008 -2.5 0 
C -2.5 0.663008 -2.236584 1.29895 -1.767767 1.767767 
C -1.29895 2.236584 -0.663008 2.5 0 2.5 
z
"/>
    </defs>
    <g clip-path="url(#pb17161ece9)">
     <use xlink:href="#C6_0_1e27077fe4" x="343.315919" y="108.040273" style="fill-opacity: 0.3"/>
    </g>
    <g clip-path="url(#pb17161ece9)">
     <use xlink:href="#C6_0_1e27077fe4" x="350.14299" y="129.647317" style="fill-opacity: 0.3"/>
    </g>
    <g clip-path="url(#pb17161ece9)">
     <use xlink:href="#C6_0_1e27077fe4" x="350.227024" y="140.559235" style="fill-opacity: 0.3"/>
    </g>
    <g clip-path="url(#pb17161ece9)">
     <use xlink:href="#C6_0_1e27077fe4" x="346.645971" y="151.471154" style="fill-opacity: 0.3"/>
    </g>
    <g clip-path="url(#pb17161ece9)">
     <use xlink:href="#C6_0_1e27077fe4" x="347.376179" y="133.332799" style="fill-opacity: 0.3"/>
    </g>
    <g clip-path="url(#pb17161ece9)">
     <use xlink:href="#C6_0_1e27077fe4" x="349.330088" y="151.832476" style="fill-opacity: 0.3"/>
    </g>
    <g clip-path="url(#pb17161ece9)">
     <use xlink:href="#C6_0_1e27077fe4" x="346.836587" y="147.9302" style="fill-opacity: 0.3"/>
    </g>
    <g clip-path="url(#pb17161ece9)">
     <use xlink:href="#C6_0_1e27077fe4" x="348.736906" y="124.372019" style="fill-opacity: 0.3"/>
    </g>
    <g clip-path="url(#pb17161ece9)">
     <use xlink:href="#C6_0_1e27077fe4" x="347.296479" y="129.141466" style="fill-opacity: 0.3"/>
    </g>
    <g clip-path="url(#pb17161ece9)">
     <use xlink:href="#C6_0_1e27077fe4" x="349.621272" y="72.630736" style="fill-opacity: 0.3"/>
    </g>
    <g clip-path="url(#pb17161ece9)">
     <use xlink:href="#C6_0_1e27077fe4" x="350.612109" y="99.946665" style="fill-opacity: 0.3"/>
    </g>
    <g clip-path="url(#pb17161ece9)">
     <use xlink:href="#C6_0_1e27077fe4" x="343.361878" y="141.643201" style="fill-opacity: 0.3"/>
    </g>
   </g>
   <g id="PathCollection_8">
    <defs>
     <path id="C7_0_1fc7b6ceb5" d="M 0 2.5 
C 0.663008 2.5 1.29895 2.236584 1.767767 1.767767 
C 2.236584 1.29895 2.5 0.663008 2.5 -0 
C 2.5 -0.663008 2.236584 -1.29895 1.767767 -1.767767 
C 1.29895 -2.236584 0.663008 -2.5 0 -2.5 
C -0.663008 -2.5 -1.29895 -2.236584 -1.767767 -1.767767 
C -2.236584 -1.29895 -2.5 -0.663008 -2.5 0 
C -2.5 0.663008 -2.236584 1.29895 -1.767767 1.767767 
C -1.29895 2.236584 -0.663008 2.5 0 2.5 
z
"/>
    </defs>
    <g clip-path="url(#pb17161ece9)">
     <use xlink:href="#C7_0_1fc7b6ceb5" x="382.531492" y="114.182744" style="fill: #ff0000; fill-opacity: 0.3"/>
    </g>
    <g clip-path="url(#pb17161ece9)">
     <use xlink:href="#C7_0_1fc7b6ceb5" x="384.011249" y="109.919146" style="fill: #ff0000; fill-opacity: 0.3"/>
    </g>
    <g clip-path="url(#pb17161ece9)">
     <use xlink:href="#C7_0_1fc7b6ceb5" x="378.812674" y="160.287406" style="fill: #ff0000; fill-opacity: 0.3"/>
    </g>
    <g clip-path="url(#pb17161ece9)">
     <use xlink:href="#C7_0_1fc7b6ceb5" x="383.203845" y="129.936374" style="fill: #ff0000; fill-opacity: 0.3"/>
    </g>
    <g clip-path="url(#pb17161ece9)">
     <use xlink:href="#C7_0_1fc7b6ceb5" x="379.740177" y="129.936374" style="fill: #ff0000; fill-opacity: 0.3"/>
    </g>
    <g clip-path="url(#pb17161ece9)">
     <use xlink:href="#C7_0_1fc7b6ceb5" x="382.148204" y="110.64179" style="fill: #ff0000; fill-opacity: 0.3"/>
    </g>
    <g clip-path="url(#pb17161ece9)">
     <use xlink:href="#C7_0_1fc7b6ceb5" x="379.206737" y="177.847646" style="fill: #ff0000; fill-opacity: 0.3"/>
    </g>
    <g clip-path="url(#pb17161ece9)">
     <use xlink:href="#C7_0_1fc7b6ceb5" x="381.86625" y="145.834534" style="fill: #ff0000; fill-opacity: 0.3"/>
    </g>
    <g clip-path="url(#pb17161ece9)">
     <use xlink:href="#C7_0_1fc7b6ceb5" x="381.720214" y="119.024456" style="fill: #ff0000; fill-opacity: 0.3"/>
    </g>
    <g clip-path="url(#pb17161ece9)">
     <use xlink:href="#C7_0_1fc7b6ceb5" x="383.812482" y="151.471154" style="fill: #ff0000; fill-opacity: 0.3"/>
    </g>
    <g clip-path="url(#pb17161ece9)">
     <use xlink:href="#C7_0_1fc7b6ceb5" x="380.357209" y="162.166279" style="fill: #ff0000; fill-opacity: 0.3"/>
    </g>
    <g clip-path="url(#pb17161ece9)">
     <use xlink:href="#C7_0_1fc7b6ceb5" x="382.714267" y="161.082314" style="fill: #ff0000; fill-opacity: 0.3"/>
    </g>
    <g clip-path="url(#pb17161ece9)">
     <use xlink:href="#C7_0_1fc7b6ceb5" x="380.467285" y="184.20691" style="fill: #ff0000; fill-opacity: 0.3"/>
    </g>
    <g clip-path="url(#pb17161ece9)">
     <use xlink:href="#C7_0_1fc7b6ceb5" x="376.925849" y="153.928142" style="fill: #ff0000; fill-opacity: 0.3"/>
    </g>
    <g clip-path="url(#pb17161ece9)">
     <use xlink:href="#C7_0_1fc7b6ceb5" x="379.825618" y="144.967361" style="fill: #ff0000; fill-opacity: 0.3"/>
    </g>
    <g clip-path="url(#pb17161ece9)">
     <use xlink:href="#C7_0_1fc7b6ceb5" x="376.022468" y="162.816659" style="fill: #ff0000; fill-opacity: 0.3"/>
    </g>
    <g clip-path="url(#pb17161ece9)">
     <use xlink:href="#C7_0_1fc7b6ceb5" x="379.547977" y="157.324567" style="fill: #ff0000; fill-opacity: 0.3"/>
    </g>
    <g clip-path="url(#pb17161ece9)">
     <use xlink:href="#C7_0_1fc7b6ceb5" x="383.234981" y="131.092604" style="fill: #ff0000; fill-opacity: 0.3"/>
    </g>
    <g clip-path="url(#pb17161ece9)">
     <use xlink:href="#C7_0_1fc7b6ceb5" x="378.553951" y="168.742336" style="fill: #ff0000; fill-opacity: 0.3"/>
    </g>
   </g>
   <g id="PathCollection_9">
    <defs>
     <path id="C8_0_2334222ced" d="M 0 2.5 
C 0.663008 2.5 1.29895 2.236584 1.767767 1.767767 
C 2.236584 1.29895 2.5 0.663008 2.5 -0 
C 2.5 -0.663008 2.236584 -1.29895 1.767767 -1.767767 
C 1.29895 -2.236584 0.663008 -2.5 0 -2.5 
C -0.663008 -2.5 -1.29895 -2.236584 -1.767767 -1.767767 
C -2.236584 -1.29895 -2.5 -0.663008 -2.5 0 
C -2.5 0.663008 -2.236584 1.29895 -1.767767 1.767767 
C -1.29895 2.236584 -0.663008 2.5 0 2.5 
z
"/>
    </defs>
    <g clip-path="url(#pb17161ece9)">
     <use xlink:href="#C8_0_2334222ced" x="430.932919" y="150.808965" style="fill-opacity: 0.3"/>
    </g>
    <g clip-path="url(#pb17161ece9)">
     <use xlink:href="#C8_0_2334222ced" x="433.660486" y="144.534104" style="fill-opacity: 0.3"/>
    </g>
    <g clip-path="url(#pb17161ece9)">
     <use xlink:href="#C8_0_2334222ced" x="430.828023" y="125.281687" style="fill-opacity: 0.3"/>
    </g>
    <g clip-path="url(#pb17161ece9)">
     <use xlink:href="#C8_0_2334222ced" x="426.454065" y="192.237314" style="fill-opacity: 0.3"/>
    </g>
    <g clip-path="url(#pb17161ece9)">
     <use xlink:href="#C8_0_2334222ced" x="426.199676" y="133.695706" style="fill-opacity: 0.3"/>
    </g>
    <g clip-path="url(#pb17161ece9)">
     <use xlink:href="#C8_0_2334222ced" x="426.10325" y="100.396156" style="fill-opacity: 0.3"/>
    </g>
    <g clip-path="url(#pb17161ece9)">
     <use xlink:href="#C8_0_2334222ced" x="428.668334" y="133.909622" style="fill-opacity: 0.3"/>
    </g>
    <g clip-path="url(#pb17161ece9)">
     <use xlink:href="#C8_0_2334222ced" x="429.887879" y="121.288593" style="fill-opacity: 0.3"/>
    </g>
    <g clip-path="url(#pb17161ece9)">
     <use xlink:href="#C8_0_2334222ced" x="430.054065" y="113.872847" style="fill-opacity: 0.3"/>
    </g>
    <g clip-path="url(#pb17161ece9)">
     <use xlink:href="#C8_0_2334222ced" x="433.263028" y="133.695706" style="fill-opacity: 0.3"/>
    </g>
    <g clip-path="url(#pb17161ece9)">
     <use xlink:href="#C8_0_2334222ced" x="428.819745" y="90.484726" style="fill-opacity: 0.3"/>
    </g>
    <g clip-path="url(#pb17161ece9)">
     <use xlink:href="#C8_0_2334222ced" x="433.927766" y="90.342116" style="fill-opacity: 0.3"/>
    </g>
   </g>
   <g id="PathCollection_10">
    <defs>
     <path id="C9_0_eb25c02e84" d="M 0 2.5 
C 0.663008 2.5 1.29895 2.236584 1.767767 1.767767 
C 2.236584 1.29895 2.5 0.663008 2.5 -0 
C 2.5 -0.663008 2.236584 -1.29895 1.767767 -1.767767 
C 1.29895 -2.236584 0.663008 -2.5 0 -2.5 
C -0.663008 -2.5 -1.29895 -2.236584 -1.767767 -1.767767 
C -2.236584 -1.29895 -2.5 -0.663008 -2.5 0 
C -2.5 0.663008 -2.236584 1.29895 -1.767767 1.767767 
C -1.29895 2.236584 -0.663008 2.5 0 2.5 
z
"/>
    </defs>
    <g clip-path="url(#pb17161ece9)">
     <use xlink:href="#C9_0_eb25c02e84" x="463.455774" y="146.744566" style="fill: #ff0000; fill-opacity: 0.3"/>
    </g>
    <g clip-path="url(#pb17161ece9)">
     <use xlink:href="#C9_0_eb25c02e84" x="464.884156" y="175.979718" style="fill: #ff0000; fill-opacity: 0.3"/>
    </g>
    <g clip-path="url(#pb17161ece9)">
     <use xlink:href="#C9_0_eb25c02e84" x="465.61455" y="164.570878" style="fill: #ff0000; fill-opacity: 0.3"/>
    </g>
    <g clip-path="url(#pb17161ece9)">
     <use xlink:href="#C9_0_eb25c02e84" x="465.174363" y="132.269601" style="fill: #ff0000; fill-opacity: 0.3"/>
    </g>
    <g clip-path="url(#pb17161ece9)">
     <use xlink:href="#C9_0_eb25c02e84" x="460.734334" y="152.591596" style="fill: #ff0000; fill-opacity: 0.3"/>
    </g>
    <g clip-path="url(#pb17161ece9)">
     <use xlink:href="#C9_0_eb25c02e84" x="460.691651" y="200.651333" style="fill: #ff0000; fill-opacity: 0.3"/>
    </g>
    <g clip-path="url(#pb17161ece9)">
     <use xlink:href="#C9_0_eb25c02e84" x="461.30503" y="225.893391" style="fill: #ff0000; fill-opacity: 0.3"/>
    </g>
    <g clip-path="url(#pb17161ece9)">
     <use xlink:href="#C9_0_eb25c02e84" x="467.390365" y="137.902716" style="fill: #ff0000; fill-opacity: 0.3"/>
    </g>
    <g clip-path="url(#pb17161ece9)">
     <use xlink:href="#C9_0_eb25c02e84" x="464.382064" y="223.825538" style="fill: #ff0000; fill-opacity: 0.3"/>
    </g>
    <g clip-path="url(#pb17161ece9)">
     <use xlink:href="#C9_0_eb25c02e84" x="465.120977" y="146.887177" style="fill: #ff0000; fill-opacity: 0.3"/>
    </g>
    <g clip-path="url(#pb17161ece9)">
     <use xlink:href="#C9_0_eb25c02e84" x="465.182171" y="154.659449" style="fill: #ff0000; fill-opacity: 0.3"/>
    </g>
    <g clip-path="url(#pb17161ece9)">
     <use xlink:href="#C9_0_eb25c02e84" x="463.312115" y="154.445533" style="fill: #ff0000; fill-opacity: 0.3"/>
    </g>
   </g>
   <g id="PathCollection_11">
    <defs>
     <path id="Ca_0_5e7a299633" d="M 0 2.5 
C 0.663008 2.5 1.29895 2.236584 1.767767 1.767767 
C 2.236584 1.29895 2.5 0.663008 2.5 -0 
C 2.5 -0.663008 2.236584 -1.29895 1.767767 -1.767767 
C 1.29895 -2.236584 0.663008 -2.5 0 -2.5 
C -0.663008 -2.5 -1.29895 -2.236584 -1.767767 -1.767767 
C -2.236584 -1.29895 -2.5 -0.663008 -2.5 0 
C -2.5 0.663008 -2.236584 1.29895 -1.767767 1.767767 
C -1.29895 2.236584 -0.663008 2.5 0 2.5 
z
"/>
    </defs>
    <g clip-path="url(#pb17161ece9)">
     <use xlink:href="#Ca_0_5e7a299633" x="514.299984" y="125.282891" style="fill-opacity: 0.3"/>
    </g>
    <g clip-path="url(#pb17161ece9)">
     <use xlink:href="#Ca_0_5e7a299633" x="511.695399" y="116.982089" style="fill-opacity: 0.3"/>
    </g>
    <g clip-path="url(#pb17161ece9)">
     <use xlink:href="#Ca_0_5e7a299633" x="514.090069" y="138.133762" style="fill-opacity: 0.3"/>
    </g>
    <g clip-path="url(#pb17161ece9)">
     <use xlink:href="#Ca_0_5e7a299633" x="511.902674" y="144.466967" style="fill-opacity: 0.3"/>
    </g>
    <g clip-path="url(#pb17161ece9)">
     <use xlink:href="#Ca_0_5e7a299633" x="515.290455" y="129.341061" style="fill-opacity: 0.3"/>
    </g>
    <g clip-path="url(#pb17161ece9)">
     <use xlink:href="#Ca_0_5e7a299633" x="511.990899" y="98.474375" style="fill-opacity: 0.3"/>
    </g>
    <g clip-path="url(#pb17161ece9)">
     <use xlink:href="#Ca_0_5e7a299633" x="513.862509" y="132.47692" style="fill-opacity: 0.3"/>
    </g>
    <g clip-path="url(#pb17161ece9)">
     <use xlink:href="#Ca_0_5e7a299633" x="513.911435" y="118.273325" style="fill-opacity: 0.3"/>
    </g>
    <g clip-path="url(#pb17161ece9)">
     <use xlink:href="#Ca_0_5e7a299633" x="513.43829" y="114.522592" style="fill-opacity: 0.3"/>
    </g>
    <g clip-path="url(#pb17161ece9)">
     <use xlink:href="#Ca_0_5e7a299633" x="514.006748" y="157.5023" style="fill-opacity: 0.3"/>
    </g>
   </g>
   <g id="PathCollection_12">
    <defs>
     <path id="Cb_0_0236ff9963" d="M 0 2.5 
C 0.663008 2.5 1.29895 2.236584 1.767767 1.767767 
C 2.236584 1.29895 2.5 0.663008 2.5 -0 
C 2.5 -0.663008 2.236584 -1.29895 1.767767 -1.767767 
C 1.29895 -2.236584 0.663008 -2.5 0 -2.5 
C -0.663008 -2.5 -1.29895 -2.236584 -1.767767 -1.767767 
C -2.236584 -1.29895 -2.5 -0.663008 -2.5 0 
C -2.5 0.663008 -2.236584 1.29895 -1.767767 1.767767 
C -1.29895 2.236584 -0.663008 2.5 0 2.5 
z
"/>
    </defs>
    <g clip-path="url(#pb17161ece9)">
     <use xlink:href="#Cb_0_0236ff9963" x="544.901191" y="136.965501" style="fill: #ff0000; fill-opacity: 0.3"/>
    </g>
    <g clip-path="url(#pb17161ece9)">
     <use xlink:href="#Cb_0_0236ff9963" x="545.113001" y="198.637385" style="fill: #ff0000; fill-opacity: 0.3"/>
    </g>
    <g clip-path="url(#pb17161ece9)">
     <use xlink:href="#Cb_0_0236ff9963" x="547.414417" y="167.340288" style="fill: #ff0000; fill-opacity: 0.3"/>
    </g>
    <g clip-path="url(#pb17161ece9)">
     <use xlink:href="#Cb_0_0236ff9963" x="545.589391" y="164.696329" style="fill: #ff0000; fill-opacity: 0.3"/>
    </g>
    <g clip-path="url(#pb17161ece9)">
     <use xlink:href="#Cb_0_0236ff9963" x="547.441308" y="165.741615" style="fill: #ff0000; fill-opacity: 0.3"/>
    </g>
    <g clip-path="url(#pb17161ece9)">
     <use xlink:href="#Cb_0_0236ff9963" x="547.174362" y="137.518888" style="fill: #ff0000; fill-opacity: 0.3"/>
    </g>
    <g clip-path="url(#pb17161ece9)">
     <use xlink:href="#Cb_0_0236ff9963" x="544.217395" y="180.375621" style="fill: #ff0000; fill-opacity: 0.3"/>
    </g>
    <g clip-path="url(#pb17161ece9)">
     <use xlink:href="#Cb_0_0236ff9963" x="545.286676" y="157.317838" style="fill: #ff0000; fill-opacity: 0.3"/>
    </g>
    <g clip-path="url(#pb17161ece9)">
     <use xlink:href="#Cb_0_0236ff9963" x="544.113061" y="186.401388" style="fill: #ff0000; fill-opacity: 0.3"/>
    </g>
    <g clip-path="url(#pb17161ece9)">
     <use xlink:href="#Cb_0_0236ff9963" x="548.917288" y="203.06448" style="fill: #ff0000; fill-opacity: 0.3"/>
    </g>
   </g>
   <g id="PathCollection_13">
    <defs>
     <path id="Cc_0_16117cc580" d="M 0 2.5 
C 0.663008 2.5 1.29895 2.236584 1.767767 1.767767 
C 2.236584 1.29895 2.5 0.663008 2.5 -0 
C 2.5 -0.663008 2.236584 -1.29895 1.767767 -1.767767 
C 1.29895 -2.236584 0.663008 -2.5 0 -2.5 
C -0.663008 -2.5 -1.29895 -2.236584 -1.767767 -1.767767 
C -2.236584 -1.29895 -2.5 -0.663008 -2.5 0 
C -2.5 0.663008 -2.236584 1.29895 -1.767767 1.767767 
C -1.29895 2.236584 -0.663008 2.5 0 2.5 
z
"/>
    </defs>
    <g clip-path="url(#pb17161ece9)">
     <use xlink:href="#Cc_0_16117cc580" x="596.054296" y="172.911198" style="fill-opacity: 0.3"/>
    </g>
    <g clip-path="url(#pb17161ece9)">
     <use xlink:href="#Cc_0_16117cc580" x="597.778352" y="141.141768" style="fill-opacity: 0.3"/>
    </g>
    <g clip-path="url(#pb17161ece9)">
     <use xlink:href="#Cc_0_16117cc580" x="596.766707" y="226.272074" style="fill-opacity: 0.3"/>
    </g>
    <g clip-path="url(#pb17161ece9)">
     <use xlink:href="#Cc_0_16117cc580" x="592.501279" y="141.96542" style="fill-opacity: 0.3"/>
    </g>
    <g clip-path="url(#pb17161ece9)">
     <use xlink:href="#Cc_0_16117cc580" x="595.262985" y="132.434591" style="fill-opacity: 0.3"/>
    </g>
    <g clip-path="url(#pb17161ece9)">
     <use xlink:href="#Cc_0_16117cc580" x="594.852216" y="113.431765" style="fill-opacity: 0.3"/>
    </g>
    <g clip-path="url(#pb17161ece9)">
     <use xlink:href="#Cc_0_16117cc580" x="598.936628" y="90.193015" style="fill-opacity: 0.3"/>
    </g>
    <g clip-path="url(#pb17161ece9)">
     <use xlink:href="#Cc_0_16117cc580" x="598.729396" y="99.900341" style="fill-opacity: 0.3"/>
    </g>
    <g clip-path="url(#pb17161ece9)">
     <use xlink:href="#Cc_0_16117cc580" x="598.015016" y="84.015626" style="fill-opacity: 0.3"/>
    </g>
    <g clip-path="url(#pb17161ece9)">
     <use xlink:href="#Cc_0_16117cc580" x="593.86875" y="73.190487" style="fill-opacity: 0.3"/>
    </g>
   </g>
   <g id="PathCollection_14">
    <defs>
     <path id="Cd_0_3dad7b72d5" d="M 0 2.5 
C 0.663008 2.5 1.29895 2.236584 1.767767 1.767767 
C 2.236584 1.29895 2.5 0.663008 2.5 -0 
C 2.5 -0.663008 2.236584 -1.29895 1.767767 -1.767767 
C 1.29895 -2.236584 0.663008 -2.5 0 -2.5 
C -0.663008 -2.5 -1.29895 -2.236584 -1.767767 -1.767767 
C -2.236584 -1.29895 -2.5 -0.663008 -2.5 0 
C -2.5 0.663008 -2.236584 1.29895 -1.767767 1.767767 
C -1.29895 2.236584 -0.663008 2.5 0 2.5 
z
"/>
    </defs>
    <g clip-path="url(#pb17161ece9)">
     <use xlink:href="#Cd_0_3dad7b72d5" x="631.139211" y="76.955752" style="fill: #ff0000; fill-opacity: 0.3"/>
    </g>
    <g clip-path="url(#pb17161ece9)">
     <use xlink:href="#Cd_0_3dad7b72d5" x="627.167967" y="83.897961" style="fill: #ff0000; fill-opacity: 0.3"/>
    </g>
    <g clip-path="url(#pb17161ece9)">
     <use xlink:href="#Cd_0_3dad7b72d5" x="626.876569" y="92.075648" style="fill: #ff0000; fill-opacity: 0.3"/>
    </g>
    <g clip-path="url(#pb17161ece9)">
     <use xlink:href="#Cd_0_3dad7b72d5" x="628.256169" y="71.366686" style="fill: #ff0000; fill-opacity: 0.3"/>
    </g>
    <g clip-path="url(#pb17161ece9)">
     <use xlink:href="#Cd_0_3dad7b72d5" x="625.748722" y="71.425518" style="fill: #ff0000; fill-opacity: 0.3"/>
    </g>
    <g clip-path="url(#pb17161ece9)">
     <use xlink:href="#Cd_0_3dad7b72d5" x="631.696122" y="107.960363" style="fill: #ff0000; fill-opacity: 0.3"/>
    </g>
    <g clip-path="url(#pb17161ece9)">
     <use xlink:href="#Cd_0_3dad7b72d5" x="628.821664" y="79.367876" style="fill: #ff0000; fill-opacity: 0.3"/>
    </g>
    <g clip-path="url(#pb17161ece9)">
     <use xlink:href="#Cd_0_3dad7b72d5" x="629.168351" y="93.840616" style="fill: #ff0000; fill-opacity: 0.3"/>
    </g>
    <g clip-path="url(#pb17161ece9)">
     <use xlink:href="#Cd_0_3dad7b72d5" x="633.568013" y="72.602164" style="fill: #ff0000; fill-opacity: 0.3"/>
    </g>
   </g>
   <g id="PathCollection_15">
    <defs>
     <path id="Ce_0_b342ba9634" d="M 0 2.5 
C 0.663008 2.5 1.29895 2.236584 1.767767 1.767767 
C 2.236584 1.29895 2.5 0.663008 2.5 -0 
C 2.5 -0.663008 2.236584 -1.29895 1.767767 -1.767767 
C 1.29895 -2.236584 0.663008 -2.5 0 -2.5 
C -0.663008 -2.5 -1.29895 -2.236584 -1.767767 -1.767767 
C -2.236584 -1.29895 -2.5 -0.663008 -2.5 0 
C -2.5 0.663008 -2.236584 1.29895 -1.767767 1.767767 
C -1.29895 2.236584 -0.663008 2.5 0 2.5 
z
"/>
    </defs>
    <g clip-path="url(#pb17161ece9)">
     <use xlink:href="#Ce_0_b342ba9634" x="682.473707" y="153.538705" style="fill-opacity: 0.3"/>
    </g>
    <g clip-path="url(#pb17161ece9)">
     <use xlink:href="#Ce_0_b342ba9634" x="676.096404" y="170.857974" style="fill-opacity: 0.3"/>
    </g>
    <g clip-path="url(#pb17161ece9)">
     <use xlink:href="#Ce_0_b342ba9634" x="677.256276" y="161.171817" style="fill-opacity: 0.3"/>
    </g>
    <g clip-path="url(#pb17161ece9)">
     <use xlink:href="#Ce_0_b342ba9634" x="682.937698" y="159.066131" style="fill-opacity: 0.3"/>
    </g>
    <g clip-path="url(#pb17161ece9)">
     <use xlink:href="#Ce_0_b342ba9634" x="679.490165" y="121.795485" style="fill-opacity: 0.3"/>
    </g>
    <g clip-path="url(#pb17161ece9)">
     <use xlink:href="#Ce_0_b342ba9634" x="682.216087" y="115.688995" style="fill-opacity: 0.3"/>
    </g>
    <g clip-path="url(#pb17161ece9)">
     <use xlink:href="#Ce_0_b342ba9634" x="682.588986" y="118.74224" style="fill-opacity: 0.3"/>
    </g>
    <g clip-path="url(#pb17161ece9)">
     <use xlink:href="#Ce_0_b342ba9634" x="681.289919" y="125.32251" style="fill-opacity: 0.3"/>
    </g>
    <g clip-path="url(#pb17161ece9)">
     <use xlink:href="#Ce_0_b342ba9634" x="679.600477" y="115.109932" style="fill-opacity: 0.3"/>
    </g>
    <g clip-path="url(#pb17161ece9)">
     <use xlink:href="#Ce_0_b342ba9634" x="683.458725" y="117.26826" style="fill-opacity: 0.3"/>
    </g>
    <g clip-path="url(#pb17161ece9)">
     <use xlink:href="#Ce_0_b342ba9634" x="679.406319" y="96.369324" style="fill-opacity: 0.3"/>
    </g>
    <g clip-path="url(#pb17161ece9)">
     <use xlink:href="#Ce_0_b342ba9634" x="675.829841" y="96.211398" style="fill-opacity: 0.3"/>
    </g>
    <g clip-path="url(#pb17161ece9)">
     <use xlink:href="#Ce_0_b342ba9634" x="683.222162" y="106.950398" style="fill-opacity: 0.3"/>
    </g>
   </g>
   <g id="PathCollection_16">
    <defs>
     <path id="Cf_0_fd4d419691" d="M 0 2.5 
C 0.663008 2.5 1.29895 2.236584 1.767767 1.767767 
C 2.236584 1.29895 2.5 0.663008 2.5 -0 
C 2.5 -0.663008 2.236584 -1.29895 1.767767 -1.767767 
C 1.29895 -2.236584 0.663008 -2.5 0 -2.5 
C -0.663008 -2.5 -1.29895 -2.236584 -1.767767 -1.767767 
C -2.236584 -1.29895 -2.5 -0.663008 -2.5 0 
C -2.5 0.663008 -2.236584 1.29895 -1.767767 1.767767 
C -1.29895 2.236584 -0.663008 2.5 0 2.5 
z
"/>
    </defs>
    <g clip-path="url(#pb17161ece9)">
     <use xlink:href="#Cf_0_fd4d419691" x="715.484781" y="173.121586" style="fill: #ff0000; fill-opacity: 0.3"/>
    </g>
    <g clip-path="url(#pb17161ece9)">
     <use xlink:href="#Cf_0_fd4d419691" x="713.943192" y="170.700047" style="fill: #ff0000; fill-opacity: 0.3"/>
    </g>
    <g clip-path="url(#pb17161ece9)">
     <use xlink:href="#Cf_0_fd4d419691" x="716.026897" y="174.227072" style="fill: #ff0000; fill-opacity: 0.3"/>
    </g>
    <g clip-path="url(#pb17161ece9)">
     <use xlink:href="#Cf_0_fd4d419691" x="713.027904" y="154.117768" style="fill: #ff0000; fill-opacity: 0.3"/>
    </g>
    <g clip-path="url(#pb17161ece9)">
     <use xlink:href="#Cf_0_fd4d419691" x="710.32189" y="185.597777" style="fill: #ff0000; fill-opacity: 0.3"/>
    </g>
    <g clip-path="url(#pb17161ece9)">
     <use xlink:href="#Cf_0_fd4d419691" x="714.929334" y="162.856366" style="fill: #ff0000; fill-opacity: 0.3"/>
    </g>
    <g clip-path="url(#pb17161ece9)">
     <use xlink:href="#Cf_0_fd4d419691" x="712.410851" y="145.958234" style="fill: #ff0000; fill-opacity: 0.3"/>
    </g>
    <g clip-path="url(#pb17161ece9)">
     <use xlink:href="#Cf_0_fd4d419691" x="716.707746" y="165.962253" style="fill: #ff0000; fill-opacity: 0.3"/>
    </g>
    <g clip-path="url(#pb17161ece9)">
     <use xlink:href="#Cf_0_fd4d419691" x="713.476905" y="191.072561" style="fill: #ff0000; fill-opacity: 0.3"/>
    </g>
    <g clip-path="url(#pb17161ece9)">
     <use xlink:href="#Cf_0_fd4d419691" x="715.45308" y="156.802518" style="fill: #ff0000; fill-opacity: 0.3"/>
    </g>
    <g clip-path="url(#pb17161ece9)">
     <use xlink:href="#Cf_0_fd4d419691" x="709.077252" y="133.113549" style="fill: #ff0000; fill-opacity: 0.3"/>
    </g>
    <g clip-path="url(#pb17161ece9)">
     <use xlink:href="#Cf_0_fd4d419691" x="716.233021" y="159.224057" style="fill: #ff0000; fill-opacity: 0.3"/>
    </g>
    <g clip-path="url(#pb17161ece9)">
     <use xlink:href="#Cf_0_fd4d419691" x="715.562335" y="122.058696" style="fill: #ff0000; fill-opacity: 0.3"/>
    </g>
    <g clip-path="url(#pb17161ece9)">
     <use xlink:href="#Cf_0_fd4d419691" x="711.39027" y="109.582505" style="fill: #ff0000; fill-opacity: 0.3"/>
    </g>
    <g clip-path="url(#pb17161ece9)">
     <use xlink:href="#Cf_0_fd4d419691" x="709.268511" y="132.271274" style="fill: #ff0000; fill-opacity: 0.3"/>
    </g>
    <g clip-path="url(#pb17161ece9)">
     <use xlink:href="#Cf_0_fd4d419691" x="713.203476" y="126.954417" style="fill: #ff0000; fill-opacity: 0.3"/>
    </g>
   </g>
   <g id="PathCollection_17">
    <defs>
     <path id="C10_0_abb1cbe7bf" d="M 0 2.5 
C 0.663008 2.5 1.29895 2.236584 1.767767 1.767767 
C 2.236584 1.29895 2.5 0.663008 2.5 -0 
C 2.5 -0.663008 2.236584 -1.29895 1.767767 -1.767767 
C 1.29895 -2.236584 0.663008 -2.5 0 -2.5 
C -0.663008 -2.5 -1.29895 -2.236584 -1.767767 -1.767767 
C -2.236584 -1.29895 -2.5 -0.663008 -2.5 0 
C -2.5 0.663008 -2.236584 1.29895 -1.767767 1.767767 
C -1.29895 2.236584 -0.663008 2.5 0 2.5 
z
"/>
    </defs>
    <g clip-path="url(#pb17161ece9)">
     <use xlink:href="#C10_0_abb1cbe7bf" x="760.126344" y="153.538705" style="fill-opacity: 0.3"/>
    </g>
    <g clip-path="url(#pb17161ece9)">
     <use xlink:href="#C10_0_abb1cbe7bf" x="764.536094" y="170.857974" style="fill-opacity: 0.3"/>
    </g>
    <g clip-path="url(#pb17161ece9)">
     <use xlink:href="#C10_0_abb1cbe7bf" x="758.7501" y="161.171817" style="fill-opacity: 0.3"/>
    </g>
    <g clip-path="url(#pb17161ece9)">
     <use xlink:href="#C10_0_abb1cbe7bf" x="765.695621" y="159.066131" style="fill-opacity: 0.3"/>
    </g>
    <g clip-path="url(#pb17161ece9)">
     <use xlink:href="#C10_0_abb1cbe7bf" x="764.320054" y="121.795485" style="fill-opacity: 0.3"/>
    </g>
    <g clip-path="url(#pb17161ece9)">
     <use xlink:href="#C10_0_abb1cbe7bf" x="764.645429" y="115.688995" style="fill-opacity: 0.3"/>
    </g>
    <g clip-path="url(#pb17161ece9)">
     <use xlink:href="#C10_0_abb1cbe7bf" x="760.489382" y="118.74224" style="fill-opacity: 0.3"/>
    </g>
    <g clip-path="url(#pb17161ece9)">
     <use xlink:href="#C10_0_abb1cbe7bf" x="760.299177" y="125.32251" style="fill-opacity: 0.3"/>
    </g>
    <g clip-path="url(#pb17161ece9)">
     <use xlink:href="#C10_0_abb1cbe7bf" x="763.974863" y="115.109932" style="fill-opacity: 0.3"/>
    </g>
    <g clip-path="url(#pb17161ece9)">
     <use xlink:href="#C10_0_abb1cbe7bf" x="764.405042" y="117.26826" style="fill-opacity: 0.3"/>
    </g>
    <g clip-path="url(#pb17161ece9)">
     <use xlink:href="#C10_0_abb1cbe7bf" x="760.768614" y="96.369324" style="fill-opacity: 0.3"/>
    </g>
    <g clip-path="url(#pb17161ece9)">
     <use xlink:href="#C10_0_abb1cbe7bf" x="765.303796" y="96.211398" style="fill-opacity: 0.3"/>
    </g>
    <g clip-path="url(#pb17161ece9)">
     <use xlink:href="#C10_0_abb1cbe7bf" x="762.883435" y="106.950398" style="fill-opacity: 0.3"/>
    </g>
   </g>
   <g id="PathCollection_18">
    <defs>
     <path id="C11_0_4b11093860" d="M 0 2.5 
C 0.663008 2.5 1.29895 2.236584 1.767767 1.767767 
C 2.236584 1.29895 2.5 0.663008 2.5 -0 
C 2.5 -0.663008 2.236584 -1.29895 1.767767 -1.767767 
C 1.29895 -2.236584 0.663008 -2.5 0 -2.5 
C -0.663008 -2.5 -1.29895 -2.236584 -1.767767 -1.767767 
C -2.236584 -1.29895 -2.5 -0.663008 -2.5 0 
C -2.5 0.663008 -2.236584 1.29895 -1.767767 1.767767 
C -1.29895 2.236584 -0.663008 2.5 0 2.5 
z
"/>
    </defs>
    <g clip-path="url(#pb17161ece9)">
     <use xlink:href="#C11_0_4b11093860" x="795.178378" y="173.121586" style="fill: #ff0000; fill-opacity: 0.3"/>
    </g>
    <g clip-path="url(#pb17161ece9)">
     <use xlink:href="#C11_0_4b11093860" x="798.798771" y="170.700047" style="fill: #ff0000; fill-opacity: 0.3"/>
    </g>
    <g clip-path="url(#pb17161ece9)">
     <use xlink:href="#C11_0_4b11093860" x="794.009724" y="174.227072" style="fill: #ff0000; fill-opacity: 0.3"/>
    </g>
    <g clip-path="url(#pb17161ece9)">
     <use xlink:href="#C11_0_4b11093860" x="793.848886" y="154.117768" style="fill: #ff0000; fill-opacity: 0.3"/>
    </g>
    <g clip-path="url(#pb17161ece9)">
     <use xlink:href="#C11_0_4b11093860" x="793.126277" y="185.597777" style="fill: #ff0000; fill-opacity: 0.3"/>
    </g>
    <g clip-path="url(#pb17161ece9)">
     <use xlink:href="#C11_0_4b11093860" x="793.913435" y="162.856366" style="fill: #ff0000; fill-opacity: 0.3"/>
    </g>
    <g clip-path="url(#pb17161ece9)">
     <use xlink:href="#C11_0_4b11093860" x="799.621434" y="145.958234" style="fill: #ff0000; fill-opacity: 0.3"/>
    </g>
    <g clip-path="url(#pb17161ece9)">
     <use xlink:href="#C11_0_4b11093860" x="795.257625" y="165.962253" style="fill: #ff0000; fill-opacity: 0.3"/>
    </g>
    <g clip-path="url(#pb17161ece9)">
     <use xlink:href="#C11_0_4b11093860" x="795.583949" y="191.072561" style="fill: #ff0000; fill-opacity: 0.3"/>
    </g>
    <g clip-path="url(#pb17161ece9)">
     <use xlink:href="#C11_0_4b11093860" x="800.176773" y="156.802518" style="fill: #ff0000; fill-opacity: 0.3"/>
    </g>
    <g clip-path="url(#pb17161ece9)">
     <use xlink:href="#C11_0_4b11093860" x="795.597554" y="133.113549" style="fill: #ff0000; fill-opacity: 0.3"/>
    </g>
    <g clip-path="url(#pb17161ece9)">
     <use xlink:href="#C11_0_4b11093860" x="798.52214" y="159.224057" style="fill: #ff0000; fill-opacity: 0.3"/>
    </g>
    <g clip-path="url(#pb17161ece9)">
     <use xlink:href="#C11_0_4b11093860" x="792.969004" y="122.058696" style="fill: #ff0000; fill-opacity: 0.3"/>
    </g>
    <g clip-path="url(#pb17161ece9)">
     <use xlink:href="#C11_0_4b11093860" x="793.763612" y="109.582505" style="fill: #ff0000; fill-opacity: 0.3"/>
    </g>
    <g clip-path="url(#pb17161ece9)">
     <use xlink:href="#C11_0_4b11093860" x="797.510843" y="132.271274" style="fill: #ff0000; fill-opacity: 0.3"/>
    </g>
    <g clip-path="url(#pb17161ece9)">
     <use xlink:href="#C11_0_4b11093860" x="792.922398" y="126.954417" style="fill: #ff0000; fill-opacity: 0.3"/>
    </g>
   </g>
   <g id="text_19">
    <!-- 0.253 -->
    <g transform="translate(93.900116 17.837812) scale(0.14 -0.14)">
     <use xlink:href="#DejaVuSans-30"/>
     <use xlink:href="#DejaVuSans-2e" transform="translate(63.623047 0)"/>
     <use xlink:href="#DejaVuSans-32" transform="translate(95.410156 0)"/>
     <use xlink:href="#DejaVuSans-35" transform="translate(159.033203 0)"/>
     <use xlink:href="#DejaVuSans-33" transform="translate(222.65625 0)"/>
    </g>
    <!-- ns -->
    <g transform="translate(105.856991 33.51475) scale(0.14 -0.14)">
     <defs>
      <path id="DejaVuSans-73" d="M 2834 3397 
L 2834 2853 
Q 2591 2978 2328 3040 
Q 2066 3103 1784 3103 
Q 1356 3103 1142 2972 
Q 928 2841 928 2578 
Q 928 2378 1081 2264 
Q 1234 2150 1697 2047 
L 1894 2003 
Q 2506 1872 2764 1633 
Q 3022 1394 3022 966 
Q 3022 478 2636 193 
Q 2250 -91 1575 -91 
Q 1294 -91 989 -36 
Q 684 19 347 128 
L 347 722 
Q 666 556 975 473 
Q 1284 391 1588 391 
Q 1994 391 2212 530 
Q 2431 669 2431 922 
Q 2431 1156 2273 1281 
Q 2116 1406 1581 1522 
L 1381 1569 
Q 847 1681 609 1914 
Q 372 2147 372 2553 
Q 372 3047 722 3315 
Q 1072 3584 1716 3584 
Q 2034 3584 2315 3537 
Q 2597 3491 2834 3397 
z
" transform="scale(0.015625)"/>
     </defs>
     <use xlink:href="#DejaVuSans-6e"/>
     <use xlink:href="#DejaVuSans-73" transform="translate(63.378906 0)"/>
    </g>
   </g>
   <g id="text_20">
    <!-- 0.241 -->
    <g transform="translate(177.091103 17.837812) scale(0.14 -0.14)">
     <use xlink:href="#DejaVuSans-30"/>
     <use xlink:href="#DejaVuSans-2e" transform="translate(63.623047 0)"/>
     <use xlink:href="#DejaVuSans-32" transform="translate(95.410156 0)"/>
     <use xlink:href="#DejaVuSans-34" transform="translate(159.033203 0)"/>
     <use xlink:href="#DejaVuSans-31" transform="translate(222.65625 0)"/>
    </g>
    <!-- ns -->
    <g transform="translate(189.047978 33.51475) scale(0.14 -0.14)">
     <use xlink:href="#DejaVuSans-6e"/>
     <use xlink:href="#DejaVuSans-73" transform="translate(63.378906 0)"/>
    </g>
   </g>
   <g id="text_21">
    <!-- 0.509 -->
    <g transform="translate(260.282089 17.837812) scale(0.14 -0.14)">
     <use xlink:href="#DejaVuSans-30"/>
     <use xlink:href="#DejaVuSans-2e" transform="translate(63.623047 0)"/>
     <use xlink:href="#DejaVuSans-35" transform="translate(95.410156 0)"/>
     <use xlink:href="#DejaVuSans-30" transform="translate(159.033203 0)"/>
     <use xlink:href="#DejaVuSans-39" transform="translate(222.65625 0)"/>
    </g>
    <!-- ns -->
    <g transform="translate(272.238964 33.51475) scale(0.14 -0.14)">
     <use xlink:href="#DejaVuSans-6e"/>
     <use xlink:href="#DejaVuSans-73" transform="translate(63.378906 0)"/>
    </g>
   </g>
   <g id="text_22">
    <!-- 0.034 -->
    <g transform="translate(343.473076 17.837812) scale(0.14 -0.14)">
     <use xlink:href="#DejaVuSans-30"/>
     <use xlink:href="#DejaVuSans-2e" transform="translate(63.623047 0)"/>
     <use xlink:href="#DejaVuSans-30" transform="translate(95.410156 0)"/>
     <use xlink:href="#DejaVuSans-33" transform="translate(159.033203 0)"/>
     <use xlink:href="#DejaVuSans-34" transform="translate(222.65625 0)"/>
    </g>
    <!-- * -->
    <g transform="translate(360.012763 33.51475) scale(0.14 -0.14)">
     <defs>
      <path id="DejaVuSans-2a" d="M 3009 3897 
L 1888 3291 
L 3009 2681 
L 2828 2375 
L 1778 3009 
L 1778 1831 
L 1422 1831 
L 1422 3009 
L 372 2375 
L 191 2681 
L 1313 3291 
L 191 3897 
L 372 4206 
L 1422 3572 
L 1422 4750 
L 1778 4750 
L 1778 3572 
L 2828 4206 
L 3009 3897 
z
" transform="scale(0.015625)"/>
     </defs>
     <use xlink:href="#DejaVuSans-2a"/>
    </g>
   </g>
   <g id="text_23">
    <!-- 0.002 -->
    <g transform="translate(426.664063 17.837812) scale(0.14 -0.14)">
     <use xlink:href="#DejaVuSans-30"/>
     <use xlink:href="#DejaVuSans-2e" transform="translate(63.623047 0)"/>
     <use xlink:href="#DejaVuSans-30" transform="translate(95.410156 0)"/>
     <use xlink:href="#DejaVuSans-30" transform="translate(159.033203 0)"/>
     <use xlink:href="#DejaVuSans-32" transform="translate(222.65625 0)"/>
    </g>
    <!-- ** -->
    <g transform="translate(439.70375 33.51475) scale(0.14 -0.14)">
     <use xlink:href="#DejaVuSans-2a"/>
     <use xlink:href="#DejaVuSans-2a" transform="translate(50 0)"/>
    </g>
   </g>
   <g id="text_24">
    <!-- 0.001 -->
    <g transform="translate(509.855049 17.837812) scale(0.14 -0.14)">
     <use xlink:href="#DejaVuSans-30"/>
     <use xlink:href="#DejaVuSans-2e" transform="translate(63.623047 0)"/>
     <use xlink:href="#DejaVuSans-30" transform="translate(95.410156 0)"/>
     <use xlink:href="#DejaVuSans-30" transform="translate(159.033203 0)"/>
     <use xlink:href="#DejaVuSans-31" transform="translate(222.65625 0)"/>
    </g>
    <!-- ** -->
    <g transform="translate(522.894737 33.51475) scale(0.14 -0.14)">
     <use xlink:href="#DejaVuSans-2a"/>
     <use xlink:href="#DejaVuSans-2a" transform="translate(50 0)"/>
    </g>
   </g>
   <g id="text_25">
    <!-- 0.010 -->
    <g transform="translate(593.046036 17.837812) scale(0.14 -0.14)">
     <use xlink:href="#DejaVuSans-30"/>
     <use xlink:href="#DejaVuSans-2e" transform="translate(63.623047 0)"/>
     <use xlink:href="#DejaVuSans-30" transform="translate(95.410156 0)"/>
     <use xlink:href="#DejaVuSans-31" transform="translate(159.033203 0)"/>
     <use xlink:href="#DejaVuSans-30" transform="translate(222.65625 0)"/>
    </g>
    <!-- * -->
    <g transform="translate(609.585723 33.51475) scale(0.14 -0.14)">
     <use xlink:href="#DejaVuSans-2a"/>
    </g>
   </g>
   <g id="text_26">
    <!-- 0.006 -->
    <g transform="translate(676.237022 17.837812) scale(0.14 -0.14)">
     <use xlink:href="#DejaVuSans-30"/>
     <use xlink:href="#DejaVuSans-2e" transform="translate(63.623047 0)"/>
     <use xlink:href="#DejaVuSans-30" transform="translate(95.410156 0)"/>
     <use xlink:href="#DejaVuSans-30" transform="translate(159.033203 0)"/>
     <use xlink:href="#DejaVuSans-36" transform="translate(222.65625 0)"/>
    </g>
    <!-- ** -->
    <g transform="translate(689.27671 33.51475) scale(0.14 -0.14)">
     <use xlink:href="#DejaVuSans-2a"/>
     <use xlink:href="#DejaVuSans-2a" transform="translate(50 0)"/>
    </g>
   </g>
   <g id="text_27">
    <!-- 0.006 -->
    <g transform="translate(759.428009 17.837812) scale(0.14 -0.14)">
     <use xlink:href="#DejaVuSans-30"/>
     <use xlink:href="#DejaVuSans-2e" transform="translate(63.623047 0)"/>
     <use xlink:href="#DejaVuSans-30" transform="translate(95.410156 0)"/>
     <use xlink:href="#DejaVuSans-30" transform="translate(159.033203 0)"/>
     <use xlink:href="#DejaVuSans-36" transform="translate(222.65625 0)"/>
    </g>
    <!-- ** -->
    <g transform="translate(772.467696 33.51475) scale(0.14 -0.14)">
     <use xlink:href="#DejaVuSans-2a"/>
     <use xlink:href="#DejaVuSans-2a" transform="translate(50 0)"/>
    </g>
   </g>
  </g>
  <g id="text_28">
   <!-- time_combo -->
   <g transform="translate(385.156094 426.548175) scale(0.14 -0.14)">
    <defs>
     <path id="DejaVuSans-62" d="M 3116 1747 
Q 3116 2381 2855 2742 
Q 2594 3103 2138 3103 
Q 1681 3103 1420 2742 
Q 1159 2381 1159 1747 
Q 1159 1113 1420 752 
Q 1681 391 2138 391 
Q 2594 391 2855 752 
Q 3116 1113 3116 1747 
z
M 1159 2969 
Q 1341 3281 1617 3432 
Q 1894 3584 2278 3584 
Q 2916 3584 3314 3078 
Q 3713 2572 3713 1747 
Q 3713 922 3314 415 
Q 2916 -91 2278 -91 
Q 1894 -91 1617 61 
Q 1341 213 1159 525 
L 1159 0 
L 581 0 
L 581 4863 
L 1159 4863 
L 1159 2969 
z
" transform="scale(0.015625)"/>
    </defs>
    <use xlink:href="#DejaVuSans-74"/>
    <use xlink:href="#DejaVuSans-69" transform="translate(39.208984 0)"/>
    <use xlink:href="#DejaVuSans-6d" transform="translate(66.992188 0)"/>
    <use xlink:href="#DejaVuSans-65" transform="translate(164.404297 0)"/>
    <use xlink:href="#DejaVuSans-5f" transform="translate(225.927734 0)"/>
    <use xlink:href="#DejaVuSans-63" transform="translate(275.927734 0)"/>
    <use xlink:href="#DejaVuSans-6f" transform="translate(330.908203 0)"/>
    <use xlink:href="#DejaVuSans-6d" transform="translate(392.089844 0)"/>
    <use xlink:href="#DejaVuSans-62" transform="translate(489.501953 0)"/>
    <use xlink:href="#DejaVuSans-6f" transform="translate(552.978516 0)"/>
   </g>
  </g>
 </g>
 <defs>
  <clipPath id="pb17161ece9">
   <rect x="44.059375" y="24.377293" width="805.28875" height="270.610882"/>
  </clipPath>
 </defs>
</svg>
