<?xml version="1.0" encoding="utf-8" standalone="no"?>
<!DOCTYPE svg PUBLIC "-//W3C//DTD SVG 1.1//EN"
  "http://www.w3.org/Graphics/SVG/1.1/DTD/svg11.dtd">
<svg xmlns:xlink="http://www.w3.org/1999/xlink" width="856.37125pt" height="437.102938pt" viewBox="0 0 856.37125 437.102938" xmlns="http://www.w3.org/2000/svg" version="1.1">
 <metadata>
  <rdf:RDF xmlns:dc="http://purl.org/dc/elements/1.1/" xmlns:cc="http://creativecommons.org/ns#" xmlns:rdf="http://www.w3.org/1999/02/22-rdf-syntax-ns#">
   <cc:Work>
    <dc:type rdf:resource="http://purl.org/dc/dcmitype/StillImage"/>
    <dc:date>2025-11-29T20:14:12.084893</dc:date>
    <dc:format>image/svg+xml</dc:format>
    <dc:creator>
     <cc:Agent>
      <dc:title>Matplotlib v3.10.0, https://matplotlib.org/</dc:title>
     </cc:Agent>
    </dc:creator>
   </cc:Work>
  </rdf:RDF>
 </metadata>
 <defs>
  <style type="text/css">*{stroke-linejoin: round; stroke-linecap: butt}</style>
 </defs>
 <g id="figure_1">
  <g id="patch_1">
   <path d="M 0 437.102938 
L 856.37125 437.102938 
L 856.37125 0 
L 0 0 
L 0 437.102938 
z
" style="fill: none"/>
  </g>
  <g id="axes_1">
   <g id="patch_2">
    <path d="M 43.78125 295.042001 
L 849.17125 295.042001 
L 849.17125 24.048834 
L 43.78125 24.048834 
L 43.78125 295.042001 
z
" style="fill: none"/>
   </g>
   <g id="patch_3">
    <path d="M 80.389886 295.042001 
L 113.670465 295.042001 
L 113.670465 189.650369 
L 80.389886 189.650369 
L 80.389886 295.042001 
z
" clip-path="url(#p70647d93e4)" style="fill: none; opacity: 0"/>
   </g>
   <g id="patch_4">
    <path d="M 163.591333 295.042001 
L 196.871911 295.042001 
L 196.871911 189.650369 
L 163.591333 189.650369 
L 163.591333 295.042001 
z
" clip-path="url(#p70647d93e4)" style="fill: none; opacity: 0"/>
   </g>
   <g id="patch_5">
    <path d="M 246.792779 295.042001 
L 280.073357 295.042001 
L 280.073357 189.650369 
L 246.792779 189.650369 
L 246.792779 295.042001 
z
" clip-path="url(#p70647d93e4)" style="fill: none; opacity: 0"/>
   </g>
   <g id="patch_6">
    <path d="M 329.994225 295.042001 
L 363.274804 295.042001 
L 363.274804 189.650369 
L 329.994225 189.650369 
L 329.994225 295.042001 
z
" clip-path="url(#p70647d93e4)" style="fill: none; opacity: 0"/>
   </g>
   <g id="patch_7">
    <path d="M 413.195671 295.042001 
L 446.47625 295.042001 
L 446.47625 189.650369 
L 413.195671 189.650369 
L 413.195671 295.042001 
z
" clip-path="url(#p70647d93e4)" style="fill: none; opacity: 0"/>
   </g>
   <g id="patch_8">
    <path d="M 496.397118 295.042001 
L 529.677696 295.042001 
L 529.677696 189.650369 
L 496.397118 189.650369 
L 496.397118 295.042001 
z
" clip-path="url(#p70647d93e4)" style="fill: none; opacity: 0"/>
   </g>
   <g id="patch_9">
    <path d="M 579.598564 295.042001 
L 612.879143 295.042001 
L 612.879143 189.650369 
L 579.598564 189.650369 
L 579.598564 295.042001 
z
" clip-path="url(#p70647d93e4)" style="fill: none; opacity: 0"/>
   </g>
   <g id="patch_10">
    <path d="M 662.80001 295.042001 
L 696.080589 295.042001 
L 696.080589 189.650369 
L 662.80001 189.650369 
L 662.80001 295.042001 
z
" clip-path="url(#p70647d93e4)" style="fill: none; opacity: 0"/>
   </g>
   <g id="patch_11">
    <path d="M 746.001457 295.042001 
L 779.282035 295.042001 
L 779.282035 189.650369 
L 746.001457 189.650369 
L 746.001457 295.042001 
z
" clip-path="url(#p70647d93e4)" style="fill: none; opacity: 0"/>
   </g>
   <g id="patch_12">
    <path d="M 113.670465 295.042001 
L 146.951043 295.042001 
L 146.951043 166.006479 
L 113.670465 166.006479 
L 113.670465 295.042001 
z
" clip-path="url(#p70647d93e4)" style="fill: none; opacity: 0"/>
   </g>
   <g id="patch_13">
    <path d="M 196.871911 295.042001 
L 230.15249 295.042001 
L 230.15249 222.048327 
L 196.871911 222.048327 
L 196.871911 295.042001 
z
" clip-path="url(#p70647d93e4)" style="fill: none; opacity: 0"/>
   </g>
   <g id="patch_14">
    <path d="M 280.073357 295.042001 
L 313.353936 295.042001 
L 313.353936 185.905105 
L 280.073357 185.905105 
L 280.073357 295.042001 
z
" clip-path="url(#p70647d93e4)" style="fill: none; opacity: 0"/>
   </g>
   <g id="patch_15">
    <path d="M 363.274804 295.042001 
L 396.555382 295.042001 
L 396.555382 195.902693 
L 363.274804 195.902693 
L 363.274804 295.042001 
z
" clip-path="url(#p70647d93e4)" style="fill: none; opacity: 0"/>
   </g>
   <g id="patch_16">
    <path d="M 446.47625 295.042001 
L 479.756829 295.042001 
L 479.756829 253.257985 
L 446.47625 253.257985 
L 446.47625 295.042001 
z
" clip-path="url(#p70647d93e4)" style="fill: none; opacity: 0"/>
   </g>
   <g id="patch_17">
    <path d="M 529.677696 295.042001 
L 562.958275 295.042001 
L 562.958275 246.06377 
L 529.677696 246.06377 
L 529.677696 295.042001 
z
" clip-path="url(#p70647d93e4)" style="fill: none; opacity: 0"/>
   </g>
   <g id="patch_18">
    <path d="M 612.879143 295.042001 
L 646.159721 295.042001 
L 646.159721 137.35353 
L 612.879143 137.35353 
L 612.879143 295.042001 
z
" clip-path="url(#p70647d93e4)" style="fill: none; opacity: 0"/>
   </g>
   <g id="patch_19">
    <path d="M 696.080589 295.042001 
L 729.361167 295.042001 
L 729.361167 226.808268 
L 696.080589 226.808268 
L 696.080589 295.042001 
z
" clip-path="url(#p70647d93e4)" style="fill: none; opacity: 0"/>
   </g>
   <g id="patch_20">
    <path d="M 779.282035 295.042001 
L 812.562614 295.042001 
L 812.562614 226.808268 
L 779.282035 226.808268 
L 779.282035 295.042001 
z
" clip-path="url(#p70647d93e4)" style="fill: none; opacity: 0"/>
   </g>
   <g id="matplotlib.axis_1">
    <g id="xtick_1">
     <g id="line2d_1">
      <defs>
       <path id="m6aafdd35b1" d="M 0 0 
L 0 3.5 
" style="stroke: #000000; stroke-width: 0.8"/>
      </defs>
      <g>
       <use xlink:href="#m6aafdd35b1" x="113.670465" y="295.042001" style="stroke: #000000; stroke-width: 0.8"/>
      </g>
     </g>
     <g id="text_1">
      <!-- 0889 -->
      <g transform="translate(116.42984 327.492001) rotate(-90) scale(0.1 -0.1)">
       <defs>
        <path id="DejaVuSans-30" d="M 2034 4250 
Q 1547 4250 1301 3770 
Q 1056 3291 1056 2328 
Q 1056 1369 1301 889 
Q 1547 409 2034 409 
Q 2525 409 2770 889 
Q 3016 1369 3016 2328 
Q 3016 3291 2770 3770 
Q 2525 4250 2034 4250 
z
M 2034 4750 
Q 2819 4750 3233 4129 
Q 3647 3509 3647 2328 
Q 3647 1150 3233 529 
Q 2819 -91 2034 -91 
Q 1250 -91 836 529 
Q 422 1150 422 2328 
Q 422 3509 836 4129 
Q 1250 4750 2034 4750 
z
" transform="scale(0.015625)"/>
        <path id="DejaVuSans-38" d="M 2034 2216 
Q 1584 2216 1326 1975 
Q 1069 1734 1069 1313 
Q 1069 891 1326 650 
Q 1584 409 2034 409 
Q 2484 409 2743 651 
Q 3003 894 3003 1313 
Q 3003 1734 2745 1975 
Q 2488 2216 2034 2216 
z
M 1403 2484 
Q 997 2584 770 2862 
Q 544 3141 544 3541 
Q 544 4100 942 4425 
Q 1341 4750 2034 4750 
Q 2731 4750 3128 4425 
Q 3525 4100 3525 3541 
Q 3525 3141 3298 2862 
Q 3072 2584 2669 2484 
Q 3125 2378 3379 2068 
Q 3634 1759 3634 1313 
Q 3634 634 3220 271 
Q 2806 -91 2034 -91 
Q 1263 -91 848 271 
Q 434 634 434 1313 
Q 434 1759 690 2068 
Q 947 2378 1403 2484 
z
M 1172 3481 
Q 1172 3119 1398 2916 
Q 1625 2713 2034 2713 
Q 2441 2713 2670 2916 
Q 2900 3119 2900 3481 
Q 2900 3844 2670 4047 
Q 2441 4250 2034 4250 
Q 1625 4250 1398 4047 
Q 1172 3844 1172 3481 
z
" transform="scale(0.015625)"/>
        <path id="DejaVuSans-39" d="M 703 97 
L 703 672 
Q 941 559 1184 500 
Q 1428 441 1663 441 
Q 2288 441 2617 861 
Q 2947 1281 2994 2138 
Q 2813 1869 2534 1725 
Q 2256 1581 1919 1581 
Q 1219 1581 811 2004 
Q 403 2428 403 3163 
Q 403 3881 828 4315 
Q 1253 4750 1959 4750 
Q 2769 4750 3195 4129 
Q 3622 3509 3622 2328 
Q 3622 1225 3098 567 
Q 2575 -91 1691 -91 
Q 1453 -91 1209 -44 
Q 966 3 703 97 
z
M 1959 2075 
Q 2384 2075 2632 2365 
Q 2881 2656 2881 3163 
Q 2881 3666 2632 3958 
Q 2384 4250 1959 4250 
Q 1534 4250 1286 3958 
Q 1038 3666 1038 3163 
Q 1038 2656 1286 2365 
Q 1534 2075 1959 2075 
z
" transform="scale(0.015625)"/>
       </defs>
       <use xlink:href="#DejaVuSans-30"/>
       <use xlink:href="#DejaVuSans-38" transform="translate(63.623047 0)"/>
       <use xlink:href="#DejaVuSans-38" transform="translate(127.246094 0)"/>
       <use xlink:href="#DejaVuSans-39" transform="translate(190.869141 0)"/>
      </g>
     </g>
    </g>
    <g id="xtick_2">
     <g id="line2d_2">
      <g>
       <use xlink:href="#m6aafdd35b1" x="196.871911" y="295.042001" style="stroke: #000000; stroke-width: 0.8"/>
      </g>
     </g>
     <g id="text_2">
      <!-- 3547 -->
      <g transform="translate(199.631286 327.492001) rotate(-90) scale(0.1 -0.1)">
       <defs>
        <path id="DejaVuSans-33" d="M 2597 2516 
Q 3050 2419 3304 2112 
Q 3559 1806 3559 1356 
Q 3559 666 3084 287 
Q 2609 -91 1734 -91 
Q 1441 -91 1130 -33 
Q 819 25 488 141 
L 488 750 
Q 750 597 1062 519 
Q 1375 441 1716 441 
Q 2309 441 2620 675 
Q 2931 909 2931 1356 
Q 2931 1769 2642 2001 
Q 2353 2234 1838 2234 
L 1294 2234 
L 1294 2753 
L 1863 2753 
Q 2328 2753 2575 2939 
Q 2822 3125 2822 3475 
Q 2822 3834 2567 4026 
Q 2313 4219 1838 4219 
Q 1578 4219 1281 4162 
Q 984 4106 628 3988 
L 628 4550 
Q 988 4650 1302 4700 
Q 1616 4750 1894 4750 
Q 2613 4750 3031 4423 
Q 3450 4097 3450 3541 
Q 3450 3153 3228 2886 
Q 3006 2619 2597 2516 
z
" transform="scale(0.015625)"/>
        <path id="DejaVuSans-35" d="M 691 4666 
L 3169 4666 
L 3169 4134 
L 1269 4134 
L 1269 2991 
Q 1406 3038 1543 3061 
Q 1681 3084 1819 3084 
Q 2600 3084 3056 2656 
Q 3513 2228 3513 1497 
Q 3513 744 3044 326 
Q 2575 -91 1722 -91 
Q 1428 -91 1123 -41 
Q 819 9 494 109 
L 494 744 
Q 775 591 1075 516 
Q 1375 441 1709 441 
Q 2250 441 2565 725 
Q 2881 1009 2881 1497 
Q 2881 1984 2565 2268 
Q 2250 2553 1709 2553 
Q 1456 2553 1204 2497 
Q 953 2441 691 2322 
L 691 4666 
z
" transform="scale(0.015625)"/>
        <path id="DejaVuSans-34" d="M 2419 4116 
L 825 1625 
L 2419 1625 
L 2419 4116 
z
M 2253 4666 
L 3047 4666 
L 3047 1625 
L 3713 1625 
L 3713 1100 
L 3047 1100 
L 3047 0 
L 2419 0 
L 2419 1100 
L 313 1100 
L 313 1709 
L 2253 4666 
z
" transform="scale(0.015625)"/>
        <path id="DejaVuSans-37" d="M 525 4666 
L 3525 4666 
L 3525 4397 
L 1831 0 
L 1172 0 
L 2766 4134 
L 525 4134 
L 525 4666 
z
" transform="scale(0.015625)"/>
       </defs>
       <use xlink:href="#DejaVuSans-33"/>
       <use xlink:href="#DejaVuSans-35" transform="translate(63.623047 0)"/>
       <use xlink:href="#DejaVuSans-34" transform="translate(127.246094 0)"/>
       <use xlink:href="#DejaVuSans-37" transform="translate(190.869141 0)"/>
      </g>
     </g>
    </g>
    <g id="xtick_3">
     <g id="line2d_3">
      <g>
       <use xlink:href="#m6aafdd35b1" x="280.073357" y="295.042001" style="stroke: #000000; stroke-width: 0.8"/>
      </g>
     </g>
     <g id="text_3">
      <!-- 5262 -->
      <g transform="translate(282.832732 327.492001) rotate(-90) scale(0.1 -0.1)">
       <defs>
        <path id="DejaVuSans-32" d="M 1228 531 
L 3431 531 
L 3431 0 
L 469 0 
L 469 531 
Q 828 903 1448 1529 
Q 2069 2156 2228 2338 
Q 2531 2678 2651 2914 
Q 2772 3150 2772 3378 
Q 2772 3750 2511 3984 
Q 2250 4219 1831 4219 
Q 1534 4219 1204 4116 
Q 875 4013 500 3803 
L 500 4441 
Q 881 4594 1212 4672 
Q 1544 4750 1819 4750 
Q 2544 4750 2975 4387 
Q 3406 4025 3406 3419 
Q 3406 3131 3298 2873 
Q 3191 2616 2906 2266 
Q 2828 2175 2409 1742 
Q 1991 1309 1228 531 
z
" transform="scale(0.015625)"/>
        <path id="DejaVuSans-36" d="M 2113 2584 
Q 1688 2584 1439 2293 
Q 1191 2003 1191 1497 
Q 1191 994 1439 701 
Q 1688 409 2113 409 
Q 2538 409 2786 701 
Q 3034 994 3034 1497 
Q 3034 2003 2786 2293 
Q 2538 2584 2113 2584 
z
M 3366 4563 
L 3366 3988 
Q 3128 4100 2886 4159 
Q 2644 4219 2406 4219 
Q 1781 4219 1451 3797 
Q 1122 3375 1075 2522 
Q 1259 2794 1537 2939 
Q 1816 3084 2150 3084 
Q 2853 3084 3261 2657 
Q 3669 2231 3669 1497 
Q 3669 778 3244 343 
Q 2819 -91 2113 -91 
Q 1303 -91 875 529 
Q 447 1150 447 2328 
Q 447 3434 972 4092 
Q 1497 4750 2381 4750 
Q 2619 4750 2861 4703 
Q 3103 4656 3366 4563 
z
" transform="scale(0.015625)"/>
       </defs>
       <use xlink:href="#DejaVuSans-35"/>
       <use xlink:href="#DejaVuSans-32" transform="translate(63.623047 0)"/>
       <use xlink:href="#DejaVuSans-36" transform="translate(127.246094 0)"/>
       <use xlink:href="#DejaVuSans-32" transform="translate(190.869141 0)"/>
      </g>
     </g>
    </g>
    <g id="xtick_4">
     <g id="line2d_4">
      <g>
       <use xlink:href="#m6aafdd35b1" x="363.274804" y="295.042001" style="stroke: #000000; stroke-width: 0.8"/>
      </g>
     </g>
     <g id="text_4">
      <!-- 5299 -->
      <g transform="translate(366.034179 327.492001) rotate(-90) scale(0.1 -0.1)">
       <use xlink:href="#DejaVuSans-35"/>
       <use xlink:href="#DejaVuSans-32" transform="translate(63.623047 0)"/>
       <use xlink:href="#DejaVuSans-39" transform="translate(127.246094 0)"/>
       <use xlink:href="#DejaVuSans-39" transform="translate(190.869141 0)"/>
      </g>
     </g>
    </g>
    <g id="xtick_5">
     <g id="line2d_5">
      <g>
       <use xlink:href="#m6aafdd35b1" x="446.47625" y="295.042001" style="stroke: #000000; stroke-width: 0.8"/>
      </g>
     </g>
     <g id="text_5">
      <!-- 6566 -->
      <g transform="translate(449.235625 327.492001) rotate(-90) scale(0.1 -0.1)">
       <use xlink:href="#DejaVuSans-36"/>
       <use xlink:href="#DejaVuSans-35" transform="translate(63.623047 0)"/>
       <use xlink:href="#DejaVuSans-36" transform="translate(127.246094 0)"/>
       <use xlink:href="#DejaVuSans-36" transform="translate(190.869141 0)"/>
      </g>
     </g>
    </g>
    <g id="xtick_6">
     <g id="line2d_6">
      <g>
       <use xlink:href="#m6aafdd35b1" x="529.677696" y="295.042001" style="stroke: #000000; stroke-width: 0.8"/>
      </g>
     </g>
     <g id="text_6">
      <!-- 8519 -->
      <g transform="translate(532.437071 327.492001) rotate(-90) scale(0.1 -0.1)">
       <defs>
        <path id="DejaVuSans-31" d="M 794 531 
L 1825 531 
L 1825 4091 
L 703 3866 
L 703 4441 
L 1819 4666 
L 2450 4666 
L 2450 531 
L 3481 531 
L 3481 0 
L 794 0 
L 794 531 
z
" transform="scale(0.015625)"/>
       </defs>
       <use xlink:href="#DejaVuSans-38"/>
       <use xlink:href="#DejaVuSans-35" transform="translate(63.623047 0)"/>
       <use xlink:href="#DejaVuSans-31" transform="translate(127.246094 0)"/>
       <use xlink:href="#DejaVuSans-39" transform="translate(190.869141 0)"/>
      </g>
     </g>
    </g>
    <g id="xtick_7">
     <g id="line2d_7">
      <g>
       <use xlink:href="#m6aafdd35b1" x="612.879143" y="295.042001" style="stroke: #000000; stroke-width: 0.8"/>
      </g>
     </g>
     <g id="text_7">
      <!-- 5682 -->
      <g transform="translate(615.638518 327.492001) rotate(-90) scale(0.1 -0.1)">
       <use xlink:href="#DejaVuSans-35"/>
       <use xlink:href="#DejaVuSans-36" transform="translate(63.623047 0)"/>
       <use xlink:href="#DejaVuSans-38" transform="translate(127.246094 0)"/>
       <use xlink:href="#DejaVuSans-32" transform="translate(190.869141 0)"/>
      </g>
     </g>
    </g>
    <g id="xtick_8">
     <g id="line2d_8">
      <g>
       <use xlink:href="#m6aafdd35b1" x="696.080589" y="295.042001" style="stroke: #000000; stroke-width: 0.8"/>
      </g>
     </g>
     <g id="text_8">
      <!-- Seltorexant -->
      <g transform="translate(698.839964 359.529501) rotate(-90) scale(0.1 -0.1)">
       <defs>
        <path id="DejaVuSans-53" d="M 3425 4513 
L 3425 3897 
Q 3066 4069 2747 4153 
Q 2428 4238 2131 4238 
Q 1616 4238 1336 4038 
Q 1056 3838 1056 3469 
Q 1056 3159 1242 3001 
Q 1428 2844 1947 2747 
L 2328 2669 
Q 3034 2534 3370 2195 
Q 3706 1856 3706 1288 
Q 3706 609 3251 259 
Q 2797 -91 1919 -91 
Q 1588 -91 1214 -16 
Q 841 59 441 206 
L 441 856 
Q 825 641 1194 531 
Q 1563 422 1919 422 
Q 2459 422 2753 634 
Q 3047 847 3047 1241 
Q 3047 1584 2836 1778 
Q 2625 1972 2144 2069 
L 1759 2144 
Q 1053 2284 737 2584 
Q 422 2884 422 3419 
Q 422 4038 858 4394 
Q 1294 4750 2059 4750 
Q 2388 4750 2728 4690 
Q 3069 4631 3425 4513 
z
" transform="scale(0.015625)"/>
        <path id="DejaVuSans-65" d="M 3597 1894 
L 3597 1613 
L 953 1613 
Q 991 1019 1311 708 
Q 1631 397 2203 397 
Q 2534 397 2845 478 
Q 3156 559 3463 722 
L 3463 178 
Q 3153 47 2828 -22 
Q 2503 -91 2169 -91 
Q 1331 -91 842 396 
Q 353 884 353 1716 
Q 353 2575 817 3079 
Q 1281 3584 2069 3584 
Q 2775 3584 3186 3129 
Q 3597 2675 3597 1894 
z
M 3022 2063 
Q 3016 2534 2758 2815 
Q 2500 3097 2075 3097 
Q 1594 3097 1305 2825 
Q 1016 2553 972 2059 
L 3022 2063 
z
" transform="scale(0.015625)"/>
        <path id="DejaVuSans-6c" d="M 603 4863 
L 1178 4863 
L 1178 0 
L 603 0 
L 603 4863 
z
" transform="scale(0.015625)"/>
        <path id="DejaVuSans-74" d="M 1172 4494 
L 1172 3500 
L 2356 3500 
L 2356 3053 
L 1172 3053 
L 1172 1153 
Q 1172 725 1289 603 
Q 1406 481 1766 481 
L 2356 481 
L 2356 0 
L 1766 0 
Q 1100 0 847 248 
Q 594 497 594 1153 
L 594 3053 
L 172 3053 
L 172 3500 
L 594 3500 
L 594 4494 
L 1172 4494 
z
" transform="scale(0.015625)"/>
        <path id="DejaVuSans-6f" d="M 1959 3097 
Q 1497 3097 1228 2736 
Q 959 2375 959 1747 
Q 959 1119 1226 758 
Q 1494 397 1959 397 
Q 2419 397 2687 759 
Q 2956 1122 2956 1747 
Q 2956 2369 2687 2733 
Q 2419 3097 1959 3097 
z
M 1959 3584 
Q 2709 3584 3137 3096 
Q 3566 2609 3566 1747 
Q 3566 888 3137 398 
Q 2709 -91 1959 -91 
Q 1206 -91 779 398 
Q 353 888 353 1747 
Q 353 2609 779 3096 
Q 1206 3584 1959 3584 
z
" transform="scale(0.015625)"/>
        <path id="DejaVuSans-72" d="M 2631 2963 
Q 2534 3019 2420 3045 
Q 2306 3072 2169 3072 
Q 1681 3072 1420 2755 
Q 1159 2438 1159 1844 
L 1159 0 
L 581 0 
L 581 3500 
L 1159 3500 
L 1159 2956 
Q 1341 3275 1631 3429 
Q 1922 3584 2338 3584 
Q 2397 3584 2469 3576 
Q 2541 3569 2628 3553 
L 2631 2963 
z
" transform="scale(0.015625)"/>
        <path id="DejaVuSans-78" d="M 3513 3500 
L 2247 1797 
L 3578 0 
L 2900 0 
L 1881 1375 
L 863 0 
L 184 0 
L 1544 1831 
L 300 3500 
L 978 3500 
L 1906 2253 
L 2834 3500 
L 3513 3500 
z
" transform="scale(0.015625)"/>
        <path id="DejaVuSans-61" d="M 2194 1759 
Q 1497 1759 1228 1600 
Q 959 1441 959 1056 
Q 959 750 1161 570 
Q 1363 391 1709 391 
Q 2188 391 2477 730 
Q 2766 1069 2766 1631 
L 2766 1759 
L 2194 1759 
z
M 3341 1997 
L 3341 0 
L 2766 0 
L 2766 531 
Q 2569 213 2275 61 
Q 1981 -91 1556 -91 
Q 1019 -91 701 211 
Q 384 513 384 1019 
Q 384 1609 779 1909 
Q 1175 2209 1959 2209 
L 2766 2209 
L 2766 2266 
Q 2766 2663 2505 2880 
Q 2244 3097 1772 3097 
Q 1472 3097 1187 3025 
Q 903 2953 641 2809 
L 641 3341 
Q 956 3463 1253 3523 
Q 1550 3584 1831 3584 
Q 2591 3584 2966 3190 
Q 3341 2797 3341 1997 
z
" transform="scale(0.015625)"/>
        <path id="DejaVuSans-6e" d="M 3513 2113 
L 3513 0 
L 2938 0 
L 2938 2094 
Q 2938 2591 2744 2837 
Q 2550 3084 2163 3084 
Q 1697 3084 1428 2787 
Q 1159 2491 1159 1978 
L 1159 0 
L 581 0 
L 581 3500 
L 1159 3500 
L 1159 2956 
Q 1366 3272 1645 3428 
Q 1925 3584 2291 3584 
Q 2894 3584 3203 3211 
Q 3513 2838 3513 2113 
z
" transform="scale(0.015625)"/>
       </defs>
       <use xlink:href="#DejaVuSans-53"/>
       <use xlink:href="#DejaVuSans-65" transform="translate(63.476562 0)"/>
       <use xlink:href="#DejaVuSans-6c" transform="translate(125 0)"/>
       <use xlink:href="#DejaVuSans-74" transform="translate(152.783203 0)"/>
       <use xlink:href="#DejaVuSans-6f" transform="translate(191.992188 0)"/>
       <use xlink:href="#DejaVuSans-72" transform="translate(253.173828 0)"/>
       <use xlink:href="#DejaVuSans-65" transform="translate(292.037109 0)"/>
       <use xlink:href="#DejaVuSans-78" transform="translate(351.810547 0)"/>
       <use xlink:href="#DejaVuSans-61" transform="translate(410.990234 0)"/>
       <use xlink:href="#DejaVuSans-6e" transform="translate(472.269531 0)"/>
       <use xlink:href="#DejaVuSans-74" transform="translate(535.648438 0)"/>
      </g>
     </g>
    </g>
    <g id="xtick_9">
     <g id="line2d_9">
      <g>
       <use xlink:href="#m6aafdd35b1" x="779.282035" y="295.042001" style="stroke: #000000; stroke-width: 0.8"/>
      </g>
     </g>
     <g id="text_9">
      <!-- YSeltorexant_CROPOUT -->
      <g transform="translate(781.902348 419.768563) rotate(-90) scale(0.1 -0.1)">
       <defs>
        <path id="DejaVuSans-59" d="M -13 4666 
L 666 4666 
L 1959 2747 
L 3244 4666 
L 3922 4666 
L 2272 2222 
L 2272 0 
L 1638 0 
L 1638 2222 
L -13 4666 
z
" transform="scale(0.015625)"/>
        <path id="DejaVuSans-5f" d="M 3263 -1063 
L 3263 -1509 
L -63 -1509 
L -63 -1063 
L 3263 -1063 
z
" transform="scale(0.015625)"/>
        <path id="DejaVuSans-43" d="M 4122 4306 
L 4122 3641 
Q 3803 3938 3442 4084 
Q 3081 4231 2675 4231 
Q 1875 4231 1450 3742 
Q 1025 3253 1025 2328 
Q 1025 1406 1450 917 
Q 1875 428 2675 428 
Q 3081 428 3442 575 
Q 3803 722 4122 1019 
L 4122 359 
Q 3791 134 3420 21 
Q 3050 -91 2638 -91 
Q 1578 -91 968 557 
Q 359 1206 359 2328 
Q 359 3453 968 4101 
Q 1578 4750 2638 4750 
Q 3056 4750 3426 4639 
Q 3797 4528 4122 4306 
z
" transform="scale(0.015625)"/>
        <path id="DejaVuSans-52" d="M 2841 2188 
Q 3044 2119 3236 1894 
Q 3428 1669 3622 1275 
L 4263 0 
L 3584 0 
L 2988 1197 
Q 2756 1666 2539 1819 
Q 2322 1972 1947 1972 
L 1259 1972 
L 1259 0 
L 628 0 
L 628 4666 
L 2053 4666 
Q 2853 4666 3247 4331 
Q 3641 3997 3641 3322 
Q 3641 2881 3436 2590 
Q 3231 2300 2841 2188 
z
M 1259 4147 
L 1259 2491 
L 2053 2491 
Q 2509 2491 2742 2702 
Q 2975 2913 2975 3322 
Q 2975 3731 2742 3939 
Q 2509 4147 2053 4147 
L 1259 4147 
z
" transform="scale(0.015625)"/>
        <path id="DejaVuSans-4f" d="M 2522 4238 
Q 1834 4238 1429 3725 
Q 1025 3213 1025 2328 
Q 1025 1447 1429 934 
Q 1834 422 2522 422 
Q 3209 422 3611 934 
Q 4013 1447 4013 2328 
Q 4013 3213 3611 3725 
Q 3209 4238 2522 4238 
z
M 2522 4750 
Q 3503 4750 4090 4092 
Q 4678 3434 4678 2328 
Q 4678 1225 4090 567 
Q 3503 -91 2522 -91 
Q 1538 -91 948 565 
Q 359 1222 359 2328 
Q 359 3434 948 4092 
Q 1538 4750 2522 4750 
z
" transform="scale(0.015625)"/>
        <path id="DejaVuSans-50" d="M 1259 4147 
L 1259 2394 
L 2053 2394 
Q 2494 2394 2734 2622 
Q 2975 2850 2975 3272 
Q 2975 3691 2734 3919 
Q 2494 4147 2053 4147 
L 1259 4147 
z
M 628 4666 
L 2053 4666 
Q 2838 4666 3239 4311 
Q 3641 3956 3641 3272 
Q 3641 2581 3239 2228 
Q 2838 1875 2053 1875 
L 1259 1875 
L 1259 0 
L 628 0 
L 628 4666 
z
" transform="scale(0.015625)"/>
        <path id="DejaVuSans-55" d="M 556 4666 
L 1191 4666 
L 1191 1831 
Q 1191 1081 1462 751 
Q 1734 422 2344 422 
Q 2950 422 3222 751 
Q 3494 1081 3494 1831 
L 3494 4666 
L 4128 4666 
L 4128 1753 
Q 4128 841 3676 375 
Q 3225 -91 2344 -91 
Q 1459 -91 1007 375 
Q 556 841 556 1753 
L 556 4666 
z
" transform="scale(0.015625)"/>
        <path id="DejaVuSans-54" d="M -19 4666 
L 3928 4666 
L 3928 4134 
L 2272 4134 
L 2272 0 
L 1638 0 
L 1638 4134 
L -19 4134 
L -19 4666 
z
" transform="scale(0.015625)"/>
       </defs>
       <use xlink:href="#DejaVuSans-59"/>
       <use xlink:href="#DejaVuSans-53" transform="translate(61.083984 0)"/>
       <use xlink:href="#DejaVuSans-65" transform="translate(124.560547 0)"/>
       <use xlink:href="#DejaVuSans-6c" transform="translate(186.083984 0)"/>
       <use xlink:href="#DejaVuSans-74" transform="translate(213.867188 0)"/>
       <use xlink:href="#DejaVuSans-6f" transform="translate(253.076172 0)"/>
       <use xlink:href="#DejaVuSans-72" transform="translate(314.257812 0)"/>
       <use xlink:href="#DejaVuSans-65" transform="translate(353.121094 0)"/>
       <use xlink:href="#DejaVuSans-78" transform="translate(412.894531 0)"/>
       <use xlink:href="#DejaVuSans-61" transform="translate(472.074219 0)"/>
       <use xlink:href="#DejaVuSans-6e" transform="translate(533.353516 0)"/>
       <use xlink:href="#DejaVuSans-74" transform="translate(596.732422 0)"/>
       <use xlink:href="#DejaVuSans-5f" transform="translate(635.941406 0)"/>
       <use xlink:href="#DejaVuSans-43" transform="translate(685.941406 0)"/>
       <use xlink:href="#DejaVuSans-52" transform="translate(755.765625 0)"/>
       <use xlink:href="#DejaVuSans-4f" transform="translate(825.248047 0)"/>
       <use xlink:href="#DejaVuSans-50" transform="translate(903.958984 0)"/>
       <use xlink:href="#DejaVuSans-4f" transform="translate(964.261719 0)"/>
       <use xlink:href="#DejaVuSans-55" transform="translate(1042.972656 0)"/>
       <use xlink:href="#DejaVuSans-54" transform="translate(1116.166016 0)"/>
      </g>
     </g>
    </g>
   </g>
   <g id="matplotlib.axis_2">
    <g id="ytick_1">
     <g id="line2d_10">
      <defs>
       <path id="m7f82ca570c" d="M 0 0 
L -3.5 0 
" style="stroke: #000000; stroke-width: 0.8"/>
      </defs>
      <g>
       <use xlink:href="#m7f82ca570c" x="43.78125" y="295.042001" style="stroke: #000000; stroke-width: 0.8"/>
      </g>
     </g>
     <g id="text_10">
      <!-- 0.0 -->
      <g transform="translate(20.878125 298.84122) scale(0.1 -0.1)">
       <defs>
        <path id="DejaVuSans-2e" d="M 684 794 
L 1344 794 
L 1344 0 
L 684 0 
L 684 794 
z
" transform="scale(0.015625)"/>
       </defs>
       <use xlink:href="#DejaVuSans-30"/>
       <use xlink:href="#DejaVuSans-2e" transform="translate(63.623047 0)"/>
       <use xlink:href="#DejaVuSans-30" transform="translate(95.410156 0)"/>
      </g>
     </g>
    </g>
    <g id="ytick_2">
     <g id="line2d_11">
      <g>
       <use xlink:href="#m7f82ca570c" x="43.78125" y="242.346185" style="stroke: #000000; stroke-width: 0.8"/>
      </g>
     </g>
     <g id="text_11">
      <!-- 0.5 -->
      <g transform="translate(20.878125 246.145404) scale(0.1 -0.1)">
       <use xlink:href="#DejaVuSans-30"/>
       <use xlink:href="#DejaVuSans-2e" transform="translate(63.623047 0)"/>
       <use xlink:href="#DejaVuSans-35" transform="translate(95.410156 0)"/>
      </g>
     </g>
    </g>
    <g id="ytick_3">
     <g id="line2d_12">
      <g>
       <use xlink:href="#m7f82ca570c" x="43.78125" y="189.650369" style="stroke: #000000; stroke-width: 0.8"/>
      </g>
     </g>
     <g id="text_12">
      <!-- 1.0 -->
      <g transform="translate(20.878125 193.449587) scale(0.1 -0.1)">
       <use xlink:href="#DejaVuSans-31"/>
       <use xlink:href="#DejaVuSans-2e" transform="translate(63.623047 0)"/>
       <use xlink:href="#DejaVuSans-30" transform="translate(95.410156 0)"/>
      </g>
     </g>
    </g>
    <g id="ytick_4">
     <g id="line2d_13">
      <g>
       <use xlink:href="#m7f82ca570c" x="43.78125" y="136.954552" style="stroke: #000000; stroke-width: 0.8"/>
      </g>
     </g>
     <g id="text_13">
      <!-- 1.5 -->
      <g transform="translate(20.878125 140.753771) scale(0.1 -0.1)">
       <use xlink:href="#DejaVuSans-31"/>
       <use xlink:href="#DejaVuSans-2e" transform="translate(63.623047 0)"/>
       <use xlink:href="#DejaVuSans-35" transform="translate(95.410156 0)"/>
      </g>
     </g>
    </g>
    <g id="ytick_5">
     <g id="line2d_14">
      <g>
       <use xlink:href="#m7f82ca570c" x="43.78125" y="84.258736" style="stroke: #000000; stroke-width: 0.8"/>
      </g>
     </g>
     <g id="text_14">
      <!-- 2.0 -->
      <g transform="translate(20.878125 88.057955) scale(0.1 -0.1)">
       <use xlink:href="#DejaVuSans-32"/>
       <use xlink:href="#DejaVuSans-2e" transform="translate(63.623047 0)"/>
       <use xlink:href="#DejaVuSans-30" transform="translate(95.410156 0)"/>
      </g>
     </g>
    </g>
    <g id="text_15">
     <!-- Normalized numberofbouts: Binned - 600 -->
     <g transform="translate(14.798438 262.885261) rotate(-90) scale(0.1 -0.1)">
      <defs>
       <path id="DejaVuSans-4e" d="M 628 4666 
L 1478 4666 
L 3547 763 
L 3547 4666 
L 4159 4666 
L 4159 0 
L 3309 0 
L 1241 3903 
L 1241 0 
L 628 0 
L 628 4666 
z
" transform="scale(0.015625)"/>
       <path id="DejaVuSans-6d" d="M 3328 2828 
Q 3544 3216 3844 3400 
Q 4144 3584 4550 3584 
Q 5097 3584 5394 3201 
Q 5691 2819 5691 2113 
L 5691 0 
L 5113 0 
L 5113 2094 
Q 5113 2597 4934 2840 
Q 4756 3084 4391 3084 
Q 3944 3084 3684 2787 
Q 3425 2491 3425 1978 
L 3425 0 
L 2847 0 
L 2847 2094 
Q 2847 2600 2669 2842 
Q 2491 3084 2119 3084 
Q 1678 3084 1418 2786 
Q 1159 2488 1159 1978 
L 1159 0 
L 581 0 
L 581 3500 
L 1159 3500 
L 1159 2956 
Q 1356 3278 1631 3431 
Q 1906 3584 2284 3584 
Q 2666 3584 2933 3390 
Q 3200 3197 3328 2828 
z
" transform="scale(0.015625)"/>
       <path id="DejaVuSans-69" d="M 603 3500 
L 1178 3500 
L 1178 0 
L 603 0 
L 603 3500 
z
M 603 4863 
L 1178 4863 
L 1178 4134 
L 603 4134 
L 603 4863 
z
" transform="scale(0.015625)"/>
       <path id="DejaVuSans-7a" d="M 353 3500 
L 3084 3500 
L 3084 2975 
L 922 459 
L 3084 459 
L 3084 0 
L 275 0 
L 275 525 
L 2438 3041 
L 353 3041 
L 353 3500 
z
" transform="scale(0.015625)"/>
       <path id="DejaVuSans-64" d="M 2906 2969 
L 2906 4863 
L 3481 4863 
L 3481 0 
L 2906 0 
L 2906 525 
Q 2725 213 2448 61 
Q 2172 -91 1784 -91 
Q 1150 -91 751 415 
Q 353 922 353 1747 
Q 353 2572 751 3078 
Q 1150 3584 1784 3584 
Q 2172 3584 2448 3432 
Q 2725 3281 2906 2969 
z
M 947 1747 
Q 947 1113 1208 752 
Q 1469 391 1925 391 
Q 2381 391 2643 752 
Q 2906 1113 2906 1747 
Q 2906 2381 2643 2742 
Q 2381 3103 1925 3103 
Q 1469 3103 1208 2742 
Q 947 2381 947 1747 
z
" transform="scale(0.015625)"/>
       <path id="DejaVuSans-20" transform="scale(0.015625)"/>
       <path id="DejaVuSans-75" d="M 544 1381 
L 544 3500 
L 1119 3500 
L 1119 1403 
Q 1119 906 1312 657 
Q 1506 409 1894 409 
Q 2359 409 2629 706 
Q 2900 1003 2900 1516 
L 2900 3500 
L 3475 3500 
L 3475 0 
L 2900 0 
L 2900 538 
Q 2691 219 2414 64 
Q 2138 -91 1772 -91 
Q 1169 -91 856 284 
Q 544 659 544 1381 
z
M 1991 3584 
L 1991 3584 
z
" transform="scale(0.015625)"/>
       <path id="DejaVuSans-62" d="M 3116 1747 
Q 3116 2381 2855 2742 
Q 2594 3103 2138 3103 
Q 1681 3103 1420 2742 
Q 1159 2381 1159 1747 
Q 1159 1113 1420 752 
Q 1681 391 2138 391 
Q 2594 391 2855 752 
Q 3116 1113 3116 1747 
z
M 1159 2969 
Q 1341 3281 1617 3432 
Q 1894 3584 2278 3584 
Q 2916 3584 3314 3078 
Q 3713 2572 3713 1747 
Q 3713 922 3314 415 
Q 2916 -91 2278 -91 
Q 1894 -91 1617 61 
Q 1341 213 1159 525 
L 1159 0 
L 581 0 
L 581 4863 
L 1159 4863 
L 1159 2969 
z
" transform="scale(0.015625)"/>
       <path id="DejaVuSans-66" d="M 2375 4863 
L 2375 4384 
L 1825 4384 
Q 1516 4384 1395 4259 
Q 1275 4134 1275 3809 
L 1275 3500 
L 2222 3500 
L 2222 3053 
L 1275 3053 
L 1275 0 
L 697 0 
L 697 3053 
L 147 3053 
L 147 3500 
L 697 3500 
L 697 3744 
Q 697 4328 969 4595 
Q 1241 4863 1831 4863 
L 2375 4863 
z
" transform="scale(0.015625)"/>
       <path id="DejaVuSans-73" d="M 2834 3397 
L 2834 2853 
Q 2591 2978 2328 3040 
Q 2066 3103 1784 3103 
Q 1356 3103 1142 2972 
Q 928 2841 928 2578 
Q 928 2378 1081 2264 
Q 1234 2150 1697 2047 
L 1894 2003 
Q 2506 1872 2764 1633 
Q 3022 1394 3022 966 
Q 3022 478 2636 193 
Q 2250 -91 1575 -91 
Q 1294 -91 989 -36 
Q 684 19 347 128 
L 347 722 
Q 666 556 975 473 
Q 1284 391 1588 391 
Q 1994 391 2212 530 
Q 2431 669 2431 922 
Q 2431 1156 2273 1281 
Q 2116 1406 1581 1522 
L 1381 1569 
Q 847 1681 609 1914 
Q 372 2147 372 2553 
Q 372 3047 722 3315 
Q 1072 3584 1716 3584 
Q 2034 3584 2315 3537 
Q 2597 3491 2834 3397 
z
" transform="scale(0.015625)"/>
       <path id="DejaVuSans-3a" d="M 750 794 
L 1409 794 
L 1409 0 
L 750 0 
L 750 794 
z
M 750 3309 
L 1409 3309 
L 1409 2516 
L 750 2516 
L 750 3309 
z
" transform="scale(0.015625)"/>
       <path id="DejaVuSans-42" d="M 1259 2228 
L 1259 519 
L 2272 519 
Q 2781 519 3026 730 
Q 3272 941 3272 1375 
Q 3272 1813 3026 2020 
Q 2781 2228 2272 2228 
L 1259 2228 
z
M 1259 4147 
L 1259 2741 
L 2194 2741 
Q 2656 2741 2882 2914 
Q 3109 3088 3109 3444 
Q 3109 3797 2882 3972 
Q 2656 4147 2194 4147 
L 1259 4147 
z
M 628 4666 
L 2241 4666 
Q 2963 4666 3353 4366 
Q 3744 4066 3744 3513 
Q 3744 3084 3544 2831 
Q 3344 2578 2956 2516 
Q 3422 2416 3680 2098 
Q 3938 1781 3938 1306 
Q 3938 681 3513 340 
Q 3088 0 2303 0 
L 628 0 
L 628 4666 
z
" transform="scale(0.015625)"/>
       <path id="DejaVuSans-2d" d="M 313 2009 
L 1997 2009 
L 1997 1497 
L 313 1497 
L 313 2009 
z
" transform="scale(0.015625)"/>
      </defs>
      <use xlink:href="#DejaVuSans-4e"/>
      <use xlink:href="#DejaVuSans-6f" transform="translate(74.804688 0)"/>
      <use xlink:href="#DejaVuSans-72" transform="translate(135.986328 0)"/>
      <use xlink:href="#DejaVuSans-6d" transform="translate(175.349609 0)"/>
      <use xlink:href="#DejaVuSans-61" transform="translate(272.761719 0)"/>
      <use xlink:href="#DejaVuSans-6c" transform="translate(334.041016 0)"/>
      <use xlink:href="#DejaVuSans-69" transform="translate(361.824219 0)"/>
      <use xlink:href="#DejaVuSans-7a" transform="translate(389.607422 0)"/>
      <use xlink:href="#DejaVuSans-65" transform="translate(442.097656 0)"/>
      <use xlink:href="#DejaVuSans-64" transform="translate(503.621094 0)"/>
      <use xlink:href="#DejaVuSans-20" transform="translate(567.097656 0)"/>
      <use xlink:href="#DejaVuSans-6e" transform="translate(598.884766 0)"/>
      <use xlink:href="#DejaVuSans-75" transform="translate(662.263672 0)"/>
      <use xlink:href="#DejaVuSans-6d" transform="translate(725.642578 0)"/>
      <use xlink:href="#DejaVuSans-62" transform="translate(823.054688 0)"/>
      <use xlink:href="#DejaVuSans-65" transform="translate(886.53125 0)"/>
      <use xlink:href="#DejaVuSans-72" transform="translate(948.054688 0)"/>
      <use xlink:href="#DejaVuSans-6f" transform="translate(986.917969 0)"/>
      <use xlink:href="#DejaVuSans-66" transform="translate(1048.099609 0)"/>
      <use xlink:href="#DejaVuSans-62" transform="translate(1083.304688 0)"/>
      <use xlink:href="#DejaVuSans-6f" transform="translate(1146.78125 0)"/>
      <use xlink:href="#DejaVuSans-75" transform="translate(1207.962891 0)"/>
      <use xlink:href="#DejaVuSans-74" transform="translate(1271.341797 0)"/>
      <use xlink:href="#DejaVuSans-73" transform="translate(1310.550781 0)"/>
      <use xlink:href="#DejaVuSans-3a" transform="translate(1362.650391 0)"/>
      <use xlink:href="#DejaVuSans-20" transform="translate(1396.341797 0)"/>
      <use xlink:href="#DejaVuSans-42" transform="translate(1428.128906 0)"/>
      <use xlink:href="#DejaVuSans-69" transform="translate(1496.732422 0)"/>
      <use xlink:href="#DejaVuSans-6e" transform="translate(1524.515625 0)"/>
      <use xlink:href="#DejaVuSans-6e" transform="translate(1587.894531 0)"/>
      <use xlink:href="#DejaVuSans-65" transform="translate(1651.273438 0)"/>
      <use xlink:href="#DejaVuSans-64" transform="translate(1712.796875 0)"/>
      <use xlink:href="#DejaVuSans-20" transform="translate(1776.273438 0)"/>
      <use xlink:href="#DejaVuSans-2d" transform="translate(1808.060547 0)"/>
      <use xlink:href="#DejaVuSans-20" transform="translate(1844.144531 0)"/>
      <use xlink:href="#DejaVuSans-36" transform="translate(1875.931641 0)"/>
      <use xlink:href="#DejaVuSans-30" transform="translate(1939.554688 0)"/>
      <use xlink:href="#DejaVuSans-30" transform="translate(2003.177734 0)"/>
     </g>
    </g>
   </g>
   <g id="line2d_15">
    <path d="M 92.870103 204.965293 
L 101.190248 204.965293 
M 97.030176 204.965293 
L 97.030176 174.335444 
M 92.870103 174.335444 
L 101.190248 174.335444 
" clip-path="url(#p70647d93e4)" style="fill: none; stroke: #000000; stroke-width: 2; stroke-linecap: square"/>
   </g>
   <g id="line2d_16">
    <path d="M 176.07155 201.54132 
L 184.391694 201.54132 
M 180.231622 201.54132 
L 180.231622 177.759418 
M 176.07155 177.759418 
L 184.391694 177.759418 
" clip-path="url(#p70647d93e4)" style="fill: none; stroke: #000000; stroke-width: 2; stroke-linecap: square"/>
   </g>
   <g id="line2d_17">
    <path d="M 259.272996 199.361528 
L 267.59314 199.361528 
M 263.433068 199.361528 
L 263.433068 179.939209 
M 259.272996 179.939209 
L 267.59314 179.939209 
" clip-path="url(#p70647d93e4)" style="fill: none; stroke: #000000; stroke-width: 2; stroke-linecap: square"/>
   </g>
   <g id="line2d_18">
    <path d="M 342.474442 203.005288 
L 350.794587 203.005288 
M 346.634514 203.005288 
L 346.634514 176.295449 
M 342.474442 176.295449 
L 350.794587 176.295449 
" clip-path="url(#p70647d93e4)" style="fill: none; stroke: #000000; stroke-width: 2; stroke-linecap: square"/>
   </g>
   <g id="line2d_19">
    <path d="M 425.675888 203.534409 
L 433.996033 203.534409 
M 429.835961 203.534409 
L 429.835961 175.766328 
M 425.675888 175.766328 
L 433.996033 175.766328 
" clip-path="url(#p70647d93e4)" style="fill: none; stroke: #000000; stroke-width: 2; stroke-linecap: square"/>
   </g>
   <g id="line2d_20">
    <path d="M 508.877335 201.989419 
L 517.197479 201.989419 
M 513.037407 201.989419 
L 513.037407 177.311318 
M 508.877335 177.311318 
L 517.197479 177.311318 
" clip-path="url(#p70647d93e4)" style="fill: none; stroke: #000000; stroke-width: 2; stroke-linecap: square"/>
   </g>
   <g id="line2d_21">
    <path d="M 592.078781 201.459832 
L 600.398926 201.459832 
M 596.238853 201.459832 
L 596.238853 177.840905 
M 592.078781 177.840905 
L 600.398926 177.840905 
" clip-path="url(#p70647d93e4)" style="fill: none; stroke: #000000; stroke-width: 2; stroke-linecap: square"/>
   </g>
   <g id="line2d_22">
    <path d="M 675.280227 200.920412 
L 683.600372 200.920412 
M 679.4403 200.920412 
L 679.4403 178.380325 
M 675.280227 178.380325 
L 683.600372 178.380325 
" clip-path="url(#p70647d93e4)" style="fill: none; stroke: #000000; stroke-width: 2; stroke-linecap: square"/>
   </g>
   <g id="line2d_23">
    <path d="M 758.481674 200.920412 
L 766.801818 200.920412 
M 762.641746 200.920412 
L 762.641746 178.380325 
M 758.481674 178.380325 
L 766.801818 178.380325 
" clip-path="url(#p70647d93e4)" style="fill: none; stroke: #000000; stroke-width: 2; stroke-linecap: square"/>
   </g>
   <g id="line2d_24">
    <path d="M 126.150682 181.79847 
L 134.470826 181.79847 
M 130.310754 181.79847 
L 130.310754 150.214489 
M 126.150682 150.214489 
L 134.470826 150.214489 
" clip-path="url(#p70647d93e4)" style="fill: none; stroke: #ff0000; stroke-width: 2; stroke-linecap: square"/>
   </g>
   <g id="line2d_25">
    <path d="M 209.352128 234.643507 
L 217.672273 234.643507 
M 213.5122 234.643507 
L 213.5122 209.453146 
M 209.352128 209.453146 
L 217.672273 209.453146 
" clip-path="url(#p70647d93e4)" style="fill: none; stroke: #ff0000; stroke-width: 2; stroke-linecap: square"/>
   </g>
   <g id="line2d_26">
    <path d="M 292.553574 197.79068 
L 300.873719 197.79068 
M 296.713647 197.79068 
L 296.713647 174.01953 
M 292.553574 174.01953 
L 300.873719 174.01953 
" clip-path="url(#p70647d93e4)" style="fill: none; stroke: #ff0000; stroke-width: 2; stroke-linecap: square"/>
   </g>
   <g id="line2d_27">
    <path d="M 375.755021 204.593461 
L 384.075165 204.593461 
M 379.915093 204.593461 
L 379.915093 187.211925 
M 375.755021 187.211925 
L 384.075165 187.211925 
" clip-path="url(#p70647d93e4)" style="fill: none; stroke: #ff0000; stroke-width: 2; stroke-linecap: square"/>
   </g>
   <g id="line2d_28">
    <path d="M 458.956467 262.766038 
L 467.276612 262.766038 
M 463.116539 262.766038 
L 463.116539 243.749933 
M 458.956467 243.749933 
L 467.276612 243.749933 
" clip-path="url(#p70647d93e4)" style="fill: none; stroke: #ff0000; stroke-width: 2; stroke-linecap: square"/>
   </g>
   <g id="line2d_29">
    <path d="M 542.157913 253.979011 
L 550.478058 253.979011 
M 546.317986 253.979011 
L 546.317986 238.148529 
M 542.157913 238.148529 
L 550.478058 238.148529 
" clip-path="url(#p70647d93e4)" style="fill: none; stroke: #ff0000; stroke-width: 2; stroke-linecap: square"/>
   </g>
   <g id="line2d_30">
    <path d="M 625.35936 154.30819 
L 633.679504 154.30819 
M 629.519432 154.30819 
L 629.519432 120.398869 
M 625.35936 120.398869 
L 633.679504 120.398869 
" clip-path="url(#p70647d93e4)" style="fill: none; stroke: #ff0000; stroke-width: 2; stroke-linecap: square"/>
   </g>
   <g id="line2d_31">
    <path d="M 708.560806 232.496533 
L 716.88095 232.496533 
M 712.720878 232.496533 
L 712.720878 221.120003 
M 708.560806 221.120003 
L 716.88095 221.120003 
" clip-path="url(#p70647d93e4)" style="fill: none; stroke: #ff0000; stroke-width: 2; stroke-linecap: square"/>
   </g>
   <g id="line2d_32">
    <path d="M 791.762252 232.496533 
L 800.082397 232.496533 
M 795.922324 232.496533 
L 795.922324 221.120003 
M 791.762252 221.120003 
L 800.082397 221.120003 
" clip-path="url(#p70647d93e4)" style="fill: none; stroke: #ff0000; stroke-width: 2; stroke-linecap: square"/>
   </g>
   <g id="line2d_33">
    <path d="M 97.030176 39.061103 
L 97.030176 36.953271 
L 130.310754 36.953271 
L 130.310754 39.061103 
" clip-path="url(#p70647d93e4)" style="fill: none; stroke: #000000; stroke-width: 1.5; stroke-linecap: square"/>
   </g>
   <g id="line2d_34">
    <path d="M 180.231622 39.061103 
L 180.231622 36.953271 
L 213.5122 36.953271 
L 213.5122 39.061103 
" clip-path="url(#p70647d93e4)" style="fill: none; stroke: #000000; stroke-width: 1.5; stroke-linecap: square"/>
   </g>
   <g id="line2d_35">
    <path d="M 263.433068 39.061103 
L 263.433068 36.953271 
L 296.713647 36.953271 
L 296.713647 39.061103 
" clip-path="url(#p70647d93e4)" style="fill: none; stroke: #000000; stroke-width: 1.5; stroke-linecap: square"/>
   </g>
   <g id="line2d_36">
    <path d="M 346.634514 39.061103 
L 346.634514 36.953271 
L 379.915093 36.953271 
L 379.915093 39.061103 
" clip-path="url(#p70647d93e4)" style="fill: none; stroke: #000000; stroke-width: 1.5; stroke-linecap: square"/>
   </g>
   <g id="line2d_37">
    <path d="M 429.835961 39.061103 
L 429.835961 36.953271 
L 463.116539 36.953271 
L 463.116539 39.061103 
" clip-path="url(#p70647d93e4)" style="fill: none; stroke: #000000; stroke-width: 1.5; stroke-linecap: square"/>
   </g>
   <g id="line2d_38">
    <path d="M 513.037407 39.061103 
L 513.037407 36.953271 
L 546.317986 36.953271 
L 546.317986 39.061103 
" clip-path="url(#p70647d93e4)" style="fill: none; stroke: #000000; stroke-width: 1.5; stroke-linecap: square"/>
   </g>
   <g id="line2d_39">
    <path d="M 596.238853 39.061103 
L 596.238853 36.953271 
L 629.519432 36.953271 
L 629.519432 39.061103 
" clip-path="url(#p70647d93e4)" style="fill: none; stroke: #000000; stroke-width: 1.5; stroke-linecap: square"/>
   </g>
   <g id="line2d_40">
    <path d="M 679.4403 39.061103 
L 679.4403 36.953271 
L 712.720878 36.953271 
L 712.720878 39.061103 
" clip-path="url(#p70647d93e4)" style="fill: none; stroke: #000000; stroke-width: 1.5; stroke-linecap: square"/>
   </g>
   <g id="line2d_41">
    <path d="M 762.641746 39.061103 
L 762.641746 36.953271 
L 795.922324 36.953271 
L 795.922324 39.061103 
" clip-path="url(#p70647d93e4)" style="fill: none; stroke: #000000; stroke-width: 1.5; stroke-linecap: square"/>
   </g>
   <g id="patch_21">
    <path d="M 43.78125 295.042001 
L 43.78125 84.258736 
" style="fill: none; stroke: #000000; stroke-width: 0.8; stroke-linejoin: miter; stroke-linecap: square"/>
   </g>
   <g id="patch_22">
    <path d="M 113.670465 295.042001 
L 779.282035 295.042001 
" style="fill: none; stroke: #000000; stroke-width: 0.8; stroke-linejoin: miter; stroke-linecap: square"/>
   </g>
   <g id="PathCollection_1">
    <defs>
     <path id="C0_0_ffb03e8d91" d="M 0 2.5 
C 0.663008 2.5 1.29895 2.236584 1.767767 1.767767 
C 2.236584 1.29895 2.5 0.663008 2.5 -0 
C 2.5 -0.663008 2.236584 -1.29895 1.767767 -1.767767 
C 1.29895 -2.236584 0.663008 -2.5 0 -2.5 
C -0.663008 -2.5 -1.29895 -2.236584 -1.767767 -1.767767 
C -2.236584 -1.29895 -2.5 -0.663008 -2.5 0 
C -2.5 0.663008 -2.236584 1.29895 -1.767767 1.767767 
C -1.29895 2.236584 -0.663008 2.5 0 2.5 
z
"/>
    </defs>
    <g clip-path="url(#p70647d93e4)">
     <use xlink:href="#C0_0_ffb03e8d91" x="94.197765" y="248.799237" style="fill-opacity: 0.3"/>
    </g>
    <g clip-path="url(#p70647d93e4)">
     <use xlink:href="#C0_0_ffb03e8d91" x="98.607957" y="236.681148" style="fill-opacity: 0.3"/>
    </g>
    <g clip-path="url(#p70647d93e4)">
     <use xlink:href="#C0_0_ffb03e8d91" x="100.276207" y="234.213279" style="fill-opacity: 0.3"/>
    </g>
    <g clip-path="url(#p70647d93e4)">
     <use xlink:href="#C0_0_ffb03e8d91" x="93.933444" y="160.968622" style="fill-opacity: 0.3"/>
    </g>
    <g clip-path="url(#p70647d93e4)">
     <use xlink:href="#C0_0_ffb03e8d91" x="97.4259" y="221.210161" style="fill-opacity: 0.3"/>
    </g>
    <g clip-path="url(#p70647d93e4)">
     <use xlink:href="#C0_0_ffb03e8d91" x="96.510436" y="237.634257" style="fill-opacity: 0.3"/>
    </g>
    <g clip-path="url(#p70647d93e4)">
     <use xlink:href="#C0_0_ffb03e8d91" x="93.605421" y="198.87169" style="fill-opacity: 0.3"/>
    </g>
    <g clip-path="url(#p70647d93e4)">
     <use xlink:href="#C0_0_ffb03e8d91" x="93.694071" y="252.143626" style="fill-opacity: 0.3"/>
    </g>
    <g clip-path="url(#p70647d93e4)">
     <use xlink:href="#C0_0_ffb03e8d91" x="95.912327" y="135.200663" style="fill-opacity: 0.3"/>
    </g>
    <g clip-path="url(#p70647d93e4)">
     <use xlink:href="#C0_0_ffb03e8d91" x="97.851777" y="98.693218" style="fill-opacity: 0.3"/>
    </g>
    <g clip-path="url(#p70647d93e4)">
     <use xlink:href="#C0_0_ffb03e8d91" x="98.940879" y="201.2885" style="fill-opacity: 0.3"/>
    </g>
    <g clip-path="url(#p70647d93e4)">
     <use xlink:href="#C0_0_ffb03e8d91" x="98.867439" y="235.855689" style="fill-opacity: 0.3"/>
    </g>
    <g clip-path="url(#p70647d93e4)">
     <use xlink:href="#C0_0_ffb03e8d91" x="99.925064" y="202.505414" style="fill-opacity: 0.3"/>
    </g>
    <g clip-path="url(#p70647d93e4)">
     <use xlink:href="#C0_0_ffb03e8d91" x="98.183246" y="95.35734" style="fill-opacity: 0.3"/>
    </g>
    <g clip-path="url(#p70647d93e4)">
     <use xlink:href="#C0_0_ffb03e8d91" x="94.890751" y="85.332685" style="fill-opacity: 0.3"/>
    </g>
   </g>
   <g id="PathCollection_2">
    <defs>
     <path id="C1_0_f288ec2805" d="M 0 2.5 
C 0.663008 2.5 1.29895 2.236584 1.767767 1.767767 
C 2.236584 1.29895 2.5 0.663008 2.5 -0 
C 2.5 -0.663008 2.236584 -1.29895 1.767767 -1.767767 
C 1.29895 -2.236584 0.663008 -2.5 0 -2.5 
C -0.663008 -2.5 -1.29895 -2.236584 -1.767767 -1.767767 
C -2.236584 -1.29895 -2.5 -0.663008 -2.5 0 
C -2.5 0.663008 -2.236584 1.29895 -1.767767 1.767767 
C -1.29895 2.236584 -0.663008 2.5 0 2.5 
z
"/>
    </defs>
    <g clip-path="url(#p70647d93e4)">
     <use xlink:href="#C1_0_f288ec2805" x="133.93494" y="177.792682" style="fill: #ff0000; fill-opacity: 0.3"/>
    </g>
    <g clip-path="url(#p70647d93e4)">
     <use xlink:href="#C1_0_f288ec2805" x="133.960437" y="221.559067" style="fill: #ff0000; fill-opacity: 0.3"/>
    </g>
    <g clip-path="url(#p70647d93e4)">
     <use xlink:href="#C1_0_f288ec2805" x="133.848054" y="160.960112" style="fill: #ff0000; fill-opacity: 0.3"/>
    </g>
    <g clip-path="url(#p70647d93e4)">
     <use xlink:href="#C1_0_f288ec2805" x="133.079892" y="236.025887" style="fill: #ff0000; fill-opacity: 0.3"/>
    </g>
    <g clip-path="url(#p70647d93e4)">
     <use xlink:href="#C1_0_f288ec2805" x="129.155966" y="112.283519" style="fill: #ff0000; fill-opacity: 0.3"/>
    </g>
    <g clip-path="url(#p70647d93e4)">
     <use xlink:href="#C1_0_f288ec2805" x="131.24035" y="132.426438" style="fill: #ff0000; fill-opacity: 0.3"/>
    </g>
    <g clip-path="url(#p70647d93e4)">
     <use xlink:href="#C1_0_f288ec2805" x="127.396839" y="216.708427" style="fill: #ff0000; fill-opacity: 0.3"/>
    </g>
    <g clip-path="url(#p70647d93e4)">
     <use xlink:href="#C1_0_f288ec2805" x="129.175813" y="106.913776" style="fill: #ff0000; fill-opacity: 0.3"/>
    </g>
    <g clip-path="url(#p70647d93e4)">
     <use xlink:href="#C1_0_f288ec2805" x="129.129284" y="135.906984" style="fill: #ff0000; fill-opacity: 0.3"/>
    </g>
    <g clip-path="url(#p70647d93e4)">
     <use xlink:href="#C1_0_f288ec2805" x="131.641419" y="98.420902" style="fill: #ff0000; fill-opacity: 0.3"/>
    </g>
    <g clip-path="url(#p70647d93e4)">
     <use xlink:href="#C1_0_f288ec2805" x="133.489408" y="227.073478" style="fill: #ff0000; fill-opacity: 0.3"/>
    </g>
   </g>
   <g id="PathCollection_3">
    <defs>
     <path id="C2_0_ac21971a35" d="M 0 2.5 
C 0.663008 2.5 1.29895 2.236584 1.767767 1.767767 
C 2.236584 1.29895 2.5 0.663008 2.5 -0 
C 2.5 -0.663008 2.236584 -1.29895 1.767767 -1.767767 
C 1.29895 -2.236584 0.663008 -2.5 0 -2.5 
C -0.663008 -2.5 -1.29895 -2.236584 -1.767767 -1.767767 
C -2.236584 -1.29895 -2.5 -0.663008 -2.5 0 
C -2.5 0.663008 -2.236584 1.29895 -1.767767 1.767767 
C -1.29895 2.236584 -0.663008 2.5 0 2.5 
z
"/>
    </defs>
    <g clip-path="url(#p70647d93e4)">
     <use xlink:href="#C2_0_ac21971a35" x="176.166973" y="192.887381" style="fill-opacity: 0.3"/>
    </g>
    <g clip-path="url(#p70647d93e4)">
     <use xlink:href="#C2_0_ac21971a35" x="179.101518" y="179.875862" style="fill-opacity: 0.3"/>
    </g>
    <g clip-path="url(#p70647d93e4)">
     <use xlink:href="#C2_0_ac21971a35" x="180.853032" y="222.278826" style="fill-opacity: 0.3"/>
    </g>
    <g clip-path="url(#p70647d93e4)">
     <use xlink:href="#C2_0_ac21971a35" x="182.38939" y="166.207364" style="fill-opacity: 0.3"/>
    </g>
    <g clip-path="url(#p70647d93e4)">
     <use xlink:href="#C2_0_ac21971a35" x="179.635383" y="136.86046" style="fill-opacity: 0.3"/>
    </g>
    <g clip-path="url(#p70647d93e4)">
     <use xlink:href="#C2_0_ac21971a35" x="179.381376" y="217.835868" style="fill-opacity: 0.3"/>
    </g>
    <g clip-path="url(#p70647d93e4)">
     <use xlink:href="#C2_0_ac21971a35" x="177.073847" y="230.563439" style="fill-opacity: 0.3"/>
    </g>
    <g clip-path="url(#p70647d93e4)">
     <use xlink:href="#C2_0_ac21971a35" x="181.184914" y="223.620622" style="fill-opacity: 0.3"/>
    </g>
    <g clip-path="url(#p70647d93e4)">
     <use xlink:href="#C2_0_ac21971a35" x="181.374568" y="203.159632" style="fill-opacity: 0.3"/>
    </g>
    <g clip-path="url(#p70647d93e4)">
     <use xlink:href="#C2_0_ac21971a35" x="179.434252" y="123.214233" style="fill-opacity: 0.3"/>
    </g>
   </g>
   <g id="PathCollection_4">
    <defs>
     <path id="C3_0_a3589faf4f" d="M 0 2.5 
C 0.663008 2.5 1.29895 2.236584 1.767767 1.767767 
C 2.236584 1.29895 2.5 0.663008 2.5 -0 
C 2.5 -0.663008 2.236584 -1.29895 1.767767 -1.767767 
C 1.29895 -2.236584 0.663008 -2.5 0 -2.5 
C -0.663008 -2.5 -1.29895 -2.236584 -1.767767 -1.767767 
C -2.236584 -1.29895 -2.5 -0.663008 -2.5 0 
C -2.5 0.663008 -2.236584 1.29895 -1.767767 1.767767 
C -1.29895 2.236584 -0.663008 2.5 0 2.5 
z
"/>
    </defs>
    <g clip-path="url(#p70647d93e4)">
     <use xlink:href="#C3_0_a3589faf4f" x="216.25958" y="247.511262" style="fill: #ff0000; fill-opacity: 0.3"/>
    </g>
    <g clip-path="url(#p70647d93e4)">
     <use xlink:href="#C3_0_a3589faf4f" x="211.671808" y="219.378098" style="fill: #ff0000; fill-opacity: 0.3"/>
    </g>
    <g clip-path="url(#p70647d93e4)">
     <use xlink:href="#C3_0_a3589faf4f" x="213.057834" y="231.21485" style="fill: #ff0000; fill-opacity: 0.3"/>
    </g>
    <g clip-path="url(#p70647d93e4)">
     <use xlink:href="#C3_0_a3589faf4f" x="215.260597" y="188.026852" style="fill: #ff0000; fill-opacity: 0.3"/>
    </g>
    <g clip-path="url(#p70647d93e4)">
     <use xlink:href="#C3_0_a3589faf4f" x="210.169033" y="275.065394" style="fill: #ff0000; fill-opacity: 0.3"/>
    </g>
    <g clip-path="url(#p70647d93e4)">
     <use xlink:href="#C3_0_a3589faf4f" x="214.712618" y="262.599502" style="fill: #ff0000; fill-opacity: 0.3"/>
    </g>
    <g clip-path="url(#p70647d93e4)">
     <use xlink:href="#C3_0_a3589faf4f" x="211.469329" y="149.070242" style="fill: #ff0000; fill-opacity: 0.3"/>
    </g>
    <g clip-path="url(#p70647d93e4)">
     <use xlink:href="#C3_0_a3589faf4f" x="214.060751" y="256.569774" style="fill: #ff0000; fill-opacity: 0.3"/>
    </g>
    <g clip-path="url(#p70647d93e4)">
     <use xlink:href="#C3_0_a3589faf4f" x="216.252107" y="196.08876" style="fill: #ff0000; fill-opacity: 0.3"/>
    </g>
    <g clip-path="url(#p70647d93e4)">
     <use xlink:href="#C3_0_a3589faf4f" x="211.634621" y="194.958534" style="fill: #ff0000; fill-opacity: 0.3"/>
    </g>
   </g>
   <g id="PathCollection_5">
    <defs>
     <path id="C4_0_02072e6798" d="M 0 2.5 
C 0.663008 2.5 1.29895 2.236584 1.767767 1.767767 
C 2.236584 1.29895 2.5 0.663008 2.5 -0 
C 2.5 -0.663008 2.236584 -1.29895 1.767767 -1.767767 
C 1.29895 -2.236584 0.663008 -2.5 0 -2.5 
C -0.663008 -2.5 -1.29895 -2.236584 -1.767767 -1.767767 
C -2.236584 -1.29895 -2.5 -0.663008 -2.5 0 
C -2.5 0.663008 -2.236584 1.29895 -1.767767 1.767767 
C -1.29895 2.236584 -0.663008 2.5 0 2.5 
z
"/>
    </defs>
    <g clip-path="url(#p70647d93e4)">
     <use xlink:href="#C4_0_02072e6798" x="262.029333" y="218.378443" style="fill-opacity: 0.3"/>
    </g>
    <g clip-path="url(#p70647d93e4)">
     <use xlink:href="#C4_0_02072e6798" x="262.129787" y="225.706849" style="fill-opacity: 0.3"/>
    </g>
    <g clip-path="url(#p70647d93e4)">
     <use xlink:href="#C4_0_02072e6798" x="261.937179" y="176.543265" style="fill-opacity: 0.3"/>
    </g>
    <g clip-path="url(#p70647d93e4)">
     <use xlink:href="#C4_0_02072e6798" x="260.941229" y="218.541883" style="fill-opacity: 0.3"/>
    </g>
    <g clip-path="url(#p70647d93e4)">
     <use xlink:href="#C4_0_02072e6798" x="260.049076" y="162.329321" style="fill-opacity: 0.3"/>
    </g>
    <g clip-path="url(#p70647d93e4)">
     <use xlink:href="#C4_0_02072e6798" x="263.5072" y="95.609197" style="fill-opacity: 0.3"/>
    </g>
    <g clip-path="url(#p70647d93e4)">
     <use xlink:href="#C4_0_02072e6798" x="259.490163" y="267.578933" style="fill-opacity: 0.3"/>
    </g>
    <g clip-path="url(#p70647d93e4)">
     <use xlink:href="#C4_0_02072e6798" x="262.740092" y="155.195988" style="fill-opacity: 0.3"/>
    </g>
    <g clip-path="url(#p70647d93e4)">
     <use xlink:href="#C4_0_02072e6798" x="262.593142" y="224.684035" style="fill-opacity: 0.3"/>
    </g>
    <g clip-path="url(#p70647d93e4)">
     <use xlink:href="#C4_0_02072e6798" x="259.646817" y="206.679356" style="fill-opacity: 0.3"/>
    </g>
    <g clip-path="url(#p70647d93e4)">
     <use xlink:href="#C4_0_02072e6798" x="264.176352" y="188.326708" style="fill-opacity: 0.3"/>
    </g>
    <g clip-path="url(#p70647d93e4)">
     <use xlink:href="#C4_0_02072e6798" x="263.411854" y="191.832744" style="fill-opacity: 0.3"/>
    </g>
    <g clip-path="url(#p70647d93e4)">
     <use xlink:href="#C4_0_02072e6798" x="267.43617" y="177.402639" style="fill-opacity: 0.3"/>
    </g>
    <g clip-path="url(#p70647d93e4)">
     <use xlink:href="#C4_0_02072e6798" x="264.585556" y="169.351937" style="fill-opacity: 0.3"/>
    </g>
    <g clip-path="url(#p70647d93e4)">
     <use xlink:href="#C4_0_02072e6798" x="262.235044" y="165.877535" style="fill-opacity: 0.3"/>
    </g>
    <g clip-path="url(#p70647d93e4)">
     <use xlink:href="#C4_0_02072e6798" x="267.003396" y="190.367063" style="fill-opacity: 0.3"/>
    </g>
   </g>
   <g id="PathCollection_6">
    <defs>
     <path id="C5_0_f0d26c8b1e" d="M 0 2.5 
C 0.663008 2.5 1.29895 2.236584 1.767767 1.767767 
C 2.236584 1.29895 2.5 0.663008 2.5 -0 
C 2.5 -0.663008 2.236584 -1.29895 1.767767 -1.767767 
C 1.29895 -2.236584 0.663008 -2.5 0 -2.5 
C -0.663008 -2.5 -1.29895 -2.236584 -1.767767 -1.767767 
C -2.236584 -1.29895 -2.5 -0.663008 -2.5 0 
C -2.5 0.663008 -2.236584 1.29895 -1.767767 1.767767 
C -1.29895 2.236584 -0.663008 2.5 0 2.5 
z
"/>
    </defs>
    <g clip-path="url(#p70647d93e4)">
     <use xlink:href="#C5_0_f0d26c8b1e" x="294.116786" y="147.688327" style="fill: #ff0000; fill-opacity: 0.3"/>
    </g>
    <g clip-path="url(#p70647d93e4)">
     <use xlink:href="#C5_0_f0d26c8b1e" x="300.48725" y="231.611751" style="fill: #ff0000; fill-opacity: 0.3"/>
    </g>
    <g clip-path="url(#p70647d93e4)">
     <use xlink:href="#C5_0_f0d26c8b1e" x="293.596859" y="176.474726" style="fill: #ff0000; fill-opacity: 0.3"/>
    </g>
    <g clip-path="url(#p70647d93e4)">
     <use xlink:href="#C5_0_f0d26c8b1e" x="298.418546" y="244.976865" style="fill: #ff0000; fill-opacity: 0.3"/>
    </g>
    <g clip-path="url(#p70647d93e4)">
     <use xlink:href="#C5_0_f0d26c8b1e" x="297.266325" y="173.801703" style="fill: #ff0000; fill-opacity: 0.3"/>
    </g>
    <g clip-path="url(#p70647d93e4)">
     <use xlink:href="#C5_0_f0d26c8b1e" x="292.860606" y="213.042942" style="fill: #ff0000; fill-opacity: 0.3"/>
    </g>
    <g clip-path="url(#p70647d93e4)">
     <use xlink:href="#C5_0_f0d26c8b1e" x="297.533874" y="205.044963" style="fill: #ff0000; fill-opacity: 0.3"/>
    </g>
    <g clip-path="url(#p70647d93e4)">
     <use xlink:href="#C5_0_f0d26c8b1e" x="296.167309" y="115.148097" style="fill: #ff0000; fill-opacity: 0.3"/>
    </g>
    <g clip-path="url(#p70647d93e4)">
     <use xlink:href="#C5_0_f0d26c8b1e" x="295.25241" y="153.38234" style="fill: #ff0000; fill-opacity: 0.3"/>
    </g>
    <g clip-path="url(#p70647d93e4)">
     <use xlink:href="#C5_0_f0d26c8b1e" x="300.428863" y="131.381307" style="fill: #ff0000; fill-opacity: 0.3"/>
    </g>
    <g clip-path="url(#p70647d93e4)">
     <use xlink:href="#C5_0_f0d26c8b1e" x="293.8399" y="196.219243" style="fill: #ff0000; fill-opacity: 0.3"/>
    </g>
    <g clip-path="url(#p70647d93e4)">
     <use xlink:href="#C5_0_f0d26c8b1e" x="295.276345" y="215.779232" style="fill: #ff0000; fill-opacity: 0.3"/>
    </g>
    <g clip-path="url(#p70647d93e4)">
     <use xlink:href="#C5_0_f0d26c8b1e" x="296.474652" y="208.466643" style="fill: #ff0000; fill-opacity: 0.3"/>
    </g>
    <g clip-path="url(#p70647d93e4)">
     <use xlink:href="#C5_0_f0d26c8b1e" x="296.051767" y="226.650579" style="fill: #ff0000; fill-opacity: 0.3"/>
    </g>
    <g clip-path="url(#p70647d93e4)">
     <use xlink:href="#C5_0_f0d26c8b1e" x="297.936197" y="87.917008" style="fill: #ff0000; fill-opacity: 0.3"/>
    </g>
    <g clip-path="url(#p70647d93e4)">
     <use xlink:href="#C5_0_f0d26c8b1e" x="295.0265" y="246.895958" style="fill: #ff0000; fill-opacity: 0.3"/>
    </g>
   </g>
   <g id="PathCollection_7">
    <defs>
     <path id="C6_0_5d4f7fdbcd" d="M 0 2.5 
C 0.663008 2.5 1.29895 2.236584 1.767767 1.767767 
C 2.236584 1.29895 2.5 0.663008 2.5 -0 
C 2.5 -0.663008 2.236584 -1.29895 1.767767 -1.767767 
C 1.29895 -2.236584 0.663008 -2.5 0 -2.5 
C -0.663008 -2.5 -1.29895 -2.236584 -1.767767 -1.767767 
C -2.236584 -1.29895 -2.5 -0.663008 -2.5 0 
C -2.5 0.663008 -2.236584 1.29895 -1.767767 1.767767 
C -1.29895 2.236584 -0.663008 2.5 0 2.5 
z
"/>
    </defs>
    <g clip-path="url(#p70647d93e4)">
     <use xlink:href="#C6_0_5d4f7fdbcd" x="349.182223" y="174.250147" style="fill-opacity: 0.3"/>
    </g>
    <g clip-path="url(#p70647d93e4)">
     <use xlink:href="#C6_0_5d4f7fdbcd" x="342.86741" y="199.744543" style="fill-opacity: 0.3"/>
    </g>
    <g clip-path="url(#p70647d93e4)">
     <use xlink:href="#C6_0_5d4f7fdbcd" x="346.019174" y="185.802956" style="fill-opacity: 0.3"/>
    </g>
    <g clip-path="url(#p70647d93e4)">
     <use xlink:href="#C6_0_5d4f7fdbcd" x="343.782861" y="241.928677" style="fill-opacity: 0.3"/>
    </g>
    <g clip-path="url(#p70647d93e4)">
     <use xlink:href="#C6_0_5d4f7fdbcd" x="342.992464" y="230.428718" style="fill-opacity: 0.3"/>
    </g>
    <g clip-path="url(#p70647d93e4)">
     <use xlink:href="#C6_0_5d4f7fdbcd" x="347.694674" y="173.917198" style="fill-opacity: 0.3"/>
    </g>
    <g clip-path="url(#p70647d93e4)">
     <use xlink:href="#C6_0_5d4f7fdbcd" x="347.853806" y="253.51848" style="fill-opacity: 0.3"/>
    </g>
    <g clip-path="url(#p70647d93e4)">
     <use xlink:href="#C6_0_5d4f7fdbcd" x="349.056459" y="250.331681" style="fill-opacity: 0.3"/>
    </g>
    <g clip-path="url(#p70647d93e4)">
     <use xlink:href="#C6_0_5d4f7fdbcd" x="349.340291" y="160.282136" style="fill-opacity: 0.3"/>
    </g>
    <g clip-path="url(#p70647d93e4)">
     <use xlink:href="#C6_0_5d4f7fdbcd" x="346.206977" y="125.026515" style="fill-opacity: 0.3"/>
    </g>
    <g clip-path="url(#p70647d93e4)">
     <use xlink:href="#C6_0_5d4f7fdbcd" x="344.143835" y="119.408658" style="fill-opacity: 0.3"/>
    </g>
    <g clip-path="url(#p70647d93e4)">
     <use xlink:href="#C6_0_5d4f7fdbcd" x="346.31805" y="161.164715" style="fill-opacity: 0.3"/>
    </g>
   </g>
   <g id="PathCollection_8">
    <defs>
     <path id="C7_0_86e559bc92" d="M 0 2.5 
C 0.663008 2.5 1.29895 2.236584 1.767767 1.767767 
C 2.236584 1.29895 2.5 0.663008 2.5 -0 
C 2.5 -0.663008 2.236584 -1.29895 1.767767 -1.767767 
C 1.29895 -2.236584 0.663008 -2.5 0 -2.5 
C -0.663008 -2.5 -1.29895 -2.236584 -1.767767 -1.767767 
C -2.236584 -1.29895 -2.5 -0.663008 -2.5 0 
C -2.5 0.663008 -2.236584 1.29895 -1.767767 1.767767 
C -1.29895 2.236584 -0.663008 2.5 0 2.5 
z
"/>
    </defs>
    <g clip-path="url(#p70647d93e4)">
     <use xlink:href="#C7_0_86e559bc92" x="378.192969" y="230.31245" style="fill: #ff0000; fill-opacity: 0.3"/>
    </g>
    <g clip-path="url(#p70647d93e4)">
     <use xlink:href="#C7_0_86e559bc92" x="382.24303" y="177.653628" style="fill: #ff0000; fill-opacity: 0.3"/>
    </g>
    <g clip-path="url(#p70647d93e4)">
     <use xlink:href="#C7_0_86e559bc92" x="382.382665" y="180.042406" style="fill: #ff0000; fill-opacity: 0.3"/>
    </g>
    <g clip-path="url(#p70647d93e4)">
     <use xlink:href="#C7_0_86e559bc92" x="376.628001" y="218.770211" style="fill: #ff0000; fill-opacity: 0.3"/>
    </g>
    <g clip-path="url(#p70647d93e4)">
     <use xlink:href="#C7_0_86e559bc92" x="383.377047" y="109.076663" style="fill: #ff0000; fill-opacity: 0.3"/>
    </g>
    <g clip-path="url(#p70647d93e4)">
     <use xlink:href="#C7_0_86e559bc92" x="379.206808" y="109.689713" style="fill: #ff0000; fill-opacity: 0.3"/>
    </g>
    <g clip-path="url(#p70647d93e4)">
     <use xlink:href="#C7_0_86e559bc92" x="379.382714" y="236.575065" style="fill: #ff0000; fill-opacity: 0.3"/>
    </g>
    <g clip-path="url(#p70647d93e4)">
     <use xlink:href="#C7_0_86e559bc92" x="380.791803" y="210.885128" style="fill: #ff0000; fill-opacity: 0.3"/>
    </g>
    <g clip-path="url(#p70647d93e4)">
     <use xlink:href="#C7_0_86e559bc92" x="381.427046" y="157.877503" style="fill: #ff0000; fill-opacity: 0.3"/>
    </g>
    <g clip-path="url(#p70647d93e4)">
     <use xlink:href="#C7_0_86e559bc92" x="383.286476" y="204.966032" style="fill: #ff0000; fill-opacity: 0.3"/>
    </g>
    <g clip-path="url(#p70647d93e4)">
     <use xlink:href="#C7_0_86e559bc92" x="377.642436" y="217.787218" style="fill: #ff0000; fill-opacity: 0.3"/>
    </g>
    <g clip-path="url(#p70647d93e4)">
     <use xlink:href="#C7_0_86e559bc92" x="377.774009" y="231.628392" style="fill: #ff0000; fill-opacity: 0.3"/>
    </g>
    <g clip-path="url(#p70647d93e4)">
     <use xlink:href="#C7_0_86e559bc92" x="381.031522" y="191.727337" style="fill: #ff0000; fill-opacity: 0.3"/>
    </g>
    <g clip-path="url(#p70647d93e4)">
     <use xlink:href="#C7_0_86e559bc92" x="380.94672" y="169.768545" style="fill: #ff0000; fill-opacity: 0.3"/>
    </g>
    <g clip-path="url(#p70647d93e4)">
     <use xlink:href="#C7_0_86e559bc92" x="379.49402" y="212.016099" style="fill: #ff0000; fill-opacity: 0.3"/>
    </g>
    <g clip-path="url(#p70647d93e4)">
     <use xlink:href="#C7_0_86e559bc92" x="382.589779" y="234.085874" style="fill: #ff0000; fill-opacity: 0.3"/>
    </g>
    <g clip-path="url(#p70647d93e4)">
     <use xlink:href="#C7_0_86e559bc92" x="381.186659" y="222.485501" style="fill: #ff0000; fill-opacity: 0.3"/>
    </g>
    <g clip-path="url(#p70647d93e4)">
     <use xlink:href="#C7_0_86e559bc92" x="377.198108" y="212.592154" style="fill: #ff0000; fill-opacity: 0.3"/>
    </g>
    <g clip-path="url(#p70647d93e4)">
     <use xlink:href="#C7_0_86e559bc92" x="377.274844" y="194.211244" style="fill: #ff0000; fill-opacity: 0.3"/>
    </g>
   </g>
   <g id="PathCollection_9">
    <defs>
     <path id="C8_0_f7883d7ec5" d="M 0 2.5 
C 0.663008 2.5 1.29895 2.236584 1.767767 1.767767 
C 2.236584 1.29895 2.5 0.663008 2.5 -0 
C 2.5 -0.663008 2.236584 -1.29895 1.767767 -1.767767 
C 1.29895 -2.236584 0.663008 -2.5 0 -2.5 
C -0.663008 -2.5 -1.29895 -2.236584 -1.767767 -1.767767 
C -2.236584 -1.29895 -2.5 -0.663008 -2.5 0 
C -2.5 0.663008 -2.236584 1.29895 -1.767767 1.767767 
C -1.29895 2.236584 -0.663008 2.5 0 2.5 
z
"/>
    </defs>
    <g clip-path="url(#p70647d93e4)">
     <use xlink:href="#C8_0_f7883d7ec5" x="427.309801" y="130.176478" style="fill-opacity: 0.3"/>
    </g>
    <g clip-path="url(#p70647d93e4)">
     <use xlink:href="#C8_0_f7883d7ec5" x="427.523097" y="235.136793" style="fill-opacity: 0.3"/>
    </g>
    <g clip-path="url(#p70647d93e4)">
     <use xlink:href="#C8_0_f7883d7ec5" x="426.214511" y="216.919219" style="fill-opacity: 0.3"/>
    </g>
    <g clip-path="url(#p70647d93e4)">
     <use xlink:href="#C8_0_f7883d7ec5" x="428.239844" y="223.564704" style="fill-opacity: 0.3"/>
    </g>
    <g clip-path="url(#p70647d93e4)">
     <use xlink:href="#C8_0_f7883d7ec5" x="427.965254" y="229.750116" style="fill-opacity: 0.3"/>
    </g>
    <g clip-path="url(#p70647d93e4)">
     <use xlink:href="#C8_0_f7883d7ec5" x="428.127855" y="95.012919" style="fill-opacity: 0.3"/>
    </g>
    <g clip-path="url(#p70647d93e4)">
     <use xlink:href="#C8_0_f7883d7ec5" x="433.904151" y="240.549029" style="fill-opacity: 0.3"/>
    </g>
    <g clip-path="url(#p70647d93e4)">
     <use xlink:href="#C8_0_f7883d7ec5" x="426.209161" y="212.376008" style="fill-opacity: 0.3"/>
    </g>
    <g clip-path="url(#p70647d93e4)">
     <use xlink:href="#C8_0_f7883d7ec5" x="429.477247" y="131.256369" style="fill-opacity: 0.3"/>
    </g>
    <g clip-path="url(#p70647d93e4)">
     <use xlink:href="#C8_0_f7883d7ec5" x="431.838752" y="179.768405" style="fill-opacity: 0.3"/>
    </g>
    <g clip-path="url(#p70647d93e4)">
     <use xlink:href="#C8_0_f7883d7ec5" x="426.597104" y="210.197056" style="fill-opacity: 0.3"/>
    </g>
    <g clip-path="url(#p70647d93e4)">
     <use xlink:href="#C8_0_f7883d7ec5" x="432.448689" y="171.097326" style="fill-opacity: 0.3"/>
    </g>
   </g>
   <g id="PathCollection_10">
    <defs>
     <path id="C9_0_2b3ab606d5" d="M 0 2.5 
C 0.663008 2.5 1.29895 2.236584 1.767767 1.767767 
C 2.236584 1.29895 2.5 0.663008 2.5 -0 
C 2.5 -0.663008 2.236584 -1.29895 1.767767 -1.767767 
C 1.29895 -2.236584 0.663008 -2.5 0 -2.5 
C -0.663008 -2.5 -1.29895 -2.236584 -1.767767 -1.767767 
C -2.236584 -1.29895 -2.5 -0.663008 -2.5 0 
C -2.5 0.663008 -2.236584 1.29895 -1.767767 1.767767 
C -1.29895 2.236584 -0.663008 2.5 0 2.5 
z
"/>
    </defs>
    <g clip-path="url(#p70647d93e4)">
     <use xlink:href="#C9_0_2b3ab606d5" x="463.94892" y="252.133897" style="fill: #ff0000; fill-opacity: 0.3"/>
    </g>
    <g clip-path="url(#p70647d93e4)">
     <use xlink:href="#C9_0_2b3ab606d5" x="463.427509" y="285.444388" style="fill: #ff0000; fill-opacity: 0.3"/>
    </g>
    <g clip-path="url(#p70647d93e4)">
     <use xlink:href="#C9_0_2b3ab606d5" x="462.855741" y="287.316625" style="fill: #ff0000; fill-opacity: 0.3"/>
    </g>
    <g clip-path="url(#p70647d93e4)">
     <use xlink:href="#C9_0_2b3ab606d5" x="466.11731" y="248.894223" style="fill: #ff0000; fill-opacity: 0.3"/>
    </g>
    <g clip-path="url(#p70647d93e4)">
     <use xlink:href="#C9_0_2b3ab606d5" x="462.698296" y="267.201255" style="fill: #ff0000; fill-opacity: 0.3"/>
    </g>
    <g clip-path="url(#p70647d93e4)">
     <use xlink:href="#C9_0_2b3ab606d5" x="461.013754" y="282.46031" style="fill: #ff0000; fill-opacity: 0.3"/>
    </g>
    <g clip-path="url(#p70647d93e4)">
     <use xlink:href="#C9_0_2b3ab606d5" x="462.376014" y="281.648794" style="fill: #ff0000; fill-opacity: 0.3"/>
    </g>
    <g clip-path="url(#p70647d93e4)">
     <use xlink:href="#C9_0_2b3ab606d5" x="466.576181" y="244.996391" style="fill: #ff0000; fill-opacity: 0.3"/>
    </g>
    <g clip-path="url(#p70647d93e4)">
     <use xlink:href="#C9_0_2b3ab606d5" x="461.364176" y="271.891434" style="fill: #ff0000; fill-opacity: 0.3"/>
    </g>
    <g clip-path="url(#p70647d93e4)">
     <use xlink:href="#C9_0_2b3ab606d5" x="463.090463" y="226.548782" style="fill: #ff0000; fill-opacity: 0.3"/>
    </g>
    <g clip-path="url(#p70647d93e4)">
     <use xlink:href="#C9_0_2b3ab606d5" x="464.102099" y="197.723993" style="fill: #ff0000; fill-opacity: 0.3"/>
    </g>
    <g clip-path="url(#p70647d93e4)">
     <use xlink:href="#C9_0_2b3ab606d5" x="464.084252" y="192.835728" style="fill: #ff0000; fill-opacity: 0.3"/>
    </g>
   </g>
   <g id="PathCollection_11">
    <defs>
     <path id="Ca_0_7b2dc93f94" d="M 0 2.5 
C 0.663008 2.5 1.29895 2.236584 1.767767 1.767767 
C 2.236584 1.29895 2.5 0.663008 2.5 -0 
C 2.5 -0.663008 2.236584 -1.29895 1.767767 -1.767767 
C 1.29895 -2.236584 0.663008 -2.5 0 -2.5 
C -0.663008 -2.5 -1.29895 -2.236584 -1.767767 -1.767767 
C -2.236584 -1.29895 -2.5 -0.663008 -2.5 0 
C -2.5 0.663008 -2.236584 1.29895 -1.767767 1.767767 
C -1.29895 2.236584 -0.663008 2.5 0 2.5 
z
"/>
    </defs>
    <g clip-path="url(#p70647d93e4)">
     <use xlink:href="#Ca_0_7b2dc93f94" x="511.010671" y="225.070454" style="fill-opacity: 0.3"/>
    </g>
    <g clip-path="url(#p70647d93e4)">
     <use xlink:href="#Ca_0_7b2dc93f94" x="512.863795" y="249.082659" style="fill-opacity: 0.3"/>
    </g>
    <g clip-path="url(#p70647d93e4)">
     <use xlink:href="#Ca_0_7b2dc93f94" x="517.053536" y="209.151835" style="fill-opacity: 0.3"/>
    </g>
    <g clip-path="url(#p70647d93e4)">
     <use xlink:href="#Ca_0_7b2dc93f94" x="511.413245" y="156.034208" style="fill-opacity: 0.3"/>
    </g>
    <g clip-path="url(#p70647d93e4)">
     <use xlink:href="#Ca_0_7b2dc93f94" x="510.305458" y="171.31849" style="fill-opacity: 0.3"/>
    </g>
    <g clip-path="url(#p70647d93e4)">
     <use xlink:href="#Ca_0_7b2dc93f94" x="513.509521" y="138.328332" style="fill-opacity: 0.3"/>
    </g>
    <g clip-path="url(#p70647d93e4)">
     <use xlink:href="#Ca_0_7b2dc93f94" x="517.060468" y="143.523414" style="fill-opacity: 0.3"/>
    </g>
    <g clip-path="url(#p70647d93e4)">
     <use xlink:href="#Ca_0_7b2dc93f94" x="509.846799" y="165.757623" style="fill-opacity: 0.3"/>
    </g>
    <g clip-path="url(#p70647d93e4)">
     <use xlink:href="#Ca_0_7b2dc93f94" x="512.959278" y="218.750235" style="fill-opacity: 0.3"/>
    </g>
    <g clip-path="url(#p70647d93e4)">
     <use xlink:href="#Ca_0_7b2dc93f94" x="515.409424" y="219.486436" style="fill-opacity: 0.3"/>
    </g>
   </g>
   <g id="PathCollection_12">
    <defs>
     <path id="Cb_0_c73163a8b5" d="M 0 2.5 
C 0.663008 2.5 1.29895 2.236584 1.767767 1.767767 
C 2.236584 1.29895 2.5 0.663008 2.5 -0 
C 2.5 -0.663008 2.236584 -1.29895 1.767767 -1.767767 
C 1.29895 -2.236584 0.663008 -2.5 0 -2.5 
C -0.663008 -2.5 -1.29895 -2.236584 -1.767767 -1.767767 
C -2.236584 -1.29895 -2.5 -0.663008 -2.5 0 
C -2.5 0.663008 -2.236584 1.29895 -1.767767 1.767767 
C -1.29895 2.236584 -0.663008 2.5 0 2.5 
z
"/>
    </defs>
    <g clip-path="url(#p70647d93e4)">
     <use xlink:href="#Cb_0_c73163a8b5" x="544.986393" y="235.784732" style="fill: #ff0000; fill-opacity: 0.3"/>
    </g>
    <g clip-path="url(#p70647d93e4)">
     <use xlink:href="#Cb_0_c73163a8b5" x="545.638532" y="261.431396" style="fill: #ff0000; fill-opacity: 0.3"/>
    </g>
    <g clip-path="url(#p70647d93e4)">
     <use xlink:href="#Cb_0_c73163a8b5" x="546.609715" y="223.32024" style="fill: #ff0000; fill-opacity: 0.3"/>
    </g>
    <g clip-path="url(#p70647d93e4)">
     <use xlink:href="#Cb_0_c73163a8b5" x="543.593011" y="236.164408" style="fill: #ff0000; fill-opacity: 0.3"/>
    </g>
    <g clip-path="url(#p70647d93e4)">
     <use xlink:href="#Cb_0_c73163a8b5" x="545.804169" y="201.623134" style="fill: #ff0000; fill-opacity: 0.3"/>
    </g>
    <g clip-path="url(#p70647d93e4)">
     <use xlink:href="#Cb_0_c73163a8b5" x="543.100563" y="232.136136" style="fill: #ff0000; fill-opacity: 0.3"/>
    </g>
    <g clip-path="url(#p70647d93e4)">
     <use xlink:href="#Cb_0_c73163a8b5" x="548.259635" y="274.86823" style="fill: #ff0000; fill-opacity: 0.3"/>
    </g>
    <g clip-path="url(#p70647d93e4)">
     <use xlink:href="#Cb_0_c73163a8b5" x="544.144939" y="284.698139" style="fill: #ff0000; fill-opacity: 0.3"/>
    </g>
    <g clip-path="url(#p70647d93e4)">
     <use xlink:href="#Cb_0_c73163a8b5" x="546.690823" y="258.421768" style="fill: #ff0000; fill-opacity: 0.3"/>
    </g>
    <g clip-path="url(#p70647d93e4)">
     <use xlink:href="#Cb_0_c73163a8b5" x="545.427302" y="252.189522" style="fill: #ff0000; fill-opacity: 0.3"/>
    </g>
   </g>
   <g id="PathCollection_13">
    <defs>
     <path id="Cc_0_c53f7efad9" d="M 0 2.5 
C 0.663008 2.5 1.29895 2.236584 1.767767 1.767767 
C 2.236584 1.29895 2.5 0.663008 2.5 -0 
C 2.5 -0.663008 2.236584 -1.29895 1.767767 -1.767767 
C 1.29895 -2.236584 0.663008 -2.5 0 -2.5 
C -0.663008 -2.5 -1.29895 -2.236584 -1.767767 -1.767767 
C -2.236584 -1.29895 -2.5 -0.663008 -2.5 0 
C -2.5 0.663008 -2.236584 1.29895 -1.767767 1.767767 
C -1.29895 2.236584 -0.663008 2.5 0 2.5 
z
"/>
    </defs>
    <g clip-path="url(#p70647d93e4)">
     <use xlink:href="#Cc_0_c53f7efad9" x="598.224159" y="237.783216" style="fill-opacity: 0.3"/>
    </g>
    <g clip-path="url(#p70647d93e4)">
     <use xlink:href="#Cc_0_c53f7efad9" x="592.248963" y="245.999494" style="fill-opacity: 0.3"/>
    </g>
    <g clip-path="url(#p70647d93e4)">
     <use xlink:href="#Cc_0_c53f7efad9" x="592.126342" y="166.541448" style="fill-opacity: 0.3"/>
    </g>
    <g clip-path="url(#p70647d93e4)">
     <use xlink:href="#Cc_0_c53f7efad9" x="596.850193" y="114.641105" style="fill-opacity: 0.3"/>
    </g>
    <g clip-path="url(#p70647d93e4)">
     <use xlink:href="#Cc_0_c53f7efad9" x="597.913923" y="199.687242" style="fill-opacity: 0.3"/>
    </g>
    <g clip-path="url(#p70647d93e4)">
     <use xlink:href="#Cc_0_c53f7efad9" x="599.881221" y="188.715193" style="fill-opacity: 0.3"/>
    </g>
    <g clip-path="url(#p70647d93e4)">
     <use xlink:href="#Cc_0_c53f7efad9" x="597.478839" y="170.330632" style="fill-opacity: 0.3"/>
    </g>
    <g clip-path="url(#p70647d93e4)">
     <use xlink:href="#Cc_0_c53f7efad9" x="595.064955" y="177.220058" style="fill-opacity: 0.3"/>
    </g>
    <g clip-path="url(#p70647d93e4)">
     <use xlink:href="#Cc_0_c53f7efad9" x="599.184231" y="189.506201" style="fill-opacity: 0.3"/>
    </g>
    <g clip-path="url(#p70647d93e4)">
     <use xlink:href="#Cc_0_c53f7efad9" x="598.216594" y="206.079098" style="fill-opacity: 0.3"/>
    </g>
   </g>
   <g id="PathCollection_14">
    <defs>
     <path id="Cd_0_3b036b3b7c" d="M 0 2.5 
C 0.663008 2.5 1.29895 2.236584 1.767767 1.767767 
C 2.236584 1.29895 2.5 0.663008 2.5 -0 
C 2.5 -0.663008 2.236584 -1.29895 1.767767 -1.767767 
C 1.29895 -2.236584 0.663008 -2.5 0 -2.5 
C -0.663008 -2.5 -1.29895 -2.236584 -1.767767 -1.767767 
C -2.236584 -1.29895 -2.5 -0.663008 -2.5 0 
C -2.5 0.663008 -2.236584 1.29895 -1.767767 1.767767 
C -1.29895 2.236584 -0.663008 2.5 0 2.5 
z
"/>
    </defs>
    <g clip-path="url(#p70647d93e4)">
     <use xlink:href="#Cd_0_3b036b3b7c" x="629.578306" y="147.148989" style="fill: #ff0000; fill-opacity: 0.3"/>
    </g>
    <g clip-path="url(#p70647d93e4)">
     <use xlink:href="#Cd_0_3b036b3b7c" x="629.369295" y="233.164749" style="fill: #ff0000; fill-opacity: 0.3"/>
    </g>
    <g clip-path="url(#p70647d93e4)">
     <use xlink:href="#Cd_0_3b036b3b7c" x="632.48702" y="107.126527" style="fill: #ff0000; fill-opacity: 0.3"/>
    </g>
    <g clip-path="url(#p70647d93e4)">
     <use xlink:href="#Cd_0_3b036b3b7c" x="626.838085" y="120.395051" style="fill: #ff0000; fill-opacity: 0.3"/>
    </g>
    <g clip-path="url(#p70647d93e4)">
     <use xlink:href="#Cd_0_3b036b3b7c" x="632.514695" y="120.981928" style="fill: #ff0000; fill-opacity: 0.3"/>
    </g>
    <g clip-path="url(#p70647d93e4)">
     <use xlink:href="#Cd_0_3b036b3b7c" x="632.333104" y="171.045091" style="fill: #ff0000; fill-opacity: 0.3"/>
    </g>
    <g clip-path="url(#p70647d93e4)">
     <use xlink:href="#Cd_0_3b036b3b7c" x="629.483651" y="143.308772" style="fill: #ff0000; fill-opacity: 0.3"/>
    </g>
    <g clip-path="url(#p70647d93e4)">
     <use xlink:href="#Cd_0_3b036b3b7c" x="631.122963" y="148.679973" style="fill: #ff0000; fill-opacity: 0.3"/>
    </g>
    <g clip-path="url(#p70647d93e4)">
     <use xlink:href="#Cd_0_3b036b3b7c" x="628.457377" y="44.330685" style="fill: #ff0000; fill-opacity: 0.3"/>
    </g>
   </g>
   <g id="PathCollection_15">
    <defs>
     <path id="Ce_0_d7dbae4967" d="M 0 2.5 
C 0.663008 2.5 1.29895 2.236584 1.767767 1.767767 
C 2.236584 1.29895 2.5 0.663008 2.5 -0 
C 2.5 -0.663008 2.236584 -1.29895 1.767767 -1.767767 
C 1.29895 -2.236584 0.663008 -2.5 0 -2.5 
C -0.663008 -2.5 -1.29895 -2.236584 -1.767767 -1.767767 
C -2.236584 -1.29895 -2.5 -0.663008 -2.5 0 
C -2.5 0.663008 -2.236584 1.29895 -1.767767 1.767767 
C -1.29895 2.236584 -0.663008 2.5 0 2.5 
z
"/>
    </defs>
    <g clip-path="url(#p70647d93e4)">
     <use xlink:href="#Ce_0_d7dbae4967" x="681.778446" y="221.405439" style="fill-opacity: 0.3"/>
    </g>
    <g clip-path="url(#p70647d93e4)">
     <use xlink:href="#Ce_0_d7dbae4967" x="676.419351" y="228.60809" style="fill-opacity: 0.3"/>
    </g>
    <g clip-path="url(#p70647d93e4)">
     <use xlink:href="#Ce_0_d7dbae4967" x="681.811025" y="143.207797" style="fill-opacity: 0.3"/>
    </g>
    <g clip-path="url(#p70647d93e4)">
     <use xlink:href="#Ce_0_d7dbae4967" x="676.451653" y="229.599239" style="fill-opacity: 0.3"/>
    </g>
    <g clip-path="url(#p70647d93e4)">
     <use xlink:href="#Ce_0_d7dbae4967" x="679.998961" y="162.214542" style="fill-opacity: 0.3"/>
    </g>
    <g clip-path="url(#p70647d93e4)">
     <use xlink:href="#Ce_0_d7dbae4967" x="679.737229" y="178.929535" style="fill-opacity: 0.3"/>
    </g>
    <g clip-path="url(#p70647d93e4)">
     <use xlink:href="#Ce_0_d7dbae4967" x="679.524069" y="223.943858" style="fill-opacity: 0.3"/>
    </g>
    <g clip-path="url(#p70647d93e4)">
     <use xlink:href="#Ce_0_d7dbae4967" x="677.757049" y="135.063331" style="fill-opacity: 0.3"/>
    </g>
    <g clip-path="url(#p70647d93e4)">
     <use xlink:href="#Ce_0_d7dbae4967" x="679.590058" y="249.390831" style="fill-opacity: 0.3"/>
    </g>
    <g clip-path="url(#p70647d93e4)">
     <use xlink:href="#Ce_0_d7dbae4967" x="677.449845" y="119.80591" style="fill-opacity: 0.3"/>
    </g>
    <g clip-path="url(#p70647d93e4)">
     <use xlink:href="#Ce_0_d7dbae4967" x="679.1342" y="195.918103" style="fill-opacity: 0.3"/>
    </g>
    <g clip-path="url(#p70647d93e4)">
     <use xlink:href="#Ce_0_d7dbae4967" x="679.073773" y="185.257642" style="fill-opacity: 0.3"/>
    </g>
    <g clip-path="url(#p70647d93e4)">
     <use xlink:href="#Ce_0_d7dbae4967" x="677.298911" y="192.110475" style="fill-opacity: 0.3"/>
    </g>
   </g>
   <g id="PathCollection_16">
    <defs>
     <path id="Cf_0_98707f63f6" d="M 0 2.5 
C 0.663008 2.5 1.29895 2.236584 1.767767 1.767767 
C 2.236584 1.29895 2.5 0.663008 2.5 -0 
C 2.5 -0.663008 2.236584 -1.29895 1.767767 -1.767767 
C 1.29895 -2.236584 0.663008 -2.5 0 -2.5 
C -0.663008 -2.5 -1.29895 -2.236584 -1.767767 -1.767767 
C -2.236584 -1.29895 -2.5 -0.663008 -2.5 0 
C -2.5 0.663008 -2.236584 1.29895 -1.767767 1.767767 
C -1.29895 2.236584 -0.663008 2.5 0 2.5 
z
"/>
    </defs>
    <g clip-path="url(#p70647d93e4)">
     <use xlink:href="#Cf_0_98707f63f6" x="713.799453" y="260.558079" style="fill: #ff0000; fill-opacity: 0.3"/>
    </g>
    <g clip-path="url(#p70647d93e4)">
     <use xlink:href="#Cf_0_98707f63f6" x="712.688957" y="225.181673" style="fill: #ff0000; fill-opacity: 0.3"/>
    </g>
    <g clip-path="url(#p70647d93e4)">
     <use xlink:href="#Cf_0_98707f63f6" x="710.68877" y="259.423414" style="fill: #ff0000; fill-opacity: 0.3"/>
    </g>
    <g clip-path="url(#p70647d93e4)">
     <use xlink:href="#Cf_0_98707f63f6" x="714.383406" y="214.32388" style="fill: #ff0000; fill-opacity: 0.3"/>
    </g>
    <g clip-path="url(#p70647d93e4)">
     <use xlink:href="#Cf_0_98707f63f6" x="715.899419" y="224.28919" style="fill: #ff0000; fill-opacity: 0.3"/>
    </g>
    <g clip-path="url(#p70647d93e4)">
     <use xlink:href="#Cf_0_98707f63f6" x="716.470612" y="232.873171" style="fill: #ff0000; fill-opacity: 0.3"/>
    </g>
    <g clip-path="url(#p70647d93e4)">
     <use xlink:href="#Cf_0_98707f63f6" x="711.38093" y="188.603331" style="fill: #ff0000; fill-opacity: 0.3"/>
    </g>
    <g clip-path="url(#p70647d93e4)">
     <use xlink:href="#Cf_0_98707f63f6" x="709.73877" y="227.186396" style="fill: #ff0000; fill-opacity: 0.3"/>
    </g>
    <g clip-path="url(#p70647d93e4)">
     <use xlink:href="#Cf_0_98707f63f6" x="709.18034" y="238.465765" style="fill: #ff0000; fill-opacity: 0.3"/>
    </g>
    <g clip-path="url(#p70647d93e4)">
     <use xlink:href="#Cf_0_98707f63f6" x="711.705453" y="215.575149" style="fill: #ff0000; fill-opacity: 0.3"/>
    </g>
    <g clip-path="url(#p70647d93e4)">
     <use xlink:href="#Cf_0_98707f63f6" x="710.791518" y="231.64881" style="fill: #ff0000; fill-opacity: 0.3"/>
    </g>
    <g clip-path="url(#p70647d93e4)">
     <use xlink:href="#Cf_0_98707f63f6" x="714.995741" y="181.544196" style="fill: #ff0000; fill-opacity: 0.3"/>
    </g>
    <g clip-path="url(#p70647d93e4)">
     <use xlink:href="#Cf_0_98707f63f6" x="711.626487" y="210.395161" style="fill: #ff0000; fill-opacity: 0.3"/>
    </g>
    <g clip-path="url(#p70647d93e4)">
     <use xlink:href="#Cf_0_98707f63f6" x="711.775224" y="216.458663" style="fill: #ff0000; fill-opacity: 0.3"/>
    </g>
    <g clip-path="url(#p70647d93e4)">
     <use xlink:href="#Cf_0_98707f63f6" x="716.413882" y="251.592887" style="fill: #ff0000; fill-opacity: 0.3"/>
    </g>
    <g clip-path="url(#p70647d93e4)">
     <use xlink:href="#Cf_0_98707f63f6" x="713.55517" y="250.812525" style="fill: #ff0000; fill-opacity: 0.3"/>
    </g>
   </g>
   <g id="PathCollection_17">
    <defs>
     <path id="C10_0_b06d1001ee" d="M 0 2.5 
C 0.663008 2.5 1.29895 2.236584 1.767767 1.767767 
C 2.236584 1.29895 2.5 0.663008 2.5 -0 
C 2.5 -0.663008 2.236584 -1.29895 1.767767 -1.767767 
C 1.29895 -2.236584 0.663008 -2.5 0 -2.5 
C -0.663008 -2.5 -1.29895 -2.236584 -1.767767 -1.767767 
C -2.236584 -1.29895 -2.5 -0.663008 -2.5 0 
C -2.5 0.663008 -2.236584 1.29895 -1.767767 1.767767 
C -1.29895 2.236584 -0.663008 2.5 0 2.5 
z
"/>
    </defs>
    <g clip-path="url(#p70647d93e4)">
     <use xlink:href="#C10_0_b06d1001ee" x="763.021401" y="221.405439" style="fill-opacity: 0.3"/>
    </g>
    <g clip-path="url(#p70647d93e4)">
     <use xlink:href="#C10_0_b06d1001ee" x="761.96807" y="228.60809" style="fill-opacity: 0.3"/>
    </g>
    <g clip-path="url(#p70647d93e4)">
     <use xlink:href="#C10_0_b06d1001ee" x="762.71235" y="143.207797" style="fill-opacity: 0.3"/>
    </g>
    <g clip-path="url(#p70647d93e4)">
     <use xlink:href="#C10_0_b06d1001ee" x="759.197033" y="229.599239" style="fill-opacity: 0.3"/>
    </g>
    <g clip-path="url(#p70647d93e4)">
     <use xlink:href="#C10_0_b06d1001ee" x="761.869491" y="162.214542" style="fill-opacity: 0.3"/>
    </g>
    <g clip-path="url(#p70647d93e4)">
     <use xlink:href="#C10_0_b06d1001ee" x="766.330119" y="178.929535" style="fill-opacity: 0.3"/>
    </g>
    <g clip-path="url(#p70647d93e4)">
     <use xlink:href="#C10_0_b06d1001ee" x="762.660239" y="223.943858" style="fill-opacity: 0.3"/>
    </g>
    <g clip-path="url(#p70647d93e4)">
     <use xlink:href="#C10_0_b06d1001ee" x="763.57096" y="135.063331" style="fill-opacity: 0.3"/>
    </g>
    <g clip-path="url(#p70647d93e4)">
     <use xlink:href="#C10_0_b06d1001ee" x="764.518042" y="249.390831" style="fill-opacity: 0.3"/>
    </g>
    <g clip-path="url(#p70647d93e4)">
     <use xlink:href="#C10_0_b06d1001ee" x="759.31122" y="119.80591" style="fill-opacity: 0.3"/>
    </g>
    <g clip-path="url(#p70647d93e4)">
     <use xlink:href="#C10_0_b06d1001ee" x="759.283535" y="195.918103" style="fill-opacity: 0.3"/>
    </g>
    <g clip-path="url(#p70647d93e4)">
     <use xlink:href="#C10_0_b06d1001ee" x="765.347375" y="185.257642" style="fill-opacity: 0.3"/>
    </g>
    <g clip-path="url(#p70647d93e4)">
     <use xlink:href="#C10_0_b06d1001ee" x="762.292496" y="192.110475" style="fill-opacity: 0.3"/>
    </g>
   </g>
   <g id="PathCollection_18">
    <defs>
     <path id="C11_0_35de359c36" d="M 0 2.5 
C 0.663008 2.5 1.29895 2.236584 1.767767 1.767767 
C 2.236584 1.29895 2.5 0.663008 2.5 -0 
C 2.5 -0.663008 2.236584 -1.29895 1.767767 -1.767767 
C 1.29895 -2.236584 0.663008 -2.5 0 -2.5 
C -0.663008 -2.5 -1.29895 -2.236584 -1.767767 -1.767767 
C -2.236584 -1.29895 -2.5 -0.663008 -2.5 0 
C -2.5 0.663008 -2.236584 1.29895 -1.767767 1.767767 
C -1.29895 2.236584 -0.663008 2.5 0 2.5 
z
"/>
    </defs>
    <g clip-path="url(#p70647d93e4)">
     <use xlink:href="#C11_0_35de359c36" x="799.201678" y="260.558079" style="fill: #ff0000; fill-opacity: 0.3"/>
    </g>
    <g clip-path="url(#p70647d93e4)">
     <use xlink:href="#C11_0_35de359c36" x="798.279638" y="225.181673" style="fill: #ff0000; fill-opacity: 0.3"/>
    </g>
    <g clip-path="url(#p70647d93e4)">
     <use xlink:href="#C11_0_35de359c36" x="792.454004" y="259.423414" style="fill: #ff0000; fill-opacity: 0.3"/>
    </g>
    <g clip-path="url(#p70647d93e4)">
     <use xlink:href="#C11_0_35de359c36" x="795.289907" y="214.32388" style="fill: #ff0000; fill-opacity: 0.3"/>
    </g>
    <g clip-path="url(#p70647d93e4)">
     <use xlink:href="#C11_0_35de359c36" x="797.308436" y="224.28919" style="fill: #ff0000; fill-opacity: 0.3"/>
    </g>
    <g clip-path="url(#p70647d93e4)">
     <use xlink:href="#C11_0_35de359c36" x="799.3827" y="232.873171" style="fill: #ff0000; fill-opacity: 0.3"/>
    </g>
    <g clip-path="url(#p70647d93e4)">
     <use xlink:href="#C11_0_35de359c36" x="793.185541" y="188.603331" style="fill: #ff0000; fill-opacity: 0.3"/>
    </g>
    <g clip-path="url(#p70647d93e4)">
     <use xlink:href="#C11_0_35de359c36" x="792.601153" y="227.186396" style="fill: #ff0000; fill-opacity: 0.3"/>
    </g>
    <g clip-path="url(#p70647d93e4)">
     <use xlink:href="#C11_0_35de359c36" x="792.931268" y="238.465765" style="fill: #ff0000; fill-opacity: 0.3"/>
    </g>
    <g clip-path="url(#p70647d93e4)">
     <use xlink:href="#C11_0_35de359c36" x="795.181899" y="215.575149" style="fill: #ff0000; fill-opacity: 0.3"/>
    </g>
    <g clip-path="url(#p70647d93e4)">
     <use xlink:href="#C11_0_35de359c36" x="794.393523" y="231.64881" style="fill: #ff0000; fill-opacity: 0.3"/>
    </g>
    <g clip-path="url(#p70647d93e4)">
     <use xlink:href="#C11_0_35de359c36" x="795.726087" y="181.544196" style="fill: #ff0000; fill-opacity: 0.3"/>
    </g>
    <g clip-path="url(#p70647d93e4)">
     <use xlink:href="#C11_0_35de359c36" x="799.389894" y="210.395161" style="fill: #ff0000; fill-opacity: 0.3"/>
    </g>
    <g clip-path="url(#p70647d93e4)">
     <use xlink:href="#C11_0_35de359c36" x="795.822145" y="216.458663" style="fill: #ff0000; fill-opacity: 0.3"/>
    </g>
    <g clip-path="url(#p70647d93e4)">
     <use xlink:href="#C11_0_35de359c36" x="792.739617" y="251.592887" style="fill: #ff0000; fill-opacity: 0.3"/>
    </g>
    <g clip-path="url(#p70647d93e4)">
     <use xlink:href="#C11_0_35de359c36" x="799.592659" y="250.812525" style="fill: #ff0000; fill-opacity: 0.3"/>
    </g>
   </g>
   <g id="text_16">
    <!-- 0.275 -->
    <g transform="translate(93.630777 17.837812) scale(0.14 -0.14)">
     <use xlink:href="#DejaVuSans-30"/>
     <use xlink:href="#DejaVuSans-2e" transform="translate(63.623047 0)"/>
     <use xlink:href="#DejaVuSans-32" transform="translate(95.410156 0)"/>
     <use xlink:href="#DejaVuSans-37" transform="translate(159.033203 0)"/>
     <use xlink:href="#DejaVuSans-35" transform="translate(222.65625 0)"/>
    </g>
    <!-- ns -->
    <g transform="translate(105.587652 33.51475) scale(0.14 -0.14)">
     <use xlink:href="#DejaVuSans-6e"/>
     <use xlink:href="#DejaVuSans-73" transform="translate(63.378906 0)"/>
    </g>
   </g>
   <g id="text_17">
    <!-- 0.088 -->
    <g transform="translate(176.832224 17.837812) scale(0.14 -0.14)">
     <use xlink:href="#DejaVuSans-30"/>
     <use xlink:href="#DejaVuSans-2e" transform="translate(63.623047 0)"/>
     <use xlink:href="#DejaVuSans-30" transform="translate(95.410156 0)"/>
     <use xlink:href="#DejaVuSans-38" transform="translate(159.033203 0)"/>
     <use xlink:href="#DejaVuSans-38" transform="translate(222.65625 0)"/>
    </g>
    <!-- ns -->
    <g transform="translate(188.789099 33.51475) scale(0.14 -0.14)">
     <use xlink:href="#DejaVuSans-6e"/>
     <use xlink:href="#DejaVuSans-73" transform="translate(63.378906 0)"/>
    </g>
   </g>
   <g id="text_18">
    <!-- 0.984 -->
    <g transform="translate(260.03367 17.837812) scale(0.14 -0.14)">
     <use xlink:href="#DejaVuSans-30"/>
     <use xlink:href="#DejaVuSans-2e" transform="translate(63.623047 0)"/>
     <use xlink:href="#DejaVuSans-39" transform="translate(95.410156 0)"/>
     <use xlink:href="#DejaVuSans-38" transform="translate(159.033203 0)"/>
     <use xlink:href="#DejaVuSans-34" transform="translate(222.65625 0)"/>
    </g>
    <!-- ns -->
    <g transform="translate(271.990545 33.51475) scale(0.14 -0.14)">
     <use xlink:href="#DejaVuSans-6e"/>
     <use xlink:href="#DejaVuSans-73" transform="translate(63.378906 0)"/>
    </g>
   </g>
   <g id="text_19">
    <!-- 0.730 -->
    <g transform="translate(343.235116 17.837812) scale(0.14 -0.14)">
     <use xlink:href="#DejaVuSans-30"/>
     <use xlink:href="#DejaVuSans-2e" transform="translate(63.623047 0)"/>
     <use xlink:href="#DejaVuSans-37" transform="translate(95.410156 0)"/>
     <use xlink:href="#DejaVuSans-33" transform="translate(159.033203 0)"/>
     <use xlink:href="#DejaVuSans-30" transform="translate(222.65625 0)"/>
    </g>
    <!-- ns -->
    <g transform="translate(355.191991 33.51475) scale(0.14 -0.14)">
     <use xlink:href="#DejaVuSans-6e"/>
     <use xlink:href="#DejaVuSans-73" transform="translate(63.378906 0)"/>
    </g>
   </g>
   <g id="text_20">
    <!-- 0.001 -->
    <g transform="translate(426.436563 17.837812) scale(0.14 -0.14)">
     <use xlink:href="#DejaVuSans-30"/>
     <use xlink:href="#DejaVuSans-2e" transform="translate(63.623047 0)"/>
     <use xlink:href="#DejaVuSans-30" transform="translate(95.410156 0)"/>
     <use xlink:href="#DejaVuSans-30" transform="translate(159.033203 0)"/>
     <use xlink:href="#DejaVuSans-31" transform="translate(222.65625 0)"/>
    </g>
    <!-- ** -->
    <g transform="translate(439.47625 33.51475) scale(0.14 -0.14)">
     <defs>
      <path id="DejaVuSans-2a" d="M 3009 3897 
L 1888 3291 
L 3009 2681 
L 2828 2375 
L 1778 3009 
L 1778 1831 
L 1422 1831 
L 1422 3009 
L 372 2375 
L 191 2681 
L 1313 3291 
L 191 3897 
L 372 4206 
L 1422 3572 
L 1422 4750 
L 1778 4750 
L 1778 3572 
L 2828 4206 
L 3009 3897 
z
" transform="scale(0.015625)"/>
     </defs>
     <use xlink:href="#DejaVuSans-2a"/>
     <use xlink:href="#DejaVuSans-2a" transform="translate(50 0)"/>
    </g>
   </g>
   <g id="text_21">
    <!-- 0.002 -->
    <g transform="translate(509.638009 17.837812) scale(0.14 -0.14)">
     <use xlink:href="#DejaVuSans-30"/>
     <use xlink:href="#DejaVuSans-2e" transform="translate(63.623047 0)"/>
     <use xlink:href="#DejaVuSans-30" transform="translate(95.410156 0)"/>
     <use xlink:href="#DejaVuSans-30" transform="translate(159.033203 0)"/>
     <use xlink:href="#DejaVuSans-32" transform="translate(222.65625 0)"/>
    </g>
    <!-- ** -->
    <g transform="translate(522.677696 33.51475) scale(0.14 -0.14)">
     <use xlink:href="#DejaVuSans-2a"/>
     <use xlink:href="#DejaVuSans-2a" transform="translate(50 0)"/>
    </g>
   </g>
   <g id="text_22">
    <!-- 0.019 -->
    <g transform="translate(592.839455 17.837812) scale(0.14 -0.14)">
     <use xlink:href="#DejaVuSans-30"/>
     <use xlink:href="#DejaVuSans-2e" transform="translate(63.623047 0)"/>
     <use xlink:href="#DejaVuSans-30" transform="translate(95.410156 0)"/>
     <use xlink:href="#DejaVuSans-31" transform="translate(159.033203 0)"/>
     <use xlink:href="#DejaVuSans-39" transform="translate(222.65625 0)"/>
    </g>
    <!-- * -->
    <g transform="translate(609.379143 33.51475) scale(0.14 -0.14)">
     <use xlink:href="#DejaVuSans-2a"/>
    </g>
   </g>
   <g id="text_23">
    <!-- 0.013 -->
    <g transform="translate(676.040901 17.837812) scale(0.14 -0.14)">
     <use xlink:href="#DejaVuSans-30"/>
     <use xlink:href="#DejaVuSans-2e" transform="translate(63.623047 0)"/>
     <use xlink:href="#DejaVuSans-30" transform="translate(95.410156 0)"/>
     <use xlink:href="#DejaVuSans-31" transform="translate(159.033203 0)"/>
     <use xlink:href="#DejaVuSans-33" transform="translate(222.65625 0)"/>
    </g>
    <!-- * -->
    <g transform="translate(692.580589 33.51475) scale(0.14 -0.14)">
     <use xlink:href="#DejaVuSans-2a"/>
    </g>
   </g>
   <g id="text_24">
    <!-- 0.013 -->
    <g transform="translate(759.242348 17.837812) scale(0.14 -0.14)">
     <use xlink:href="#DejaVuSans-30"/>
     <use xlink:href="#DejaVuSans-2e" transform="translate(63.623047 0)"/>
     <use xlink:href="#DejaVuSans-30" transform="translate(95.410156 0)"/>
     <use xlink:href="#DejaVuSans-31" transform="translate(159.033203 0)"/>
     <use xlink:href="#DejaVuSans-33" transform="translate(222.65625 0)"/>
    </g>
    <!-- * -->
    <g transform="translate(775.782035 33.51475) scale(0.14 -0.14)">
     <use xlink:href="#DejaVuSans-2a"/>
    </g>
   </g>
  </g>
  <g id="text_25">
   <!-- time_day1day -->
   <g transform="translate(378.449531 426.602001) scale(0.14 -0.14)">
    <defs>
     <path id="DejaVuSans-79" d="M 2059 -325 
Q 1816 -950 1584 -1140 
Q 1353 -1331 966 -1331 
L 506 -1331 
L 506 -850 
L 844 -850 
Q 1081 -850 1212 -737 
Q 1344 -625 1503 -206 
L 1606 56 
L 191 3500 
L 800 3500 
L 1894 763 
L 2988 3500 
L 3597 3500 
L 2059 -325 
z
" transform="scale(0.015625)"/>
    </defs>
    <use xlink:href="#DejaVuSans-74"/>
    <use xlink:href="#DejaVuSans-69" transform="translate(39.208984 0)"/>
    <use xlink:href="#DejaVuSans-6d" transform="translate(66.992188 0)"/>
    <use xlink:href="#DejaVuSans-65" transform="translate(164.404297 0)"/>
    <use xlink:href="#DejaVuSans-5f" transform="translate(225.927734 0)"/>
    <use xlink:href="#DejaVuSans-64" transform="translate(275.927734 0)"/>
    <use xlink:href="#DejaVuSans-61" transform="translate(339.404297 0)"/>
    <use xlink:href="#DejaVuSans-79" transform="translate(400.683594 0)"/>
    <use xlink:href="#DejaVuSans-31" transform="translate(459.863281 0)"/>
    <use xlink:href="#DejaVuSans-64" transform="translate(523.486328 0)"/>
    <use xlink:href="#DejaVuSans-61" transform="translate(586.962891 0)"/>
    <use xlink:href="#DejaVuSans-79" transform="translate(648.242188 0)"/>
   </g>
  </g>
 </g>
 <defs>
  <clipPath id="p70647d93e4">
   <rect x="43.78125" y="24.048834" width="805.39" height="270.993167"/>
  </clipPath>
 </defs>
</svg>
