<?xml version="1.0" encoding="utf-8" standalone="no"?>
<!DOCTYPE svg PUBLIC "-//W3C//DTD SVG 1.1//EN"
  "http://www.w3.org/Graphics/SVG/1.1/DTD/svg11.dtd">
<svg xmlns:xlink="http://www.w3.org/1999/xlink" width="856.37125pt" height="437.099711pt" viewBox="0 0 856.37125 437.099711" xmlns="http://www.w3.org/2000/svg" version="1.1">
 <metadata>
  <rdf:RDF xmlns:dc="http://purl.org/dc/elements/1.1/" xmlns:cc="http://creativecommons.org/ns#" xmlns:rdf="http://www.w3.org/1999/02/22-rdf-syntax-ns#">
   <cc:Work>
    <dc:type rdf:resource="http://purl.org/dc/dcmitype/StillImage"/>
    <dc:date>2025-11-29T20:14:09.155634</dc:date>
    <dc:format>image/svg+xml</dc:format>
    <dc:creator>
     <cc:Agent>
      <dc:title>Matplotlib v3.10.0, https://matplotlib.org/</dc:title>
     </cc:Agent>
    </dc:creator>
   </cc:Work>
  </rdf:RDF>
 </metadata>
 <defs>
  <style type="text/css">*{stroke-linejoin: round; stroke-linecap: butt}</style>
 </defs>
 <g id="figure_1">
  <g id="patch_1">
   <path d="M 0 437.099711 
L 856.37125 437.099711 
L 856.37125 0 
L 0 0 
L 0 437.099711 
z
" style="fill: none"/>
  </g>
  <g id="axes_1">
   <g id="patch_2">
    <path d="M 43.78125 295.038773 
L 849.17125 295.038773 
L 849.17125 24.068708 
L 43.78125 24.068708 
L 43.78125 295.038773 
z
" style="fill: none"/>
   </g>
   <g id="patch_3">
    <path d="M 80.389886 295.038773 
L 113.670465 295.038773 
L 113.670465 185.892478 
L 80.389886 185.892478 
L 80.389886 295.038773 
z
" clip-path="url(#pff62c45db0)" style="fill: none; opacity: 0"/>
   </g>
   <g id="patch_4">
    <path d="M 163.591333 295.038773 
L 196.871911 295.038773 
L 196.871911 185.892478 
L 163.591333 185.892478 
L 163.591333 295.038773 
z
" clip-path="url(#pff62c45db0)" style="fill: none; opacity: 0"/>
   </g>
   <g id="patch_5">
    <path d="M 246.792779 295.038773 
L 280.073357 295.038773 
L 280.073357 185.892478 
L 246.792779 185.892478 
L 246.792779 295.038773 
z
" clip-path="url(#pff62c45db0)" style="fill: none; opacity: 0"/>
   </g>
   <g id="patch_6">
    <path d="M 329.994225 295.038773 
L 363.274804 295.038773 
L 363.274804 185.892478 
L 329.994225 185.892478 
L 329.994225 295.038773 
z
" clip-path="url(#pff62c45db0)" style="fill: none; opacity: 0"/>
   </g>
   <g id="patch_7">
    <path d="M 413.195671 295.038773 
L 446.47625 295.038773 
L 446.47625 185.892478 
L 413.195671 185.892478 
L 413.195671 295.038773 
z
" clip-path="url(#pff62c45db0)" style="fill: none; opacity: 0"/>
   </g>
   <g id="patch_8">
    <path d="M 496.397118 295.038773 
L 529.677696 295.038773 
L 529.677696 185.892478 
L 496.397118 185.892478 
L 496.397118 295.038773 
z
" clip-path="url(#pff62c45db0)" style="fill: none; opacity: 0"/>
   </g>
   <g id="patch_9">
    <path d="M 579.598564 295.038773 
L 612.879143 295.038773 
L 612.879143 185.892478 
L 579.598564 185.892478 
L 579.598564 295.038773 
z
" clip-path="url(#pff62c45db0)" style="fill: none; opacity: 0"/>
   </g>
   <g id="patch_10">
    <path d="M 662.80001 295.038773 
L 696.080589 295.038773 
L 696.080589 185.892478 
L 662.80001 185.892478 
L 662.80001 295.038773 
z
" clip-path="url(#pff62c45db0)" style="fill: none; opacity: 0"/>
   </g>
   <g id="patch_11">
    <path d="M 746.001457 295.038773 
L 779.282035 295.038773 
L 779.282035 185.892478 
L 746.001457 185.892478 
L 746.001457 295.038773 
z
" clip-path="url(#pff62c45db0)" style="fill: none; opacity: 0"/>
   </g>
   <g id="patch_12">
    <path d="M 113.670465 295.038773 
L 146.951043 295.038773 
L 146.951043 155.285957 
L 113.670465 155.285957 
L 113.670465 295.038773 
z
" clip-path="url(#pff62c45db0)" style="fill: none; opacity: 0"/>
   </g>
   <g id="patch_13">
    <path d="M 196.871911 295.038773 
L 230.15249 295.038773 
L 230.15249 209.178366 
L 196.871911 209.178366 
L 196.871911 295.038773 
z
" clip-path="url(#pff62c45db0)" style="fill: none; opacity: 0"/>
   </g>
   <g id="patch_14">
    <path d="M 280.073357 295.038773 
L 313.353936 295.038773 
L 313.353936 170.005962 
L 280.073357 170.005962 
L 280.073357 295.038773 
z
" clip-path="url(#pff62c45db0)" style="fill: none; opacity: 0"/>
   </g>
   <g id="patch_15">
    <path d="M 363.274804 295.038773 
L 396.555382 295.038773 
L 396.555382 195.306095 
L 363.274804 195.306095 
L 363.274804 295.038773 
z
" clip-path="url(#pff62c45db0)" style="fill: none; opacity: 0"/>
   </g>
   <g id="patch_16">
    <path d="M 446.47625 295.038773 
L 479.756829 295.038773 
L 479.756829 259.87965 
L 446.47625 259.87965 
L 446.47625 295.038773 
z
" clip-path="url(#pff62c45db0)" style="fill: none; opacity: 0"/>
   </g>
   <g id="patch_17">
    <path d="M 529.677696 295.038773 
L 562.958275 295.038773 
L 562.958275 235.412054 
L 529.677696 235.412054 
L 529.677696 295.038773 
z
" clip-path="url(#pff62c45db0)" style="fill: none; opacity: 0"/>
   </g>
   <g id="patch_18">
    <path d="M 612.879143 295.038773 
L 646.159721 295.038773 
L 646.159721 124.918415 
L 612.879143 124.918415 
L 612.879143 295.038773 
z
" clip-path="url(#pff62c45db0)" style="fill: none; opacity: 0"/>
   </g>
   <g id="patch_19">
    <path d="M 696.080589 295.038773 
L 729.361167 295.038773 
L 729.361167 224.912952 
L 696.080589 224.912952 
L 696.080589 295.038773 
z
" clip-path="url(#pff62c45db0)" style="fill: none; opacity: 0"/>
   </g>
   <g id="patch_20">
    <path d="M 779.282035 295.038773 
L 812.562614 295.038773 
L 812.562614 224.912952 
L 779.282035 224.912952 
L 779.282035 295.038773 
z
" clip-path="url(#pff62c45db0)" style="fill: none; opacity: 0"/>
   </g>
   <g id="matplotlib.axis_1">
    <g id="xtick_1">
     <g id="line2d_1">
      <defs>
       <path id="md7796eaadb" d="M 0 0 
L 0 3.5 
" style="stroke: #000000; stroke-width: 0.8"/>
      </defs>
      <g>
       <use xlink:href="#md7796eaadb" x="113.670465" y="295.038773" style="stroke: #000000; stroke-width: 0.8"/>
      </g>
     </g>
     <g id="text_1">
      <!-- 0889 -->
      <g transform="translate(116.42984 327.488773) rotate(-90) scale(0.1 -0.1)">
       <defs>
        <path id="DejaVuSans-30" d="M 2034 4250 
Q 1547 4250 1301 3770 
Q 1056 3291 1056 2328 
Q 1056 1369 1301 889 
Q 1547 409 2034 409 
Q 2525 409 2770 889 
Q 3016 1369 3016 2328 
Q 3016 3291 2770 3770 
Q 2525 4250 2034 4250 
z
M 2034 4750 
Q 2819 4750 3233 4129 
Q 3647 3509 3647 2328 
Q 3647 1150 3233 529 
Q 2819 -91 2034 -91 
Q 1250 -91 836 529 
Q 422 1150 422 2328 
Q 422 3509 836 4129 
Q 1250 4750 2034 4750 
z
" transform="scale(0.015625)"/>
        <path id="DejaVuSans-38" d="M 2034 2216 
Q 1584 2216 1326 1975 
Q 1069 1734 1069 1313 
Q 1069 891 1326 650 
Q 1584 409 2034 409 
Q 2484 409 2743 651 
Q 3003 894 3003 1313 
Q 3003 1734 2745 1975 
Q 2488 2216 2034 2216 
z
M 1403 2484 
Q 997 2584 770 2862 
Q 544 3141 544 3541 
Q 544 4100 942 4425 
Q 1341 4750 2034 4750 
Q 2731 4750 3128 4425 
Q 3525 4100 3525 3541 
Q 3525 3141 3298 2862 
Q 3072 2584 2669 2484 
Q 3125 2378 3379 2068 
Q 3634 1759 3634 1313 
Q 3634 634 3220 271 
Q 2806 -91 2034 -91 
Q 1263 -91 848 271 
Q 434 634 434 1313 
Q 434 1759 690 2068 
Q 947 2378 1403 2484 
z
M 1172 3481 
Q 1172 3119 1398 2916 
Q 1625 2713 2034 2713 
Q 2441 2713 2670 2916 
Q 2900 3119 2900 3481 
Q 2900 3844 2670 4047 
Q 2441 4250 2034 4250 
Q 1625 4250 1398 4047 
Q 1172 3844 1172 3481 
z
" transform="scale(0.015625)"/>
        <path id="DejaVuSans-39" d="M 703 97 
L 703 672 
Q 941 559 1184 500 
Q 1428 441 1663 441 
Q 2288 441 2617 861 
Q 2947 1281 2994 2138 
Q 2813 1869 2534 1725 
Q 2256 1581 1919 1581 
Q 1219 1581 811 2004 
Q 403 2428 403 3163 
Q 403 3881 828 4315 
Q 1253 4750 1959 4750 
Q 2769 4750 3195 4129 
Q 3622 3509 3622 2328 
Q 3622 1225 3098 567 
Q 2575 -91 1691 -91 
Q 1453 -91 1209 -44 
Q 966 3 703 97 
z
M 1959 2075 
Q 2384 2075 2632 2365 
Q 2881 2656 2881 3163 
Q 2881 3666 2632 3958 
Q 2384 4250 1959 4250 
Q 1534 4250 1286 3958 
Q 1038 3666 1038 3163 
Q 1038 2656 1286 2365 
Q 1534 2075 1959 2075 
z
" transform="scale(0.015625)"/>
       </defs>
       <use xlink:href="#DejaVuSans-30"/>
       <use xlink:href="#DejaVuSans-38" transform="translate(63.623047 0)"/>
       <use xlink:href="#DejaVuSans-38" transform="translate(127.246094 0)"/>
       <use xlink:href="#DejaVuSans-39" transform="translate(190.869141 0)"/>
      </g>
     </g>
    </g>
    <g id="xtick_2">
     <g id="line2d_2">
      <g>
       <use xlink:href="#md7796eaadb" x="196.871911" y="295.038773" style="stroke: #000000; stroke-width: 0.8"/>
      </g>
     </g>
     <g id="text_2">
      <!-- 3547 -->
      <g transform="translate(199.631286 327.488773) rotate(-90) scale(0.1 -0.1)">
       <defs>
        <path id="DejaVuSans-33" d="M 2597 2516 
Q 3050 2419 3304 2112 
Q 3559 1806 3559 1356 
Q 3559 666 3084 287 
Q 2609 -91 1734 -91 
Q 1441 -91 1130 -33 
Q 819 25 488 141 
L 488 750 
Q 750 597 1062 519 
Q 1375 441 1716 441 
Q 2309 441 2620 675 
Q 2931 909 2931 1356 
Q 2931 1769 2642 2001 
Q 2353 2234 1838 2234 
L 1294 2234 
L 1294 2753 
L 1863 2753 
Q 2328 2753 2575 2939 
Q 2822 3125 2822 3475 
Q 2822 3834 2567 4026 
Q 2313 4219 1838 4219 
Q 1578 4219 1281 4162 
Q 984 4106 628 3988 
L 628 4550 
Q 988 4650 1302 4700 
Q 1616 4750 1894 4750 
Q 2613 4750 3031 4423 
Q 3450 4097 3450 3541 
Q 3450 3153 3228 2886 
Q 3006 2619 2597 2516 
z
" transform="scale(0.015625)"/>
        <path id="DejaVuSans-35" d="M 691 4666 
L 3169 4666 
L 3169 4134 
L 1269 4134 
L 1269 2991 
Q 1406 3038 1543 3061 
Q 1681 3084 1819 3084 
Q 2600 3084 3056 2656 
Q 3513 2228 3513 1497 
Q 3513 744 3044 326 
Q 2575 -91 1722 -91 
Q 1428 -91 1123 -41 
Q 819 9 494 109 
L 494 744 
Q 775 591 1075 516 
Q 1375 441 1709 441 
Q 2250 441 2565 725 
Q 2881 1009 2881 1497 
Q 2881 1984 2565 2268 
Q 2250 2553 1709 2553 
Q 1456 2553 1204 2497 
Q 953 2441 691 2322 
L 691 4666 
z
" transform="scale(0.015625)"/>
        <path id="DejaVuSans-34" d="M 2419 4116 
L 825 1625 
L 2419 1625 
L 2419 4116 
z
M 2253 4666 
L 3047 4666 
L 3047 1625 
L 3713 1625 
L 3713 1100 
L 3047 1100 
L 3047 0 
L 2419 0 
L 2419 1100 
L 313 1100 
L 313 1709 
L 2253 4666 
z
" transform="scale(0.015625)"/>
        <path id="DejaVuSans-37" d="M 525 4666 
L 3525 4666 
L 3525 4397 
L 1831 0 
L 1172 0 
L 2766 4134 
L 525 4134 
L 525 4666 
z
" transform="scale(0.015625)"/>
       </defs>
       <use xlink:href="#DejaVuSans-33"/>
       <use xlink:href="#DejaVuSans-35" transform="translate(63.623047 0)"/>
       <use xlink:href="#DejaVuSans-34" transform="translate(127.246094 0)"/>
       <use xlink:href="#DejaVuSans-37" transform="translate(190.869141 0)"/>
      </g>
     </g>
    </g>
    <g id="xtick_3">
     <g id="line2d_3">
      <g>
       <use xlink:href="#md7796eaadb" x="280.073357" y="295.038773" style="stroke: #000000; stroke-width: 0.8"/>
      </g>
     </g>
     <g id="text_3">
      <!-- 5262 -->
      <g transform="translate(282.832732 327.488773) rotate(-90) scale(0.1 -0.1)">
       <defs>
        <path id="DejaVuSans-32" d="M 1228 531 
L 3431 531 
L 3431 0 
L 469 0 
L 469 531 
Q 828 903 1448 1529 
Q 2069 2156 2228 2338 
Q 2531 2678 2651 2914 
Q 2772 3150 2772 3378 
Q 2772 3750 2511 3984 
Q 2250 4219 1831 4219 
Q 1534 4219 1204 4116 
Q 875 4013 500 3803 
L 500 4441 
Q 881 4594 1212 4672 
Q 1544 4750 1819 4750 
Q 2544 4750 2975 4387 
Q 3406 4025 3406 3419 
Q 3406 3131 3298 2873 
Q 3191 2616 2906 2266 
Q 2828 2175 2409 1742 
Q 1991 1309 1228 531 
z
" transform="scale(0.015625)"/>
        <path id="DejaVuSans-36" d="M 2113 2584 
Q 1688 2584 1439 2293 
Q 1191 2003 1191 1497 
Q 1191 994 1439 701 
Q 1688 409 2113 409 
Q 2538 409 2786 701 
Q 3034 994 3034 1497 
Q 3034 2003 2786 2293 
Q 2538 2584 2113 2584 
z
M 3366 4563 
L 3366 3988 
Q 3128 4100 2886 4159 
Q 2644 4219 2406 4219 
Q 1781 4219 1451 3797 
Q 1122 3375 1075 2522 
Q 1259 2794 1537 2939 
Q 1816 3084 2150 3084 
Q 2853 3084 3261 2657 
Q 3669 2231 3669 1497 
Q 3669 778 3244 343 
Q 2819 -91 2113 -91 
Q 1303 -91 875 529 
Q 447 1150 447 2328 
Q 447 3434 972 4092 
Q 1497 4750 2381 4750 
Q 2619 4750 2861 4703 
Q 3103 4656 3366 4563 
z
" transform="scale(0.015625)"/>
       </defs>
       <use xlink:href="#DejaVuSans-35"/>
       <use xlink:href="#DejaVuSans-32" transform="translate(63.623047 0)"/>
       <use xlink:href="#DejaVuSans-36" transform="translate(127.246094 0)"/>
       <use xlink:href="#DejaVuSans-32" transform="translate(190.869141 0)"/>
      </g>
     </g>
    </g>
    <g id="xtick_4">
     <g id="line2d_4">
      <g>
       <use xlink:href="#md7796eaadb" x="363.274804" y="295.038773" style="stroke: #000000; stroke-width: 0.8"/>
      </g>
     </g>
     <g id="text_4">
      <!-- 5299 -->
      <g transform="translate(366.034179 327.488773) rotate(-90) scale(0.1 -0.1)">
       <use xlink:href="#DejaVuSans-35"/>
       <use xlink:href="#DejaVuSans-32" transform="translate(63.623047 0)"/>
       <use xlink:href="#DejaVuSans-39" transform="translate(127.246094 0)"/>
       <use xlink:href="#DejaVuSans-39" transform="translate(190.869141 0)"/>
      </g>
     </g>
    </g>
    <g id="xtick_5">
     <g id="line2d_5">
      <g>
       <use xlink:href="#md7796eaadb" x="446.47625" y="295.038773" style="stroke: #000000; stroke-width: 0.8"/>
      </g>
     </g>
     <g id="text_5">
      <!-- 6566 -->
      <g transform="translate(449.235625 327.488773) rotate(-90) scale(0.1 -0.1)">
       <use xlink:href="#DejaVuSans-36"/>
       <use xlink:href="#DejaVuSans-35" transform="translate(63.623047 0)"/>
       <use xlink:href="#DejaVuSans-36" transform="translate(127.246094 0)"/>
       <use xlink:href="#DejaVuSans-36" transform="translate(190.869141 0)"/>
      </g>
     </g>
    </g>
    <g id="xtick_6">
     <g id="line2d_6">
      <g>
       <use xlink:href="#md7796eaadb" x="529.677696" y="295.038773" style="stroke: #000000; stroke-width: 0.8"/>
      </g>
     </g>
     <g id="text_6">
      <!-- 8519 -->
      <g transform="translate(532.437071 327.488773) rotate(-90) scale(0.1 -0.1)">
       <defs>
        <path id="DejaVuSans-31" d="M 794 531 
L 1825 531 
L 1825 4091 
L 703 3866 
L 703 4441 
L 1819 4666 
L 2450 4666 
L 2450 531 
L 3481 531 
L 3481 0 
L 794 0 
L 794 531 
z
" transform="scale(0.015625)"/>
       </defs>
       <use xlink:href="#DejaVuSans-38"/>
       <use xlink:href="#DejaVuSans-35" transform="translate(63.623047 0)"/>
       <use xlink:href="#DejaVuSans-31" transform="translate(127.246094 0)"/>
       <use xlink:href="#DejaVuSans-39" transform="translate(190.869141 0)"/>
      </g>
     </g>
    </g>
    <g id="xtick_7">
     <g id="line2d_7">
      <g>
       <use xlink:href="#md7796eaadb" x="612.879143" y="295.038773" style="stroke: #000000; stroke-width: 0.8"/>
      </g>
     </g>
     <g id="text_7">
      <!-- 5682 -->
      <g transform="translate(615.638518 327.488773) rotate(-90) scale(0.1 -0.1)">
       <use xlink:href="#DejaVuSans-35"/>
       <use xlink:href="#DejaVuSans-36" transform="translate(63.623047 0)"/>
       <use xlink:href="#DejaVuSans-38" transform="translate(127.246094 0)"/>
       <use xlink:href="#DejaVuSans-32" transform="translate(190.869141 0)"/>
      </g>
     </g>
    </g>
    <g id="xtick_8">
     <g id="line2d_8">
      <g>
       <use xlink:href="#md7796eaadb" x="696.080589" y="295.038773" style="stroke: #000000; stroke-width: 0.8"/>
      </g>
     </g>
     <g id="text_8">
      <!-- Seltorexant -->
      <g transform="translate(698.839964 359.526273) rotate(-90) scale(0.1 -0.1)">
       <defs>
        <path id="DejaVuSans-53" d="M 3425 4513 
L 3425 3897 
Q 3066 4069 2747 4153 
Q 2428 4238 2131 4238 
Q 1616 4238 1336 4038 
Q 1056 3838 1056 3469 
Q 1056 3159 1242 3001 
Q 1428 2844 1947 2747 
L 2328 2669 
Q 3034 2534 3370 2195 
Q 3706 1856 3706 1288 
Q 3706 609 3251 259 
Q 2797 -91 1919 -91 
Q 1588 -91 1214 -16 
Q 841 59 441 206 
L 441 856 
Q 825 641 1194 531 
Q 1563 422 1919 422 
Q 2459 422 2753 634 
Q 3047 847 3047 1241 
Q 3047 1584 2836 1778 
Q 2625 1972 2144 2069 
L 1759 2144 
Q 1053 2284 737 2584 
Q 422 2884 422 3419 
Q 422 4038 858 4394 
Q 1294 4750 2059 4750 
Q 2388 4750 2728 4690 
Q 3069 4631 3425 4513 
z
" transform="scale(0.015625)"/>
        <path id="DejaVuSans-65" d="M 3597 1894 
L 3597 1613 
L 953 1613 
Q 991 1019 1311 708 
Q 1631 397 2203 397 
Q 2534 397 2845 478 
Q 3156 559 3463 722 
L 3463 178 
Q 3153 47 2828 -22 
Q 2503 -91 2169 -91 
Q 1331 -91 842 396 
Q 353 884 353 1716 
Q 353 2575 817 3079 
Q 1281 3584 2069 3584 
Q 2775 3584 3186 3129 
Q 3597 2675 3597 1894 
z
M 3022 2063 
Q 3016 2534 2758 2815 
Q 2500 3097 2075 3097 
Q 1594 3097 1305 2825 
Q 1016 2553 972 2059 
L 3022 2063 
z
" transform="scale(0.015625)"/>
        <path id="DejaVuSans-6c" d="M 603 4863 
L 1178 4863 
L 1178 0 
L 603 0 
L 603 4863 
z
" transform="scale(0.015625)"/>
        <path id="DejaVuSans-74" d="M 1172 4494 
L 1172 3500 
L 2356 3500 
L 2356 3053 
L 1172 3053 
L 1172 1153 
Q 1172 725 1289 603 
Q 1406 481 1766 481 
L 2356 481 
L 2356 0 
L 1766 0 
Q 1100 0 847 248 
Q 594 497 594 1153 
L 594 3053 
L 172 3053 
L 172 3500 
L 594 3500 
L 594 4494 
L 1172 4494 
z
" transform="scale(0.015625)"/>
        <path id="DejaVuSans-6f" d="M 1959 3097 
Q 1497 3097 1228 2736 
Q 959 2375 959 1747 
Q 959 1119 1226 758 
Q 1494 397 1959 397 
Q 2419 397 2687 759 
Q 2956 1122 2956 1747 
Q 2956 2369 2687 2733 
Q 2419 3097 1959 3097 
z
M 1959 3584 
Q 2709 3584 3137 3096 
Q 3566 2609 3566 1747 
Q 3566 888 3137 398 
Q 2709 -91 1959 -91 
Q 1206 -91 779 398 
Q 353 888 353 1747 
Q 353 2609 779 3096 
Q 1206 3584 1959 3584 
z
" transform="scale(0.015625)"/>
        <path id="DejaVuSans-72" d="M 2631 2963 
Q 2534 3019 2420 3045 
Q 2306 3072 2169 3072 
Q 1681 3072 1420 2755 
Q 1159 2438 1159 1844 
L 1159 0 
L 581 0 
L 581 3500 
L 1159 3500 
L 1159 2956 
Q 1341 3275 1631 3429 
Q 1922 3584 2338 3584 
Q 2397 3584 2469 3576 
Q 2541 3569 2628 3553 
L 2631 2963 
z
" transform="scale(0.015625)"/>
        <path id="DejaVuSans-78" d="M 3513 3500 
L 2247 1797 
L 3578 0 
L 2900 0 
L 1881 1375 
L 863 0 
L 184 0 
L 1544 1831 
L 300 3500 
L 978 3500 
L 1906 2253 
L 2834 3500 
L 3513 3500 
z
" transform="scale(0.015625)"/>
        <path id="DejaVuSans-61" d="M 2194 1759 
Q 1497 1759 1228 1600 
Q 959 1441 959 1056 
Q 959 750 1161 570 
Q 1363 391 1709 391 
Q 2188 391 2477 730 
Q 2766 1069 2766 1631 
L 2766 1759 
L 2194 1759 
z
M 3341 1997 
L 3341 0 
L 2766 0 
L 2766 531 
Q 2569 213 2275 61 
Q 1981 -91 1556 -91 
Q 1019 -91 701 211 
Q 384 513 384 1019 
Q 384 1609 779 1909 
Q 1175 2209 1959 2209 
L 2766 2209 
L 2766 2266 
Q 2766 2663 2505 2880 
Q 2244 3097 1772 3097 
Q 1472 3097 1187 3025 
Q 903 2953 641 2809 
L 641 3341 
Q 956 3463 1253 3523 
Q 1550 3584 1831 3584 
Q 2591 3584 2966 3190 
Q 3341 2797 3341 1997 
z
" transform="scale(0.015625)"/>
        <path id="DejaVuSans-6e" d="M 3513 2113 
L 3513 0 
L 2938 0 
L 2938 2094 
Q 2938 2591 2744 2837 
Q 2550 3084 2163 3084 
Q 1697 3084 1428 2787 
Q 1159 2491 1159 1978 
L 1159 0 
L 581 0 
L 581 3500 
L 1159 3500 
L 1159 2956 
Q 1366 3272 1645 3428 
Q 1925 3584 2291 3584 
Q 2894 3584 3203 3211 
Q 3513 2838 3513 2113 
z
" transform="scale(0.015625)"/>
       </defs>
       <use xlink:href="#DejaVuSans-53"/>
       <use xlink:href="#DejaVuSans-65" transform="translate(63.476562 0)"/>
       <use xlink:href="#DejaVuSans-6c" transform="translate(125 0)"/>
       <use xlink:href="#DejaVuSans-74" transform="translate(152.783203 0)"/>
       <use xlink:href="#DejaVuSans-6f" transform="translate(191.992188 0)"/>
       <use xlink:href="#DejaVuSans-72" transform="translate(253.173828 0)"/>
       <use xlink:href="#DejaVuSans-65" transform="translate(292.037109 0)"/>
       <use xlink:href="#DejaVuSans-78" transform="translate(351.810547 0)"/>
       <use xlink:href="#DejaVuSans-61" transform="translate(410.990234 0)"/>
       <use xlink:href="#DejaVuSans-6e" transform="translate(472.269531 0)"/>
       <use xlink:href="#DejaVuSans-74" transform="translate(535.648438 0)"/>
      </g>
     </g>
    </g>
    <g id="xtick_9">
     <g id="line2d_9">
      <g>
       <use xlink:href="#md7796eaadb" x="779.282035" y="295.038773" style="stroke: #000000; stroke-width: 0.8"/>
      </g>
     </g>
     <g id="text_9">
      <!-- YSeltorexant_CROPOUT -->
      <g transform="translate(781.902348 419.765336) rotate(-90) scale(0.1 -0.1)">
       <defs>
        <path id="DejaVuSans-59" d="M -13 4666 
L 666 4666 
L 1959 2747 
L 3244 4666 
L 3922 4666 
L 2272 2222 
L 2272 0 
L 1638 0 
L 1638 2222 
L -13 4666 
z
" transform="scale(0.015625)"/>
        <path id="DejaVuSans-5f" d="M 3263 -1063 
L 3263 -1509 
L -63 -1509 
L -63 -1063 
L 3263 -1063 
z
" transform="scale(0.015625)"/>
        <path id="DejaVuSans-43" d="M 4122 4306 
L 4122 3641 
Q 3803 3938 3442 4084 
Q 3081 4231 2675 4231 
Q 1875 4231 1450 3742 
Q 1025 3253 1025 2328 
Q 1025 1406 1450 917 
Q 1875 428 2675 428 
Q 3081 428 3442 575 
Q 3803 722 4122 1019 
L 4122 359 
Q 3791 134 3420 21 
Q 3050 -91 2638 -91 
Q 1578 -91 968 557 
Q 359 1206 359 2328 
Q 359 3453 968 4101 
Q 1578 4750 2638 4750 
Q 3056 4750 3426 4639 
Q 3797 4528 4122 4306 
z
" transform="scale(0.015625)"/>
        <path id="DejaVuSans-52" d="M 2841 2188 
Q 3044 2119 3236 1894 
Q 3428 1669 3622 1275 
L 4263 0 
L 3584 0 
L 2988 1197 
Q 2756 1666 2539 1819 
Q 2322 1972 1947 1972 
L 1259 1972 
L 1259 0 
L 628 0 
L 628 4666 
L 2053 4666 
Q 2853 4666 3247 4331 
Q 3641 3997 3641 3322 
Q 3641 2881 3436 2590 
Q 3231 2300 2841 2188 
z
M 1259 4147 
L 1259 2491 
L 2053 2491 
Q 2509 2491 2742 2702 
Q 2975 2913 2975 3322 
Q 2975 3731 2742 3939 
Q 2509 4147 2053 4147 
L 1259 4147 
z
" transform="scale(0.015625)"/>
        <path id="DejaVuSans-4f" d="M 2522 4238 
Q 1834 4238 1429 3725 
Q 1025 3213 1025 2328 
Q 1025 1447 1429 934 
Q 1834 422 2522 422 
Q 3209 422 3611 934 
Q 4013 1447 4013 2328 
Q 4013 3213 3611 3725 
Q 3209 4238 2522 4238 
z
M 2522 4750 
Q 3503 4750 4090 4092 
Q 4678 3434 4678 2328 
Q 4678 1225 4090 567 
Q 3503 -91 2522 -91 
Q 1538 -91 948 565 
Q 359 1222 359 2328 
Q 359 3434 948 4092 
Q 1538 4750 2522 4750 
z
" transform="scale(0.015625)"/>
        <path id="DejaVuSans-50" d="M 1259 4147 
L 1259 2394 
L 2053 2394 
Q 2494 2394 2734 2622 
Q 2975 2850 2975 3272 
Q 2975 3691 2734 3919 
Q 2494 4147 2053 4147 
L 1259 4147 
z
M 628 4666 
L 2053 4666 
Q 2838 4666 3239 4311 
Q 3641 3956 3641 3272 
Q 3641 2581 3239 2228 
Q 2838 1875 2053 1875 
L 1259 1875 
L 1259 0 
L 628 0 
L 628 4666 
z
" transform="scale(0.015625)"/>
        <path id="DejaVuSans-55" d="M 556 4666 
L 1191 4666 
L 1191 1831 
Q 1191 1081 1462 751 
Q 1734 422 2344 422 
Q 2950 422 3222 751 
Q 3494 1081 3494 1831 
L 3494 4666 
L 4128 4666 
L 4128 1753 
Q 4128 841 3676 375 
Q 3225 -91 2344 -91 
Q 1459 -91 1007 375 
Q 556 841 556 1753 
L 556 4666 
z
" transform="scale(0.015625)"/>
        <path id="DejaVuSans-54" d="M -19 4666 
L 3928 4666 
L 3928 4134 
L 2272 4134 
L 2272 0 
L 1638 0 
L 1638 4134 
L -19 4134 
L -19 4666 
z
" transform="scale(0.015625)"/>
       </defs>
       <use xlink:href="#DejaVuSans-59"/>
       <use xlink:href="#DejaVuSans-53" transform="translate(61.083984 0)"/>
       <use xlink:href="#DejaVuSans-65" transform="translate(124.560547 0)"/>
       <use xlink:href="#DejaVuSans-6c" transform="translate(186.083984 0)"/>
       <use xlink:href="#DejaVuSans-74" transform="translate(213.867188 0)"/>
       <use xlink:href="#DejaVuSans-6f" transform="translate(253.076172 0)"/>
       <use xlink:href="#DejaVuSans-72" transform="translate(314.257812 0)"/>
       <use xlink:href="#DejaVuSans-65" transform="translate(353.121094 0)"/>
       <use xlink:href="#DejaVuSans-78" transform="translate(412.894531 0)"/>
       <use xlink:href="#DejaVuSans-61" transform="translate(472.074219 0)"/>
       <use xlink:href="#DejaVuSans-6e" transform="translate(533.353516 0)"/>
       <use xlink:href="#DejaVuSans-74" transform="translate(596.732422 0)"/>
       <use xlink:href="#DejaVuSans-5f" transform="translate(635.941406 0)"/>
       <use xlink:href="#DejaVuSans-43" transform="translate(685.941406 0)"/>
       <use xlink:href="#DejaVuSans-52" transform="translate(755.765625 0)"/>
       <use xlink:href="#DejaVuSans-4f" transform="translate(825.248047 0)"/>
       <use xlink:href="#DejaVuSans-50" transform="translate(903.958984 0)"/>
       <use xlink:href="#DejaVuSans-4f" transform="translate(964.261719 0)"/>
       <use xlink:href="#DejaVuSans-55" transform="translate(1042.972656 0)"/>
       <use xlink:href="#DejaVuSans-54" transform="translate(1116.166016 0)"/>
      </g>
     </g>
    </g>
   </g>
   <g id="matplotlib.axis_2">
    <g id="ytick_1">
     <g id="line2d_10">
      <defs>
       <path id="m67b2426b7e" d="M 0 0 
L -3.5 0 
" style="stroke: #000000; stroke-width: 0.8"/>
      </defs>
      <g>
       <use xlink:href="#m67b2426b7e" x="43.78125" y="295.038773" style="stroke: #000000; stroke-width: 0.8"/>
      </g>
     </g>
     <g id="text_10">
      <!-- 0.0 -->
      <g transform="translate(20.878125 298.837992) scale(0.1 -0.1)">
       <defs>
        <path id="DejaVuSans-2e" d="M 684 794 
L 1344 794 
L 1344 0 
L 684 0 
L 684 794 
z
" transform="scale(0.015625)"/>
       </defs>
       <use xlink:href="#DejaVuSans-30"/>
       <use xlink:href="#DejaVuSans-2e" transform="translate(63.623047 0)"/>
       <use xlink:href="#DejaVuSans-30" transform="translate(95.410156 0)"/>
      </g>
     </g>
    </g>
    <g id="ytick_2">
     <g id="line2d_11">
      <g>
       <use xlink:href="#m67b2426b7e" x="43.78125" y="240.465626" style="stroke: #000000; stroke-width: 0.8"/>
      </g>
     </g>
     <g id="text_11">
      <!-- 0.5 -->
      <g transform="translate(20.878125 244.264844) scale(0.1 -0.1)">
       <use xlink:href="#DejaVuSans-30"/>
       <use xlink:href="#DejaVuSans-2e" transform="translate(63.623047 0)"/>
       <use xlink:href="#DejaVuSans-35" transform="translate(95.410156 0)"/>
      </g>
     </g>
    </g>
    <g id="ytick_3">
     <g id="line2d_12">
      <g>
       <use xlink:href="#m67b2426b7e" x="43.78125" y="185.892478" style="stroke: #000000; stroke-width: 0.8"/>
      </g>
     </g>
     <g id="text_12">
      <!-- 1.0 -->
      <g transform="translate(20.878125 189.691697) scale(0.1 -0.1)">
       <use xlink:href="#DejaVuSans-31"/>
       <use xlink:href="#DejaVuSans-2e" transform="translate(63.623047 0)"/>
       <use xlink:href="#DejaVuSans-30" transform="translate(95.410156 0)"/>
      </g>
     </g>
    </g>
    <g id="ytick_4">
     <g id="line2d_13">
      <g>
       <use xlink:href="#m67b2426b7e" x="43.78125" y="131.31933" style="stroke: #000000; stroke-width: 0.8"/>
      </g>
     </g>
     <g id="text_13">
      <!-- 1.5 -->
      <g transform="translate(20.878125 135.118549) scale(0.1 -0.1)">
       <use xlink:href="#DejaVuSans-31"/>
       <use xlink:href="#DejaVuSans-2e" transform="translate(63.623047 0)"/>
       <use xlink:href="#DejaVuSans-35" transform="translate(95.410156 0)"/>
      </g>
     </g>
    </g>
    <g id="ytick_5">
     <g id="line2d_14">
      <g>
       <use xlink:href="#m67b2426b7e" x="43.78125" y="76.746182" style="stroke: #000000; stroke-width: 0.8"/>
      </g>
     </g>
     <g id="text_14">
      <!-- 2.0 -->
      <g transform="translate(20.878125 80.545401) scale(0.1 -0.1)">
       <use xlink:href="#DejaVuSans-32"/>
       <use xlink:href="#DejaVuSans-2e" transform="translate(63.623047 0)"/>
       <use xlink:href="#DejaVuSans-30" transform="translate(95.410156 0)"/>
      </g>
     </g>
    </g>
    <g id="text_15">
     <!-- Normalized numberofbouts: Binned - 60 -->
     <g transform="translate(14.798438 259.712334) rotate(-90) scale(0.1 -0.1)">
      <defs>
       <path id="DejaVuSans-4e" d="M 628 4666 
L 1478 4666 
L 3547 763 
L 3547 4666 
L 4159 4666 
L 4159 0 
L 3309 0 
L 1241 3903 
L 1241 0 
L 628 0 
L 628 4666 
z
" transform="scale(0.015625)"/>
       <path id="DejaVuSans-6d" d="M 3328 2828 
Q 3544 3216 3844 3400 
Q 4144 3584 4550 3584 
Q 5097 3584 5394 3201 
Q 5691 2819 5691 2113 
L 5691 0 
L 5113 0 
L 5113 2094 
Q 5113 2597 4934 2840 
Q 4756 3084 4391 3084 
Q 3944 3084 3684 2787 
Q 3425 2491 3425 1978 
L 3425 0 
L 2847 0 
L 2847 2094 
Q 2847 2600 2669 2842 
Q 2491 3084 2119 3084 
Q 1678 3084 1418 2786 
Q 1159 2488 1159 1978 
L 1159 0 
L 581 0 
L 581 3500 
L 1159 3500 
L 1159 2956 
Q 1356 3278 1631 3431 
Q 1906 3584 2284 3584 
Q 2666 3584 2933 3390 
Q 3200 3197 3328 2828 
z
" transform="scale(0.015625)"/>
       <path id="DejaVuSans-69" d="M 603 3500 
L 1178 3500 
L 1178 0 
L 603 0 
L 603 3500 
z
M 603 4863 
L 1178 4863 
L 1178 4134 
L 603 4134 
L 603 4863 
z
" transform="scale(0.015625)"/>
       <path id="DejaVuSans-7a" d="M 353 3500 
L 3084 3500 
L 3084 2975 
L 922 459 
L 3084 459 
L 3084 0 
L 275 0 
L 275 525 
L 2438 3041 
L 353 3041 
L 353 3500 
z
" transform="scale(0.015625)"/>
       <path id="DejaVuSans-64" d="M 2906 2969 
L 2906 4863 
L 3481 4863 
L 3481 0 
L 2906 0 
L 2906 525 
Q 2725 213 2448 61 
Q 2172 -91 1784 -91 
Q 1150 -91 751 415 
Q 353 922 353 1747 
Q 353 2572 751 3078 
Q 1150 3584 1784 3584 
Q 2172 3584 2448 3432 
Q 2725 3281 2906 2969 
z
M 947 1747 
Q 947 1113 1208 752 
Q 1469 391 1925 391 
Q 2381 391 2643 752 
Q 2906 1113 2906 1747 
Q 2906 2381 2643 2742 
Q 2381 3103 1925 3103 
Q 1469 3103 1208 2742 
Q 947 2381 947 1747 
z
" transform="scale(0.015625)"/>
       <path id="DejaVuSans-20" transform="scale(0.015625)"/>
       <path id="DejaVuSans-75" d="M 544 1381 
L 544 3500 
L 1119 3500 
L 1119 1403 
Q 1119 906 1312 657 
Q 1506 409 1894 409 
Q 2359 409 2629 706 
Q 2900 1003 2900 1516 
L 2900 3500 
L 3475 3500 
L 3475 0 
L 2900 0 
L 2900 538 
Q 2691 219 2414 64 
Q 2138 -91 1772 -91 
Q 1169 -91 856 284 
Q 544 659 544 1381 
z
M 1991 3584 
L 1991 3584 
z
" transform="scale(0.015625)"/>
       <path id="DejaVuSans-62" d="M 3116 1747 
Q 3116 2381 2855 2742 
Q 2594 3103 2138 3103 
Q 1681 3103 1420 2742 
Q 1159 2381 1159 1747 
Q 1159 1113 1420 752 
Q 1681 391 2138 391 
Q 2594 391 2855 752 
Q 3116 1113 3116 1747 
z
M 1159 2969 
Q 1341 3281 1617 3432 
Q 1894 3584 2278 3584 
Q 2916 3584 3314 3078 
Q 3713 2572 3713 1747 
Q 3713 922 3314 415 
Q 2916 -91 2278 -91 
Q 1894 -91 1617 61 
Q 1341 213 1159 525 
L 1159 0 
L 581 0 
L 581 4863 
L 1159 4863 
L 1159 2969 
z
" transform="scale(0.015625)"/>
       <path id="DejaVuSans-66" d="M 2375 4863 
L 2375 4384 
L 1825 4384 
Q 1516 4384 1395 4259 
Q 1275 4134 1275 3809 
L 1275 3500 
L 2222 3500 
L 2222 3053 
L 1275 3053 
L 1275 0 
L 697 0 
L 697 3053 
L 147 3053 
L 147 3500 
L 697 3500 
L 697 3744 
Q 697 4328 969 4595 
Q 1241 4863 1831 4863 
L 2375 4863 
z
" transform="scale(0.015625)"/>
       <path id="DejaVuSans-73" d="M 2834 3397 
L 2834 2853 
Q 2591 2978 2328 3040 
Q 2066 3103 1784 3103 
Q 1356 3103 1142 2972 
Q 928 2841 928 2578 
Q 928 2378 1081 2264 
Q 1234 2150 1697 2047 
L 1894 2003 
Q 2506 1872 2764 1633 
Q 3022 1394 3022 966 
Q 3022 478 2636 193 
Q 2250 -91 1575 -91 
Q 1294 -91 989 -36 
Q 684 19 347 128 
L 347 722 
Q 666 556 975 473 
Q 1284 391 1588 391 
Q 1994 391 2212 530 
Q 2431 669 2431 922 
Q 2431 1156 2273 1281 
Q 2116 1406 1581 1522 
L 1381 1569 
Q 847 1681 609 1914 
Q 372 2147 372 2553 
Q 372 3047 722 3315 
Q 1072 3584 1716 3584 
Q 2034 3584 2315 3537 
Q 2597 3491 2834 3397 
z
" transform="scale(0.015625)"/>
       <path id="DejaVuSans-3a" d="M 750 794 
L 1409 794 
L 1409 0 
L 750 0 
L 750 794 
z
M 750 3309 
L 1409 3309 
L 1409 2516 
L 750 2516 
L 750 3309 
z
" transform="scale(0.015625)"/>
       <path id="DejaVuSans-42" d="M 1259 2228 
L 1259 519 
L 2272 519 
Q 2781 519 3026 730 
Q 3272 941 3272 1375 
Q 3272 1813 3026 2020 
Q 2781 2228 2272 2228 
L 1259 2228 
z
M 1259 4147 
L 1259 2741 
L 2194 2741 
Q 2656 2741 2882 2914 
Q 3109 3088 3109 3444 
Q 3109 3797 2882 3972 
Q 2656 4147 2194 4147 
L 1259 4147 
z
M 628 4666 
L 2241 4666 
Q 2963 4666 3353 4366 
Q 3744 4066 3744 3513 
Q 3744 3084 3544 2831 
Q 3344 2578 2956 2516 
Q 3422 2416 3680 2098 
Q 3938 1781 3938 1306 
Q 3938 681 3513 340 
Q 3088 0 2303 0 
L 628 0 
L 628 4666 
z
" transform="scale(0.015625)"/>
       <path id="DejaVuSans-2d" d="M 313 2009 
L 1997 2009 
L 1997 1497 
L 313 1497 
L 313 2009 
z
" transform="scale(0.015625)"/>
      </defs>
      <use xlink:href="#DejaVuSans-4e"/>
      <use xlink:href="#DejaVuSans-6f" transform="translate(74.804688 0)"/>
      <use xlink:href="#DejaVuSans-72" transform="translate(135.986328 0)"/>
      <use xlink:href="#DejaVuSans-6d" transform="translate(175.349609 0)"/>
      <use xlink:href="#DejaVuSans-61" transform="translate(272.761719 0)"/>
      <use xlink:href="#DejaVuSans-6c" transform="translate(334.041016 0)"/>
      <use xlink:href="#DejaVuSans-69" transform="translate(361.824219 0)"/>
      <use xlink:href="#DejaVuSans-7a" transform="translate(389.607422 0)"/>
      <use xlink:href="#DejaVuSans-65" transform="translate(442.097656 0)"/>
      <use xlink:href="#DejaVuSans-64" transform="translate(503.621094 0)"/>
      <use xlink:href="#DejaVuSans-20" transform="translate(567.097656 0)"/>
      <use xlink:href="#DejaVuSans-6e" transform="translate(598.884766 0)"/>
      <use xlink:href="#DejaVuSans-75" transform="translate(662.263672 0)"/>
      <use xlink:href="#DejaVuSans-6d" transform="translate(725.642578 0)"/>
      <use xlink:href="#DejaVuSans-62" transform="translate(823.054688 0)"/>
      <use xlink:href="#DejaVuSans-65" transform="translate(886.53125 0)"/>
      <use xlink:href="#DejaVuSans-72" transform="translate(948.054688 0)"/>
      <use xlink:href="#DejaVuSans-6f" transform="translate(986.917969 0)"/>
      <use xlink:href="#DejaVuSans-66" transform="translate(1048.099609 0)"/>
      <use xlink:href="#DejaVuSans-62" transform="translate(1083.304688 0)"/>
      <use xlink:href="#DejaVuSans-6f" transform="translate(1146.78125 0)"/>
      <use xlink:href="#DejaVuSans-75" transform="translate(1207.962891 0)"/>
      <use xlink:href="#DejaVuSans-74" transform="translate(1271.341797 0)"/>
      <use xlink:href="#DejaVuSans-73" transform="translate(1310.550781 0)"/>
      <use xlink:href="#DejaVuSans-3a" transform="translate(1362.650391 0)"/>
      <use xlink:href="#DejaVuSans-20" transform="translate(1396.341797 0)"/>
      <use xlink:href="#DejaVuSans-42" transform="translate(1428.128906 0)"/>
      <use xlink:href="#DejaVuSans-69" transform="translate(1496.732422 0)"/>
      <use xlink:href="#DejaVuSans-6e" transform="translate(1524.515625 0)"/>
      <use xlink:href="#DejaVuSans-6e" transform="translate(1587.894531 0)"/>
      <use xlink:href="#DejaVuSans-65" transform="translate(1651.273438 0)"/>
      <use xlink:href="#DejaVuSans-64" transform="translate(1712.796875 0)"/>
      <use xlink:href="#DejaVuSans-20" transform="translate(1776.273438 0)"/>
      <use xlink:href="#DejaVuSans-2d" transform="translate(1808.060547 0)"/>
      <use xlink:href="#DejaVuSans-20" transform="translate(1844.144531 0)"/>
      <use xlink:href="#DejaVuSans-36" transform="translate(1875.931641 0)"/>
      <use xlink:href="#DejaVuSans-30" transform="translate(1939.554688 0)"/>
     </g>
    </g>
   </g>
   <g id="line2d_15">
    <path d="M 92.870103 197.454408 
L 101.190248 197.454408 
M 97.030176 197.454408 
L 97.030176 174.330548 
M 92.870103 174.330548 
L 101.190248 174.330548 
" clip-path="url(#pff62c45db0)" style="fill: none; stroke: #000000; stroke-width: 2; stroke-linecap: square"/>
   </g>
   <g id="line2d_16">
    <path d="M 176.07155 198.247183 
L 184.391694 198.247183 
M 180.231622 198.247183 
L 180.231622 173.537773 
M 176.07155 173.537773 
L 184.391694 173.537773 
" clip-path="url(#pff62c45db0)" style="fill: none; stroke: #000000; stroke-width: 2; stroke-linecap: square"/>
   </g>
   <g id="line2d_17">
    <path d="M 259.272996 194.276152 
L 267.59314 194.276152 
M 263.433068 194.276152 
L 263.433068 177.508804 
M 259.272996 177.508804 
L 267.59314 177.508804 
" clip-path="url(#pff62c45db0)" style="fill: none; stroke: #000000; stroke-width: 2; stroke-linecap: square"/>
   </g>
   <g id="line2d_18">
    <path d="M 342.474442 194.997861 
L 350.794587 194.997861 
M 346.634514 194.997861 
L 346.634514 176.787094 
M 342.474442 176.787094 
L 350.794587 176.787094 
" clip-path="url(#pff62c45db0)" style="fill: none; stroke: #000000; stroke-width: 2; stroke-linecap: square"/>
   </g>
   <g id="line2d_19">
    <path d="M 425.675888 198.508024 
L 433.996033 198.508024 
M 429.835961 198.508024 
L 429.835961 173.276932 
M 425.675888 173.276932 
L 433.996033 173.276932 
" clip-path="url(#pff62c45db0)" style="fill: none; stroke: #000000; stroke-width: 2; stroke-linecap: square"/>
   </g>
   <g id="line2d_20">
    <path d="M 508.877335 199.322071 
L 517.197479 199.322071 
M 513.037407 199.322071 
L 513.037407 172.462885 
M 508.877335 172.462885 
L 517.197479 172.462885 
" clip-path="url(#pff62c45db0)" style="fill: none; stroke: #000000; stroke-width: 2; stroke-linecap: square"/>
   </g>
   <g id="line2d_21">
    <path d="M 592.078781 195.906208 
L 600.398926 195.906208 
M 596.238853 195.906208 
L 596.238853 175.878748 
M 592.078781 175.878748 
L 600.398926 175.878748 
" clip-path="url(#pff62c45db0)" style="fill: none; stroke: #000000; stroke-width: 2; stroke-linecap: square"/>
   </g>
   <g id="line2d_22">
    <path d="M 675.280227 195.914418 
L 683.600372 195.914418 
M 679.4403 195.914418 
L 679.4403 175.870538 
M 675.280227 175.870538 
L 683.600372 175.870538 
" clip-path="url(#pff62c45db0)" style="fill: none; stroke: #000000; stroke-width: 2; stroke-linecap: square"/>
   </g>
   <g id="line2d_23">
    <path d="M 758.481674 195.914418 
L 766.801818 195.914418 
M 762.641746 195.914418 
L 762.641746 175.870538 
M 758.481674 175.870538 
L 766.801818 175.870538 
" clip-path="url(#pff62c45db0)" style="fill: none; stroke: #000000; stroke-width: 2; stroke-linecap: square"/>
   </g>
   <g id="line2d_24">
    <path d="M 126.150682 170.336985 
L 134.470826 170.336985 
M 130.310754 170.336985 
L 130.310754 140.234929 
M 126.150682 140.234929 
L 134.470826 140.234929 
" clip-path="url(#pff62c45db0)" style="fill: none; stroke: #ff0000; stroke-width: 2; stroke-linecap: square"/>
   </g>
   <g id="line2d_25">
    <path d="M 209.352128 221.517901 
L 217.672273 221.517901 
M 213.5122 221.517901 
L 213.5122 196.838832 
M 209.352128 196.838832 
L 217.672273 196.838832 
" clip-path="url(#pff62c45db0)" style="fill: none; stroke: #ff0000; stroke-width: 2; stroke-linecap: square"/>
   </g>
   <g id="line2d_26">
    <path d="M 292.553574 179.120922 
L 300.873719 179.120922 
M 296.713647 179.120922 
L 296.713647 160.891002 
M 292.553574 160.891002 
L 300.873719 160.891002 
" clip-path="url(#pff62c45db0)" style="fill: none; stroke: #ff0000; stroke-width: 2; stroke-linecap: square"/>
   </g>
   <g id="line2d_27">
    <path d="M 375.755021 203.812893 
L 384.075165 203.812893 
M 379.915093 203.812893 
L 379.915093 186.799298 
M 375.755021 186.799298 
L 384.075165 186.799298 
" clip-path="url(#pff62c45db0)" style="fill: none; stroke: #ff0000; stroke-width: 2; stroke-linecap: square"/>
   </g>
   <g id="line2d_28">
    <path d="M 458.956467 267.717934 
L 467.276612 267.717934 
M 463.116539 267.717934 
L 463.116539 252.041366 
M 458.956467 252.041366 
L 467.276612 252.041366 
" clip-path="url(#pff62c45db0)" style="fill: none; stroke: #ff0000; stroke-width: 2; stroke-linecap: square"/>
   </g>
   <g id="line2d_29">
    <path d="M 542.157913 242.090242 
L 550.478058 242.090242 
M 546.317986 242.090242 
L 546.317986 228.733867 
M 542.157913 228.733867 
L 550.478058 228.733867 
" clip-path="url(#pff62c45db0)" style="fill: none; stroke: #ff0000; stroke-width: 2; stroke-linecap: square"/>
   </g>
   <g id="line2d_30">
    <path d="M 625.35936 146.252218 
L 633.679504 146.252218 
M 629.519432 146.252218 
L 629.519432 103.584613 
M 625.35936 103.584613 
L 633.679504 103.584613 
" clip-path="url(#pff62c45db0)" style="fill: none; stroke: #ff0000; stroke-width: 2; stroke-linecap: square"/>
   </g>
   <g id="line2d_31">
    <path d="M 708.560806 231.702437 
L 716.88095 231.702437 
M 712.720878 231.702437 
L 712.720878 218.123468 
M 708.560806 218.123468 
L 716.88095 218.123468 
" clip-path="url(#pff62c45db0)" style="fill: none; stroke: #ff0000; stroke-width: 2; stroke-linecap: square"/>
   </g>
   <g id="line2d_32">
    <path d="M 791.762252 231.702437 
L 800.082397 231.702437 
M 795.922324 231.702437 
L 795.922324 218.123468 
M 791.762252 218.123468 
L 800.082397 218.123468 
" clip-path="url(#pff62c45db0)" style="fill: none; stroke: #ff0000; stroke-width: 2; stroke-linecap: square"/>
   </g>
   <g id="line2d_33">
    <path d="M 97.030176 39.15497 
L 97.030176 36.972044 
L 130.310754 36.972044 
L 130.310754 39.15497 
" clip-path="url(#pff62c45db0)" style="fill: none; stroke: #000000; stroke-width: 1.5; stroke-linecap: square"/>
   </g>
   <g id="line2d_34">
    <path d="M 180.231622 39.15497 
L 180.231622 36.972044 
L 213.5122 36.972044 
L 213.5122 39.15497 
" clip-path="url(#pff62c45db0)" style="fill: none; stroke: #000000; stroke-width: 1.5; stroke-linecap: square"/>
   </g>
   <g id="line2d_35">
    <path d="M 263.433068 39.15497 
L 263.433068 36.972044 
L 296.713647 36.972044 
L 296.713647 39.15497 
" clip-path="url(#pff62c45db0)" style="fill: none; stroke: #000000; stroke-width: 1.5; stroke-linecap: square"/>
   </g>
   <g id="line2d_36">
    <path d="M 346.634514 39.15497 
L 346.634514 36.972044 
L 379.915093 36.972044 
L 379.915093 39.15497 
" clip-path="url(#pff62c45db0)" style="fill: none; stroke: #000000; stroke-width: 1.5; stroke-linecap: square"/>
   </g>
   <g id="line2d_37">
    <path d="M 429.835961 39.15497 
L 429.835961 36.972044 
L 463.116539 36.972044 
L 463.116539 39.15497 
" clip-path="url(#pff62c45db0)" style="fill: none; stroke: #000000; stroke-width: 1.5; stroke-linecap: square"/>
   </g>
   <g id="line2d_38">
    <path d="M 513.037407 39.15497 
L 513.037407 36.972044 
L 546.317986 36.972044 
L 546.317986 39.15497 
" clip-path="url(#pff62c45db0)" style="fill: none; stroke: #000000; stroke-width: 1.5; stroke-linecap: square"/>
   </g>
   <g id="line2d_39">
    <path d="M 596.238853 39.15497 
L 596.238853 36.972044 
L 629.519432 36.972044 
L 629.519432 39.15497 
" clip-path="url(#pff62c45db0)" style="fill: none; stroke: #000000; stroke-width: 1.5; stroke-linecap: square"/>
   </g>
   <g id="line2d_40">
    <path d="M 679.4403 39.15497 
L 679.4403 36.972044 
L 712.720878 36.972044 
L 712.720878 39.15497 
" clip-path="url(#pff62c45db0)" style="fill: none; stroke: #000000; stroke-width: 1.5; stroke-linecap: square"/>
   </g>
   <g id="line2d_41">
    <path d="M 762.641746 39.15497 
L 762.641746 36.972044 
L 795.922324 36.972044 
L 795.922324 39.15497 
" clip-path="url(#pff62c45db0)" style="fill: none; stroke: #000000; stroke-width: 1.5; stroke-linecap: square"/>
   </g>
   <g id="patch_21">
    <path d="M 43.78125 295.038773 
L 43.78125 76.746182 
" style="fill: none; stroke: #000000; stroke-width: 0.8; stroke-linejoin: miter; stroke-linecap: square"/>
   </g>
   <g id="patch_22">
    <path d="M 113.670465 295.038773 
L 779.282035 295.038773 
" style="fill: none; stroke: #000000; stroke-width: 0.8; stroke-linejoin: miter; stroke-linecap: square"/>
   </g>
   <g id="PathCollection_1">
    <defs>
     <path id="C0_0_4ee02f5c6d" d="M 0 2.5 
C 0.663008 2.5 1.29895 2.236584 1.767767 1.767767 
C 2.236584 1.29895 2.5 0.663008 2.5 -0 
C 2.5 -0.663008 2.236584 -1.29895 1.767767 -1.767767 
C 1.29895 -2.236584 0.663008 -2.5 0 -2.5 
C -0.663008 -2.5 -1.29895 -2.236584 -1.767767 -1.767767 
C -2.236584 -1.29895 -2.5 -0.663008 -2.5 0 
C -2.5 0.663008 -2.236584 1.29895 -1.767767 1.767767 
C -1.29895 2.236584 -0.663008 2.5 0 2.5 
z
"/>
    </defs>
    <g clip-path="url(#pff62c45db0)">
     <use xlink:href="#C0_0_4ee02f5c6d" x="96.569281" y="256.374896" style="fill-opacity: 0.3"/>
    </g>
    <g clip-path="url(#pff62c45db0)">
     <use xlink:href="#C0_0_4ee02f5c6d" x="98.423337" y="219.428327" style="fill-opacity: 0.3"/>
    </g>
    <g clip-path="url(#pff62c45db0)">
     <use xlink:href="#C0_0_4ee02f5c6d" x="98.471754" y="199.791705" style="fill-opacity: 0.3"/>
    </g>
    <g clip-path="url(#pff62c45db0)">
     <use xlink:href="#C0_0_4ee02f5c6d" x="100.027017" y="177.551421" style="fill-opacity: 0.3"/>
    </g>
    <g clip-path="url(#pff62c45db0)">
     <use xlink:href="#C0_0_4ee02f5c6d" x="94.480577" y="222.937893" style="fill-opacity: 0.3"/>
    </g>
    <g clip-path="url(#pff62c45db0)">
     <use xlink:href="#C0_0_4ee02f5c6d" x="92.906388" y="191.208422" style="fill-opacity: 0.3"/>
    </g>
    <g clip-path="url(#pff62c45db0)">
     <use xlink:href="#C0_0_4ee02f5c6d" x="95.744649" y="223.035652" style="fill-opacity: 0.3"/>
    </g>
    <g clip-path="url(#pff62c45db0)">
     <use xlink:href="#C0_0_4ee02f5c6d" x="97.328446" y="159.198707" style="fill-opacity: 0.3"/>
    </g>
    <g clip-path="url(#pff62c45db0)">
     <use xlink:href="#C0_0_4ee02f5c6d" x="100.924945" y="184.710674" style="fill-opacity: 0.3"/>
    </g>
    <g clip-path="url(#pff62c45db0)">
     <use xlink:href="#C0_0_4ee02f5c6d" x="93.114747" y="110.540551" style="fill-opacity: 0.3"/>
    </g>
    <g clip-path="url(#pff62c45db0)">
     <use xlink:href="#C0_0_4ee02f5c6d" x="93.226791" y="231.843782" style="fill-opacity: 0.3"/>
    </g>
    <g clip-path="url(#pff62c45db0)">
     <use xlink:href="#C0_0_4ee02f5c6d" x="101.140851" y="207.061752" style="fill-opacity: 0.3"/>
    </g>
    <g clip-path="url(#pff62c45db0)">
     <use xlink:href="#C0_0_4ee02f5c6d" x="99.879203" y="173.057743" style="fill-opacity: 0.3"/>
    </g>
    <g clip-path="url(#pff62c45db0)">
     <use xlink:href="#C0_0_4ee02f5c6d" x="96.072468" y="116.608157" style="fill-opacity: 0.3"/>
    </g>
    <g clip-path="url(#pff62c45db0)">
     <use xlink:href="#C0_0_4ee02f5c6d" x="93.307323" y="115.037488" style="fill-opacity: 0.3"/>
    </g>
   </g>
   <g id="PathCollection_2">
    <defs>
     <path id="C1_0_a6209a13f0" d="M 0 2.5 
C 0.663008 2.5 1.29895 2.236584 1.767767 1.767767 
C 2.236584 1.29895 2.5 0.663008 2.5 -0 
C 2.5 -0.663008 2.236584 -1.29895 1.767767 -1.767767 
C 1.29895 -2.236584 0.663008 -2.5 0 -2.5 
C -0.663008 -2.5 -1.29895 -2.236584 -1.767767 -1.767767 
C -2.236584 -1.29895 -2.5 -0.663008 -2.5 0 
C -2.5 0.663008 -2.236584 1.29895 -1.767767 1.767767 
C -1.29895 2.236584 -0.663008 2.5 0 2.5 
z
"/>
    </defs>
    <g clip-path="url(#pff62c45db0)">
     <use xlink:href="#C1_0_a6209a13f0" x="128.235908" y="193.209232" style="fill: #ff0000; fill-opacity: 0.3"/>
    </g>
    <g clip-path="url(#pff62c45db0)">
     <use xlink:href="#C1_0_a6209a13f0" x="130.877157" y="212.001865" style="fill: #ff0000; fill-opacity: 0.3"/>
    </g>
    <g clip-path="url(#pff62c45db0)">
     <use xlink:href="#C1_0_a6209a13f0" x="128.069257" y="164.924154" style="fill: #ff0000; fill-opacity: 0.3"/>
    </g>
    <g clip-path="url(#pff62c45db0)">
     <use xlink:href="#C1_0_a6209a13f0" x="132.851102" y="191.377871" style="fill: #ff0000; fill-opacity: 0.3"/>
    </g>
    <g clip-path="url(#pff62c45db0)">
     <use xlink:href="#C1_0_a6209a13f0" x="126.491317" y="88.104749" style="fill: #ff0000; fill-opacity: 0.3"/>
    </g>
    <g clip-path="url(#pff62c45db0)">
     <use xlink:href="#C1_0_a6209a13f0" x="130.97212" y="89.189879" style="fill: #ff0000; fill-opacity: 0.3"/>
    </g>
    <g clip-path="url(#pff62c45db0)">
     <use xlink:href="#C1_0_a6209a13f0" x="126.984317" y="130.460676" style="fill: #ff0000; fill-opacity: 0.3"/>
    </g>
    <g clip-path="url(#pff62c45db0)">
     <use xlink:href="#C1_0_a6209a13f0" x="134.11345" y="111.961322" style="fill: #ff0000; fill-opacity: 0.3"/>
    </g>
    <g clip-path="url(#pff62c45db0)">
     <use xlink:href="#C1_0_a6209a13f0" x="126.879757" y="155.887919" style="fill: #ff0000; fill-opacity: 0.3"/>
    </g>
    <g clip-path="url(#pff62c45db0)">
     <use xlink:href="#C1_0_a6209a13f0" x="129.952473" y="132.292037" style="fill: #ff0000; fill-opacity: 0.3"/>
    </g>
    <g clip-path="url(#pff62c45db0)">
     <use xlink:href="#C1_0_a6209a13f0" x="126.250481" y="238.735826" style="fill: #ff0000; fill-opacity: 0.3"/>
    </g>
   </g>
   <g id="PathCollection_3">
    <defs>
     <path id="C2_0_651d98d99a" d="M 0 2.5 
C 0.663008 2.5 1.29895 2.236584 1.767767 1.767767 
C 2.236584 1.29895 2.5 0.663008 2.5 -0 
C 2.5 -0.663008 2.236584 -1.29895 1.767767 -1.767767 
C 1.29895 -2.236584 0.663008 -2.5 0 -2.5 
C -0.663008 -2.5 -1.29895 -2.236584 -1.767767 -1.767767 
C -2.236584 -1.29895 -2.5 -0.663008 -2.5 0 
C -2.5 0.663008 -2.236584 1.29895 -1.767767 1.767767 
C -1.29895 2.236584 -0.663008 2.5 0 2.5 
z
"/>
    </defs>
    <g clip-path="url(#pff62c45db0)">
     <use xlink:href="#C2_0_651d98d99a" x="178.978855" y="206.791078" style="fill-opacity: 0.3"/>
    </g>
    <g clip-path="url(#pff62c45db0)">
     <use xlink:href="#C2_0_651d98d99a" x="182.072269" y="167.55172" style="fill-opacity: 0.3"/>
    </g>
    <g clip-path="url(#pff62c45db0)">
     <use xlink:href="#C2_0_651d98d99a" x="178.225125" y="214.972953" style="fill-opacity: 0.3"/>
    </g>
    <g clip-path="url(#pff62c45db0)">
     <use xlink:href="#C2_0_651d98d99a" x="180.960701" y="182.986894" style="fill-opacity: 0.3"/>
    </g>
    <g clip-path="url(#pff62c45db0)">
     <use xlink:href="#C2_0_651d98d99a" x="181.468043" y="132.182999" style="fill-opacity: 0.3"/>
    </g>
    <g clip-path="url(#pff62c45db0)">
     <use xlink:href="#C2_0_651d98d99a" x="181.694687" y="223.678334" style="fill-opacity: 0.3"/>
    </g>
    <g clip-path="url(#pff62c45db0)">
     <use xlink:href="#C2_0_651d98d99a" x="183.834915" y="224.367658" style="fill-opacity: 0.3"/>
    </g>
    <g clip-path="url(#pff62c45db0)">
     <use xlink:href="#C2_0_651d98d99a" x="178.257218" y="215.534361" style="fill-opacity: 0.3"/>
    </g>
    <g clip-path="url(#pff62c45db0)">
     <use xlink:href="#C2_0_651d98d99a" x="176.673429" y="178.325073" style="fill-opacity: 0.3"/>
    </g>
    <g clip-path="url(#pff62c45db0)">
     <use xlink:href="#C2_0_651d98d99a" x="183.844727" y="112.533709" style="fill-opacity: 0.3"/>
    </g>
   </g>
   <g id="PathCollection_4">
    <defs>
     <path id="C3_0_ce79f90f6b" d="M 0 2.5 
C 0.663008 2.5 1.29895 2.236584 1.767767 1.767767 
C 2.236584 1.29895 2.5 0.663008 2.5 -0 
C 2.5 -0.663008 2.236584 -1.29895 1.767767 -1.767767 
C 1.29895 -2.236584 0.663008 -2.5 0 -2.5 
C -0.663008 -2.5 -1.29895 -2.236584 -1.767767 -1.767767 
C -2.236584 -1.29895 -2.5 -0.663008 -2.5 0 
C -2.5 0.663008 -2.236584 1.29895 -1.767767 1.767767 
C -1.29895 2.236584 -0.663008 2.5 0 2.5 
z
"/>
    </defs>
    <g clip-path="url(#pff62c45db0)">
     <use xlink:href="#C3_0_ce79f90f6b" x="212.307742" y="249.803953" style="fill: #ff0000; fill-opacity: 0.3"/>
    </g>
    <g clip-path="url(#pff62c45db0)">
     <use xlink:href="#C3_0_ce79f90f6b" x="216.149517" y="197.853554" style="fill: #ff0000; fill-opacity: 0.3"/>
    </g>
    <g clip-path="url(#pff62c45db0)">
     <use xlink:href="#C3_0_ce79f90f6b" x="217.567357" y="233.617866" style="fill: #ff0000; fill-opacity: 0.3"/>
    </g>
    <g clip-path="url(#pff62c45db0)">
     <use xlink:href="#C3_0_ce79f90f6b" x="213.324871" y="202.439572" style="fill: #ff0000; fill-opacity: 0.3"/>
    </g>
    <g clip-path="url(#pff62c45db0)">
     <use xlink:href="#C3_0_ce79f90f6b" x="215.336055" y="239.750718" style="fill: #ff0000; fill-opacity: 0.3"/>
    </g>
    <g clip-path="url(#pff62c45db0)">
     <use xlink:href="#C3_0_ce79f90f6b" x="214.147183" y="250.950458" style="fill: #ff0000; fill-opacity: 0.3"/>
    </g>
    <g clip-path="url(#pff62c45db0)">
     <use xlink:href="#C3_0_ce79f90f6b" x="216.155194" y="155.823735" style="fill: #ff0000; fill-opacity: 0.3"/>
    </g>
    <g clip-path="url(#pff62c45db0)">
     <use xlink:href="#C3_0_ce79f90f6b" x="212.044665" y="240.747988" style="fill: #ff0000; fill-opacity: 0.3"/>
    </g>
    <g clip-path="url(#pff62c45db0)">
     <use xlink:href="#C3_0_ce79f90f6b" x="214.597015" y="160.833771" style="fill: #ff0000; fill-opacity: 0.3"/>
    </g>
    <g clip-path="url(#pff62c45db0)">
     <use xlink:href="#C3_0_ce79f90f6b" x="212.594419" y="159.962048" style="fill: #ff0000; fill-opacity: 0.3"/>
    </g>
   </g>
   <g id="PathCollection_5">
    <defs>
     <path id="C4_0_b8bc937aa9" d="M 0 2.5 
C 0.663008 2.5 1.29895 2.236584 1.767767 1.767767 
C 2.236584 1.29895 2.5 0.663008 2.5 -0 
C 2.5 -0.663008 2.236584 -1.29895 1.767767 -1.767767 
C 1.29895 -2.236584 0.663008 -2.5 0 -2.5 
C -0.663008 -2.5 -1.29895 -2.236584 -1.767767 -1.767767 
C -2.236584 -1.29895 -2.5 -0.663008 -2.5 0 
C -2.5 0.663008 -2.236584 1.29895 -1.767767 1.767767 
C -1.29895 2.236584 -0.663008 2.5 0 2.5 
z
"/>
    </defs>
    <g clip-path="url(#pff62c45db0)">
     <use xlink:href="#C4_0_b8bc937aa9" x="263.636675" y="216.727541" style="fill-opacity: 0.3"/>
    </g>
    <g clip-path="url(#pff62c45db0)">
     <use xlink:href="#C4_0_b8bc937aa9" x="260.773182" y="234.053515" style="fill-opacity: 0.3"/>
    </g>
    <g clip-path="url(#pff62c45db0)">
     <use xlink:href="#C4_0_b8bc937aa9" x="266.804735" y="168.202549" style="fill-opacity: 0.3"/>
    </g>
    <g clip-path="url(#pff62c45db0)">
     <use xlink:href="#C4_0_b8bc937aa9" x="264.005638" y="208.425413" style="fill-opacity: 0.3"/>
    </g>
    <g clip-path="url(#pff62c45db0)">
     <use xlink:href="#C4_0_b8bc937aa9" x="261.674455" y="164.525555" style="fill-opacity: 0.3"/>
    </g>
    <g clip-path="url(#pff62c45db0)">
     <use xlink:href="#C4_0_b8bc937aa9" x="265.744149" y="128.456113" style="fill-opacity: 0.3"/>
    </g>
    <g clip-path="url(#pff62c45db0)">
     <use xlink:href="#C4_0_b8bc937aa9" x="260.115735" y="247.610511" style="fill-opacity: 0.3"/>
    </g>
    <g clip-path="url(#pff62c45db0)">
     <use xlink:href="#C4_0_b8bc937aa9" x="266.973943" y="153.074752" style="fill-opacity: 0.3"/>
    </g>
    <g clip-path="url(#pff62c45db0)">
     <use xlink:href="#C4_0_b8bc937aa9" x="260.492839" y="216.307717" style="fill-opacity: 0.3"/>
    </g>
    <g clip-path="url(#pff62c45db0)">
     <use xlink:href="#C4_0_b8bc937aa9" x="260.643267" y="178.492941" style="fill-opacity: 0.3"/>
    </g>
    <g clip-path="url(#pff62c45db0)">
     <use xlink:href="#C4_0_b8bc937aa9" x="264.221142" y="157.027696" style="fill-opacity: 0.3"/>
    </g>
    <g clip-path="url(#pff62c45db0)">
     <use xlink:href="#C4_0_b8bc937aa9" x="259.396168" y="166.303909" style="fill-opacity: 0.3"/>
    </g>
    <g clip-path="url(#pff62c45db0)">
     <use xlink:href="#C4_0_b8bc937aa9" x="260.219493" y="201.040765" style="fill-opacity: 0.3"/>
    </g>
    <g clip-path="url(#pff62c45db0)">
     <use xlink:href="#C4_0_b8bc937aa9" x="265.362467" y="147.713747" style="fill-opacity: 0.3"/>
    </g>
    <g clip-path="url(#pff62c45db0)">
     <use xlink:href="#C4_0_b8bc937aa9" x="262.102481" y="201.722389" style="fill-opacity: 0.3"/>
    </g>
    <g clip-path="url(#pff62c45db0)">
     <use xlink:href="#C4_0_b8bc937aa9" x="265.093077" y="184.594533" style="fill-opacity: 0.3"/>
    </g>
   </g>
   <g id="PathCollection_6">
    <defs>
     <path id="C5_0_90805d0ea8" d="M 0 2.5 
C 0.663008 2.5 1.29895 2.236584 1.767767 1.767767 
C 2.236584 1.29895 2.5 0.663008 2.5 -0 
C 2.5 -0.663008 2.236584 -1.29895 1.767767 -1.767767 
C 1.29895 -2.236584 0.663008 -2.5 0 -2.5 
C -0.663008 -2.5 -1.29895 -2.236584 -1.767767 -1.767767 
C -2.236584 -1.29895 -2.5 -0.663008 -2.5 0 
C -2.5 0.663008 -2.236584 1.29895 -1.767767 1.767767 
C -1.29895 2.236584 -0.663008 2.5 0 2.5 
z
"/>
    </defs>
    <g clip-path="url(#pff62c45db0)">
     <use xlink:href="#C5_0_90805d0ea8" x="296.593745" y="132.293489" style="fill: #ff0000; fill-opacity: 0.3"/>
    </g>
    <g clip-path="url(#pff62c45db0)">
     <use xlink:href="#C5_0_90805d0ea8" x="300.720322" y="216.953962" style="fill: #ff0000; fill-opacity: 0.3"/>
    </g>
    <g clip-path="url(#pff62c45db0)">
     <use xlink:href="#C5_0_90805d0ea8" x="292.978673" y="175.396154" style="fill: #ff0000; fill-opacity: 0.3"/>
    </g>
    <g clip-path="url(#pff62c45db0)">
     <use xlink:href="#C5_0_90805d0ea8" x="295.264046" y="227.308036" style="fill: #ff0000; fill-opacity: 0.3"/>
    </g>
    <g clip-path="url(#pff62c45db0)">
     <use xlink:href="#C5_0_90805d0ea8" x="294.903569" y="163.376937" style="fill: #ff0000; fill-opacity: 0.3"/>
    </g>
    <g clip-path="url(#pff62c45db0)">
     <use xlink:href="#C5_0_90805d0ea8" x="298.244582" y="129.786341" style="fill: #ff0000; fill-opacity: 0.3"/>
    </g>
    <g clip-path="url(#pff62c45db0)">
     <use xlink:href="#C5_0_90805d0ea8" x="300.870173" y="169.766273" style="fill: #ff0000; fill-opacity: 0.3"/>
    </g>
    <g clip-path="url(#pff62c45db0)">
     <use xlink:href="#C5_0_90805d0ea8" x="296.427358" y="139.652193" style="fill: #ff0000; fill-opacity: 0.3"/>
    </g>
    <g clip-path="url(#pff62c45db0)">
     <use xlink:href="#C5_0_90805d0ea8" x="295.506297" y="128.585834" style="fill: #ff0000; fill-opacity: 0.3"/>
    </g>
    <g clip-path="url(#pff62c45db0)">
     <use xlink:href="#C5_0_90805d0ea8" x="296.633441" y="152.159631" style="fill: #ff0000; fill-opacity: 0.3"/>
    </g>
    <g clip-path="url(#pff62c45db0)">
     <use xlink:href="#C5_0_90805d0ea8" x="296.430445" y="155.987572" style="fill: #ff0000; fill-opacity: 0.3"/>
    </g>
    <g clip-path="url(#pff62c45db0)">
     <use xlink:href="#C5_0_90805d0ea8" x="298.707054" y="184.974261" style="fill: #ff0000; fill-opacity: 0.3"/>
    </g>
    <g clip-path="url(#pff62c45db0)">
     <use xlink:href="#C5_0_90805d0ea8" x="293.984839" y="178.959936" style="fill: #ff0000; fill-opacity: 0.3"/>
    </g>
    <g clip-path="url(#pff62c45db0)">
     <use xlink:href="#C5_0_90805d0ea8" x="297.773962" y="222.529596" style="fill: #ff0000; fill-opacity: 0.3"/>
    </g>
    <g clip-path="url(#pff62c45db0)">
     <use xlink:href="#C5_0_90805d0ea8" x="300.697058" y="120.578526" style="fill: #ff0000; fill-opacity: 0.3"/>
    </g>
    <g clip-path="url(#pff62c45db0)">
     <use xlink:href="#C5_0_90805d0ea8" x="297.867305" y="221.786649" style="fill: #ff0000; fill-opacity: 0.3"/>
    </g>
   </g>
   <g id="PathCollection_7">
    <defs>
     <path id="C6_0_a47972f7a2" d="M 0 2.5 
C 0.663008 2.5 1.29895 2.236584 1.767767 1.767767 
C 2.236584 1.29895 2.5 0.663008 2.5 -0 
C 2.5 -0.663008 2.236584 -1.29895 1.767767 -1.767767 
C 1.29895 -2.236584 0.663008 -2.5 0 -2.5 
C -0.663008 -2.5 -1.29895 -2.236584 -1.767767 -1.767767 
C -2.236584 -1.29895 -2.5 -0.663008 -2.5 0 
C -2.5 0.663008 -2.236584 1.29895 -1.767767 1.767767 
C -1.29895 2.236584 -0.663008 2.5 0 2.5 
z
"/>
    </defs>
    <g clip-path="url(#pff62c45db0)">
     <use xlink:href="#C6_0_a47972f7a2" x="350.565984" y="183.900066" style="fill-opacity: 0.3"/>
    </g>
    <g clip-path="url(#pff62c45db0)">
     <use xlink:href="#C6_0_a47972f7a2" x="343.355982" y="185.085713" style="fill-opacity: 0.3"/>
    </g>
    <g clip-path="url(#pff62c45db0)">
     <use xlink:href="#C6_0_a47972f7a2" x="347.63488" y="217.202237" style="fill-opacity: 0.3"/>
    </g>
    <g clip-path="url(#pff62c45db0)">
     <use xlink:href="#C6_0_a47972f7a2" x="342.476096" y="223.638608" style="fill-opacity: 0.3"/>
    </g>
    <g clip-path="url(#pff62c45db0)">
     <use xlink:href="#C6_0_a47972f7a2" x="346.464475" y="182.78217" style="fill-opacity: 0.3"/>
    </g>
    <g clip-path="url(#pff62c45db0)">
     <use xlink:href="#C6_0_a47972f7a2" x="344.981825" y="214.92773" style="fill-opacity: 0.3"/>
    </g>
    <g clip-path="url(#pff62c45db0)">
     <use xlink:href="#C6_0_a47972f7a2" x="347.124542" y="200.044227" style="fill-opacity: 0.3"/>
    </g>
    <g clip-path="url(#pff62c45db0)">
     <use xlink:href="#C6_0_a47972f7a2" x="347.605649" y="187.822381" style="fill-opacity: 0.3"/>
    </g>
    <g clip-path="url(#pff62c45db0)">
     <use xlink:href="#C6_0_a47972f7a2" x="343.976225" y="166.543641" style="fill-opacity: 0.3"/>
    </g>
    <g clip-path="url(#pff62c45db0)">
     <use xlink:href="#C6_0_a47972f7a2" x="343.697142" y="114.745372" style="fill-opacity: 0.3"/>
    </g>
    <g clip-path="url(#pff62c45db0)">
     <use xlink:href="#C6_0_a47972f7a2" x="350.674092" y="146.322306" style="fill-opacity: 0.3"/>
    </g>
    <g clip-path="url(#pff62c45db0)">
     <use xlink:href="#C6_0_a47972f7a2" x="348.780243" y="207.695282" style="fill-opacity: 0.3"/>
    </g>
   </g>
   <g id="PathCollection_8">
    <defs>
     <path id="C7_0_b2be611eea" d="M 0 2.5 
C 0.663008 2.5 1.29895 2.236584 1.767767 1.767767 
C 2.236584 1.29895 2.5 0.663008 2.5 -0 
C 2.5 -0.663008 2.236584 -1.29895 1.767767 -1.767767 
C 1.29895 -2.236584 0.663008 -2.5 0 -2.5 
C -0.663008 -2.5 -1.29895 -2.236584 -1.767767 -1.767767 
C -2.236584 -1.29895 -2.5 -0.663008 -2.5 0 
C -2.5 0.663008 -2.236584 1.29895 -1.767767 1.767767 
C -1.29895 2.236584 -0.663008 2.5 0 2.5 
z
"/>
    </defs>
    <g clip-path="url(#pff62c45db0)">
     <use xlink:href="#C7_0_b2be611eea" x="380.714671" y="212.568534" style="fill: #ff0000; fill-opacity: 0.3"/>
    </g>
    <g clip-path="url(#pff62c45db0)">
     <use xlink:href="#C7_0_b2be611eea" x="380.328406" y="164.895834" style="fill: #ff0000; fill-opacity: 0.3"/>
    </g>
    <g clip-path="url(#pff62c45db0)">
     <use xlink:href="#C7_0_b2be611eea" x="378.341426" y="202.778475" style="fill: #ff0000; fill-opacity: 0.3"/>
    </g>
    <g clip-path="url(#pff62c45db0)">
     <use xlink:href="#C7_0_b2be611eea" x="375.925394" y="227.853706" style="fill: #ff0000; fill-opacity: 0.3"/>
    </g>
    <g clip-path="url(#pff62c45db0)">
     <use xlink:href="#C7_0_b2be611eea" x="381.161176" y="141.100618" style="fill: #ff0000; fill-opacity: 0.3"/>
    </g>
    <g clip-path="url(#pff62c45db0)">
     <use xlink:href="#C7_0_b2be611eea" x="379.870166" y="104.931116" style="fill: #ff0000; fill-opacity: 0.3"/>
    </g>
    <g clip-path="url(#pff62c45db0)">
     <use xlink:href="#C7_0_b2be611eea" x="381.889965" y="233.157663" style="fill: #ff0000; fill-opacity: 0.3"/>
    </g>
    <g clip-path="url(#pff62c45db0)">
     <use xlink:href="#C7_0_b2be611eea" x="381.040006" y="225.080743" style="fill: #ff0000; fill-opacity: 0.3"/>
    </g>
    <g clip-path="url(#pff62c45db0)">
     <use xlink:href="#C7_0_b2be611eea" x="378.552463" y="135.25949" style="fill: #ff0000; fill-opacity: 0.3"/>
    </g>
    <g clip-path="url(#pff62c45db0)">
     <use xlink:href="#C7_0_b2be611eea" x="382.962616" y="190.86151" style="fill: #ff0000; fill-opacity: 0.3"/>
    </g>
    <g clip-path="url(#pff62c45db0)">
     <use xlink:href="#C7_0_b2be611eea" x="381.196671" y="200.068424" style="fill: #ff0000; fill-opacity: 0.3"/>
    </g>
    <g clip-path="url(#pff62c45db0)">
     <use xlink:href="#C7_0_b2be611eea" x="383.139158" y="234.699004" style="fill: #ff0000; fill-opacity: 0.3"/>
    </g>
    <g clip-path="url(#pff62c45db0)">
     <use xlink:href="#C7_0_b2be611eea" x="383.279496" y="222.423925" style="fill: #ff0000; fill-opacity: 0.3"/>
    </g>
    <g clip-path="url(#pff62c45db0)">
     <use xlink:href="#C7_0_b2be611eea" x="381.668185" y="183.399191" style="fill: #ff0000; fill-opacity: 0.3"/>
    </g>
    <g clip-path="url(#pff62c45db0)">
     <use xlink:href="#C7_0_b2be611eea" x="381.055075" y="206.120065" style="fill: #ff0000; fill-opacity: 0.3"/>
    </g>
    <g clip-path="url(#pff62c45db0)">
     <use xlink:href="#C7_0_b2be611eea" x="378.708523" y="222.636857" style="fill: #ff0000; fill-opacity: 0.3"/>
    </g>
    <g clip-path="url(#pff62c45db0)">
     <use xlink:href="#C7_0_b2be611eea" x="382.720201" y="225.673566" style="fill: #ff0000; fill-opacity: 0.3"/>
    </g>
    <g clip-path="url(#pff62c45db0)">
     <use xlink:href="#C7_0_b2be611eea" x="382.573497" y="211.394985" style="fill: #ff0000; fill-opacity: 0.3"/>
    </g>
    <g clip-path="url(#pff62c45db0)">
     <use xlink:href="#C7_0_b2be611eea" x="377.027958" y="165.912103" style="fill: #ff0000; fill-opacity: 0.3"/>
    </g>
   </g>
   <g id="PathCollection_9">
    <defs>
     <path id="C8_0_178e65b658" d="M 0 2.5 
C 0.663008 2.5 1.29895 2.236584 1.767767 1.767767 
C 2.236584 1.29895 2.5 0.663008 2.5 -0 
C 2.5 -0.663008 2.236584 -1.29895 1.767767 -1.767767 
C 1.29895 -2.236584 0.663008 -2.5 0 -2.5 
C -0.663008 -2.5 -1.29895 -2.236584 -1.767767 -1.767767 
C -2.236584 -1.29895 -2.5 -0.663008 -2.5 0 
C -2.5 0.663008 -2.236584 1.29895 -1.767767 1.767767 
C -1.29895 2.236584 -0.663008 2.5 0 2.5 
z
"/>
    </defs>
    <g clip-path="url(#pff62c45db0)">
     <use xlink:href="#C8_0_178e65b658" x="429.314795" y="148.969826" style="fill-opacity: 0.3"/>
    </g>
    <g clip-path="url(#pff62c45db0)">
     <use xlink:href="#C8_0_178e65b658" x="433.254881" y="227.788329" style="fill-opacity: 0.3"/>
    </g>
    <g clip-path="url(#pff62c45db0)">
     <use xlink:href="#C8_0_178e65b658" x="426.371352" y="211.003176" style="fill-opacity: 0.3"/>
    </g>
    <g clip-path="url(#pff62c45db0)">
     <use xlink:href="#C8_0_178e65b658" x="432.245418" y="250.323592" style="fill-opacity: 0.3"/>
    </g>
    <g clip-path="url(#pff62c45db0)">
     <use xlink:href="#C8_0_178e65b658" x="426.199601" y="225.142632" style="fill-opacity: 0.3"/>
    </g>
    <g clip-path="url(#pff62c45db0)">
     <use xlink:href="#C8_0_178e65b658" x="431.910763" y="132.859827" style="fill-opacity: 0.3"/>
    </g>
    <g clip-path="url(#pff62c45db0)">
     <use xlink:href="#C8_0_178e65b658" x="431.10052" y="200.614213" style="fill-opacity: 0.3"/>
    </g>
    <g clip-path="url(#pff62c45db0)">
     <use xlink:href="#C8_0_178e65b658" x="433.580905" y="181.445026" style="fill-opacity: 0.3"/>
    </g>
    <g clip-path="url(#pff62c45db0)">
     <use xlink:href="#C8_0_178e65b658" x="430.996376" y="103.114314" style="fill-opacity: 0.3"/>
    </g>
    <g clip-path="url(#pff62c45db0)">
     <use xlink:href="#C8_0_178e65b658" x="431.593794" y="198.685665" style="fill-opacity: 0.3"/>
    </g>
    <g clip-path="url(#pff62c45db0)">
     <use xlink:href="#C8_0_178e65b658" x="428.296847" y="200.691743" style="fill-opacity: 0.3"/>
    </g>
    <g clip-path="url(#pff62c45db0)">
     <use xlink:href="#C8_0_178e65b658" x="428.486601" y="150.071392" style="fill-opacity: 0.3"/>
    </g>
   </g>
   <g id="PathCollection_10">
    <defs>
     <path id="C9_0_d6294c03e1" d="M 0 2.5 
C 0.663008 2.5 1.29895 2.236584 1.767767 1.767767 
C 2.236584 1.29895 2.5 0.663008 2.5 -0 
C 2.5 -0.663008 2.236584 -1.29895 1.767767 -1.767767 
C 1.29895 -2.236584 0.663008 -2.5 0 -2.5 
C -0.663008 -2.5 -1.29895 -2.236584 -1.767767 -1.767767 
C -2.236584 -1.29895 -2.5 -0.663008 -2.5 0 
C -2.5 0.663008 -2.236584 1.29895 -1.767767 1.767767 
C -1.29895 2.236584 -0.663008 2.5 0 2.5 
z
"/>
    </defs>
    <g clip-path="url(#pff62c45db0)">
     <use xlink:href="#C9_0_d6294c03e1" x="464.647005" y="259.694979" style="fill: #ff0000; fill-opacity: 0.3"/>
    </g>
    <g clip-path="url(#pff62c45db0)">
     <use xlink:href="#C9_0_d6294c03e1" x="466.384658" y="285.967813" style="fill: #ff0000; fill-opacity: 0.3"/>
    </g>
    <g clip-path="url(#pff62c45db0)">
     <use xlink:href="#C9_0_d6294c03e1" x="462.001785" y="287.298738" style="fill: #ff0000; fill-opacity: 0.3"/>
    </g>
    <g clip-path="url(#pff62c45db0)">
     <use xlink:href="#C9_0_d6294c03e1" x="464.601063" y="262.728323" style="fill: #ff0000; fill-opacity: 0.3"/>
    </g>
    <g clip-path="url(#pff62c45db0)">
     <use xlink:href="#C9_0_d6294c03e1" x="459.841075" y="269.470166" style="fill: #ff0000; fill-opacity: 0.3"/>
    </g>
    <g clip-path="url(#pff62c45db0)">
     <use xlink:href="#C9_0_d6294c03e1" x="466.525171" y="287.444105" style="fill: #ff0000; fill-opacity: 0.3"/>
    </g>
    <g clip-path="url(#pff62c45db0)">
     <use xlink:href="#C9_0_d6294c03e1" x="462.980406" y="283.179979" style="fill: #ff0000; fill-opacity: 0.3"/>
    </g>
    <g clip-path="url(#pff62c45db0)">
     <use xlink:href="#C9_0_d6294c03e1" x="461.076201" y="232.175211" style="fill: #ff0000; fill-opacity: 0.3"/>
    </g>
    <g clip-path="url(#pff62c45db0)">
     <use xlink:href="#C9_0_d6294c03e1" x="461.880436" y="275.504551" style="fill: #ff0000; fill-opacity: 0.3"/>
    </g>
    <g clip-path="url(#pff62c45db0)">
     <use xlink:href="#C9_0_d6294c03e1" x="461.386221" y="241.517524" style="fill: #ff0000; fill-opacity: 0.3"/>
    </g>
    <g clip-path="url(#pff62c45db0)">
     <use xlink:href="#C9_0_d6294c03e1" x="460.673943" y="227.080872" style="fill: #ff0000; fill-opacity: 0.3"/>
    </g>
    <g clip-path="url(#pff62c45db0)">
     <use xlink:href="#C9_0_d6294c03e1" x="465.787162" y="206.493539" style="fill: #ff0000; fill-opacity: 0.3"/>
    </g>
   </g>
   <g id="PathCollection_11">
    <defs>
     <path id="Ca_0_5ebc448ae0" d="M 0 2.5 
C 0.663008 2.5 1.29895 2.236584 1.767767 1.767767 
C 2.236584 1.29895 2.5 0.663008 2.5 -0 
C 2.5 -0.663008 2.236584 -1.29895 1.767767 -1.767767 
C 1.29895 -2.236584 0.663008 -2.5 0 -2.5 
C -0.663008 -2.5 -1.29895 -2.236584 -1.767767 -1.767767 
C -2.236584 -1.29895 -2.5 -0.663008 -2.5 0 
C -2.5 0.663008 -2.236584 1.29895 -1.767767 1.767767 
C -1.29895 2.236584 -0.663008 2.5 0 2.5 
z
"/>
    </defs>
    <g clip-path="url(#pff62c45db0)">
     <use xlink:href="#Ca_0_5ebc448ae0" x="509.927434" y="247.549507" style="fill-opacity: 0.3"/>
    </g>
    <g clip-path="url(#pff62c45db0)">
     <use xlink:href="#Ca_0_5ebc448ae0" x="512.135966" y="242.257684" style="fill-opacity: 0.3"/>
    </g>
    <g clip-path="url(#pff62c45db0)">
     <use xlink:href="#Ca_0_5ebc448ae0" x="513.185682" y="190.69343" style="fill-opacity: 0.3"/>
    </g>
    <g clip-path="url(#pff62c45db0)">
     <use xlink:href="#Ca_0_5ebc448ae0" x="516.747275" y="172.987265" style="fill-opacity: 0.3"/>
    </g>
    <g clip-path="url(#pff62c45db0)">
     <use xlink:href="#Ca_0_5ebc448ae0" x="509.118716" y="169.045064" style="fill-opacity: 0.3"/>
    </g>
    <g clip-path="url(#pff62c45db0)">
     <use xlink:href="#Ca_0_5ebc448ae0" x="516.296873" y="142.849344" style="fill-opacity: 0.3"/>
    </g>
    <g clip-path="url(#pff62c45db0)">
     <use xlink:href="#Ca_0_5ebc448ae0" x="514.648023" y="145.781505" style="fill-opacity: 0.3"/>
    </g>
    <g clip-path="url(#pff62c45db0)">
     <use xlink:href="#Ca_0_5ebc448ae0" x="511.12645" y="123.713015" style="fill-opacity: 0.3"/>
    </g>
    <g clip-path="url(#pff62c45db0)">
     <use xlink:href="#Ca_0_5ebc448ae0" x="511.044618" y="205.458726" style="fill-opacity: 0.3"/>
    </g>
    <g clip-path="url(#pff62c45db0)">
     <use xlink:href="#Ca_0_5ebc448ae0" x="514.579242" y="218.589239" style="fill-opacity: 0.3"/>
    </g>
   </g>
   <g id="PathCollection_12">
    <defs>
     <path id="Cb_0_8d0e0aed76" d="M 0 2.5 
C 0.663008 2.5 1.29895 2.236584 1.767767 1.767767 
C 2.236584 1.29895 2.5 0.663008 2.5 -0 
C 2.5 -0.663008 2.236584 -1.29895 1.767767 -1.767767 
C 1.29895 -2.236584 0.663008 -2.5 0 -2.5 
C -0.663008 -2.5 -1.29895 -2.236584 -1.767767 -1.767767 
C -2.236584 -1.29895 -2.5 -0.663008 -2.5 0 
C -2.5 0.663008 -2.236584 1.29895 -1.767767 1.767767 
C -1.29895 2.236584 -0.663008 2.5 0 2.5 
z
"/>
    </defs>
    <g clip-path="url(#pff62c45db0)">
     <use xlink:href="#Cb_0_8d0e0aed76" x="548.076551" y="234.743339" style="fill: #ff0000; fill-opacity: 0.3"/>
    </g>
    <g clip-path="url(#pff62c45db0)">
     <use xlink:href="#Cb_0_8d0e0aed76" x="546.605223" y="259.82671" style="fill: #ff0000; fill-opacity: 0.3"/>
    </g>
    <g clip-path="url(#pff62c45db0)">
     <use xlink:href="#Cb_0_8d0e0aed76" x="549.833007" y="203.810882" style="fill: #ff0000; fill-opacity: 0.3"/>
    </g>
    <g clip-path="url(#pff62c45db0)">
     <use xlink:href="#Cb_0_8d0e0aed76" x="544.962382" y="244.687003" style="fill: #ff0000; fill-opacity: 0.3"/>
    </g>
    <g clip-path="url(#pff62c45db0)">
     <use xlink:href="#Cb_0_8d0e0aed76" x="542.984043" y="235.21353" style="fill: #ff0000; fill-opacity: 0.3"/>
    </g>
    <g clip-path="url(#pff62c45db0)">
     <use xlink:href="#Cb_0_8d0e0aed76" x="548.511229" y="194.522437" style="fill: #ff0000; fill-opacity: 0.3"/>
    </g>
    <g clip-path="url(#pff62c45db0)">
     <use xlink:href="#Cb_0_8d0e0aed76" x="542.411053" y="239.412594" style="fill: #ff0000; fill-opacity: 0.3"/>
    </g>
    <g clip-path="url(#pff62c45db0)">
     <use xlink:href="#Cb_0_8d0e0aed76" x="543.409614" y="243.237248" style="fill: #ff0000; fill-opacity: 0.3"/>
    </g>
    <g clip-path="url(#pff62c45db0)">
     <use xlink:href="#Cb_0_8d0e0aed76" x="548.362834" y="259.228087" style="fill: #ff0000; fill-opacity: 0.3"/>
    </g>
    <g clip-path="url(#pff62c45db0)">
     <use xlink:href="#Cb_0_8d0e0aed76" x="547.497366" y="239.438716" style="fill: #ff0000; fill-opacity: 0.3"/>
    </g>
   </g>
   <g id="PathCollection_13">
    <defs>
     <path id="Cc_0_653979e92d" d="M 0 2.5 
C 0.663008 2.5 1.29895 2.236584 1.767767 1.767767 
C 2.236584 1.29895 2.5 0.663008 2.5 -0 
C 2.5 -0.663008 2.236584 -1.29895 1.767767 -1.767767 
C 1.29895 -2.236584 0.663008 -2.5 0 -2.5 
C -0.663008 -2.5 -1.29895 -2.236584 -1.767767 -1.767767 
C -2.236584 -1.29895 -2.5 -0.663008 -2.5 0 
C -2.5 0.663008 -2.236584 1.29895 -1.767767 1.767767 
C -1.29895 2.236584 -0.663008 2.5 0 2.5 
z
"/>
    </defs>
    <g clip-path="url(#pff62c45db0)">
     <use xlink:href="#Cc_0_653979e92d" x="598.544383" y="253.112527" style="fill-opacity: 0.3"/>
    </g>
    <g clip-path="url(#pff62c45db0)">
     <use xlink:href="#Cc_0_653979e92d" x="596.687924" y="210.331402" style="fill-opacity: 0.3"/>
    </g>
    <g clip-path="url(#pff62c45db0)">
     <use xlink:href="#Cc_0_653979e92d" x="597.64208" y="189.655008" style="fill-opacity: 0.3"/>
    </g>
    <g clip-path="url(#pff62c45db0)">
     <use xlink:href="#Cc_0_653979e92d" x="599.530987" y="153.229723" style="fill-opacity: 0.3"/>
    </g>
    <g clip-path="url(#pff62c45db0)">
     <use xlink:href="#Cc_0_653979e92d" x="593.262179" y="196.929445" style="fill-opacity: 0.3"/>
    </g>
    <g clip-path="url(#pff62c45db0)">
     <use xlink:href="#Cc_0_653979e92d" x="592.84858" y="148.06328" style="fill-opacity: 0.3"/>
    </g>
    <g clip-path="url(#pff62c45db0)">
     <use xlink:href="#Cc_0_653979e92d" x="593.695386" y="150.856239" style="fill-opacity: 0.3"/>
    </g>
    <g clip-path="url(#pff62c45db0)">
     <use xlink:href="#Cc_0_653979e92d" x="598.551305" y="185.45495" style="fill-opacity: 0.3"/>
    </g>
    <g clip-path="url(#pff62c45db0)">
     <use xlink:href="#Cc_0_653979e92d" x="597.720069" y="180.787628" style="fill-opacity: 0.3"/>
    </g>
    <g clip-path="url(#pff62c45db0)">
     <use xlink:href="#Cc_0_653979e92d" x="595.762621" y="190.504577" style="fill-opacity: 0.3"/>
    </g>
   </g>
   <g id="PathCollection_14">
    <defs>
     <path id="Cd_0_051d183d34" d="M 0 2.5 
C 0.663008 2.5 1.29895 2.236584 1.767767 1.767767 
C 2.236584 1.29895 2.5 0.663008 2.5 -0 
C 2.5 -0.663008 2.236584 -1.29895 1.767767 -1.767767 
C 1.29895 -2.236584 0.663008 -2.5 0 -2.5 
C -0.663008 -2.5 -1.29895 -2.236584 -1.767767 -1.767767 
C -2.236584 -1.29895 -2.5 -0.663008 -2.5 0 
C -2.5 0.663008 -2.236584 1.29895 -1.767767 1.767767 
C -1.29895 2.236584 -0.663008 2.5 0 2.5 
z
"/>
    </defs>
    <g clip-path="url(#pff62c45db0)">
     <use xlink:href="#Cd_0_051d183d34" x="626.192237" y="192.124069" style="fill: #ff0000; fill-opacity: 0.3"/>
    </g>
    <g clip-path="url(#pff62c45db0)">
     <use xlink:href="#Cd_0_051d183d34" x="626.72156" y="247.144302" style="fill: #ff0000; fill-opacity: 0.3"/>
    </g>
    <g clip-path="url(#pff62c45db0)">
     <use xlink:href="#Cd_0_051d183d34" x="625.544263" y="107.61316" style="fill: #ff0000; fill-opacity: 0.3"/>
    </g>
    <g clip-path="url(#pff62c45db0)">
     <use xlink:href="#Cd_0_051d183d34" x="628.203458" y="79.003913" style="fill: #ff0000; fill-opacity: 0.3"/>
    </g>
    <g clip-path="url(#pff62c45db0)">
     <use xlink:href="#Cd_0_051d183d34" x="626.663115" y="44.612285" style="fill: #ff0000; fill-opacity: 0.3"/>
    </g>
    <g clip-path="url(#pff62c45db0)">
     <use xlink:href="#Cd_0_051d183d34" x="627.762922" y="111.276928" style="fill: #ff0000; fill-opacity: 0.3"/>
    </g>
    <g clip-path="url(#pff62c45db0)">
     <use xlink:href="#Cd_0_051d183d34" x="628.077552" y="100.232527" style="fill: #ff0000; fill-opacity: 0.3"/>
    </g>
    <g clip-path="url(#pff62c45db0)">
     <use xlink:href="#Cd_0_051d183d34" x="625.626196" y="163.748453" style="fill: #ff0000; fill-opacity: 0.3"/>
    </g>
    <g clip-path="url(#pff62c45db0)">
     <use xlink:href="#Cd_0_051d183d34" x="628.51963" y="78.510101" style="fill: #ff0000; fill-opacity: 0.3"/>
    </g>
   </g>
   <g id="PathCollection_15">
    <defs>
     <path id="Ce_0_6ab1a2eec8" d="M 0 2.5 
C 0.663008 2.5 1.29895 2.236584 1.767767 1.767767 
C 2.236584 1.29895 2.5 0.663008 2.5 -0 
C 2.5 -0.663008 2.236584 -1.29895 1.767767 -1.767767 
C 1.29895 -2.236584 0.663008 -2.5 0 -2.5 
C -0.663008 -2.5 -1.29895 -2.236584 -1.767767 -1.767767 
C -2.236584 -1.29895 -2.5 -0.663008 -2.5 0 
C -2.5 0.663008 -2.236584 1.29895 -1.767767 1.767767 
C -1.29895 2.236584 -0.663008 2.5 0 2.5 
z
"/>
    </defs>
    <g clip-path="url(#pff62c45db0)">
     <use xlink:href="#Ce_0_6ab1a2eec8" x="676.298488" y="231.723581" style="fill-opacity: 0.3"/>
    </g>
    <g clip-path="url(#pff62c45db0)">
     <use xlink:href="#Ce_0_6ab1a2eec8" x="676.2715" y="214.434636" style="fill-opacity: 0.3"/>
    </g>
    <g clip-path="url(#pff62c45db0)">
     <use xlink:href="#Ce_0_6ab1a2eec8" x="680.469098" y="146.862339" style="fill-opacity: 0.3"/>
    </g>
    <g clip-path="url(#pff62c45db0)">
     <use xlink:href="#Ce_0_6ab1a2eec8" x="678.068104" y="236.056441" style="fill-opacity: 0.3"/>
    </g>
    <g clip-path="url(#pff62c45db0)">
     <use xlink:href="#Ce_0_6ab1a2eec8" x="679.959557" y="181.748794" style="fill-opacity: 0.3"/>
    </g>
    <g clip-path="url(#pff62c45db0)">
     <use xlink:href="#Ce_0_6ab1a2eec8" x="678.771166" y="156.353982" style="fill-opacity: 0.3"/>
    </g>
    <g clip-path="url(#pff62c45db0)">
     <use xlink:href="#Ce_0_6ab1a2eec8" x="677.191428" y="198.219206" style="fill-opacity: 0.3"/>
    </g>
    <g clip-path="url(#pff62c45db0)">
     <use xlink:href="#Ce_0_6ab1a2eec8" x="682.090419" y="145.38972" style="fill-opacity: 0.3"/>
    </g>
    <g clip-path="url(#pff62c45db0)">
     <use xlink:href="#Ce_0_6ab1a2eec8" x="679.789126" y="232.527331" style="fill-opacity: 0.3"/>
    </g>
    <g clip-path="url(#pff62c45db0)">
     <use xlink:href="#Ce_0_6ab1a2eec8" x="676.967465" y="127.502121" style="fill-opacity: 0.3"/>
    </g>
    <g clip-path="url(#pff62c45db0)">
     <use xlink:href="#Ce_0_6ab1a2eec8" x="678.531028" y="198.259856" style="fill-opacity: 0.3"/>
    </g>
    <g clip-path="url(#pff62c45db0)">
     <use xlink:href="#Ce_0_6ab1a2eec8" x="683.007576" y="173.820306" style="fill-opacity: 0.3"/>
    </g>
    <g clip-path="url(#pff62c45db0)">
     <use xlink:href="#Ce_0_6ab1a2eec8" x="680.733375" y="173.703901" style="fill-opacity: 0.3"/>
    </g>
   </g>
   <g id="PathCollection_16">
    <defs>
     <path id="Cf_0_ed6476ac9d" d="M 0 2.5 
C 0.663008 2.5 1.29895 2.236584 1.767767 1.767767 
C 2.236584 1.29895 2.5 0.663008 2.5 -0 
C 2.5 -0.663008 2.236584 -1.29895 1.767767 -1.767767 
C 1.29895 -2.236584 0.663008 -2.5 0 -2.5 
C -0.663008 -2.5 -1.29895 -2.236584 -1.767767 -1.767767 
C -2.236584 -1.29895 -2.5 -0.663008 -2.5 0 
C -2.5 0.663008 -2.236584 1.29895 -1.767767 1.767767 
C -1.29895 2.236584 -0.663008 2.5 0 2.5 
z
"/>
    </defs>
    <g clip-path="url(#pff62c45db0)">
     <use xlink:href="#Cf_0_ed6476ac9d" x="716.11261" y="263.045819" style="fill: #ff0000; fill-opacity: 0.3"/>
    </g>
    <g clip-path="url(#pff62c45db0)">
     <use xlink:href="#Cf_0_ed6476ac9d" x="711.606422" y="241.418471" style="fill: #ff0000; fill-opacity: 0.3"/>
    </g>
    <g clip-path="url(#pff62c45db0)">
     <use xlink:href="#Cf_0_ed6476ac9d" x="715.340457" y="261.462339" style="fill: #ff0000; fill-opacity: 0.3"/>
    </g>
    <g clip-path="url(#pff62c45db0)">
     <use xlink:href="#Cf_0_ed6476ac9d" x="714.402091" y="232.183658" style="fill: #ff0000; fill-opacity: 0.3"/>
    </g>
    <g clip-path="url(#pff62c45db0)">
     <use xlink:href="#Cf_0_ed6476ac9d" x="712.334934" y="211.864483" style="fill: #ff0000; fill-opacity: 0.3"/>
    </g>
    <g clip-path="url(#pff62c45db0)">
     <use xlink:href="#Cf_0_ed6476ac9d" x="715.893588" y="231.488922" style="fill: #ff0000; fill-opacity: 0.3"/>
    </g>
    <g clip-path="url(#pff62c45db0)">
     <use xlink:href="#Cf_0_ed6476ac9d" x="708.638469" y="169.803402" style="fill: #ff0000; fill-opacity: 0.3"/>
    </g>
    <g clip-path="url(#pff62c45db0)">
     <use xlink:href="#Cf_0_ed6476ac9d" x="709.564365" y="231.69956" style="fill: #ff0000; fill-opacity: 0.3"/>
    </g>
    <g clip-path="url(#pff62c45db0)">
     <use xlink:href="#Cf_0_ed6476ac9d" x="712.770765" y="231.767925" style="fill: #ff0000; fill-opacity: 0.3"/>
    </g>
    <g clip-path="url(#pff62c45db0)">
     <use xlink:href="#Cf_0_ed6476ac9d" x="715.888783" y="193.156504" style="fill: #ff0000; fill-opacity: 0.3"/>
    </g>
    <g clip-path="url(#pff62c45db0)">
     <use xlink:href="#Cf_0_ed6476ac9d" x="714.433214" y="233.440095" style="fill: #ff0000; fill-opacity: 0.3"/>
    </g>
    <g clip-path="url(#pff62c45db0)">
     <use xlink:href="#Cf_0_ed6476ac9d" x="708.783563" y="168.225465" style="fill: #ff0000; fill-opacity: 0.3"/>
    </g>
    <g clip-path="url(#pff62c45db0)">
     <use xlink:href="#Cf_0_ed6476ac9d" x="711.241147" y="226.191562" style="fill: #ff0000; fill-opacity: 0.3"/>
    </g>
    <g clip-path="url(#pff62c45db0)">
     <use xlink:href="#Cf_0_ed6476ac9d" x="716.09138" y="231.41871" style="fill: #ff0000; fill-opacity: 0.3"/>
    </g>
    <g clip-path="url(#pff62c45db0)">
     <use xlink:href="#Cf_0_ed6476ac9d" x="713.933236" y="231.706951" style="fill: #ff0000; fill-opacity: 0.3"/>
    </g>
    <g clip-path="url(#pff62c45db0)">
     <use xlink:href="#Cf_0_ed6476ac9d" x="713.953121" y="239.733367" style="fill: #ff0000; fill-opacity: 0.3"/>
    </g>
   </g>
   <g id="PathCollection_17">
    <defs>
     <path id="C10_0_cf5b352c47" d="M 0 2.5 
C 0.663008 2.5 1.29895 2.236584 1.767767 1.767767 
C 2.236584 1.29895 2.5 0.663008 2.5 -0 
C 2.5 -0.663008 2.236584 -1.29895 1.767767 -1.767767 
C 1.29895 -2.236584 0.663008 -2.5 0 -2.5 
C -0.663008 -2.5 -1.29895 -2.236584 -1.767767 -1.767767 
C -2.236584 -1.29895 -2.5 -0.663008 -2.5 0 
C -2.5 0.663008 -2.236584 1.29895 -1.767767 1.767767 
C -1.29895 2.236584 -0.663008 2.5 0 2.5 
z
"/>
    </defs>
    <g clip-path="url(#pff62c45db0)">
     <use xlink:href="#C10_0_cf5b352c47" x="764.338571" y="231.723581" style="fill-opacity: 0.3"/>
    </g>
    <g clip-path="url(#pff62c45db0)">
     <use xlink:href="#C10_0_cf5b352c47" x="765.811378" y="214.434636" style="fill-opacity: 0.3"/>
    </g>
    <g clip-path="url(#pff62c45db0)">
     <use xlink:href="#C10_0_cf5b352c47" x="761.651689" y="146.862339" style="fill-opacity: 0.3"/>
    </g>
    <g clip-path="url(#pff62c45db0)">
     <use xlink:href="#C10_0_cf5b352c47" x="760.333982" y="236.056441" style="fill-opacity: 0.3"/>
    </g>
    <g clip-path="url(#pff62c45db0)">
     <use xlink:href="#C10_0_cf5b352c47" x="764.243568" y="181.748794" style="fill-opacity: 0.3"/>
    </g>
    <g clip-path="url(#pff62c45db0)">
     <use xlink:href="#C10_0_cf5b352c47" x="765.303831" y="156.353982" style="fill-opacity: 0.3"/>
    </g>
    <g clip-path="url(#pff62c45db0)">
     <use xlink:href="#C10_0_cf5b352c47" x="760.765933" y="198.219206" style="fill-opacity: 0.3"/>
    </g>
    <g clip-path="url(#pff62c45db0)">
     <use xlink:href="#C10_0_cf5b352c47" x="761.737087" y="145.38972" style="fill-opacity: 0.3"/>
    </g>
    <g clip-path="url(#pff62c45db0)">
     <use xlink:href="#C10_0_cf5b352c47" x="763.054289" y="232.527331" style="fill-opacity: 0.3"/>
    </g>
    <g clip-path="url(#pff62c45db0)">
     <use xlink:href="#C10_0_cf5b352c47" x="762.550973" y="127.502121" style="fill-opacity: 0.3"/>
    </g>
    <g clip-path="url(#pff62c45db0)">
     <use xlink:href="#C10_0_cf5b352c47" x="762.912107" y="198.259856" style="fill-opacity: 0.3"/>
    </g>
    <g clip-path="url(#pff62c45db0)">
     <use xlink:href="#C10_0_cf5b352c47" x="764.505017" y="173.820306" style="fill-opacity: 0.3"/>
    </g>
    <g clip-path="url(#pff62c45db0)">
     <use xlink:href="#C10_0_cf5b352c47" x="765.112191" y="173.703901" style="fill-opacity: 0.3"/>
    </g>
   </g>
   <g id="PathCollection_18">
    <defs>
     <path id="C11_0_6b60c07d33" d="M 0 2.5 
C 0.663008 2.5 1.29895 2.236584 1.767767 1.767767 
C 2.236584 1.29895 2.5 0.663008 2.5 -0 
C 2.5 -0.663008 2.236584 -1.29895 1.767767 -1.767767 
C 1.29895 -2.236584 0.663008 -2.5 0 -2.5 
C -0.663008 -2.5 -1.29895 -2.236584 -1.767767 -1.767767 
C -2.236584 -1.29895 -2.5 -0.663008 -2.5 0 
C -2.5 0.663008 -2.236584 1.29895 -1.767767 1.767767 
C -1.29895 2.236584 -0.663008 2.5 0 2.5 
z
"/>
    </defs>
    <g clip-path="url(#pff62c45db0)">
     <use xlink:href="#C11_0_6b60c07d33" x="795.829813" y="263.045819" style="fill: #ff0000; fill-opacity: 0.3"/>
    </g>
    <g clip-path="url(#pff62c45db0)">
     <use xlink:href="#C11_0_6b60c07d33" x="794.394253" y="241.418471" style="fill: #ff0000; fill-opacity: 0.3"/>
    </g>
    <g clip-path="url(#pff62c45db0)">
     <use xlink:href="#C11_0_6b60c07d33" x="796.421372" y="261.462339" style="fill: #ff0000; fill-opacity: 0.3"/>
    </g>
    <g clip-path="url(#pff62c45db0)">
     <use xlink:href="#C11_0_6b60c07d33" x="794.569919" y="232.183658" style="fill: #ff0000; fill-opacity: 0.3"/>
    </g>
    <g clip-path="url(#pff62c45db0)">
     <use xlink:href="#C11_0_6b60c07d33" x="799.083426" y="211.864483" style="fill: #ff0000; fill-opacity: 0.3"/>
    </g>
    <g clip-path="url(#pff62c45db0)">
     <use xlink:href="#C11_0_6b60c07d33" x="799.88275" y="231.488922" style="fill: #ff0000; fill-opacity: 0.3"/>
    </g>
    <g clip-path="url(#pff62c45db0)">
     <use xlink:href="#C11_0_6b60c07d33" x="799.240039" y="169.803402" style="fill: #ff0000; fill-opacity: 0.3"/>
    </g>
    <g clip-path="url(#pff62c45db0)">
     <use xlink:href="#C11_0_6b60c07d33" x="797.639019" y="231.69956" style="fill: #ff0000; fill-opacity: 0.3"/>
    </g>
    <g clip-path="url(#pff62c45db0)">
     <use xlink:href="#C11_0_6b60c07d33" x="799.048648" y="231.767925" style="fill: #ff0000; fill-opacity: 0.3"/>
    </g>
    <g clip-path="url(#pff62c45db0)">
     <use xlink:href="#C11_0_6b60c07d33" x="796.081151" y="193.156504" style="fill: #ff0000; fill-opacity: 0.3"/>
    </g>
    <g clip-path="url(#pff62c45db0)">
     <use xlink:href="#C11_0_6b60c07d33" x="799.997673" y="233.440095" style="fill: #ff0000; fill-opacity: 0.3"/>
    </g>
    <g clip-path="url(#pff62c45db0)">
     <use xlink:href="#C11_0_6b60c07d33" x="795.225902" y="168.225465" style="fill: #ff0000; fill-opacity: 0.3"/>
    </g>
    <g clip-path="url(#pff62c45db0)">
     <use xlink:href="#C11_0_6b60c07d33" x="799.42408" y="226.191562" style="fill: #ff0000; fill-opacity: 0.3"/>
    </g>
    <g clip-path="url(#pff62c45db0)">
     <use xlink:href="#C11_0_6b60c07d33" x="791.863378" y="231.41871" style="fill: #ff0000; fill-opacity: 0.3"/>
    </g>
    <g clip-path="url(#pff62c45db0)">
     <use xlink:href="#C11_0_6b60c07d33" x="795.158805" y="231.706951" style="fill: #ff0000; fill-opacity: 0.3"/>
    </g>
    <g clip-path="url(#pff62c45db0)">
     <use xlink:href="#C11_0_6b60c07d33" x="793.585951" y="239.733367" style="fill: #ff0000; fill-opacity: 0.3"/>
    </g>
   </g>
   <g id="text_16">
    <!-- 0.146 -->
    <g transform="translate(93.630777 17.837812) scale(0.14 -0.14)">
     <use xlink:href="#DejaVuSans-30"/>
     <use xlink:href="#DejaVuSans-2e" transform="translate(63.623047 0)"/>
     <use xlink:href="#DejaVuSans-31" transform="translate(95.410156 0)"/>
     <use xlink:href="#DejaVuSans-34" transform="translate(159.033203 0)"/>
     <use xlink:href="#DejaVuSans-36" transform="translate(222.65625 0)"/>
    </g>
    <!-- ns -->
    <g transform="translate(105.587652 33.51475) scale(0.14 -0.14)">
     <use xlink:href="#DejaVuSans-6e"/>
     <use xlink:href="#DejaVuSans-73" transform="translate(63.378906 0)"/>
    </g>
   </g>
   <g id="text_17">
    <!-- 0.241 -->
    <g transform="translate(176.832224 17.837812) scale(0.14 -0.14)">
     <use xlink:href="#DejaVuSans-30"/>
     <use xlink:href="#DejaVuSans-2e" transform="translate(63.623047 0)"/>
     <use xlink:href="#DejaVuSans-32" transform="translate(95.410156 0)"/>
     <use xlink:href="#DejaVuSans-34" transform="translate(159.033203 0)"/>
     <use xlink:href="#DejaVuSans-31" transform="translate(222.65625 0)"/>
    </g>
    <!-- ns -->
    <g transform="translate(188.789099 33.51475) scale(0.14 -0.14)">
     <use xlink:href="#DejaVuSans-6e"/>
     <use xlink:href="#DejaVuSans-73" transform="translate(63.378906 0)"/>
    </g>
   </g>
   <g id="text_18">
    <!-- 0.299 -->
    <g transform="translate(260.03367 17.837812) scale(0.14 -0.14)">
     <use xlink:href="#DejaVuSans-30"/>
     <use xlink:href="#DejaVuSans-2e" transform="translate(63.623047 0)"/>
     <use xlink:href="#DejaVuSans-32" transform="translate(95.410156 0)"/>
     <use xlink:href="#DejaVuSans-39" transform="translate(159.033203 0)"/>
     <use xlink:href="#DejaVuSans-39" transform="translate(222.65625 0)"/>
    </g>
    <!-- ns -->
    <g transform="translate(271.990545 33.51475) scale(0.14 -0.14)">
     <use xlink:href="#DejaVuSans-6e"/>
     <use xlink:href="#DejaVuSans-73" transform="translate(63.378906 0)"/>
    </g>
   </g>
   <g id="text_19">
    <!-- 0.282 -->
    <g transform="translate(343.235116 17.837812) scale(0.14 -0.14)">
     <use xlink:href="#DejaVuSans-30"/>
     <use xlink:href="#DejaVuSans-2e" transform="translate(63.623047 0)"/>
     <use xlink:href="#DejaVuSans-32" transform="translate(95.410156 0)"/>
     <use xlink:href="#DejaVuSans-38" transform="translate(159.033203 0)"/>
     <use xlink:href="#DejaVuSans-32" transform="translate(222.65625 0)"/>
    </g>
    <!-- ns -->
    <g transform="translate(355.191991 33.51475) scale(0.14 -0.14)">
     <use xlink:href="#DejaVuSans-6e"/>
     <use xlink:href="#DejaVuSans-73" transform="translate(63.378906 0)"/>
    </g>
   </g>
   <g id="text_20">
    <!-- &lt;0.001 -->
    <g transform="translate(420.570781 17.837812) scale(0.14 -0.14)">
     <defs>
      <path id="DejaVuSans-3c" d="M 4684 3150 
L 1459 2003 
L 4684 863 
L 4684 294 
L 678 1747 
L 678 2266 
L 4684 3719 
L 4684 3150 
z
" transform="scale(0.015625)"/>
     </defs>
     <use xlink:href="#DejaVuSans-3c"/>
     <use xlink:href="#DejaVuSans-30" transform="translate(83.789062 0)"/>
     <use xlink:href="#DejaVuSans-2e" transform="translate(147.412109 0)"/>
     <use xlink:href="#DejaVuSans-30" transform="translate(179.199219 0)"/>
     <use xlink:href="#DejaVuSans-30" transform="translate(242.822266 0)"/>
     <use xlink:href="#DejaVuSans-31" transform="translate(306.445312 0)"/>
    </g>
    <!-- *** -->
    <g transform="translate(435.97625 33.51475) scale(0.14 -0.14)">
     <defs>
      <path id="DejaVuSans-2a" d="M 3009 3897 
L 1888 3291 
L 3009 2681 
L 2828 2375 
L 1778 3009 
L 1778 1831 
L 1422 1831 
L 1422 3009 
L 372 2375 
L 191 2681 
L 1313 3291 
L 191 3897 
L 372 4206 
L 1422 3572 
L 1422 4750 
L 1778 4750 
L 1778 3572 
L 2828 4206 
L 3009 3897 
z
" transform="scale(0.015625)"/>
     </defs>
     <use xlink:href="#DejaVuSans-2a"/>
     <use xlink:href="#DejaVuSans-2a" transform="translate(50 0)"/>
     <use xlink:href="#DejaVuSans-2a" transform="translate(100 0)"/>
    </g>
   </g>
   <g id="text_21">
    <!-- 0.017 -->
    <g transform="translate(509.638009 17.837812) scale(0.14 -0.14)">
     <use xlink:href="#DejaVuSans-30"/>
     <use xlink:href="#DejaVuSans-2e" transform="translate(63.623047 0)"/>
     <use xlink:href="#DejaVuSans-30" transform="translate(95.410156 0)"/>
     <use xlink:href="#DejaVuSans-31" transform="translate(159.033203 0)"/>
     <use xlink:href="#DejaVuSans-37" transform="translate(222.65625 0)"/>
    </g>
    <!-- * -->
    <g transform="translate(526.177696 33.51475) scale(0.14 -0.14)">
     <use xlink:href="#DejaVuSans-2a"/>
    </g>
   </g>
   <g id="text_22">
    <!-- 0.037 -->
    <g transform="translate(592.839455 17.837812) scale(0.14 -0.14)">
     <use xlink:href="#DejaVuSans-30"/>
     <use xlink:href="#DejaVuSans-2e" transform="translate(63.623047 0)"/>
     <use xlink:href="#DejaVuSans-30" transform="translate(95.410156 0)"/>
     <use xlink:href="#DejaVuSans-33" transform="translate(159.033203 0)"/>
     <use xlink:href="#DejaVuSans-37" transform="translate(222.65625 0)"/>
    </g>
    <!-- * -->
    <g transform="translate(609.379143 33.51475) scale(0.14 -0.14)">
     <use xlink:href="#DejaVuSans-2a"/>
    </g>
   </g>
   <g id="text_23">
    <!-- 0.014 -->
    <g transform="translate(676.040901 17.837812) scale(0.14 -0.14)">
     <use xlink:href="#DejaVuSans-30"/>
     <use xlink:href="#DejaVuSans-2e" transform="translate(63.623047 0)"/>
     <use xlink:href="#DejaVuSans-30" transform="translate(95.410156 0)"/>
     <use xlink:href="#DejaVuSans-31" transform="translate(159.033203 0)"/>
     <use xlink:href="#DejaVuSans-34" transform="translate(222.65625 0)"/>
    </g>
    <!-- * -->
    <g transform="translate(692.580589 33.51475) scale(0.14 -0.14)">
     <use xlink:href="#DejaVuSans-2a"/>
    </g>
   </g>
   <g id="text_24">
    <!-- 0.014 -->
    <g transform="translate(759.242348 17.837812) scale(0.14 -0.14)">
     <use xlink:href="#DejaVuSans-30"/>
     <use xlink:href="#DejaVuSans-2e" transform="translate(63.623047 0)"/>
     <use xlink:href="#DejaVuSans-30" transform="translate(95.410156 0)"/>
     <use xlink:href="#DejaVuSans-31" transform="translate(159.033203 0)"/>
     <use xlink:href="#DejaVuSans-34" transform="translate(222.65625 0)"/>
    </g>
    <!-- * -->
    <g transform="translate(775.782035 33.51475) scale(0.14 -0.14)">
     <use xlink:href="#DejaVuSans-2a"/>
    </g>
   </g>
  </g>
  <g id="text_25">
   <!-- time_combo -->
   <g transform="translate(384.979219 426.598773) scale(0.14 -0.14)">
    <defs>
     <path id="DejaVuSans-63" d="M 3122 3366 
L 3122 2828 
Q 2878 2963 2633 3030 
Q 2388 3097 2138 3097 
Q 1578 3097 1268 2742 
Q 959 2388 959 1747 
Q 959 1106 1268 751 
Q 1578 397 2138 397 
Q 2388 397 2633 464 
Q 2878 531 3122 666 
L 3122 134 
Q 2881 22 2623 -34 
Q 2366 -91 2075 -91 
Q 1284 -91 818 406 
Q 353 903 353 1747 
Q 353 2603 823 3093 
Q 1294 3584 2113 3584 
Q 2378 3584 2631 3529 
Q 2884 3475 3122 3366 
z
" transform="scale(0.015625)"/>
    </defs>
    <use xlink:href="#DejaVuSans-74"/>
    <use xlink:href="#DejaVuSans-69" transform="translate(39.208984 0)"/>
    <use xlink:href="#DejaVuSans-6d" transform="translate(66.992188 0)"/>
    <use xlink:href="#DejaVuSans-65" transform="translate(164.404297 0)"/>
    <use xlink:href="#DejaVuSans-5f" transform="translate(225.927734 0)"/>
    <use xlink:href="#DejaVuSans-63" transform="translate(275.927734 0)"/>
    <use xlink:href="#DejaVuSans-6f" transform="translate(330.908203 0)"/>
    <use xlink:href="#DejaVuSans-6d" transform="translate(392.089844 0)"/>
    <use xlink:href="#DejaVuSans-62" transform="translate(489.501953 0)"/>
    <use xlink:href="#DejaVuSans-6f" transform="translate(552.978516 0)"/>
   </g>
  </g>
 </g>
 <defs>
  <clipPath id="pff62c45db0">
   <rect x="43.78125" y="24.068708" width="805.39" height="270.970066"/>
  </clipPath>
 </defs>
</svg>
