<?xml version="1.0" encoding="utf-8" standalone="no"?>
<!DOCTYPE svg PUBLIC "-//W3C//DTD SVG 1.1//EN"
  "http://www.w3.org/Graphics/SVG/1.1/DTD/svg11.dtd">
<svg xmlns:xlink="http://www.w3.org/1999/xlink" width="856.548125pt" height="437.095348pt" viewBox="0 0 856.548125 437.095348" xmlns="http://www.w3.org/2000/svg" version="1.1">
 <metadata>
  <rdf:RDF xmlns:dc="http://purl.org/dc/elements/1.1/" xmlns:cc="http://creativecommons.org/ns#" xmlns:rdf="http://www.w3.org/1999/02/22-rdf-syntax-ns#">
   <cc:Work>
    <dc:type rdf:resource="http://purl.org/dc/dcmitype/StillImage"/>
    <dc:date>2025-11-29T20:14:03.438771</dc:date>
    <dc:format>image/svg+xml</dc:format>
    <dc:creator>
     <cc:Agent>
      <dc:title>Matplotlib v3.10.0, https://matplotlib.org/</dc:title>
     </cc:Agent>
    </dc:creator>
   </cc:Work>
  </rdf:RDF>
 </metadata>
 <defs>
  <style type="text/css">*{stroke-linejoin: round; stroke-linecap: butt}</style>
 </defs>
 <g id="figure_1">
  <g id="patch_1">
   <path d="M 0 437.095348 
L 856.548125 437.095348 
L 856.548125 0 
L 0 0 
L 0 437.095348 
z
" style="fill: none"/>
  </g>
  <g id="axes_1">
   <g id="patch_2">
    <path d="M 44.059375 295.034411 
L 849.348125 295.034411 
L 849.348125 24.095531 
L 44.059375 24.095531 
L 44.059375 295.034411 
z
" style="fill: none"/>
   </g>
   <g id="patch_3">
    <path d="M 80.663409 295.034411 
L 113.939804 295.034411 
L 113.939804 180.820394 
L 80.663409 180.820394 
L 80.663409 295.034411 
z
" clip-path="url(#pd7ca89a3a2)" style="fill: none; opacity: 0"/>
   </g>
   <g id="patch_4">
    <path d="M 163.854396 295.034411 
L 197.13079 295.034411 
L 197.13079 180.820394 
L 163.854396 180.820394 
L 163.854396 295.034411 
z
" clip-path="url(#pd7ca89a3a2)" style="fill: none; opacity: 0"/>
   </g>
   <g id="patch_5">
    <path d="M 247.045382 295.034411 
L 280.321777 295.034411 
L 280.321777 180.820394 
L 247.045382 180.820394 
L 247.045382 295.034411 
z
" clip-path="url(#pd7ca89a3a2)" style="fill: none; opacity: 0"/>
   </g>
   <g id="patch_6">
    <path d="M 330.236369 295.034411 
L 363.512763 295.034411 
L 363.512763 180.820394 
L 330.236369 180.820394 
L 330.236369 295.034411 
z
" clip-path="url(#pd7ca89a3a2)" style="fill: none; opacity: 0"/>
   </g>
   <g id="patch_7">
    <path d="M 413.427355 295.034411 
L 446.70375 295.034411 
L 446.70375 180.820394 
L 413.427355 180.820394 
L 413.427355 295.034411 
z
" clip-path="url(#pd7ca89a3a2)" style="fill: none; opacity: 0"/>
   </g>
   <g id="patch_8">
    <path d="M 496.618342 295.034411 
L 529.894737 295.034411 
L 529.894737 180.820394 
L 496.618342 180.820394 
L 496.618342 295.034411 
z
" clip-path="url(#pd7ca89a3a2)" style="fill: none; opacity: 0"/>
   </g>
   <g id="patch_9">
    <path d="M 579.809329 295.034411 
L 613.085723 295.034411 
L 613.085723 180.820394 
L 579.809329 180.820394 
L 579.809329 295.034411 
z
" clip-path="url(#pd7ca89a3a2)" style="fill: none; opacity: 0"/>
   </g>
   <g id="patch_10">
    <path d="M 663.000315 295.034411 
L 696.27671 295.034411 
L 696.27671 180.820394 
L 663.000315 180.820394 
L 663.000315 295.034411 
z
" clip-path="url(#pd7ca89a3a2)" style="fill: none; opacity: 0"/>
   </g>
   <g id="patch_11">
    <path d="M 746.191302 295.034411 
L 779.467696 295.034411 
L 779.467696 180.820394 
L 746.191302 180.820394 
L 746.191302 295.034411 
z
" clip-path="url(#pd7ca89a3a2)" style="fill: none; opacity: 0"/>
   </g>
   <g id="patch_12">
    <path d="M 113.939804 295.034411 
L 147.216198 295.034411 
L 147.216198 160.83127 
L 113.939804 160.83127 
L 113.939804 295.034411 
z
" clip-path="url(#pd7ca89a3a2)" style="fill: none; opacity: 0"/>
   </g>
   <g id="patch_13">
    <path d="M 197.13079 295.034411 
L 230.407185 295.034411 
L 230.407185 204.683668 
L 197.13079 204.683668 
L 197.13079 295.034411 
z
" clip-path="url(#pd7ca89a3a2)" style="fill: none; opacity: 0"/>
   </g>
   <g id="patch_14">
    <path d="M 280.321777 295.034411 
L 313.598171 295.034411 
L 313.598171 180.24043 
L 280.321777 180.24043 
L 280.321777 295.034411 
z
" clip-path="url(#pd7ca89a3a2)" style="fill: none; opacity: 0"/>
   </g>
   <g id="patch_15">
    <path d="M 363.512763 295.034411 
L 396.789158 295.034411 
L 396.789158 191.316309 
L 363.512763 191.316309 
L 363.512763 295.034411 
z
" clip-path="url(#pd7ca89a3a2)" style="fill: none; opacity: 0"/>
   </g>
   <g id="patch_16">
    <path d="M 446.70375 295.034411 
L 479.980145 295.034411 
L 479.980145 237.86787 
L 446.70375 237.86787 
L 446.70375 295.034411 
z
" clip-path="url(#pd7ca89a3a2)" style="fill: none; opacity: 0"/>
   </g>
   <g id="patch_17">
    <path d="M 529.894737 295.034411 
L 563.171131 295.034411 
L 563.171131 224.130046 
L 529.894737 224.130046 
L 529.894737 295.034411 
z
" clip-path="url(#pd7ca89a3a2)" style="fill: none; opacity: 0"/>
   </g>
   <g id="patch_18">
    <path d="M 613.085723 295.034411 
L 646.362118 295.034411 
L 646.362118 115.834977 
L 613.085723 115.834977 
L 613.085723 295.034411 
z
" clip-path="url(#pd7ca89a3a2)" style="fill: none; opacity: 0"/>
   </g>
   <g id="patch_19">
    <path d="M 696.27671 295.034411 
L 729.553104 295.034411 
L 729.553104 217.485073 
L 696.27671 217.485073 
L 696.27671 295.034411 
z
" clip-path="url(#pd7ca89a3a2)" style="fill: none; opacity: 0"/>
   </g>
   <g id="patch_20">
    <path d="M 779.467696 295.034411 
L 812.744091 295.034411 
L 812.744091 217.485073 
L 779.467696 217.485073 
L 779.467696 295.034411 
z
" clip-path="url(#pd7ca89a3a2)" style="fill: none; opacity: 0"/>
   </g>
   <g id="matplotlib.axis_1">
    <g id="xtick_1">
     <g id="line2d_1">
      <defs>
       <path id="mf1696c8500" d="M 0 0 
L 0 3.5 
" style="stroke: #000000; stroke-width: 0.8"/>
      </defs>
      <g>
       <use xlink:href="#mf1696c8500" x="113.939804" y="295.034411" style="stroke: #000000; stroke-width: 0.8"/>
      </g>
     </g>
     <g id="text_1">
      <!-- 0889 -->
      <g transform="translate(116.699179 327.484411) rotate(-90) scale(0.1 -0.1)">
       <defs>
        <path id="DejaVuSans-30" d="M 2034 4250 
Q 1547 4250 1301 3770 
Q 1056 3291 1056 2328 
Q 1056 1369 1301 889 
Q 1547 409 2034 409 
Q 2525 409 2770 889 
Q 3016 1369 3016 2328 
Q 3016 3291 2770 3770 
Q 2525 4250 2034 4250 
z
M 2034 4750 
Q 2819 4750 3233 4129 
Q 3647 3509 3647 2328 
Q 3647 1150 3233 529 
Q 2819 -91 2034 -91 
Q 1250 -91 836 529 
Q 422 1150 422 2328 
Q 422 3509 836 4129 
Q 1250 4750 2034 4750 
z
" transform="scale(0.015625)"/>
        <path id="DejaVuSans-38" d="M 2034 2216 
Q 1584 2216 1326 1975 
Q 1069 1734 1069 1313 
Q 1069 891 1326 650 
Q 1584 409 2034 409 
Q 2484 409 2743 651 
Q 3003 894 3003 1313 
Q 3003 1734 2745 1975 
Q 2488 2216 2034 2216 
z
M 1403 2484 
Q 997 2584 770 2862 
Q 544 3141 544 3541 
Q 544 4100 942 4425 
Q 1341 4750 2034 4750 
Q 2731 4750 3128 4425 
Q 3525 4100 3525 3541 
Q 3525 3141 3298 2862 
Q 3072 2584 2669 2484 
Q 3125 2378 3379 2068 
Q 3634 1759 3634 1313 
Q 3634 634 3220 271 
Q 2806 -91 2034 -91 
Q 1263 -91 848 271 
Q 434 634 434 1313 
Q 434 1759 690 2068 
Q 947 2378 1403 2484 
z
M 1172 3481 
Q 1172 3119 1398 2916 
Q 1625 2713 2034 2713 
Q 2441 2713 2670 2916 
Q 2900 3119 2900 3481 
Q 2900 3844 2670 4047 
Q 2441 4250 2034 4250 
Q 1625 4250 1398 4047 
Q 1172 3844 1172 3481 
z
" transform="scale(0.015625)"/>
        <path id="DejaVuSans-39" d="M 703 97 
L 703 672 
Q 941 559 1184 500 
Q 1428 441 1663 441 
Q 2288 441 2617 861 
Q 2947 1281 2994 2138 
Q 2813 1869 2534 1725 
Q 2256 1581 1919 1581 
Q 1219 1581 811 2004 
Q 403 2428 403 3163 
Q 403 3881 828 4315 
Q 1253 4750 1959 4750 
Q 2769 4750 3195 4129 
Q 3622 3509 3622 2328 
Q 3622 1225 3098 567 
Q 2575 -91 1691 -91 
Q 1453 -91 1209 -44 
Q 966 3 703 97 
z
M 1959 2075 
Q 2384 2075 2632 2365 
Q 2881 2656 2881 3163 
Q 2881 3666 2632 3958 
Q 2384 4250 1959 4250 
Q 1534 4250 1286 3958 
Q 1038 3666 1038 3163 
Q 1038 2656 1286 2365 
Q 1534 2075 1959 2075 
z
" transform="scale(0.015625)"/>
       </defs>
       <use xlink:href="#DejaVuSans-30"/>
       <use xlink:href="#DejaVuSans-38" transform="translate(63.623047 0)"/>
       <use xlink:href="#DejaVuSans-38" transform="translate(127.246094 0)"/>
       <use xlink:href="#DejaVuSans-39" transform="translate(190.869141 0)"/>
      </g>
     </g>
    </g>
    <g id="xtick_2">
     <g id="line2d_2">
      <g>
       <use xlink:href="#mf1696c8500" x="197.13079" y="295.034411" style="stroke: #000000; stroke-width: 0.8"/>
      </g>
     </g>
     <g id="text_2">
      <!-- 3547 -->
      <g transform="translate(199.890165 327.484411) rotate(-90) scale(0.1 -0.1)">
       <defs>
        <path id="DejaVuSans-33" d="M 2597 2516 
Q 3050 2419 3304 2112 
Q 3559 1806 3559 1356 
Q 3559 666 3084 287 
Q 2609 -91 1734 -91 
Q 1441 -91 1130 -33 
Q 819 25 488 141 
L 488 750 
Q 750 597 1062 519 
Q 1375 441 1716 441 
Q 2309 441 2620 675 
Q 2931 909 2931 1356 
Q 2931 1769 2642 2001 
Q 2353 2234 1838 2234 
L 1294 2234 
L 1294 2753 
L 1863 2753 
Q 2328 2753 2575 2939 
Q 2822 3125 2822 3475 
Q 2822 3834 2567 4026 
Q 2313 4219 1838 4219 
Q 1578 4219 1281 4162 
Q 984 4106 628 3988 
L 628 4550 
Q 988 4650 1302 4700 
Q 1616 4750 1894 4750 
Q 2613 4750 3031 4423 
Q 3450 4097 3450 3541 
Q 3450 3153 3228 2886 
Q 3006 2619 2597 2516 
z
" transform="scale(0.015625)"/>
        <path id="DejaVuSans-35" d="M 691 4666 
L 3169 4666 
L 3169 4134 
L 1269 4134 
L 1269 2991 
Q 1406 3038 1543 3061 
Q 1681 3084 1819 3084 
Q 2600 3084 3056 2656 
Q 3513 2228 3513 1497 
Q 3513 744 3044 326 
Q 2575 -91 1722 -91 
Q 1428 -91 1123 -41 
Q 819 9 494 109 
L 494 744 
Q 775 591 1075 516 
Q 1375 441 1709 441 
Q 2250 441 2565 725 
Q 2881 1009 2881 1497 
Q 2881 1984 2565 2268 
Q 2250 2553 1709 2553 
Q 1456 2553 1204 2497 
Q 953 2441 691 2322 
L 691 4666 
z
" transform="scale(0.015625)"/>
        <path id="DejaVuSans-34" d="M 2419 4116 
L 825 1625 
L 2419 1625 
L 2419 4116 
z
M 2253 4666 
L 3047 4666 
L 3047 1625 
L 3713 1625 
L 3713 1100 
L 3047 1100 
L 3047 0 
L 2419 0 
L 2419 1100 
L 313 1100 
L 313 1709 
L 2253 4666 
z
" transform="scale(0.015625)"/>
        <path id="DejaVuSans-37" d="M 525 4666 
L 3525 4666 
L 3525 4397 
L 1831 0 
L 1172 0 
L 2766 4134 
L 525 4134 
L 525 4666 
z
" transform="scale(0.015625)"/>
       </defs>
       <use xlink:href="#DejaVuSans-33"/>
       <use xlink:href="#DejaVuSans-35" transform="translate(63.623047 0)"/>
       <use xlink:href="#DejaVuSans-34" transform="translate(127.246094 0)"/>
       <use xlink:href="#DejaVuSans-37" transform="translate(190.869141 0)"/>
      </g>
     </g>
    </g>
    <g id="xtick_3">
     <g id="line2d_3">
      <g>
       <use xlink:href="#mf1696c8500" x="280.321777" y="295.034411" style="stroke: #000000; stroke-width: 0.8"/>
      </g>
     </g>
     <g id="text_3">
      <!-- 5262 -->
      <g transform="translate(283.081152 327.484411) rotate(-90) scale(0.1 -0.1)">
       <defs>
        <path id="DejaVuSans-32" d="M 1228 531 
L 3431 531 
L 3431 0 
L 469 0 
L 469 531 
Q 828 903 1448 1529 
Q 2069 2156 2228 2338 
Q 2531 2678 2651 2914 
Q 2772 3150 2772 3378 
Q 2772 3750 2511 3984 
Q 2250 4219 1831 4219 
Q 1534 4219 1204 4116 
Q 875 4013 500 3803 
L 500 4441 
Q 881 4594 1212 4672 
Q 1544 4750 1819 4750 
Q 2544 4750 2975 4387 
Q 3406 4025 3406 3419 
Q 3406 3131 3298 2873 
Q 3191 2616 2906 2266 
Q 2828 2175 2409 1742 
Q 1991 1309 1228 531 
z
" transform="scale(0.015625)"/>
        <path id="DejaVuSans-36" d="M 2113 2584 
Q 1688 2584 1439 2293 
Q 1191 2003 1191 1497 
Q 1191 994 1439 701 
Q 1688 409 2113 409 
Q 2538 409 2786 701 
Q 3034 994 3034 1497 
Q 3034 2003 2786 2293 
Q 2538 2584 2113 2584 
z
M 3366 4563 
L 3366 3988 
Q 3128 4100 2886 4159 
Q 2644 4219 2406 4219 
Q 1781 4219 1451 3797 
Q 1122 3375 1075 2522 
Q 1259 2794 1537 2939 
Q 1816 3084 2150 3084 
Q 2853 3084 3261 2657 
Q 3669 2231 3669 1497 
Q 3669 778 3244 343 
Q 2819 -91 2113 -91 
Q 1303 -91 875 529 
Q 447 1150 447 2328 
Q 447 3434 972 4092 
Q 1497 4750 2381 4750 
Q 2619 4750 2861 4703 
Q 3103 4656 3366 4563 
z
" transform="scale(0.015625)"/>
       </defs>
       <use xlink:href="#DejaVuSans-35"/>
       <use xlink:href="#DejaVuSans-32" transform="translate(63.623047 0)"/>
       <use xlink:href="#DejaVuSans-36" transform="translate(127.246094 0)"/>
       <use xlink:href="#DejaVuSans-32" transform="translate(190.869141 0)"/>
      </g>
     </g>
    </g>
    <g id="xtick_4">
     <g id="line2d_4">
      <g>
       <use xlink:href="#mf1696c8500" x="363.512763" y="295.034411" style="stroke: #000000; stroke-width: 0.8"/>
      </g>
     </g>
     <g id="text_4">
      <!-- 5299 -->
      <g transform="translate(366.272138 327.484411) rotate(-90) scale(0.1 -0.1)">
       <use xlink:href="#DejaVuSans-35"/>
       <use xlink:href="#DejaVuSans-32" transform="translate(63.623047 0)"/>
       <use xlink:href="#DejaVuSans-39" transform="translate(127.246094 0)"/>
       <use xlink:href="#DejaVuSans-39" transform="translate(190.869141 0)"/>
      </g>
     </g>
    </g>
    <g id="xtick_5">
     <g id="line2d_5">
      <g>
       <use xlink:href="#mf1696c8500" x="446.70375" y="295.034411" style="stroke: #000000; stroke-width: 0.8"/>
      </g>
     </g>
     <g id="text_5">
      <!-- 6566 -->
      <g transform="translate(449.463125 327.484411) rotate(-90) scale(0.1 -0.1)">
       <use xlink:href="#DejaVuSans-36"/>
       <use xlink:href="#DejaVuSans-35" transform="translate(63.623047 0)"/>
       <use xlink:href="#DejaVuSans-36" transform="translate(127.246094 0)"/>
       <use xlink:href="#DejaVuSans-36" transform="translate(190.869141 0)"/>
      </g>
     </g>
    </g>
    <g id="xtick_6">
     <g id="line2d_6">
      <g>
       <use xlink:href="#mf1696c8500" x="529.894737" y="295.034411" style="stroke: #000000; stroke-width: 0.8"/>
      </g>
     </g>
     <g id="text_6">
      <!-- 8519 -->
      <g transform="translate(532.654112 327.484411) rotate(-90) scale(0.1 -0.1)">
       <defs>
        <path id="DejaVuSans-31" d="M 794 531 
L 1825 531 
L 1825 4091 
L 703 3866 
L 703 4441 
L 1819 4666 
L 2450 4666 
L 2450 531 
L 3481 531 
L 3481 0 
L 794 0 
L 794 531 
z
" transform="scale(0.015625)"/>
       </defs>
       <use xlink:href="#DejaVuSans-38"/>
       <use xlink:href="#DejaVuSans-35" transform="translate(63.623047 0)"/>
       <use xlink:href="#DejaVuSans-31" transform="translate(127.246094 0)"/>
       <use xlink:href="#DejaVuSans-39" transform="translate(190.869141 0)"/>
      </g>
     </g>
    </g>
    <g id="xtick_7">
     <g id="line2d_7">
      <g>
       <use xlink:href="#mf1696c8500" x="613.085723" y="295.034411" style="stroke: #000000; stroke-width: 0.8"/>
      </g>
     </g>
     <g id="text_7">
      <!-- 5682 -->
      <g transform="translate(615.845098 327.484411) rotate(-90) scale(0.1 -0.1)">
       <use xlink:href="#DejaVuSans-35"/>
       <use xlink:href="#DejaVuSans-36" transform="translate(63.623047 0)"/>
       <use xlink:href="#DejaVuSans-38" transform="translate(127.246094 0)"/>
       <use xlink:href="#DejaVuSans-32" transform="translate(190.869141 0)"/>
      </g>
     </g>
    </g>
    <g id="xtick_8">
     <g id="line2d_8">
      <g>
       <use xlink:href="#mf1696c8500" x="696.27671" y="295.034411" style="stroke: #000000; stroke-width: 0.8"/>
      </g>
     </g>
     <g id="text_8">
      <!-- Seltorexant -->
      <g transform="translate(699.036085 359.521911) rotate(-90) scale(0.1 -0.1)">
       <defs>
        <path id="DejaVuSans-53" d="M 3425 4513 
L 3425 3897 
Q 3066 4069 2747 4153 
Q 2428 4238 2131 4238 
Q 1616 4238 1336 4038 
Q 1056 3838 1056 3469 
Q 1056 3159 1242 3001 
Q 1428 2844 1947 2747 
L 2328 2669 
Q 3034 2534 3370 2195 
Q 3706 1856 3706 1288 
Q 3706 609 3251 259 
Q 2797 -91 1919 -91 
Q 1588 -91 1214 -16 
Q 841 59 441 206 
L 441 856 
Q 825 641 1194 531 
Q 1563 422 1919 422 
Q 2459 422 2753 634 
Q 3047 847 3047 1241 
Q 3047 1584 2836 1778 
Q 2625 1972 2144 2069 
L 1759 2144 
Q 1053 2284 737 2584 
Q 422 2884 422 3419 
Q 422 4038 858 4394 
Q 1294 4750 2059 4750 
Q 2388 4750 2728 4690 
Q 3069 4631 3425 4513 
z
" transform="scale(0.015625)"/>
        <path id="DejaVuSans-65" d="M 3597 1894 
L 3597 1613 
L 953 1613 
Q 991 1019 1311 708 
Q 1631 397 2203 397 
Q 2534 397 2845 478 
Q 3156 559 3463 722 
L 3463 178 
Q 3153 47 2828 -22 
Q 2503 -91 2169 -91 
Q 1331 -91 842 396 
Q 353 884 353 1716 
Q 353 2575 817 3079 
Q 1281 3584 2069 3584 
Q 2775 3584 3186 3129 
Q 3597 2675 3597 1894 
z
M 3022 2063 
Q 3016 2534 2758 2815 
Q 2500 3097 2075 3097 
Q 1594 3097 1305 2825 
Q 1016 2553 972 2059 
L 3022 2063 
z
" transform="scale(0.015625)"/>
        <path id="DejaVuSans-6c" d="M 603 4863 
L 1178 4863 
L 1178 0 
L 603 0 
L 603 4863 
z
" transform="scale(0.015625)"/>
        <path id="DejaVuSans-74" d="M 1172 4494 
L 1172 3500 
L 2356 3500 
L 2356 3053 
L 1172 3053 
L 1172 1153 
Q 1172 725 1289 603 
Q 1406 481 1766 481 
L 2356 481 
L 2356 0 
L 1766 0 
Q 1100 0 847 248 
Q 594 497 594 1153 
L 594 3053 
L 172 3053 
L 172 3500 
L 594 3500 
L 594 4494 
L 1172 4494 
z
" transform="scale(0.015625)"/>
        <path id="DejaVuSans-6f" d="M 1959 3097 
Q 1497 3097 1228 2736 
Q 959 2375 959 1747 
Q 959 1119 1226 758 
Q 1494 397 1959 397 
Q 2419 397 2687 759 
Q 2956 1122 2956 1747 
Q 2956 2369 2687 2733 
Q 2419 3097 1959 3097 
z
M 1959 3584 
Q 2709 3584 3137 3096 
Q 3566 2609 3566 1747 
Q 3566 888 3137 398 
Q 2709 -91 1959 -91 
Q 1206 -91 779 398 
Q 353 888 353 1747 
Q 353 2609 779 3096 
Q 1206 3584 1959 3584 
z
" transform="scale(0.015625)"/>
        <path id="DejaVuSans-72" d="M 2631 2963 
Q 2534 3019 2420 3045 
Q 2306 3072 2169 3072 
Q 1681 3072 1420 2755 
Q 1159 2438 1159 1844 
L 1159 0 
L 581 0 
L 581 3500 
L 1159 3500 
L 1159 2956 
Q 1341 3275 1631 3429 
Q 1922 3584 2338 3584 
Q 2397 3584 2469 3576 
Q 2541 3569 2628 3553 
L 2631 2963 
z
" transform="scale(0.015625)"/>
        <path id="DejaVuSans-78" d="M 3513 3500 
L 2247 1797 
L 3578 0 
L 2900 0 
L 1881 1375 
L 863 0 
L 184 0 
L 1544 1831 
L 300 3500 
L 978 3500 
L 1906 2253 
L 2834 3500 
L 3513 3500 
z
" transform="scale(0.015625)"/>
        <path id="DejaVuSans-61" d="M 2194 1759 
Q 1497 1759 1228 1600 
Q 959 1441 959 1056 
Q 959 750 1161 570 
Q 1363 391 1709 391 
Q 2188 391 2477 730 
Q 2766 1069 2766 1631 
L 2766 1759 
L 2194 1759 
z
M 3341 1997 
L 3341 0 
L 2766 0 
L 2766 531 
Q 2569 213 2275 61 
Q 1981 -91 1556 -91 
Q 1019 -91 701 211 
Q 384 513 384 1019 
Q 384 1609 779 1909 
Q 1175 2209 1959 2209 
L 2766 2209 
L 2766 2266 
Q 2766 2663 2505 2880 
Q 2244 3097 1772 3097 
Q 1472 3097 1187 3025 
Q 903 2953 641 2809 
L 641 3341 
Q 956 3463 1253 3523 
Q 1550 3584 1831 3584 
Q 2591 3584 2966 3190 
Q 3341 2797 3341 1997 
z
" transform="scale(0.015625)"/>
        <path id="DejaVuSans-6e" d="M 3513 2113 
L 3513 0 
L 2938 0 
L 2938 2094 
Q 2938 2591 2744 2837 
Q 2550 3084 2163 3084 
Q 1697 3084 1428 2787 
Q 1159 2491 1159 1978 
L 1159 0 
L 581 0 
L 581 3500 
L 1159 3500 
L 1159 2956 
Q 1366 3272 1645 3428 
Q 1925 3584 2291 3584 
Q 2894 3584 3203 3211 
Q 3513 2838 3513 2113 
z
" transform="scale(0.015625)"/>
       </defs>
       <use xlink:href="#DejaVuSans-53"/>
       <use xlink:href="#DejaVuSans-65" transform="translate(63.476562 0)"/>
       <use xlink:href="#DejaVuSans-6c" transform="translate(125 0)"/>
       <use xlink:href="#DejaVuSans-74" transform="translate(152.783203 0)"/>
       <use xlink:href="#DejaVuSans-6f" transform="translate(191.992188 0)"/>
       <use xlink:href="#DejaVuSans-72" transform="translate(253.173828 0)"/>
       <use xlink:href="#DejaVuSans-65" transform="translate(292.037109 0)"/>
       <use xlink:href="#DejaVuSans-78" transform="translate(351.810547 0)"/>
       <use xlink:href="#DejaVuSans-61" transform="translate(410.990234 0)"/>
       <use xlink:href="#DejaVuSans-6e" transform="translate(472.269531 0)"/>
       <use xlink:href="#DejaVuSans-74" transform="translate(535.648438 0)"/>
      </g>
     </g>
    </g>
    <g id="xtick_9">
     <g id="line2d_9">
      <g>
       <use xlink:href="#mf1696c8500" x="779.467696" y="295.034411" style="stroke: #000000; stroke-width: 0.8"/>
      </g>
     </g>
     <g id="text_9">
      <!-- YSeltorexant_CROPOUT -->
      <g transform="translate(782.088009 419.760973) rotate(-90) scale(0.1 -0.1)">
       <defs>
        <path id="DejaVuSans-59" d="M -13 4666 
L 666 4666 
L 1959 2747 
L 3244 4666 
L 3922 4666 
L 2272 2222 
L 2272 0 
L 1638 0 
L 1638 2222 
L -13 4666 
z
" transform="scale(0.015625)"/>
        <path id="DejaVuSans-5f" d="M 3263 -1063 
L 3263 -1509 
L -63 -1509 
L -63 -1063 
L 3263 -1063 
z
" transform="scale(0.015625)"/>
        <path id="DejaVuSans-43" d="M 4122 4306 
L 4122 3641 
Q 3803 3938 3442 4084 
Q 3081 4231 2675 4231 
Q 1875 4231 1450 3742 
Q 1025 3253 1025 2328 
Q 1025 1406 1450 917 
Q 1875 428 2675 428 
Q 3081 428 3442 575 
Q 3803 722 4122 1019 
L 4122 359 
Q 3791 134 3420 21 
Q 3050 -91 2638 -91 
Q 1578 -91 968 557 
Q 359 1206 359 2328 
Q 359 3453 968 4101 
Q 1578 4750 2638 4750 
Q 3056 4750 3426 4639 
Q 3797 4528 4122 4306 
z
" transform="scale(0.015625)"/>
        <path id="DejaVuSans-52" d="M 2841 2188 
Q 3044 2119 3236 1894 
Q 3428 1669 3622 1275 
L 4263 0 
L 3584 0 
L 2988 1197 
Q 2756 1666 2539 1819 
Q 2322 1972 1947 1972 
L 1259 1972 
L 1259 0 
L 628 0 
L 628 4666 
L 2053 4666 
Q 2853 4666 3247 4331 
Q 3641 3997 3641 3322 
Q 3641 2881 3436 2590 
Q 3231 2300 2841 2188 
z
M 1259 4147 
L 1259 2491 
L 2053 2491 
Q 2509 2491 2742 2702 
Q 2975 2913 2975 3322 
Q 2975 3731 2742 3939 
Q 2509 4147 2053 4147 
L 1259 4147 
z
" transform="scale(0.015625)"/>
        <path id="DejaVuSans-4f" d="M 2522 4238 
Q 1834 4238 1429 3725 
Q 1025 3213 1025 2328 
Q 1025 1447 1429 934 
Q 1834 422 2522 422 
Q 3209 422 3611 934 
Q 4013 1447 4013 2328 
Q 4013 3213 3611 3725 
Q 3209 4238 2522 4238 
z
M 2522 4750 
Q 3503 4750 4090 4092 
Q 4678 3434 4678 2328 
Q 4678 1225 4090 567 
Q 3503 -91 2522 -91 
Q 1538 -91 948 565 
Q 359 1222 359 2328 
Q 359 3434 948 4092 
Q 1538 4750 2522 4750 
z
" transform="scale(0.015625)"/>
        <path id="DejaVuSans-50" d="M 1259 4147 
L 1259 2394 
L 2053 2394 
Q 2494 2394 2734 2622 
Q 2975 2850 2975 3272 
Q 2975 3691 2734 3919 
Q 2494 4147 2053 4147 
L 1259 4147 
z
M 628 4666 
L 2053 4666 
Q 2838 4666 3239 4311 
Q 3641 3956 3641 3272 
Q 3641 2581 3239 2228 
Q 2838 1875 2053 1875 
L 1259 1875 
L 1259 0 
L 628 0 
L 628 4666 
z
" transform="scale(0.015625)"/>
        <path id="DejaVuSans-55" d="M 556 4666 
L 1191 4666 
L 1191 1831 
Q 1191 1081 1462 751 
Q 1734 422 2344 422 
Q 2950 422 3222 751 
Q 3494 1081 3494 1831 
L 3494 4666 
L 4128 4666 
L 4128 1753 
Q 4128 841 3676 375 
Q 3225 -91 2344 -91 
Q 1459 -91 1007 375 
Q 556 841 556 1753 
L 556 4666 
z
" transform="scale(0.015625)"/>
        <path id="DejaVuSans-54" d="M -19 4666 
L 3928 4666 
L 3928 4134 
L 2272 4134 
L 2272 0 
L 1638 0 
L 1638 4134 
L -19 4134 
L -19 4666 
z
" transform="scale(0.015625)"/>
       </defs>
       <use xlink:href="#DejaVuSans-59"/>
       <use xlink:href="#DejaVuSans-53" transform="translate(61.083984 0)"/>
       <use xlink:href="#DejaVuSans-65" transform="translate(124.560547 0)"/>
       <use xlink:href="#DejaVuSans-6c" transform="translate(186.083984 0)"/>
       <use xlink:href="#DejaVuSans-74" transform="translate(213.867188 0)"/>
       <use xlink:href="#DejaVuSans-6f" transform="translate(253.076172 0)"/>
       <use xlink:href="#DejaVuSans-72" transform="translate(314.257812 0)"/>
       <use xlink:href="#DejaVuSans-65" transform="translate(353.121094 0)"/>
       <use xlink:href="#DejaVuSans-78" transform="translate(412.894531 0)"/>
       <use xlink:href="#DejaVuSans-61" transform="translate(472.074219 0)"/>
       <use xlink:href="#DejaVuSans-6e" transform="translate(533.353516 0)"/>
       <use xlink:href="#DejaVuSans-74" transform="translate(596.732422 0)"/>
       <use xlink:href="#DejaVuSans-5f" transform="translate(635.941406 0)"/>
       <use xlink:href="#DejaVuSans-43" transform="translate(685.941406 0)"/>
       <use xlink:href="#DejaVuSans-52" transform="translate(755.765625 0)"/>
       <use xlink:href="#DejaVuSans-4f" transform="translate(825.248047 0)"/>
       <use xlink:href="#DejaVuSans-50" transform="translate(903.958984 0)"/>
       <use xlink:href="#DejaVuSans-4f" transform="translate(964.261719 0)"/>
       <use xlink:href="#DejaVuSans-55" transform="translate(1042.972656 0)"/>
       <use xlink:href="#DejaVuSans-54" transform="translate(1116.166016 0)"/>
      </g>
     </g>
    </g>
   </g>
   <g id="matplotlib.axis_2">
    <g id="ytick_1">
     <g id="line2d_10">
      <defs>
       <path id="mb96f4c95c1" d="M 0 0 
L -3.5 0 
" style="stroke: #000000; stroke-width: 0.8"/>
      </defs>
      <g>
       <use xlink:href="#mb96f4c95c1" x="44.059375" y="295.034411" style="stroke: #000000; stroke-width: 0.8"/>
      </g>
     </g>
     <g id="text_10">
      <!-- 0.0 -->
      <g transform="translate(21.15625 298.83363) scale(0.1 -0.1)">
       <defs>
        <path id="DejaVuSans-2e" d="M 684 794 
L 1344 794 
L 1344 0 
L 684 0 
L 684 794 
z
" transform="scale(0.015625)"/>
       </defs>
       <use xlink:href="#DejaVuSans-30"/>
       <use xlink:href="#DejaVuSans-2e" transform="translate(63.623047 0)"/>
       <use xlink:href="#DejaVuSans-30" transform="translate(95.410156 0)"/>
      </g>
     </g>
    </g>
    <g id="ytick_2">
     <g id="line2d_11">
      <g>
       <use xlink:href="#mb96f4c95c1" x="44.059375" y="237.927402" style="stroke: #000000; stroke-width: 0.8"/>
      </g>
     </g>
     <g id="text_11">
      <!-- 0.5 -->
      <g transform="translate(21.15625 241.726621) scale(0.1 -0.1)">
       <use xlink:href="#DejaVuSans-30"/>
       <use xlink:href="#DejaVuSans-2e" transform="translate(63.623047 0)"/>
       <use xlink:href="#DejaVuSans-35" transform="translate(95.410156 0)"/>
      </g>
     </g>
    </g>
    <g id="ytick_3">
     <g id="line2d_12">
      <g>
       <use xlink:href="#mb96f4c95c1" x="44.059375" y="180.820394" style="stroke: #000000; stroke-width: 0.8"/>
      </g>
     </g>
     <g id="text_12">
      <!-- 1.0 -->
      <g transform="translate(21.15625 184.619612) scale(0.1 -0.1)">
       <use xlink:href="#DejaVuSans-31"/>
       <use xlink:href="#DejaVuSans-2e" transform="translate(63.623047 0)"/>
       <use xlink:href="#DejaVuSans-30" transform="translate(95.410156 0)"/>
      </g>
     </g>
    </g>
    <g id="ytick_4">
     <g id="line2d_13">
      <g>
       <use xlink:href="#mb96f4c95c1" x="44.059375" y="123.713385" style="stroke: #000000; stroke-width: 0.8"/>
      </g>
     </g>
     <g id="text_13">
      <!-- 1.5 -->
      <g transform="translate(21.15625 127.512604) scale(0.1 -0.1)">
       <use xlink:href="#DejaVuSans-31"/>
       <use xlink:href="#DejaVuSans-2e" transform="translate(63.623047 0)"/>
       <use xlink:href="#DejaVuSans-35" transform="translate(95.410156 0)"/>
      </g>
     </g>
    </g>
    <g id="ytick_5">
     <g id="line2d_14">
      <g>
       <use xlink:href="#mb96f4c95c1" x="44.059375" y="66.606376" style="stroke: #000000; stroke-width: 0.8"/>
      </g>
     </g>
     <g id="text_14">
      <!-- 2.0 -->
      <g transform="translate(21.15625 70.405595) scale(0.1 -0.1)">
       <use xlink:href="#DejaVuSans-32"/>
       <use xlink:href="#DejaVuSans-2e" transform="translate(63.623047 0)"/>
       <use xlink:href="#DejaVuSans-30" transform="translate(95.410156 0)"/>
      </g>
     </g>
    </g>
    <g id="text_15">
     <!-- Normalized dpix_numberofbouts: Binned - 3600 -->
     <g transform="translate(14.798438 279.28294) rotate(-90) scale(0.1 -0.1)">
      <defs>
       <path id="DejaVuSans-4e" d="M 628 4666 
L 1478 4666 
L 3547 763 
L 3547 4666 
L 4159 4666 
L 4159 0 
L 3309 0 
L 1241 3903 
L 1241 0 
L 628 0 
L 628 4666 
z
" transform="scale(0.015625)"/>
       <path id="DejaVuSans-6d" d="M 3328 2828 
Q 3544 3216 3844 3400 
Q 4144 3584 4550 3584 
Q 5097 3584 5394 3201 
Q 5691 2819 5691 2113 
L 5691 0 
L 5113 0 
L 5113 2094 
Q 5113 2597 4934 2840 
Q 4756 3084 4391 3084 
Q 3944 3084 3684 2787 
Q 3425 2491 3425 1978 
L 3425 0 
L 2847 0 
L 2847 2094 
Q 2847 2600 2669 2842 
Q 2491 3084 2119 3084 
Q 1678 3084 1418 2786 
Q 1159 2488 1159 1978 
L 1159 0 
L 581 0 
L 581 3500 
L 1159 3500 
L 1159 2956 
Q 1356 3278 1631 3431 
Q 1906 3584 2284 3584 
Q 2666 3584 2933 3390 
Q 3200 3197 3328 2828 
z
" transform="scale(0.015625)"/>
       <path id="DejaVuSans-69" d="M 603 3500 
L 1178 3500 
L 1178 0 
L 603 0 
L 603 3500 
z
M 603 4863 
L 1178 4863 
L 1178 4134 
L 603 4134 
L 603 4863 
z
" transform="scale(0.015625)"/>
       <path id="DejaVuSans-7a" d="M 353 3500 
L 3084 3500 
L 3084 2975 
L 922 459 
L 3084 459 
L 3084 0 
L 275 0 
L 275 525 
L 2438 3041 
L 353 3041 
L 353 3500 
z
" transform="scale(0.015625)"/>
       <path id="DejaVuSans-64" d="M 2906 2969 
L 2906 4863 
L 3481 4863 
L 3481 0 
L 2906 0 
L 2906 525 
Q 2725 213 2448 61 
Q 2172 -91 1784 -91 
Q 1150 -91 751 415 
Q 353 922 353 1747 
Q 353 2572 751 3078 
Q 1150 3584 1784 3584 
Q 2172 3584 2448 3432 
Q 2725 3281 2906 2969 
z
M 947 1747 
Q 947 1113 1208 752 
Q 1469 391 1925 391 
Q 2381 391 2643 752 
Q 2906 1113 2906 1747 
Q 2906 2381 2643 2742 
Q 2381 3103 1925 3103 
Q 1469 3103 1208 2742 
Q 947 2381 947 1747 
z
" transform="scale(0.015625)"/>
       <path id="DejaVuSans-20" transform="scale(0.015625)"/>
       <path id="DejaVuSans-70" d="M 1159 525 
L 1159 -1331 
L 581 -1331 
L 581 3500 
L 1159 3500 
L 1159 2969 
Q 1341 3281 1617 3432 
Q 1894 3584 2278 3584 
Q 2916 3584 3314 3078 
Q 3713 2572 3713 1747 
Q 3713 922 3314 415 
Q 2916 -91 2278 -91 
Q 1894 -91 1617 61 
Q 1341 213 1159 525 
z
M 3116 1747 
Q 3116 2381 2855 2742 
Q 2594 3103 2138 3103 
Q 1681 3103 1420 2742 
Q 1159 2381 1159 1747 
Q 1159 1113 1420 752 
Q 1681 391 2138 391 
Q 2594 391 2855 752 
Q 3116 1113 3116 1747 
z
" transform="scale(0.015625)"/>
       <path id="DejaVuSans-75" d="M 544 1381 
L 544 3500 
L 1119 3500 
L 1119 1403 
Q 1119 906 1312 657 
Q 1506 409 1894 409 
Q 2359 409 2629 706 
Q 2900 1003 2900 1516 
L 2900 3500 
L 3475 3500 
L 3475 0 
L 2900 0 
L 2900 538 
Q 2691 219 2414 64 
Q 2138 -91 1772 -91 
Q 1169 -91 856 284 
Q 544 659 544 1381 
z
M 1991 3584 
L 1991 3584 
z
" transform="scale(0.015625)"/>
       <path id="DejaVuSans-62" d="M 3116 1747 
Q 3116 2381 2855 2742 
Q 2594 3103 2138 3103 
Q 1681 3103 1420 2742 
Q 1159 2381 1159 1747 
Q 1159 1113 1420 752 
Q 1681 391 2138 391 
Q 2594 391 2855 752 
Q 3116 1113 3116 1747 
z
M 1159 2969 
Q 1341 3281 1617 3432 
Q 1894 3584 2278 3584 
Q 2916 3584 3314 3078 
Q 3713 2572 3713 1747 
Q 3713 922 3314 415 
Q 2916 -91 2278 -91 
Q 1894 -91 1617 61 
Q 1341 213 1159 525 
L 1159 0 
L 581 0 
L 581 4863 
L 1159 4863 
L 1159 2969 
z
" transform="scale(0.015625)"/>
       <path id="DejaVuSans-66" d="M 2375 4863 
L 2375 4384 
L 1825 4384 
Q 1516 4384 1395 4259 
Q 1275 4134 1275 3809 
L 1275 3500 
L 2222 3500 
L 2222 3053 
L 1275 3053 
L 1275 0 
L 697 0 
L 697 3053 
L 147 3053 
L 147 3500 
L 697 3500 
L 697 3744 
Q 697 4328 969 4595 
Q 1241 4863 1831 4863 
L 2375 4863 
z
" transform="scale(0.015625)"/>
       <path id="DejaVuSans-73" d="M 2834 3397 
L 2834 2853 
Q 2591 2978 2328 3040 
Q 2066 3103 1784 3103 
Q 1356 3103 1142 2972 
Q 928 2841 928 2578 
Q 928 2378 1081 2264 
Q 1234 2150 1697 2047 
L 1894 2003 
Q 2506 1872 2764 1633 
Q 3022 1394 3022 966 
Q 3022 478 2636 193 
Q 2250 -91 1575 -91 
Q 1294 -91 989 -36 
Q 684 19 347 128 
L 347 722 
Q 666 556 975 473 
Q 1284 391 1588 391 
Q 1994 391 2212 530 
Q 2431 669 2431 922 
Q 2431 1156 2273 1281 
Q 2116 1406 1581 1522 
L 1381 1569 
Q 847 1681 609 1914 
Q 372 2147 372 2553 
Q 372 3047 722 3315 
Q 1072 3584 1716 3584 
Q 2034 3584 2315 3537 
Q 2597 3491 2834 3397 
z
" transform="scale(0.015625)"/>
       <path id="DejaVuSans-3a" d="M 750 794 
L 1409 794 
L 1409 0 
L 750 0 
L 750 794 
z
M 750 3309 
L 1409 3309 
L 1409 2516 
L 750 2516 
L 750 3309 
z
" transform="scale(0.015625)"/>
       <path id="DejaVuSans-42" d="M 1259 2228 
L 1259 519 
L 2272 519 
Q 2781 519 3026 730 
Q 3272 941 3272 1375 
Q 3272 1813 3026 2020 
Q 2781 2228 2272 2228 
L 1259 2228 
z
M 1259 4147 
L 1259 2741 
L 2194 2741 
Q 2656 2741 2882 2914 
Q 3109 3088 3109 3444 
Q 3109 3797 2882 3972 
Q 2656 4147 2194 4147 
L 1259 4147 
z
M 628 4666 
L 2241 4666 
Q 2963 4666 3353 4366 
Q 3744 4066 3744 3513 
Q 3744 3084 3544 2831 
Q 3344 2578 2956 2516 
Q 3422 2416 3680 2098 
Q 3938 1781 3938 1306 
Q 3938 681 3513 340 
Q 3088 0 2303 0 
L 628 0 
L 628 4666 
z
" transform="scale(0.015625)"/>
       <path id="DejaVuSans-2d" d="M 313 2009 
L 1997 2009 
L 1997 1497 
L 313 1497 
L 313 2009 
z
" transform="scale(0.015625)"/>
      </defs>
      <use xlink:href="#DejaVuSans-4e"/>
      <use xlink:href="#DejaVuSans-6f" transform="translate(74.804688 0)"/>
      <use xlink:href="#DejaVuSans-72" transform="translate(135.986328 0)"/>
      <use xlink:href="#DejaVuSans-6d" transform="translate(175.349609 0)"/>
      <use xlink:href="#DejaVuSans-61" transform="translate(272.761719 0)"/>
      <use xlink:href="#DejaVuSans-6c" transform="translate(334.041016 0)"/>
      <use xlink:href="#DejaVuSans-69" transform="translate(361.824219 0)"/>
      <use xlink:href="#DejaVuSans-7a" transform="translate(389.607422 0)"/>
      <use xlink:href="#DejaVuSans-65" transform="translate(442.097656 0)"/>
      <use xlink:href="#DejaVuSans-64" transform="translate(503.621094 0)"/>
      <use xlink:href="#DejaVuSans-20" transform="translate(567.097656 0)"/>
      <use xlink:href="#DejaVuSans-64" transform="translate(598.884766 0)"/>
      <use xlink:href="#DejaVuSans-70" transform="translate(662.361328 0)"/>
      <use xlink:href="#DejaVuSans-69" transform="translate(725.837891 0)"/>
      <use xlink:href="#DejaVuSans-78" transform="translate(753.621094 0)"/>
      <use xlink:href="#DejaVuSans-5f" transform="translate(812.800781 0)"/>
      <use xlink:href="#DejaVuSans-6e" transform="translate(862.800781 0)"/>
      <use xlink:href="#DejaVuSans-75" transform="translate(926.179688 0)"/>
      <use xlink:href="#DejaVuSans-6d" transform="translate(989.558594 0)"/>
      <use xlink:href="#DejaVuSans-62" transform="translate(1086.970703 0)"/>
      <use xlink:href="#DejaVuSans-65" transform="translate(1150.447266 0)"/>
      <use xlink:href="#DejaVuSans-72" transform="translate(1211.970703 0)"/>
      <use xlink:href="#DejaVuSans-6f" transform="translate(1250.833984 0)"/>
      <use xlink:href="#DejaVuSans-66" transform="translate(1312.015625 0)"/>
      <use xlink:href="#DejaVuSans-62" transform="translate(1347.220703 0)"/>
      <use xlink:href="#DejaVuSans-6f" transform="translate(1410.697266 0)"/>
      <use xlink:href="#DejaVuSans-75" transform="translate(1471.878906 0)"/>
      <use xlink:href="#DejaVuSans-74" transform="translate(1535.257812 0)"/>
      <use xlink:href="#DejaVuSans-73" transform="translate(1574.466797 0)"/>
      <use xlink:href="#DejaVuSans-3a" transform="translate(1626.566406 0)"/>
      <use xlink:href="#DejaVuSans-20" transform="translate(1660.257812 0)"/>
      <use xlink:href="#DejaVuSans-42" transform="translate(1692.044922 0)"/>
      <use xlink:href="#DejaVuSans-69" transform="translate(1760.648438 0)"/>
      <use xlink:href="#DejaVuSans-6e" transform="translate(1788.431641 0)"/>
      <use xlink:href="#DejaVuSans-6e" transform="translate(1851.810547 0)"/>
      <use xlink:href="#DejaVuSans-65" transform="translate(1915.189453 0)"/>
      <use xlink:href="#DejaVuSans-64" transform="translate(1976.712891 0)"/>
      <use xlink:href="#DejaVuSans-20" transform="translate(2040.189453 0)"/>
      <use xlink:href="#DejaVuSans-2d" transform="translate(2071.976562 0)"/>
      <use xlink:href="#DejaVuSans-20" transform="translate(2108.060547 0)"/>
      <use xlink:href="#DejaVuSans-33" transform="translate(2139.847656 0)"/>
      <use xlink:href="#DejaVuSans-36" transform="translate(2203.470703 0)"/>
      <use xlink:href="#DejaVuSans-30" transform="translate(2267.09375 0)"/>
      <use xlink:href="#DejaVuSans-30" transform="translate(2330.716797 0)"/>
     </g>
    </g>
   </g>
   <g id="line2d_15">
    <path d="M 93.142057 191.174766 
L 101.461156 191.174766 
M 97.301606 191.174766 
L 97.301606 170.466021 
M 93.142057 170.466021 
L 101.461156 170.466021 
" clip-path="url(#pd7ca89a3a2)" style="fill: none; stroke: #000000; stroke-width: 2; stroke-linecap: square"/>
   </g>
   <g id="line2d_16">
    <path d="M 176.333044 193.304169 
L 184.652142 193.304169 
M 180.492593 193.304169 
L 180.492593 168.336618 
M 176.333044 168.336618 
L 184.652142 168.336618 
" clip-path="url(#pd7ca89a3a2)" style="fill: none; stroke: #000000; stroke-width: 2; stroke-linecap: square"/>
   </g>
   <g id="line2d_17">
    <path d="M 259.52403 189.446961 
L 267.843129 189.446961 
M 263.68358 189.446961 
L 263.68358 172.193826 
M 259.52403 172.193826 
L 267.843129 172.193826 
" clip-path="url(#pd7ca89a3a2)" style="fill: none; stroke: #000000; stroke-width: 2; stroke-linecap: square"/>
   </g>
   <g id="line2d_18">
    <path d="M 342.715017 191.155253 
L 351.034115 191.155253 
M 346.874566 191.155253 
L 346.874566 170.485534 
M 342.715017 170.485534 
L 351.034115 170.485534 
" clip-path="url(#pd7ca89a3a2)" style="fill: none; stroke: #000000; stroke-width: 2; stroke-linecap: square"/>
   </g>
   <g id="line2d_19">
    <path d="M 425.906003 194.447907 
L 434.225102 194.447907 
M 430.065553 194.447907 
L 430.065553 167.19288 
M 425.906003 167.19288 
L 434.225102 167.19288 
" clip-path="url(#pd7ca89a3a2)" style="fill: none; stroke: #000000; stroke-width: 2; stroke-linecap: square"/>
   </g>
   <g id="line2d_20">
    <path d="M 509.09699 193.465791 
L 517.416089 193.465791 
M 513.256539 193.465791 
L 513.256539 168.174996 
M 509.09699 168.174996 
L 517.416089 168.174996 
" clip-path="url(#pd7ca89a3a2)" style="fill: none; stroke: #000000; stroke-width: 2; stroke-linecap: square"/>
   </g>
   <g id="line2d_21">
    <path d="M 592.287976 188.298108 
L 600.607075 188.298108 
M 596.447526 188.298108 
L 596.447526 173.342679 
M 592.287976 173.342679 
L 600.607075 173.342679 
" clip-path="url(#pd7ca89a3a2)" style="fill: none; stroke: #000000; stroke-width: 2; stroke-linecap: square"/>
   </g>
   <g id="line2d_22">
    <path d="M 675.478963 190.915232 
L 683.798062 190.915232 
M 679.638512 190.915232 
L 679.638512 170.725555 
M 675.478963 170.725555 
L 683.798062 170.725555 
" clip-path="url(#pd7ca89a3a2)" style="fill: none; stroke: #000000; stroke-width: 2; stroke-linecap: square"/>
   </g>
   <g id="line2d_23">
    <path d="M 758.66995 190.915232 
L 766.989048 190.915232 
M 762.829499 190.915232 
L 762.829499 170.725555 
M 758.66995 170.725555 
L 766.989048 170.725555 
" clip-path="url(#pd7ca89a3a2)" style="fill: none; stroke: #000000; stroke-width: 2; stroke-linecap: square"/>
   </g>
   <g id="line2d_24">
    <path d="M 126.418452 173.546084 
L 134.73755 173.546084 
M 130.578001 173.546084 
L 130.578001 148.116456 
M 126.418452 148.116456 
L 134.73755 148.116456 
" clip-path="url(#pd7ca89a3a2)" style="fill: none; stroke: #ff0000; stroke-width: 2; stroke-linecap: square"/>
   </g>
   <g id="line2d_25">
    <path d="M 209.609438 216.828805 
L 217.928537 216.828805 
M 213.768988 216.828805 
L 213.768988 192.538531 
M 209.609438 192.538531 
L 217.928537 192.538531 
" clip-path="url(#pd7ca89a3a2)" style="fill: none; stroke: #ff0000; stroke-width: 2; stroke-linecap: square"/>
   </g>
   <g id="line2d_26">
    <path d="M 292.800425 188.111864 
L 301.119524 188.111864 
M 296.959974 188.111864 
L 296.959974 172.368996 
M 292.800425 172.368996 
L 301.119524 172.368996 
" clip-path="url(#pd7ca89a3a2)" style="fill: none; stroke: #ff0000; stroke-width: 2; stroke-linecap: square"/>
   </g>
   <g id="line2d_27">
    <path d="M 375.991411 198.423348 
L 384.31051 198.423348 
M 380.150961 198.423348 
L 380.150961 184.20927 
M 375.991411 184.20927 
L 384.31051 184.20927 
" clip-path="url(#pd7ca89a3a2)" style="fill: none; stroke: #ff0000; stroke-width: 2; stroke-linecap: square"/>
   </g>
   <g id="line2d_28">
    <path d="M 459.182398 245.342559 
L 467.501497 245.342559 
M 463.341947 245.342559 
L 463.341947 230.39318 
M 459.182398 230.39318 
L 467.501497 230.39318 
" clip-path="url(#pd7ca89a3a2)" style="fill: none; stroke: #ff0000; stroke-width: 2; stroke-linecap: square"/>
   </g>
   <g id="line2d_29">
    <path d="M 542.373385 232.940973 
L 550.692483 232.940973 
M 546.532934 232.940973 
L 546.532934 215.319118 
M 542.373385 215.319118 
L 550.692483 215.319118 
" clip-path="url(#pd7ca89a3a2)" style="fill: none; stroke: #ff0000; stroke-width: 2; stroke-linecap: square"/>
   </g>
   <g id="line2d_30">
    <path d="M 625.564371 132.996161 
L 633.88347 132.996161 
M 629.72392 132.996161 
L 629.72392 98.673793 
M 625.564371 98.673793 
L 633.88347 98.673793 
" clip-path="url(#pd7ca89a3a2)" style="fill: none; stroke: #ff0000; stroke-width: 2; stroke-linecap: square"/>
   </g>
   <g id="line2d_31">
    <path d="M 708.755358 223.303464 
L 717.074456 223.303464 
M 712.914907 223.303464 
L 712.914907 211.666681 
M 708.755358 211.666681 
L 717.074456 211.666681 
" clip-path="url(#pd7ca89a3a2)" style="fill: none; stroke: #ff0000; stroke-width: 2; stroke-linecap: square"/>
   </g>
   <g id="line2d_32">
    <path d="M 791.946344 223.303464 
L 800.265443 223.303464 
M 796.105894 223.303464 
L 796.105894 211.666681 
M 791.946344 211.666681 
L 800.265443 211.666681 
" clip-path="url(#pd7ca89a3a2)" style="fill: none; stroke: #ff0000; stroke-width: 2; stroke-linecap: square"/>
   </g>
   <g id="line2d_33">
    <path d="M 97.301606 39.281663 
L 97.301606 36.997383 
L 130.578001 36.997383 
L 130.578001 39.281663 
" clip-path="url(#pd7ca89a3a2)" style="fill: none; stroke: #000000; stroke-width: 1.5; stroke-linecap: square"/>
   </g>
   <g id="line2d_34">
    <path d="M 180.492593 39.281663 
L 180.492593 36.997383 
L 213.768988 36.997383 
L 213.768988 39.281663 
" clip-path="url(#pd7ca89a3a2)" style="fill: none; stroke: #000000; stroke-width: 1.5; stroke-linecap: square"/>
   </g>
   <g id="line2d_35">
    <path d="M 263.68358 39.281663 
L 263.68358 36.997383 
L 296.959974 36.997383 
L 296.959974 39.281663 
" clip-path="url(#pd7ca89a3a2)" style="fill: none; stroke: #000000; stroke-width: 1.5; stroke-linecap: square"/>
   </g>
   <g id="line2d_36">
    <path d="M 346.874566 39.281663 
L 346.874566 36.997383 
L 380.150961 36.997383 
L 380.150961 39.281663 
" clip-path="url(#pd7ca89a3a2)" style="fill: none; stroke: #000000; stroke-width: 1.5; stroke-linecap: square"/>
   </g>
   <g id="line2d_37">
    <path d="M 430.065553 39.281663 
L 430.065553 36.997383 
L 463.341947 36.997383 
L 463.341947 39.281663 
" clip-path="url(#pd7ca89a3a2)" style="fill: none; stroke: #000000; stroke-width: 1.5; stroke-linecap: square"/>
   </g>
   <g id="line2d_38">
    <path d="M 513.256539 39.281663 
L 513.256539 36.997383 
L 546.532934 36.997383 
L 546.532934 39.281663 
" clip-path="url(#pd7ca89a3a2)" style="fill: none; stroke: #000000; stroke-width: 1.5; stroke-linecap: square"/>
   </g>
   <g id="line2d_39">
    <path d="M 596.447526 39.281663 
L 596.447526 36.997383 
L 629.72392 36.997383 
L 629.72392 39.281663 
" clip-path="url(#pd7ca89a3a2)" style="fill: none; stroke: #000000; stroke-width: 1.5; stroke-linecap: square"/>
   </g>
   <g id="line2d_40">
    <path d="M 679.638512 39.281663 
L 679.638512 36.997383 
L 712.914907 36.997383 
L 712.914907 39.281663 
" clip-path="url(#pd7ca89a3a2)" style="fill: none; stroke: #000000; stroke-width: 1.5; stroke-linecap: square"/>
   </g>
   <g id="line2d_41">
    <path d="M 762.829499 39.281663 
L 762.829499 36.997383 
L 796.105894 36.997383 
L 796.105894 39.281663 
" clip-path="url(#pd7ca89a3a2)" style="fill: none; stroke: #000000; stroke-width: 1.5; stroke-linecap: square"/>
   </g>
   <g id="patch_21">
    <path d="M 44.059375 295.034411 
L 44.059375 66.606376 
" style="fill: none; stroke: #000000; stroke-width: 0.8; stroke-linejoin: miter; stroke-linecap: square"/>
   </g>
   <g id="patch_22">
    <path d="M 113.939804 295.034411 
L 779.467696 295.034411 
" style="fill: none; stroke: #000000; stroke-width: 0.8; stroke-linejoin: miter; stroke-linecap: square"/>
   </g>
   <g id="PathCollection_1">
    <defs>
     <path id="C0_0_4db76ce8e4" d="M 0 2.5 
C 0.663008 2.5 1.29895 2.236584 1.767767 1.767767 
C 2.236584 1.29895 2.5 0.663008 2.5 -0 
C 2.5 -0.663008 2.236584 -1.29895 1.767767 -1.767767 
C 1.29895 -2.236584 0.663008 -2.5 0 -2.5 
C -0.663008 -2.5 -1.29895 -2.236584 -1.767767 -1.767767 
C -2.236584 -1.29895 -2.5 -0.663008 -2.5 0 
C -2.5 0.663008 -2.236584 1.29895 -1.767767 1.767767 
C -1.29895 2.236584 -0.663008 2.5 0 2.5 
z
"/>
    </defs>
    <g clip-path="url(#pd7ca89a3a2)">
     <use xlink:href="#C0_0_4db76ce8e4" x="97.433167" y="234.823907" style="fill-opacity: 0.3"/>
    </g>
    <g clip-path="url(#pd7ca89a3a2)">
     <use xlink:href="#C0_0_4db76ce8e4" x="99.64251" y="209.66218" style="fill-opacity: 0.3"/>
    </g>
    <g clip-path="url(#pd7ca89a3a2)">
     <use xlink:href="#C0_0_4db76ce8e4" x="94.159757" y="182.28455" style="fill-opacity: 0.3"/>
    </g>
    <g clip-path="url(#pd7ca89a3a2)">
     <use xlink:href="#C0_0_4db76ce8e4" x="100.51461" y="164.357549" style="fill-opacity: 0.3"/>
    </g>
    <g clip-path="url(#pd7ca89a3a2)">
     <use xlink:href="#C0_0_4db76ce8e4" x="94.779008" y="227.05134" style="fill-opacity: 0.3"/>
    </g>
    <g clip-path="url(#pd7ca89a3a2)">
     <use xlink:href="#C0_0_4db76ce8e4" x="99.341791" y="186.470487" style="fill-opacity: 0.3"/>
    </g>
    <g clip-path="url(#pd7ca89a3a2)">
     <use xlink:href="#C0_0_4db76ce8e4" x="98.294648" y="221.657566" style="fill-opacity: 0.3"/>
    </g>
    <g clip-path="url(#pd7ca89a3a2)">
     <use xlink:href="#C0_0_4db76ce8e4" x="98.615976" y="180.717128" style="fill-opacity: 0.3"/>
    </g>
    <g clip-path="url(#pd7ca89a3a2)">
     <use xlink:href="#C0_0_4db76ce8e4" x="101.376636" y="168.684862" style="fill-opacity: 0.3"/>
    </g>
    <g clip-path="url(#pd7ca89a3a2)">
     <use xlink:href="#C0_0_4db76ce8e4" x="93.312206" y="113.204284" style="fill-opacity: 0.3"/>
    </g>
    <g clip-path="url(#pd7ca89a3a2)">
     <use xlink:href="#C0_0_4db76ce8e4" x="96.537347" y="209.241128" style="fill-opacity: 0.3"/>
    </g>
    <g clip-path="url(#pd7ca89a3a2)">
     <use xlink:href="#C0_0_4db76ce8e4" x="100.961974" y="207.756688" style="fill-opacity: 0.3"/>
    </g>
    <g clip-path="url(#pd7ca89a3a2)">
     <use xlink:href="#C0_0_4db76ce8e4" x="98.749178" y="173.967995" style="fill-opacity: 0.3"/>
    </g>
    <g clip-path="url(#pd7ca89a3a2)">
     <use xlink:href="#C0_0_4db76ce8e4" x="98.286547" y="114.12015" style="fill-opacity: 0.3"/>
    </g>
    <g clip-path="url(#pd7ca89a3a2)">
     <use xlink:href="#C0_0_4db76ce8e4" x="100.5817" y="118.306088" style="fill-opacity: 0.3"/>
    </g>
   </g>
   <g id="PathCollection_2">
    <defs>
     <path id="C1_0_2eddec02cb" d="M 0 2.5 
C 0.663008 2.5 1.29895 2.236584 1.767767 1.767767 
C 2.236584 1.29895 2.5 0.663008 2.5 -0 
C 2.5 -0.663008 2.236584 -1.29895 1.767767 -1.767767 
C 1.29895 -2.236584 0.663008 -2.5 0 -2.5 
C -0.663008 -2.5 -1.29895 -2.236584 -1.767767 -1.767767 
C -2.236584 -1.29895 -2.5 -0.663008 -2.5 0 
C -2.5 0.663008 -2.236584 1.29895 -1.767767 1.767767 
C -1.29895 2.236584 -0.663008 2.5 0 2.5 
z
"/>
    </defs>
    <g clip-path="url(#pd7ca89a3a2)">
     <use xlink:href="#C1_0_2eddec02cb" x="130.585462" y="178.218474" style="fill: #ff0000; fill-opacity: 0.3"/>
    </g>
    <g clip-path="url(#pd7ca89a3a2)">
     <use xlink:href="#C1_0_2eddec02cb" x="133.19093" y="208.87847" style="fill: #ff0000; fill-opacity: 0.3"/>
    </g>
    <g clip-path="url(#pd7ca89a3a2)">
     <use xlink:href="#C1_0_2eddec02cb" x="133.734809" y="162.024857" style="fill: #ff0000; fill-opacity: 0.3"/>
    </g>
    <g clip-path="url(#pd7ca89a3a2)">
     <use xlink:href="#C1_0_2eddec02cb" x="131.69151" y="200.65719" style="fill: #ff0000; fill-opacity: 0.3"/>
    </g>
    <g clip-path="url(#pd7ca89a3a2)">
     <use xlink:href="#C1_0_2eddec02cb" x="131.461538" y="92.102486" style="fill: #ff0000; fill-opacity: 0.3"/>
    </g>
    <g clip-path="url(#pd7ca89a3a2)">
     <use xlink:href="#C1_0_2eddec02cb" x="133.272392" y="95.959573" style="fill: #ff0000; fill-opacity: 0.3"/>
    </g>
    <g clip-path="url(#pd7ca89a3a2)">
     <use xlink:href="#C1_0_2eddec02cb" x="131.809872" y="144.239232" style="fill: #ff0000; fill-opacity: 0.3"/>
    </g>
    <g clip-path="url(#pd7ca89a3a2)">
     <use xlink:href="#C1_0_2eddec02cb" x="134.316961" y="141.921907" style="fill: #ff0000; fill-opacity: 0.3"/>
    </g>
    <g clip-path="url(#pd7ca89a3a2)">
     <use xlink:href="#C1_0_2eddec02cb" x="130.384795" y="173.915748" style="fill: #ff0000; fill-opacity: 0.3"/>
    </g>
    <g clip-path="url(#pd7ca89a3a2)">
     <use xlink:href="#C1_0_2eddec02cb" x="132.56823" y="149.414797" style="fill: #ff0000; fill-opacity: 0.3"/>
    </g>
    <g clip-path="url(#pd7ca89a3a2)">
     <use xlink:href="#C1_0_2eddec02cb" x="128.287537" y="221.811235" style="fill: #ff0000; fill-opacity: 0.3"/>
    </g>
   </g>
   <g id="PathCollection_3">
    <defs>
     <path id="C2_0_9dc8136fcf" d="M 0 2.5 
C 0.663008 2.5 1.29895 2.236584 1.767767 1.767767 
C 2.236584 1.29895 2.5 0.663008 2.5 -0 
C 2.5 -0.663008 2.236584 -1.29895 1.767767 -1.767767 
C 1.29895 -2.236584 0.663008 -2.5 0 -2.5 
C -0.663008 -2.5 -1.29895 -2.236584 -1.767767 -1.767767 
C -2.236584 -1.29895 -2.5 -0.663008 -2.5 0 
C -2.5 0.663008 -2.236584 1.29895 -1.767767 1.767767 
C -1.29895 2.236584 -0.663008 2.5 0 2.5 
z
"/>
    </defs>
    <g clip-path="url(#pd7ca89a3a2)">
     <use xlink:href="#C2_0_9dc8136fcf" x="178.978618" y="209.557135" style="fill-opacity: 0.3"/>
    </g>
    <g clip-path="url(#pd7ca89a3a2)">
     <use xlink:href="#C2_0_9dc8136fcf" x="182.086756" y="158.448735" style="fill-opacity: 0.3"/>
    </g>
    <g clip-path="url(#pd7ca89a3a2)">
     <use xlink:href="#C2_0_9dc8136fcf" x="182.188907" y="217.935899" style="fill-opacity: 0.3"/>
    </g>
    <g clip-path="url(#pd7ca89a3a2)">
     <use xlink:href="#C2_0_9dc8136fcf" x="180.901861" y="185.272094" style="fill-opacity: 0.3"/>
    </g>
    <g clip-path="url(#pd7ca89a3a2)">
     <use xlink:href="#C2_0_9dc8136fcf" x="184.457531" y="128.853028" style="fill-opacity: 0.3"/>
    </g>
    <g clip-path="url(#pd7ca89a3a2)">
     <use xlink:href="#C2_0_9dc8136fcf" x="182.795089" y="213.365898" style="fill-opacity: 0.3"/>
    </g>
    <g clip-path="url(#pd7ca89a3a2)">
     <use xlink:href="#C2_0_9dc8136fcf" x="179.746933" y="217.244098" style="fill-opacity: 0.3"/>
    </g>
    <g clip-path="url(#pd7ca89a3a2)">
     <use xlink:href="#C2_0_9dc8136fcf" x="177.645472" y="203.318068" style="fill-opacity: 0.3"/>
    </g>
    <g clip-path="url(#pd7ca89a3a2)">
     <use xlink:href="#C2_0_9dc8136fcf" x="180.627388" y="167.825338" style="fill-opacity: 0.3"/>
    </g>
    <g clip-path="url(#pd7ca89a3a2)">
     <use xlink:href="#C2_0_9dc8136fcf" x="178.127796" y="106.383643" style="fill-opacity: 0.3"/>
    </g>
   </g>
   <g id="PathCollection_4">
    <defs>
     <path id="C3_0_8b81e4cd0d" d="M 0 2.5 
C 0.663008 2.5 1.29895 2.236584 1.767767 1.767767 
C 2.236584 1.29895 2.5 0.663008 2.5 -0 
C 2.5 -0.663008 2.236584 -1.29895 1.767767 -1.767767 
C 1.29895 -2.236584 0.663008 -2.5 0 -2.5 
C -0.663008 -2.5 -1.29895 -2.236584 -1.767767 -1.767767 
C -2.236584 -1.29895 -2.5 -0.663008 -2.5 0 
C -2.5 0.663008 -2.236584 1.29895 -1.767767 1.767767 
C -1.29895 2.236584 -0.663008 2.5 0 2.5 
z
"/>
    </defs>
    <g clip-path="url(#pd7ca89a3a2)">
     <use xlink:href="#C3_0_8b81e4cd0d" x="216.689591" y="253.698663" style="fill: #ff0000; fill-opacity: 0.3"/>
    </g>
    <g clip-path="url(#pd7ca89a3a2)">
     <use xlink:href="#C3_0_8b81e4cd0d" x="215.455005" y="208.857619" style="fill: #ff0000; fill-opacity: 0.3"/>
    </g>
    <g clip-path="url(#pd7ca89a3a2)">
     <use xlink:href="#C3_0_8b81e4cd0d" x="214.244672" y="218.429675" style="fill: #ff0000; fill-opacity: 0.3"/>
    </g>
    <g clip-path="url(#pd7ca89a3a2)">
     <use xlink:href="#C3_0_8b81e4cd0d" x="211.225308" y="214.883231" style="fill: #ff0000; fill-opacity: 0.3"/>
    </g>
    <g clip-path="url(#pd7ca89a3a2)">
     <use xlink:href="#C3_0_8b81e4cd0d" x="215.693224" y="233.654439" style="fill: #ff0000; fill-opacity: 0.3"/>
    </g>
    <g clip-path="url(#pd7ca89a3a2)">
     <use xlink:href="#C3_0_8b81e4cd0d" x="213.229538" y="228.091742" style="fill: #ff0000; fill-opacity: 0.3"/>
    </g>
    <g clip-path="url(#pd7ca89a3a2)">
     <use xlink:href="#C3_0_8b81e4cd0d" x="210.111039" y="157.679781" style="fill: #ff0000; fill-opacity: 0.3"/>
    </g>
    <g clip-path="url(#pd7ca89a3a2)">
     <use xlink:href="#C3_0_8b81e4cd0d" x="212.39334" y="233.129801" style="fill: #ff0000; fill-opacity: 0.3"/>
    </g>
    <g clip-path="url(#pd7ca89a3a2)">
     <use xlink:href="#C3_0_8b81e4cd0d" x="213.091773" y="148.447197" style="fill: #ff0000; fill-opacity: 0.3"/>
    </g>
    <g clip-path="url(#pd7ca89a3a2)">
     <use xlink:href="#C3_0_8b81e4cd0d" x="211.209342" y="149.964529" style="fill: #ff0000; fill-opacity: 0.3"/>
    </g>
   </g>
   <g id="PathCollection_5">
    <defs>
     <path id="C4_0_6355153c5c" d="M 0 2.5 
C 0.663008 2.5 1.29895 2.236584 1.767767 1.767767 
C 2.236584 1.29895 2.5 0.663008 2.5 -0 
C 2.5 -0.663008 2.236584 -1.29895 1.767767 -1.767767 
C 1.29895 -2.236584 0.663008 -2.5 0 -2.5 
C -0.663008 -2.5 -1.29895 -2.236584 -1.767767 -1.767767 
C -2.236584 -1.29895 -2.5 -0.663008 -2.5 0 
C -2.5 0.663008 -2.236584 1.29895 -1.767767 1.767767 
C -1.29895 2.236584 -0.663008 2.5 0 2.5 
z
"/>
    </defs>
    <g clip-path="url(#pd7ca89a3a2)">
     <use xlink:href="#C4_0_6355153c5c" x="262.663678" y="221.053367" style="fill-opacity: 0.3"/>
    </g>
    <g clip-path="url(#pd7ca89a3a2)">
     <use xlink:href="#C4_0_6355153c5c" x="264.340598" y="226.496396" style="fill-opacity: 0.3"/>
    </g>
    <g clip-path="url(#pd7ca89a3a2)">
     <use xlink:href="#C4_0_6355153c5c" x="260.571225" y="166.06704" style="fill-opacity: 0.3"/>
    </g>
    <g clip-path="url(#pd7ca89a3a2)">
     <use xlink:href="#C4_0_6355153c5c" x="260.734032" y="196.202084" style="fill-opacity: 0.3"/>
    </g>
    <g clip-path="url(#pd7ca89a3a2)">
     <use xlink:href="#C4_0_6355153c5c" x="261.597968" y="160.132239" style="fill-opacity: 0.3"/>
    </g>
    <g clip-path="url(#pd7ca89a3a2)">
     <use xlink:href="#C4_0_6355153c5c" x="260.278116" y="106.344608" style="fill-opacity: 0.3"/>
    </g>
    <g clip-path="url(#pd7ca89a3a2)">
     <use xlink:href="#C4_0_6355153c5c" x="264.378088" y="236.762149" style="fill-opacity: 0.3"/>
    </g>
    <g clip-path="url(#pd7ca89a3a2)">
     <use xlink:href="#C4_0_6355153c5c" x="264.60363" y="149.620599" style="fill-opacity: 0.3"/>
    </g>
    <g clip-path="url(#pd7ca89a3a2)">
     <use xlink:href="#C4_0_6355153c5c" x="265.412272" y="213.495157" style="fill-opacity: 0.3"/>
    </g>
    <g clip-path="url(#pd7ca89a3a2)">
     <use xlink:href="#C4_0_6355153c5c" x="259.62625" y="186.442074" style="fill-opacity: 0.3"/>
    </g>
    <g clip-path="url(#pd7ca89a3a2)">
     <use xlink:href="#C4_0_6355153c5c" x="266.64917" y="154.546708" style="fill-opacity: 0.3"/>
    </g>
    <g clip-path="url(#pd7ca89a3a2)">
     <use xlink:href="#C4_0_6355153c5c" x="262.999511" y="162.909636" style="fill-opacity: 0.3"/>
    </g>
    <g clip-path="url(#pd7ca89a3a2)">
     <use xlink:href="#C4_0_6355153c5c" x="260.095014" y="193.136888" style="fill-opacity: 0.3"/>
    </g>
    <g clip-path="url(#pd7ca89a3a2)">
     <use xlink:href="#C4_0_6355153c5c" x="264.39953" y="146.954968" style="fill-opacity: 0.3"/>
    </g>
    <g clip-path="url(#pd7ca89a3a2)">
     <use xlink:href="#C4_0_6355153c5c" x="263.274983" y="195.154273" style="fill-opacity: 0.3"/>
    </g>
    <g clip-path="url(#pd7ca89a3a2)">
     <use xlink:href="#C4_0_6355153c5c" x="267.339729" y="177.808112" style="fill-opacity: 0.3"/>
    </g>
   </g>
   <g id="PathCollection_6">
    <defs>
     <path id="C5_0_c1118b168e" d="M 0 2.5 
C 0.663008 2.5 1.29895 2.236584 1.767767 1.767767 
C 2.236584 1.29895 2.5 0.663008 2.5 -0 
C 2.5 -0.663008 2.236584 -1.29895 1.767767 -1.767767 
C 1.29895 -2.236584 0.663008 -2.5 0 -2.5 
C -0.663008 -2.5 -1.29895 -2.236584 -1.767767 -1.767767 
C -2.236584 -1.29895 -2.5 -0.663008 -2.5 0 
C -2.5 0.663008 -2.236584 1.29895 -1.767767 1.767767 
C -1.29895 2.236584 -0.663008 2.5 0 2.5 
z
"/>
    </defs>
    <g clip-path="url(#pd7ca89a3a2)">
     <use xlink:href="#C5_0_c1118b168e" x="295.80794" y="122.827373" style="fill: #ff0000; fill-opacity: 0.3"/>
    </g>
    <g clip-path="url(#pd7ca89a3a2)">
     <use xlink:href="#C5_0_c1118b168e" x="299.486955" y="223.422817" style="fill: #ff0000; fill-opacity: 0.3"/>
    </g>
    <g clip-path="url(#pd7ca89a3a2)">
     <use xlink:href="#C5_0_c1118b168e" x="295.080689" y="189.342415" style="fill: #ff0000; fill-opacity: 0.3"/>
    </g>
    <g clip-path="url(#pd7ca89a3a2)">
     <use xlink:href="#C5_0_c1118b168e" x="296.527501" y="216.417851" style="fill: #ff0000; fill-opacity: 0.3"/>
    </g>
    <g clip-path="url(#pd7ca89a3a2)">
     <use xlink:href="#C5_0_c1118b168e" x="295.509457" y="180.255798" style="fill: #ff0000; fill-opacity: 0.3"/>
    </g>
    <g clip-path="url(#pd7ca89a3a2)">
     <use xlink:href="#C5_0_c1118b168e" x="293.225369" y="141.193404" style="fill: #ff0000; fill-opacity: 0.3"/>
    </g>
    <g clip-path="url(#pd7ca89a3a2)">
     <use xlink:href="#C5_0_c1118b168e" x="294.500184" y="179.244311" style="fill: #ff0000; fill-opacity: 0.3"/>
    </g>
    <g clip-path="url(#pd7ca89a3a2)">
     <use xlink:href="#C5_0_c1118b168e" x="299.798241" y="157.170426" style="fill: #ff0000; fill-opacity: 0.3"/>
    </g>
    <g clip-path="url(#pd7ca89a3a2)">
     <use xlink:href="#C5_0_c1118b168e" x="298.469743" y="158.050588" style="fill: #ff0000; fill-opacity: 0.3"/>
    </g>
    <g clip-path="url(#pd7ca89a3a2)">
     <use xlink:href="#C5_0_c1118b168e" x="297.362358" y="174.980419" style="fill: #ff0000; fill-opacity: 0.3"/>
    </g>
    <g clip-path="url(#pd7ca89a3a2)">
     <use xlink:href="#C5_0_c1118b168e" x="295.460289" y="171.641395" style="fill: #ff0000; fill-opacity: 0.3"/>
    </g>
    <g clip-path="url(#pd7ca89a3a2)">
     <use xlink:href="#C5_0_c1118b168e" x="293.190328" y="195.464425" style="fill: #ff0000; fill-opacity: 0.3"/>
    </g>
    <g clip-path="url(#pd7ca89a3a2)">
     <use xlink:href="#C5_0_c1118b168e" x="301.076855" y="189.096529" style="fill: #ff0000; fill-opacity: 0.3"/>
    </g>
    <g clip-path="url(#pd7ca89a3a2)">
     <use xlink:href="#C5_0_c1118b168e" x="293.294221" y="229.268205" style="fill: #ff0000; fill-opacity: 0.3"/>
    </g>
    <g clip-path="url(#pd7ca89a3a2)">
     <use xlink:href="#C5_0_c1118b168e" x="295.008226" y="139.399552" style="fill: #ff0000; fill-opacity: 0.3"/>
    </g>
    <g clip-path="url(#pd7ca89a3a2)">
     <use xlink:href="#C5_0_c1118b168e" x="295.585205" y="216.071375" style="fill: #ff0000; fill-opacity: 0.3"/>
    </g>
   </g>
   <g id="PathCollection_7">
    <defs>
     <path id="C6_0_ff2093e210" d="M 0 2.5 
C 0.663008 2.5 1.29895 2.236584 1.767767 1.767767 
C 2.236584 1.29895 2.5 0.663008 2.5 -0 
C 2.5 -0.663008 2.236584 -1.29895 1.767767 -1.767767 
C 1.29895 -2.236584 0.663008 -2.5 0 -2.5 
C -0.663008 -2.5 -1.29895 -2.236584 -1.767767 -1.767767 
C -2.236584 -1.29895 -2.5 -0.663008 -2.5 0 
C -2.5 0.663008 -2.236584 1.29895 -1.767767 1.767767 
C -1.29895 2.236584 -0.663008 2.5 0 2.5 
z
"/>
    </defs>
    <g clip-path="url(#pd7ca89a3a2)">
     <use xlink:href="#C6_0_ff2093e210" x="346.728904" y="191.031101" style="fill-opacity: 0.3"/>
    </g>
    <g clip-path="url(#pd7ca89a3a2)">
     <use xlink:href="#C6_0_ff2093e210" x="348.386559" y="194.154896" style="fill-opacity: 0.3"/>
    </g>
    <g clip-path="url(#pd7ca89a3a2)">
     <use xlink:href="#C6_0_ff2093e210" x="344.578728" y="204.325116" style="fill-opacity: 0.3"/>
    </g>
    <g clip-path="url(#pd7ca89a3a2)">
     <use xlink:href="#C6_0_ff2093e210" x="347.078533" y="211.189716" style="fill-opacity: 0.3"/>
    </g>
    <g clip-path="url(#pd7ca89a3a2)">
     <use xlink:href="#C6_0_ff2093e210" x="343.562101" y="183.16796" style="fill-opacity: 0.3"/>
    </g>
    <g clip-path="url(#pd7ca89a3a2)">
     <use xlink:href="#C6_0_ff2093e210" x="348.391986" y="205.806534" style="fill-opacity: 0.3"/>
    </g>
    <g clip-path="url(#pd7ca89a3a2)">
     <use xlink:href="#C6_0_ff2093e210" x="343.486517" y="214.355241" style="fill-opacity: 0.3"/>
    </g>
    <g clip-path="url(#pd7ca89a3a2)">
     <use xlink:href="#C6_0_ff2093e210" x="346.040606" y="180.822132" style="fill-opacity: 0.3"/>
    </g>
    <g clip-path="url(#pd7ca89a3a2)">
     <use xlink:href="#C6_0_ff2093e210" x="349.875102" y="157.65597" style="fill-opacity: 0.3"/>
    </g>
    <g clip-path="url(#pd7ca89a3a2)">
     <use xlink:href="#C6_0_ff2093e210" x="350.889539" y="92.530202" style="fill-opacity: 0.3"/>
    </g>
    <g clip-path="url(#pd7ca89a3a2)">
     <use xlink:href="#C6_0_ff2093e210" x="345.150125" y="136.615062" style="fill-opacity: 0.3"/>
    </g>
    <g clip-path="url(#pd7ca89a3a2)">
     <use xlink:href="#C6_0_ff2093e210" x="347.417716" y="198.190792" style="fill-opacity: 0.3"/>
    </g>
   </g>
   <g id="PathCollection_8">
    <defs>
     <path id="C7_0_b5e581a861" d="M 0 2.5 
C 0.663008 2.5 1.29895 2.236584 1.767767 1.767767 
C 2.236584 1.29895 2.5 0.663008 2.5 -0 
C 2.5 -0.663008 2.236584 -1.29895 1.767767 -1.767767 
C 1.29895 -2.236584 0.663008 -2.5 0 -2.5 
C -0.663008 -2.5 -1.29895 -2.236584 -1.767767 -1.767767 
C -2.236584 -1.29895 -2.5 -0.663008 -2.5 0 
C -2.5 0.663008 -2.236584 1.29895 -1.767767 1.767767 
C -1.29895 2.236584 -0.663008 2.5 0 2.5 
z
"/>
    </defs>
    <g clip-path="url(#pd7ca89a3a2)">
     <use xlink:href="#C7_0_b5e581a861" x="383.485072" y="218.23614" style="fill: #ff0000; fill-opacity: 0.3"/>
    </g>
    <g clip-path="url(#pd7ca89a3a2)">
     <use xlink:href="#C7_0_b5e581a861" x="382.318784" y="166.541499" style="fill: #ff0000; fill-opacity: 0.3"/>
    </g>
    <g clip-path="url(#pd7ca89a3a2)">
     <use xlink:href="#C7_0_b5e581a861" x="379.784463" y="205.693267" style="fill: #ff0000; fill-opacity: 0.3"/>
    </g>
    <g clip-path="url(#pd7ca89a3a2)">
     <use xlink:href="#C7_0_b5e581a861" x="376.202619" y="229.097886" style="fill: #ff0000; fill-opacity: 0.3"/>
    </g>
    <g clip-path="url(#pd7ca89a3a2)">
     <use xlink:href="#C7_0_b5e581a861" x="376.042913" y="125.762258" style="fill: #ff0000; fill-opacity: 0.3"/>
    </g>
    <g clip-path="url(#pd7ca89a3a2)">
     <use xlink:href="#C7_0_b5e581a861" x="376.149396" y="142.668906" style="fill: #ff0000; fill-opacity: 0.3"/>
    </g>
    <g clip-path="url(#pd7ca89a3a2)">
     <use xlink:href="#C7_0_b5e581a861" x="377.308548" y="202.009096" style="fill: #ff0000; fill-opacity: 0.3"/>
    </g>
    <g clip-path="url(#pd7ca89a3a2)">
     <use xlink:href="#C7_0_b5e581a861" x="377.633958" y="229.720857" style="fill: #ff0000; fill-opacity: 0.3"/>
    </g>
    <g clip-path="url(#pd7ca89a3a2)">
     <use xlink:href="#C7_0_b5e581a861" x="378.924726" y="149.912058" style="fill: #ff0000; fill-opacity: 0.3"/>
    </g>
    <g clip-path="url(#pd7ca89a3a2)">
     <use xlink:href="#C7_0_b5e581a861" x="382.289319" y="186.080124" style="fill: #ff0000; fill-opacity: 0.3"/>
    </g>
    <g clip-path="url(#pd7ca89a3a2)">
     <use xlink:href="#C7_0_b5e581a861" x="380.013517" y="179.993492" style="fill: #ff0000; fill-opacity: 0.3"/>
    </g>
    <g clip-path="url(#pd7ca89a3a2)">
     <use xlink:href="#C7_0_b5e581a861" x="381.612812" y="206.992861" style="fill: #ff0000; fill-opacity: 0.3"/>
    </g>
    <g clip-path="url(#pd7ca89a3a2)">
     <use xlink:href="#C7_0_b5e581a861" x="377.449051" y="224.337675" style="fill: #ff0000; fill-opacity: 0.3"/>
    </g>
    <g clip-path="url(#pd7ca89a3a2)">
     <use xlink:href="#C7_0_b5e581a861" x="376.678489" y="170.008077" style="fill: #ff0000; fill-opacity: 0.3"/>
    </g>
    <g clip-path="url(#pd7ca89a3a2)">
     <use xlink:href="#C7_0_b5e581a861" x="376.2103" y="204.000217" style="fill: #ff0000; fill-opacity: 0.3"/>
    </g>
    <g clip-path="url(#pd7ca89a3a2)">
     <use xlink:href="#C7_0_b5e581a861" x="379.772405" y="213.839576" style="fill: #ff0000; fill-opacity: 0.3"/>
    </g>
    <g clip-path="url(#pd7ca89a3a2)">
     <use xlink:href="#C7_0_b5e581a861" x="380.477704" y="218.337484" style="fill: #ff0000; fill-opacity: 0.3"/>
    </g>
    <g clip-path="url(#pd7ca89a3a2)">
     <use xlink:href="#C7_0_b5e581a861" x="379.679266" y="200.545562" style="fill: #ff0000; fill-opacity: 0.3"/>
    </g>
    <g clip-path="url(#pd7ca89a3a2)">
     <use xlink:href="#C7_0_b5e581a861" x="381.841085" y="161.232835" style="fill: #ff0000; fill-opacity: 0.3"/>
    </g>
   </g>
   <g id="PathCollection_9">
    <defs>
     <path id="C8_0_c530fe8857" d="M 0 2.5 
C 0.663008 2.5 1.29895 2.236584 1.767767 1.767767 
C 2.236584 1.29895 2.5 0.663008 2.5 -0 
C 2.5 -0.663008 2.236584 -1.29895 1.767767 -1.767767 
C 1.29895 -2.236584 0.663008 -2.5 0 -2.5 
C -0.663008 -2.5 -1.29895 -2.236584 -1.767767 -1.767767 
C -2.236584 -1.29895 -2.5 -0.663008 -2.5 0 
C -2.5 0.663008 -2.236584 1.29895 -1.767767 1.767767 
C -1.29895 2.236584 -0.663008 2.5 0 2.5 
z
"/>
    </defs>
    <g clip-path="url(#pd7ca89a3a2)">
     <use xlink:href="#C8_0_c530fe8857" x="430.027799" y="143.106432" style="fill-opacity: 0.3"/>
    </g>
    <g clip-path="url(#pd7ca89a3a2)">
     <use xlink:href="#C8_0_c530fe8857" x="430.781765" y="206.720039" style="fill-opacity: 0.3"/>
    </g>
    <g clip-path="url(#pd7ca89a3a2)">
     <use xlink:href="#C8_0_c530fe8857" x="431.581779" y="216.487755" style="fill-opacity: 0.3"/>
    </g>
    <g clip-path="url(#pd7ca89a3a2)">
     <use xlink:href="#C8_0_c530fe8857" x="432.696992" y="244.977748" style="fill-opacity: 0.3"/>
    </g>
    <g clip-path="url(#pd7ca89a3a2)">
     <use xlink:href="#C8_0_c530fe8857" x="426.182166" y="225.662889" style="fill-opacity: 0.3"/>
    </g>
    <g clip-path="url(#pd7ca89a3a2)">
     <use xlink:href="#C8_0_c530fe8857" x="432.547078" y="108.825602" style="fill-opacity: 0.3"/>
    </g>
    <g clip-path="url(#pd7ca89a3a2)">
     <use xlink:href="#C8_0_c530fe8857" x="429.149065" y="200.053499" style="fill-opacity: 0.3"/>
    </g>
    <g clip-path="url(#pd7ca89a3a2)">
     <use xlink:href="#C8_0_c530fe8857" x="428.389726" y="186.08504" style="fill-opacity: 0.3"/>
    </g>
    <g clip-path="url(#pd7ca89a3a2)">
     <use xlink:href="#C8_0_c530fe8857" x="427.416723" y="101.93849" style="fill-opacity: 0.3"/>
    </g>
    <g clip-path="url(#pd7ca89a3a2)">
     <use xlink:href="#C8_0_c530fe8857" x="432.351922" y="173.486102" style="fill-opacity: 0.3"/>
    </g>
    <g clip-path="url(#pd7ca89a3a2)">
     <use xlink:href="#C8_0_c530fe8857" x="432.415707" y="221.024294" style="fill-opacity: 0.3"/>
    </g>
    <g clip-path="url(#pd7ca89a3a2)">
     <use xlink:href="#C8_0_c530fe8857" x="427.693558" y="141.476833" style="fill-opacity: 0.3"/>
    </g>
   </g>
   <g id="PathCollection_10">
    <defs>
     <path id="C9_0_3974b06789" d="M 0 2.5 
C 0.663008 2.5 1.29895 2.236584 1.767767 1.767767 
C 2.236584 1.29895 2.5 0.663008 2.5 -0 
C 2.5 -0.663008 2.236584 -1.29895 1.767767 -1.767767 
C 1.29895 -2.236584 0.663008 -2.5 0 -2.5 
C -0.663008 -2.5 -1.29895 -2.236584 -1.767767 -1.767767 
C -2.236584 -1.29895 -2.5 -0.663008 -2.5 0 
C -2.5 0.663008 -2.236584 1.29895 -1.767767 1.767767 
C -1.29895 2.236584 -0.663008 2.5 0 2.5 
z
"/>
    </defs>
    <g clip-path="url(#pd7ca89a3a2)">
     <use xlink:href="#C9_0_3974b06789" x="460.321193" y="214.104261" style="fill: #ff0000; fill-opacity: 0.3"/>
    </g>
    <g clip-path="url(#pd7ca89a3a2)">
     <use xlink:href="#C9_0_3974b06789" x="462.815007" y="261.767553" style="fill: #ff0000; fill-opacity: 0.3"/>
    </g>
    <g clip-path="url(#pd7ca89a3a2)">
     <use xlink:href="#C9_0_3974b06789" x="463.827335" y="263.976565" style="fill: #ff0000; fill-opacity: 0.3"/>
    </g>
    <g clip-path="url(#pd7ca89a3a2)">
     <use xlink:href="#C9_0_3974b06789" x="467.14743" y="233.498131" style="fill: #ff0000; fill-opacity: 0.3"/>
    </g>
    <g clip-path="url(#pd7ca89a3a2)">
     <use xlink:href="#C9_0_3974b06789" x="461.538345" y="238.156479" style="fill: #ff0000; fill-opacity: 0.3"/>
    </g>
    <g clip-path="url(#pd7ca89a3a2)">
     <use xlink:href="#C9_0_3974b06789" x="464.571514" y="266.646473" style="fill: #ff0000; fill-opacity: 0.3"/>
    </g>
    <g clip-path="url(#pd7ca89a3a2)">
     <use xlink:href="#C9_0_3974b06789" x="466.613788" y="271.107293" style="fill: #ff0000; fill-opacity: 0.3"/>
    </g>
    <g clip-path="url(#pd7ca89a3a2)">
     <use xlink:href="#C9_0_3974b06789" x="467.19344" y="210.927366" style="fill: #ff0000; fill-opacity: 0.3"/>
    </g>
    <g clip-path="url(#pd7ca89a3a2)">
     <use xlink:href="#C9_0_3974b06789" x="465.528602" y="260.342066" style="fill: #ff0000; fill-opacity: 0.3"/>
    </g>
    <g clip-path="url(#pd7ca89a3a2)">
     <use xlink:href="#C9_0_3974b06789" x="460.790432" y="217.824355" style="fill: #ff0000; fill-opacity: 0.3"/>
    </g>
    <g clip-path="url(#pd7ca89a3a2)">
     <use xlink:href="#C9_0_3974b06789" x="462.569129" y="217.834231" style="fill: #ff0000; fill-opacity: 0.3"/>
    </g>
    <g clip-path="url(#pd7ca89a3a2)">
     <use xlink:href="#C9_0_3974b06789" x="460.732446" y="198.229665" style="fill: #ff0000; fill-opacity: 0.3"/>
    </g>
   </g>
   <g id="PathCollection_11">
    <defs>
     <path id="Ca_0_86a97f7506" d="M 0 2.5 
C 0.663008 2.5 1.29895 2.236584 1.767767 1.767767 
C 2.236584 1.29895 2.5 0.663008 2.5 -0 
C 2.5 -0.663008 2.236584 -1.29895 1.767767 -1.767767 
C 1.29895 -2.236584 0.663008 -2.5 0 -2.5 
C -0.663008 -2.5 -1.29895 -2.236584 -1.767767 -1.767767 
C -2.236584 -1.29895 -2.5 -0.663008 -2.5 0 
C -2.5 0.663008 -2.236584 1.29895 -1.767767 1.767767 
C -1.29895 2.236584 -0.663008 2.5 0 2.5 
z
"/>
    </defs>
    <g clip-path="url(#pd7ca89a3a2)">
     <use xlink:href="#Ca_0_86a97f7506" x="509.526641" y="239.300633" style="fill-opacity: 0.3"/>
    </g>
    <g clip-path="url(#pd7ca89a3a2)">
     <use xlink:href="#Ca_0_86a97f7506" x="511.016198" y="242.811682" style="fill-opacity: 0.3"/>
    </g>
    <g clip-path="url(#pd7ca89a3a2)">
     <use xlink:href="#Ca_0_86a97f7506" x="511.916821" y="175.480492" style="fill-opacity: 0.3"/>
    </g>
    <g clip-path="url(#pd7ca89a3a2)">
     <use xlink:href="#Ca_0_86a97f7506" x="514.096403" y="170.459614" style="fill-opacity: 0.3"/>
    </g>
    <g clip-path="url(#pd7ca89a3a2)">
     <use xlink:href="#Ca_0_86a97f7506" x="513.821942" y="154.68917" style="fill-opacity: 0.3"/>
    </g>
    <g clip-path="url(#pd7ca89a3a2)">
     <use xlink:href="#Ca_0_86a97f7506" x="512.912267" y="140.563496" style="fill-opacity: 0.3"/>
    </g>
    <g clip-path="url(#pd7ca89a3a2)">
     <use xlink:href="#Ca_0_86a97f7506" x="512.732412" y="162.867192" style="fill-opacity: 0.3"/>
    </g>
    <g clip-path="url(#pd7ca89a3a2)">
     <use xlink:href="#Ca_0_86a97f7506" x="512.024812" y="122.071288" style="fill-opacity: 0.3"/>
    </g>
    <g clip-path="url(#pd7ca89a3a2)">
     <use xlink:href="#Ca_0_86a97f7506" x="516.911782" y="190.456558" style="fill-opacity: 0.3"/>
    </g>
    <g clip-path="url(#pd7ca89a3a2)">
     <use xlink:href="#Ca_0_86a97f7506" x="514.20814" y="209.503812" style="fill-opacity: 0.3"/>
    </g>
   </g>
   <g id="PathCollection_12">
    <defs>
     <path id="Cb_0_637030f007" d="M 0 2.5 
C 0.663008 2.5 1.29895 2.236584 1.767767 1.767767 
C 2.236584 1.29895 2.5 0.663008 2.5 -0 
C 2.5 -0.663008 2.236584 -1.29895 1.767767 -1.767767 
C 1.29895 -2.236584 0.663008 -2.5 0 -2.5 
C -0.663008 -2.5 -1.29895 -2.236584 -1.767767 -1.767767 
C -2.236584 -1.29895 -2.5 -0.663008 -2.5 0 
C -2.5 0.663008 -2.236584 1.29895 -1.767767 1.767767 
C -1.29895 2.236584 -0.663008 2.5 0 2.5 
z
"/>
    </defs>
    <g clip-path="url(#pd7ca89a3a2)">
     <use xlink:href="#Cb_0_637030f007" x="550.367479" y="193.14013" style="fill: #ff0000; fill-opacity: 0.3"/>
    </g>
    <g clip-path="url(#pd7ca89a3a2)">
     <use xlink:href="#Cb_0_637030f007" x="548.020479" y="256.509614" style="fill: #ff0000; fill-opacity: 0.3"/>
    </g>
    <g clip-path="url(#pd7ca89a3a2)">
     <use xlink:href="#Cb_0_637030f007" x="548.575648" y="178.955896" style="fill: #ff0000; fill-opacity: 0.3"/>
    </g>
    <g clip-path="url(#pd7ca89a3a2)">
     <use xlink:href="#Cb_0_637030f007" x="549.350765" y="242.582535" style="fill: #ff0000; fill-opacity: 0.3"/>
    </g>
    <g clip-path="url(#pd7ca89a3a2)">
     <use xlink:href="#Cb_0_637030f007" x="548.307703" y="231.850791" style="fill: #ff0000; fill-opacity: 0.3"/>
    </g>
    <g clip-path="url(#pd7ca89a3a2)">
     <use xlink:href="#Cb_0_637030f007" x="543.888596" y="188.216004" style="fill: #ff0000; fill-opacity: 0.3"/>
    </g>
    <g clip-path="url(#pd7ca89a3a2)">
     <use xlink:href="#Cb_0_637030f007" x="550.102231" y="228.927886" style="fill: #ff0000; fill-opacity: 0.3"/>
    </g>
    <g clip-path="url(#pd7ca89a3a2)">
     <use xlink:href="#Cb_0_637030f007" x="546.150986" y="225.826756" style="fill: #ff0000; fill-opacity: 0.3"/>
    </g>
    <g clip-path="url(#pd7ca89a3a2)">
     <use xlink:href="#Cb_0_637030f007" x="542.518755" y="255.249303" style="fill: #ff0000; fill-opacity: 0.3"/>
    </g>
    <g clip-path="url(#pd7ca89a3a2)">
     <use xlink:href="#Cb_0_637030f007" x="548.846153" y="240.041543" style="fill: #ff0000; fill-opacity: 0.3"/>
    </g>
   </g>
   <g id="PathCollection_13">
    <defs>
     <path id="Cc_0_e917b208d0" d="M 0 2.5 
C 0.663008 2.5 1.29895 2.236584 1.767767 1.767767 
C 2.236584 1.29895 2.5 0.663008 2.5 -0 
C 2.5 -0.663008 2.236584 -1.29895 1.767767 -1.767767 
C 1.29895 -2.236584 0.663008 -2.5 0 -2.5 
C -0.663008 -2.5 -1.29895 -2.236584 -1.767767 -1.767767 
C -2.236584 -1.29895 -2.5 -0.663008 -2.5 0 
C -2.5 0.663008 -2.236584 1.29895 -1.767767 1.767767 
C -1.29895 2.236584 -0.663008 2.5 0 2.5 
z
"/>
    </defs>
    <g clip-path="url(#pd7ca89a3a2)">
     <use xlink:href="#Cc_0_e917b208d0" x="598.283064" y="227.6212" style="fill-opacity: 0.3"/>
    </g>
    <g clip-path="url(#pd7ca89a3a2)">
     <use xlink:href="#Cc_0_e917b208d0" x="593.062379" y="175.4779" style="fill-opacity: 0.3"/>
    </g>
    <g clip-path="url(#pd7ca89a3a2)">
     <use xlink:href="#Cc_0_e917b208d0" x="599.418582" y="200.18013" style="fill-opacity: 0.3"/>
    </g>
    <g clip-path="url(#pd7ca89a3a2)">
     <use xlink:href="#Cc_0_e917b208d0" x="596.155882" y="177.611035" style="fill-opacity: 0.3"/>
    </g>
    <g clip-path="url(#pd7ca89a3a2)">
     <use xlink:href="#Cc_0_e917b208d0" x="599.989651" y="205.960662" style="fill-opacity: 0.3"/>
    </g>
    <g clip-path="url(#pd7ca89a3a2)">
     <use xlink:href="#Cc_0_e917b208d0" x="598.979886" y="166.10264" style="fill-opacity: 0.3"/>
    </g>
    <g clip-path="url(#pd7ca89a3a2)">
     <use xlink:href="#Cc_0_e917b208d0" x="596.971243" y="164.399643" style="fill-opacity: 0.3"/>
    </g>
    <g clip-path="url(#pd7ca89a3a2)">
     <use xlink:href="#Cc_0_e917b208d0" x="595.977403" y="179.625662" style="fill-opacity: 0.3"/>
    </g>
    <g clip-path="url(#pd7ca89a3a2)">
     <use xlink:href="#Cc_0_e917b208d0" x="595.786459" y="151.258478" style="fill-opacity: 0.3"/>
    </g>
    <g clip-path="url(#pd7ca89a3a2)">
     <use xlink:href="#Cc_0_e917b208d0" x="600.318816" y="159.966585" style="fill-opacity: 0.3"/>
    </g>
   </g>
   <g id="PathCollection_14">
    <defs>
     <path id="Cd_0_9fb43b6b77" d="M 0 2.5 
C 0.663008 2.5 1.29895 2.236584 1.767767 1.767767 
C 2.236584 1.29895 2.5 0.663008 2.5 -0 
C 2.5 -0.663008 2.236584 -1.29895 1.767767 -1.767767 
C 1.29895 -2.236584 0.663008 -2.5 0 -2.5 
C -0.663008 -2.5 -1.29895 -2.236584 -1.767767 -1.767767 
C -2.236584 -1.29895 -2.5 -0.663008 -2.5 0 
C -2.5 0.663008 -2.236584 1.29895 -1.767767 1.767767 
C -1.29895 2.236584 -0.663008 2.5 0 2.5 
z
"/>
    </defs>
    <g clip-path="url(#pd7ca89a3a2)">
     <use xlink:href="#Cd_0_9fb43b6b77" x="632.8022" y="160.633738" style="fill: #ff0000; fill-opacity: 0.3"/>
    </g>
    <g clip-path="url(#pd7ca89a3a2)">
     <use xlink:href="#Cd_0_9fb43b6b77" x="629.869692" y="210.288381" style="fill: #ff0000; fill-opacity: 0.3"/>
    </g>
    <g clip-path="url(#pd7ca89a3a2)">
     <use xlink:href="#Cd_0_9fb43b6b77" x="627.026194" y="88.107148" style="fill: #ff0000; fill-opacity: 0.3"/>
    </g>
    <g clip-path="url(#pd7ca89a3a2)">
     <use xlink:href="#Cd_0_9fb43b6b77" x="631.76934" y="88.510951" style="fill: #ff0000; fill-opacity: 0.3"/>
    </g>
    <g clip-path="url(#pd7ca89a3a2)">
     <use xlink:href="#Cd_0_9fb43b6b77" x="627.184876" y="44.992364" style="fill: #ff0000; fill-opacity: 0.3"/>
    </g>
    <g clip-path="url(#pd7ca89a3a2)">
     <use xlink:href="#Cd_0_9fb43b6b77" x="631.680284" y="99.979844" style="fill: #ff0000; fill-opacity: 0.3"/>
    </g>
    <g clip-path="url(#pd7ca89a3a2)">
     <use xlink:href="#Cd_0_9fb43b6b77" x="627.16206" y="109.666735" style="fill: #ff0000; fill-opacity: 0.3"/>
    </g>
    <g clip-path="url(#pd7ca89a3a2)">
     <use xlink:href="#Cd_0_9fb43b6b77" x="631.695518" y="161.489626" style="fill: #ff0000; fill-opacity: 0.3"/>
    </g>
    <g clip-path="url(#pd7ca89a3a2)">
     <use xlink:href="#Cd_0_9fb43b6b77" x="625.610231" y="78.846006" style="fill: #ff0000; fill-opacity: 0.3"/>
    </g>
   </g>
   <g id="PathCollection_15">
    <defs>
     <path id="Ce_0_22700fad83" d="M 0 2.5 
C 0.663008 2.5 1.29895 2.236584 1.767767 1.767767 
C 2.236584 1.29895 2.5 0.663008 2.5 -0 
C 2.5 -0.663008 2.236584 -1.29895 1.767767 -1.767767 
C 1.29895 -2.236584 0.663008 -2.5 0 -2.5 
C -0.663008 -2.5 -1.29895 -2.236584 -1.767767 -1.767767 
C -2.236584 -1.29895 -2.5 -0.663008 -2.5 0 
C -2.5 0.663008 -2.236584 1.29895 -1.767767 1.767767 
C -1.29895 2.236584 -0.663008 2.5 0 2.5 
z
"/>
    </defs>
    <g clip-path="url(#pd7ca89a3a2)">
     <use xlink:href="#Ce_0_22700fad83" x="679.331739" y="233.252127" style="fill-opacity: 0.3"/>
    </g>
    <g clip-path="url(#pd7ca89a3a2)">
     <use xlink:href="#Ce_0_22700fad83" x="675.603493" y="222.186735" style="fill-opacity: 0.3"/>
    </g>
    <g clip-path="url(#pd7ca89a3a2)">
     <use xlink:href="#Ce_0_22700fad83" x="683.401251" y="160.340822" style="fill-opacity: 0.3"/>
    </g>
    <g clip-path="url(#pd7ca89a3a2)">
     <use xlink:href="#Ce_0_22700fad83" x="678.71442" y="228.86579" style="fill-opacity: 0.3"/>
    </g>
    <g clip-path="url(#pd7ca89a3a2)">
     <use xlink:href="#Ce_0_22700fad83" x="677.073942" y="169.768264" style="fill-opacity: 0.3"/>
    </g>
    <g clip-path="url(#pd7ca89a3a2)">
     <use xlink:href="#Ce_0_22700fad83" x="679.377504" y="143.985963" style="fill-opacity: 0.3"/>
    </g>
    <g clip-path="url(#pd7ca89a3a2)">
     <use xlink:href="#Ce_0_22700fad83" x="678.998814" y="176.022438" style="fill-opacity: 0.3"/>
    </g>
    <g clip-path="url(#pd7ca89a3a2)">
     <use xlink:href="#Ce_0_22700fad83" x="681.667244" y="153.538613" style="fill-opacity: 0.3"/>
    </g>
    <g clip-path="url(#pd7ca89a3a2)">
     <use xlink:href="#Ce_0_22700fad83" x="680.987899" y="226.915851" style="fill-opacity: 0.3"/>
    </g>
    <g clip-path="url(#pd7ca89a3a2)">
     <use xlink:href="#Ce_0_22700fad83" x="676.897368" y="117.984037" style="fill-opacity: 0.3"/>
    </g>
    <g clip-path="url(#pd7ca89a3a2)">
     <use xlink:href="#Ce_0_22700fad83" x="680.003973" y="183.616938" style="fill-opacity: 0.3"/>
    </g>
    <g clip-path="url(#pd7ca89a3a2)">
     <use xlink:href="#Ce_0_22700fad83" x="675.87178" y="168.700929" style="fill-opacity: 0.3"/>
    </g>
    <g clip-path="url(#pd7ca89a3a2)">
     <use xlink:href="#Ce_0_22700fad83" x="676.810741" y="165.486609" style="fill-opacity: 0.3"/>
    </g>
   </g>
   <g id="PathCollection_16">
    <defs>
     <path id="Cf_0_badf779338" d="M 0 2.5 
C 0.663008 2.5 1.29895 2.236584 1.767767 1.767767 
C 2.236584 1.29895 2.5 0.663008 2.5 -0 
C 2.5 -0.663008 2.236584 -1.29895 1.767767 -1.767767 
C 1.29895 -2.236584 0.663008 -2.5 0 -2.5 
C -0.663008 -2.5 -1.29895 -2.236584 -1.767767 -1.767767 
C -2.236584 -1.29895 -2.5 -0.663008 -2.5 0 
C -2.5 0.663008 -2.236584 1.29895 -1.767767 1.767767 
C -1.29895 2.236584 -0.663008 2.5 0 2.5 
z
"/>
    </defs>
    <g clip-path="url(#pd7ca89a3a2)">
     <use xlink:href="#Cf_0_badf779338" x="712.107339" y="258.33245" style="fill: #ff0000; fill-opacity: 0.3"/>
    </g>
    <g clip-path="url(#pd7ca89a3a2)">
     <use xlink:href="#Cf_0_badf779338" x="711.578549" y="223.500378" style="fill: #ff0000; fill-opacity: 0.3"/>
    </g>
    <g clip-path="url(#pd7ca89a3a2)">
     <use xlink:href="#Cf_0_badf779338" x="716.43635" y="249.830715" style="fill: #ff0000; fill-opacity: 0.3"/>
    </g>
    <g clip-path="url(#pd7ca89a3a2)">
     <use xlink:href="#Cf_0_badf779338" x="709.073042" y="214.313086" style="fill: #ff0000; fill-opacity: 0.3"/>
    </g>
    <g clip-path="url(#pd7ca89a3a2)">
     <use xlink:href="#Cf_0_badf779338" x="712.059195" y="204.774804" style="fill: #ff0000; fill-opacity: 0.3"/>
    </g>
    <g clip-path="url(#pd7ca89a3a2)">
     <use xlink:href="#Cf_0_badf779338" x="709.564186" y="222.287311" style="fill: #ff0000; fill-opacity: 0.3"/>
    </g>
    <g clip-path="url(#pd7ca89a3a2)">
     <use xlink:href="#Cf_0_badf779338" x="715.211658" y="184.302495" style="fill: #ff0000; fill-opacity: 0.3"/>
    </g>
    <g clip-path="url(#pd7ca89a3a2)">
     <use xlink:href="#Cf_0_badf779338" x="714.568018" y="229.647818" style="fill: #ff0000; fill-opacity: 0.3"/>
    </g>
    <g clip-path="url(#pd7ca89a3a2)">
     <use xlink:href="#Cf_0_badf779338" x="711.922293" y="222.240102" style="fill: #ff0000; fill-opacity: 0.3"/>
    </g>
    <g clip-path="url(#pd7ca89a3a2)">
     <use xlink:href="#Cf_0_badf779338" x="713.045536" y="175.558558" style="fill: #ff0000; fill-opacity: 0.3"/>
    </g>
    <g clip-path="url(#pd7ca89a3a2)">
     <use xlink:href="#Cf_0_badf779338" x="711.847607" y="228.050921" style="fill: #ff0000; fill-opacity: 0.3"/>
    </g>
    <g clip-path="url(#pd7ca89a3a2)">
     <use xlink:href="#Cf_0_badf779338" x="709.886929" y="174.006817" style="fill: #ff0000; fill-opacity: 0.3"/>
    </g>
    <g clip-path="url(#pd7ca89a3a2)">
     <use xlink:href="#Cf_0_badf779338" x="709.026221" y="219.953542" style="fill: #ff0000; fill-opacity: 0.3"/>
    </g>
    <g clip-path="url(#pd7ca89a3a2)">
     <use xlink:href="#Cf_0_badf779338" x="716.6383" y="224.087413" style="fill: #ff0000; fill-opacity: 0.3"/>
    </g>
    <g clip-path="url(#pd7ca89a3a2)">
     <use xlink:href="#Cf_0_badf779338" x="709.306018" y="225.294322" style="fill: #ff0000; fill-opacity: 0.3"/>
    </g>
    <g clip-path="url(#pd7ca89a3a2)">
     <use xlink:href="#Cf_0_badf779338" x="709.49809" y="223.580429" style="fill: #ff0000; fill-opacity: 0.3"/>
    </g>
   </g>
   <g id="PathCollection_17">
    <defs>
     <path id="C10_0_f019fb714f" d="M 0 2.5 
C 0.663008 2.5 1.29895 2.236584 1.767767 1.767767 
C 2.236584 1.29895 2.5 0.663008 2.5 -0 
C 2.5 -0.663008 2.236584 -1.29895 1.767767 -1.767767 
C 1.29895 -2.236584 0.663008 -2.5 0 -2.5 
C -0.663008 -2.5 -1.29895 -2.236584 -1.767767 -1.767767 
C -2.236584 -1.29895 -2.5 -0.663008 -2.5 0 
C -2.5 0.663008 -2.236584 1.29895 -1.767767 1.767767 
C -1.29895 2.236584 -0.663008 2.5 0 2.5 
z
"/>
    </defs>
    <g clip-path="url(#pd7ca89a3a2)">
     <use xlink:href="#C10_0_f019fb714f" x="759.03709" y="233.252127" style="fill-opacity: 0.3"/>
    </g>
    <g clip-path="url(#pd7ca89a3a2)">
     <use xlink:href="#C10_0_f019fb714f" x="764.712876" y="222.186735" style="fill-opacity: 0.3"/>
    </g>
    <g clip-path="url(#pd7ca89a3a2)">
     <use xlink:href="#C10_0_f019fb714f" x="759.957889" y="160.340822" style="fill-opacity: 0.3"/>
    </g>
    <g clip-path="url(#pd7ca89a3a2)">
     <use xlink:href="#C10_0_f019fb714f" x="759.544933" y="228.86579" style="fill-opacity: 0.3"/>
    </g>
    <g clip-path="url(#pd7ca89a3a2)">
     <use xlink:href="#C10_0_f019fb714f" x="764.265917" y="169.768264" style="fill-opacity: 0.3"/>
    </g>
    <g clip-path="url(#pd7ca89a3a2)">
     <use xlink:href="#C10_0_f019fb714f" x="760.739547" y="143.985963" style="fill-opacity: 0.3"/>
    </g>
    <g clip-path="url(#pd7ca89a3a2)">
     <use xlink:href="#C10_0_f019fb714f" x="766.09342" y="176.022438" style="fill-opacity: 0.3"/>
    </g>
    <g clip-path="url(#pd7ca89a3a2)">
     <use xlink:href="#C10_0_f019fb714f" x="759.301716" y="153.538613" style="fill-opacity: 0.3"/>
    </g>
    <g clip-path="url(#pd7ca89a3a2)">
     <use xlink:href="#C10_0_f019fb714f" x="766.449114" y="226.915851" style="fill-opacity: 0.3"/>
    </g>
    <g clip-path="url(#pd7ca89a3a2)">
     <use xlink:href="#C10_0_f019fb714f" x="764.579277" y="117.984037" style="fill-opacity: 0.3"/>
    </g>
    <g clip-path="url(#pd7ca89a3a2)">
     <use xlink:href="#C10_0_f019fb714f" x="763.811643" y="183.616938" style="fill-opacity: 0.3"/>
    </g>
    <g clip-path="url(#pd7ca89a3a2)">
     <use xlink:href="#C10_0_f019fb714f" x="761.975091" y="168.700929" style="fill-opacity: 0.3"/>
    </g>
    <g clip-path="url(#pd7ca89a3a2)">
     <use xlink:href="#C10_0_f019fb714f" x="763.362519" y="165.486609" style="fill-opacity: 0.3"/>
    </g>
   </g>
   <g id="PathCollection_18">
    <defs>
     <path id="C11_0_82e3deb7dc" d="M 0 2.5 
C 0.663008 2.5 1.29895 2.236584 1.767767 1.767767 
C 2.236584 1.29895 2.5 0.663008 2.5 -0 
C 2.5 -0.663008 2.236584 -1.29895 1.767767 -1.767767 
C 1.29895 -2.236584 0.663008 -2.5 0 -2.5 
C -0.663008 -2.5 -1.29895 -2.236584 -1.767767 -1.767767 
C -2.236584 -1.29895 -2.5 -0.663008 -2.5 0 
C -2.5 0.663008 -2.236584 1.29895 -1.767767 1.767767 
C -1.29895 2.236584 -0.663008 2.5 0 2.5 
z
"/>
    </defs>
    <g clip-path="url(#pd7ca89a3a2)">
     <use xlink:href="#C11_0_82e3deb7dc" x="795.742935" y="258.33245" style="fill: #ff0000; fill-opacity: 0.3"/>
    </g>
    <g clip-path="url(#pd7ca89a3a2)">
     <use xlink:href="#C11_0_82e3deb7dc" x="797.413427" y="223.500378" style="fill: #ff0000; fill-opacity: 0.3"/>
    </g>
    <g clip-path="url(#pd7ca89a3a2)">
     <use xlink:href="#C11_0_82e3deb7dc" x="792.892656" y="249.830715" style="fill: #ff0000; fill-opacity: 0.3"/>
    </g>
    <g clip-path="url(#pd7ca89a3a2)">
     <use xlink:href="#C11_0_82e3deb7dc" x="798.320595" y="214.313086" style="fill: #ff0000; fill-opacity: 0.3"/>
    </g>
    <g clip-path="url(#pd7ca89a3a2)">
     <use xlink:href="#C11_0_82e3deb7dc" x="792.713796" y="204.774804" style="fill: #ff0000; fill-opacity: 0.3"/>
    </g>
    <g clip-path="url(#pd7ca89a3a2)">
     <use xlink:href="#C11_0_82e3deb7dc" x="795.875745" y="222.287311" style="fill: #ff0000; fill-opacity: 0.3"/>
    </g>
    <g clip-path="url(#pd7ca89a3a2)">
     <use xlink:href="#C11_0_82e3deb7dc" x="794.406567" y="184.302495" style="fill: #ff0000; fill-opacity: 0.3"/>
    </g>
    <g clip-path="url(#pd7ca89a3a2)">
     <use xlink:href="#C11_0_82e3deb7dc" x="799.595417" y="229.647818" style="fill: #ff0000; fill-opacity: 0.3"/>
    </g>
    <g clip-path="url(#pd7ca89a3a2)">
     <use xlink:href="#C11_0_82e3deb7dc" x="797.249811" y="222.240102" style="fill: #ff0000; fill-opacity: 0.3"/>
    </g>
    <g clip-path="url(#pd7ca89a3a2)">
     <use xlink:href="#C11_0_82e3deb7dc" x="794.109345" y="175.558558" style="fill: #ff0000; fill-opacity: 0.3"/>
    </g>
    <g clip-path="url(#pd7ca89a3a2)">
     <use xlink:href="#C11_0_82e3deb7dc" x="792.139444" y="228.050921" style="fill: #ff0000; fill-opacity: 0.3"/>
    </g>
    <g clip-path="url(#pd7ca89a3a2)">
     <use xlink:href="#C11_0_82e3deb7dc" x="799.102226" y="174.006817" style="fill: #ff0000; fill-opacity: 0.3"/>
    </g>
    <g clip-path="url(#pd7ca89a3a2)">
     <use xlink:href="#C11_0_82e3deb7dc" x="792.683589" y="219.953542" style="fill: #ff0000; fill-opacity: 0.3"/>
    </g>
    <g clip-path="url(#pd7ca89a3a2)">
     <use xlink:href="#C11_0_82e3deb7dc" x="799.630785" y="224.087413" style="fill: #ff0000; fill-opacity: 0.3"/>
    </g>
    <g clip-path="url(#pd7ca89a3a2)">
     <use xlink:href="#C11_0_82e3deb7dc" x="794.661451" y="225.294322" style="fill: #ff0000; fill-opacity: 0.3"/>
    </g>
    <g clip-path="url(#pd7ca89a3a2)">
     <use xlink:href="#C11_0_82e3deb7dc" x="795.198945" y="223.580429" style="fill: #ff0000; fill-opacity: 0.3"/>
    </g>
   </g>
   <g id="text_16">
    <!-- 0.161 -->
    <g transform="translate(93.900116 17.837812) scale(0.14 -0.14)">
     <use xlink:href="#DejaVuSans-30"/>
     <use xlink:href="#DejaVuSans-2e" transform="translate(63.623047 0)"/>
     <use xlink:href="#DejaVuSans-31" transform="translate(95.410156 0)"/>
     <use xlink:href="#DejaVuSans-36" transform="translate(159.033203 0)"/>
     <use xlink:href="#DejaVuSans-31" transform="translate(222.65625 0)"/>
    </g>
    <!-- ns -->
    <g transform="translate(105.856991 33.51475) scale(0.14 -0.14)">
     <use xlink:href="#DejaVuSans-6e"/>
     <use xlink:href="#DejaVuSans-73" transform="translate(63.378906 0)"/>
    </g>
   </g>
   <g id="text_17">
    <!-- 0.140 -->
    <g transform="translate(177.091103 17.837812) scale(0.14 -0.14)">
     <use xlink:href="#DejaVuSans-30"/>
     <use xlink:href="#DejaVuSans-2e" transform="translate(63.623047 0)"/>
     <use xlink:href="#DejaVuSans-31" transform="translate(95.410156 0)"/>
     <use xlink:href="#DejaVuSans-34" transform="translate(159.033203 0)"/>
     <use xlink:href="#DejaVuSans-30" transform="translate(222.65625 0)"/>
    </g>
    <!-- ns -->
    <g transform="translate(189.047978 33.51475) scale(0.14 -0.14)">
     <use xlink:href="#DejaVuSans-6e"/>
     <use xlink:href="#DejaVuSans-73" transform="translate(63.378906 0)"/>
    </g>
   </g>
   <g id="text_18">
    <!-- 0.924 -->
    <g transform="translate(260.282089 17.837812) scale(0.14 -0.14)">
     <use xlink:href="#DejaVuSans-30"/>
     <use xlink:href="#DejaVuSans-2e" transform="translate(63.623047 0)"/>
     <use xlink:href="#DejaVuSans-39" transform="translate(95.410156 0)"/>
     <use xlink:href="#DejaVuSans-32" transform="translate(159.033203 0)"/>
     <use xlink:href="#DejaVuSans-34" transform="translate(222.65625 0)"/>
    </g>
    <!-- ns -->
    <g transform="translate(272.238964 33.51475) scale(0.14 -0.14)">
     <use xlink:href="#DejaVuSans-6e"/>
     <use xlink:href="#DejaVuSans-73" transform="translate(63.378906 0)"/>
    </g>
   </g>
   <g id="text_19">
    <!-- 0.383 -->
    <g transform="translate(343.473076 17.837812) scale(0.14 -0.14)">
     <use xlink:href="#DejaVuSans-30"/>
     <use xlink:href="#DejaVuSans-2e" transform="translate(63.623047 0)"/>
     <use xlink:href="#DejaVuSans-33" transform="translate(95.410156 0)"/>
     <use xlink:href="#DejaVuSans-38" transform="translate(159.033203 0)"/>
     <use xlink:href="#DejaVuSans-33" transform="translate(222.65625 0)"/>
    </g>
    <!-- ns -->
    <g transform="translate(355.429951 33.51475) scale(0.14 -0.14)">
     <use xlink:href="#DejaVuSans-6e"/>
     <use xlink:href="#DejaVuSans-73" transform="translate(63.378906 0)"/>
    </g>
   </g>
   <g id="text_20">
    <!-- 0.004 -->
    <g transform="translate(426.664063 17.837812) scale(0.14 -0.14)">
     <use xlink:href="#DejaVuSans-30"/>
     <use xlink:href="#DejaVuSans-2e" transform="translate(63.623047 0)"/>
     <use xlink:href="#DejaVuSans-30" transform="translate(95.410156 0)"/>
     <use xlink:href="#DejaVuSans-30" transform="translate(159.033203 0)"/>
     <use xlink:href="#DejaVuSans-34" transform="translate(222.65625 0)"/>
    </g>
    <!-- ** -->
    <g transform="translate(439.70375 33.51475) scale(0.14 -0.14)">
     <defs>
      <path id="DejaVuSans-2a" d="M 3009 3897 
L 1888 3291 
L 3009 2681 
L 2828 2375 
L 1778 3009 
L 1778 1831 
L 1422 1831 
L 1422 3009 
L 372 2375 
L 191 2681 
L 1313 3291 
L 191 3897 
L 372 4206 
L 1422 3572 
L 1422 4750 
L 1778 4750 
L 1778 3572 
L 2828 4206 
L 3009 3897 
z
" transform="scale(0.015625)"/>
     </defs>
     <use xlink:href="#DejaVuSans-2a"/>
     <use xlink:href="#DejaVuSans-2a" transform="translate(50 0)"/>
    </g>
   </g>
   <g id="text_21">
    <!-- 0.021 -->
    <g transform="translate(509.855049 17.837812) scale(0.14 -0.14)">
     <use xlink:href="#DejaVuSans-30"/>
     <use xlink:href="#DejaVuSans-2e" transform="translate(63.623047 0)"/>
     <use xlink:href="#DejaVuSans-30" transform="translate(95.410156 0)"/>
     <use xlink:href="#DejaVuSans-32" transform="translate(159.033203 0)"/>
     <use xlink:href="#DejaVuSans-31" transform="translate(222.65625 0)"/>
    </g>
    <!-- * -->
    <g transform="translate(526.394737 33.51475) scale(0.14 -0.14)">
     <use xlink:href="#DejaVuSans-2a"/>
    </g>
   </g>
   <g id="text_22">
    <!-- 0.010 -->
    <g transform="translate(593.046036 17.837812) scale(0.14 -0.14)">
     <use xlink:href="#DejaVuSans-30"/>
     <use xlink:href="#DejaVuSans-2e" transform="translate(63.623047 0)"/>
     <use xlink:href="#DejaVuSans-30" transform="translate(95.410156 0)"/>
     <use xlink:href="#DejaVuSans-31" transform="translate(159.033203 0)"/>
     <use xlink:href="#DejaVuSans-30" transform="translate(222.65625 0)"/>
    </g>
    <!-- * -->
    <g transform="translate(609.585723 33.51475) scale(0.14 -0.14)">
     <use xlink:href="#DejaVuSans-2a"/>
    </g>
   </g>
   <g id="text_23">
    <!-- 0.016 -->
    <g transform="translate(676.237022 17.837812) scale(0.14 -0.14)">
     <use xlink:href="#DejaVuSans-30"/>
     <use xlink:href="#DejaVuSans-2e" transform="translate(63.623047 0)"/>
     <use xlink:href="#DejaVuSans-30" transform="translate(95.410156 0)"/>
     <use xlink:href="#DejaVuSans-31" transform="translate(159.033203 0)"/>
     <use xlink:href="#DejaVuSans-36" transform="translate(222.65625 0)"/>
    </g>
    <!-- * -->
    <g transform="translate(692.77671 33.51475) scale(0.14 -0.14)">
     <use xlink:href="#DejaVuSans-2a"/>
    </g>
   </g>
   <g id="text_24">
    <!-- 0.016 -->
    <g transform="translate(759.428009 17.837812) scale(0.14 -0.14)">
     <use xlink:href="#DejaVuSans-30"/>
     <use xlink:href="#DejaVuSans-2e" transform="translate(63.623047 0)"/>
     <use xlink:href="#DejaVuSans-30" transform="translate(95.410156 0)"/>
     <use xlink:href="#DejaVuSans-31" transform="translate(159.033203 0)"/>
     <use xlink:href="#DejaVuSans-36" transform="translate(222.65625 0)"/>
    </g>
    <!-- * -->
    <g transform="translate(775.967696 33.51475) scale(0.14 -0.14)">
     <use xlink:href="#DejaVuSans-2a"/>
    </g>
   </g>
  </g>
  <g id="text_25">
   <!-- time_combo -->
   <g transform="translate(385.156094 426.594411) scale(0.14 -0.14)">
    <defs>
     <path id="DejaVuSans-63" d="M 3122 3366 
L 3122 2828 
Q 2878 2963 2633 3030 
Q 2388 3097 2138 3097 
Q 1578 3097 1268 2742 
Q 959 2388 959 1747 
Q 959 1106 1268 751 
Q 1578 397 2138 397 
Q 2388 397 2633 464 
Q 2878 531 3122 666 
L 3122 134 
Q 2881 22 2623 -34 
Q 2366 -91 2075 -91 
Q 1284 -91 818 406 
Q 353 903 353 1747 
Q 353 2603 823 3093 
Q 1294 3584 2113 3584 
Q 2378 3584 2631 3529 
Q 2884 3475 3122 3366 
z
" transform="scale(0.015625)"/>
    </defs>
    <use xlink:href="#DejaVuSans-74"/>
    <use xlink:href="#DejaVuSans-69" transform="translate(39.208984 0)"/>
    <use xlink:href="#DejaVuSans-6d" transform="translate(66.992188 0)"/>
    <use xlink:href="#DejaVuSans-65" transform="translate(164.404297 0)"/>
    <use xlink:href="#DejaVuSans-5f" transform="translate(225.927734 0)"/>
    <use xlink:href="#DejaVuSans-63" transform="translate(275.927734 0)"/>
    <use xlink:href="#DejaVuSans-6f" transform="translate(330.908203 0)"/>
    <use xlink:href="#DejaVuSans-6d" transform="translate(392.089844 0)"/>
    <use xlink:href="#DejaVuSans-62" transform="translate(489.501953 0)"/>
    <use xlink:href="#DejaVuSans-6f" transform="translate(552.978516 0)"/>
   </g>
  </g>
 </g>
 <defs>
  <clipPath id="pd7ca89a3a2">
   <rect x="44.059375" y="24.095531" width="805.28875" height="270.93888"/>
  </clipPath>
 </defs>
</svg>
