<?xml version="1.0" encoding="utf-8" standalone="no"?>
<!DOCTYPE svg PUBLIC "-//W3C//DTD SVG 1.1//EN"
  "http://www.w3.org/Graphics/SVG/1.1/DTD/svg11.dtd">
<svg xmlns:xlink="http://www.w3.org/1999/xlink" width="856.520625pt" height="434.580938pt" viewBox="0 0 856.520625 434.580938" xmlns="http://www.w3.org/2000/svg" version="1.1">
 <metadata>
  <rdf:RDF xmlns:dc="http://purl.org/dc/elements/1.1/" xmlns:cc="http://creativecommons.org/ns#" xmlns:rdf="http://www.w3.org/1999/02/22-rdf-syntax-ns#">
   <cc:Work>
    <dc:type rdf:resource="http://purl.org/dc/dcmitype/StillImage"/>
    <dc:date>2025-11-29T19:17:15.261025</dc:date>
    <dc:format>image/svg+xml</dc:format>
    <dc:creator>
     <cc:Agent>
      <dc:title>Matplotlib v3.10.0, https://matplotlib.org/</dc:title>
     </cc:Agent>
    </dc:creator>
   </cc:Work>
  </rdf:RDF>
 </metadata>
 <defs>
  <style type="text/css">*{stroke-linejoin: round; stroke-linecap: butt}</style>
 </defs>
 <g id="figure_1">
  <g id="patch_1">
   <path d="M 0 434.580938 
L 856.520625 434.580938 
L 856.520625 0 
L 0 0 
L 0 434.580938 
z
" style="fill: none"/>
  </g>
  <g id="axes_1">
   <g id="patch_2">
    <path d="M 50.421875 368.57 
L 849.320625 368.57 
L 849.320625 7.2 
L 50.421875 7.2 
L 50.421875 368.57 
z
" style="fill: none"/>
   </g>
   <g id="patch_3">
    <path d="M 86.735455 368.57 
L 190.488539 368.57 
L 190.488539 177.151383 
L 86.735455 177.151383 
L 86.735455 368.57 
z
" clip-path="url(#pf1b13b5dac)" style="fill: none; opacity: 0"/>
   </g>
   <g id="patch_4">
    <path d="M 346.118166 368.57 
L 449.87125 368.57 
L 449.87125 177.151383 
L 346.118166 177.151383 
L 346.118166 368.57 
z
" clip-path="url(#pf1b13b5dac)" style="fill: none; opacity: 0"/>
   </g>
   <g id="patch_5">
    <path d="M 605.500877 368.57 
L 709.253961 368.57 
L 709.253961 177.151383 
L 605.500877 177.151383 
L 605.500877 368.57 
z
" clip-path="url(#pf1b13b5dac)" style="fill: none; opacity: 0"/>
   </g>
   <g id="patch_6">
    <path d="M 190.488539 368.57 
L 294.241623 368.57 
L 294.241623 158.900329 
L 190.488539 158.900329 
L 190.488539 368.57 
z
" clip-path="url(#pf1b13b5dac)" style="fill: none; opacity: 0"/>
   </g>
   <g id="patch_7">
    <path d="M 449.87125 368.57 
L 553.624334 368.57 
L 553.624334 184.237963 
L 449.87125 184.237963 
L 449.87125 368.57 
z
" clip-path="url(#pf1b13b5dac)" style="fill: none; opacity: 0"/>
   </g>
   <g id="patch_8">
    <path d="M 709.253961 368.57 
L 813.007045 368.57 
L 813.007045 228.0004 
L 709.253961 228.0004 
L 709.253961 368.57 
z
" clip-path="url(#pf1b13b5dac)" style="fill: none; opacity: 0"/>
   </g>
   <g id="matplotlib.axis_1">
    <g id="xtick_1">
     <g id="line2d_1">
      <defs>
       <path id="m0a4f47e5c9" d="M 0 0 
L 0 3.5 
" style="stroke: #000000; stroke-width: 0.8"/>
      </defs>
      <g>
       <use xlink:href="#m0a4f47e5c9" x="190.488539" y="368.57" style="stroke: #000000; stroke-width: 0.8"/>
      </g>
     </g>
     <g id="text_1">
      <!-- 4_24_23 -->
      <g transform="translate(193.02057 417.3825) rotate(-90) scale(0.1 -0.1)">
       <defs>
        <path id="DejaVuSans-34" d="M 2419 4116 
L 825 1625 
L 2419 1625 
L 2419 4116 
z
M 2253 4666 
L 3047 4666 
L 3047 1625 
L 3713 1625 
L 3713 1100 
L 3047 1100 
L 3047 0 
L 2419 0 
L 2419 1100 
L 313 1100 
L 313 1709 
L 2253 4666 
z
" transform="scale(0.015625)"/>
        <path id="DejaVuSans-5f" d="M 3263 -1063 
L 3263 -1509 
L -63 -1509 
L -63 -1063 
L 3263 -1063 
z
" transform="scale(0.015625)"/>
        <path id="DejaVuSans-32" d="M 1228 531 
L 3431 531 
L 3431 0 
L 469 0 
L 469 531 
Q 828 903 1448 1529 
Q 2069 2156 2228 2338 
Q 2531 2678 2651 2914 
Q 2772 3150 2772 3378 
Q 2772 3750 2511 3984 
Q 2250 4219 1831 4219 
Q 1534 4219 1204 4116 
Q 875 4013 500 3803 
L 500 4441 
Q 881 4594 1212 4672 
Q 1544 4750 1819 4750 
Q 2544 4750 2975 4387 
Q 3406 4025 3406 3419 
Q 3406 3131 3298 2873 
Q 3191 2616 2906 2266 
Q 2828 2175 2409 1742 
Q 1991 1309 1228 531 
z
" transform="scale(0.015625)"/>
        <path id="DejaVuSans-33" d="M 2597 2516 
Q 3050 2419 3304 2112 
Q 3559 1806 3559 1356 
Q 3559 666 3084 287 
Q 2609 -91 1734 -91 
Q 1441 -91 1130 -33 
Q 819 25 488 141 
L 488 750 
Q 750 597 1062 519 
Q 1375 441 1716 441 
Q 2309 441 2620 675 
Q 2931 909 2931 1356 
Q 2931 1769 2642 2001 
Q 2353 2234 1838 2234 
L 1294 2234 
L 1294 2753 
L 1863 2753 
Q 2328 2753 2575 2939 
Q 2822 3125 2822 3475 
Q 2822 3834 2567 4026 
Q 2313 4219 1838 4219 
Q 1578 4219 1281 4162 
Q 984 4106 628 3988 
L 628 4550 
Q 988 4650 1302 4700 
Q 1616 4750 1894 4750 
Q 2613 4750 3031 4423 
Q 3450 4097 3450 3541 
Q 3450 3153 3228 2886 
Q 3006 2619 2597 2516 
z
" transform="scale(0.015625)"/>
       </defs>
       <use xlink:href="#DejaVuSans-34"/>
       <use xlink:href="#DejaVuSans-5f" transform="translate(63.623047 0)"/>
       <use xlink:href="#DejaVuSans-32" transform="translate(113.623047 0)"/>
       <use xlink:href="#DejaVuSans-34" transform="translate(177.246094 0)"/>
       <use xlink:href="#DejaVuSans-5f" transform="translate(240.869141 0)"/>
       <use xlink:href="#DejaVuSans-32" transform="translate(290.869141 0)"/>
       <use xlink:href="#DejaVuSans-33" transform="translate(354.492188 0)"/>
      </g>
     </g>
    </g>
    <g id="xtick_2">
     <g id="line2d_2">
      <g>
       <use xlink:href="#m0a4f47e5c9" x="449.87125" y="368.57" style="stroke: #000000; stroke-width: 0.8"/>
      </g>
     </g>
     <g id="text_2">
      <!-- 6_13_25 -->
      <g transform="translate(452.403281 417.3825) rotate(-90) scale(0.1 -0.1)">
       <defs>
        <path id="DejaVuSans-36" d="M 2113 2584 
Q 1688 2584 1439 2293 
Q 1191 2003 1191 1497 
Q 1191 994 1439 701 
Q 1688 409 2113 409 
Q 2538 409 2786 701 
Q 3034 994 3034 1497 
Q 3034 2003 2786 2293 
Q 2538 2584 2113 2584 
z
M 3366 4563 
L 3366 3988 
Q 3128 4100 2886 4159 
Q 2644 4219 2406 4219 
Q 1781 4219 1451 3797 
Q 1122 3375 1075 2522 
Q 1259 2794 1537 2939 
Q 1816 3084 2150 3084 
Q 2853 3084 3261 2657 
Q 3669 2231 3669 1497 
Q 3669 778 3244 343 
Q 2819 -91 2113 -91 
Q 1303 -91 875 529 
Q 447 1150 447 2328 
Q 447 3434 972 4092 
Q 1497 4750 2381 4750 
Q 2619 4750 2861 4703 
Q 3103 4656 3366 4563 
z
" transform="scale(0.015625)"/>
        <path id="DejaVuSans-31" d="M 794 531 
L 1825 531 
L 1825 4091 
L 703 3866 
L 703 4441 
L 1819 4666 
L 2450 4666 
L 2450 531 
L 3481 531 
L 3481 0 
L 794 0 
L 794 531 
z
" transform="scale(0.015625)"/>
        <path id="DejaVuSans-35" d="M 691 4666 
L 3169 4666 
L 3169 4134 
L 1269 4134 
L 1269 2991 
Q 1406 3038 1543 3061 
Q 1681 3084 1819 3084 
Q 2600 3084 3056 2656 
Q 3513 2228 3513 1497 
Q 3513 744 3044 326 
Q 2575 -91 1722 -91 
Q 1428 -91 1123 -41 
Q 819 9 494 109 
L 494 744 
Q 775 591 1075 516 
Q 1375 441 1709 441 
Q 2250 441 2565 725 
Q 2881 1009 2881 1497 
Q 2881 1984 2565 2268 
Q 2250 2553 1709 2553 
Q 1456 2553 1204 2497 
Q 953 2441 691 2322 
L 691 4666 
z
" transform="scale(0.015625)"/>
       </defs>
       <use xlink:href="#DejaVuSans-36"/>
       <use xlink:href="#DejaVuSans-5f" transform="translate(63.623047 0)"/>
       <use xlink:href="#DejaVuSans-31" transform="translate(113.623047 0)"/>
       <use xlink:href="#DejaVuSans-33" transform="translate(177.246094 0)"/>
       <use xlink:href="#DejaVuSans-5f" transform="translate(240.869141 0)"/>
       <use xlink:href="#DejaVuSans-32" transform="translate(290.869141 0)"/>
       <use xlink:href="#DejaVuSans-35" transform="translate(354.492188 0)"/>
      </g>
     </g>
    </g>
    <g id="xtick_3">
     <g id="line2d_3">
      <g>
       <use xlink:href="#m0a4f47e5c9" x="709.253961" y="368.57" style="stroke: #000000; stroke-width: 0.8"/>
      </g>
     </g>
     <g id="text_3">
      <!-- 6_6_25 -->
      <g transform="translate(711.785992 411.02) rotate(-90) scale(0.1 -0.1)">
       <use xlink:href="#DejaVuSans-36"/>
       <use xlink:href="#DejaVuSans-5f" transform="translate(63.623047 0)"/>
       <use xlink:href="#DejaVuSans-36" transform="translate(113.623047 0)"/>
       <use xlink:href="#DejaVuSans-5f" transform="translate(177.246094 0)"/>
       <use xlink:href="#DejaVuSans-32" transform="translate(227.246094 0)"/>
       <use xlink:href="#DejaVuSans-35" transform="translate(290.869141 0)"/>
      </g>
     </g>
    </g>
   </g>
   <g id="matplotlib.axis_2">
    <g id="ytick_1">
     <g id="line2d_4">
      <defs>
       <path id="m2a5d0ff776" d="M 0 0 
L -3.5 0 
" style="stroke: #000000; stroke-width: 0.8"/>
      </defs>
      <g>
       <use xlink:href="#m2a5d0ff776" x="50.421875" y="368.57" style="stroke: #000000; stroke-width: 0.8"/>
      </g>
     </g>
     <g id="text_4">
      <!-- 0.00 -->
      <g transform="translate(21.15625 372.369219) scale(0.1 -0.1)">
       <defs>
        <path id="DejaVuSans-30" d="M 2034 4250 
Q 1547 4250 1301 3770 
Q 1056 3291 1056 2328 
Q 1056 1369 1301 889 
Q 1547 409 2034 409 
Q 2525 409 2770 889 
Q 3016 1369 3016 2328 
Q 3016 3291 2770 3770 
Q 2525 4250 2034 4250 
z
M 2034 4750 
Q 2819 4750 3233 4129 
Q 3647 3509 3647 2328 
Q 3647 1150 3233 529 
Q 2819 -91 2034 -91 
Q 1250 -91 836 529 
Q 422 1150 422 2328 
Q 422 3509 836 4129 
Q 1250 4750 2034 4750 
z
" transform="scale(0.015625)"/>
        <path id="DejaVuSans-2e" d="M 684 794 
L 1344 794 
L 1344 0 
L 684 0 
L 684 794 
z
" transform="scale(0.015625)"/>
       </defs>
       <use xlink:href="#DejaVuSans-30"/>
       <use xlink:href="#DejaVuSans-2e" transform="translate(63.623047 0)"/>
       <use xlink:href="#DejaVuSans-30" transform="translate(95.410156 0)"/>
       <use xlink:href="#DejaVuSans-30" transform="translate(159.033203 0)"/>
      </g>
     </g>
    </g>
    <g id="ytick_2">
     <g id="line2d_5">
      <g>
       <use xlink:href="#m2a5d0ff776" x="50.421875" y="320.715346" style="stroke: #000000; stroke-width: 0.8"/>
      </g>
     </g>
     <g id="text_5">
      <!-- 0.25 -->
      <g transform="translate(21.15625 324.514565) scale(0.1 -0.1)">
       <use xlink:href="#DejaVuSans-30"/>
       <use xlink:href="#DejaVuSans-2e" transform="translate(63.623047 0)"/>
       <use xlink:href="#DejaVuSans-32" transform="translate(95.410156 0)"/>
       <use xlink:href="#DejaVuSans-35" transform="translate(159.033203 0)"/>
      </g>
     </g>
    </g>
    <g id="ytick_3">
     <g id="line2d_6">
      <g>
       <use xlink:href="#m2a5d0ff776" x="50.421875" y="272.860692" style="stroke: #000000; stroke-width: 0.8"/>
      </g>
     </g>
     <g id="text_6">
      <!-- 0.50 -->
      <g transform="translate(21.15625 276.65991) scale(0.1 -0.1)">
       <use xlink:href="#DejaVuSans-30"/>
       <use xlink:href="#DejaVuSans-2e" transform="translate(63.623047 0)"/>
       <use xlink:href="#DejaVuSans-35" transform="translate(95.410156 0)"/>
       <use xlink:href="#DejaVuSans-30" transform="translate(159.033203 0)"/>
      </g>
     </g>
    </g>
    <g id="ytick_4">
     <g id="line2d_7">
      <g>
       <use xlink:href="#m2a5d0ff776" x="50.421875" y="225.006037" style="stroke: #000000; stroke-width: 0.8"/>
      </g>
     </g>
     <g id="text_7">
      <!-- 0.75 -->
      <g transform="translate(21.15625 228.805256) scale(0.1 -0.1)">
       <defs>
        <path id="DejaVuSans-37" d="M 525 4666 
L 3525 4666 
L 3525 4397 
L 1831 0 
L 1172 0 
L 2766 4134 
L 525 4134 
L 525 4666 
z
" transform="scale(0.015625)"/>
       </defs>
       <use xlink:href="#DejaVuSans-30"/>
       <use xlink:href="#DejaVuSans-2e" transform="translate(63.623047 0)"/>
       <use xlink:href="#DejaVuSans-37" transform="translate(95.410156 0)"/>
       <use xlink:href="#DejaVuSans-35" transform="translate(159.033203 0)"/>
      </g>
     </g>
    </g>
    <g id="ytick_5">
     <g id="line2d_8">
      <g>
       <use xlink:href="#m2a5d0ff776" x="50.421875" y="177.151383" style="stroke: #000000; stroke-width: 0.8"/>
      </g>
     </g>
     <g id="text_8">
      <!-- 1.00 -->
      <g transform="translate(21.15625 180.950602) scale(0.1 -0.1)">
       <use xlink:href="#DejaVuSans-31"/>
       <use xlink:href="#DejaVuSans-2e" transform="translate(63.623047 0)"/>
       <use xlink:href="#DejaVuSans-30" transform="translate(95.410156 0)"/>
       <use xlink:href="#DejaVuSans-30" transform="translate(159.033203 0)"/>
      </g>
     </g>
    </g>
    <g id="ytick_6">
     <g id="line2d_9">
      <g>
       <use xlink:href="#m2a5d0ff776" x="50.421875" y="129.296729" style="stroke: #000000; stroke-width: 0.8"/>
      </g>
     </g>
     <g id="text_9">
      <!-- 1.25 -->
      <g transform="translate(21.15625 133.095948) scale(0.1 -0.1)">
       <use xlink:href="#DejaVuSans-31"/>
       <use xlink:href="#DejaVuSans-2e" transform="translate(63.623047 0)"/>
       <use xlink:href="#DejaVuSans-32" transform="translate(95.410156 0)"/>
       <use xlink:href="#DejaVuSans-35" transform="translate(159.033203 0)"/>
      </g>
     </g>
    </g>
    <g id="ytick_7">
     <g id="line2d_10">
      <g>
       <use xlink:href="#m2a5d0ff776" x="50.421875" y="81.442075" style="stroke: #000000; stroke-width: 0.8"/>
      </g>
     </g>
     <g id="text_10">
      <!-- 1.50 -->
      <g transform="translate(21.15625 85.241294) scale(0.1 -0.1)">
       <use xlink:href="#DejaVuSans-31"/>
       <use xlink:href="#DejaVuSans-2e" transform="translate(63.623047 0)"/>
       <use xlink:href="#DejaVuSans-35" transform="translate(95.410156 0)"/>
       <use xlink:href="#DejaVuSans-30" transform="translate(159.033203 0)"/>
      </g>
     </g>
    </g>
    <g id="ytick_8">
     <g id="line2d_11">
      <g>
       <use xlink:href="#m2a5d0ff776" x="50.421875" y="33.587421" style="stroke: #000000; stroke-width: 0.8"/>
      </g>
     </g>
     <g id="text_11">
      <!-- 1.75 -->
      <g transform="translate(21.15625 37.38664) scale(0.1 -0.1)">
       <use xlink:href="#DejaVuSans-31"/>
       <use xlink:href="#DejaVuSans-2e" transform="translate(63.623047 0)"/>
       <use xlink:href="#DejaVuSans-37" transform="translate(95.410156 0)"/>
       <use xlink:href="#DejaVuSans-35" transform="translate(159.033203 0)"/>
      </g>
     </g>
    </g>
    <g id="text_12">
     <!-- Normalized dpix_numberofboutsSLEEP: Binned - 3600 -->
     <g transform="translate(14.798438 322.896719) rotate(-90) scale(0.1 -0.1)">
      <defs>
       <path id="DejaVuSans-4e" d="M 628 4666 
L 1478 4666 
L 3547 763 
L 3547 4666 
L 4159 4666 
L 4159 0 
L 3309 0 
L 1241 3903 
L 1241 0 
L 628 0 
L 628 4666 
z
" transform="scale(0.015625)"/>
       <path id="DejaVuSans-6f" d="M 1959 3097 
Q 1497 3097 1228 2736 
Q 959 2375 959 1747 
Q 959 1119 1226 758 
Q 1494 397 1959 397 
Q 2419 397 2687 759 
Q 2956 1122 2956 1747 
Q 2956 2369 2687 2733 
Q 2419 3097 1959 3097 
z
M 1959 3584 
Q 2709 3584 3137 3096 
Q 3566 2609 3566 1747 
Q 3566 888 3137 398 
Q 2709 -91 1959 -91 
Q 1206 -91 779 398 
Q 353 888 353 1747 
Q 353 2609 779 3096 
Q 1206 3584 1959 3584 
z
" transform="scale(0.015625)"/>
       <path id="DejaVuSans-72" d="M 2631 2963 
Q 2534 3019 2420 3045 
Q 2306 3072 2169 3072 
Q 1681 3072 1420 2755 
Q 1159 2438 1159 1844 
L 1159 0 
L 581 0 
L 581 3500 
L 1159 3500 
L 1159 2956 
Q 1341 3275 1631 3429 
Q 1922 3584 2338 3584 
Q 2397 3584 2469 3576 
Q 2541 3569 2628 3553 
L 2631 2963 
z
" transform="scale(0.015625)"/>
       <path id="DejaVuSans-6d" d="M 3328 2828 
Q 3544 3216 3844 3400 
Q 4144 3584 4550 3584 
Q 5097 3584 5394 3201 
Q 5691 2819 5691 2113 
L 5691 0 
L 5113 0 
L 5113 2094 
Q 5113 2597 4934 2840 
Q 4756 3084 4391 3084 
Q 3944 3084 3684 2787 
Q 3425 2491 3425 1978 
L 3425 0 
L 2847 0 
L 2847 2094 
Q 2847 2600 2669 2842 
Q 2491 3084 2119 3084 
Q 1678 3084 1418 2786 
Q 1159 2488 1159 1978 
L 1159 0 
L 581 0 
L 581 3500 
L 1159 3500 
L 1159 2956 
Q 1356 3278 1631 3431 
Q 1906 3584 2284 3584 
Q 2666 3584 2933 3390 
Q 3200 3197 3328 2828 
z
" transform="scale(0.015625)"/>
       <path id="DejaVuSans-61" d="M 2194 1759 
Q 1497 1759 1228 1600 
Q 959 1441 959 1056 
Q 959 750 1161 570 
Q 1363 391 1709 391 
Q 2188 391 2477 730 
Q 2766 1069 2766 1631 
L 2766 1759 
L 2194 1759 
z
M 3341 1997 
L 3341 0 
L 2766 0 
L 2766 531 
Q 2569 213 2275 61 
Q 1981 -91 1556 -91 
Q 1019 -91 701 211 
Q 384 513 384 1019 
Q 384 1609 779 1909 
Q 1175 2209 1959 2209 
L 2766 2209 
L 2766 2266 
Q 2766 2663 2505 2880 
Q 2244 3097 1772 3097 
Q 1472 3097 1187 3025 
Q 903 2953 641 2809 
L 641 3341 
Q 956 3463 1253 3523 
Q 1550 3584 1831 3584 
Q 2591 3584 2966 3190 
Q 3341 2797 3341 1997 
z
" transform="scale(0.015625)"/>
       <path id="DejaVuSans-6c" d="M 603 4863 
L 1178 4863 
L 1178 0 
L 603 0 
L 603 4863 
z
" transform="scale(0.015625)"/>
       <path id="DejaVuSans-69" d="M 603 3500 
L 1178 3500 
L 1178 0 
L 603 0 
L 603 3500 
z
M 603 4863 
L 1178 4863 
L 1178 4134 
L 603 4134 
L 603 4863 
z
" transform="scale(0.015625)"/>
       <path id="DejaVuSans-7a" d="M 353 3500 
L 3084 3500 
L 3084 2975 
L 922 459 
L 3084 459 
L 3084 0 
L 275 0 
L 275 525 
L 2438 3041 
L 353 3041 
L 353 3500 
z
" transform="scale(0.015625)"/>
       <path id="DejaVuSans-65" d="M 3597 1894 
L 3597 1613 
L 953 1613 
Q 991 1019 1311 708 
Q 1631 397 2203 397 
Q 2534 397 2845 478 
Q 3156 559 3463 722 
L 3463 178 
Q 3153 47 2828 -22 
Q 2503 -91 2169 -91 
Q 1331 -91 842 396 
Q 353 884 353 1716 
Q 353 2575 817 3079 
Q 1281 3584 2069 3584 
Q 2775 3584 3186 3129 
Q 3597 2675 3597 1894 
z
M 3022 2063 
Q 3016 2534 2758 2815 
Q 2500 3097 2075 3097 
Q 1594 3097 1305 2825 
Q 1016 2553 972 2059 
L 3022 2063 
z
" transform="scale(0.015625)"/>
       <path id="DejaVuSans-64" d="M 2906 2969 
L 2906 4863 
L 3481 4863 
L 3481 0 
L 2906 0 
L 2906 525 
Q 2725 213 2448 61 
Q 2172 -91 1784 -91 
Q 1150 -91 751 415 
Q 353 922 353 1747 
Q 353 2572 751 3078 
Q 1150 3584 1784 3584 
Q 2172 3584 2448 3432 
Q 2725 3281 2906 2969 
z
M 947 1747 
Q 947 1113 1208 752 
Q 1469 391 1925 391 
Q 2381 391 2643 752 
Q 2906 1113 2906 1747 
Q 2906 2381 2643 2742 
Q 2381 3103 1925 3103 
Q 1469 3103 1208 2742 
Q 947 2381 947 1747 
z
" transform="scale(0.015625)"/>
       <path id="DejaVuSans-20" transform="scale(0.015625)"/>
       <path id="DejaVuSans-70" d="M 1159 525 
L 1159 -1331 
L 581 -1331 
L 581 3500 
L 1159 3500 
L 1159 2969 
Q 1341 3281 1617 3432 
Q 1894 3584 2278 3584 
Q 2916 3584 3314 3078 
Q 3713 2572 3713 1747 
Q 3713 922 3314 415 
Q 2916 -91 2278 -91 
Q 1894 -91 1617 61 
Q 1341 213 1159 525 
z
M 3116 1747 
Q 3116 2381 2855 2742 
Q 2594 3103 2138 3103 
Q 1681 3103 1420 2742 
Q 1159 2381 1159 1747 
Q 1159 1113 1420 752 
Q 1681 391 2138 391 
Q 2594 391 2855 752 
Q 3116 1113 3116 1747 
z
" transform="scale(0.015625)"/>
       <path id="DejaVuSans-78" d="M 3513 3500 
L 2247 1797 
L 3578 0 
L 2900 0 
L 1881 1375 
L 863 0 
L 184 0 
L 1544 1831 
L 300 3500 
L 978 3500 
L 1906 2253 
L 2834 3500 
L 3513 3500 
z
" transform="scale(0.015625)"/>
       <path id="DejaVuSans-6e" d="M 3513 2113 
L 3513 0 
L 2938 0 
L 2938 2094 
Q 2938 2591 2744 2837 
Q 2550 3084 2163 3084 
Q 1697 3084 1428 2787 
Q 1159 2491 1159 1978 
L 1159 0 
L 581 0 
L 581 3500 
L 1159 3500 
L 1159 2956 
Q 1366 3272 1645 3428 
Q 1925 3584 2291 3584 
Q 2894 3584 3203 3211 
Q 3513 2838 3513 2113 
z
" transform="scale(0.015625)"/>
       <path id="DejaVuSans-75" d="M 544 1381 
L 544 3500 
L 1119 3500 
L 1119 1403 
Q 1119 906 1312 657 
Q 1506 409 1894 409 
Q 2359 409 2629 706 
Q 2900 1003 2900 1516 
L 2900 3500 
L 3475 3500 
L 3475 0 
L 2900 0 
L 2900 538 
Q 2691 219 2414 64 
Q 2138 -91 1772 -91 
Q 1169 -91 856 284 
Q 544 659 544 1381 
z
M 1991 3584 
L 1991 3584 
z
" transform="scale(0.015625)"/>
       <path id="DejaVuSans-62" d="M 3116 1747 
Q 3116 2381 2855 2742 
Q 2594 3103 2138 3103 
Q 1681 3103 1420 2742 
Q 1159 2381 1159 1747 
Q 1159 1113 1420 752 
Q 1681 391 2138 391 
Q 2594 391 2855 752 
Q 3116 1113 3116 1747 
z
M 1159 2969 
Q 1341 3281 1617 3432 
Q 1894 3584 2278 3584 
Q 2916 3584 3314 3078 
Q 3713 2572 3713 1747 
Q 3713 922 3314 415 
Q 2916 -91 2278 -91 
Q 1894 -91 1617 61 
Q 1341 213 1159 525 
L 1159 0 
L 581 0 
L 581 4863 
L 1159 4863 
L 1159 2969 
z
" transform="scale(0.015625)"/>
       <path id="DejaVuSans-66" d="M 2375 4863 
L 2375 4384 
L 1825 4384 
Q 1516 4384 1395 4259 
Q 1275 4134 1275 3809 
L 1275 3500 
L 2222 3500 
L 2222 3053 
L 1275 3053 
L 1275 0 
L 697 0 
L 697 3053 
L 147 3053 
L 147 3500 
L 697 3500 
L 697 3744 
Q 697 4328 969 4595 
Q 1241 4863 1831 4863 
L 2375 4863 
z
" transform="scale(0.015625)"/>
       <path id="DejaVuSans-74" d="M 1172 4494 
L 1172 3500 
L 2356 3500 
L 2356 3053 
L 1172 3053 
L 1172 1153 
Q 1172 725 1289 603 
Q 1406 481 1766 481 
L 2356 481 
L 2356 0 
L 1766 0 
Q 1100 0 847 248 
Q 594 497 594 1153 
L 594 3053 
L 172 3053 
L 172 3500 
L 594 3500 
L 594 4494 
L 1172 4494 
z
" transform="scale(0.015625)"/>
       <path id="DejaVuSans-73" d="M 2834 3397 
L 2834 2853 
Q 2591 2978 2328 3040 
Q 2066 3103 1784 3103 
Q 1356 3103 1142 2972 
Q 928 2841 928 2578 
Q 928 2378 1081 2264 
Q 1234 2150 1697 2047 
L 1894 2003 
Q 2506 1872 2764 1633 
Q 3022 1394 3022 966 
Q 3022 478 2636 193 
Q 2250 -91 1575 -91 
Q 1294 -91 989 -36 
Q 684 19 347 128 
L 347 722 
Q 666 556 975 473 
Q 1284 391 1588 391 
Q 1994 391 2212 530 
Q 2431 669 2431 922 
Q 2431 1156 2273 1281 
Q 2116 1406 1581 1522 
L 1381 1569 
Q 847 1681 609 1914 
Q 372 2147 372 2553 
Q 372 3047 722 3315 
Q 1072 3584 1716 3584 
Q 2034 3584 2315 3537 
Q 2597 3491 2834 3397 
z
" transform="scale(0.015625)"/>
       <path id="DejaVuSans-53" d="M 3425 4513 
L 3425 3897 
Q 3066 4069 2747 4153 
Q 2428 4238 2131 4238 
Q 1616 4238 1336 4038 
Q 1056 3838 1056 3469 
Q 1056 3159 1242 3001 
Q 1428 2844 1947 2747 
L 2328 2669 
Q 3034 2534 3370 2195 
Q 3706 1856 3706 1288 
Q 3706 609 3251 259 
Q 2797 -91 1919 -91 
Q 1588 -91 1214 -16 
Q 841 59 441 206 
L 441 856 
Q 825 641 1194 531 
Q 1563 422 1919 422 
Q 2459 422 2753 634 
Q 3047 847 3047 1241 
Q 3047 1584 2836 1778 
Q 2625 1972 2144 2069 
L 1759 2144 
Q 1053 2284 737 2584 
Q 422 2884 422 3419 
Q 422 4038 858 4394 
Q 1294 4750 2059 4750 
Q 2388 4750 2728 4690 
Q 3069 4631 3425 4513 
z
" transform="scale(0.015625)"/>
       <path id="DejaVuSans-4c" d="M 628 4666 
L 1259 4666 
L 1259 531 
L 3531 531 
L 3531 0 
L 628 0 
L 628 4666 
z
" transform="scale(0.015625)"/>
       <path id="DejaVuSans-45" d="M 628 4666 
L 3578 4666 
L 3578 4134 
L 1259 4134 
L 1259 2753 
L 3481 2753 
L 3481 2222 
L 1259 2222 
L 1259 531 
L 3634 531 
L 3634 0 
L 628 0 
L 628 4666 
z
" transform="scale(0.015625)"/>
       <path id="DejaVuSans-50" d="M 1259 4147 
L 1259 2394 
L 2053 2394 
Q 2494 2394 2734 2622 
Q 2975 2850 2975 3272 
Q 2975 3691 2734 3919 
Q 2494 4147 2053 4147 
L 1259 4147 
z
M 628 4666 
L 2053 4666 
Q 2838 4666 3239 4311 
Q 3641 3956 3641 3272 
Q 3641 2581 3239 2228 
Q 2838 1875 2053 1875 
L 1259 1875 
L 1259 0 
L 628 0 
L 628 4666 
z
" transform="scale(0.015625)"/>
       <path id="DejaVuSans-3a" d="M 750 794 
L 1409 794 
L 1409 0 
L 750 0 
L 750 794 
z
M 750 3309 
L 1409 3309 
L 1409 2516 
L 750 2516 
L 750 3309 
z
" transform="scale(0.015625)"/>
       <path id="DejaVuSans-42" d="M 1259 2228 
L 1259 519 
L 2272 519 
Q 2781 519 3026 730 
Q 3272 941 3272 1375 
Q 3272 1813 3026 2020 
Q 2781 2228 2272 2228 
L 1259 2228 
z
M 1259 4147 
L 1259 2741 
L 2194 2741 
Q 2656 2741 2882 2914 
Q 3109 3088 3109 3444 
Q 3109 3797 2882 3972 
Q 2656 4147 2194 4147 
L 1259 4147 
z
M 628 4666 
L 2241 4666 
Q 2963 4666 3353 4366 
Q 3744 4066 3744 3513 
Q 3744 3084 3544 2831 
Q 3344 2578 2956 2516 
Q 3422 2416 3680 2098 
Q 3938 1781 3938 1306 
Q 3938 681 3513 340 
Q 3088 0 2303 0 
L 628 0 
L 628 4666 
z
" transform="scale(0.015625)"/>
       <path id="DejaVuSans-2d" d="M 313 2009 
L 1997 2009 
L 1997 1497 
L 313 1497 
L 313 2009 
z
" transform="scale(0.015625)"/>
      </defs>
      <use xlink:href="#DejaVuSans-4e"/>
      <use xlink:href="#DejaVuSans-6f" transform="translate(74.804688 0)"/>
      <use xlink:href="#DejaVuSans-72" transform="translate(135.986328 0)"/>
      <use xlink:href="#DejaVuSans-6d" transform="translate(175.349609 0)"/>
      <use xlink:href="#DejaVuSans-61" transform="translate(272.761719 0)"/>
      <use xlink:href="#DejaVuSans-6c" transform="translate(334.041016 0)"/>
      <use xlink:href="#DejaVuSans-69" transform="translate(361.824219 0)"/>
      <use xlink:href="#DejaVuSans-7a" transform="translate(389.607422 0)"/>
      <use xlink:href="#DejaVuSans-65" transform="translate(442.097656 0)"/>
      <use xlink:href="#DejaVuSans-64" transform="translate(503.621094 0)"/>
      <use xlink:href="#DejaVuSans-20" transform="translate(567.097656 0)"/>
      <use xlink:href="#DejaVuSans-64" transform="translate(598.884766 0)"/>
      <use xlink:href="#DejaVuSans-70" transform="translate(662.361328 0)"/>
      <use xlink:href="#DejaVuSans-69" transform="translate(725.837891 0)"/>
      <use xlink:href="#DejaVuSans-78" transform="translate(753.621094 0)"/>
      <use xlink:href="#DejaVuSans-5f" transform="translate(812.800781 0)"/>
      <use xlink:href="#DejaVuSans-6e" transform="translate(862.800781 0)"/>
      <use xlink:href="#DejaVuSans-75" transform="translate(926.179688 0)"/>
      <use xlink:href="#DejaVuSans-6d" transform="translate(989.558594 0)"/>
      <use xlink:href="#DejaVuSans-62" transform="translate(1086.970703 0)"/>
      <use xlink:href="#DejaVuSans-65" transform="translate(1150.447266 0)"/>
      <use xlink:href="#DejaVuSans-72" transform="translate(1211.970703 0)"/>
      <use xlink:href="#DejaVuSans-6f" transform="translate(1250.833984 0)"/>
      <use xlink:href="#DejaVuSans-66" transform="translate(1312.015625 0)"/>
      <use xlink:href="#DejaVuSans-62" transform="translate(1347.220703 0)"/>
      <use xlink:href="#DejaVuSans-6f" transform="translate(1410.697266 0)"/>
      <use xlink:href="#DejaVuSans-75" transform="translate(1471.878906 0)"/>
      <use xlink:href="#DejaVuSans-74" transform="translate(1535.257812 0)"/>
      <use xlink:href="#DejaVuSans-73" transform="translate(1574.466797 0)"/>
      <use xlink:href="#DejaVuSans-53" transform="translate(1626.566406 0)"/>
      <use xlink:href="#DejaVuSans-4c" transform="translate(1690.042969 0)"/>
      <use xlink:href="#DejaVuSans-45" transform="translate(1745.755859 0)"/>
      <use xlink:href="#DejaVuSans-45" transform="translate(1808.939453 0)"/>
      <use xlink:href="#DejaVuSans-50" transform="translate(1872.123047 0)"/>
      <use xlink:href="#DejaVuSans-3a" transform="translate(1932.425781 0)"/>
      <use xlink:href="#DejaVuSans-20" transform="translate(1966.117188 0)"/>
      <use xlink:href="#DejaVuSans-42" transform="translate(1997.904297 0)"/>
      <use xlink:href="#DejaVuSans-69" transform="translate(2066.507812 0)"/>
      <use xlink:href="#DejaVuSans-6e" transform="translate(2094.291016 0)"/>
      <use xlink:href="#DejaVuSans-6e" transform="translate(2157.669922 0)"/>
      <use xlink:href="#DejaVuSans-65" transform="translate(2221.048828 0)"/>
      <use xlink:href="#DejaVuSans-64" transform="translate(2282.572266 0)"/>
      <use xlink:href="#DejaVuSans-20" transform="translate(2346.048828 0)"/>
      <use xlink:href="#DejaVuSans-2d" transform="translate(2377.835938 0)"/>
      <use xlink:href="#DejaVuSans-20" transform="translate(2413.919922 0)"/>
      <use xlink:href="#DejaVuSans-33" transform="translate(2445.707031 0)"/>
      <use xlink:href="#DejaVuSans-36" transform="translate(2509.330078 0)"/>
      <use xlink:href="#DejaVuSans-30" transform="translate(2572.953125 0)"/>
      <use xlink:href="#DejaVuSans-30" transform="translate(2636.576172 0)"/>
     </g>
    </g>
   </g>
   <g id="line2d_12">
    <path d="M 125.642861 183.998001 
L 151.581132 183.998001 
M 138.611997 183.998001 
L 138.611997 170.304766 
M 125.642861 170.304766 
L 151.581132 170.304766 
" clip-path="url(#pf1b13b5dac)" style="fill: none; stroke: #000000; stroke-width: 2; stroke-linecap: square"/>
   </g>
   <g id="line2d_13">
    <path d="M 385.025572 188.432682 
L 410.963843 188.432682 
M 397.994708 188.432682 
L 397.994708 165.870084 
M 385.025572 165.870084 
L 410.963843 165.870084 
" clip-path="url(#pf1b13b5dac)" style="fill: none; stroke: #000000; stroke-width: 2; stroke-linecap: square"/>
   </g>
   <g id="line2d_14">
    <path d="M 644.408283 187.329943 
L 670.346554 187.329943 
M 657.377419 187.329943 
L 657.377419 166.972824 
M 644.408283 166.972824 
L 670.346554 166.972824 
" clip-path="url(#pf1b13b5dac)" style="fill: none; stroke: #000000; stroke-width: 2; stroke-linecap: square"/>
   </g>
   <g id="line2d_15">
    <path d="M 229.395946 167.827191 
L 255.334217 167.827191 
M 242.365081 167.827191 
L 242.365081 149.973467 
M 229.395946 149.973467 
L 255.334217 149.973467 
" clip-path="url(#pf1b13b5dac)" style="fill: none; stroke: #ff0000; stroke-width: 2; stroke-linecap: square"/>
   </g>
   <g id="line2d_16">
    <path d="M 488.778657 208.993242 
L 514.716928 208.993242 
M 501.747792 208.993242 
L 501.747792 159.482685 
M 488.778657 159.482685 
L 514.716928 159.482685 
" clip-path="url(#pf1b13b5dac)" style="fill: none; stroke: #ff0000; stroke-width: 2; stroke-linecap: square"/>
   </g>
   <g id="line2d_17">
    <path d="M 748.161368 244.386312 
L 774.099639 244.386312 
M 761.130503 244.386312 
L 761.130503 211.614487 
M 748.161368 211.614487 
L 774.099639 211.614487 
" clip-path="url(#pf1b13b5dac)" style="fill: none; stroke: #ff0000; stroke-width: 2; stroke-linecap: square"/>
   </g>
   <g id="line2d_18">
    <path d="M 657.377419 28.236468 
L 657.377419 24.408095 
L 761.130503 24.408095 
L 761.130503 28.236468 
" clip-path="url(#pf1b13b5dac)" style="fill: none; stroke: #000000; stroke-width: 1.5; stroke-linecap: square"/>
   </g>
   <g id="patch_9">
    <path d="M 50.421875 368.57 
L 50.421875 33.587421 
" style="fill: none; stroke: #000000; stroke-width: 0.8; stroke-linejoin: miter; stroke-linecap: square"/>
   </g>
   <g id="patch_10">
    <path d="M 190.488539 368.57 
L 709.253961 368.57 
" style="fill: none; stroke: #000000; stroke-width: 0.8; stroke-linejoin: miter; stroke-linecap: square"/>
   </g>
   <g id="PathCollection_1">
    <defs>
     <path id="C0_0_8bab782adf" d="M 0 2.5 
C 0.663008 2.5 1.29895 2.236584 1.767767 1.767767 
C 2.236584 1.29895 2.5 0.663008 2.5 -0 
C 2.5 -0.663008 2.236584 -1.29895 1.767767 -1.767767 
C 1.29895 -2.236584 0.663008 -2.5 0 -2.5 
C -0.663008 -2.5 -1.29895 -2.236584 -1.767767 -1.767767 
C -2.236584 -1.29895 -2.5 -0.663008 -2.5 0 
C -2.5 0.663008 -2.236584 1.29895 -1.767767 1.767767 
C -1.29895 2.236584 -0.663008 2.5 0 2.5 
z
"/>
    </defs>
    <g clip-path="url(#pf1b13b5dac)">
     <use xlink:href="#C0_0_8bab782adf" x="129.936249" y="173.365842" style="fill-opacity: 0.3"/>
    </g>
    <g clip-path="url(#pf1b13b5dac)">
     <use xlink:href="#C0_0_8bab782adf" x="134.994088" y="221.489089" style="fill-opacity: 0.3"/>
    </g>
    <g clip-path="url(#pf1b13b5dac)">
     <use xlink:href="#C0_0_8bab782adf" x="134.398611" y="148.626426" style="fill-opacity: 0.3"/>
    </g>
    <g clip-path="url(#pf1b13b5dac)">
     <use xlink:href="#C0_0_8bab782adf" x="137.813697" y="126.598179" style="fill-opacity: 0.3"/>
    </g>
    <g clip-path="url(#pf1b13b5dac)">
     <use xlink:href="#C0_0_8bab782adf" x="150.746493" y="105.58662" style="fill-opacity: 0.3"/>
    </g>
    <g clip-path="url(#pf1b13b5dac)">
     <use xlink:href="#C0_0_8bab782adf" x="149.132252" y="177.093699" style="fill-opacity: 0.3"/>
    </g>
    <g clip-path="url(#pf1b13b5dac)">
     <use xlink:href="#C0_0_8bab782adf" x="149.612951" y="264.189999" style="fill-opacity: 0.3"/>
    </g>
    <g clip-path="url(#pf1b13b5dac)">
     <use xlink:href="#C0_0_8bab782adf" x="129.415951" y="142.526296" style="fill-opacity: 0.3"/>
    </g>
    <g clip-path="url(#pf1b13b5dac)">
     <use xlink:href="#C0_0_8bab782adf" x="139.099846" y="199.799738" style="fill-opacity: 0.3"/>
    </g>
    <g clip-path="url(#pf1b13b5dac)">
     <use xlink:href="#C0_0_8bab782adf" x="142.606572" y="185.566102" style="fill-opacity: 0.3"/>
    </g>
    <g clip-path="url(#pf1b13b5dac)">
     <use xlink:href="#C0_0_8bab782adf" x="136.472675" y="180.48266" style="fill-opacity: 0.3"/>
    </g>
    <g clip-path="url(#pf1b13b5dac)">
     <use xlink:href="#C0_0_8bab782adf" x="141.614683" y="150.659802" style="fill-opacity: 0.3"/>
    </g>
    <g clip-path="url(#pf1b13b5dac)">
     <use xlink:href="#C0_0_8bab782adf" x="126.414909" y="194.038504" style="fill-opacity: 0.3"/>
    </g>
    <g clip-path="url(#pf1b13b5dac)">
     <use xlink:href="#C0_0_8bab782adf" x="142.738054" y="168.2824" style="fill-opacity: 0.3"/>
    </g>
    <g clip-path="url(#pf1b13b5dac)">
     <use xlink:href="#C0_0_8bab782adf" x="135.457392" y="168.2824" style="fill-opacity: 0.3"/>
    </g>
    <g clip-path="url(#pf1b13b5dac)">
     <use xlink:href="#C0_0_8bab782adf" x="146.527581" y="159.132205" style="fill-opacity: 0.3"/>
    </g>
    <g clip-path="url(#pf1b13b5dac)">
     <use xlink:href="#C0_0_8bab782adf" x="141.762141" y="225.216946" style="fill-opacity: 0.3"/>
    </g>
    <g clip-path="url(#pf1b13b5dac)">
     <use xlink:href="#C0_0_8bab782adf" x="139.985455" y="214.033375" style="fill-opacity: 0.3"/>
    </g>
    <g clip-path="url(#pf1b13b5dac)">
     <use xlink:href="#C0_0_8bab782adf" x="147.170272" y="134.392789" style="fill-opacity: 0.3"/>
    </g>
    <g clip-path="url(#pf1b13b5dac)">
     <use xlink:href="#C0_0_8bab782adf" x="142.529799" y="217.422336" style="fill-opacity: 0.3"/>
    </g>
    <g clip-path="url(#pf1b13b5dac)">
     <use xlink:href="#C0_0_8bab782adf" x="146.09561" y="203.866491" style="fill-opacity: 0.3"/>
    </g>
    <g clip-path="url(#pf1b13b5dac)">
     <use xlink:href="#C0_0_8bab782adf" x="149.029857" y="111.68675" style="fill-opacity: 0.3"/>
    </g>
    <g clip-path="url(#pf1b13b5dac)">
     <use xlink:href="#C0_0_8bab782adf" x="136.93274" y="118.125776" style="fill-opacity: 0.3"/>
    </g>
    <g clip-path="url(#pf1b13b5dac)">
     <use xlink:href="#C0_0_8bab782adf" x="139.990876" y="192.68292" style="fill-opacity: 0.3"/>
    </g>
    <g clip-path="url(#pf1b13b5dac)">
     <use xlink:href="#C0_0_8bab782adf" x="151.246271" y="37.807398" style="fill-opacity: 0.3"/>
    </g>
    <g clip-path="url(#pf1b13b5dac)">
     <use xlink:href="#C0_0_8bab782adf" x="139.587634" y="167.943504" style="fill-opacity: 0.3"/>
    </g>
    <g clip-path="url(#pf1b13b5dac)">
     <use xlink:href="#C0_0_8bab782adf" x="128.647154" y="222.505777" style="fill-opacity: 0.3"/>
    </g>
    <g clip-path="url(#pf1b13b5dac)">
     <use xlink:href="#C0_0_8bab782adf" x="131.934019" y="244.534024" style="fill-opacity: 0.3"/>
    </g>
    <g clip-path="url(#pf1b13b5dac)">
     <use xlink:href="#C0_0_8bab782adf" x="130.277086" y="245.211817" style="fill-opacity: 0.3"/>
    </g>
    <g clip-path="url(#pf1b13b5dac)">
     <use xlink:href="#C0_0_8bab782adf" x="144.378448" y="214.711167" style="fill-opacity: 0.3"/>
    </g>
    <g clip-path="url(#pf1b13b5dac)">
     <use xlink:href="#C0_0_8bab782adf" x="150.492268" y="230.639284" style="fill-opacity: 0.3"/>
    </g>
    <g clip-path="url(#pf1b13b5dac)">
     <use xlink:href="#C0_0_8bab782adf" x="141.882721" y="133.376101" style="fill-opacity: 0.3"/>
    </g>
    <g clip-path="url(#pf1b13b5dac)">
     <use xlink:href="#C0_0_8bab782adf" x="129.252603" y="194.716296" style="fill-opacity: 0.3"/>
    </g>
    <g clip-path="url(#pf1b13b5dac)">
     <use xlink:href="#C0_0_8bab782adf" x="132.433123" y="159.132205" style="fill-opacity: 0.3"/>
    </g>
    <g clip-path="url(#pf1b13b5dac)">
     <use xlink:href="#C0_0_8bab782adf" x="144.326545" y="269.612336" style="fill-opacity: 0.3"/>
    </g>
    <g clip-path="url(#pf1b13b5dac)">
     <use xlink:href="#C0_0_8bab782adf" x="134.408475" y="215.388959" style="fill-opacity: 0.3"/>
    </g>
    <g clip-path="url(#pf1b13b5dac)">
     <use xlink:href="#C0_0_8bab782adf" x="147.377292" y="159.132205" style="fill-opacity: 0.3"/>
    </g>
    <g clip-path="url(#pf1b13b5dac)">
     <use xlink:href="#C0_0_8bab782adf" x="139.818681" y="160.148893" style="fill-opacity: 0.3"/>
    </g>
    <g clip-path="url(#pf1b13b5dac)">
     <use xlink:href="#C0_0_8bab782adf" x="140.906367" y="150.998699" style="fill-opacity: 0.3"/>
    </g>
    <g clip-path="url(#pf1b13b5dac)">
     <use xlink:href="#C0_0_8bab782adf" x="128.890302" y="223.18357" style="fill-opacity: 0.3"/>
    </g>
    <g clip-path="url(#pf1b13b5dac)">
     <use xlink:href="#C0_0_8bab782adf" x="128.011946" y="140.831815" style="fill-opacity: 0.3"/>
    </g>
    <g clip-path="url(#pf1b13b5dac)">
     <use xlink:href="#C0_0_8bab782adf" x="146.517203" y="157.437725" style="fill-opacity: 0.3"/>
    </g>
    <g clip-path="url(#pf1b13b5dac)">
     <use xlink:href="#C0_0_8bab782adf" x="146.680639" y="80.169412" style="fill-opacity: 0.3"/>
    </g>
    <g clip-path="url(#pf1b13b5dac)">
     <use xlink:href="#C0_0_8bab782adf" x="148.668996" y="215.050063" style="fill-opacity: 0.3"/>
    </g>
    <g clip-path="url(#pf1b13b5dac)">
     <use xlink:href="#C0_0_8bab782adf" x="140.342481" y="173.026946" style="fill-opacity: 0.3"/>
    </g>
    <g clip-path="url(#pf1b13b5dac)">
     <use xlink:href="#C0_0_8bab782adf" x="148.074072" y="191.327335" style="fill-opacity: 0.3"/>
    </g>
    <g clip-path="url(#pf1b13b5dac)">
     <use xlink:href="#C0_0_8bab782adf" x="133.693276" y="156.08214" style="fill-opacity: 0.3"/>
    </g>
   </g>
   <g id="PathCollection_2">
    <defs>
     <path id="C1_0_2635391408" d="M 0 2.5 
C 0.663008 2.5 1.29895 2.236584 1.767767 1.767767 
C 2.236584 1.29895 2.5 0.663008 2.5 -0 
C 2.5 -0.663008 2.236584 -1.29895 1.767767 -1.767767 
C 1.29895 -2.236584 0.663008 -2.5 0 -2.5 
C -0.663008 -2.5 -1.29895 -2.236584 -1.767767 -1.767767 
C -2.236584 -1.29895 -2.5 -0.663008 -2.5 0 
C -2.5 0.663008 -2.236584 1.29895 -1.767767 1.767767 
C -1.29895 2.236584 -0.663008 2.5 0 2.5 
z
"/>
    </defs>
    <g clip-path="url(#pf1b13b5dac)">
     <use xlink:href="#C1_0_2635391408" x="253.669408" y="219.794609" style="fill: #ff0000; fill-opacity: 0.3"/>
    </g>
    <g clip-path="url(#pf1b13b5dac)">
     <use xlink:href="#C1_0_2635391408" x="248.591944" y="112.364542" style="fill: #ff0000; fill-opacity: 0.3"/>
    </g>
    <g clip-path="url(#pf1b13b5dac)">
     <use xlink:href="#C1_0_2635391408" x="250.053075" y="134.053893" style="fill: #ff0000; fill-opacity: 0.3"/>
    </g>
    <g clip-path="url(#pf1b13b5dac)">
     <use xlink:href="#C1_0_2635391408" x="245.027308" y="168.960192" style="fill: #ff0000; fill-opacity: 0.3"/>
    </g>
    <g clip-path="url(#pf1b13b5dac)">
     <use xlink:href="#C1_0_2635391408" x="229.714186" y="148.965322" style="fill: #ff0000; fill-opacity: 0.3"/>
    </g>
    <g clip-path="url(#pf1b13b5dac)">
     <use xlink:href="#C1_0_2635391408" x="232.899796" y="129.98714" style="fill: #ff0000; fill-opacity: 0.3"/>
    </g>
    <g clip-path="url(#pf1b13b5dac)">
     <use xlink:href="#C1_0_2635391408" x="248.94612" y="105.925516" style="fill: #ff0000; fill-opacity: 0.3"/>
    </g>
    <g clip-path="url(#pf1b13b5dac)">
     <use xlink:href="#C1_0_2635391408" x="234.339846" y="135.409478" style="fill: #ff0000; fill-opacity: 0.3"/>
    </g>
    <g clip-path="url(#pf1b13b5dac)">
     <use xlink:href="#C1_0_2635391408" x="246.977842" y="117.78688" style="fill: #ff0000; fill-opacity: 0.3"/>
    </g>
    <g clip-path="url(#pf1b13b5dac)">
     <use xlink:href="#C1_0_2635391408" x="254.836741" y="199.121946" style="fill: #ff0000; fill-opacity: 0.3"/>
    </g>
    <g clip-path="url(#pf1b13b5dac)">
     <use xlink:href="#C1_0_2635391408" x="252.101718" y="166.58792" style="fill: #ff0000; fill-opacity: 0.3"/>
    </g>
    <g clip-path="url(#pf1b13b5dac)">
     <use xlink:href="#C1_0_2635391408" x="247.582521" y="175.060322" style="fill: #ff0000; fill-opacity: 0.3"/>
    </g>
    <g clip-path="url(#pf1b13b5dac)">
     <use xlink:href="#C1_0_2635391408" x="239.590806" y="100.503178" style="fill: #ff0000; fill-opacity: 0.3"/>
    </g>
    <g clip-path="url(#pf1b13b5dac)">
     <use xlink:href="#C1_0_2635391408" x="245.364871" y="216.405647" style="fill: #ff0000; fill-opacity: 0.3"/>
    </g>
    <g clip-path="url(#pf1b13b5dac)">
     <use xlink:href="#C1_0_2635391408" x="233.030258" y="169.637984" style="fill: #ff0000; fill-opacity: 0.3"/>
    </g>
    <g clip-path="url(#pf1b13b5dac)">
     <use xlink:href="#C1_0_2635391408" x="250.756445" y="166.249023" style="fill: #ff0000; fill-opacity: 0.3"/>
    </g>
    <g clip-path="url(#pf1b13b5dac)">
     <use xlink:href="#C1_0_2635391408" x="254.681228" y="159.809997" style="fill: #ff0000; fill-opacity: 0.3"/>
    </g>
    <g clip-path="url(#pf1b13b5dac)">
     <use xlink:href="#C1_0_2635391408" x="255.317426" y="235.383829" style="fill: #ff0000; fill-opacity: 0.3"/>
    </g>
    <g clip-path="url(#pf1b13b5dac)">
     <use xlink:href="#C1_0_2635391408" x="254.048817" y="157.098828" style="fill: #ff0000; fill-opacity: 0.3"/>
    </g>
   </g>
   <g id="PathCollection_3">
    <defs>
     <path id="C2_0_36406531bd" d="M 0 2.5 
C 0.663008 2.5 1.29895 2.236584 1.767767 1.767767 
C 2.236584 1.29895 2.5 0.663008 2.5 -0 
C 2.5 -0.663008 2.236584 -1.29895 1.767767 -1.767767 
C 1.29895 -2.236584 0.663008 -2.5 0 -2.5 
C -0.663008 -2.5 -1.29895 -2.236584 -1.767767 -1.767767 
C -2.236584 -1.29895 -2.5 -0.663008 -2.5 0 
C -2.5 0.663008 -2.236584 1.29895 -1.767767 1.767767 
C -1.29895 2.236584 -0.663008 2.5 0 2.5 
z
"/>
    </defs>
    <g clip-path="url(#pf1b13b5dac)">
     <use xlink:href="#C2_0_36406531bd" x="399.602495" y="260.13939" style="fill-opacity: 0.3"/>
    </g>
    <g clip-path="url(#pf1b13b5dac)">
     <use xlink:href="#C2_0_36406531bd" x="406.097814" y="183.444569" style="fill-opacity: 0.3"/>
    </g>
    <g clip-path="url(#pf1b13b5dac)">
     <use xlink:href="#C2_0_36406531bd" x="385.625399" y="123.373255" style="fill-opacity: 0.3"/>
    </g>
    <g clip-path="url(#pf1b13b5dac)">
     <use xlink:href="#C2_0_36406531bd" x="409.347726" y="170.221323" style="fill-opacity: 0.3"/>
    </g>
    <g clip-path="url(#pf1b13b5dac)">
     <use xlink:href="#C2_0_36406531bd" x="387.239881" y="218.202813" style="fill-opacity: 0.3"/>
    </g>
    <g clip-path="url(#pf1b13b5dac)">
     <use xlink:href="#C2_0_36406531bd" x="391.961958" y="177.399656" style="fill-opacity: 0.3"/>
    </g>
    <g clip-path="url(#pf1b13b5dac)">
     <use xlink:href="#C2_0_36406531bd" x="394.887726" y="130.929395" style="fill-opacity: 0.3"/>
    </g>
    <g clip-path="url(#pf1b13b5dac)">
     <use xlink:href="#C2_0_36406531bd" x="390.185629" y="147.552903" style="fill-opacity: 0.3"/>
    </g>
    <g clip-path="url(#pf1b13b5dac)">
     <use xlink:href="#C2_0_36406531bd" x="393.916726" y="175.510621" style="fill-opacity: 0.3"/>
    </g>
    <g clip-path="url(#pf1b13b5dac)">
     <use xlink:href="#C2_0_36406531bd" x="405.861184" y="219.714041" style="fill-opacity: 0.3"/>
    </g>
    <g clip-path="url(#pf1b13b5dac)">
     <use xlink:href="#C2_0_36406531bd" x="409.917747" y="63.679749" style="fill-opacity: 0.3"/>
    </g>
    <g clip-path="url(#pf1b13b5dac)">
     <use xlink:href="#C2_0_36406531bd" x="388.847824" y="212.535708" style="fill-opacity: 0.3"/>
    </g>
    <g clip-path="url(#pf1b13b5dac)">
     <use xlink:href="#C2_0_36406531bd" x="399.916909" y="198.179042" style="fill-opacity: 0.3"/>
    </g>
    <g clip-path="url(#pf1b13b5dac)">
     <use xlink:href="#C2_0_36406531bd" x="394.057549" y="124.884483" style="fill-opacity: 0.3"/>
    </g>
    <g clip-path="url(#pf1b13b5dac)">
     <use xlink:href="#C2_0_36406531bd" x="400.876825" y="221.980883" style="fill-opacity: 0.3"/>
    </g>
    <g clip-path="url(#pf1b13b5dac)">
     <use xlink:href="#C2_0_36406531bd" x="400.394414" y="75.391766" style="fill-opacity: 0.3"/>
    </g>
    <g clip-path="url(#pf1b13b5dac)">
     <use xlink:href="#C2_0_36406531bd" x="404.468314" y="224.247725" style="fill-opacity: 0.3"/>
    </g>
    <g clip-path="url(#pf1b13b5dac)">
     <use xlink:href="#C2_0_36406531bd" x="404.99015" y="123.751062" style="fill-opacity: 0.3"/>
    </g>
    <g clip-path="url(#pf1b13b5dac)">
     <use xlink:href="#C2_0_36406531bd" x="391.951345" y="178.15527" style="fill-opacity: 0.3"/>
    </g>
    <g clip-path="url(#pf1b13b5dac)">
     <use xlink:href="#C2_0_36406531bd" x="386.773822" y="314.543599" style="fill-opacity: 0.3"/>
    </g>
    <g clip-path="url(#pf1b13b5dac)">
     <use xlink:href="#C2_0_36406531bd" x="400.507703" y="246.538338" style="fill-opacity: 0.3"/>
    </g>
    <g clip-path="url(#pf1b13b5dac)">
     <use xlink:href="#C2_0_36406531bd" x="395.592528" y="181.933341" style="fill-opacity: 0.3"/>
    </g>
    <g clip-path="url(#pf1b13b5dac)">
     <use xlink:href="#C2_0_36406531bd" x="387.307922" y="233.6929" style="fill-opacity: 0.3"/>
    </g>
    <g clip-path="url(#pf1b13b5dac)">
     <use xlink:href="#C2_0_36406531bd" x="389.199251" y="86.348169" style="fill-opacity: 0.3"/>
    </g>
    <g clip-path="url(#pf1b13b5dac)">
     <use xlink:href="#C2_0_36406531bd" x="400.399171" y="92.770888" style="fill-opacity: 0.3"/>
    </g>
    <g clip-path="url(#pf1b13b5dac)">
     <use xlink:href="#C2_0_36406531bd" x="390.627884" y="128.284746" style="fill-opacity: 0.3"/>
    </g>
    <g clip-path="url(#pf1b13b5dac)">
     <use xlink:href="#C2_0_36406531bd" x="408.296994" y="123.751062" style="fill-opacity: 0.3"/>
    </g>
    <g clip-path="url(#pf1b13b5dac)">
     <use xlink:href="#C2_0_36406531bd" x="409.90026" y="88.237204" style="fill-opacity: 0.3"/>
    </g>
    <g clip-path="url(#pf1b13b5dac)">
     <use xlink:href="#C2_0_36406531bd" x="400.924004" y="91.637467" style="fill-opacity: 0.3"/>
    </g>
    <g clip-path="url(#pf1b13b5dac)">
     <use xlink:href="#C2_0_36406531bd" x="402.282479" y="150.575359" style="fill-opacity: 0.3"/>
    </g>
    <g clip-path="url(#pf1b13b5dac)">
     <use xlink:href="#C2_0_36406531bd" x="397.576518" y="181.555534" style="fill-opacity: 0.3"/>
    </g>
    <g clip-path="url(#pf1b13b5dac)">
     <use xlink:href="#C2_0_36406531bd" x="389.988168" y="322.477546" style="fill-opacity: 0.3"/>
    </g>
    <g clip-path="url(#pf1b13b5dac)">
     <use xlink:href="#C2_0_36406531bd" x="400.484928" y="285.074652" style="fill-opacity: 0.3"/>
    </g>
    <g clip-path="url(#pf1b13b5dac)">
     <use xlink:href="#C2_0_36406531bd" x="403.677204" y="229.537023" style="fill-opacity: 0.3"/>
    </g>
    <g clip-path="url(#pf1b13b5dac)">
     <use xlink:href="#C2_0_36406531bd" x="399.643181" y="214.046936" style="fill-opacity: 0.3"/>
    </g>
   </g>
   <g id="PathCollection_4">
    <defs>
     <path id="C3_0_004b93d1d8" d="M 0 2.5 
C 0.663008 2.5 1.29895 2.236584 1.767767 1.767767 
C 2.236584 1.29895 2.5 0.663008 2.5 -0 
C 2.5 -0.663008 2.236584 -1.29895 1.767767 -1.767767 
C 1.29895 -2.236584 0.663008 -2.5 0 -2.5 
C -0.663008 -2.5 -1.29895 -2.236584 -1.767767 -1.767767 
C -2.236584 -1.29895 -2.5 -0.663008 -2.5 0 
C -2.5 0.663008 -2.236584 1.29895 -1.767767 1.767767 
C -1.29895 2.236584 -0.663008 2.5 0 2.5 
z
"/>
    </defs>
    <g clip-path="url(#pf1b13b5dac)">
     <use xlink:href="#C3_0_004b93d1d8" x="509.41768" y="315.299213" style="fill: #ff0000; fill-opacity: 0.3"/>
    </g>
    <g clip-path="url(#pf1b13b5dac)">
     <use xlink:href="#C3_0_004b93d1d8" x="494.697849" y="178.533077" style="fill: #ff0000; fill-opacity: 0.3"/>
    </g>
    <g clip-path="url(#pf1b13b5dac)">
     <use xlink:href="#C3_0_004b93d1d8" x="506.172495" y="186.467025" style="fill: #ff0000; fill-opacity: 0.3"/>
    </g>
    <g clip-path="url(#pf1b13b5dac)">
     <use xlink:href="#C3_0_004b93d1d8" x="503.802956" y="162.287376" style="fill: #ff0000; fill-opacity: 0.3"/>
    </g>
    <g clip-path="url(#pf1b13b5dac)">
     <use xlink:href="#C3_0_004b93d1d8" x="505.963968" y="325.122195" style="fill: #ff0000; fill-opacity: 0.3"/>
    </g>
    <g clip-path="url(#pf1b13b5dac)">
     <use xlink:href="#C3_0_004b93d1d8" x="512.632482" y="178.910885" style="fill: #ff0000; fill-opacity: 0.3"/>
    </g>
    <g clip-path="url(#pf1b13b5dac)">
     <use xlink:href="#C3_0_004b93d1d8" x="493.984351" y="101.838256" style="fill: #ff0000; fill-opacity: 0.3"/>
    </g>
    <g clip-path="url(#pf1b13b5dac)">
     <use xlink:href="#C3_0_004b93d1d8" x="507.944932" y="147.552903" style="fill: #ff0000; fill-opacity: 0.3"/>
    </g>
    <g clip-path="url(#pf1b13b5dac)">
     <use xlink:href="#C3_0_004b93d1d8" x="511.272444" y="91.637467" style="fill: #ff0000; fill-opacity: 0.3"/>
    </g>
    <g clip-path="url(#pf1b13b5dac)">
     <use xlink:href="#C3_0_004b93d1d8" x="504.555965" y="154.731236" style="fill: #ff0000; fill-opacity: 0.3"/>
    </g>
   </g>
   <g id="PathCollection_5">
    <defs>
     <path id="C4_0_43d71e4302" d="M 0 2.5 
C 0.663008 2.5 1.29895 2.236584 1.767767 1.767767 
C 2.236584 1.29895 2.5 0.663008 2.5 -0 
C 2.5 -0.663008 2.236584 -1.29895 1.767767 -1.767767 
C 1.29895 -2.236584 0.663008 -2.5 0 -2.5 
C -0.663008 -2.5 -1.29895 -2.236584 -1.767767 -1.767767 
C -2.236584 -1.29895 -2.5 -0.663008 -2.5 0 
C -2.5 0.663008 -2.236584 1.29895 -1.767767 1.767767 
C -1.29895 2.236584 -0.663008 2.5 0 2.5 
z
"/>
    </defs>
    <g clip-path="url(#pf1b13b5dac)">
     <use xlink:href="#C4_0_43d71e4302" x="644.930843" y="270.54471" style="fill-opacity: 0.3"/>
    </g>
    <g clip-path="url(#pf1b13b5dac)">
     <use xlink:href="#C4_0_43d71e4302" x="665.834142" y="209.328916" style="fill-opacity: 0.3"/>
    </g>
    <g clip-path="url(#pf1b13b5dac)">
     <use xlink:href="#C4_0_43d71e4302" x="650.255338" y="141.711471" style="fill-opacity: 0.3"/>
    </g>
    <g clip-path="url(#pf1b13b5dac)">
     <use xlink:href="#C4_0_43d71e4302" x="646.90171" y="191.324271" style="fill-opacity: 0.3"/>
    </g>
    <g clip-path="url(#pf1b13b5dac)">
     <use xlink:href="#C4_0_43d71e4302" x="663.790524" y="189.323755" style="fill-opacity: 0.3"/>
    </g>
    <g clip-path="url(#pf1b13b5dac)">
     <use xlink:href="#C4_0_43d71e4302" x="658.022054" y="162.916942" style="fill-opacity: 0.3"/>
    </g>
    <g clip-path="url(#pf1b13b5dac)">
     <use xlink:href="#C4_0_43d71e4302" x="651.402182" y="275.746051" style="fill-opacity: 0.3"/>
    </g>
    <g clip-path="url(#pf1b13b5dac)">
     <use xlink:href="#C4_0_43d71e4302" x="648.278539" y="170.1188" style="fill-opacity: 0.3"/>
    </g>
    <g clip-path="url(#pf1b13b5dac)">
     <use xlink:href="#C4_0_43d71e4302" x="668.688835" y="206.928297" style="fill-opacity: 0.3"/>
    </g>
    <g clip-path="url(#pf1b13b5dac)">
     <use xlink:href="#C4_0_43d71e4302" x="648.144248" y="148.113122" style="fill-opacity: 0.3"/>
    </g>
    <g clip-path="url(#pf1b13b5dac)">
     <use xlink:href="#C4_0_43d71e4302" x="659.502947" y="147.713019" style="fill-opacity: 0.3"/>
    </g>
    <g clip-path="url(#pf1b13b5dac)">
     <use xlink:href="#C4_0_43d71e4302" x="652.464618" y="246.938619" style="fill-opacity: 0.3"/>
    </g>
    <g clip-path="url(#pf1b13b5dac)">
     <use xlink:href="#C4_0_43d71e4302" x="651.445536" y="123.306722" style="fill-opacity: 0.3"/>
    </g>
    <g clip-path="url(#pf1b13b5dac)">
     <use xlink:href="#C4_0_43d71e4302" x="659.80925" y="198.926232" style="fill-opacity: 0.3"/>
    </g>
    <g clip-path="url(#pf1b13b5dac)">
     <use xlink:href="#C4_0_43d71e4302" x="667.214069" y="190.123961" style="fill-opacity: 0.3"/>
    </g>
    <g clip-path="url(#pf1b13b5dac)">
     <use xlink:href="#C4_0_43d71e4302" x="669.170663" y="172.919522" style="fill-opacity: 0.3"/>
    </g>
    <g clip-path="url(#pf1b13b5dac)">
     <use xlink:href="#C4_0_43d71e4302" x="654.934999" y="192.52458" style="fill-opacity: 0.3"/>
    </g>
    <g clip-path="url(#pf1b13b5dac)">
     <use xlink:href="#C4_0_43d71e4302" x="649.493749" y="160.516322" style="fill-opacity: 0.3"/>
    </g>
    <g clip-path="url(#pf1b13b5dac)">
     <use xlink:href="#C4_0_43d71e4302" x="645.02231" y="172.119316" style="fill-opacity: 0.3"/>
    </g>
    <g clip-path="url(#pf1b13b5dac)">
     <use xlink:href="#C4_0_43d71e4302" x="648.432991" y="85.697019" style="fill-opacity: 0.3"/>
    </g>
    <g clip-path="url(#pf1b13b5dac)">
     <use xlink:href="#C4_0_43d71e4302" x="665.447184" y="54.088864" style="fill-opacity: 0.3"/>
    </g>
    <g clip-path="url(#pf1b13b5dac)">
     <use xlink:href="#C4_0_43d71e4302" x="647.59814" y="142.91178" style="fill-opacity: 0.3"/>
    </g>
    <g clip-path="url(#pf1b13b5dac)">
     <use xlink:href="#C4_0_43d71e4302" x="667.555298" y="214.530258" style="fill-opacity: 0.3"/>
    </g>
    <g clip-path="url(#pf1b13b5dac)">
     <use xlink:href="#C4_0_43d71e4302" x="656.344929" y="152.114154" style="fill-opacity: 0.3"/>
    </g>
    <g clip-path="url(#pf1b13b5dac)">
     <use xlink:href="#C4_0_43d71e4302" x="656.110827" y="252.940168" style="fill-opacity: 0.3"/>
    </g>
    <g clip-path="url(#pf1b13b5dac)">
     <use xlink:href="#C4_0_43d71e4302" x="653.33654" y="132.509096" style="fill-opacity: 0.3"/>
    </g>
   </g>
   <g id="PathCollection_6">
    <defs>
     <path id="C5_0_9f232f7a92" d="M 0 2.5 
C 0.663008 2.5 1.29895 2.236584 1.767767 1.767767 
C 2.236584 1.29895 2.5 0.663008 2.5 -0 
C 2.5 -0.663008 2.236584 -1.29895 1.767767 -1.767767 
C 1.29895 -2.236584 0.663008 -2.5 0 -2.5 
C -0.663008 -2.5 -1.29895 -2.236584 -1.767767 -1.767767 
C -2.236584 -1.29895 -2.5 -0.663008 -2.5 0 
C -2.5 0.663008 -2.236584 1.29895 -1.767767 1.767767 
C -1.29895 2.236584 -0.663008 2.5 0 2.5 
z
"/>
    </defs>
    <g clip-path="url(#pf1b13b5dac)">
     <use xlink:href="#C5_0_9f232f7a92" x="764.381847" y="160.516322" style="fill: #ff0000; fill-opacity: 0.3"/>
    </g>
    <g clip-path="url(#pf1b13b5dac)">
     <use xlink:href="#C5_0_9f232f7a92" x="764.050023" y="207.728503" style="fill: #ff0000; fill-opacity: 0.3"/>
    </g>
    <g clip-path="url(#pf1b13b5dac)">
     <use xlink:href="#C5_0_9f232f7a92" x="761.464076" y="368.57" style="fill: #ff0000; fill-opacity: 0.3"/>
    </g>
    <g clip-path="url(#pf1b13b5dac)">
     <use xlink:href="#C5_0_9f232f7a92" x="773.200109" y="201.726955" style="fill: #ff0000; fill-opacity: 0.3"/>
    </g>
    <g clip-path="url(#pf1b13b5dac)">
     <use xlink:href="#C5_0_9f232f7a92" x="768.441302" y="275.345948" style="fill: #ff0000; fill-opacity: 0.3"/>
    </g>
    <g clip-path="url(#pf1b13b5dac)">
     <use xlink:href="#C5_0_9f232f7a92" x="752.254819" y="209.328916" style="fill: #ff0000; fill-opacity: 0.3"/>
    </g>
    <g clip-path="url(#pf1b13b5dac)">
     <use xlink:href="#C5_0_9f232f7a92" x="754.861782" y="205.727987" style="fill: #ff0000; fill-opacity: 0.3"/>
    </g>
    <g clip-path="url(#pf1b13b5dac)">
     <use xlink:href="#C5_0_9f232f7a92" x="755.837753" y="246.538516" style="fill: #ff0000; fill-opacity: 0.3"/>
    </g>
    <g clip-path="url(#pf1b13b5dac)">
     <use xlink:href="#C5_0_9f232f7a92" x="773.432427" y="186.122929" style="fill: #ff0000; fill-opacity: 0.3"/>
    </g>
    <g clip-path="url(#pf1b13b5dac)">
     <use xlink:href="#C5_0_9f232f7a92" x="757.533245" y="222.532322" style="fill: #ff0000; fill-opacity: 0.3"/>
    </g>
    <g clip-path="url(#pf1b13b5dac)">
     <use xlink:href="#C5_0_9f232f7a92" x="749.89696" y="176.920555" style="fill: #ff0000; fill-opacity: 0.3"/>
    </g>
    <g clip-path="url(#pf1b13b5dac)">
     <use xlink:href="#C5_0_9f232f7a92" x="754.12476" y="274.945845" style="fill: #ff0000; fill-opacity: 0.3"/>
    </g>
   </g>
   <g id="text_13">
    <!-- * -->
    <g transform="translate(705.753961 20.53944) scale(0.14 -0.14)">
     <defs>
      <path id="DejaVuSans-2a" d="M 3009 3897 
L 1888 3291 
L 3009 2681 
L 2828 2375 
L 1778 3009 
L 1778 1831 
L 1422 1831 
L 1422 3009 
L 372 2375 
L 191 2681 
L 1313 3291 
L 191 3897 
L 372 4206 
L 1422 3572 
L 1422 4750 
L 1778 4750 
L 1778 3572 
L 2828 4206 
L 3009 3897 
z
" transform="scale(0.015625)"/>
     </defs>
     <use xlink:href="#DejaVuSans-2a"/>
    </g>
   </g>
  </g>
  <g id="text_14">
   <!-- time_combo -->
   <g transform="translate(385.128594 424.08) scale(0.14 -0.14)">
    <defs>
     <path id="DejaVuSans-63" d="M 3122 3366 
L 3122 2828 
Q 2878 2963 2633 3030 
Q 2388 3097 2138 3097 
Q 1578 3097 1268 2742 
Q 959 2388 959 1747 
Q 959 1106 1268 751 
Q 1578 397 2138 397 
Q 2388 397 2633 464 
Q 2878 531 3122 666 
L 3122 134 
Q 2881 22 2623 -34 
Q 2366 -91 2075 -91 
Q 1284 -91 818 406 
Q 353 903 353 1747 
Q 353 2603 823 3093 
Q 1294 3584 2113 3584 
Q 2378 3584 2631 3529 
Q 2884 3475 3122 3366 
z
" transform="scale(0.015625)"/>
    </defs>
    <use xlink:href="#DejaVuSans-74"/>
    <use xlink:href="#DejaVuSans-69" transform="translate(39.208984 0)"/>
    <use xlink:href="#DejaVuSans-6d" transform="translate(66.992188 0)"/>
    <use xlink:href="#DejaVuSans-65" transform="translate(164.404297 0)"/>
    <use xlink:href="#DejaVuSans-5f" transform="translate(225.927734 0)"/>
    <use xlink:href="#DejaVuSans-63" transform="translate(275.927734 0)"/>
    <use xlink:href="#DejaVuSans-6f" transform="translate(330.908203 0)"/>
    <use xlink:href="#DejaVuSans-6d" transform="translate(392.089844 0)"/>
    <use xlink:href="#DejaVuSans-62" transform="translate(489.501953 0)"/>
    <use xlink:href="#DejaVuSans-6f" transform="translate(552.978516 0)"/>
   </g>
  </g>
 </g>
 <defs>
  <clipPath id="pf1b13b5dac">
   <rect x="50.421875" y="7.2" width="798.89875" height="361.37"/>
  </clipPath>
 </defs>
</svg>
