<?xml version="1.0" encoding="utf-8" standalone="no"?>
<!DOCTYPE svg PUBLIC "-//W3C//DTD SVG 1.1//EN"
  "http://www.w3.org/Graphics/SVG/1.1/DTD/svg11.dtd">
<svg xmlns:xlink="http://www.w3.org/1999/xlink" width="856.520625pt" height="434.580937pt" viewBox="0 0 856.520625 434.580937" xmlns="http://www.w3.org/2000/svg" version="1.1">
 <metadata>
  <rdf:RDF xmlns:dc="http://purl.org/dc/elements/1.1/" xmlns:cc="http://creativecommons.org/ns#" xmlns:rdf="http://www.w3.org/1999/02/22-rdf-syntax-ns#">
   <cc:Work>
    <dc:type rdf:resource="http://purl.org/dc/dcmitype/StillImage"/>
    <dc:date>2025-11-29T21:06:44.178356</dc:date>
    <dc:format>image/svg+xml</dc:format>
    <dc:creator>
     <cc:Agent>
      <dc:title>Matplotlib v3.10.0, https://matplotlib.org/</dc:title>
     </cc:Agent>
    </dc:creator>
   </cc:Work>
  </rdf:RDF>
 </metadata>
 <defs>
  <style type="text/css">*{stroke-linejoin: round; stroke-linecap: butt}</style>
 </defs>
 <g id="figure_1">
  <g id="patch_1">
   <path d="M 0 434.580937 
L 856.520625 434.580937 
L 856.520625 -0 
L 0 -0 
L 0 434.580937 
z
" style="fill: none"/>
  </g>
  <g id="axes_1">
   <g id="patch_2">
    <path d="M 50.421875 362.18 
L 849.320625 362.18 
L 849.320625 7.2 
L 50.421875 7.2 
L 50.421875 362.18 
z
" style="fill: none"/>
   </g>
   <g id="patch_3">
    <path d="M 77.051833 362.18 
L 183.571667 362.18 
L 183.571667 200.029909 
L 77.051833 200.029909 
L 77.051833 362.18 
z
" clip-path="url(#pe2e5b44f2e)" style="fill: none; opacity: 0"/>
   </g>
   <g id="patch_4">
    <path d="M 343.351417 362.18 
L 449.87125 362.18 
L 449.87125 200.029909 
L 343.351417 200.029909 
L 343.351417 362.18 
z
" clip-path="url(#pe2e5b44f2e)" style="fill: none; opacity: 0"/>
   </g>
   <g id="patch_5">
    <path d="M 609.651 362.18 
L 716.170833 362.18 
L 716.170833 200.029909 
L 609.651 200.029909 
L 609.651 362.18 
z
" clip-path="url(#pe2e5b44f2e)" style="fill: none; opacity: 0"/>
   </g>
   <g id="patch_6">
    <path d="M 183.571667 362.18 
L 290.0915 362.18 
L 290.0915 127.574524 
L 183.571667 127.574524 
L 183.571667 362.18 
z
" clip-path="url(#pe2e5b44f2e)" style="fill: none; opacity: 0"/>
   </g>
   <g id="patch_7">
    <path d="M 449.87125 362.18 
L 556.391083 362.18 
L 556.391083 219.98572 
L 449.87125 219.98572 
L 449.87125 362.18 
z
" clip-path="url(#pe2e5b44f2e)" style="fill: none; opacity: 0"/>
   </g>
   <g id="patch_8">
    <path d="M 716.170833 362.18 
L 822.690667 362.18 
L 822.690667 224.149262 
L 716.170833 224.149262 
L 716.170833 362.18 
z
" clip-path="url(#pe2e5b44f2e)" style="fill: none; opacity: 0"/>
   </g>
   <g id="matplotlib.axis_1">
    <g id="xtick_1">
     <g id="line2d_1">
      <defs>
       <path id="m1f2cf0628d" d="M 0 0 
L 0 3.5 
" style="stroke: #000000; stroke-width: 0.8"/>
      </defs>
      <g>
       <use xlink:href="#m1f2cf0628d" x="183.571667" y="362.18" style="stroke: #000000; stroke-width: 0.8"/>
      </g>
     </g>
     <g id="text_1">
      <!-- 11_18_25 -->
      <g transform="translate(186.103698 417.355) rotate(-90) scale(0.1 -0.1)">
       <defs>
        <path id="DejaVuSans-31" d="M 794 531 
L 1825 531 
L 1825 4091 
L 703 3866 
L 703 4441 
L 1819 4666 
L 2450 4666 
L 2450 531 
L 3481 531 
L 3481 0 
L 794 0 
L 794 531 
z
" transform="scale(0.015625)"/>
        <path id="DejaVuSans-5f" d="M 3263 -1063 
L 3263 -1509 
L -63 -1509 
L -63 -1063 
L 3263 -1063 
z
" transform="scale(0.015625)"/>
        <path id="DejaVuSans-38" d="M 2034 2216 
Q 1584 2216 1326 1975 
Q 1069 1734 1069 1313 
Q 1069 891 1326 650 
Q 1584 409 2034 409 
Q 2484 409 2743 651 
Q 3003 894 3003 1313 
Q 3003 1734 2745 1975 
Q 2488 2216 2034 2216 
z
M 1403 2484 
Q 997 2584 770 2862 
Q 544 3141 544 3541 
Q 544 4100 942 4425 
Q 1341 4750 2034 4750 
Q 2731 4750 3128 4425 
Q 3525 4100 3525 3541 
Q 3525 3141 3298 2862 
Q 3072 2584 2669 2484 
Q 3125 2378 3379 2068 
Q 3634 1759 3634 1313 
Q 3634 634 3220 271 
Q 2806 -91 2034 -91 
Q 1263 -91 848 271 
Q 434 634 434 1313 
Q 434 1759 690 2068 
Q 947 2378 1403 2484 
z
M 1172 3481 
Q 1172 3119 1398 2916 
Q 1625 2713 2034 2713 
Q 2441 2713 2670 2916 
Q 2900 3119 2900 3481 
Q 2900 3844 2670 4047 
Q 2441 4250 2034 4250 
Q 1625 4250 1398 4047 
Q 1172 3844 1172 3481 
z
" transform="scale(0.015625)"/>
        <path id="DejaVuSans-32" d="M 1228 531 
L 3431 531 
L 3431 0 
L 469 0 
L 469 531 
Q 828 903 1448 1529 
Q 2069 2156 2228 2338 
Q 2531 2678 2651 2914 
Q 2772 3150 2772 3378 
Q 2772 3750 2511 3984 
Q 2250 4219 1831 4219 
Q 1534 4219 1204 4116 
Q 875 4013 500 3803 
L 500 4441 
Q 881 4594 1212 4672 
Q 1544 4750 1819 4750 
Q 2544 4750 2975 4387 
Q 3406 4025 3406 3419 
Q 3406 3131 3298 2873 
Q 3191 2616 2906 2266 
Q 2828 2175 2409 1742 
Q 1991 1309 1228 531 
z
" transform="scale(0.015625)"/>
        <path id="DejaVuSans-35" d="M 691 4666 
L 3169 4666 
L 3169 4134 
L 1269 4134 
L 1269 2991 
Q 1406 3038 1543 3061 
Q 1681 3084 1819 3084 
Q 2600 3084 3056 2656 
Q 3513 2228 3513 1497 
Q 3513 744 3044 326 
Q 2575 -91 1722 -91 
Q 1428 -91 1123 -41 
Q 819 9 494 109 
L 494 744 
Q 775 591 1075 516 
Q 1375 441 1709 441 
Q 2250 441 2565 725 
Q 2881 1009 2881 1497 
Q 2881 1984 2565 2268 
Q 2250 2553 1709 2553 
Q 1456 2553 1204 2497 
Q 953 2441 691 2322 
L 691 4666 
z
" transform="scale(0.015625)"/>
       </defs>
       <use xlink:href="#DejaVuSans-31"/>
       <use xlink:href="#DejaVuSans-31" transform="translate(63.623047 0)"/>
       <use xlink:href="#DejaVuSans-5f" transform="translate(127.246094 0)"/>
       <use xlink:href="#DejaVuSans-31" transform="translate(177.246094 0)"/>
       <use xlink:href="#DejaVuSans-38" transform="translate(240.869141 0)"/>
       <use xlink:href="#DejaVuSans-5f" transform="translate(304.492188 0)"/>
       <use xlink:href="#DejaVuSans-32" transform="translate(354.492188 0)"/>
       <use xlink:href="#DejaVuSans-35" transform="translate(418.115234 0)"/>
      </g>
     </g>
    </g>
    <g id="xtick_2">
     <g id="line2d_2">
      <g>
       <use xlink:href="#m1f2cf0628d" x="449.87125" y="362.18" style="stroke: #000000; stroke-width: 0.8"/>
      </g>
     </g>
     <g id="text_2">
      <!-- 4_24_23 -->
      <g transform="translate(452.403281 410.9925) rotate(-90) scale(0.1 -0.1)">
       <defs>
        <path id="DejaVuSans-34" d="M 2419 4116 
L 825 1625 
L 2419 1625 
L 2419 4116 
z
M 2253 4666 
L 3047 4666 
L 3047 1625 
L 3713 1625 
L 3713 1100 
L 3047 1100 
L 3047 0 
L 2419 0 
L 2419 1100 
L 313 1100 
L 313 1709 
L 2253 4666 
z
" transform="scale(0.015625)"/>
        <path id="DejaVuSans-33" d="M 2597 2516 
Q 3050 2419 3304 2112 
Q 3559 1806 3559 1356 
Q 3559 666 3084 287 
Q 2609 -91 1734 -91 
Q 1441 -91 1130 -33 
Q 819 25 488 141 
L 488 750 
Q 750 597 1062 519 
Q 1375 441 1716 441 
Q 2309 441 2620 675 
Q 2931 909 2931 1356 
Q 2931 1769 2642 2001 
Q 2353 2234 1838 2234 
L 1294 2234 
L 1294 2753 
L 1863 2753 
Q 2328 2753 2575 2939 
Q 2822 3125 2822 3475 
Q 2822 3834 2567 4026 
Q 2313 4219 1838 4219 
Q 1578 4219 1281 4162 
Q 984 4106 628 3988 
L 628 4550 
Q 988 4650 1302 4700 
Q 1616 4750 1894 4750 
Q 2613 4750 3031 4423 
Q 3450 4097 3450 3541 
Q 3450 3153 3228 2886 
Q 3006 2619 2597 2516 
z
" transform="scale(0.015625)"/>
       </defs>
       <use xlink:href="#DejaVuSans-34"/>
       <use xlink:href="#DejaVuSans-5f" transform="translate(63.623047 0)"/>
       <use xlink:href="#DejaVuSans-32" transform="translate(113.623047 0)"/>
       <use xlink:href="#DejaVuSans-34" transform="translate(177.246094 0)"/>
       <use xlink:href="#DejaVuSans-5f" transform="translate(240.869141 0)"/>
       <use xlink:href="#DejaVuSans-32" transform="translate(290.869141 0)"/>
       <use xlink:href="#DejaVuSans-33" transform="translate(354.492188 0)"/>
      </g>
     </g>
    </g>
    <g id="xtick_3">
     <g id="line2d_3">
      <g>
       <use xlink:href="#m1f2cf0628d" x="716.170833" y="362.18" style="stroke: #000000; stroke-width: 0.8"/>
      </g>
     </g>
     <g id="text_3">
      <!-- 6_6_25 -->
      <g transform="translate(718.702865 404.63) rotate(-90) scale(0.1 -0.1)">
       <defs>
        <path id="DejaVuSans-36" d="M 2113 2584 
Q 1688 2584 1439 2293 
Q 1191 2003 1191 1497 
Q 1191 994 1439 701 
Q 1688 409 2113 409 
Q 2538 409 2786 701 
Q 3034 994 3034 1497 
Q 3034 2003 2786 2293 
Q 2538 2584 2113 2584 
z
M 3366 4563 
L 3366 3988 
Q 3128 4100 2886 4159 
Q 2644 4219 2406 4219 
Q 1781 4219 1451 3797 
Q 1122 3375 1075 2522 
Q 1259 2794 1537 2939 
Q 1816 3084 2150 3084 
Q 2853 3084 3261 2657 
Q 3669 2231 3669 1497 
Q 3669 778 3244 343 
Q 2819 -91 2113 -91 
Q 1303 -91 875 529 
Q 447 1150 447 2328 
Q 447 3434 972 4092 
Q 1497 4750 2381 4750 
Q 2619 4750 2861 4703 
Q 3103 4656 3366 4563 
z
" transform="scale(0.015625)"/>
       </defs>
       <use xlink:href="#DejaVuSans-36"/>
       <use xlink:href="#DejaVuSans-5f" transform="translate(63.623047 0)"/>
       <use xlink:href="#DejaVuSans-36" transform="translate(113.623047 0)"/>
       <use xlink:href="#DejaVuSans-5f" transform="translate(177.246094 0)"/>
       <use xlink:href="#DejaVuSans-32" transform="translate(227.246094 0)"/>
       <use xlink:href="#DejaVuSans-35" transform="translate(290.869141 0)"/>
      </g>
     </g>
    </g>
   </g>
   <g id="matplotlib.axis_2">
    <g id="ytick_1">
     <g id="line2d_4">
      <defs>
       <path id="mcd5021b3db" d="M 0 0 
L -3.5 0 
" style="stroke: #000000; stroke-width: 0.8"/>
      </defs>
      <g>
       <use xlink:href="#mcd5021b3db" x="50.421875" y="362.18" style="stroke: #000000; stroke-width: 0.8"/>
      </g>
     </g>
     <g id="text_4">
      <!-- 0.00 -->
      <g transform="translate(21.15625 365.979219) scale(0.1 -0.1)">
       <defs>
        <path id="DejaVuSans-30" d="M 2034 4250 
Q 1547 4250 1301 3770 
Q 1056 3291 1056 2328 
Q 1056 1369 1301 889 
Q 1547 409 2034 409 
Q 2525 409 2770 889 
Q 3016 1369 3016 2328 
Q 3016 3291 2770 3770 
Q 2525 4250 2034 4250 
z
M 2034 4750 
Q 2819 4750 3233 4129 
Q 3647 3509 3647 2328 
Q 3647 1150 3233 529 
Q 2819 -91 2034 -91 
Q 1250 -91 836 529 
Q 422 1150 422 2328 
Q 422 3509 836 4129 
Q 1250 4750 2034 4750 
z
" transform="scale(0.015625)"/>
        <path id="DejaVuSans-2e" d="M 684 794 
L 1344 794 
L 1344 0 
L 684 0 
L 684 794 
z
" transform="scale(0.015625)"/>
       </defs>
       <use xlink:href="#DejaVuSans-30"/>
       <use xlink:href="#DejaVuSans-2e" transform="translate(63.623047 0)"/>
       <use xlink:href="#DejaVuSans-30" transform="translate(95.410156 0)"/>
       <use xlink:href="#DejaVuSans-30" transform="translate(159.033203 0)"/>
      </g>
     </g>
    </g>
    <g id="ytick_2">
     <g id="line2d_5">
      <g>
       <use xlink:href="#mcd5021b3db" x="50.421875" y="321.642477" style="stroke: #000000; stroke-width: 0.8"/>
      </g>
     </g>
     <g id="text_5">
      <!-- 0.25 -->
      <g transform="translate(21.15625 325.441696) scale(0.1 -0.1)">
       <use xlink:href="#DejaVuSans-30"/>
       <use xlink:href="#DejaVuSans-2e" transform="translate(63.623047 0)"/>
       <use xlink:href="#DejaVuSans-32" transform="translate(95.410156 0)"/>
       <use xlink:href="#DejaVuSans-35" transform="translate(159.033203 0)"/>
      </g>
     </g>
    </g>
    <g id="ytick_3">
     <g id="line2d_6">
      <g>
       <use xlink:href="#mcd5021b3db" x="50.421875" y="281.104955" style="stroke: #000000; stroke-width: 0.8"/>
      </g>
     </g>
     <g id="text_6">
      <!-- 0.50 -->
      <g transform="translate(21.15625 284.904173) scale(0.1 -0.1)">
       <use xlink:href="#DejaVuSans-30"/>
       <use xlink:href="#DejaVuSans-2e" transform="translate(63.623047 0)"/>
       <use xlink:href="#DejaVuSans-35" transform="translate(95.410156 0)"/>
       <use xlink:href="#DejaVuSans-30" transform="translate(159.033203 0)"/>
      </g>
     </g>
    </g>
    <g id="ytick_4">
     <g id="line2d_7">
      <g>
       <use xlink:href="#mcd5021b3db" x="50.421875" y="240.567432" style="stroke: #000000; stroke-width: 0.8"/>
      </g>
     </g>
     <g id="text_7">
      <!-- 0.75 -->
      <g transform="translate(21.15625 244.366651) scale(0.1 -0.1)">
       <defs>
        <path id="DejaVuSans-37" d="M 525 4666 
L 3525 4666 
L 3525 4397 
L 1831 0 
L 1172 0 
L 2766 4134 
L 525 4134 
L 525 4666 
z
" transform="scale(0.015625)"/>
       </defs>
       <use xlink:href="#DejaVuSans-30"/>
       <use xlink:href="#DejaVuSans-2e" transform="translate(63.623047 0)"/>
       <use xlink:href="#DejaVuSans-37" transform="translate(95.410156 0)"/>
       <use xlink:href="#DejaVuSans-35" transform="translate(159.033203 0)"/>
      </g>
     </g>
    </g>
    <g id="ytick_5">
     <g id="line2d_8">
      <g>
       <use xlink:href="#mcd5021b3db" x="50.421875" y="200.029909" style="stroke: #000000; stroke-width: 0.8"/>
      </g>
     </g>
     <g id="text_8">
      <!-- 1.00 -->
      <g transform="translate(21.15625 203.829128) scale(0.1 -0.1)">
       <use xlink:href="#DejaVuSans-31"/>
       <use xlink:href="#DejaVuSans-2e" transform="translate(63.623047 0)"/>
       <use xlink:href="#DejaVuSans-30" transform="translate(95.410156 0)"/>
       <use xlink:href="#DejaVuSans-30" transform="translate(159.033203 0)"/>
      </g>
     </g>
    </g>
    <g id="ytick_6">
     <g id="line2d_9">
      <g>
       <use xlink:href="#mcd5021b3db" x="50.421875" y="159.492387" style="stroke: #000000; stroke-width: 0.8"/>
      </g>
     </g>
     <g id="text_9">
      <!-- 1.25 -->
      <g transform="translate(21.15625 163.291605) scale(0.1 -0.1)">
       <use xlink:href="#DejaVuSans-31"/>
       <use xlink:href="#DejaVuSans-2e" transform="translate(63.623047 0)"/>
       <use xlink:href="#DejaVuSans-32" transform="translate(95.410156 0)"/>
       <use xlink:href="#DejaVuSans-35" transform="translate(159.033203 0)"/>
      </g>
     </g>
    </g>
    <g id="ytick_7">
     <g id="line2d_10">
      <g>
       <use xlink:href="#mcd5021b3db" x="50.421875" y="118.954864" style="stroke: #000000; stroke-width: 0.8"/>
      </g>
     </g>
     <g id="text_10">
      <!-- 1.50 -->
      <g transform="translate(21.15625 122.754083) scale(0.1 -0.1)">
       <use xlink:href="#DejaVuSans-31"/>
       <use xlink:href="#DejaVuSans-2e" transform="translate(63.623047 0)"/>
       <use xlink:href="#DejaVuSans-35" transform="translate(95.410156 0)"/>
       <use xlink:href="#DejaVuSans-30" transform="translate(159.033203 0)"/>
      </g>
     </g>
    </g>
    <g id="ytick_8">
     <g id="line2d_11">
      <g>
       <use xlink:href="#mcd5021b3db" x="50.421875" y="78.417341" style="stroke: #000000; stroke-width: 0.8"/>
      </g>
     </g>
     <g id="text_11">
      <!-- 1.75 -->
      <g transform="translate(21.15625 82.21656) scale(0.1 -0.1)">
       <use xlink:href="#DejaVuSans-31"/>
       <use xlink:href="#DejaVuSans-2e" transform="translate(63.623047 0)"/>
       <use xlink:href="#DejaVuSans-37" transform="translate(95.410156 0)"/>
       <use xlink:href="#DejaVuSans-35" transform="translate(159.033203 0)"/>
      </g>
     </g>
    </g>
    <g id="ytick_9">
     <g id="line2d_12">
      <g>
       <use xlink:href="#mcd5021b3db" x="50.421875" y="37.879819" style="stroke: #000000; stroke-width: 0.8"/>
      </g>
     </g>
     <g id="text_12">
      <!-- 2.00 -->
      <g transform="translate(21.15625 41.679038) scale(0.1 -0.1)">
       <use xlink:href="#DejaVuSans-32"/>
       <use xlink:href="#DejaVuSans-2e" transform="translate(63.623047 0)"/>
       <use xlink:href="#DejaVuSans-30" transform="translate(95.410156 0)"/>
       <use xlink:href="#DejaVuSans-30" transform="translate(159.033203 0)"/>
      </g>
     </g>
    </g>
    <g id="text_13">
     <!-- Normalized dpix_wakingactive: Binned - 1over3600 -->
     <g transform="translate(14.798438 313.530625) rotate(-90) scale(0.1 -0.1)">
      <defs>
       <path id="DejaVuSans-4e" d="M 628 4666 
L 1478 4666 
L 3547 763 
L 3547 4666 
L 4159 4666 
L 4159 0 
L 3309 0 
L 1241 3903 
L 1241 0 
L 628 0 
L 628 4666 
z
" transform="scale(0.015625)"/>
       <path id="DejaVuSans-6f" d="M 1959 3097 
Q 1497 3097 1228 2736 
Q 959 2375 959 1747 
Q 959 1119 1226 758 
Q 1494 397 1959 397 
Q 2419 397 2687 759 
Q 2956 1122 2956 1747 
Q 2956 2369 2687 2733 
Q 2419 3097 1959 3097 
z
M 1959 3584 
Q 2709 3584 3137 3096 
Q 3566 2609 3566 1747 
Q 3566 888 3137 398 
Q 2709 -91 1959 -91 
Q 1206 -91 779 398 
Q 353 888 353 1747 
Q 353 2609 779 3096 
Q 1206 3584 1959 3584 
z
" transform="scale(0.015625)"/>
       <path id="DejaVuSans-72" d="M 2631 2963 
Q 2534 3019 2420 3045 
Q 2306 3072 2169 3072 
Q 1681 3072 1420 2755 
Q 1159 2438 1159 1844 
L 1159 0 
L 581 0 
L 581 3500 
L 1159 3500 
L 1159 2956 
Q 1341 3275 1631 3429 
Q 1922 3584 2338 3584 
Q 2397 3584 2469 3576 
Q 2541 3569 2628 3553 
L 2631 2963 
z
" transform="scale(0.015625)"/>
       <path id="DejaVuSans-6d" d="M 3328 2828 
Q 3544 3216 3844 3400 
Q 4144 3584 4550 3584 
Q 5097 3584 5394 3201 
Q 5691 2819 5691 2113 
L 5691 0 
L 5113 0 
L 5113 2094 
Q 5113 2597 4934 2840 
Q 4756 3084 4391 3084 
Q 3944 3084 3684 2787 
Q 3425 2491 3425 1978 
L 3425 0 
L 2847 0 
L 2847 2094 
Q 2847 2600 2669 2842 
Q 2491 3084 2119 3084 
Q 1678 3084 1418 2786 
Q 1159 2488 1159 1978 
L 1159 0 
L 581 0 
L 581 3500 
L 1159 3500 
L 1159 2956 
Q 1356 3278 1631 3431 
Q 1906 3584 2284 3584 
Q 2666 3584 2933 3390 
Q 3200 3197 3328 2828 
z
" transform="scale(0.015625)"/>
       <path id="DejaVuSans-61" d="M 2194 1759 
Q 1497 1759 1228 1600 
Q 959 1441 959 1056 
Q 959 750 1161 570 
Q 1363 391 1709 391 
Q 2188 391 2477 730 
Q 2766 1069 2766 1631 
L 2766 1759 
L 2194 1759 
z
M 3341 1997 
L 3341 0 
L 2766 0 
L 2766 531 
Q 2569 213 2275 61 
Q 1981 -91 1556 -91 
Q 1019 -91 701 211 
Q 384 513 384 1019 
Q 384 1609 779 1909 
Q 1175 2209 1959 2209 
L 2766 2209 
L 2766 2266 
Q 2766 2663 2505 2880 
Q 2244 3097 1772 3097 
Q 1472 3097 1187 3025 
Q 903 2953 641 2809 
L 641 3341 
Q 956 3463 1253 3523 
Q 1550 3584 1831 3584 
Q 2591 3584 2966 3190 
Q 3341 2797 3341 1997 
z
" transform="scale(0.015625)"/>
       <path id="DejaVuSans-6c" d="M 603 4863 
L 1178 4863 
L 1178 0 
L 603 0 
L 603 4863 
z
" transform="scale(0.015625)"/>
       <path id="DejaVuSans-69" d="M 603 3500 
L 1178 3500 
L 1178 0 
L 603 0 
L 603 3500 
z
M 603 4863 
L 1178 4863 
L 1178 4134 
L 603 4134 
L 603 4863 
z
" transform="scale(0.015625)"/>
       <path id="DejaVuSans-7a" d="M 353 3500 
L 3084 3500 
L 3084 2975 
L 922 459 
L 3084 459 
L 3084 0 
L 275 0 
L 275 525 
L 2438 3041 
L 353 3041 
L 353 3500 
z
" transform="scale(0.015625)"/>
       <path id="DejaVuSans-65" d="M 3597 1894 
L 3597 1613 
L 953 1613 
Q 991 1019 1311 708 
Q 1631 397 2203 397 
Q 2534 397 2845 478 
Q 3156 559 3463 722 
L 3463 178 
Q 3153 47 2828 -22 
Q 2503 -91 2169 -91 
Q 1331 -91 842 396 
Q 353 884 353 1716 
Q 353 2575 817 3079 
Q 1281 3584 2069 3584 
Q 2775 3584 3186 3129 
Q 3597 2675 3597 1894 
z
M 3022 2063 
Q 3016 2534 2758 2815 
Q 2500 3097 2075 3097 
Q 1594 3097 1305 2825 
Q 1016 2553 972 2059 
L 3022 2063 
z
" transform="scale(0.015625)"/>
       <path id="DejaVuSans-64" d="M 2906 2969 
L 2906 4863 
L 3481 4863 
L 3481 0 
L 2906 0 
L 2906 525 
Q 2725 213 2448 61 
Q 2172 -91 1784 -91 
Q 1150 -91 751 415 
Q 353 922 353 1747 
Q 353 2572 751 3078 
Q 1150 3584 1784 3584 
Q 2172 3584 2448 3432 
Q 2725 3281 2906 2969 
z
M 947 1747 
Q 947 1113 1208 752 
Q 1469 391 1925 391 
Q 2381 391 2643 752 
Q 2906 1113 2906 1747 
Q 2906 2381 2643 2742 
Q 2381 3103 1925 3103 
Q 1469 3103 1208 2742 
Q 947 2381 947 1747 
z
" transform="scale(0.015625)"/>
       <path id="DejaVuSans-20" transform="scale(0.015625)"/>
       <path id="DejaVuSans-70" d="M 1159 525 
L 1159 -1331 
L 581 -1331 
L 581 3500 
L 1159 3500 
L 1159 2969 
Q 1341 3281 1617 3432 
Q 1894 3584 2278 3584 
Q 2916 3584 3314 3078 
Q 3713 2572 3713 1747 
Q 3713 922 3314 415 
Q 2916 -91 2278 -91 
Q 1894 -91 1617 61 
Q 1341 213 1159 525 
z
M 3116 1747 
Q 3116 2381 2855 2742 
Q 2594 3103 2138 3103 
Q 1681 3103 1420 2742 
Q 1159 2381 1159 1747 
Q 1159 1113 1420 752 
Q 1681 391 2138 391 
Q 2594 391 2855 752 
Q 3116 1113 3116 1747 
z
" transform="scale(0.015625)"/>
       <path id="DejaVuSans-78" d="M 3513 3500 
L 2247 1797 
L 3578 0 
L 2900 0 
L 1881 1375 
L 863 0 
L 184 0 
L 1544 1831 
L 300 3500 
L 978 3500 
L 1906 2253 
L 2834 3500 
L 3513 3500 
z
" transform="scale(0.015625)"/>
       <path id="DejaVuSans-77" d="M 269 3500 
L 844 3500 
L 1563 769 
L 2278 3500 
L 2956 3500 
L 3675 769 
L 4391 3500 
L 4966 3500 
L 4050 0 
L 3372 0 
L 2619 2869 
L 1863 0 
L 1184 0 
L 269 3500 
z
" transform="scale(0.015625)"/>
       <path id="DejaVuSans-6b" d="M 581 4863 
L 1159 4863 
L 1159 1991 
L 2875 3500 
L 3609 3500 
L 1753 1863 
L 3688 0 
L 2938 0 
L 1159 1709 
L 1159 0 
L 581 0 
L 581 4863 
z
" transform="scale(0.015625)"/>
       <path id="DejaVuSans-6e" d="M 3513 2113 
L 3513 0 
L 2938 0 
L 2938 2094 
Q 2938 2591 2744 2837 
Q 2550 3084 2163 3084 
Q 1697 3084 1428 2787 
Q 1159 2491 1159 1978 
L 1159 0 
L 581 0 
L 581 3500 
L 1159 3500 
L 1159 2956 
Q 1366 3272 1645 3428 
Q 1925 3584 2291 3584 
Q 2894 3584 3203 3211 
Q 3513 2838 3513 2113 
z
" transform="scale(0.015625)"/>
       <path id="DejaVuSans-67" d="M 2906 1791 
Q 2906 2416 2648 2759 
Q 2391 3103 1925 3103 
Q 1463 3103 1205 2759 
Q 947 2416 947 1791 
Q 947 1169 1205 825 
Q 1463 481 1925 481 
Q 2391 481 2648 825 
Q 2906 1169 2906 1791 
z
M 3481 434 
Q 3481 -459 3084 -895 
Q 2688 -1331 1869 -1331 
Q 1566 -1331 1297 -1286 
Q 1028 -1241 775 -1147 
L 775 -588 
Q 1028 -725 1275 -790 
Q 1522 -856 1778 -856 
Q 2344 -856 2625 -561 
Q 2906 -266 2906 331 
L 2906 616 
Q 2728 306 2450 153 
Q 2172 0 1784 0 
Q 1141 0 747 490 
Q 353 981 353 1791 
Q 353 2603 747 3093 
Q 1141 3584 1784 3584 
Q 2172 3584 2450 3431 
Q 2728 3278 2906 2969 
L 2906 3500 
L 3481 3500 
L 3481 434 
z
" transform="scale(0.015625)"/>
       <path id="DejaVuSans-63" d="M 3122 3366 
L 3122 2828 
Q 2878 2963 2633 3030 
Q 2388 3097 2138 3097 
Q 1578 3097 1268 2742 
Q 959 2388 959 1747 
Q 959 1106 1268 751 
Q 1578 397 2138 397 
Q 2388 397 2633 464 
Q 2878 531 3122 666 
L 3122 134 
Q 2881 22 2623 -34 
Q 2366 -91 2075 -91 
Q 1284 -91 818 406 
Q 353 903 353 1747 
Q 353 2603 823 3093 
Q 1294 3584 2113 3584 
Q 2378 3584 2631 3529 
Q 2884 3475 3122 3366 
z
" transform="scale(0.015625)"/>
       <path id="DejaVuSans-74" d="M 1172 4494 
L 1172 3500 
L 2356 3500 
L 2356 3053 
L 1172 3053 
L 1172 1153 
Q 1172 725 1289 603 
Q 1406 481 1766 481 
L 2356 481 
L 2356 0 
L 1766 0 
Q 1100 0 847 248 
Q 594 497 594 1153 
L 594 3053 
L 172 3053 
L 172 3500 
L 594 3500 
L 594 4494 
L 1172 4494 
z
" transform="scale(0.015625)"/>
       <path id="DejaVuSans-76" d="M 191 3500 
L 800 3500 
L 1894 563 
L 2988 3500 
L 3597 3500 
L 2284 0 
L 1503 0 
L 191 3500 
z
" transform="scale(0.015625)"/>
       <path id="DejaVuSans-3a" d="M 750 794 
L 1409 794 
L 1409 0 
L 750 0 
L 750 794 
z
M 750 3309 
L 1409 3309 
L 1409 2516 
L 750 2516 
L 750 3309 
z
" transform="scale(0.015625)"/>
       <path id="DejaVuSans-42" d="M 1259 2228 
L 1259 519 
L 2272 519 
Q 2781 519 3026 730 
Q 3272 941 3272 1375 
Q 3272 1813 3026 2020 
Q 2781 2228 2272 2228 
L 1259 2228 
z
M 1259 4147 
L 1259 2741 
L 2194 2741 
Q 2656 2741 2882 2914 
Q 3109 3088 3109 3444 
Q 3109 3797 2882 3972 
Q 2656 4147 2194 4147 
L 1259 4147 
z
M 628 4666 
L 2241 4666 
Q 2963 4666 3353 4366 
Q 3744 4066 3744 3513 
Q 3744 3084 3544 2831 
Q 3344 2578 2956 2516 
Q 3422 2416 3680 2098 
Q 3938 1781 3938 1306 
Q 3938 681 3513 340 
Q 3088 0 2303 0 
L 628 0 
L 628 4666 
z
" transform="scale(0.015625)"/>
       <path id="DejaVuSans-2d" d="M 313 2009 
L 1997 2009 
L 1997 1497 
L 313 1497 
L 313 2009 
z
" transform="scale(0.015625)"/>
      </defs>
      <use xlink:href="#DejaVuSans-4e"/>
      <use xlink:href="#DejaVuSans-6f" transform="translate(74.804688 0)"/>
      <use xlink:href="#DejaVuSans-72" transform="translate(135.986328 0)"/>
      <use xlink:href="#DejaVuSans-6d" transform="translate(175.349609 0)"/>
      <use xlink:href="#DejaVuSans-61" transform="translate(272.761719 0)"/>
      <use xlink:href="#DejaVuSans-6c" transform="translate(334.041016 0)"/>
      <use xlink:href="#DejaVuSans-69" transform="translate(361.824219 0)"/>
      <use xlink:href="#DejaVuSans-7a" transform="translate(389.607422 0)"/>
      <use xlink:href="#DejaVuSans-65" transform="translate(442.097656 0)"/>
      <use xlink:href="#DejaVuSans-64" transform="translate(503.621094 0)"/>
      <use xlink:href="#DejaVuSans-20" transform="translate(567.097656 0)"/>
      <use xlink:href="#DejaVuSans-64" transform="translate(598.884766 0)"/>
      <use xlink:href="#DejaVuSans-70" transform="translate(662.361328 0)"/>
      <use xlink:href="#DejaVuSans-69" transform="translate(725.837891 0)"/>
      <use xlink:href="#DejaVuSans-78" transform="translate(753.621094 0)"/>
      <use xlink:href="#DejaVuSans-5f" transform="translate(812.800781 0)"/>
      <use xlink:href="#DejaVuSans-77" transform="translate(862.800781 0)"/>
      <use xlink:href="#DejaVuSans-61" transform="translate(944.587891 0)"/>
      <use xlink:href="#DejaVuSans-6b" transform="translate(1005.867188 0)"/>
      <use xlink:href="#DejaVuSans-69" transform="translate(1063.777344 0)"/>
      <use xlink:href="#DejaVuSans-6e" transform="translate(1091.560547 0)"/>
      <use xlink:href="#DejaVuSans-67" transform="translate(1154.939453 0)"/>
      <use xlink:href="#DejaVuSans-61" transform="translate(1218.416016 0)"/>
      <use xlink:href="#DejaVuSans-63" transform="translate(1279.695312 0)"/>
      <use xlink:href="#DejaVuSans-74" transform="translate(1334.675781 0)"/>
      <use xlink:href="#DejaVuSans-69" transform="translate(1373.884766 0)"/>
      <use xlink:href="#DejaVuSans-76" transform="translate(1401.667969 0)"/>
      <use xlink:href="#DejaVuSans-65" transform="translate(1460.847656 0)"/>
      <use xlink:href="#DejaVuSans-3a" transform="translate(1522.371094 0)"/>
      <use xlink:href="#DejaVuSans-20" transform="translate(1556.0625 0)"/>
      <use xlink:href="#DejaVuSans-42" transform="translate(1587.849609 0)"/>
      <use xlink:href="#DejaVuSans-69" transform="translate(1656.453125 0)"/>
      <use xlink:href="#DejaVuSans-6e" transform="translate(1684.236328 0)"/>
      <use xlink:href="#DejaVuSans-6e" transform="translate(1747.615234 0)"/>
      <use xlink:href="#DejaVuSans-65" transform="translate(1810.994141 0)"/>
      <use xlink:href="#DejaVuSans-64" transform="translate(1872.517578 0)"/>
      <use xlink:href="#DejaVuSans-20" transform="translate(1935.994141 0)"/>
      <use xlink:href="#DejaVuSans-2d" transform="translate(1967.78125 0)"/>
      <use xlink:href="#DejaVuSans-20" transform="translate(2003.865234 0)"/>
      <use xlink:href="#DejaVuSans-31" transform="translate(2035.652344 0)"/>
      <use xlink:href="#DejaVuSans-6f" transform="translate(2099.275391 0)"/>
      <use xlink:href="#DejaVuSans-76" transform="translate(2160.457031 0)"/>
      <use xlink:href="#DejaVuSans-65" transform="translate(2219.636719 0)"/>
      <use xlink:href="#DejaVuSans-72" transform="translate(2281.160156 0)"/>
      <use xlink:href="#DejaVuSans-33" transform="translate(2322.273438 0)"/>
      <use xlink:href="#DejaVuSans-36" transform="translate(2385.896484 0)"/>
      <use xlink:href="#DejaVuSans-30" transform="translate(2449.519531 0)"/>
      <use xlink:href="#DejaVuSans-30" transform="translate(2513.142578 0)"/>
     </g>
    </g>
   </g>
   <g id="line2d_13">
    <path d="M 116.996771 222.936367 
L 143.626729 222.936367 
M 130.31175 222.936367 
L 130.31175 177.123452 
M 116.996771 177.123452 
L 143.626729 177.123452 
" clip-path="url(#pe2e5b44f2e)" style="fill: none; stroke: #000000; stroke-width: 2; stroke-linecap: square"/>
   </g>
   <g id="line2d_14">
    <path d="M 383.296354 214.413242 
L 409.926312 214.413242 
M 396.611333 214.413242 
L 396.611333 185.646576 
M 383.296354 185.646576 
L 409.926312 185.646576 
" clip-path="url(#pe2e5b44f2e)" style="fill: none; stroke: #000000; stroke-width: 2; stroke-linecap: square"/>
   </g>
   <g id="line2d_15">
    <path d="M 649.595937 215.161283 
L 676.225896 215.161283 
M 662.910917 215.161283 
L 662.910917 184.898536 
M 649.595937 184.898536 
L 676.225896 184.898536 
" clip-path="url(#pe2e5b44f2e)" style="fill: none; stroke: #000000; stroke-width: 2; stroke-linecap: square"/>
   </g>
   <g id="line2d_16">
    <path d="M 223.516604 145.759499 
L 250.146563 145.759499 
M 236.831583 145.759499 
L 236.831583 109.38955 
M 223.516604 109.38955 
L 250.146563 109.38955 
" clip-path="url(#pe2e5b44f2e)" style="fill: none; stroke: #ff0000; stroke-width: 2; stroke-linecap: square"/>
   </g>
   <g id="line2d_17">
    <path d="M 489.816188 228.542867 
L 516.446146 228.542867 
M 503.131167 228.542867 
L 503.131167 211.428574 
M 489.816188 211.428574 
L 516.446146 211.428574 
" clip-path="url(#pe2e5b44f2e)" style="fill: none; stroke: #ff0000; stroke-width: 2; stroke-linecap: square"/>
   </g>
   <g id="line2d_18">
    <path d="M 756.115771 244.576294 
L 782.745729 244.576294 
M 769.43075 244.576294 
L 769.43075 203.722231 
M 756.115771 203.722231 
L 782.745729 203.722231 
" clip-path="url(#pe2e5b44f2e)" style="fill: none; stroke: #ff0000; stroke-width: 2; stroke-linecap: square"/>
   </g>
   <g id="patch_9">
    <path d="M 50.421875 362.18 
L 50.421875 37.879819 
" style="fill: none; stroke: #000000; stroke-width: 0.8; stroke-linejoin: miter; stroke-linecap: square"/>
   </g>
   <g id="patch_10">
    <path d="M 183.571667 362.18 
L 716.170833 362.18 
" style="fill: none; stroke: #000000; stroke-width: 0.8; stroke-linejoin: miter; stroke-linecap: square"/>
   </g>
   <g id="PathCollection_1">
    <defs>
     <path id="C0_0_85d590fa26" d="M 0 2.5 
C 0.663008 2.5 1.29895 2.236584 1.767767 1.767767 
C 2.236584 1.29895 2.5 0.663008 2.5 -0 
C 2.5 -0.663008 2.236584 -1.29895 1.767767 -1.767767 
C 1.29895 -2.236584 0.663008 -2.5 0 -2.5 
C -0.663008 -2.5 -1.29895 -2.236584 -1.767767 -1.767767 
C -2.236584 -1.29895 -2.5 -0.663008 -2.5 0 
C -2.5 0.663008 -2.236584 1.29895 -1.767767 1.767767 
C -1.29895 2.236584 -0.663008 2.5 0 2.5 
z
"/>
    </defs>
    <g clip-path="url(#pe2e5b44f2e)">
     <use xlink:href="#C0_0_85d590fa26" x="141.647445" y="306.544499" style="fill-opacity: 0.3"/>
    </g>
    <g clip-path="url(#pe2e5b44f2e)">
     <use xlink:href="#C0_0_85d590fa26" x="126.534157" y="115.550052" style="fill-opacity: 0.3"/>
    </g>
    <g clip-path="url(#pe2e5b44f2e)">
     <use xlink:href="#C0_0_85d590fa26" x="126.059751" y="128.61107" style="fill-opacity: 0.3"/>
    </g>
    <g clip-path="url(#pe2e5b44f2e)">
     <use xlink:href="#C0_0_85d590fa26" x="119.337284" y="207.267763" style="fill-opacity: 0.3"/>
    </g>
    <g clip-path="url(#pe2e5b44f2e)">
     <use xlink:href="#C0_0_85d590fa26" x="139.983965" y="282.024502" style="fill-opacity: 0.3"/>
    </g>
    <g clip-path="url(#pe2e5b44f2e)">
     <use xlink:href="#C0_0_85d590fa26" x="134.351818" y="225.804008" style="fill-opacity: 0.3"/>
    </g>
    <g clip-path="url(#pe2e5b44f2e)">
     <use xlink:href="#C0_0_85d590fa26" x="132.447381" y="135.237166" style="fill-opacity: 0.3"/>
    </g>
    <g clip-path="url(#pe2e5b44f2e)">
     <use xlink:href="#C0_0_85d590fa26" x="124.422092" y="288.501483" style="fill-opacity: 0.3"/>
    </g>
    <g clip-path="url(#pe2e5b44f2e)">
     <use xlink:href="#C0_0_85d590fa26" x="137.177008" y="165.079451" style="fill-opacity: 0.3"/>
    </g>
    <g clip-path="url(#pe2e5b44f2e)">
     <use xlink:href="#C0_0_85d590fa26" x="117.502614" y="145.679099" style="fill-opacity: 0.3"/>
    </g>
   </g>
   <g id="PathCollection_2">
    <defs>
     <path id="C1_0_7070001b79" d="M 0 2.5 
C 0.663008 2.5 1.29895 2.236584 1.767767 1.767767 
C 2.236584 1.29895 2.5 0.663008 2.5 -0 
C 2.5 -0.663008 2.236584 -1.29895 1.767767 -1.767767 
C 1.29895 -2.236584 0.663008 -2.5 0 -2.5 
C -0.663008 -2.5 -1.29895 -2.236584 -1.767767 -1.767767 
C -2.236584 -1.29895 -2.5 -0.663008 -2.5 0 
C -2.5 0.663008 -2.236584 1.29895 -1.767767 1.767767 
C -1.29895 2.236584 -0.663008 2.5 0 2.5 
z
"/>
    </defs>
    <g clip-path="url(#pe2e5b44f2e)">
     <use xlink:href="#C1_0_7070001b79" x="245.910408" y="191.465307" style="fill: #ff0000; fill-opacity: 0.3"/>
    </g>
    <g clip-path="url(#pe2e5b44f2e)">
     <use xlink:href="#C1_0_7070001b79" x="245.654303" y="84.530135" style="fill: #ff0000; fill-opacity: 0.3"/>
    </g>
    <g clip-path="url(#pe2e5b44f2e)">
     <use xlink:href="#C1_0_7070001b79" x="238.609287" y="92.284158" style="fill: #ff0000; fill-opacity: 0.3"/>
    </g>
    <g clip-path="url(#pe2e5b44f2e)">
     <use xlink:href="#C1_0_7070001b79" x="235.585974" y="182.193361" style="fill: #ff0000; fill-opacity: 0.3"/>
    </g>
    <g clip-path="url(#pe2e5b44f2e)">
     <use xlink:href="#C1_0_7070001b79" x="239.111224" y="204.858968" style="fill: #ff0000; fill-opacity: 0.3"/>
    </g>
    <g clip-path="url(#pe2e5b44f2e)">
     <use xlink:href="#C1_0_7070001b79" x="235.370326" y="128.924596" style="fill: #ff0000; fill-opacity: 0.3"/>
    </g>
    <g clip-path="url(#pe2e5b44f2e)">
     <use xlink:href="#C1_0_7070001b79" x="224.88982" y="79.21167" style="fill: #ff0000; fill-opacity: 0.3"/>
    </g>
    <g clip-path="url(#pe2e5b44f2e)">
     <use xlink:href="#C1_0_7070001b79" x="238.688243" y="139.978285" style="fill: #ff0000; fill-opacity: 0.3"/>
    </g>
    <g clip-path="url(#pe2e5b44f2e)">
     <use xlink:href="#C1_0_7070001b79" x="248.244896" y="148.19495" style="fill: #ff0000; fill-opacity: 0.3"/>
    </g>
    <g clip-path="url(#pe2e5b44f2e)">
     <use xlink:href="#C1_0_7070001b79" x="233.620973" y="24.10381" style="fill: #ff0000; fill-opacity: 0.3"/>
    </g>
   </g>
   <g id="PathCollection_3">
    <defs>
     <path id="C2_0_70f4d502f5" d="M 0 2.5 
C 0.663008 2.5 1.29895 2.236584 1.767767 1.767767 
C 2.236584 1.29895 2.5 0.663008 2.5 -0 
C 2.5 -0.663008 2.236584 -1.29895 1.767767 -1.767767 
C 1.29895 -2.236584 0.663008 -2.5 0 -2.5 
C -0.663008 -2.5 -1.29895 -2.236584 -1.767767 -1.767767 
C -2.236584 -1.29895 -2.5 -0.663008 -2.5 0 
C -2.5 0.663008 -2.236584 1.29895 -1.767767 1.767767 
C -1.29895 2.236584 -0.663008 2.5 0 2.5 
z
"/>
    </defs>
    <g clip-path="url(#pe2e5b44f2e)">
     <use xlink:href="#C2_0_70f4d502f5" x="396.105477" y="111.614553" style="fill-opacity: 0.3"/>
    </g>
    <g clip-path="url(#pe2e5b44f2e)">
     <use xlink:href="#C2_0_70f4d502f5" x="391.313519" y="186.962943" style="fill-opacity: 0.3"/>
    </g>
    <g clip-path="url(#pe2e5b44f2e)">
     <use xlink:href="#C2_0_70f4d502f5" x="394.526426" y="223.514859" style="fill-opacity: 0.3"/>
    </g>
    <g clip-path="url(#pe2e5b44f2e)">
     <use xlink:href="#C2_0_70f4d502f5" x="393.529175" y="180.350597" style="fill-opacity: 0.3"/>
    </g>
    <g clip-path="url(#pe2e5b44f2e)">
     <use xlink:href="#C2_0_70f4d502f5" x="402.26242" y="138.549247" style="fill-opacity: 0.3"/>
    </g>
    <g clip-path="url(#pe2e5b44f2e)">
     <use xlink:href="#C2_0_70f4d502f5" x="396.994722" y="239.898109" style="fill-opacity: 0.3"/>
    </g>
    <g clip-path="url(#pe2e5b44f2e)">
     <use xlink:href="#C2_0_70f4d502f5" x="399.790279" y="258.230686" style="fill-opacity: 0.3"/>
    </g>
    <g clip-path="url(#pe2e5b44f2e)">
     <use xlink:href="#C2_0_70f4d502f5" x="406.415407" y="208.506654" style="fill-opacity: 0.3"/>
    </g>
    <g clip-path="url(#pe2e5b44f2e)">
     <use xlink:href="#C2_0_70f4d502f5" x="409.881165" y="216.445513" style="fill-opacity: 0.3"/>
    </g>
    <g clip-path="url(#pe2e5b44f2e)">
     <use xlink:href="#C2_0_70f4d502f5" x="395.565398" y="202.488812" style="fill-opacity: 0.3"/>
    </g>
    <g clip-path="url(#pe2e5b44f2e)">
     <use xlink:href="#C2_0_70f4d502f5" x="406.937273" y="275.580512" style="fill-opacity: 0.3"/>
    </g>
    <g clip-path="url(#pe2e5b44f2e)">
     <use xlink:href="#C2_0_70f4d502f5" x="390.383364" y="239.995171" style="fill-opacity: 0.3"/>
    </g>
    <g clip-path="url(#pe2e5b44f2e)">
     <use xlink:href="#C2_0_70f4d502f5" x="406.28391" y="226.119355" style="fill-opacity: 0.3"/>
    </g>
    <g clip-path="url(#pe2e5b44f2e)">
     <use xlink:href="#C2_0_70f4d502f5" x="408.421324" y="92.161719" style="fill-opacity: 0.3"/>
    </g>
   </g>
   <g id="PathCollection_4">
    <defs>
     <path id="C3_0_2a1589bf2a" d="M 0 2.5 
C 0.663008 2.5 1.29895 2.236584 1.767767 1.767767 
C 2.236584 1.29895 2.5 0.663008 2.5 -0 
C 2.5 -0.663008 2.236584 -1.29895 1.767767 -1.767767 
C 1.29895 -2.236584 0.663008 -2.5 0 -2.5 
C -0.663008 -2.5 -1.29895 -2.236584 -1.767767 -1.767767 
C -2.236584 -1.29895 -2.5 -0.663008 -2.5 0 
C -2.5 0.663008 -2.236584 1.29895 -1.767767 1.767767 
C -1.29895 2.236584 -0.663008 2.5 0 2.5 
z
"/>
    </defs>
    <g clip-path="url(#pe2e5b44f2e)">
     <use xlink:href="#C3_0_2a1589bf2a" x="492.160069" y="262.32751" style="fill: #ff0000; fill-opacity: 0.3"/>
    </g>
    <g clip-path="url(#pe2e5b44f2e)">
     <use xlink:href="#C3_0_2a1589bf2a" x="499.601801" y="260.827094" style="fill: #ff0000; fill-opacity: 0.3"/>
    </g>
    <g clip-path="url(#pe2e5b44f2e)">
     <use xlink:href="#C3_0_2a1589bf2a" x="501.226352" y="242.482384" style="fill: #ff0000; fill-opacity: 0.3"/>
    </g>
    <g clip-path="url(#pe2e5b44f2e)">
     <use xlink:href="#C3_0_2a1589bf2a" x="511.249376" y="149.068337" style="fill: #ff0000; fill-opacity: 0.3"/>
    </g>
    <g clip-path="url(#pe2e5b44f2e)">
     <use xlink:href="#C3_0_2a1589bf2a" x="515.234933" y="204.215706" style="fill: #ff0000; fill-opacity: 0.3"/>
    </g>
    <g clip-path="url(#pe2e5b44f2e)">
     <use xlink:href="#C3_0_2a1589bf2a" x="500.129785" y="220.081292" style="fill: #ff0000; fill-opacity: 0.3"/>
    </g>
    <g clip-path="url(#pe2e5b44f2e)">
     <use xlink:href="#C3_0_2a1589bf2a" x="491.582372" y="171.999225" style="fill: #ff0000; fill-opacity: 0.3"/>
    </g>
    <g clip-path="url(#pe2e5b44f2e)">
     <use xlink:href="#C3_0_2a1589bf2a" x="500.086572" y="231.146356" style="fill: #ff0000; fill-opacity: 0.3"/>
    </g>
    <g clip-path="url(#pe2e5b44f2e)">
     <use xlink:href="#C3_0_2a1589bf2a" x="501.883968" y="151.717319" style="fill: #ff0000; fill-opacity: 0.3"/>
    </g>
    <g clip-path="url(#pe2e5b44f2e)">
     <use xlink:href="#C3_0_2a1589bf2a" x="503.085574" y="244.136481" style="fill: #ff0000; fill-opacity: 0.3"/>
    </g>
    <g clip-path="url(#pe2e5b44f2e)">
     <use xlink:href="#C3_0_2a1589bf2a" x="510.351551" y="234.765958" style="fill: #ff0000; fill-opacity: 0.3"/>
    </g>
    <g clip-path="url(#pe2e5b44f2e)">
     <use xlink:href="#C3_0_2a1589bf2a" x="501.177788" y="294.77047" style="fill: #ff0000; fill-opacity: 0.3"/>
    </g>
    <g clip-path="url(#pe2e5b44f2e)">
     <use xlink:href="#C3_0_2a1589bf2a" x="512.474129" y="232.569931" style="fill: #ff0000; fill-opacity: 0.3"/>
    </g>
    <g clip-path="url(#pe2e5b44f2e)">
     <use xlink:href="#C3_0_2a1589bf2a" x="492.457161" y="218.504036" style="fill: #ff0000; fill-opacity: 0.3"/>
    </g>
    <g clip-path="url(#pe2e5b44f2e)">
     <use xlink:href="#C3_0_2a1589bf2a" x="502.61084" y="227.716833" style="fill: #ff0000; fill-opacity: 0.3"/>
    </g>
    <g clip-path="url(#pe2e5b44f2e)">
     <use xlink:href="#C3_0_2a1589bf2a" x="502.816707" y="232.497135" style="fill: #ff0000; fill-opacity: 0.3"/>
    </g>
    <g clip-path="url(#pe2e5b44f2e)">
     <use xlink:href="#C3_0_2a1589bf2a" x="495.798339" y="194.626794" style="fill: #ff0000; fill-opacity: 0.3"/>
    </g>
    <g clip-path="url(#pe2e5b44f2e)">
     <use xlink:href="#C3_0_2a1589bf2a" x="497.000334" y="222.216655" style="fill: #ff0000; fill-opacity: 0.3"/>
    </g>
    <g clip-path="url(#pe2e5b44f2e)">
     <use xlink:href="#C3_0_2a1589bf2a" x="496.025922" y="184.059173" style="fill: #ff0000; fill-opacity: 0.3"/>
    </g>
   </g>
   <g id="PathCollection_5">
    <defs>
     <path id="C4_0_821b413377" d="M 0 2.5 
C 0.663008 2.5 1.29895 2.236584 1.767767 1.767767 
C 2.236584 1.29895 2.5 0.663008 2.5 -0 
C 2.5 -0.663008 2.236584 -1.29895 1.767767 -1.767767 
C 1.29895 -2.236584 0.663008 -2.5 0 -2.5 
C -0.663008 -2.5 -1.29895 -2.236584 -1.767767 -1.767767 
C -2.236584 -1.29895 -2.5 -0.663008 -2.5 0 
C -2.5 0.663008 -2.236584 1.29895 -1.767767 1.767767 
C -1.29895 2.236584 -0.663008 2.5 0 2.5 
z
"/>
    </defs>
    <g clip-path="url(#pe2e5b44f2e)">
     <use xlink:href="#C4_0_821b413377" x="669.279611" y="267.569582" style="fill-opacity: 0.3"/>
    </g>
    <g clip-path="url(#pe2e5b44f2e)">
     <use xlink:href="#C4_0_821b413377" x="664.329291" y="116.756139" style="fill-opacity: 0.3"/>
    </g>
    <g clip-path="url(#pe2e5b44f2e)">
     <use xlink:href="#C4_0_821b413377" x="675.558796" y="152.618397" style="fill-opacity: 0.3"/>
    </g>
    <g clip-path="url(#pe2e5b44f2e)">
     <use xlink:href="#C4_0_821b413377" x="669.991403" y="192.035265" style="fill-opacity: 0.3"/>
    </g>
    <g clip-path="url(#pe2e5b44f2e)">
     <use xlink:href="#C4_0_821b413377" x="660.607609" y="178.383668" style="fill-opacity: 0.3"/>
    </g>
    <g clip-path="url(#pe2e5b44f2e)">
     <use xlink:href="#C4_0_821b413377" x="662.378269" y="264.645046" style="fill-opacity: 0.3"/>
    </g>
    <g clip-path="url(#pe2e5b44f2e)">
     <use xlink:href="#C4_0_821b413377" x="674.849163" y="207.552241" style="fill-opacity: 0.3"/>
    </g>
    <g clip-path="url(#pe2e5b44f2e)">
     <use xlink:href="#C4_0_821b413377" x="669.760132" y="271.331957" style="fill-opacity: 0.3"/>
    </g>
    <g clip-path="url(#pe2e5b44f2e)">
     <use xlink:href="#C4_0_821b413377" x="650.183078" y="169.77492" style="fill-opacity: 0.3"/>
    </g>
    <g clip-path="url(#pe2e5b44f2e)">
     <use xlink:href="#C4_0_821b413377" x="658.468976" y="140.895414" style="fill-opacity: 0.3"/>
    </g>
    <g clip-path="url(#pe2e5b44f2e)">
     <use xlink:href="#C4_0_821b413377" x="671.099531" y="274.823333" style="fill-opacity: 0.3"/>
    </g>
    <g clip-path="url(#pe2e5b44f2e)">
     <use xlink:href="#C4_0_821b413377" x="672.340807" y="220.914771" style="fill-opacity: 0.3"/>
    </g>
    <g clip-path="url(#pe2e5b44f2e)">
     <use xlink:href="#C4_0_821b413377" x="656.50373" y="116.720006" style="fill-opacity: 0.3"/>
    </g>
    <g clip-path="url(#pe2e5b44f2e)">
     <use xlink:href="#C4_0_821b413377" x="666.164906" y="226.397993" style="fill-opacity: 0.3"/>
    </g>
   </g>
   <g id="PathCollection_6">
    <defs>
     <path id="C5_0_32fe2f3691" d="M 0 2.5 
C 0.663008 2.5 1.29895 2.236584 1.767767 1.767767 
C 2.236584 1.29895 2.5 0.663008 2.5 -0 
C 2.5 -0.663008 2.236584 -1.29895 1.767767 -1.767767 
C 1.29895 -2.236584 0.663008 -2.5 0 -2.5 
C -0.663008 -2.5 -1.29895 -2.236584 -1.767767 -1.767767 
C -2.236584 -1.29895 -2.5 -0.663008 -2.5 0 
C -2.5 0.663008 -2.236584 1.29895 -1.767767 1.767767 
C -1.29895 2.236584 -0.663008 2.5 0 2.5 
z
"/>
    </defs>
    <g clip-path="url(#pe2e5b44f2e)">
     <use xlink:href="#C5_0_32fe2f3691" x="765.713883" y="362.177742" style="fill: #ff0000; fill-opacity: 0.3"/>
    </g>
    <g clip-path="url(#pe2e5b44f2e)">
     <use xlink:href="#C5_0_32fe2f3691" x="761.12102" y="165.849945" style="fill: #ff0000; fill-opacity: 0.3"/>
    </g>
    <g clip-path="url(#pe2e5b44f2e)">
     <use xlink:href="#C5_0_32fe2f3691" x="772.348624" y="193.884836" style="fill: #ff0000; fill-opacity: 0.3"/>
    </g>
    <g clip-path="url(#pe2e5b44f2e)">
     <use xlink:href="#C5_0_32fe2f3691" x="769.578113" y="118.786377" style="fill: #ff0000; fill-opacity: 0.3"/>
    </g>
    <g clip-path="url(#pe2e5b44f2e)">
     <use xlink:href="#C5_0_32fe2f3691" x="768.309302" y="257.328061" style="fill: #ff0000; fill-opacity: 0.3"/>
    </g>
    <g clip-path="url(#pe2e5b44f2e)">
     <use xlink:href="#C5_0_32fe2f3691" x="764.138467" y="241.585253" style="fill: #ff0000; fill-opacity: 0.3"/>
    </g>
    <g clip-path="url(#pe2e5b44f2e)">
     <use xlink:href="#C5_0_32fe2f3691" x="780.609472" y="259.778348" style="fill: #ff0000; fill-opacity: 0.3"/>
    </g>
    <g clip-path="url(#pe2e5b44f2e)">
     <use xlink:href="#C5_0_32fe2f3691" x="775.230358" y="260.119356" style="fill: #ff0000; fill-opacity: 0.3"/>
    </g>
    <g clip-path="url(#pe2e5b44f2e)">
     <use xlink:href="#C5_0_32fe2f3691" x="771.440112" y="229.372212" style="fill: #ff0000; fill-opacity: 0.3"/>
    </g>
    <g clip-path="url(#pe2e5b44f2e)">
     <use xlink:href="#C5_0_32fe2f3691" x="758.593345" y="197.060046" style="fill: #ff0000; fill-opacity: 0.3"/>
    </g>
    <g clip-path="url(#pe2e5b44f2e)">
     <use xlink:href="#C5_0_32fe2f3691" x="768.74086" y="115.629233" style="fill: #ff0000; fill-opacity: 0.3"/>
    </g>
    <g clip-path="url(#pe2e5b44f2e)">
     <use xlink:href="#C5_0_32fe2f3691" x="782.280886" y="288.219738" style="fill: #ff0000; fill-opacity: 0.3"/>
    </g>
   </g>
  </g>
  <g id="text_14">
   <!-- time_combo -->
   <g transform="translate(385.128594 424.08) scale(0.14 -0.14)">
    <defs>
     <path id="DejaVuSans-62" d="M 3116 1747 
Q 3116 2381 2855 2742 
Q 2594 3103 2138 3103 
Q 1681 3103 1420 2742 
Q 1159 2381 1159 1747 
Q 1159 1113 1420 752 
Q 1681 391 2138 391 
Q 2594 391 2855 752 
Q 3116 1113 3116 1747 
z
M 1159 2969 
Q 1341 3281 1617 3432 
Q 1894 3584 2278 3584 
Q 2916 3584 3314 3078 
Q 3713 2572 3713 1747 
Q 3713 922 3314 415 
Q 2916 -91 2278 -91 
Q 1894 -91 1617 61 
Q 1341 213 1159 525 
L 1159 0 
L 581 0 
L 581 4863 
L 1159 4863 
L 1159 2969 
z
" transform="scale(0.015625)"/>
    </defs>
    <use xlink:href="#DejaVuSans-74"/>
    <use xlink:href="#DejaVuSans-69" transform="translate(39.208984 0)"/>
    <use xlink:href="#DejaVuSans-6d" transform="translate(66.992188 0)"/>
    <use xlink:href="#DejaVuSans-65" transform="translate(164.404297 0)"/>
    <use xlink:href="#DejaVuSans-5f" transform="translate(225.927734 0)"/>
    <use xlink:href="#DejaVuSans-63" transform="translate(275.927734 0)"/>
    <use xlink:href="#DejaVuSans-6f" transform="translate(330.908203 0)"/>
    <use xlink:href="#DejaVuSans-6d" transform="translate(392.089844 0)"/>
    <use xlink:href="#DejaVuSans-62" transform="translate(489.501953 0)"/>
    <use xlink:href="#DejaVuSans-6f" transform="translate(552.978516 0)"/>
   </g>
  </g>
 </g>
 <defs>
  <clipPath id="pe2e5b44f2e">
   <rect x="50.421875" y="7.2" width="798.89875" height="354.98"/>
  </clipPath>
 </defs>
</svg>
