<?xml version="1.0" encoding="utf-8" standalone="no"?>
<!DOCTYPE svg PUBLIC "-//W3C//DTD SVG 1.1//EN"
  "http://www.w3.org/Graphics/SVG/1.1/DTD/svg11.dtd">
<svg xmlns:xlink="http://www.w3.org/1999/xlink" width="856.520625pt" height="434.580937pt" viewBox="0 0 856.520625 434.580937" xmlns="http://www.w3.org/2000/svg" version="1.1">
 <metadata>
  <rdf:RDF xmlns:dc="http://purl.org/dc/elements/1.1/" xmlns:cc="http://creativecommons.org/ns#" xmlns:rdf="http://www.w3.org/1999/02/22-rdf-syntax-ns#">
   <cc:Work>
    <dc:type rdf:resource="http://purl.org/dc/dcmitype/StillImage"/>
    <dc:date>2025-11-29T21:06:42.156575</dc:date>
    <dc:format>image/svg+xml</dc:format>
    <dc:creator>
     <cc:Agent>
      <dc:title>Matplotlib v3.10.0, https://matplotlib.org/</dc:title>
     </cc:Agent>
    </dc:creator>
   </cc:Work>
  </rdf:RDF>
 </metadata>
 <defs>
  <style type="text/css">*{stroke-linejoin: round; stroke-linecap: butt}</style>
 </defs>
 <g id="figure_1">
  <g id="patch_1">
   <path d="M 0 434.580937 
L 856.520625 434.580937 
L 856.520625 -0 
L 0 -0 
L 0 434.580937 
z
" style="fill: none"/>
  </g>
  <g id="axes_1">
   <g id="patch_2">
    <path d="M 50.421875 362.18 
L 849.320625 362.18 
L 849.320625 7.2 
L 50.421875 7.2 
L 50.421875 362.18 
z
" style="fill: none"/>
   </g>
   <g id="patch_3">
    <path d="M 86.735455 362.18 
L 190.488539 362.18 
L 190.488539 183.031044 
L 86.735455 183.031044 
L 86.735455 362.18 
z
" clip-path="url(#pf050c14c91)" style="fill: none; opacity: 0"/>
   </g>
   <g id="patch_4">
    <path d="M 346.118166 362.18 
L 449.87125 362.18 
L 449.87125 183.031044 
L 346.118166 183.031044 
L 346.118166 362.18 
z
" clip-path="url(#pf050c14c91)" style="fill: none; opacity: 0"/>
   </g>
   <g id="patch_5">
    <path d="M 605.500877 362.18 
L 709.253961 362.18 
L 709.253961 183.031044 
L 605.500877 183.031044 
L 605.500877 362.18 
z
" clip-path="url(#pf050c14c91)" style="fill: none; opacity: 0"/>
   </g>
   <g id="patch_6">
    <path d="M 190.488539 362.18 
L 294.241623 362.18 
L 294.241623 154.655428 
L 190.488539 154.655428 
L 190.488539 362.18 
z
" clip-path="url(#pf050c14c91)" style="fill: none; opacity: 0"/>
   </g>
   <g id="patch_7">
    <path d="M 449.87125 362.18 
L 553.624334 362.18 
L 553.624334 154.543852 
L 449.87125 154.543852 
L 449.87125 362.18 
z
" clip-path="url(#pf050c14c91)" style="fill: none; opacity: 0"/>
   </g>
   <g id="patch_8">
    <path d="M 709.253961 362.18 
L 813.007045 362.18 
L 813.007045 187.307424 
L 709.253961 187.307424 
L 709.253961 362.18 
z
" clip-path="url(#pf050c14c91)" style="fill: none; opacity: 0"/>
   </g>
   <g id="matplotlib.axis_1">
    <g id="xtick_1">
     <g id="line2d_1">
      <defs>
       <path id="mb6fb9d6e72" d="M 0 0 
L 0 3.5 
" style="stroke: #000000; stroke-width: 0.8"/>
      </defs>
      <g>
       <use xlink:href="#mb6fb9d6e72" x="190.488539" y="362.18" style="stroke: #000000; stroke-width: 0.8"/>
      </g>
     </g>
     <g id="text_1">
      <!-- 11_18_25 -->
      <g transform="translate(193.02057 417.355) rotate(-90) scale(0.1 -0.1)">
       <defs>
        <path id="DejaVuSans-31" d="M 794 531 
L 1825 531 
L 1825 4091 
L 703 3866 
L 703 4441 
L 1819 4666 
L 2450 4666 
L 2450 531 
L 3481 531 
L 3481 0 
L 794 0 
L 794 531 
z
" transform="scale(0.015625)"/>
        <path id="DejaVuSans-5f" d="M 3263 -1063 
L 3263 -1509 
L -63 -1509 
L -63 -1063 
L 3263 -1063 
z
" transform="scale(0.015625)"/>
        <path id="DejaVuSans-38" d="M 2034 2216 
Q 1584 2216 1326 1975 
Q 1069 1734 1069 1313 
Q 1069 891 1326 650 
Q 1584 409 2034 409 
Q 2484 409 2743 651 
Q 3003 894 3003 1313 
Q 3003 1734 2745 1975 
Q 2488 2216 2034 2216 
z
M 1403 2484 
Q 997 2584 770 2862 
Q 544 3141 544 3541 
Q 544 4100 942 4425 
Q 1341 4750 2034 4750 
Q 2731 4750 3128 4425 
Q 3525 4100 3525 3541 
Q 3525 3141 3298 2862 
Q 3072 2584 2669 2484 
Q 3125 2378 3379 2068 
Q 3634 1759 3634 1313 
Q 3634 634 3220 271 
Q 2806 -91 2034 -91 
Q 1263 -91 848 271 
Q 434 634 434 1313 
Q 434 1759 690 2068 
Q 947 2378 1403 2484 
z
M 1172 3481 
Q 1172 3119 1398 2916 
Q 1625 2713 2034 2713 
Q 2441 2713 2670 2916 
Q 2900 3119 2900 3481 
Q 2900 3844 2670 4047 
Q 2441 4250 2034 4250 
Q 1625 4250 1398 4047 
Q 1172 3844 1172 3481 
z
" transform="scale(0.015625)"/>
        <path id="DejaVuSans-32" d="M 1228 531 
L 3431 531 
L 3431 0 
L 469 0 
L 469 531 
Q 828 903 1448 1529 
Q 2069 2156 2228 2338 
Q 2531 2678 2651 2914 
Q 2772 3150 2772 3378 
Q 2772 3750 2511 3984 
Q 2250 4219 1831 4219 
Q 1534 4219 1204 4116 
Q 875 4013 500 3803 
L 500 4441 
Q 881 4594 1212 4672 
Q 1544 4750 1819 4750 
Q 2544 4750 2975 4387 
Q 3406 4025 3406 3419 
Q 3406 3131 3298 2873 
Q 3191 2616 2906 2266 
Q 2828 2175 2409 1742 
Q 1991 1309 1228 531 
z
" transform="scale(0.015625)"/>
        <path id="DejaVuSans-35" d="M 691 4666 
L 3169 4666 
L 3169 4134 
L 1269 4134 
L 1269 2991 
Q 1406 3038 1543 3061 
Q 1681 3084 1819 3084 
Q 2600 3084 3056 2656 
Q 3513 2228 3513 1497 
Q 3513 744 3044 326 
Q 2575 -91 1722 -91 
Q 1428 -91 1123 -41 
Q 819 9 494 109 
L 494 744 
Q 775 591 1075 516 
Q 1375 441 1709 441 
Q 2250 441 2565 725 
Q 2881 1009 2881 1497 
Q 2881 1984 2565 2268 
Q 2250 2553 1709 2553 
Q 1456 2553 1204 2497 
Q 953 2441 691 2322 
L 691 4666 
z
" transform="scale(0.015625)"/>
       </defs>
       <use xlink:href="#DejaVuSans-31"/>
       <use xlink:href="#DejaVuSans-31" transform="translate(63.623047 0)"/>
       <use xlink:href="#DejaVuSans-5f" transform="translate(127.246094 0)"/>
       <use xlink:href="#DejaVuSans-31" transform="translate(177.246094 0)"/>
       <use xlink:href="#DejaVuSans-38" transform="translate(240.869141 0)"/>
       <use xlink:href="#DejaVuSans-5f" transform="translate(304.492188 0)"/>
       <use xlink:href="#DejaVuSans-32" transform="translate(354.492188 0)"/>
       <use xlink:href="#DejaVuSans-35" transform="translate(418.115234 0)"/>
      </g>
     </g>
    </g>
    <g id="xtick_2">
     <g id="line2d_2">
      <g>
       <use xlink:href="#mb6fb9d6e72" x="449.87125" y="362.18" style="stroke: #000000; stroke-width: 0.8"/>
      </g>
     </g>
     <g id="text_2">
      <!-- 4_24_23 -->
      <g transform="translate(452.403281 410.9925) rotate(-90) scale(0.1 -0.1)">
       <defs>
        <path id="DejaVuSans-34" d="M 2419 4116 
L 825 1625 
L 2419 1625 
L 2419 4116 
z
M 2253 4666 
L 3047 4666 
L 3047 1625 
L 3713 1625 
L 3713 1100 
L 3047 1100 
L 3047 0 
L 2419 0 
L 2419 1100 
L 313 1100 
L 313 1709 
L 2253 4666 
z
" transform="scale(0.015625)"/>
        <path id="DejaVuSans-33" d="M 2597 2516 
Q 3050 2419 3304 2112 
Q 3559 1806 3559 1356 
Q 3559 666 3084 287 
Q 2609 -91 1734 -91 
Q 1441 -91 1130 -33 
Q 819 25 488 141 
L 488 750 
Q 750 597 1062 519 
Q 1375 441 1716 441 
Q 2309 441 2620 675 
Q 2931 909 2931 1356 
Q 2931 1769 2642 2001 
Q 2353 2234 1838 2234 
L 1294 2234 
L 1294 2753 
L 1863 2753 
Q 2328 2753 2575 2939 
Q 2822 3125 2822 3475 
Q 2822 3834 2567 4026 
Q 2313 4219 1838 4219 
Q 1578 4219 1281 4162 
Q 984 4106 628 3988 
L 628 4550 
Q 988 4650 1302 4700 
Q 1616 4750 1894 4750 
Q 2613 4750 3031 4423 
Q 3450 4097 3450 3541 
Q 3450 3153 3228 2886 
Q 3006 2619 2597 2516 
z
" transform="scale(0.015625)"/>
       </defs>
       <use xlink:href="#DejaVuSans-34"/>
       <use xlink:href="#DejaVuSans-5f" transform="translate(63.623047 0)"/>
       <use xlink:href="#DejaVuSans-32" transform="translate(113.623047 0)"/>
       <use xlink:href="#DejaVuSans-34" transform="translate(177.246094 0)"/>
       <use xlink:href="#DejaVuSans-5f" transform="translate(240.869141 0)"/>
       <use xlink:href="#DejaVuSans-32" transform="translate(290.869141 0)"/>
       <use xlink:href="#DejaVuSans-33" transform="translate(354.492188 0)"/>
      </g>
     </g>
    </g>
    <g id="xtick_3">
     <g id="line2d_3">
      <g>
       <use xlink:href="#mb6fb9d6e72" x="709.253961" y="362.18" style="stroke: #000000; stroke-width: 0.8"/>
      </g>
     </g>
     <g id="text_3">
      <!-- 6_6_25 -->
      <g transform="translate(711.785992 404.63) rotate(-90) scale(0.1 -0.1)">
       <defs>
        <path id="DejaVuSans-36" d="M 2113 2584 
Q 1688 2584 1439 2293 
Q 1191 2003 1191 1497 
Q 1191 994 1439 701 
Q 1688 409 2113 409 
Q 2538 409 2786 701 
Q 3034 994 3034 1497 
Q 3034 2003 2786 2293 
Q 2538 2584 2113 2584 
z
M 3366 4563 
L 3366 3988 
Q 3128 4100 2886 4159 
Q 2644 4219 2406 4219 
Q 1781 4219 1451 3797 
Q 1122 3375 1075 2522 
Q 1259 2794 1537 2939 
Q 1816 3084 2150 3084 
Q 2853 3084 3261 2657 
Q 3669 2231 3669 1497 
Q 3669 778 3244 343 
Q 2819 -91 2113 -91 
Q 1303 -91 875 529 
Q 447 1150 447 2328 
Q 447 3434 972 4092 
Q 1497 4750 2381 4750 
Q 2619 4750 2861 4703 
Q 3103 4656 3366 4563 
z
" transform="scale(0.015625)"/>
       </defs>
       <use xlink:href="#DejaVuSans-36"/>
       <use xlink:href="#DejaVuSans-5f" transform="translate(63.623047 0)"/>
       <use xlink:href="#DejaVuSans-36" transform="translate(113.623047 0)"/>
       <use xlink:href="#DejaVuSans-5f" transform="translate(177.246094 0)"/>
       <use xlink:href="#DejaVuSans-32" transform="translate(227.246094 0)"/>
       <use xlink:href="#DejaVuSans-35" transform="translate(290.869141 0)"/>
      </g>
     </g>
    </g>
   </g>
   <g id="matplotlib.axis_2">
    <g id="ytick_1">
     <g id="line2d_4">
      <defs>
       <path id="m5d51160f49" d="M 0 0 
L -3.5 0 
" style="stroke: #000000; stroke-width: 0.8"/>
      </defs>
      <g>
       <use xlink:href="#m5d51160f49" x="50.421875" y="362.18" style="stroke: #000000; stroke-width: 0.8"/>
      </g>
     </g>
     <g id="text_4">
      <!-- 0.00 -->
      <g transform="translate(21.15625 365.979219) scale(0.1 -0.1)">
       <defs>
        <path id="DejaVuSans-30" d="M 2034 4250 
Q 1547 4250 1301 3770 
Q 1056 3291 1056 2328 
Q 1056 1369 1301 889 
Q 1547 409 2034 409 
Q 2525 409 2770 889 
Q 3016 1369 3016 2328 
Q 3016 3291 2770 3770 
Q 2525 4250 2034 4250 
z
M 2034 4750 
Q 2819 4750 3233 4129 
Q 3647 3509 3647 2328 
Q 3647 1150 3233 529 
Q 2819 -91 2034 -91 
Q 1250 -91 836 529 
Q 422 1150 422 2328 
Q 422 3509 836 4129 
Q 1250 4750 2034 4750 
z
" transform="scale(0.015625)"/>
        <path id="DejaVuSans-2e" d="M 684 794 
L 1344 794 
L 1344 0 
L 684 0 
L 684 794 
z
" transform="scale(0.015625)"/>
       </defs>
       <use xlink:href="#DejaVuSans-30"/>
       <use xlink:href="#DejaVuSans-2e" transform="translate(63.623047 0)"/>
       <use xlink:href="#DejaVuSans-30" transform="translate(95.410156 0)"/>
       <use xlink:href="#DejaVuSans-30" transform="translate(159.033203 0)"/>
      </g>
     </g>
    </g>
    <g id="ytick_2">
     <g id="line2d_5">
      <g>
       <use xlink:href="#m5d51160f49" x="50.421875" y="317.392761" style="stroke: #000000; stroke-width: 0.8"/>
      </g>
     </g>
     <g id="text_5">
      <!-- 0.25 -->
      <g transform="translate(21.15625 321.19198) scale(0.1 -0.1)">
       <use xlink:href="#DejaVuSans-30"/>
       <use xlink:href="#DejaVuSans-2e" transform="translate(63.623047 0)"/>
       <use xlink:href="#DejaVuSans-32" transform="translate(95.410156 0)"/>
       <use xlink:href="#DejaVuSans-35" transform="translate(159.033203 0)"/>
      </g>
     </g>
    </g>
    <g id="ytick_3">
     <g id="line2d_6">
      <g>
       <use xlink:href="#m5d51160f49" x="50.421875" y="272.605522" style="stroke: #000000; stroke-width: 0.8"/>
      </g>
     </g>
     <g id="text_6">
      <!-- 0.50 -->
      <g transform="translate(21.15625 276.404741) scale(0.1 -0.1)">
       <use xlink:href="#DejaVuSans-30"/>
       <use xlink:href="#DejaVuSans-2e" transform="translate(63.623047 0)"/>
       <use xlink:href="#DejaVuSans-35" transform="translate(95.410156 0)"/>
       <use xlink:href="#DejaVuSans-30" transform="translate(159.033203 0)"/>
      </g>
     </g>
    </g>
    <g id="ytick_4">
     <g id="line2d_7">
      <g>
       <use xlink:href="#m5d51160f49" x="50.421875" y="227.818283" style="stroke: #000000; stroke-width: 0.8"/>
      </g>
     </g>
     <g id="text_7">
      <!-- 0.75 -->
      <g transform="translate(21.15625 231.617502) scale(0.1 -0.1)">
       <defs>
        <path id="DejaVuSans-37" d="M 525 4666 
L 3525 4666 
L 3525 4397 
L 1831 0 
L 1172 0 
L 2766 4134 
L 525 4134 
L 525 4666 
z
" transform="scale(0.015625)"/>
       </defs>
       <use xlink:href="#DejaVuSans-30"/>
       <use xlink:href="#DejaVuSans-2e" transform="translate(63.623047 0)"/>
       <use xlink:href="#DejaVuSans-37" transform="translate(95.410156 0)"/>
       <use xlink:href="#DejaVuSans-35" transform="translate(159.033203 0)"/>
      </g>
     </g>
    </g>
    <g id="ytick_5">
     <g id="line2d_8">
      <g>
       <use xlink:href="#m5d51160f49" x="50.421875" y="183.031044" style="stroke: #000000; stroke-width: 0.8"/>
      </g>
     </g>
     <g id="text_8">
      <!-- 1.00 -->
      <g transform="translate(21.15625 186.830263) scale(0.1 -0.1)">
       <use xlink:href="#DejaVuSans-31"/>
       <use xlink:href="#DejaVuSans-2e" transform="translate(63.623047 0)"/>
       <use xlink:href="#DejaVuSans-30" transform="translate(95.410156 0)"/>
       <use xlink:href="#DejaVuSans-30" transform="translate(159.033203 0)"/>
      </g>
     </g>
    </g>
    <g id="ytick_6">
     <g id="line2d_9">
      <g>
       <use xlink:href="#m5d51160f49" x="50.421875" y="138.243805" style="stroke: #000000; stroke-width: 0.8"/>
      </g>
     </g>
     <g id="text_9">
      <!-- 1.25 -->
      <g transform="translate(21.15625 142.043024) scale(0.1 -0.1)">
       <use xlink:href="#DejaVuSans-31"/>
       <use xlink:href="#DejaVuSans-2e" transform="translate(63.623047 0)"/>
       <use xlink:href="#DejaVuSans-32" transform="translate(95.410156 0)"/>
       <use xlink:href="#DejaVuSans-35" transform="translate(159.033203 0)"/>
      </g>
     </g>
    </g>
    <g id="ytick_7">
     <g id="line2d_10">
      <g>
       <use xlink:href="#m5d51160f49" x="50.421875" y="93.456566" style="stroke: #000000; stroke-width: 0.8"/>
      </g>
     </g>
     <g id="text_10">
      <!-- 1.50 -->
      <g transform="translate(21.15625 97.255785) scale(0.1 -0.1)">
       <use xlink:href="#DejaVuSans-31"/>
       <use xlink:href="#DejaVuSans-2e" transform="translate(63.623047 0)"/>
       <use xlink:href="#DejaVuSans-35" transform="translate(95.410156 0)"/>
       <use xlink:href="#DejaVuSans-30" transform="translate(159.033203 0)"/>
      </g>
     </g>
    </g>
    <g id="ytick_8">
     <g id="line2d_11">
      <g>
       <use xlink:href="#m5d51160f49" x="50.421875" y="48.669327" style="stroke: #000000; stroke-width: 0.8"/>
      </g>
     </g>
     <g id="text_11">
      <!-- 1.75 -->
      <g transform="translate(21.15625 52.468546) scale(0.1 -0.1)">
       <use xlink:href="#DejaVuSans-31"/>
       <use xlink:href="#DejaVuSans-2e" transform="translate(63.623047 0)"/>
       <use xlink:href="#DejaVuSans-37" transform="translate(95.410156 0)"/>
       <use xlink:href="#DejaVuSans-35" transform="translate(159.033203 0)"/>
      </g>
     </g>
    </g>
    <g id="text_12">
     <!-- Normalized dpix_boutcumulativemovement: Binned - 3600 -->
     <g transform="translate(14.798438 332.418906) rotate(-90) scale(0.1 -0.1)">
      <defs>
       <path id="DejaVuSans-4e" d="M 628 4666 
L 1478 4666 
L 3547 763 
L 3547 4666 
L 4159 4666 
L 4159 0 
L 3309 0 
L 1241 3903 
L 1241 0 
L 628 0 
L 628 4666 
z
" transform="scale(0.015625)"/>
       <path id="DejaVuSans-6f" d="M 1959 3097 
Q 1497 3097 1228 2736 
Q 959 2375 959 1747 
Q 959 1119 1226 758 
Q 1494 397 1959 397 
Q 2419 397 2687 759 
Q 2956 1122 2956 1747 
Q 2956 2369 2687 2733 
Q 2419 3097 1959 3097 
z
M 1959 3584 
Q 2709 3584 3137 3096 
Q 3566 2609 3566 1747 
Q 3566 888 3137 398 
Q 2709 -91 1959 -91 
Q 1206 -91 779 398 
Q 353 888 353 1747 
Q 353 2609 779 3096 
Q 1206 3584 1959 3584 
z
" transform="scale(0.015625)"/>
       <path id="DejaVuSans-72" d="M 2631 2963 
Q 2534 3019 2420 3045 
Q 2306 3072 2169 3072 
Q 1681 3072 1420 2755 
Q 1159 2438 1159 1844 
L 1159 0 
L 581 0 
L 581 3500 
L 1159 3500 
L 1159 2956 
Q 1341 3275 1631 3429 
Q 1922 3584 2338 3584 
Q 2397 3584 2469 3576 
Q 2541 3569 2628 3553 
L 2631 2963 
z
" transform="scale(0.015625)"/>
       <path id="DejaVuSans-6d" d="M 3328 2828 
Q 3544 3216 3844 3400 
Q 4144 3584 4550 3584 
Q 5097 3584 5394 3201 
Q 5691 2819 5691 2113 
L 5691 0 
L 5113 0 
L 5113 2094 
Q 5113 2597 4934 2840 
Q 4756 3084 4391 3084 
Q 3944 3084 3684 2787 
Q 3425 2491 3425 1978 
L 3425 0 
L 2847 0 
L 2847 2094 
Q 2847 2600 2669 2842 
Q 2491 3084 2119 3084 
Q 1678 3084 1418 2786 
Q 1159 2488 1159 1978 
L 1159 0 
L 581 0 
L 581 3500 
L 1159 3500 
L 1159 2956 
Q 1356 3278 1631 3431 
Q 1906 3584 2284 3584 
Q 2666 3584 2933 3390 
Q 3200 3197 3328 2828 
z
" transform="scale(0.015625)"/>
       <path id="DejaVuSans-61" d="M 2194 1759 
Q 1497 1759 1228 1600 
Q 959 1441 959 1056 
Q 959 750 1161 570 
Q 1363 391 1709 391 
Q 2188 391 2477 730 
Q 2766 1069 2766 1631 
L 2766 1759 
L 2194 1759 
z
M 3341 1997 
L 3341 0 
L 2766 0 
L 2766 531 
Q 2569 213 2275 61 
Q 1981 -91 1556 -91 
Q 1019 -91 701 211 
Q 384 513 384 1019 
Q 384 1609 779 1909 
Q 1175 2209 1959 2209 
L 2766 2209 
L 2766 2266 
Q 2766 2663 2505 2880 
Q 2244 3097 1772 3097 
Q 1472 3097 1187 3025 
Q 903 2953 641 2809 
L 641 3341 
Q 956 3463 1253 3523 
Q 1550 3584 1831 3584 
Q 2591 3584 2966 3190 
Q 3341 2797 3341 1997 
z
" transform="scale(0.015625)"/>
       <path id="DejaVuSans-6c" d="M 603 4863 
L 1178 4863 
L 1178 0 
L 603 0 
L 603 4863 
z
" transform="scale(0.015625)"/>
       <path id="DejaVuSans-69" d="M 603 3500 
L 1178 3500 
L 1178 0 
L 603 0 
L 603 3500 
z
M 603 4863 
L 1178 4863 
L 1178 4134 
L 603 4134 
L 603 4863 
z
" transform="scale(0.015625)"/>
       <path id="DejaVuSans-7a" d="M 353 3500 
L 3084 3500 
L 3084 2975 
L 922 459 
L 3084 459 
L 3084 0 
L 275 0 
L 275 525 
L 2438 3041 
L 353 3041 
L 353 3500 
z
" transform="scale(0.015625)"/>
       <path id="DejaVuSans-65" d="M 3597 1894 
L 3597 1613 
L 953 1613 
Q 991 1019 1311 708 
Q 1631 397 2203 397 
Q 2534 397 2845 478 
Q 3156 559 3463 722 
L 3463 178 
Q 3153 47 2828 -22 
Q 2503 -91 2169 -91 
Q 1331 -91 842 396 
Q 353 884 353 1716 
Q 353 2575 817 3079 
Q 1281 3584 2069 3584 
Q 2775 3584 3186 3129 
Q 3597 2675 3597 1894 
z
M 3022 2063 
Q 3016 2534 2758 2815 
Q 2500 3097 2075 3097 
Q 1594 3097 1305 2825 
Q 1016 2553 972 2059 
L 3022 2063 
z
" transform="scale(0.015625)"/>
       <path id="DejaVuSans-64" d="M 2906 2969 
L 2906 4863 
L 3481 4863 
L 3481 0 
L 2906 0 
L 2906 525 
Q 2725 213 2448 61 
Q 2172 -91 1784 -91 
Q 1150 -91 751 415 
Q 353 922 353 1747 
Q 353 2572 751 3078 
Q 1150 3584 1784 3584 
Q 2172 3584 2448 3432 
Q 2725 3281 2906 2969 
z
M 947 1747 
Q 947 1113 1208 752 
Q 1469 391 1925 391 
Q 2381 391 2643 752 
Q 2906 1113 2906 1747 
Q 2906 2381 2643 2742 
Q 2381 3103 1925 3103 
Q 1469 3103 1208 2742 
Q 947 2381 947 1747 
z
" transform="scale(0.015625)"/>
       <path id="DejaVuSans-20" transform="scale(0.015625)"/>
       <path id="DejaVuSans-70" d="M 1159 525 
L 1159 -1331 
L 581 -1331 
L 581 3500 
L 1159 3500 
L 1159 2969 
Q 1341 3281 1617 3432 
Q 1894 3584 2278 3584 
Q 2916 3584 3314 3078 
Q 3713 2572 3713 1747 
Q 3713 922 3314 415 
Q 2916 -91 2278 -91 
Q 1894 -91 1617 61 
Q 1341 213 1159 525 
z
M 3116 1747 
Q 3116 2381 2855 2742 
Q 2594 3103 2138 3103 
Q 1681 3103 1420 2742 
Q 1159 2381 1159 1747 
Q 1159 1113 1420 752 
Q 1681 391 2138 391 
Q 2594 391 2855 752 
Q 3116 1113 3116 1747 
z
" transform="scale(0.015625)"/>
       <path id="DejaVuSans-78" d="M 3513 3500 
L 2247 1797 
L 3578 0 
L 2900 0 
L 1881 1375 
L 863 0 
L 184 0 
L 1544 1831 
L 300 3500 
L 978 3500 
L 1906 2253 
L 2834 3500 
L 3513 3500 
z
" transform="scale(0.015625)"/>
       <path id="DejaVuSans-62" d="M 3116 1747 
Q 3116 2381 2855 2742 
Q 2594 3103 2138 3103 
Q 1681 3103 1420 2742 
Q 1159 2381 1159 1747 
Q 1159 1113 1420 752 
Q 1681 391 2138 391 
Q 2594 391 2855 752 
Q 3116 1113 3116 1747 
z
M 1159 2969 
Q 1341 3281 1617 3432 
Q 1894 3584 2278 3584 
Q 2916 3584 3314 3078 
Q 3713 2572 3713 1747 
Q 3713 922 3314 415 
Q 2916 -91 2278 -91 
Q 1894 -91 1617 61 
Q 1341 213 1159 525 
L 1159 0 
L 581 0 
L 581 4863 
L 1159 4863 
L 1159 2969 
z
" transform="scale(0.015625)"/>
       <path id="DejaVuSans-75" d="M 544 1381 
L 544 3500 
L 1119 3500 
L 1119 1403 
Q 1119 906 1312 657 
Q 1506 409 1894 409 
Q 2359 409 2629 706 
Q 2900 1003 2900 1516 
L 2900 3500 
L 3475 3500 
L 3475 0 
L 2900 0 
L 2900 538 
Q 2691 219 2414 64 
Q 2138 -91 1772 -91 
Q 1169 -91 856 284 
Q 544 659 544 1381 
z
M 1991 3584 
L 1991 3584 
z
" transform="scale(0.015625)"/>
       <path id="DejaVuSans-74" d="M 1172 4494 
L 1172 3500 
L 2356 3500 
L 2356 3053 
L 1172 3053 
L 1172 1153 
Q 1172 725 1289 603 
Q 1406 481 1766 481 
L 2356 481 
L 2356 0 
L 1766 0 
Q 1100 0 847 248 
Q 594 497 594 1153 
L 594 3053 
L 172 3053 
L 172 3500 
L 594 3500 
L 594 4494 
L 1172 4494 
z
" transform="scale(0.015625)"/>
       <path id="DejaVuSans-63" d="M 3122 3366 
L 3122 2828 
Q 2878 2963 2633 3030 
Q 2388 3097 2138 3097 
Q 1578 3097 1268 2742 
Q 959 2388 959 1747 
Q 959 1106 1268 751 
Q 1578 397 2138 397 
Q 2388 397 2633 464 
Q 2878 531 3122 666 
L 3122 134 
Q 2881 22 2623 -34 
Q 2366 -91 2075 -91 
Q 1284 -91 818 406 
Q 353 903 353 1747 
Q 353 2603 823 3093 
Q 1294 3584 2113 3584 
Q 2378 3584 2631 3529 
Q 2884 3475 3122 3366 
z
" transform="scale(0.015625)"/>
       <path id="DejaVuSans-76" d="M 191 3500 
L 800 3500 
L 1894 563 
L 2988 3500 
L 3597 3500 
L 2284 0 
L 1503 0 
L 191 3500 
z
" transform="scale(0.015625)"/>
       <path id="DejaVuSans-6e" d="M 3513 2113 
L 3513 0 
L 2938 0 
L 2938 2094 
Q 2938 2591 2744 2837 
Q 2550 3084 2163 3084 
Q 1697 3084 1428 2787 
Q 1159 2491 1159 1978 
L 1159 0 
L 581 0 
L 581 3500 
L 1159 3500 
L 1159 2956 
Q 1366 3272 1645 3428 
Q 1925 3584 2291 3584 
Q 2894 3584 3203 3211 
Q 3513 2838 3513 2113 
z
" transform="scale(0.015625)"/>
       <path id="DejaVuSans-3a" d="M 750 794 
L 1409 794 
L 1409 0 
L 750 0 
L 750 794 
z
M 750 3309 
L 1409 3309 
L 1409 2516 
L 750 2516 
L 750 3309 
z
" transform="scale(0.015625)"/>
       <path id="DejaVuSans-42" d="M 1259 2228 
L 1259 519 
L 2272 519 
Q 2781 519 3026 730 
Q 3272 941 3272 1375 
Q 3272 1813 3026 2020 
Q 2781 2228 2272 2228 
L 1259 2228 
z
M 1259 4147 
L 1259 2741 
L 2194 2741 
Q 2656 2741 2882 2914 
Q 3109 3088 3109 3444 
Q 3109 3797 2882 3972 
Q 2656 4147 2194 4147 
L 1259 4147 
z
M 628 4666 
L 2241 4666 
Q 2963 4666 3353 4366 
Q 3744 4066 3744 3513 
Q 3744 3084 3544 2831 
Q 3344 2578 2956 2516 
Q 3422 2416 3680 2098 
Q 3938 1781 3938 1306 
Q 3938 681 3513 340 
Q 3088 0 2303 0 
L 628 0 
L 628 4666 
z
" transform="scale(0.015625)"/>
       <path id="DejaVuSans-2d" d="M 313 2009 
L 1997 2009 
L 1997 1497 
L 313 1497 
L 313 2009 
z
" transform="scale(0.015625)"/>
      </defs>
      <use xlink:href="#DejaVuSans-4e"/>
      <use xlink:href="#DejaVuSans-6f" transform="translate(74.804688 0)"/>
      <use xlink:href="#DejaVuSans-72" transform="translate(135.986328 0)"/>
      <use xlink:href="#DejaVuSans-6d" transform="translate(175.349609 0)"/>
      <use xlink:href="#DejaVuSans-61" transform="translate(272.761719 0)"/>
      <use xlink:href="#DejaVuSans-6c" transform="translate(334.041016 0)"/>
      <use xlink:href="#DejaVuSans-69" transform="translate(361.824219 0)"/>
      <use xlink:href="#DejaVuSans-7a" transform="translate(389.607422 0)"/>
      <use xlink:href="#DejaVuSans-65" transform="translate(442.097656 0)"/>
      <use xlink:href="#DejaVuSans-64" transform="translate(503.621094 0)"/>
      <use xlink:href="#DejaVuSans-20" transform="translate(567.097656 0)"/>
      <use xlink:href="#DejaVuSans-64" transform="translate(598.884766 0)"/>
      <use xlink:href="#DejaVuSans-70" transform="translate(662.361328 0)"/>
      <use xlink:href="#DejaVuSans-69" transform="translate(725.837891 0)"/>
      <use xlink:href="#DejaVuSans-78" transform="translate(753.621094 0)"/>
      <use xlink:href="#DejaVuSans-5f" transform="translate(812.800781 0)"/>
      <use xlink:href="#DejaVuSans-62" transform="translate(862.800781 0)"/>
      <use xlink:href="#DejaVuSans-6f" transform="translate(926.277344 0)"/>
      <use xlink:href="#DejaVuSans-75" transform="translate(987.458984 0)"/>
      <use xlink:href="#DejaVuSans-74" transform="translate(1050.837891 0)"/>
      <use xlink:href="#DejaVuSans-63" transform="translate(1090.046875 0)"/>
      <use xlink:href="#DejaVuSans-75" transform="translate(1145.027344 0)"/>
      <use xlink:href="#DejaVuSans-6d" transform="translate(1208.40625 0)"/>
      <use xlink:href="#DejaVuSans-75" transform="translate(1305.818359 0)"/>
      <use xlink:href="#DejaVuSans-6c" transform="translate(1369.197266 0)"/>
      <use xlink:href="#DejaVuSans-61" transform="translate(1396.980469 0)"/>
      <use xlink:href="#DejaVuSans-74" transform="translate(1458.259766 0)"/>
      <use xlink:href="#DejaVuSans-69" transform="translate(1497.46875 0)"/>
      <use xlink:href="#DejaVuSans-76" transform="translate(1525.251953 0)"/>
      <use xlink:href="#DejaVuSans-65" transform="translate(1584.431641 0)"/>
      <use xlink:href="#DejaVuSans-6d" transform="translate(1645.955078 0)"/>
      <use xlink:href="#DejaVuSans-6f" transform="translate(1743.367188 0)"/>
      <use xlink:href="#DejaVuSans-76" transform="translate(1804.548828 0)"/>
      <use xlink:href="#DejaVuSans-65" transform="translate(1863.728516 0)"/>
      <use xlink:href="#DejaVuSans-6d" transform="translate(1925.251953 0)"/>
      <use xlink:href="#DejaVuSans-65" transform="translate(2022.664062 0)"/>
      <use xlink:href="#DejaVuSans-6e" transform="translate(2084.1875 0)"/>
      <use xlink:href="#DejaVuSans-74" transform="translate(2147.566406 0)"/>
      <use xlink:href="#DejaVuSans-3a" transform="translate(2186.775391 0)"/>
      <use xlink:href="#DejaVuSans-20" transform="translate(2220.466797 0)"/>
      <use xlink:href="#DejaVuSans-42" transform="translate(2252.253906 0)"/>
      <use xlink:href="#DejaVuSans-69" transform="translate(2320.857422 0)"/>
      <use xlink:href="#DejaVuSans-6e" transform="translate(2348.640625 0)"/>
      <use xlink:href="#DejaVuSans-6e" transform="translate(2412.019531 0)"/>
      <use xlink:href="#DejaVuSans-65" transform="translate(2475.398438 0)"/>
      <use xlink:href="#DejaVuSans-64" transform="translate(2536.921875 0)"/>
      <use xlink:href="#DejaVuSans-20" transform="translate(2600.398438 0)"/>
      <use xlink:href="#DejaVuSans-2d" transform="translate(2632.185547 0)"/>
      <use xlink:href="#DejaVuSans-20" transform="translate(2668.269531 0)"/>
      <use xlink:href="#DejaVuSans-33" transform="translate(2700.056641 0)"/>
      <use xlink:href="#DejaVuSans-36" transform="translate(2763.679688 0)"/>
      <use xlink:href="#DejaVuSans-30" transform="translate(2827.302734 0)"/>
      <use xlink:href="#DejaVuSans-30" transform="translate(2890.925781 0)"/>
     </g>
    </g>
   </g>
   <g id="line2d_12">
    <path d="M 125.642861 199.15446 
L 151.581132 199.15446 
M 138.611997 199.15446 
L 138.611997 166.907628 
M 125.642861 166.907628 
L 151.581132 166.907628 
" clip-path="url(#pf050c14c91)" style="fill: none; stroke: #000000; stroke-width: 2; stroke-linecap: square"/>
   </g>
   <g id="line2d_13">
    <path d="M 385.025572 192.947457 
L 410.963843 192.947457 
M 397.994708 192.947457 
L 397.994708 173.114632 
M 385.025572 173.114632 
L 410.963843 173.114632 
" clip-path="url(#pf050c14c91)" style="fill: none; stroke: #000000; stroke-width: 2; stroke-linecap: square"/>
   </g>
   <g id="line2d_14">
    <path d="M 644.408283 193.089618 
L 670.346554 193.089618 
M 657.377419 193.089618 
L 657.377419 172.97247 
M 644.408283 172.97247 
L 670.346554 172.97247 
" clip-path="url(#pf050c14c91)" style="fill: none; stroke: #000000; stroke-width: 2; stroke-linecap: square"/>
   </g>
   <g id="line2d_15">
    <path d="M 229.395946 178.117017 
L 255.334217 178.117017 
M 242.365081 178.117017 
L 242.365081 131.193839 
M 229.395946 131.193839 
L 255.334217 131.193839 
" clip-path="url(#pf050c14c91)" style="fill: none; stroke: #ff0000; stroke-width: 2; stroke-linecap: square"/>
   </g>
   <g id="line2d_16">
    <path d="M 488.778657 161.168681 
L 514.716928 161.168681 
M 501.747792 161.168681 
L 501.747792 147.919023 
M 488.778657 147.919023 
L 514.716928 147.919023 
" clip-path="url(#pf050c14c91)" style="fill: none; stroke: #ff0000; stroke-width: 2; stroke-linecap: square"/>
   </g>
   <g id="line2d_17">
    <path d="M 748.161368 195.40015 
L 774.099639 195.40015 
M 761.130503 195.40015 
L 761.130503 179.214698 
M 748.161368 179.214698 
L 774.099639 179.214698 
" clip-path="url(#pf050c14c91)" style="fill: none; stroke: #ff0000; stroke-width: 2; stroke-linecap: square"/>
   </g>
   <g id="line2d_18">
    <path d="M 397.994708 27.686789 
L 397.994708 24.10381 
L 501.747792 24.10381 
L 501.747792 27.686789 
" clip-path="url(#pf050c14c91)" style="fill: none; stroke: #000000; stroke-width: 1.5; stroke-linecap: square"/>
   </g>
   <g id="patch_9">
    <path d="M 50.421875 362.18 
L 50.421875 48.669327 
" style="fill: none; stroke: #000000; stroke-width: 0.8; stroke-linejoin: miter; stroke-linecap: square"/>
   </g>
   <g id="patch_10">
    <path d="M 190.488539 362.18 
L 709.253961 362.18 
" style="fill: none; stroke: #000000; stroke-width: 0.8; stroke-linejoin: miter; stroke-linecap: square"/>
   </g>
   <g id="PathCollection_1">
    <defs>
     <path id="C0_0_09a5c703a7" d="M 0 2.5 
C 0.663008 2.5 1.29895 2.236584 1.767767 1.767767 
C 2.236584 1.29895 2.5 0.663008 2.5 -0 
C 2.5 -0.663008 2.236584 -1.29895 1.767767 -1.767767 
C 1.29895 -2.236584 0.663008 -2.5 0 -2.5 
C -0.663008 -2.5 -1.29895 -2.236584 -1.767767 -1.767767 
C -2.236584 -1.29895 -2.5 -0.663008 -2.5 0 
C -2.5 0.663008 -2.236584 1.29895 -1.767767 1.767767 
C -1.29895 2.236584 -0.663008 2.5 0 2.5 
z
"/>
    </defs>
    <g clip-path="url(#pf050c14c91)">
     <use xlink:href="#C0_0_09a5c703a7" x="126.493609" y="83.650658" style="fill-opacity: 0.3"/>
    </g>
    <g clip-path="url(#pf050c14c91)">
     <use xlink:href="#C0_0_09a5c703a7" x="138.26977" y="109.273331" style="fill-opacity: 0.3"/>
    </g>
    <g clip-path="url(#pf050c14c91)">
     <use xlink:href="#C0_0_09a5c703a7" x="151.02572" y="154.67789" style="fill-opacity: 0.3"/>
    </g>
    <g clip-path="url(#pf050c14c91)">
     <use xlink:href="#C0_0_09a5c703a7" x="139.712355" y="209.655476" style="fill-opacity: 0.3"/>
    </g>
    <g clip-path="url(#pf050c14c91)">
     <use xlink:href="#C0_0_09a5c703a7" x="136.546134" y="201.303744" style="fill-opacity: 0.3"/>
    </g>
    <g clip-path="url(#pf050c14c91)">
     <use xlink:href="#C0_0_09a5c703a7" x="137.930305" y="212.879293" style="fill-opacity: 0.3"/>
    </g>
    <g clip-path="url(#pf050c14c91)">
     <use xlink:href="#C0_0_09a5c703a7" x="130.084648" y="222.758189" style="fill-opacity: 0.3"/>
    </g>
    <g clip-path="url(#pf050c14c91)">
     <use xlink:href="#C0_0_09a5c703a7" x="150.75843" y="195.93214" style="fill-opacity: 0.3"/>
    </g>
    <g clip-path="url(#pf050c14c91)">
     <use xlink:href="#C0_0_09a5c703a7" x="143.870864" y="240.719696" style="fill-opacity: 0.3"/>
    </g>
    <g clip-path="url(#pf050c14c91)">
     <use xlink:href="#C0_0_09a5c703a7" x="149.712456" y="199.460024" style="fill-opacity: 0.3"/>
    </g>
   </g>
   <g id="PathCollection_2">
    <defs>
     <path id="C1_0_34b4106bdf" d="M 0 2.5 
C 0.663008 2.5 1.29895 2.236584 1.767767 1.767767 
C 2.236584 1.29895 2.5 0.663008 2.5 -0 
C 2.5 -0.663008 2.236584 -1.29895 1.767767 -1.767767 
C 1.29895 -2.236584 0.663008 -2.5 0 -2.5 
C -0.663008 -2.5 -1.29895 -2.236584 -1.767767 -1.767767 
C -2.236584 -1.29895 -2.5 -0.663008 -2.5 0 
C -2.5 0.663008 -2.236584 1.29895 -1.767767 1.767767 
C -1.29895 2.236584 -0.663008 2.5 0 2.5 
z
"/>
    </defs>
    <g clip-path="url(#pf050c14c91)">
     <use xlink:href="#C1_0_34b4106bdf" x="251.405076" y="36.644236" style="fill: #ff0000; fill-opacity: 0.3"/>
    </g>
    <g clip-path="url(#pf050c14c91)">
     <use xlink:href="#C1_0_34b4106bdf" x="239.912714" y="137.203819" style="fill: #ff0000; fill-opacity: 0.3"/>
    </g>
    <g clip-path="url(#pf050c14c91)">
     <use xlink:href="#C1_0_34b4106bdf" x="252.173898" y="160.39648" style="fill: #ff0000; fill-opacity: 0.3"/>
    </g>
    <g clip-path="url(#pf050c14c91)">
     <use xlink:href="#C1_0_34b4106bdf" x="236.686142" y="83.44881" style="fill: #ff0000; fill-opacity: 0.3"/>
    </g>
    <g clip-path="url(#pf050c14c91)">
     <use xlink:href="#C1_0_34b4106bdf" x="247.685819" y="98.54669" style="fill: #ff0000; fill-opacity: 0.3"/>
    </g>
    <g clip-path="url(#pf050c14c91)">
     <use xlink:href="#C1_0_34b4106bdf" x="248.09085" y="231.483296" style="fill: #ff0000; fill-opacity: 0.3"/>
    </g>
    <g clip-path="url(#pf050c14c91)">
     <use xlink:href="#C1_0_34b4106bdf" x="242.496766" y="195.875379" style="fill: #ff0000; fill-opacity: 0.3"/>
    </g>
    <g clip-path="url(#pf050c14c91)">
     <use xlink:href="#C1_0_34b4106bdf" x="253.990176" y="254.757986" style="fill: #ff0000; fill-opacity: 0.3"/>
    </g>
    <g clip-path="url(#pf050c14c91)">
     <use xlink:href="#C1_0_34b4106bdf" x="250.400357" y="239.974455" style="fill: #ff0000; fill-opacity: 0.3"/>
    </g>
    <g clip-path="url(#pf050c14c91)">
     <use xlink:href="#C1_0_34b4106bdf" x="230.827492" y="108.22313" style="fill: #ff0000; fill-opacity: 0.3"/>
    </g>
   </g>
   <g id="PathCollection_3">
    <defs>
     <path id="C2_0_7b36763070" d="M 0 2.5 
C 0.663008 2.5 1.29895 2.236584 1.767767 1.767767 
C 2.236584 1.29895 2.5 0.663008 2.5 -0 
C 2.5 -0.663008 2.236584 -1.29895 1.767767 -1.767767 
C 1.29895 -2.236584 0.663008 -2.5 0 -2.5 
C -0.663008 -2.5 -1.29895 -2.236584 -1.767767 -1.767767 
C -2.236584 -1.29895 -2.5 -0.663008 -2.5 0 
C -2.5 0.663008 -2.236584 1.29895 -1.767767 1.767767 
C -1.29895 2.236584 -0.663008 2.5 0 2.5 
z
"/>
    </defs>
    <g clip-path="url(#pf050c14c91)">
     <use xlink:href="#C2_0_7b36763070" x="394.035239" y="238.204142" style="fill-opacity: 0.3"/>
    </g>
    <g clip-path="url(#pf050c14c91)">
     <use xlink:href="#C2_0_7b36763070" x="410.961189" y="194.710889" style="fill-opacity: 0.3"/>
    </g>
    <g clip-path="url(#pf050c14c91)">
     <use xlink:href="#C2_0_7b36763070" x="392.232061" y="146.381813" style="fill-opacity: 0.3"/>
    </g>
    <g clip-path="url(#pf050c14c91)">
     <use xlink:href="#C2_0_7b36763070" x="407.775836" y="211.78311" style="fill-opacity: 0.3"/>
    </g>
    <g clip-path="url(#pf050c14c91)">
     <use xlink:href="#C2_0_7b36763070" x="396.11552" y="152.514026" style="fill-opacity: 0.3"/>
    </g>
    <g clip-path="url(#pf050c14c91)">
     <use xlink:href="#C2_0_7b36763070" x="391.862418" y="219.05628" style="fill-opacity: 0.3"/>
    </g>
    <g clip-path="url(#pf050c14c91)">
     <use xlink:href="#C2_0_7b36763070" x="392.745728" y="215.726373" style="fill-opacity: 0.3"/>
    </g>
    <g clip-path="url(#pf050c14c91)">
     <use xlink:href="#C2_0_7b36763070" x="392.950231" y="157.120413" style="fill-opacity: 0.3"/>
    </g>
    <g clip-path="url(#pf050c14c91)">
     <use xlink:href="#C2_0_7b36763070" x="393.357377" y="237.586738" style="fill-opacity: 0.3"/>
    </g>
    <g clip-path="url(#pf050c14c91)">
     <use xlink:href="#C2_0_7b36763070" x="409.117443" y="173.472557" style="fill-opacity: 0.3"/>
    </g>
    <g clip-path="url(#pf050c14c91)">
     <use xlink:href="#C2_0_7b36763070" x="403.11303" y="169.824473" style="fill-opacity: 0.3"/>
    </g>
    <g clip-path="url(#pf050c14c91)">
     <use xlink:href="#C2_0_7b36763070" x="386.15403" y="166.747532" style="fill-opacity: 0.3"/>
    </g>
    <g clip-path="url(#pf050c14c91)">
     <use xlink:href="#C2_0_7b36763070" x="409.468722" y="165.213696" style="fill-opacity: 0.3"/>
    </g>
    <g clip-path="url(#pf050c14c91)">
     <use xlink:href="#C2_0_7b36763070" x="388.454304" y="114.092576" style="fill-opacity: 0.3"/>
    </g>
   </g>
   <g id="PathCollection_4">
    <defs>
     <path id="C3_0_f1a63f7989" d="M 0 2.5 
C 0.663008 2.5 1.29895 2.236584 1.767767 1.767767 
C 2.236584 1.29895 2.5 0.663008 2.5 -0 
C 2.5 -0.663008 2.236584 -1.29895 1.767767 -1.767767 
C 1.29895 -2.236584 0.663008 -2.5 0 -2.5 
C -0.663008 -2.5 -1.29895 -2.236584 -1.767767 -1.767767 
C -2.236584 -1.29895 -2.5 -0.663008 -2.5 0 
C -2.5 0.663008 -2.236584 1.29895 -1.767767 1.767767 
C -1.29895 2.236584 -0.663008 2.5 0 2.5 
z
"/>
    </defs>
    <g clip-path="url(#pf050c14c91)">
     <use xlink:href="#C3_0_f1a63f7989" x="508.840682" y="168.804238" style="fill: #ff0000; fill-opacity: 0.3"/>
    </g>
    <g clip-path="url(#pf050c14c91)">
     <use xlink:href="#C3_0_f1a63f7989" x="489.354814" y="157.418362" style="fill: #ff0000; fill-opacity: 0.3"/>
    </g>
    <g clip-path="url(#pf050c14c91)">
     <use xlink:href="#C3_0_f1a63f7989" x="493.939096" y="134.298046" style="fill: #ff0000; fill-opacity: 0.3"/>
    </g>
    <g clip-path="url(#pf050c14c91)">
     <use xlink:href="#C3_0_f1a63f7989" x="489.678491" y="115.123405" style="fill: #ff0000; fill-opacity: 0.3"/>
    </g>
    <g clip-path="url(#pf050c14c91)">
     <use xlink:href="#C3_0_f1a63f7989" x="510.169892" y="200.587917" style="fill: #ff0000; fill-opacity: 0.3"/>
    </g>
    <g clip-path="url(#pf050c14c91)">
     <use xlink:href="#C3_0_f1a63f7989" x="511.098146" y="145.244406" style="fill: #ff0000; fill-opacity: 0.3"/>
    </g>
    <g clip-path="url(#pf050c14c91)">
     <use xlink:href="#C3_0_f1a63f7989" x="500.274238" y="132.382081" style="fill: #ff0000; fill-opacity: 0.3"/>
    </g>
    <g clip-path="url(#pf050c14c91)">
     <use xlink:href="#C3_0_f1a63f7989" x="492.067284" y="147.359929" style="fill: #ff0000; fill-opacity: 0.3"/>
    </g>
    <g clip-path="url(#pf050c14c91)">
     <use xlink:href="#C3_0_f1a63f7989" x="504.87651" y="113.867926" style="fill: #ff0000; fill-opacity: 0.3"/>
    </g>
    <g clip-path="url(#pf050c14c91)">
     <use xlink:href="#C3_0_f1a63f7989" x="507.415079" y="208.563704" style="fill: #ff0000; fill-opacity: 0.3"/>
    </g>
    <g clip-path="url(#pf050c14c91)">
     <use xlink:href="#C3_0_f1a63f7989" x="513.48741" y="179.011006" style="fill: #ff0000; fill-opacity: 0.3"/>
    </g>
    <g clip-path="url(#pf050c14c91)">
     <use xlink:href="#C3_0_f1a63f7989" x="504.802315" y="164.649903" style="fill: #ff0000; fill-opacity: 0.3"/>
    </g>
    <g clip-path="url(#pf050c14c91)">
     <use xlink:href="#C3_0_f1a63f7989" x="497.958952" y="175.858338" style="fill: #ff0000; fill-opacity: 0.3"/>
    </g>
    <g clip-path="url(#pf050c14c91)">
     <use xlink:href="#C3_0_f1a63f7989" x="492.734321" y="153.780211" style="fill: #ff0000; fill-opacity: 0.3"/>
    </g>
    <g clip-path="url(#pf050c14c91)">
     <use xlink:href="#C3_0_f1a63f7989" x="510.035364" y="191.217784" style="fill: #ff0000; fill-opacity: 0.3"/>
    </g>
    <g clip-path="url(#pf050c14c91)">
     <use xlink:href="#C3_0_f1a63f7989" x="496.30039" y="118.984824" style="fill: #ff0000; fill-opacity: 0.3"/>
    </g>
    <g clip-path="url(#pf050c14c91)">
     <use xlink:href="#C3_0_f1a63f7989" x="495.597235" y="155.080901" style="fill: #ff0000; fill-opacity: 0.3"/>
    </g>
    <g clip-path="url(#pf050c14c91)">
     <use xlink:href="#C3_0_f1a63f7989" x="499.213455" y="113.228556" style="fill: #ff0000; fill-opacity: 0.3"/>
    </g>
    <g clip-path="url(#pf050c14c91)">
     <use xlink:href="#C3_0_f1a63f7989" x="514.385757" y="160.871648" style="fill: #ff0000; fill-opacity: 0.3"/>
    </g>
   </g>
   <g id="PathCollection_5">
    <defs>
     <path id="C4_0_571200197d" d="M 0 2.5 
C 0.663008 2.5 1.29895 2.236584 1.767767 1.767767 
C 2.236584 1.29895 2.5 0.663008 2.5 -0 
C 2.5 -0.663008 2.236584 -1.29895 1.767767 -1.767767 
C 1.29895 -2.236584 0.663008 -2.5 0 -2.5 
C -0.663008 -2.5 -1.29895 -2.236584 -1.767767 -1.767767 
C -2.236584 -1.29895 -2.5 -0.663008 -2.5 0 
C -2.5 0.663008 -2.236584 1.29895 -1.767767 1.767767 
C -1.29895 2.236584 -0.663008 2.5 0 2.5 
z
"/>
    </defs>
    <g clip-path="url(#pf050c14c91)">
     <use xlink:href="#C4_0_571200197d" x="659.840946" y="189.423332" style="fill-opacity: 0.3"/>
    </g>
    <g clip-path="url(#pf050c14c91)">
     <use xlink:href="#C4_0_571200197d" x="651.248234" y="215.553417" style="fill-opacity: 0.3"/>
    </g>
    <g clip-path="url(#pf050c14c91)">
     <use xlink:href="#C4_0_571200197d" x="652.842369" y="190.62466" style="fill-opacity: 0.3"/>
    </g>
    <g clip-path="url(#pf050c14c91)">
     <use xlink:href="#C4_0_571200197d" x="658.077183" y="145.708708" style="fill-opacity: 0.3"/>
    </g>
    <g clip-path="url(#pf050c14c91)">
     <use xlink:href="#C4_0_571200197d" x="649.967986" y="181.730051" style="fill-opacity: 0.3"/>
    </g>
    <g clip-path="url(#pf050c14c91)">
     <use xlink:href="#C4_0_571200197d" x="663.201173" y="105.051885" style="fill-opacity: 0.3"/>
    </g>
    <g clip-path="url(#pf050c14c91)">
     <use xlink:href="#C4_0_571200197d" x="653.383547" y="158.663284" style="fill-opacity: 0.3"/>
    </g>
    <g clip-path="url(#pf050c14c91)">
     <use xlink:href="#C4_0_571200197d" x="661.072749" y="126.595516" style="fill-opacity: 0.3"/>
    </g>
    <g clip-path="url(#pf050c14c91)">
     <use xlink:href="#C4_0_571200197d" x="651.182665" y="187.792408" style="fill-opacity: 0.3"/>
    </g>
    <g clip-path="url(#pf050c14c91)">
     <use xlink:href="#C4_0_571200197d" x="661.67803" y="193.256572" style="fill-opacity: 0.3"/>
    </g>
    <g clip-path="url(#pf050c14c91)">
     <use xlink:href="#C4_0_571200197d" x="645.391583" y="211.731866" style="fill-opacity: 0.3"/>
    </g>
    <g clip-path="url(#pf050c14c91)">
     <use xlink:href="#C4_0_571200197d" x="646.958408" y="244.013707" style="fill-opacity: 0.3"/>
    </g>
    <g clip-path="url(#pf050c14c91)">
     <use xlink:href="#C4_0_571200197d" x="655.001176" y="194.631105" style="fill-opacity: 0.3"/>
    </g>
    <g clip-path="url(#pf050c14c91)">
     <use xlink:href="#C4_0_571200197d" x="666.370501" y="217.658105" style="fill-opacity: 0.3"/>
    </g>
   </g>
   <g id="PathCollection_6">
    <defs>
     <path id="C5_0_f0e9968976" d="M 0 2.5 
C 0.663008 2.5 1.29895 2.236584 1.767767 1.767767 
C 2.236584 1.29895 2.5 0.663008 2.5 -0 
C 2.5 -0.663008 2.236584 -1.29895 1.767767 -1.767767 
C 1.29895 -2.236584 0.663008 -2.5 0 -2.5 
C -0.663008 -2.5 -1.29895 -2.236584 -1.767767 -1.767767 
C -2.236584 -1.29895 -2.5 -0.663008 -2.5 0 
C -2.5 0.663008 -2.236584 1.29895 -1.767767 1.767767 
C -1.29895 2.236584 -0.663008 2.5 0 2.5 
z
"/>
    </defs>
    <g clip-path="url(#pf050c14c91)">
     <use xlink:href="#C5_0_f0e9968976" x="765.684126" y="197.12298" style="fill: #ff0000; fill-opacity: 0.3"/>
    </g>
    <g clip-path="url(#pf050c14c91)">
     <use xlink:href="#C5_0_f0e9968976" x="748.513458" y="222.194975" style="fill: #ff0000; fill-opacity: 0.3"/>
    </g>
    <g clip-path="url(#pf050c14c91)">
     <use xlink:href="#C5_0_f0e9968976" x="758.394332" y="167.206279" style="fill: #ff0000; fill-opacity: 0.3"/>
    </g>
    <g clip-path="url(#pf050c14c91)">
     <use xlink:href="#C5_0_f0e9968976" x="750.993332" y="156.404932" style="fill: #ff0000; fill-opacity: 0.3"/>
    </g>
    <g clip-path="url(#pf050c14c91)">
     <use xlink:href="#C5_0_f0e9968976" x="757.824922" y="189.288853" style="fill: #ff0000; fill-opacity: 0.3"/>
    </g>
    <g clip-path="url(#pf050c14c91)">
     <use xlink:href="#C5_0_f0e9968976" x="771.471858" y="204.600225" style="fill: #ff0000; fill-opacity: 0.3"/>
    </g>
    <g clip-path="url(#pf050c14c91)">
     <use xlink:href="#C5_0_f0e9968976" x="770.177181" y="138.427162" style="fill: #ff0000; fill-opacity: 0.3"/>
    </g>
    <g clip-path="url(#pf050c14c91)">
     <use xlink:href="#C5_0_f0e9968976" x="761.388457" y="201.47746" style="fill: #ff0000; fill-opacity: 0.3"/>
    </g>
    <g clip-path="url(#pf050c14c91)">
     <use xlink:href="#C5_0_f0e9968976" x="764.228812" y="178.801962" style="fill: #ff0000; fill-opacity: 0.3"/>
    </g>
    <g clip-path="url(#pf050c14c91)">
     <use xlink:href="#C5_0_f0e9968976" x="766.180865" y="178.880935" style="fill: #ff0000; fill-opacity: 0.3"/>
    </g>
    <g clip-path="url(#pf050c14c91)">
     <use xlink:href="#C5_0_f0e9968976" x="758.494678" y="225.975906" style="fill: #ff0000; fill-opacity: 0.3"/>
    </g>
   </g>
   <g id="text_13">
    <!-- * -->
    <g transform="translate(446.37125 20.296502) scale(0.14 -0.14)">
     <defs>
      <path id="DejaVuSans-2a" d="M 3009 3897 
L 1888 3291 
L 3009 2681 
L 2828 2375 
L 1778 3009 
L 1778 1831 
L 1422 1831 
L 1422 3009 
L 372 2375 
L 191 2681 
L 1313 3291 
L 191 3897 
L 372 4206 
L 1422 3572 
L 1422 4750 
L 1778 4750 
L 1778 3572 
L 2828 4206 
L 3009 3897 
z
" transform="scale(0.015625)"/>
     </defs>
     <use xlink:href="#DejaVuSans-2a"/>
    </g>
   </g>
  </g>
  <g id="text_14">
   <!-- time_combo -->
   <g transform="translate(385.128594 424.08) scale(0.14 -0.14)">
    <use xlink:href="#DejaVuSans-74"/>
    <use xlink:href="#DejaVuSans-69" transform="translate(39.208984 0)"/>
    <use xlink:href="#DejaVuSans-6d" transform="translate(66.992188 0)"/>
    <use xlink:href="#DejaVuSans-65" transform="translate(164.404297 0)"/>
    <use xlink:href="#DejaVuSans-5f" transform="translate(225.927734 0)"/>
    <use xlink:href="#DejaVuSans-63" transform="translate(275.927734 0)"/>
    <use xlink:href="#DejaVuSans-6f" transform="translate(330.908203 0)"/>
    <use xlink:href="#DejaVuSans-6d" transform="translate(392.089844 0)"/>
    <use xlink:href="#DejaVuSans-62" transform="translate(489.501953 0)"/>
    <use xlink:href="#DejaVuSans-6f" transform="translate(552.978516 0)"/>
   </g>
  </g>
 </g>
 <defs>
  <clipPath id="pf050c14c91">
   <rect x="50.421875" y="7.2" width="798.89875" height="354.98"/>
  </clipPath>
 </defs>
</svg>
