<?xml version="1.0" encoding="utf-8" standalone="no"?>
<!DOCTYPE svg PUBLIC "-//W3C//DTD SVG 1.1//EN"
  "http://www.w3.org/Graphics/SVG/1.1/DTD/svg11.dtd">
<svg xmlns:xlink="http://www.w3.org/1999/xlink" width="856.37125pt" height="434.580937pt" viewBox="0 0 856.37125 434.580937" xmlns="http://www.w3.org/2000/svg" version="1.1">
 <metadata>
  <rdf:RDF xmlns:dc="http://purl.org/dc/elements/1.1/" xmlns:cc="http://creativecommons.org/ns#" xmlns:rdf="http://www.w3.org/1999/02/22-rdf-syntax-ns#">
   <cc:Work>
    <dc:type rdf:resource="http://purl.org/dc/dcmitype/StillImage"/>
    <dc:date>2025-11-29T21:06:46.132385</dc:date>
    <dc:format>image/svg+xml</dc:format>
    <dc:creator>
     <cc:Agent>
      <dc:title>Matplotlib v3.10.0, https://matplotlib.org/</dc:title>
     </cc:Agent>
    </dc:creator>
   </cc:Work>
  </rdf:RDF>
 </metadata>
 <defs>
  <style type="text/css">*{stroke-linejoin: round; stroke-linecap: butt}</style>
 </defs>
 <g id="figure_1">
  <g id="patch_1">
   <path d="M 0 434.580937 
L 856.37125 434.580937 
L 856.37125 -0 
L 0 -0 
L 0 434.580937 
z
" style="fill: none"/>
  </g>
  <g id="axes_1">
   <g id="patch_2">
    <path d="M 43.78125 362.18 
L 849.17125 362.18 
L 849.17125 7.2 
L 43.78125 7.2 
L 43.78125 362.18 
z
" style="fill: none"/>
   </g>
   <g id="patch_3">
    <path d="M 70.627583 362.18 
L 178.012917 362.18 
L 178.012917 88.725537 
L 70.627583 88.725537 
L 70.627583 362.18 
z
" clip-path="url(#pf9285e99ce)" style="fill: none; opacity: 0"/>
   </g>
   <g id="patch_4">
    <path d="M 339.090917 362.18 
L 446.47625 362.18 
L 446.47625 88.725537 
L 339.090917 88.725537 
L 339.090917 362.18 
z
" clip-path="url(#pf9285e99ce)" style="fill: none; opacity: 0"/>
   </g>
   <g id="patch_5">
    <path d="M 607.55425 362.18 
L 714.939583 362.18 
L 714.939583 88.725537 
L 607.55425 88.725537 
L 607.55425 362.18 
z
" clip-path="url(#pf9285e99ce)" style="fill: none; opacity: 0"/>
   </g>
   <g id="patch_6">
    <path d="M 178.012917 362.18 
L 285.39825 362.18 
L 285.39825 93.675834 
L 178.012917 93.675834 
L 178.012917 362.18 
z
" clip-path="url(#pf9285e99ce)" style="fill: none; opacity: 0"/>
   </g>
   <g id="patch_7">
    <path d="M 446.47625 362.18 
L 553.861583 362.18 
L 553.861583 71.922243 
L 446.47625 71.922243 
L 446.47625 362.18 
z
" clip-path="url(#pf9285e99ce)" style="fill: none; opacity: 0"/>
   </g>
   <g id="patch_8">
    <path d="M 714.939583 362.18 
L 822.324917 362.18 
L 822.324917 97.357214 
L 714.939583 97.357214 
L 714.939583 362.18 
z
" clip-path="url(#pf9285e99ce)" style="fill: none; opacity: 0"/>
   </g>
   <g id="matplotlib.axis_1">
    <g id="xtick_1">
     <g id="line2d_1">
      <defs>
       <path id="m8d25263768" d="M 0 0 
L 0 3.5 
" style="stroke: #000000; stroke-width: 0.8"/>
      </defs>
      <g>
       <use xlink:href="#m8d25263768" x="178.012917" y="362.18" style="stroke: #000000; stroke-width: 0.8"/>
      </g>
     </g>
     <g id="text_1">
      <!-- 11_18_25 -->
      <g transform="translate(180.544948 417.355) rotate(-90) scale(0.1 -0.1)">
       <defs>
        <path id="DejaVuSans-31" d="M 794 531 
L 1825 531 
L 1825 4091 
L 703 3866 
L 703 4441 
L 1819 4666 
L 2450 4666 
L 2450 531 
L 3481 531 
L 3481 0 
L 794 0 
L 794 531 
z
" transform="scale(0.015625)"/>
        <path id="DejaVuSans-5f" d="M 3263 -1063 
L 3263 -1509 
L -63 -1509 
L -63 -1063 
L 3263 -1063 
z
" transform="scale(0.015625)"/>
        <path id="DejaVuSans-38" d="M 2034 2216 
Q 1584 2216 1326 1975 
Q 1069 1734 1069 1313 
Q 1069 891 1326 650 
Q 1584 409 2034 409 
Q 2484 409 2743 651 
Q 3003 894 3003 1313 
Q 3003 1734 2745 1975 
Q 2488 2216 2034 2216 
z
M 1403 2484 
Q 997 2584 770 2862 
Q 544 3141 544 3541 
Q 544 4100 942 4425 
Q 1341 4750 2034 4750 
Q 2731 4750 3128 4425 
Q 3525 4100 3525 3541 
Q 3525 3141 3298 2862 
Q 3072 2584 2669 2484 
Q 3125 2378 3379 2068 
Q 3634 1759 3634 1313 
Q 3634 634 3220 271 
Q 2806 -91 2034 -91 
Q 1263 -91 848 271 
Q 434 634 434 1313 
Q 434 1759 690 2068 
Q 947 2378 1403 2484 
z
M 1172 3481 
Q 1172 3119 1398 2916 
Q 1625 2713 2034 2713 
Q 2441 2713 2670 2916 
Q 2900 3119 2900 3481 
Q 2900 3844 2670 4047 
Q 2441 4250 2034 4250 
Q 1625 4250 1398 4047 
Q 1172 3844 1172 3481 
z
" transform="scale(0.015625)"/>
        <path id="DejaVuSans-32" d="M 1228 531 
L 3431 531 
L 3431 0 
L 469 0 
L 469 531 
Q 828 903 1448 1529 
Q 2069 2156 2228 2338 
Q 2531 2678 2651 2914 
Q 2772 3150 2772 3378 
Q 2772 3750 2511 3984 
Q 2250 4219 1831 4219 
Q 1534 4219 1204 4116 
Q 875 4013 500 3803 
L 500 4441 
Q 881 4594 1212 4672 
Q 1544 4750 1819 4750 
Q 2544 4750 2975 4387 
Q 3406 4025 3406 3419 
Q 3406 3131 3298 2873 
Q 3191 2616 2906 2266 
Q 2828 2175 2409 1742 
Q 1991 1309 1228 531 
z
" transform="scale(0.015625)"/>
        <path id="DejaVuSans-35" d="M 691 4666 
L 3169 4666 
L 3169 4134 
L 1269 4134 
L 1269 2991 
Q 1406 3038 1543 3061 
Q 1681 3084 1819 3084 
Q 2600 3084 3056 2656 
Q 3513 2228 3513 1497 
Q 3513 744 3044 326 
Q 2575 -91 1722 -91 
Q 1428 -91 1123 -41 
Q 819 9 494 109 
L 494 744 
Q 775 591 1075 516 
Q 1375 441 1709 441 
Q 2250 441 2565 725 
Q 2881 1009 2881 1497 
Q 2881 1984 2565 2268 
Q 2250 2553 1709 2553 
Q 1456 2553 1204 2497 
Q 953 2441 691 2322 
L 691 4666 
z
" transform="scale(0.015625)"/>
       </defs>
       <use xlink:href="#DejaVuSans-31"/>
       <use xlink:href="#DejaVuSans-31" transform="translate(63.623047 0)"/>
       <use xlink:href="#DejaVuSans-5f" transform="translate(127.246094 0)"/>
       <use xlink:href="#DejaVuSans-31" transform="translate(177.246094 0)"/>
       <use xlink:href="#DejaVuSans-38" transform="translate(240.869141 0)"/>
       <use xlink:href="#DejaVuSans-5f" transform="translate(304.492188 0)"/>
       <use xlink:href="#DejaVuSans-32" transform="translate(354.492188 0)"/>
       <use xlink:href="#DejaVuSans-35" transform="translate(418.115234 0)"/>
      </g>
     </g>
    </g>
    <g id="xtick_2">
     <g id="line2d_2">
      <g>
       <use xlink:href="#m8d25263768" x="446.47625" y="362.18" style="stroke: #000000; stroke-width: 0.8"/>
      </g>
     </g>
     <g id="text_2">
      <!-- 4_24_23 -->
      <g transform="translate(449.008281 410.9925) rotate(-90) scale(0.1 -0.1)">
       <defs>
        <path id="DejaVuSans-34" d="M 2419 4116 
L 825 1625 
L 2419 1625 
L 2419 4116 
z
M 2253 4666 
L 3047 4666 
L 3047 1625 
L 3713 1625 
L 3713 1100 
L 3047 1100 
L 3047 0 
L 2419 0 
L 2419 1100 
L 313 1100 
L 313 1709 
L 2253 4666 
z
" transform="scale(0.015625)"/>
        <path id="DejaVuSans-33" d="M 2597 2516 
Q 3050 2419 3304 2112 
Q 3559 1806 3559 1356 
Q 3559 666 3084 287 
Q 2609 -91 1734 -91 
Q 1441 -91 1130 -33 
Q 819 25 488 141 
L 488 750 
Q 750 597 1062 519 
Q 1375 441 1716 441 
Q 2309 441 2620 675 
Q 2931 909 2931 1356 
Q 2931 1769 2642 2001 
Q 2353 2234 1838 2234 
L 1294 2234 
L 1294 2753 
L 1863 2753 
Q 2328 2753 2575 2939 
Q 2822 3125 2822 3475 
Q 2822 3834 2567 4026 
Q 2313 4219 1838 4219 
Q 1578 4219 1281 4162 
Q 984 4106 628 3988 
L 628 4550 
Q 988 4650 1302 4700 
Q 1616 4750 1894 4750 
Q 2613 4750 3031 4423 
Q 3450 4097 3450 3541 
Q 3450 3153 3228 2886 
Q 3006 2619 2597 2516 
z
" transform="scale(0.015625)"/>
       </defs>
       <use xlink:href="#DejaVuSans-34"/>
       <use xlink:href="#DejaVuSans-5f" transform="translate(63.623047 0)"/>
       <use xlink:href="#DejaVuSans-32" transform="translate(113.623047 0)"/>
       <use xlink:href="#DejaVuSans-34" transform="translate(177.246094 0)"/>
       <use xlink:href="#DejaVuSans-5f" transform="translate(240.869141 0)"/>
       <use xlink:href="#DejaVuSans-32" transform="translate(290.869141 0)"/>
       <use xlink:href="#DejaVuSans-33" transform="translate(354.492188 0)"/>
      </g>
     </g>
    </g>
    <g id="xtick_3">
     <g id="line2d_3">
      <g>
       <use xlink:href="#m8d25263768" x="714.939583" y="362.18" style="stroke: #000000; stroke-width: 0.8"/>
      </g>
     </g>
     <g id="text_3">
      <!-- 6_6_25 -->
      <g transform="translate(717.471615 404.63) rotate(-90) scale(0.1 -0.1)">
       <defs>
        <path id="DejaVuSans-36" d="M 2113 2584 
Q 1688 2584 1439 2293 
Q 1191 2003 1191 1497 
Q 1191 994 1439 701 
Q 1688 409 2113 409 
Q 2538 409 2786 701 
Q 3034 994 3034 1497 
Q 3034 2003 2786 2293 
Q 2538 2584 2113 2584 
z
M 3366 4563 
L 3366 3988 
Q 3128 4100 2886 4159 
Q 2644 4219 2406 4219 
Q 1781 4219 1451 3797 
Q 1122 3375 1075 2522 
Q 1259 2794 1537 2939 
Q 1816 3084 2150 3084 
Q 2853 3084 3261 2657 
Q 3669 2231 3669 1497 
Q 3669 778 3244 343 
Q 2819 -91 2113 -91 
Q 1303 -91 875 529 
Q 447 1150 447 2328 
Q 447 3434 972 4092 
Q 1497 4750 2381 4750 
Q 2619 4750 2861 4703 
Q 3103 4656 3366 4563 
z
" transform="scale(0.015625)"/>
       </defs>
       <use xlink:href="#DejaVuSans-36"/>
       <use xlink:href="#DejaVuSans-5f" transform="translate(63.623047 0)"/>
       <use xlink:href="#DejaVuSans-36" transform="translate(113.623047 0)"/>
       <use xlink:href="#DejaVuSans-5f" transform="translate(177.246094 0)"/>
       <use xlink:href="#DejaVuSans-32" transform="translate(227.246094 0)"/>
       <use xlink:href="#DejaVuSans-35" transform="translate(290.869141 0)"/>
      </g>
     </g>
    </g>
   </g>
   <g id="matplotlib.axis_2">
    <g id="ytick_1">
     <g id="line2d_4">
      <defs>
       <path id="m3d4611a0d2" d="M 0 0 
L -3.5 0 
" style="stroke: #000000; stroke-width: 0.8"/>
      </defs>
      <g>
       <use xlink:href="#m3d4611a0d2" x="43.78125" y="362.18" style="stroke: #000000; stroke-width: 0.8"/>
      </g>
     </g>
     <g id="text_4">
      <!-- 0.0 -->
      <g transform="translate(20.878125 365.979219) scale(0.1 -0.1)">
       <defs>
        <path id="DejaVuSans-30" d="M 2034 4250 
Q 1547 4250 1301 3770 
Q 1056 3291 1056 2328 
Q 1056 1369 1301 889 
Q 1547 409 2034 409 
Q 2525 409 2770 889 
Q 3016 1369 3016 2328 
Q 3016 3291 2770 3770 
Q 2525 4250 2034 4250 
z
M 2034 4750 
Q 2819 4750 3233 4129 
Q 3647 3509 3647 2328 
Q 3647 1150 3233 529 
Q 2819 -91 2034 -91 
Q 1250 -91 836 529 
Q 422 1150 422 2328 
Q 422 3509 836 4129 
Q 1250 4750 2034 4750 
z
" transform="scale(0.015625)"/>
        <path id="DejaVuSans-2e" d="M 684 794 
L 1344 794 
L 1344 0 
L 684 0 
L 684 794 
z
" transform="scale(0.015625)"/>
       </defs>
       <use xlink:href="#DejaVuSans-30"/>
       <use xlink:href="#DejaVuSans-2e" transform="translate(63.623047 0)"/>
       <use xlink:href="#DejaVuSans-30" transform="translate(95.410156 0)"/>
      </g>
     </g>
    </g>
    <g id="ytick_2">
     <g id="line2d_5">
      <g>
       <use xlink:href="#m3d4611a0d2" x="43.78125" y="307.489107" style="stroke: #000000; stroke-width: 0.8"/>
      </g>
     </g>
     <g id="text_5">
      <!-- 0.2 -->
      <g transform="translate(20.878125 311.288326) scale(0.1 -0.1)">
       <use xlink:href="#DejaVuSans-30"/>
       <use xlink:href="#DejaVuSans-2e" transform="translate(63.623047 0)"/>
       <use xlink:href="#DejaVuSans-32" transform="translate(95.410156 0)"/>
      </g>
     </g>
    </g>
    <g id="ytick_3">
     <g id="line2d_6">
      <g>
       <use xlink:href="#m3d4611a0d2" x="43.78125" y="252.798215" style="stroke: #000000; stroke-width: 0.8"/>
      </g>
     </g>
     <g id="text_6">
      <!-- 0.4 -->
      <g transform="translate(20.878125 256.597434) scale(0.1 -0.1)">
       <use xlink:href="#DejaVuSans-30"/>
       <use xlink:href="#DejaVuSans-2e" transform="translate(63.623047 0)"/>
       <use xlink:href="#DejaVuSans-34" transform="translate(95.410156 0)"/>
      </g>
     </g>
    </g>
    <g id="ytick_4">
     <g id="line2d_7">
      <g>
       <use xlink:href="#m3d4611a0d2" x="43.78125" y="198.107322" style="stroke: #000000; stroke-width: 0.8"/>
      </g>
     </g>
     <g id="text_7">
      <!-- 0.6 -->
      <g transform="translate(20.878125 201.906541) scale(0.1 -0.1)">
       <use xlink:href="#DejaVuSans-30"/>
       <use xlink:href="#DejaVuSans-2e" transform="translate(63.623047 0)"/>
       <use xlink:href="#DejaVuSans-36" transform="translate(95.410156 0)"/>
      </g>
     </g>
    </g>
    <g id="ytick_5">
     <g id="line2d_8">
      <g>
       <use xlink:href="#m3d4611a0d2" x="43.78125" y="143.41643" style="stroke: #000000; stroke-width: 0.8"/>
      </g>
     </g>
     <g id="text_8">
      <!-- 0.8 -->
      <g transform="translate(20.878125 147.215648) scale(0.1 -0.1)">
       <use xlink:href="#DejaVuSans-30"/>
       <use xlink:href="#DejaVuSans-2e" transform="translate(63.623047 0)"/>
       <use xlink:href="#DejaVuSans-38" transform="translate(95.410156 0)"/>
      </g>
     </g>
    </g>
    <g id="ytick_6">
     <g id="line2d_9">
      <g>
       <use xlink:href="#m3d4611a0d2" x="43.78125" y="88.725537" style="stroke: #000000; stroke-width: 0.8"/>
      </g>
     </g>
     <g id="text_9">
      <!-- 1.0 -->
      <g transform="translate(20.878125 92.524756) scale(0.1 -0.1)">
       <use xlink:href="#DejaVuSans-31"/>
       <use xlink:href="#DejaVuSans-2e" transform="translate(63.623047 0)"/>
       <use xlink:href="#DejaVuSans-30" transform="translate(95.410156 0)"/>
      </g>
     </g>
    </g>
    <g id="ytick_7">
     <g id="line2d_10">
      <g>
       <use xlink:href="#m3d4611a0d2" x="43.78125" y="34.034645" style="stroke: #000000; stroke-width: 0.8"/>
      </g>
     </g>
     <g id="text_10">
      <!-- 1.2 -->
      <g transform="translate(20.878125 37.833863) scale(0.1 -0.1)">
       <use xlink:href="#DejaVuSans-31"/>
       <use xlink:href="#DejaVuSans-2e" transform="translate(63.623047 0)"/>
       <use xlink:href="#DejaVuSans-32" transform="translate(95.410156 0)"/>
      </g>
     </g>
    </g>
    <g id="text_11">
     <!-- Normalized interboutrhofraction: Binned - 3600 -->
     <g transform="translate(14.798438 303.437656) rotate(-90) scale(0.1 -0.1)">
      <defs>
       <path id="DejaVuSans-4e" d="M 628 4666 
L 1478 4666 
L 3547 763 
L 3547 4666 
L 4159 4666 
L 4159 0 
L 3309 0 
L 1241 3903 
L 1241 0 
L 628 0 
L 628 4666 
z
" transform="scale(0.015625)"/>
       <path id="DejaVuSans-6f" d="M 1959 3097 
Q 1497 3097 1228 2736 
Q 959 2375 959 1747 
Q 959 1119 1226 758 
Q 1494 397 1959 397 
Q 2419 397 2687 759 
Q 2956 1122 2956 1747 
Q 2956 2369 2687 2733 
Q 2419 3097 1959 3097 
z
M 1959 3584 
Q 2709 3584 3137 3096 
Q 3566 2609 3566 1747 
Q 3566 888 3137 398 
Q 2709 -91 1959 -91 
Q 1206 -91 779 398 
Q 353 888 353 1747 
Q 353 2609 779 3096 
Q 1206 3584 1959 3584 
z
" transform="scale(0.015625)"/>
       <path id="DejaVuSans-72" d="M 2631 2963 
Q 2534 3019 2420 3045 
Q 2306 3072 2169 3072 
Q 1681 3072 1420 2755 
Q 1159 2438 1159 1844 
L 1159 0 
L 581 0 
L 581 3500 
L 1159 3500 
L 1159 2956 
Q 1341 3275 1631 3429 
Q 1922 3584 2338 3584 
Q 2397 3584 2469 3576 
Q 2541 3569 2628 3553 
L 2631 2963 
z
" transform="scale(0.015625)"/>
       <path id="DejaVuSans-6d" d="M 3328 2828 
Q 3544 3216 3844 3400 
Q 4144 3584 4550 3584 
Q 5097 3584 5394 3201 
Q 5691 2819 5691 2113 
L 5691 0 
L 5113 0 
L 5113 2094 
Q 5113 2597 4934 2840 
Q 4756 3084 4391 3084 
Q 3944 3084 3684 2787 
Q 3425 2491 3425 1978 
L 3425 0 
L 2847 0 
L 2847 2094 
Q 2847 2600 2669 2842 
Q 2491 3084 2119 3084 
Q 1678 3084 1418 2786 
Q 1159 2488 1159 1978 
L 1159 0 
L 581 0 
L 581 3500 
L 1159 3500 
L 1159 2956 
Q 1356 3278 1631 3431 
Q 1906 3584 2284 3584 
Q 2666 3584 2933 3390 
Q 3200 3197 3328 2828 
z
" transform="scale(0.015625)"/>
       <path id="DejaVuSans-61" d="M 2194 1759 
Q 1497 1759 1228 1600 
Q 959 1441 959 1056 
Q 959 750 1161 570 
Q 1363 391 1709 391 
Q 2188 391 2477 730 
Q 2766 1069 2766 1631 
L 2766 1759 
L 2194 1759 
z
M 3341 1997 
L 3341 0 
L 2766 0 
L 2766 531 
Q 2569 213 2275 61 
Q 1981 -91 1556 -91 
Q 1019 -91 701 211 
Q 384 513 384 1019 
Q 384 1609 779 1909 
Q 1175 2209 1959 2209 
L 2766 2209 
L 2766 2266 
Q 2766 2663 2505 2880 
Q 2244 3097 1772 3097 
Q 1472 3097 1187 3025 
Q 903 2953 641 2809 
L 641 3341 
Q 956 3463 1253 3523 
Q 1550 3584 1831 3584 
Q 2591 3584 2966 3190 
Q 3341 2797 3341 1997 
z
" transform="scale(0.015625)"/>
       <path id="DejaVuSans-6c" d="M 603 4863 
L 1178 4863 
L 1178 0 
L 603 0 
L 603 4863 
z
" transform="scale(0.015625)"/>
       <path id="DejaVuSans-69" d="M 603 3500 
L 1178 3500 
L 1178 0 
L 603 0 
L 603 3500 
z
M 603 4863 
L 1178 4863 
L 1178 4134 
L 603 4134 
L 603 4863 
z
" transform="scale(0.015625)"/>
       <path id="DejaVuSans-7a" d="M 353 3500 
L 3084 3500 
L 3084 2975 
L 922 459 
L 3084 459 
L 3084 0 
L 275 0 
L 275 525 
L 2438 3041 
L 353 3041 
L 353 3500 
z
" transform="scale(0.015625)"/>
       <path id="DejaVuSans-65" d="M 3597 1894 
L 3597 1613 
L 953 1613 
Q 991 1019 1311 708 
Q 1631 397 2203 397 
Q 2534 397 2845 478 
Q 3156 559 3463 722 
L 3463 178 
Q 3153 47 2828 -22 
Q 2503 -91 2169 -91 
Q 1331 -91 842 396 
Q 353 884 353 1716 
Q 353 2575 817 3079 
Q 1281 3584 2069 3584 
Q 2775 3584 3186 3129 
Q 3597 2675 3597 1894 
z
M 3022 2063 
Q 3016 2534 2758 2815 
Q 2500 3097 2075 3097 
Q 1594 3097 1305 2825 
Q 1016 2553 972 2059 
L 3022 2063 
z
" transform="scale(0.015625)"/>
       <path id="DejaVuSans-64" d="M 2906 2969 
L 2906 4863 
L 3481 4863 
L 3481 0 
L 2906 0 
L 2906 525 
Q 2725 213 2448 61 
Q 2172 -91 1784 -91 
Q 1150 -91 751 415 
Q 353 922 353 1747 
Q 353 2572 751 3078 
Q 1150 3584 1784 3584 
Q 2172 3584 2448 3432 
Q 2725 3281 2906 2969 
z
M 947 1747 
Q 947 1113 1208 752 
Q 1469 391 1925 391 
Q 2381 391 2643 752 
Q 2906 1113 2906 1747 
Q 2906 2381 2643 2742 
Q 2381 3103 1925 3103 
Q 1469 3103 1208 2742 
Q 947 2381 947 1747 
z
" transform="scale(0.015625)"/>
       <path id="DejaVuSans-20" transform="scale(0.015625)"/>
       <path id="DejaVuSans-6e" d="M 3513 2113 
L 3513 0 
L 2938 0 
L 2938 2094 
Q 2938 2591 2744 2837 
Q 2550 3084 2163 3084 
Q 1697 3084 1428 2787 
Q 1159 2491 1159 1978 
L 1159 0 
L 581 0 
L 581 3500 
L 1159 3500 
L 1159 2956 
Q 1366 3272 1645 3428 
Q 1925 3584 2291 3584 
Q 2894 3584 3203 3211 
Q 3513 2838 3513 2113 
z
" transform="scale(0.015625)"/>
       <path id="DejaVuSans-74" d="M 1172 4494 
L 1172 3500 
L 2356 3500 
L 2356 3053 
L 1172 3053 
L 1172 1153 
Q 1172 725 1289 603 
Q 1406 481 1766 481 
L 2356 481 
L 2356 0 
L 1766 0 
Q 1100 0 847 248 
Q 594 497 594 1153 
L 594 3053 
L 172 3053 
L 172 3500 
L 594 3500 
L 594 4494 
L 1172 4494 
z
" transform="scale(0.015625)"/>
       <path id="DejaVuSans-62" d="M 3116 1747 
Q 3116 2381 2855 2742 
Q 2594 3103 2138 3103 
Q 1681 3103 1420 2742 
Q 1159 2381 1159 1747 
Q 1159 1113 1420 752 
Q 1681 391 2138 391 
Q 2594 391 2855 752 
Q 3116 1113 3116 1747 
z
M 1159 2969 
Q 1341 3281 1617 3432 
Q 1894 3584 2278 3584 
Q 2916 3584 3314 3078 
Q 3713 2572 3713 1747 
Q 3713 922 3314 415 
Q 2916 -91 2278 -91 
Q 1894 -91 1617 61 
Q 1341 213 1159 525 
L 1159 0 
L 581 0 
L 581 4863 
L 1159 4863 
L 1159 2969 
z
" transform="scale(0.015625)"/>
       <path id="DejaVuSans-75" d="M 544 1381 
L 544 3500 
L 1119 3500 
L 1119 1403 
Q 1119 906 1312 657 
Q 1506 409 1894 409 
Q 2359 409 2629 706 
Q 2900 1003 2900 1516 
L 2900 3500 
L 3475 3500 
L 3475 0 
L 2900 0 
L 2900 538 
Q 2691 219 2414 64 
Q 2138 -91 1772 -91 
Q 1169 -91 856 284 
Q 544 659 544 1381 
z
M 1991 3584 
L 1991 3584 
z
" transform="scale(0.015625)"/>
       <path id="DejaVuSans-68" d="M 3513 2113 
L 3513 0 
L 2938 0 
L 2938 2094 
Q 2938 2591 2744 2837 
Q 2550 3084 2163 3084 
Q 1697 3084 1428 2787 
Q 1159 2491 1159 1978 
L 1159 0 
L 581 0 
L 581 4863 
L 1159 4863 
L 1159 2956 
Q 1366 3272 1645 3428 
Q 1925 3584 2291 3584 
Q 2894 3584 3203 3211 
Q 3513 2838 3513 2113 
z
" transform="scale(0.015625)"/>
       <path id="DejaVuSans-66" d="M 2375 4863 
L 2375 4384 
L 1825 4384 
Q 1516 4384 1395 4259 
Q 1275 4134 1275 3809 
L 1275 3500 
L 2222 3500 
L 2222 3053 
L 1275 3053 
L 1275 0 
L 697 0 
L 697 3053 
L 147 3053 
L 147 3500 
L 697 3500 
L 697 3744 
Q 697 4328 969 4595 
Q 1241 4863 1831 4863 
L 2375 4863 
z
" transform="scale(0.015625)"/>
       <path id="DejaVuSans-63" d="M 3122 3366 
L 3122 2828 
Q 2878 2963 2633 3030 
Q 2388 3097 2138 3097 
Q 1578 3097 1268 2742 
Q 959 2388 959 1747 
Q 959 1106 1268 751 
Q 1578 397 2138 397 
Q 2388 397 2633 464 
Q 2878 531 3122 666 
L 3122 134 
Q 2881 22 2623 -34 
Q 2366 -91 2075 -91 
Q 1284 -91 818 406 
Q 353 903 353 1747 
Q 353 2603 823 3093 
Q 1294 3584 2113 3584 
Q 2378 3584 2631 3529 
Q 2884 3475 3122 3366 
z
" transform="scale(0.015625)"/>
       <path id="DejaVuSans-3a" d="M 750 794 
L 1409 794 
L 1409 0 
L 750 0 
L 750 794 
z
M 750 3309 
L 1409 3309 
L 1409 2516 
L 750 2516 
L 750 3309 
z
" transform="scale(0.015625)"/>
       <path id="DejaVuSans-42" d="M 1259 2228 
L 1259 519 
L 2272 519 
Q 2781 519 3026 730 
Q 3272 941 3272 1375 
Q 3272 1813 3026 2020 
Q 2781 2228 2272 2228 
L 1259 2228 
z
M 1259 4147 
L 1259 2741 
L 2194 2741 
Q 2656 2741 2882 2914 
Q 3109 3088 3109 3444 
Q 3109 3797 2882 3972 
Q 2656 4147 2194 4147 
L 1259 4147 
z
M 628 4666 
L 2241 4666 
Q 2963 4666 3353 4366 
Q 3744 4066 3744 3513 
Q 3744 3084 3544 2831 
Q 3344 2578 2956 2516 
Q 3422 2416 3680 2098 
Q 3938 1781 3938 1306 
Q 3938 681 3513 340 
Q 3088 0 2303 0 
L 628 0 
L 628 4666 
z
" transform="scale(0.015625)"/>
       <path id="DejaVuSans-2d" d="M 313 2009 
L 1997 2009 
L 1997 1497 
L 313 1497 
L 313 2009 
z
" transform="scale(0.015625)"/>
      </defs>
      <use xlink:href="#DejaVuSans-4e"/>
      <use xlink:href="#DejaVuSans-6f" transform="translate(74.804688 0)"/>
      <use xlink:href="#DejaVuSans-72" transform="translate(135.986328 0)"/>
      <use xlink:href="#DejaVuSans-6d" transform="translate(175.349609 0)"/>
      <use xlink:href="#DejaVuSans-61" transform="translate(272.761719 0)"/>
      <use xlink:href="#DejaVuSans-6c" transform="translate(334.041016 0)"/>
      <use xlink:href="#DejaVuSans-69" transform="translate(361.824219 0)"/>
      <use xlink:href="#DejaVuSans-7a" transform="translate(389.607422 0)"/>
      <use xlink:href="#DejaVuSans-65" transform="translate(442.097656 0)"/>
      <use xlink:href="#DejaVuSans-64" transform="translate(503.621094 0)"/>
      <use xlink:href="#DejaVuSans-20" transform="translate(567.097656 0)"/>
      <use xlink:href="#DejaVuSans-69" transform="translate(598.884766 0)"/>
      <use xlink:href="#DejaVuSans-6e" transform="translate(626.667969 0)"/>
      <use xlink:href="#DejaVuSans-74" transform="translate(690.046875 0)"/>
      <use xlink:href="#DejaVuSans-65" transform="translate(729.255859 0)"/>
      <use xlink:href="#DejaVuSans-72" transform="translate(790.779297 0)"/>
      <use xlink:href="#DejaVuSans-62" transform="translate(831.892578 0)"/>
      <use xlink:href="#DejaVuSans-6f" transform="translate(895.369141 0)"/>
      <use xlink:href="#DejaVuSans-75" transform="translate(956.550781 0)"/>
      <use xlink:href="#DejaVuSans-74" transform="translate(1019.929688 0)"/>
      <use xlink:href="#DejaVuSans-72" transform="translate(1059.138672 0)"/>
      <use xlink:href="#DejaVuSans-68" transform="translate(1098.501953 0)"/>
      <use xlink:href="#DejaVuSans-6f" transform="translate(1161.880859 0)"/>
      <use xlink:href="#DejaVuSans-66" transform="translate(1223.0625 0)"/>
      <use xlink:href="#DejaVuSans-72" transform="translate(1258.267578 0)"/>
      <use xlink:href="#DejaVuSans-61" transform="translate(1299.380859 0)"/>
      <use xlink:href="#DejaVuSans-63" transform="translate(1360.660156 0)"/>
      <use xlink:href="#DejaVuSans-74" transform="translate(1415.640625 0)"/>
      <use xlink:href="#DejaVuSans-69" transform="translate(1454.849609 0)"/>
      <use xlink:href="#DejaVuSans-6f" transform="translate(1482.632812 0)"/>
      <use xlink:href="#DejaVuSans-6e" transform="translate(1543.814453 0)"/>
      <use xlink:href="#DejaVuSans-3a" transform="translate(1607.193359 0)"/>
      <use xlink:href="#DejaVuSans-20" transform="translate(1640.884766 0)"/>
      <use xlink:href="#DejaVuSans-42" transform="translate(1672.671875 0)"/>
      <use xlink:href="#DejaVuSans-69" transform="translate(1741.275391 0)"/>
      <use xlink:href="#DejaVuSans-6e" transform="translate(1769.058594 0)"/>
      <use xlink:href="#DejaVuSans-6e" transform="translate(1832.4375 0)"/>
      <use xlink:href="#DejaVuSans-65" transform="translate(1895.816406 0)"/>
      <use xlink:href="#DejaVuSans-64" transform="translate(1957.339844 0)"/>
      <use xlink:href="#DejaVuSans-20" transform="translate(2020.816406 0)"/>
      <use xlink:href="#DejaVuSans-2d" transform="translate(2052.603516 0)"/>
      <use xlink:href="#DejaVuSans-20" transform="translate(2088.6875 0)"/>
      <use xlink:href="#DejaVuSans-33" transform="translate(2120.474609 0)"/>
      <use xlink:href="#DejaVuSans-36" transform="translate(2184.097656 0)"/>
      <use xlink:href="#DejaVuSans-30" transform="translate(2247.720703 0)"/>
      <use xlink:href="#DejaVuSans-30" transform="translate(2311.34375 0)"/>
     </g>
    </g>
   </g>
   <g id="line2d_11">
    <path d="M 110.897083 94.137237 
L 137.743417 94.137237 
M 124.32025 94.137237 
L 124.32025 83.313837 
M 110.897083 83.313837 
L 137.743417 83.313837 
" clip-path="url(#pf9285e99ce)" style="fill: none; stroke: #000000; stroke-width: 2; stroke-linecap: square"/>
   </g>
   <g id="line2d_12">
    <path d="M 379.360417 95.599457 
L 406.20675 95.599457 
M 392.783583 95.599457 
L 392.783583 81.851617 
M 379.360417 81.851617 
L 406.20675 81.851617 
" clip-path="url(#pf9285e99ce)" style="fill: none; stroke: #000000; stroke-width: 2; stroke-linecap: square"/>
   </g>
   <g id="line2d_13">
    <path d="M 647.82375 93.577669 
L 674.670083 93.577669 
M 661.246917 93.577669 
L 661.246917 83.873405 
M 647.82375 83.873405 
L 674.670083 83.873405 
" clip-path="url(#pf9285e99ce)" style="fill: none; stroke: #000000; stroke-width: 2; stroke-linecap: square"/>
   </g>
   <g id="line2d_14">
    <path d="M 218.282417 96.688085 
L 245.12875 96.688085 
M 231.705583 96.688085 
L 231.705583 90.663583 
M 218.282417 90.663583 
L 245.12875 90.663583 
" clip-path="url(#pf9285e99ce)" style="fill: none; stroke: #ff0000; stroke-width: 2; stroke-linecap: square"/>
   </g>
   <g id="line2d_15">
    <path d="M 486.74575 77.244795 
L 513.592083 77.244795 
M 500.168917 77.244795 
L 500.168917 66.59969 
M 486.74575 66.59969 
L 513.592083 66.59969 
" clip-path="url(#pf9285e99ce)" style="fill: none; stroke: #ff0000; stroke-width: 2; stroke-linecap: square"/>
   </g>
   <g id="line2d_16">
    <path d="M 755.209083 103.281828 
L 782.055417 103.281828 
M 768.63225 103.281828 
L 768.63225 91.4326 
M 755.209083 91.4326 
L 782.055417 91.4326 
" clip-path="url(#pf9285e99ce)" style="fill: none; stroke: #ff0000; stroke-width: 2; stroke-linecap: square"/>
   </g>
   <g id="patch_9">
    <path d="M 43.78125 362.18 
L 43.78125 34.034645 
" style="fill: none; stroke: #000000; stroke-width: 0.8; stroke-linejoin: miter; stroke-linecap: square"/>
   </g>
   <g id="patch_10">
    <path d="M 178.012917 362.18 
L 714.939583 362.18 
" style="fill: none; stroke: #000000; stroke-width: 0.8; stroke-linejoin: miter; stroke-linecap: square"/>
   </g>
   <g id="PathCollection_1">
    <defs>
     <path id="C0_0_07facf3a95" d="M 0 2.5 
C 0.663008 2.5 1.29895 2.236584 1.767767 1.767767 
C 2.236584 1.29895 2.5 0.663008 2.5 -0 
C 2.5 -0.663008 2.236584 -1.29895 1.767767 -1.767767 
C 1.29895 -2.236584 0.663008 -2.5 0 -2.5 
C -0.663008 -2.5 -1.29895 -2.236584 -1.767767 -1.767767 
C -2.236584 -1.29895 -2.5 -0.663008 -2.5 0 
C -2.5 0.663008 -2.236584 1.29895 -1.767767 1.767767 
C -1.29895 2.236584 -0.663008 2.5 0 2.5 
z
"/>
    </defs>
    <g clip-path="url(#pf9285e99ce)">
     <use xlink:href="#C0_0_07facf3a95" x="133.521542" y="118.023577" style="fill-opacity: 0.3"/>
    </g>
    <g clip-path="url(#pf9285e99ce)">
     <use xlink:href="#C0_0_07facf3a95" x="119.010756" y="88.87829" style="fill-opacity: 0.3"/>
    </g>
    <g clip-path="url(#pf9285e99ce)">
     <use xlink:href="#C0_0_07facf3a95" x="114.99425" y="70.300091" style="fill-opacity: 0.3"/>
    </g>
    <g clip-path="url(#pf9285e99ce)">
     <use xlink:href="#C0_0_07facf3a95" x="131.074685" y="74.056194" style="fill-opacity: 0.3"/>
    </g>
    <g clip-path="url(#pf9285e99ce)">
     <use xlink:href="#C0_0_07facf3a95" x="129.957844" y="93.269557" style="fill-opacity: 0.3"/>
    </g>
    <g clip-path="url(#pf9285e99ce)">
     <use xlink:href="#C0_0_07facf3a95" x="111.682173" y="66.240305" style="fill-opacity: 0.3"/>
    </g>
    <g clip-path="url(#pf9285e99ce)">
     <use xlink:href="#C0_0_07facf3a95" x="118.140362" y="84.027297" style="fill-opacity: 0.3"/>
    </g>
    <g clip-path="url(#pf9285e99ce)">
     <use xlink:href="#C0_0_07facf3a95" x="126.919161" y="106.142366" style="fill-opacity: 0.3"/>
    </g>
    <g clip-path="url(#pf9285e99ce)">
     <use xlink:href="#C0_0_07facf3a95" x="121.789903" y="106.037865" style="fill-opacity: 0.3"/>
    </g>
    <g clip-path="url(#pf9285e99ce)">
     <use xlink:href="#C0_0_07facf3a95" x="128.596248" y="80.279829" style="fill-opacity: 0.3"/>
    </g>
   </g>
   <g id="PathCollection_2">
    <defs>
     <path id="C1_0_271003a8ec" d="M 0 2.5 
C 0.663008 2.5 1.29895 2.236584 1.767767 1.767767 
C 2.236584 1.29895 2.5 0.663008 2.5 -0 
C 2.5 -0.663008 2.236584 -1.29895 1.767767 -1.767767 
C 1.29895 -2.236584 0.663008 -2.5 0 -2.5 
C -0.663008 -2.5 -1.29895 -2.236584 -1.767767 -1.767767 
C -2.236584 -1.29895 -2.5 -0.663008 -2.5 0 
C -2.5 0.663008 -2.236584 1.29895 -1.767767 1.767767 
C -1.29895 2.236584 -0.663008 2.5 0 2.5 
z
"/>
    </defs>
    <g clip-path="url(#pf9285e99ce)">
     <use xlink:href="#C1_0_271003a8ec" x="224.987102" y="103.338288" style="fill: #ff0000; fill-opacity: 0.3"/>
    </g>
    <g clip-path="url(#pf9285e99ce)">
     <use xlink:href="#C1_0_271003a8ec" x="230.981229" y="100.982492" style="fill: #ff0000; fill-opacity: 0.3"/>
    </g>
    <g clip-path="url(#pf9285e99ce)">
     <use xlink:href="#C1_0_271003a8ec" x="229.136595" y="106.313105" style="fill: #ff0000; fill-opacity: 0.3"/>
    </g>
    <g clip-path="url(#pf9285e99ce)">
     <use xlink:href="#C1_0_271003a8ec" x="223.246061" y="95.393725" style="fill: #ff0000; fill-opacity: 0.3"/>
    </g>
    <g clip-path="url(#pf9285e99ce)">
     <use xlink:href="#C1_0_271003a8ec" x="232.431731" y="84.247255" style="fill: #ff0000; fill-opacity: 0.3"/>
    </g>
    <g clip-path="url(#pf9285e99ce)">
     <use xlink:href="#C1_0_271003a8ec" x="239.847425" y="80.26608" style="fill: #ff0000; fill-opacity: 0.3"/>
    </g>
    <g clip-path="url(#pf9285e99ce)">
     <use xlink:href="#C1_0_271003a8ec" x="237.38712" y="92.826337" style="fill: #ff0000; fill-opacity: 0.3"/>
    </g>
    <g clip-path="url(#pf9285e99ce)">
     <use xlink:href="#C1_0_271003a8ec" x="230.768812" y="79.857946" style="fill: #ff0000; fill-opacity: 0.3"/>
    </g>
    <g clip-path="url(#pf9285e99ce)">
     <use xlink:href="#C1_0_271003a8ec" x="224.411491" y="93.041869" style="fill: #ff0000; fill-opacity: 0.3"/>
    </g>
    <g clip-path="url(#pf9285e99ce)">
     <use xlink:href="#C1_0_271003a8ec" x="235.178439" y="100.491242" style="fill: #ff0000; fill-opacity: 0.3"/>
    </g>
   </g>
   <g id="PathCollection_3">
    <defs>
     <path id="C2_0_f772a37464" d="M 0 2.5 
C 0.663008 2.5 1.29895 2.236584 1.767767 1.767767 
C 2.236584 1.29895 2.5 0.663008 2.5 -0 
C 2.5 -0.663008 2.236584 -1.29895 1.767767 -1.767767 
C 1.29895 -2.236584 0.663008 -2.5 0 -2.5 
C -0.663008 -2.5 -1.29895 -2.236584 -1.767767 -1.767767 
C -2.236584 -1.29895 -2.5 -0.663008 -2.5 0 
C -2.5 0.663008 -2.236584 1.29895 -1.767767 1.767767 
C -1.29895 2.236584 -0.663008 2.5 0 2.5 
z
"/>
    </defs>
    <g clip-path="url(#pf9285e99ce)">
     <use xlink:href="#C2_0_f772a37464" x="402.759529" y="86.003255" style="fill-opacity: 0.3"/>
    </g>
    <g clip-path="url(#pf9285e99ce)">
     <use xlink:href="#C2_0_f772a37464" x="386.387149" y="99.070152" style="fill-opacity: 0.3"/>
    </g>
    <g clip-path="url(#pf9285e99ce)">
     <use xlink:href="#C2_0_f772a37464" x="404.567071" y="99.582811" style="fill-opacity: 0.3"/>
    </g>
    <g clip-path="url(#pf9285e99ce)">
     <use xlink:href="#C2_0_f772a37464" x="395.724742" y="114.965628" style="fill-opacity: 0.3"/>
    </g>
    <g clip-path="url(#pf9285e99ce)">
     <use xlink:href="#C2_0_f772a37464" x="392.473188" y="142.713276" style="fill-opacity: 0.3"/>
    </g>
    <g clip-path="url(#pf9285e99ce)">
     <use xlink:href="#C2_0_f772a37464" x="385.409387" y="82.854411" style="fill-opacity: 0.3"/>
    </g>
    <g clip-path="url(#pf9285e99ce)">
     <use xlink:href="#C2_0_f772a37464" x="389.959065" y="77.961327" style="fill-opacity: 0.3"/>
    </g>
    <g clip-path="url(#pf9285e99ce)">
     <use xlink:href="#C2_0_f772a37464" x="379.764622" y="97.86038" style="fill-opacity: 0.3"/>
    </g>
    <g clip-path="url(#pf9285e99ce)">
     <use xlink:href="#C2_0_f772a37464" x="381.791071" y="86.793163" style="fill-opacity: 0.3"/>
    </g>
    <g clip-path="url(#pf9285e99ce)">
     <use xlink:href="#C2_0_f772a37464" x="393.962668" y="87.883797" style="fill-opacity: 0.3"/>
    </g>
    <g clip-path="url(#pf9285e99ce)">
     <use xlink:href="#C2_0_f772a37464" x="381.959792" y="36.688041" style="fill-opacity: 0.3"/>
    </g>
    <g clip-path="url(#pf9285e99ce)">
     <use xlink:href="#C2_0_f772a37464" x="397.90918" y="62.634702" style="fill-opacity: 0.3"/>
    </g>
    <g clip-path="url(#pf9285e99ce)">
     <use xlink:href="#C2_0_f772a37464" x="399.611135" y="106.856018" style="fill-opacity: 0.3"/>
    </g>
    <g clip-path="url(#pf9285e99ce)">
     <use xlink:href="#C2_0_f772a37464" x="388.037625" y="60.290558" style="fill-opacity: 0.3"/>
    </g>
   </g>
   <g id="PathCollection_4">
    <defs>
     <path id="C3_0_9b7d9b3073" d="M 0 2.5 
C 0.663008 2.5 1.29895 2.236584 1.767767 1.767767 
C 2.236584 1.29895 2.5 0.663008 2.5 -0 
C 2.5 -0.663008 2.236584 -1.29895 1.767767 -1.767767 
C 1.29895 -2.236584 0.663008 -2.5 0 -2.5 
C -0.663008 -2.5 -1.29895 -2.236584 -1.767767 -1.767767 
C -2.236584 -1.29895 -2.5 -0.663008 -2.5 0 
C -2.5 0.663008 -2.236584 1.29895 -1.767767 1.767767 
C -1.29895 2.236584 -0.663008 2.5 0 2.5 
z
"/>
    </defs>
    <g clip-path="url(#pf9285e99ce)">
     <use xlink:href="#C3_0_9b7d9b3073" x="489.136354" y="96.994194" style="fill: #ff0000; fill-opacity: 0.3"/>
    </g>
    <g clip-path="url(#pf9285e99ce)">
     <use xlink:href="#C3_0_9b7d9b3073" x="491.007041" y="75.073835" style="fill: #ff0000; fill-opacity: 0.3"/>
    </g>
    <g clip-path="url(#pf9285e99ce)">
     <use xlink:href="#C3_0_9b7d9b3073" x="507.892362" y="55.07978" style="fill: #ff0000; fill-opacity: 0.3"/>
    </g>
    <g clip-path="url(#pf9285e99ce)">
     <use xlink:href="#C3_0_9b7d9b3073" x="513.5716" y="77.303903" style="fill: #ff0000; fill-opacity: 0.3"/>
    </g>
    <g clip-path="url(#pf9285e99ce)">
     <use xlink:href="#C3_0_9b7d9b3073" x="493.679236" y="62.735311" style="fill: #ff0000; fill-opacity: 0.3"/>
    </g>
    <g clip-path="url(#pf9285e99ce)">
     <use xlink:href="#C3_0_9b7d9b3073" x="501.44502" y="93.135417" style="fill: #ff0000; fill-opacity: 0.3"/>
    </g>
    <g clip-path="url(#pf9285e99ce)">
     <use xlink:href="#C3_0_9b7d9b3073" x="510.936882" y="73.84854" style="fill: #ff0000; fill-opacity: 0.3"/>
    </g>
    <g clip-path="url(#pf9285e99ce)">
     <use xlink:href="#C3_0_9b7d9b3073" x="503.224259" y="85.262341" style="fill: #ff0000; fill-opacity: 0.3"/>
    </g>
    <g clip-path="url(#pf9285e99ce)">
     <use xlink:href="#C3_0_9b7d9b3073" x="489.20085" y="84.015554" style="fill: #ff0000; fill-opacity: 0.3"/>
    </g>
    <g clip-path="url(#pf9285e99ce)">
     <use xlink:href="#C3_0_9b7d9b3073" x="506.175662" y="91.743898" style="fill: #ff0000; fill-opacity: 0.3"/>
    </g>
    <g clip-path="url(#pf9285e99ce)">
     <use xlink:href="#C3_0_9b7d9b3073" x="491.957797" y="44.01123" style="fill: #ff0000; fill-opacity: 0.3"/>
    </g>
    <g clip-path="url(#pf9285e99ce)">
     <use xlink:href="#C3_0_9b7d9b3073" x="499.768704" y="96.732906" style="fill: #ff0000; fill-opacity: 0.3"/>
    </g>
    <g clip-path="url(#pf9285e99ce)">
     <use xlink:href="#C3_0_9b7d9b3073" x="505.759761" y="68.270406" style="fill: #ff0000; fill-opacity: 0.3"/>
    </g>
    <g clip-path="url(#pf9285e99ce)">
     <use xlink:href="#C3_0_9b7d9b3073" x="505.563671" y="52.742569" style="fill: #ff0000; fill-opacity: 0.3"/>
    </g>
    <g clip-path="url(#pf9285e99ce)">
     <use xlink:href="#C3_0_9b7d9b3073" x="499.285256" y="95.597694" style="fill: #ff0000; fill-opacity: 0.3"/>
    </g>
    <g clip-path="url(#pf9285e99ce)">
     <use xlink:href="#C3_0_9b7d9b3073" x="493.519281" y="38.018093" style="fill: #ff0000; fill-opacity: 0.3"/>
    </g>
    <g clip-path="url(#pf9285e99ce)">
     <use xlink:href="#C3_0_9b7d9b3073" x="507.561965" y="24.10381" style="fill: #ff0000; fill-opacity: 0.3"/>
    </g>
    <g clip-path="url(#pf9285e99ce)">
     <use xlink:href="#C3_0_9b7d9b3073" x="506.942625" y="46.962338" style="fill: #ff0000; fill-opacity: 0.3"/>
    </g>
    <g clip-path="url(#pf9285e99ce)">
     <use xlink:href="#C3_0_9b7d9b3073" x="503.479365" y="104.89079" style="fill: #ff0000; fill-opacity: 0.3"/>
    </g>
   </g>
   <g id="PathCollection_5">
    <defs>
     <path id="C4_0_a80b5013e4" d="M 0 2.5 
C 0.663008 2.5 1.29895 2.236584 1.767767 1.767767 
C 2.236584 1.29895 2.5 0.663008 2.5 -0 
C 2.5 -0.663008 2.236584 -1.29895 1.767767 -1.767767 
C 1.29895 -2.236584 0.663008 -2.5 0 -2.5 
C -0.663008 -2.5 -1.29895 -2.236584 -1.767767 -1.767767 
C -2.236584 -1.29895 -2.5 -0.663008 -2.5 0 
C -2.5 0.663008 -2.236584 1.29895 -1.767767 1.767767 
C -1.29895 2.236584 -0.663008 2.5 0 2.5 
z
"/>
    </defs>
    <g clip-path="url(#pf9285e99ce)">
     <use xlink:href="#C4_0_a80b5013e4" x="658.356531" y="81.908108" style="fill-opacity: 0.3"/>
    </g>
    <g clip-path="url(#pf9285e99ce)">
     <use xlink:href="#C4_0_a80b5013e4" x="660.605869" y="105.403624" style="fill-opacity: 0.3"/>
    </g>
    <g clip-path="url(#pf9285e99ce)">
     <use xlink:href="#C4_0_a80b5013e4" x="669.548411" y="84.948106" style="fill-opacity: 0.3"/>
    </g>
    <g clip-path="url(#pf9285e99ce)">
     <use xlink:href="#C4_0_a80b5013e4" x="667.169804" y="81.835133" style="fill-opacity: 0.3"/>
    </g>
    <g clip-path="url(#pf9285e99ce)">
     <use xlink:href="#C4_0_a80b5013e4" x="655.391721" y="63.838619" style="fill-opacity: 0.3"/>
    </g>
    <g clip-path="url(#pf9285e99ce)">
     <use xlink:href="#C4_0_a80b5013e4" x="657.702495" y="84.53225" style="fill-opacity: 0.3"/>
    </g>
    <g clip-path="url(#pf9285e99ce)">
     <use xlink:href="#C4_0_a80b5013e4" x="659.407918" y="137.251737" style="fill-opacity: 0.3"/>
    </g>
    <g clip-path="url(#pf9285e99ce)">
     <use xlink:href="#C4_0_a80b5013e4" x="653.614864" y="105.323963" style="fill-opacity: 0.3"/>
    </g>
    <g clip-path="url(#pf9285e99ce)">
     <use xlink:href="#C4_0_a80b5013e4" x="666.999076" y="81.153582" style="fill-opacity: 0.3"/>
    </g>
    <g clip-path="url(#pf9285e99ce)">
     <use xlink:href="#C4_0_a80b5013e4" x="649.725735" y="94.335187" style="fill-opacity: 0.3"/>
    </g>
    <g clip-path="url(#pf9285e99ce)">
     <use xlink:href="#C4_0_a80b5013e4" x="672.696654" y="90.257067" style="fill-opacity: 0.3"/>
    </g>
    <g clip-path="url(#pf9285e99ce)">
     <use xlink:href="#C4_0_a80b5013e4" x="664.320756" y="71.193236" style="fill-opacity: 0.3"/>
    </g>
    <g clip-path="url(#pf9285e99ce)">
     <use xlink:href="#C4_0_a80b5013e4" x="667.312867" y="73.626752" style="fill-opacity: 0.3"/>
    </g>
    <g clip-path="url(#pf9285e99ce)">
     <use xlink:href="#C4_0_a80b5013e4" x="663.748394" y="86.550156" style="fill-opacity: 0.3"/>
    </g>
   </g>
   <g id="PathCollection_6">
    <defs>
     <path id="C5_0_07e3fd906d" d="M 0 2.5 
C 0.663008 2.5 1.29895 2.236584 1.767767 1.767767 
C 2.236584 1.29895 2.5 0.663008 2.5 -0 
C 2.5 -0.663008 2.236584 -1.29895 1.767767 -1.767767 
C 1.29895 -2.236584 0.663008 -2.5 0 -2.5 
C -0.663008 -2.5 -1.29895 -2.236584 -1.767767 -1.767767 
C -2.236584 -1.29895 -2.5 -0.663008 -2.5 0 
C -2.5 0.663008 -2.236584 1.29895 -1.767767 1.767767 
C -1.29895 2.236584 -0.663008 2.5 0 2.5 
z
"/>
    </defs>
    <g clip-path="url(#pf9285e99ce)">
     <use xlink:href="#C5_0_07e3fd906d" x="768.796655" y="67.809669" style="fill: #ff0000; fill-opacity: 0.3"/>
    </g>
    <g clip-path="url(#pf9285e99ce)">
     <use xlink:href="#C5_0_07e3fd906d" x="762.55482" y="125.446027" style="fill: #ff0000; fill-opacity: 0.3"/>
    </g>
    <g clip-path="url(#pf9285e99ce)">
     <use xlink:href="#C5_0_07e3fd906d" x="758.666678" y="90.984759" style="fill: #ff0000; fill-opacity: 0.3"/>
    </g>
    <g clip-path="url(#pf9285e99ce)">
     <use xlink:href="#C5_0_07e3fd906d" x="780.095365" y="84.290517" style="fill: #ff0000; fill-opacity: 0.3"/>
    </g>
    <g clip-path="url(#pf9285e99ce)">
     <use xlink:href="#C5_0_07e3fd906d" x="775.881068" y="99.307857" style="fill: #ff0000; fill-opacity: 0.3"/>
    </g>
    <g clip-path="url(#pf9285e99ce)">
     <use xlink:href="#C5_0_07e3fd906d" x="757.627203" y="121.570378" style="fill: #ff0000; fill-opacity: 0.3"/>
    </g>
    <g clip-path="url(#pf9285e99ce)">
     <use xlink:href="#C5_0_07e3fd906d" x="755.605011" y="71.367347" style="fill: #ff0000; fill-opacity: 0.3"/>
    </g>
    <g clip-path="url(#pf9285e99ce)">
     <use xlink:href="#C5_0_07e3fd906d" x="758.535481" y="105.495615" style="fill: #ff0000; fill-opacity: 0.3"/>
    </g>
    <g clip-path="url(#pf9285e99ce)">
     <use xlink:href="#C5_0_07e3fd906d" x="761.072887" y="81.582526" style="fill: #ff0000; fill-opacity: 0.3"/>
    </g>
    <g clip-path="url(#pf9285e99ce)">
     <use xlink:href="#C5_0_07e3fd906d" x="772.075671" y="113.110386" style="fill: #ff0000; fill-opacity: 0.3"/>
    </g>
    <g clip-path="url(#pf9285e99ce)">
     <use xlink:href="#C5_0_07e3fd906d" x="775.999466" y="109.964271" style="fill: #ff0000; fill-opacity: 0.3"/>
    </g>
   </g>
  </g>
  <g id="text_12">
   <!-- time_combo -->
   <g transform="translate(384.979219 424.08) scale(0.14 -0.14)">
    <use xlink:href="#DejaVuSans-74"/>
    <use xlink:href="#DejaVuSans-69" transform="translate(39.208984 0)"/>
    <use xlink:href="#DejaVuSans-6d" transform="translate(66.992188 0)"/>
    <use xlink:href="#DejaVuSans-65" transform="translate(164.404297 0)"/>
    <use xlink:href="#DejaVuSans-5f" transform="translate(225.927734 0)"/>
    <use xlink:href="#DejaVuSans-63" transform="translate(275.927734 0)"/>
    <use xlink:href="#DejaVuSans-6f" transform="translate(330.908203 0)"/>
    <use xlink:href="#DejaVuSans-6d" transform="translate(392.089844 0)"/>
    <use xlink:href="#DejaVuSans-62" transform="translate(489.501953 0)"/>
    <use xlink:href="#DejaVuSans-6f" transform="translate(552.978516 0)"/>
   </g>
  </g>
 </g>
 <defs>
  <clipPath id="pf9285e99ce">
   <rect x="43.78125" y="7.2" width="805.39" height="354.98"/>
  </clipPath>
 </defs>
</svg>
