<?xml version="1.0" encoding="utf-8" standalone="no"?>
<!DOCTYPE svg PUBLIC "-//W3C//DTD SVG 1.1//EN"
  "http://www.w3.org/Graphics/SVG/1.1/DTD/svg11.dtd">
<svg xmlns:xlink="http://www.w3.org/1999/xlink" width="856.34375pt" height="434.580937pt" viewBox="0 0 856.34375 434.580937" xmlns="http://www.w3.org/2000/svg" version="1.1">
 <metadata>
  <rdf:RDF xmlns:dc="http://purl.org/dc/elements/1.1/" xmlns:cc="http://creativecommons.org/ns#" xmlns:rdf="http://www.w3.org/1999/02/22-rdf-syntax-ns#">
   <cc:Work>
    <dc:type rdf:resource="http://purl.org/dc/dcmitype/StillImage"/>
    <dc:date>2025-11-29T21:06:50.262402</dc:date>
    <dc:format>image/svg+xml</dc:format>
    <dc:creator>
     <cc:Agent>
      <dc:title>Matplotlib v3.10.0, https://matplotlib.org/</dc:title>
     </cc:Agent>
    </dc:creator>
   </cc:Work>
  </rdf:RDF>
 </metadata>
 <defs>
  <style type="text/css">*{stroke-linejoin: round; stroke-linecap: butt}</style>
 </defs>
 <g id="figure_1">
  <g id="patch_1">
   <path d="M 0 434.580937 
L 856.34375 434.580937 
L 856.34375 -0 
L 0 -0 
L 0 434.580937 
z
" style="fill: none"/>
  </g>
  <g id="axes_1">
   <g id="patch_2">
    <path d="M 50.14375 362.18 
L 849.14375 362.18 
L 849.14375 7.2 
L 50.14375 7.2 
L 50.14375 362.18 
z
" style="fill: none"/>
   </g>
   <g id="patch_3">
    <path d="M 76.777083 362.18 
L 183.310417 362.18 
L 183.310417 201.730065 
L 76.777083 201.730065 
L 76.777083 362.18 
z
" clip-path="url(#p919e913a05)" style="fill: none; opacity: 0"/>
   </g>
   <g id="patch_4">
    <path d="M 343.110417 362.18 
L 449.64375 362.18 
L 449.64375 201.730065 
L 343.110417 201.730065 
L 343.110417 362.18 
z
" clip-path="url(#p919e913a05)" style="fill: none; opacity: 0"/>
   </g>
   <g id="patch_5">
    <path d="M 609.44375 362.18 
L 715.977083 362.18 
L 715.977083 201.730065 
L 609.44375 201.730065 
L 609.44375 362.18 
z
" clip-path="url(#p919e913a05)" style="fill: none; opacity: 0"/>
   </g>
   <g id="patch_6">
    <path d="M 183.310417 362.18 
L 289.84375 362.18 
L 289.84375 195.795624 
L 183.310417 195.795624 
L 183.310417 362.18 
z
" clip-path="url(#p919e913a05)" style="fill: none; opacity: 0"/>
   </g>
   <g id="patch_7">
    <path d="M 449.64375 362.18 
L 556.177083 362.18 
L 556.177083 237.838157 
L 449.64375 237.838157 
L 449.64375 362.18 
z
" clip-path="url(#p919e913a05)" style="fill: none; opacity: 0"/>
   </g>
   <g id="patch_8">
    <path d="M 715.977083 362.18 
L 822.510417 362.18 
L 822.510417 156.102001 
L 715.977083 156.102001 
L 715.977083 362.18 
z
" clip-path="url(#p919e913a05)" style="fill: none; opacity: 0"/>
   </g>
   <g id="matplotlib.axis_1">
    <g id="xtick_1">
     <g id="line2d_1">
      <defs>
       <path id="m1153397427" d="M 0 0 
L 0 3.5 
" style="stroke: #000000; stroke-width: 0.8"/>
      </defs>
      <g>
       <use xlink:href="#m1153397427" x="183.310417" y="362.18" style="stroke: #000000; stroke-width: 0.8"/>
      </g>
     </g>
     <g id="text_1">
      <!-- 11_18_25 -->
      <g transform="translate(185.842448 417.355) rotate(-90) scale(0.1 -0.1)">
       <defs>
        <path id="DejaVuSans-31" d="M 794 531 
L 1825 531 
L 1825 4091 
L 703 3866 
L 703 4441 
L 1819 4666 
L 2450 4666 
L 2450 531 
L 3481 531 
L 3481 0 
L 794 0 
L 794 531 
z
" transform="scale(0.015625)"/>
        <path id="DejaVuSans-5f" d="M 3263 -1063 
L 3263 -1509 
L -63 -1509 
L -63 -1063 
L 3263 -1063 
z
" transform="scale(0.015625)"/>
        <path id="DejaVuSans-38" d="M 2034 2216 
Q 1584 2216 1326 1975 
Q 1069 1734 1069 1313 
Q 1069 891 1326 650 
Q 1584 409 2034 409 
Q 2484 409 2743 651 
Q 3003 894 3003 1313 
Q 3003 1734 2745 1975 
Q 2488 2216 2034 2216 
z
M 1403 2484 
Q 997 2584 770 2862 
Q 544 3141 544 3541 
Q 544 4100 942 4425 
Q 1341 4750 2034 4750 
Q 2731 4750 3128 4425 
Q 3525 4100 3525 3541 
Q 3525 3141 3298 2862 
Q 3072 2584 2669 2484 
Q 3125 2378 3379 2068 
Q 3634 1759 3634 1313 
Q 3634 634 3220 271 
Q 2806 -91 2034 -91 
Q 1263 -91 848 271 
Q 434 634 434 1313 
Q 434 1759 690 2068 
Q 947 2378 1403 2484 
z
M 1172 3481 
Q 1172 3119 1398 2916 
Q 1625 2713 2034 2713 
Q 2441 2713 2670 2916 
Q 2900 3119 2900 3481 
Q 2900 3844 2670 4047 
Q 2441 4250 2034 4250 
Q 1625 4250 1398 4047 
Q 1172 3844 1172 3481 
z
" transform="scale(0.015625)"/>
        <path id="DejaVuSans-32" d="M 1228 531 
L 3431 531 
L 3431 0 
L 469 0 
L 469 531 
Q 828 903 1448 1529 
Q 2069 2156 2228 2338 
Q 2531 2678 2651 2914 
Q 2772 3150 2772 3378 
Q 2772 3750 2511 3984 
Q 2250 4219 1831 4219 
Q 1534 4219 1204 4116 
Q 875 4013 500 3803 
L 500 4441 
Q 881 4594 1212 4672 
Q 1544 4750 1819 4750 
Q 2544 4750 2975 4387 
Q 3406 4025 3406 3419 
Q 3406 3131 3298 2873 
Q 3191 2616 2906 2266 
Q 2828 2175 2409 1742 
Q 1991 1309 1228 531 
z
" transform="scale(0.015625)"/>
        <path id="DejaVuSans-35" d="M 691 4666 
L 3169 4666 
L 3169 4134 
L 1269 4134 
L 1269 2991 
Q 1406 3038 1543 3061 
Q 1681 3084 1819 3084 
Q 2600 3084 3056 2656 
Q 3513 2228 3513 1497 
Q 3513 744 3044 326 
Q 2575 -91 1722 -91 
Q 1428 -91 1123 -41 
Q 819 9 494 109 
L 494 744 
Q 775 591 1075 516 
Q 1375 441 1709 441 
Q 2250 441 2565 725 
Q 2881 1009 2881 1497 
Q 2881 1984 2565 2268 
Q 2250 2553 1709 2553 
Q 1456 2553 1204 2497 
Q 953 2441 691 2322 
L 691 4666 
z
" transform="scale(0.015625)"/>
       </defs>
       <use xlink:href="#DejaVuSans-31"/>
       <use xlink:href="#DejaVuSans-31" transform="translate(63.623047 0)"/>
       <use xlink:href="#DejaVuSans-5f" transform="translate(127.246094 0)"/>
       <use xlink:href="#DejaVuSans-31" transform="translate(177.246094 0)"/>
       <use xlink:href="#DejaVuSans-38" transform="translate(240.869141 0)"/>
       <use xlink:href="#DejaVuSans-5f" transform="translate(304.492188 0)"/>
       <use xlink:href="#DejaVuSans-32" transform="translate(354.492188 0)"/>
       <use xlink:href="#DejaVuSans-35" transform="translate(418.115234 0)"/>
      </g>
     </g>
    </g>
    <g id="xtick_2">
     <g id="line2d_2">
      <g>
       <use xlink:href="#m1153397427" x="449.64375" y="362.18" style="stroke: #000000; stroke-width: 0.8"/>
      </g>
     </g>
     <g id="text_2">
      <!-- 4_24_23 -->
      <g transform="translate(452.175781 410.9925) rotate(-90) scale(0.1 -0.1)">
       <defs>
        <path id="DejaVuSans-34" d="M 2419 4116 
L 825 1625 
L 2419 1625 
L 2419 4116 
z
M 2253 4666 
L 3047 4666 
L 3047 1625 
L 3713 1625 
L 3713 1100 
L 3047 1100 
L 3047 0 
L 2419 0 
L 2419 1100 
L 313 1100 
L 313 1709 
L 2253 4666 
z
" transform="scale(0.015625)"/>
        <path id="DejaVuSans-33" d="M 2597 2516 
Q 3050 2419 3304 2112 
Q 3559 1806 3559 1356 
Q 3559 666 3084 287 
Q 2609 -91 1734 -91 
Q 1441 -91 1130 -33 
Q 819 25 488 141 
L 488 750 
Q 750 597 1062 519 
Q 1375 441 1716 441 
Q 2309 441 2620 675 
Q 2931 909 2931 1356 
Q 2931 1769 2642 2001 
Q 2353 2234 1838 2234 
L 1294 2234 
L 1294 2753 
L 1863 2753 
Q 2328 2753 2575 2939 
Q 2822 3125 2822 3475 
Q 2822 3834 2567 4026 
Q 2313 4219 1838 4219 
Q 1578 4219 1281 4162 
Q 984 4106 628 3988 
L 628 4550 
Q 988 4650 1302 4700 
Q 1616 4750 1894 4750 
Q 2613 4750 3031 4423 
Q 3450 4097 3450 3541 
Q 3450 3153 3228 2886 
Q 3006 2619 2597 2516 
z
" transform="scale(0.015625)"/>
       </defs>
       <use xlink:href="#DejaVuSans-34"/>
       <use xlink:href="#DejaVuSans-5f" transform="translate(63.623047 0)"/>
       <use xlink:href="#DejaVuSans-32" transform="translate(113.623047 0)"/>
       <use xlink:href="#DejaVuSans-34" transform="translate(177.246094 0)"/>
       <use xlink:href="#DejaVuSans-5f" transform="translate(240.869141 0)"/>
       <use xlink:href="#DejaVuSans-32" transform="translate(290.869141 0)"/>
       <use xlink:href="#DejaVuSans-33" transform="translate(354.492188 0)"/>
      </g>
     </g>
    </g>
    <g id="xtick_3">
     <g id="line2d_3">
      <g>
       <use xlink:href="#m1153397427" x="715.977083" y="362.18" style="stroke: #000000; stroke-width: 0.8"/>
      </g>
     </g>
     <g id="text_3">
      <!-- 6_6_25 -->
      <g transform="translate(718.509115 404.63) rotate(-90) scale(0.1 -0.1)">
       <defs>
        <path id="DejaVuSans-36" d="M 2113 2584 
Q 1688 2584 1439 2293 
Q 1191 2003 1191 1497 
Q 1191 994 1439 701 
Q 1688 409 2113 409 
Q 2538 409 2786 701 
Q 3034 994 3034 1497 
Q 3034 2003 2786 2293 
Q 2538 2584 2113 2584 
z
M 3366 4563 
L 3366 3988 
Q 3128 4100 2886 4159 
Q 2644 4219 2406 4219 
Q 1781 4219 1451 3797 
Q 1122 3375 1075 2522 
Q 1259 2794 1537 2939 
Q 1816 3084 2150 3084 
Q 2853 3084 3261 2657 
Q 3669 2231 3669 1497 
Q 3669 778 3244 343 
Q 2819 -91 2113 -91 
Q 1303 -91 875 529 
Q 447 1150 447 2328 
Q 447 3434 972 4092 
Q 1497 4750 2381 4750 
Q 2619 4750 2861 4703 
Q 3103 4656 3366 4563 
z
" transform="scale(0.015625)"/>
       </defs>
       <use xlink:href="#DejaVuSans-36"/>
       <use xlink:href="#DejaVuSans-5f" transform="translate(63.623047 0)"/>
       <use xlink:href="#DejaVuSans-36" transform="translate(113.623047 0)"/>
       <use xlink:href="#DejaVuSans-5f" transform="translate(177.246094 0)"/>
       <use xlink:href="#DejaVuSans-32" transform="translate(227.246094 0)"/>
       <use xlink:href="#DejaVuSans-35" transform="translate(290.869141 0)"/>
      </g>
     </g>
    </g>
   </g>
   <g id="matplotlib.axis_2">
    <g id="ytick_1">
     <g id="line2d_4">
      <defs>
       <path id="ma6b4562312" d="M 0 0 
L -3.5 0 
" style="stroke: #000000; stroke-width: 0.8"/>
      </defs>
      <g>
       <use xlink:href="#ma6b4562312" x="50.14375" y="362.18" style="stroke: #000000; stroke-width: 0.8"/>
      </g>
     </g>
     <g id="text_4">
      <!-- 0.00 -->
      <g transform="translate(20.878125 365.979219) scale(0.1 -0.1)">
       <defs>
        <path id="DejaVuSans-30" d="M 2034 4250 
Q 1547 4250 1301 3770 
Q 1056 3291 1056 2328 
Q 1056 1369 1301 889 
Q 1547 409 2034 409 
Q 2525 409 2770 889 
Q 3016 1369 3016 2328 
Q 3016 3291 2770 3770 
Q 2525 4250 2034 4250 
z
M 2034 4750 
Q 2819 4750 3233 4129 
Q 3647 3509 3647 2328 
Q 3647 1150 3233 529 
Q 2819 -91 2034 -91 
Q 1250 -91 836 529 
Q 422 1150 422 2328 
Q 422 3509 836 4129 
Q 1250 4750 2034 4750 
z
" transform="scale(0.015625)"/>
        <path id="DejaVuSans-2e" d="M 684 794 
L 1344 794 
L 1344 0 
L 684 0 
L 684 794 
z
" transform="scale(0.015625)"/>
       </defs>
       <use xlink:href="#DejaVuSans-30"/>
       <use xlink:href="#DejaVuSans-2e" transform="translate(63.623047 0)"/>
       <use xlink:href="#DejaVuSans-30" transform="translate(95.410156 0)"/>
       <use xlink:href="#DejaVuSans-30" transform="translate(159.033203 0)"/>
      </g>
     </g>
    </g>
    <g id="ytick_2">
     <g id="line2d_5">
      <g>
       <use xlink:href="#ma6b4562312" x="50.14375" y="322.067516" style="stroke: #000000; stroke-width: 0.8"/>
      </g>
     </g>
     <g id="text_5">
      <!-- 0.25 -->
      <g transform="translate(20.878125 325.866735) scale(0.1 -0.1)">
       <use xlink:href="#DejaVuSans-30"/>
       <use xlink:href="#DejaVuSans-2e" transform="translate(63.623047 0)"/>
       <use xlink:href="#DejaVuSans-32" transform="translate(95.410156 0)"/>
       <use xlink:href="#DejaVuSans-35" transform="translate(159.033203 0)"/>
      </g>
     </g>
    </g>
    <g id="ytick_3">
     <g id="line2d_6">
      <g>
       <use xlink:href="#ma6b4562312" x="50.14375" y="281.955032" style="stroke: #000000; stroke-width: 0.8"/>
      </g>
     </g>
     <g id="text_6">
      <!-- 0.50 -->
      <g transform="translate(20.878125 285.754251) scale(0.1 -0.1)">
       <use xlink:href="#DejaVuSans-30"/>
       <use xlink:href="#DejaVuSans-2e" transform="translate(63.623047 0)"/>
       <use xlink:href="#DejaVuSans-35" transform="translate(95.410156 0)"/>
       <use xlink:href="#DejaVuSans-30" transform="translate(159.033203 0)"/>
      </g>
     </g>
    </g>
    <g id="ytick_4">
     <g id="line2d_7">
      <g>
       <use xlink:href="#ma6b4562312" x="50.14375" y="241.842548" style="stroke: #000000; stroke-width: 0.8"/>
      </g>
     </g>
     <g id="text_7">
      <!-- 0.75 -->
      <g transform="translate(20.878125 245.641767) scale(0.1 -0.1)">
       <defs>
        <path id="DejaVuSans-37" d="M 525 4666 
L 3525 4666 
L 3525 4397 
L 1831 0 
L 1172 0 
L 2766 4134 
L 525 4134 
L 525 4666 
z
" transform="scale(0.015625)"/>
       </defs>
       <use xlink:href="#DejaVuSans-30"/>
       <use xlink:href="#DejaVuSans-2e" transform="translate(63.623047 0)"/>
       <use xlink:href="#DejaVuSans-37" transform="translate(95.410156 0)"/>
       <use xlink:href="#DejaVuSans-35" transform="translate(159.033203 0)"/>
      </g>
     </g>
    </g>
    <g id="ytick_5">
     <g id="line2d_8">
      <g>
       <use xlink:href="#ma6b4562312" x="50.14375" y="201.730065" style="stroke: #000000; stroke-width: 0.8"/>
      </g>
     </g>
     <g id="text_8">
      <!-- 1.00 -->
      <g transform="translate(20.878125 205.529283) scale(0.1 -0.1)">
       <use xlink:href="#DejaVuSans-31"/>
       <use xlink:href="#DejaVuSans-2e" transform="translate(63.623047 0)"/>
       <use xlink:href="#DejaVuSans-30" transform="translate(95.410156 0)"/>
       <use xlink:href="#DejaVuSans-30" transform="translate(159.033203 0)"/>
      </g>
     </g>
    </g>
    <g id="ytick_6">
     <g id="line2d_9">
      <g>
       <use xlink:href="#ma6b4562312" x="50.14375" y="161.617581" style="stroke: #000000; stroke-width: 0.8"/>
      </g>
     </g>
     <g id="text_9">
      <!-- 1.25 -->
      <g transform="translate(20.878125 165.416799) scale(0.1 -0.1)">
       <use xlink:href="#DejaVuSans-31"/>
       <use xlink:href="#DejaVuSans-2e" transform="translate(63.623047 0)"/>
       <use xlink:href="#DejaVuSans-32" transform="translate(95.410156 0)"/>
       <use xlink:href="#DejaVuSans-35" transform="translate(159.033203 0)"/>
      </g>
     </g>
    </g>
    <g id="ytick_7">
     <g id="line2d_10">
      <g>
       <use xlink:href="#ma6b4562312" x="50.14375" y="121.505097" style="stroke: #000000; stroke-width: 0.8"/>
      </g>
     </g>
     <g id="text_10">
      <!-- 1.50 -->
      <g transform="translate(20.878125 125.304316) scale(0.1 -0.1)">
       <use xlink:href="#DejaVuSans-31"/>
       <use xlink:href="#DejaVuSans-2e" transform="translate(63.623047 0)"/>
       <use xlink:href="#DejaVuSans-35" transform="translate(95.410156 0)"/>
       <use xlink:href="#DejaVuSans-30" transform="translate(159.033203 0)"/>
      </g>
     </g>
    </g>
    <g id="ytick_8">
     <g id="line2d_11">
      <g>
       <use xlink:href="#ma6b4562312" x="50.14375" y="81.392613" style="stroke: #000000; stroke-width: 0.8"/>
      </g>
     </g>
     <g id="text_11">
      <!-- 1.75 -->
      <g transform="translate(20.878125 85.191832) scale(0.1 -0.1)">
       <use xlink:href="#DejaVuSans-31"/>
       <use xlink:href="#DejaVuSans-2e" transform="translate(63.623047 0)"/>
       <use xlink:href="#DejaVuSans-37" transform="translate(95.410156 0)"/>
       <use xlink:href="#DejaVuSans-35" transform="translate(159.033203 0)"/>
      </g>
     </g>
    </g>
    <g id="ytick_9">
     <g id="line2d_12">
      <g>
       <use xlink:href="#ma6b4562312" x="50.14375" y="41.280129" style="stroke: #000000; stroke-width: 0.8"/>
      </g>
     </g>
     <g id="text_12">
      <!-- 2.00 -->
      <g transform="translate(20.878125 45.079348) scale(0.1 -0.1)">
       <use xlink:href="#DejaVuSans-32"/>
       <use xlink:href="#DejaVuSans-2e" transform="translate(63.623047 0)"/>
       <use xlink:href="#DejaVuSans-30" transform="translate(95.410156 0)"/>
       <use xlink:href="#DejaVuSans-30" transform="translate(159.033203 0)"/>
      </g>
     </g>
    </g>
    <g id="text_13">
     <!-- Normalized boutcenterfraction: Binned - 3600 -->
     <g transform="translate(14.798438 299.678281) rotate(-90) scale(0.1 -0.1)">
      <defs>
       <path id="DejaVuSans-4e" d="M 628 4666 
L 1478 4666 
L 3547 763 
L 3547 4666 
L 4159 4666 
L 4159 0 
L 3309 0 
L 1241 3903 
L 1241 0 
L 628 0 
L 628 4666 
z
" transform="scale(0.015625)"/>
       <path id="DejaVuSans-6f" d="M 1959 3097 
Q 1497 3097 1228 2736 
Q 959 2375 959 1747 
Q 959 1119 1226 758 
Q 1494 397 1959 397 
Q 2419 397 2687 759 
Q 2956 1122 2956 1747 
Q 2956 2369 2687 2733 
Q 2419 3097 1959 3097 
z
M 1959 3584 
Q 2709 3584 3137 3096 
Q 3566 2609 3566 1747 
Q 3566 888 3137 398 
Q 2709 -91 1959 -91 
Q 1206 -91 779 398 
Q 353 888 353 1747 
Q 353 2609 779 3096 
Q 1206 3584 1959 3584 
z
" transform="scale(0.015625)"/>
       <path id="DejaVuSans-72" d="M 2631 2963 
Q 2534 3019 2420 3045 
Q 2306 3072 2169 3072 
Q 1681 3072 1420 2755 
Q 1159 2438 1159 1844 
L 1159 0 
L 581 0 
L 581 3500 
L 1159 3500 
L 1159 2956 
Q 1341 3275 1631 3429 
Q 1922 3584 2338 3584 
Q 2397 3584 2469 3576 
Q 2541 3569 2628 3553 
L 2631 2963 
z
" transform="scale(0.015625)"/>
       <path id="DejaVuSans-6d" d="M 3328 2828 
Q 3544 3216 3844 3400 
Q 4144 3584 4550 3584 
Q 5097 3584 5394 3201 
Q 5691 2819 5691 2113 
L 5691 0 
L 5113 0 
L 5113 2094 
Q 5113 2597 4934 2840 
Q 4756 3084 4391 3084 
Q 3944 3084 3684 2787 
Q 3425 2491 3425 1978 
L 3425 0 
L 2847 0 
L 2847 2094 
Q 2847 2600 2669 2842 
Q 2491 3084 2119 3084 
Q 1678 3084 1418 2786 
Q 1159 2488 1159 1978 
L 1159 0 
L 581 0 
L 581 3500 
L 1159 3500 
L 1159 2956 
Q 1356 3278 1631 3431 
Q 1906 3584 2284 3584 
Q 2666 3584 2933 3390 
Q 3200 3197 3328 2828 
z
" transform="scale(0.015625)"/>
       <path id="DejaVuSans-61" d="M 2194 1759 
Q 1497 1759 1228 1600 
Q 959 1441 959 1056 
Q 959 750 1161 570 
Q 1363 391 1709 391 
Q 2188 391 2477 730 
Q 2766 1069 2766 1631 
L 2766 1759 
L 2194 1759 
z
M 3341 1997 
L 3341 0 
L 2766 0 
L 2766 531 
Q 2569 213 2275 61 
Q 1981 -91 1556 -91 
Q 1019 -91 701 211 
Q 384 513 384 1019 
Q 384 1609 779 1909 
Q 1175 2209 1959 2209 
L 2766 2209 
L 2766 2266 
Q 2766 2663 2505 2880 
Q 2244 3097 1772 3097 
Q 1472 3097 1187 3025 
Q 903 2953 641 2809 
L 641 3341 
Q 956 3463 1253 3523 
Q 1550 3584 1831 3584 
Q 2591 3584 2966 3190 
Q 3341 2797 3341 1997 
z
" transform="scale(0.015625)"/>
       <path id="DejaVuSans-6c" d="M 603 4863 
L 1178 4863 
L 1178 0 
L 603 0 
L 603 4863 
z
" transform="scale(0.015625)"/>
       <path id="DejaVuSans-69" d="M 603 3500 
L 1178 3500 
L 1178 0 
L 603 0 
L 603 3500 
z
M 603 4863 
L 1178 4863 
L 1178 4134 
L 603 4134 
L 603 4863 
z
" transform="scale(0.015625)"/>
       <path id="DejaVuSans-7a" d="M 353 3500 
L 3084 3500 
L 3084 2975 
L 922 459 
L 3084 459 
L 3084 0 
L 275 0 
L 275 525 
L 2438 3041 
L 353 3041 
L 353 3500 
z
" transform="scale(0.015625)"/>
       <path id="DejaVuSans-65" d="M 3597 1894 
L 3597 1613 
L 953 1613 
Q 991 1019 1311 708 
Q 1631 397 2203 397 
Q 2534 397 2845 478 
Q 3156 559 3463 722 
L 3463 178 
Q 3153 47 2828 -22 
Q 2503 -91 2169 -91 
Q 1331 -91 842 396 
Q 353 884 353 1716 
Q 353 2575 817 3079 
Q 1281 3584 2069 3584 
Q 2775 3584 3186 3129 
Q 3597 2675 3597 1894 
z
M 3022 2063 
Q 3016 2534 2758 2815 
Q 2500 3097 2075 3097 
Q 1594 3097 1305 2825 
Q 1016 2553 972 2059 
L 3022 2063 
z
" transform="scale(0.015625)"/>
       <path id="DejaVuSans-64" d="M 2906 2969 
L 2906 4863 
L 3481 4863 
L 3481 0 
L 2906 0 
L 2906 525 
Q 2725 213 2448 61 
Q 2172 -91 1784 -91 
Q 1150 -91 751 415 
Q 353 922 353 1747 
Q 353 2572 751 3078 
Q 1150 3584 1784 3584 
Q 2172 3584 2448 3432 
Q 2725 3281 2906 2969 
z
M 947 1747 
Q 947 1113 1208 752 
Q 1469 391 1925 391 
Q 2381 391 2643 752 
Q 2906 1113 2906 1747 
Q 2906 2381 2643 2742 
Q 2381 3103 1925 3103 
Q 1469 3103 1208 2742 
Q 947 2381 947 1747 
z
" transform="scale(0.015625)"/>
       <path id="DejaVuSans-20" transform="scale(0.015625)"/>
       <path id="DejaVuSans-62" d="M 3116 1747 
Q 3116 2381 2855 2742 
Q 2594 3103 2138 3103 
Q 1681 3103 1420 2742 
Q 1159 2381 1159 1747 
Q 1159 1113 1420 752 
Q 1681 391 2138 391 
Q 2594 391 2855 752 
Q 3116 1113 3116 1747 
z
M 1159 2969 
Q 1341 3281 1617 3432 
Q 1894 3584 2278 3584 
Q 2916 3584 3314 3078 
Q 3713 2572 3713 1747 
Q 3713 922 3314 415 
Q 2916 -91 2278 -91 
Q 1894 -91 1617 61 
Q 1341 213 1159 525 
L 1159 0 
L 581 0 
L 581 4863 
L 1159 4863 
L 1159 2969 
z
" transform="scale(0.015625)"/>
       <path id="DejaVuSans-75" d="M 544 1381 
L 544 3500 
L 1119 3500 
L 1119 1403 
Q 1119 906 1312 657 
Q 1506 409 1894 409 
Q 2359 409 2629 706 
Q 2900 1003 2900 1516 
L 2900 3500 
L 3475 3500 
L 3475 0 
L 2900 0 
L 2900 538 
Q 2691 219 2414 64 
Q 2138 -91 1772 -91 
Q 1169 -91 856 284 
Q 544 659 544 1381 
z
M 1991 3584 
L 1991 3584 
z
" transform="scale(0.015625)"/>
       <path id="DejaVuSans-74" d="M 1172 4494 
L 1172 3500 
L 2356 3500 
L 2356 3053 
L 1172 3053 
L 1172 1153 
Q 1172 725 1289 603 
Q 1406 481 1766 481 
L 2356 481 
L 2356 0 
L 1766 0 
Q 1100 0 847 248 
Q 594 497 594 1153 
L 594 3053 
L 172 3053 
L 172 3500 
L 594 3500 
L 594 4494 
L 1172 4494 
z
" transform="scale(0.015625)"/>
       <path id="DejaVuSans-63" d="M 3122 3366 
L 3122 2828 
Q 2878 2963 2633 3030 
Q 2388 3097 2138 3097 
Q 1578 3097 1268 2742 
Q 959 2388 959 1747 
Q 959 1106 1268 751 
Q 1578 397 2138 397 
Q 2388 397 2633 464 
Q 2878 531 3122 666 
L 3122 134 
Q 2881 22 2623 -34 
Q 2366 -91 2075 -91 
Q 1284 -91 818 406 
Q 353 903 353 1747 
Q 353 2603 823 3093 
Q 1294 3584 2113 3584 
Q 2378 3584 2631 3529 
Q 2884 3475 3122 3366 
z
" transform="scale(0.015625)"/>
       <path id="DejaVuSans-6e" d="M 3513 2113 
L 3513 0 
L 2938 0 
L 2938 2094 
Q 2938 2591 2744 2837 
Q 2550 3084 2163 3084 
Q 1697 3084 1428 2787 
Q 1159 2491 1159 1978 
L 1159 0 
L 581 0 
L 581 3500 
L 1159 3500 
L 1159 2956 
Q 1366 3272 1645 3428 
Q 1925 3584 2291 3584 
Q 2894 3584 3203 3211 
Q 3513 2838 3513 2113 
z
" transform="scale(0.015625)"/>
       <path id="DejaVuSans-66" d="M 2375 4863 
L 2375 4384 
L 1825 4384 
Q 1516 4384 1395 4259 
Q 1275 4134 1275 3809 
L 1275 3500 
L 2222 3500 
L 2222 3053 
L 1275 3053 
L 1275 0 
L 697 0 
L 697 3053 
L 147 3053 
L 147 3500 
L 697 3500 
L 697 3744 
Q 697 4328 969 4595 
Q 1241 4863 1831 4863 
L 2375 4863 
z
" transform="scale(0.015625)"/>
       <path id="DejaVuSans-3a" d="M 750 794 
L 1409 794 
L 1409 0 
L 750 0 
L 750 794 
z
M 750 3309 
L 1409 3309 
L 1409 2516 
L 750 2516 
L 750 3309 
z
" transform="scale(0.015625)"/>
       <path id="DejaVuSans-42" d="M 1259 2228 
L 1259 519 
L 2272 519 
Q 2781 519 3026 730 
Q 3272 941 3272 1375 
Q 3272 1813 3026 2020 
Q 2781 2228 2272 2228 
L 1259 2228 
z
M 1259 4147 
L 1259 2741 
L 2194 2741 
Q 2656 2741 2882 2914 
Q 3109 3088 3109 3444 
Q 3109 3797 2882 3972 
Q 2656 4147 2194 4147 
L 1259 4147 
z
M 628 4666 
L 2241 4666 
Q 2963 4666 3353 4366 
Q 3744 4066 3744 3513 
Q 3744 3084 3544 2831 
Q 3344 2578 2956 2516 
Q 3422 2416 3680 2098 
Q 3938 1781 3938 1306 
Q 3938 681 3513 340 
Q 3088 0 2303 0 
L 628 0 
L 628 4666 
z
" transform="scale(0.015625)"/>
       <path id="DejaVuSans-2d" d="M 313 2009 
L 1997 2009 
L 1997 1497 
L 313 1497 
L 313 2009 
z
" transform="scale(0.015625)"/>
      </defs>
      <use xlink:href="#DejaVuSans-4e"/>
      <use xlink:href="#DejaVuSans-6f" transform="translate(74.804688 0)"/>
      <use xlink:href="#DejaVuSans-72" transform="translate(135.986328 0)"/>
      <use xlink:href="#DejaVuSans-6d" transform="translate(175.349609 0)"/>
      <use xlink:href="#DejaVuSans-61" transform="translate(272.761719 0)"/>
      <use xlink:href="#DejaVuSans-6c" transform="translate(334.041016 0)"/>
      <use xlink:href="#DejaVuSans-69" transform="translate(361.824219 0)"/>
      <use xlink:href="#DejaVuSans-7a" transform="translate(389.607422 0)"/>
      <use xlink:href="#DejaVuSans-65" transform="translate(442.097656 0)"/>
      <use xlink:href="#DejaVuSans-64" transform="translate(503.621094 0)"/>
      <use xlink:href="#DejaVuSans-20" transform="translate(567.097656 0)"/>
      <use xlink:href="#DejaVuSans-62" transform="translate(598.884766 0)"/>
      <use xlink:href="#DejaVuSans-6f" transform="translate(662.361328 0)"/>
      <use xlink:href="#DejaVuSans-75" transform="translate(723.542969 0)"/>
      <use xlink:href="#DejaVuSans-74" transform="translate(786.921875 0)"/>
      <use xlink:href="#DejaVuSans-63" transform="translate(826.130859 0)"/>
      <use xlink:href="#DejaVuSans-65" transform="translate(881.111328 0)"/>
      <use xlink:href="#DejaVuSans-6e" transform="translate(942.634766 0)"/>
      <use xlink:href="#DejaVuSans-74" transform="translate(1006.013672 0)"/>
      <use xlink:href="#DejaVuSans-65" transform="translate(1045.222656 0)"/>
      <use xlink:href="#DejaVuSans-72" transform="translate(1106.746094 0)"/>
      <use xlink:href="#DejaVuSans-66" transform="translate(1147.859375 0)"/>
      <use xlink:href="#DejaVuSans-72" transform="translate(1183.064453 0)"/>
      <use xlink:href="#DejaVuSans-61" transform="translate(1224.177734 0)"/>
      <use xlink:href="#DejaVuSans-63" transform="translate(1285.457031 0)"/>
      <use xlink:href="#DejaVuSans-74" transform="translate(1340.4375 0)"/>
      <use xlink:href="#DejaVuSans-69" transform="translate(1379.646484 0)"/>
      <use xlink:href="#DejaVuSans-6f" transform="translate(1407.429688 0)"/>
      <use xlink:href="#DejaVuSans-6e" transform="translate(1468.611328 0)"/>
      <use xlink:href="#DejaVuSans-3a" transform="translate(1531.990234 0)"/>
      <use xlink:href="#DejaVuSans-20" transform="translate(1565.681641 0)"/>
      <use xlink:href="#DejaVuSans-42" transform="translate(1597.46875 0)"/>
      <use xlink:href="#DejaVuSans-69" transform="translate(1666.072266 0)"/>
      <use xlink:href="#DejaVuSans-6e" transform="translate(1693.855469 0)"/>
      <use xlink:href="#DejaVuSans-6e" transform="translate(1757.234375 0)"/>
      <use xlink:href="#DejaVuSans-65" transform="translate(1820.613281 0)"/>
      <use xlink:href="#DejaVuSans-64" transform="translate(1882.136719 0)"/>
      <use xlink:href="#DejaVuSans-20" transform="translate(1945.613281 0)"/>
      <use xlink:href="#DejaVuSans-2d" transform="translate(1977.400391 0)"/>
      <use xlink:href="#DejaVuSans-20" transform="translate(2013.484375 0)"/>
      <use xlink:href="#DejaVuSans-33" transform="translate(2045.271484 0)"/>
      <use xlink:href="#DejaVuSans-36" transform="translate(2108.894531 0)"/>
      <use xlink:href="#DejaVuSans-30" transform="translate(2172.517578 0)"/>
      <use xlink:href="#DejaVuSans-30" transform="translate(2236.140625 0)"/>
     </g>
    </g>
   </g>
   <g id="line2d_13">
    <path d="M 116.727083 223.514423 
L 143.360417 223.514423 
M 130.04375 223.514423 
L 130.04375 179.945706 
M 116.727083 179.945706 
L 143.360417 179.945706 
" clip-path="url(#p919e913a05)" style="fill: none; stroke: #000000; stroke-width: 2; stroke-linecap: square"/>
   </g>
   <g id="line2d_14">
    <path d="M 383.060417 218.127351 
L 409.69375 218.127351 
M 396.377083 218.127351 
L 396.377083 185.332779 
M 383.060417 185.332779 
L 409.69375 185.332779 
" clip-path="url(#p919e913a05)" style="fill: none; stroke: #000000; stroke-width: 2; stroke-linecap: square"/>
   </g>
   <g id="line2d_15">
    <path d="M 649.39375 219.001457 
L 676.027083 219.001457 
M 662.710417 219.001457 
L 662.710417 184.458672 
M 649.39375 184.458672 
L 676.027083 184.458672 
" clip-path="url(#p919e913a05)" style="fill: none; stroke: #000000; stroke-width: 2; stroke-linecap: square"/>
   </g>
   <g id="line2d_16">
    <path d="M 223.260417 207.678893 
L 249.89375 207.678893 
M 236.577083 207.678893 
L 236.577083 183.912355 
M 223.260417 183.912355 
L 249.89375 183.912355 
" clip-path="url(#p919e913a05)" style="fill: none; stroke: #ff0000; stroke-width: 2; stroke-linecap: square"/>
   </g>
   <g id="line2d_17">
    <path d="M 489.59375 249.127436 
L 516.227083 249.127436 
M 502.910417 249.127436 
L 502.910417 226.548879 
M 489.59375 226.548879 
L 516.227083 226.548879 
" clip-path="url(#p919e913a05)" style="fill: none; stroke: #ff0000; stroke-width: 2; stroke-linecap: square"/>
   </g>
   <g id="line2d_18">
    <path d="M 755.927083 177.537186 
L 782.560417 177.537186 
M 769.24375 177.537186 
L 769.24375 134.666816 
M 755.927083 134.666816 
L 782.560417 134.666816 
" clip-path="url(#p919e913a05)" style="fill: none; stroke: #ff0000; stroke-width: 2; stroke-linecap: square"/>
   </g>
   <g id="patch_9">
    <path d="M 50.14375 362.18 
L 50.14375 41.280129 
" style="fill: none; stroke: #000000; stroke-width: 0.8; stroke-linejoin: miter; stroke-linecap: square"/>
   </g>
   <g id="patch_10">
    <path d="M 183.310417 362.18 
L 715.977083 362.18 
" style="fill: none; stroke: #000000; stroke-width: 0.8; stroke-linejoin: miter; stroke-linecap: square"/>
   </g>
   <g id="PathCollection_1">
    <defs>
     <path id="C0_0_7645058746" d="M 0 2.5 
C 0.663008 2.5 1.29895 2.236584 1.767767 1.767767 
C 2.236584 1.29895 2.5 0.663008 2.5 -0 
C 2.5 -0.663008 2.236584 -1.29895 1.767767 -1.767767 
C 1.29895 -2.236584 0.663008 -2.5 0 -2.5 
C -0.663008 -2.5 -1.29895 -2.236584 -1.767767 -1.767767 
C -2.236584 -1.29895 -2.5 -0.663008 -2.5 0 
C -2.5 0.663008 -2.236584 1.29895 -1.767767 1.767767 
C -1.29895 2.236584 -0.663008 2.5 0 2.5 
z
"/>
    </defs>
    <g clip-path="url(#p919e913a05)">
     <use xlink:href="#C0_0_7645058746" x="119.140977" y="96.372543" style="fill-opacity: 0.3"/>
    </g>
    <g clip-path="url(#p919e913a05)">
     <use xlink:href="#C0_0_7645058746" x="139.095814" y="215.560336" style="fill-opacity: 0.3"/>
    </g>
    <g clip-path="url(#p919e913a05)">
     <use xlink:href="#C0_0_7645058746" x="126.373275" y="270.16778" style="fill-opacity: 0.3"/>
    </g>
    <g clip-path="url(#p919e913a05)">
     <use xlink:href="#C0_0_7645058746" x="126.218062" y="261.729322" style="fill-opacity: 0.3"/>
    </g>
    <g clip-path="url(#p919e913a05)">
     <use xlink:href="#C0_0_7645058746" x="130.541569" y="171.81693" style="fill-opacity: 0.3"/>
    </g>
    <g clip-path="url(#p919e913a05)">
     <use xlink:href="#C0_0_7645058746" x="121.633448" y="267.598914" style="fill-opacity: 0.3"/>
    </g>
    <g clip-path="url(#p919e913a05)">
     <use xlink:href="#C0_0_7645058746" x="117.427856" y="228.496793" style="fill-opacity: 0.3"/>
    </g>
    <g clip-path="url(#p919e913a05)">
     <use xlink:href="#C0_0_7645058746" x="136.072242" y="90.151125" style="fill-opacity: 0.3"/>
    </g>
    <g clip-path="url(#p919e913a05)">
     <use xlink:href="#C0_0_7645058746" x="119.043682" y="159.412943" style="fill-opacity: 0.3"/>
    </g>
    <g clip-path="url(#p919e913a05)">
     <use xlink:href="#C0_0_7645058746" x="138.470614" y="255.99396" style="fill-opacity: 0.3"/>
    </g>
   </g>
   <g id="PathCollection_2">
    <defs>
     <path id="C1_0_8048495d9f" d="M 0 2.5 
C 0.663008 2.5 1.29895 2.236584 1.767767 1.767767 
C 2.236584 1.29895 2.5 0.663008 2.5 -0 
C 2.5 -0.663008 2.236584 -1.29895 1.767767 -1.767767 
C 1.29895 -2.236584 0.663008 -2.5 0 -2.5 
C -0.663008 -2.5 -1.29895 -2.236584 -1.767767 -1.767767 
C -2.236584 -1.29895 -2.5 -0.663008 -2.5 0 
C -2.5 0.663008 -2.236584 1.29895 -1.767767 1.767767 
C -1.29895 2.236584 -0.663008 2.5 0 2.5 
z
"/>
    </defs>
    <g clip-path="url(#p919e913a05)">
     <use xlink:href="#C1_0_8048495d9f" x="226.360973" y="159.453384" style="fill: #ff0000; fill-opacity: 0.3"/>
    </g>
    <g clip-path="url(#p919e913a05)">
     <use xlink:href="#C1_0_8048495d9f" x="232.796498" y="142.832491" style="fill: #ff0000; fill-opacity: 0.3"/>
    </g>
    <g clip-path="url(#p919e913a05)">
     <use xlink:href="#C1_0_8048495d9f" x="238.829527" y="164.242267" style="fill: #ff0000; fill-opacity: 0.3"/>
    </g>
    <g clip-path="url(#p919e913a05)">
     <use xlink:href="#C1_0_8048495d9f" x="243.68035" y="216.14146" style="fill: #ff0000; fill-opacity: 0.3"/>
    </g>
    <g clip-path="url(#p919e913a05)">
     <use xlink:href="#C1_0_8048495d9f" x="227.319002" y="257.736388" style="fill: #ff0000; fill-opacity: 0.3"/>
    </g>
    <g clip-path="url(#p919e913a05)">
     <use xlink:href="#C1_0_8048495d9f" x="249.333349" y="243.566417" style="fill: #ff0000; fill-opacity: 0.3"/>
    </g>
    <g clip-path="url(#p919e913a05)">
     <use xlink:href="#C1_0_8048495d9f" x="239.476296" y="203.519589" style="fill: #ff0000; fill-opacity: 0.3"/>
    </g>
    <g clip-path="url(#p919e913a05)">
     <use xlink:href="#C1_0_8048495d9f" x="226.298596" y="211.886783" style="fill: #ff0000; fill-opacity: 0.3"/>
    </g>
    <g clip-path="url(#p919e913a05)">
     <use xlink:href="#C1_0_8048495d9f" x="246.367089" y="189.071932" style="fill: #ff0000; fill-opacity: 0.3"/>
    </g>
    <g clip-path="url(#p919e913a05)">
     <use xlink:href="#C1_0_8048495d9f" x="232.304138" y="169.50553" style="fill: #ff0000; fill-opacity: 0.3"/>
    </g>
   </g>
   <g id="PathCollection_3">
    <defs>
     <path id="C2_0_bcf6b21e42" d="M 0 2.5 
C 0.663008 2.5 1.29895 2.236584 1.767767 1.767767 
C 2.236584 1.29895 2.5 0.663008 2.5 -0 
C 2.5 -0.663008 2.236584 -1.29895 1.767767 -1.767767 
C 1.29895 -2.236584 0.663008 -2.5 0 -2.5 
C -0.663008 -2.5 -1.29895 -2.236584 -1.767767 -1.767767 
C -2.236584 -1.29895 -2.5 -0.663008 -2.5 0 
C -2.5 0.663008 -2.236584 1.29895 -1.767767 1.767767 
C -1.29895 2.236584 -0.663008 2.5 0 2.5 
z
"/>
    </defs>
    <g clip-path="url(#p919e913a05)">
     <use xlink:href="#C2_0_bcf6b21e42" x="391.895792" y="231.504769" style="fill-opacity: 0.3"/>
    </g>
    <g clip-path="url(#p919e913a05)">
     <use xlink:href="#C2_0_bcf6b21e42" x="407.336549" y="195.182082" style="fill-opacity: 0.3"/>
    </g>
    <g clip-path="url(#p919e913a05)">
     <use xlink:href="#C2_0_bcf6b21e42" x="384.036947" y="169.036898" style="fill-opacity: 0.3"/>
    </g>
    <g clip-path="url(#p919e913a05)">
     <use xlink:href="#C2_0_bcf6b21e42" x="409.321188" y="135.998235" style="fill-opacity: 0.3"/>
    </g>
    <g clip-path="url(#p919e913a05)">
     <use xlink:href="#C2_0_bcf6b21e42" x="408.20346" y="54.353858" style="fill-opacity: 0.3"/>
    </g>
    <g clip-path="url(#p919e913a05)">
     <use xlink:href="#C2_0_bcf6b21e42" x="403.546317" y="218.061928" style="fill-opacity: 0.3"/>
    </g>
    <g clip-path="url(#p919e913a05)">
     <use xlink:href="#C2_0_bcf6b21e42" x="390.293449" y="219.128998" style="fill-opacity: 0.3"/>
    </g>
    <g clip-path="url(#p919e913a05)">
     <use xlink:href="#C2_0_bcf6b21e42" x="399.625369" y="173.884488" style="fill-opacity: 0.3"/>
    </g>
    <g clip-path="url(#p919e913a05)">
     <use xlink:href="#C2_0_bcf6b21e42" x="388.625764" y="216.995897" style="fill-opacity: 0.3"/>
    </g>
    <g clip-path="url(#p919e913a05)">
     <use xlink:href="#C2_0_bcf6b21e42" x="400.428749" y="215.528929" style="fill-opacity: 0.3"/>
    </g>
    <g clip-path="url(#p919e913a05)">
     <use xlink:href="#C2_0_bcf6b21e42" x="400.268988" y="297.153599" style="fill-opacity: 0.3"/>
    </g>
    <g clip-path="url(#p919e913a05)">
     <use xlink:href="#C2_0_bcf6b21e42" x="401.641352" y="272.997553" style="fill-opacity: 0.3"/>
    </g>
    <g clip-path="url(#p919e913a05)">
     <use xlink:href="#C2_0_bcf6b21e42" x="404.925262" y="163.597699" style="fill-opacity: 0.3"/>
    </g>
    <g clip-path="url(#p919e913a05)">
     <use xlink:href="#C2_0_bcf6b21e42" x="402.906284" y="260.795971" style="fill-opacity: 0.3"/>
    </g>
   </g>
   <g id="PathCollection_4">
    <defs>
     <path id="C3_0_1361a8d275" d="M 0 2.5 
C 0.663008 2.5 1.29895 2.236584 1.767767 1.767767 
C 2.236584 1.29895 2.5 0.663008 2.5 -0 
C 2.5 -0.663008 2.236584 -1.29895 1.767767 -1.767767 
C 1.29895 -2.236584 0.663008 -2.5 0 -2.5 
C -0.663008 -2.5 -1.29895 -2.236584 -1.767767 -1.767767 
C -2.236584 -1.29895 -2.5 -0.663008 -2.5 0 
C -2.5 0.663008 -2.236584 1.29895 -1.767767 1.767767 
C -1.29895 2.236584 -0.663008 2.5 0 2.5 
z
"/>
    </defs>
    <g clip-path="url(#p919e913a05)">
     <use xlink:href="#C3_0_1361a8d275" x="492.8089" y="164.738317" style="fill: #ff0000; fill-opacity: 0.3"/>
    </g>
    <g clip-path="url(#p919e913a05)">
     <use xlink:href="#C3_0_1361a8d275" x="497.824585" y="225.858962" style="fill: #ff0000; fill-opacity: 0.3"/>
    </g>
    <g clip-path="url(#p919e913a05)">
     <use xlink:href="#C3_0_1361a8d275" x="516.12359" y="274.728857" style="fill: #ff0000; fill-opacity: 0.3"/>
    </g>
    <g clip-path="url(#p919e913a05)">
     <use xlink:href="#C3_0_1361a8d275" x="513.901364" y="234.987552" style="fill: #ff0000; fill-opacity: 0.3"/>
    </g>
    <g clip-path="url(#p919e913a05)">
     <use xlink:href="#C3_0_1361a8d275" x="505.905032" y="263.959044" style="fill: #ff0000; fill-opacity: 0.3"/>
    </g>
    <g clip-path="url(#p919e913a05)">
     <use xlink:href="#C3_0_1361a8d275" x="513.565618" y="204.130637" style="fill: #ff0000; fill-opacity: 0.3"/>
    </g>
    <g clip-path="url(#p919e913a05)">
     <use xlink:href="#C3_0_1361a8d275" x="512.782312" y="222.427796" style="fill: #ff0000; fill-opacity: 0.3"/>
    </g>
    <g clip-path="url(#p919e913a05)">
     <use xlink:href="#C3_0_1361a8d275" x="491.956992" y="214.496939" style="fill: #ff0000; fill-opacity: 0.3"/>
    </g>
    <g clip-path="url(#p919e913a05)">
     <use xlink:href="#C3_0_1361a8d275" x="508.393807" y="232.392163" style="fill: #ff0000; fill-opacity: 0.3"/>
    </g>
    <g clip-path="url(#p919e913a05)">
     <use xlink:href="#C3_0_1361a8d275" x="507.559755" y="189.869223" style="fill: #ff0000; fill-opacity: 0.3"/>
    </g>
    <g clip-path="url(#p919e913a05)">
     <use xlink:href="#C3_0_1361a8d275" x="509.199709" y="297.436112" style="fill: #ff0000; fill-opacity: 0.3"/>
    </g>
    <g clip-path="url(#p919e913a05)">
     <use xlink:href="#C3_0_1361a8d275" x="515.808594" y="173.294506" style="fill: #ff0000; fill-opacity: 0.3"/>
    </g>
    <g clip-path="url(#p919e913a05)">
     <use xlink:href="#C3_0_1361a8d275" x="493.069105" y="253.591894" style="fill: #ff0000; fill-opacity: 0.3"/>
    </g>
    <g clip-path="url(#p919e913a05)">
     <use xlink:href="#C3_0_1361a8d275" x="508.652347" y="270.178242" style="fill: #ff0000; fill-opacity: 0.3"/>
    </g>
    <g clip-path="url(#p919e913a05)">
     <use xlink:href="#C3_0_1361a8d275" x="490.821177" y="203.062122" style="fill: #ff0000; fill-opacity: 0.3"/>
    </g>
    <g clip-path="url(#p919e913a05)">
     <use xlink:href="#C3_0_1361a8d275" x="504.117147" y="311.169455" style="fill: #ff0000; fill-opacity: 0.3"/>
    </g>
    <g clip-path="url(#p919e913a05)">
     <use xlink:href="#C3_0_1361a8d275" x="509.217919" y="327.989517" style="fill: #ff0000; fill-opacity: 0.3"/>
    </g>
    <g clip-path="url(#p919e913a05)">
     <use xlink:href="#C3_0_1361a8d275" x="503.911749" y="289.963618" style="fill: #ff0000; fill-opacity: 0.3"/>
    </g>
    <g clip-path="url(#p919e913a05)">
     <use xlink:href="#C3_0_1361a8d275" x="498.151436" y="164.650032" style="fill: #ff0000; fill-opacity: 0.3"/>
    </g>
   </g>
   <g id="PathCollection_5">
    <defs>
     <path id="C4_0_bb5aa65b0b" d="M 0 2.5 
C 0.663008 2.5 1.29895 2.236584 1.767767 1.767767 
C 2.236584 1.29895 2.5 0.663008 2.5 -0 
C 2.5 -0.663008 2.236584 -1.29895 1.767767 -1.767767 
C 1.29895 -2.236584 0.663008 -2.5 0 -2.5 
C -0.663008 -2.5 -1.29895 -2.236584 -1.767767 -1.767767 
C -2.236584 -1.29895 -2.5 -0.663008 -2.5 0 
C -2.5 0.663008 -2.236584 1.29895 -1.767767 1.767767 
C -1.29895 2.236584 -0.663008 2.5 0 2.5 
z
"/>
    </defs>
    <g clip-path="url(#p919e913a05)">
     <use xlink:href="#C4_0_bb5aa65b0b" x="671.328077" y="229.115875" style="fill-opacity: 0.3"/>
    </g>
    <g clip-path="url(#p919e913a05)">
     <use xlink:href="#C4_0_bb5aa65b0b" x="650.961848" y="158.647525" style="fill-opacity: 0.3"/>
    </g>
    <g clip-path="url(#p919e913a05)">
     <use xlink:href="#C4_0_bb5aa65b0b" x="655.953767" y="219.150977" style="fill-opacity: 0.3"/>
    </g>
    <g clip-path="url(#p919e913a05)">
     <use xlink:href="#C4_0_bb5aa65b0b" x="663.673771" y="246.111451" style="fill-opacity: 0.3"/>
    </g>
    <g clip-path="url(#p919e913a05)">
     <use xlink:href="#C4_0_bb5aa65b0b" x="660.685738" y="297.482855" style="fill-opacity: 0.3"/>
    </g>
    <g clip-path="url(#p919e913a05)">
     <use xlink:href="#C4_0_bb5aa65b0b" x="667.960008" y="196.632265" style="fill-opacity: 0.3"/>
    </g>
    <g clip-path="url(#p919e913a05)">
     <use xlink:href="#C4_0_bb5aa65b0b" x="651.384845" y="24.10381" style="fill-opacity: 0.3"/>
    </g>
    <g clip-path="url(#p919e913a05)">
     <use xlink:href="#C4_0_bb5aa65b0b" x="661.404351" y="147.61047" style="fill-opacity: 0.3"/>
    </g>
    <g clip-path="url(#p919e913a05)">
     <use xlink:href="#C4_0_bb5aa65b0b" x="673.838163" y="211.840158" style="fill-opacity: 0.3"/>
    </g>
    <g clip-path="url(#p919e913a05)">
     <use xlink:href="#C4_0_bb5aa65b0b" x="661.105197" y="171.444135" style="fill-opacity: 0.3"/>
    </g>
    <g clip-path="url(#p919e913a05)">
     <use xlink:href="#C4_0_bb5aa65b0b" x="652.316012" y="207.641988" style="fill-opacity: 0.3"/>
    </g>
    <g clip-path="url(#p919e913a05)">
     <use xlink:href="#C4_0_bb5aa65b0b" x="669.506746" y="243.489049" style="fill-opacity: 0.3"/>
    </g>
    <g clip-path="url(#p919e913a05)">
     <use xlink:href="#C4_0_bb5aa65b0b" x="661.33032" y="253.657785" style="fill-opacity: 0.3"/>
    </g>
    <g clip-path="url(#p919e913a05)">
     <use xlink:href="#C4_0_bb5aa65b0b" x="665.523678" y="217.292563" style="fill-opacity: 0.3"/>
    </g>
   </g>
   <g id="PathCollection_6">
    <defs>
     <path id="C5_0_7cf6611c3a" d="M 0 2.5 
C 0.663008 2.5 1.29895 2.236584 1.767767 1.767767 
C 2.236584 1.29895 2.5 0.663008 2.5 -0 
C 2.5 -0.663008 2.236584 -1.29895 1.767767 -1.767767 
C 1.29895 -2.236584 0.663008 -2.5 0 -2.5 
C -0.663008 -2.5 -1.29895 -2.236584 -1.767767 -1.767767 
C -2.236584 -1.29895 -2.5 -0.663008 -2.5 0 
C -2.5 0.663008 -2.236584 1.29895 -1.767767 1.767767 
C -1.29895 2.236584 -0.663008 2.5 0 2.5 
z
"/>
    </defs>
    <g clip-path="url(#p919e913a05)">
     <use xlink:href="#C5_0_7cf6611c3a" x="773.923992" y="265.203025" style="fill: #ff0000; fill-opacity: 0.3"/>
    </g>
    <g clip-path="url(#p919e913a05)">
     <use xlink:href="#C5_0_7cf6611c3a" x="758.980536" y="25.456524" style="fill: #ff0000; fill-opacity: 0.3"/>
    </g>
    <g clip-path="url(#p919e913a05)">
     <use xlink:href="#C5_0_7cf6611c3a" x="773.770928" y="179.857671" style="fill: #ff0000; fill-opacity: 0.3"/>
    </g>
    <g clip-path="url(#p919e913a05)">
     <use xlink:href="#C5_0_7cf6611c3a" x="782.041125" y="197.599839" style="fill: #ff0000; fill-opacity: 0.3"/>
    </g>
    <g clip-path="url(#p919e913a05)">
     <use xlink:href="#C5_0_7cf6611c3a" x="760.730426" y="156.406645" style="fill: #ff0000; fill-opacity: 0.3"/>
    </g>
    <g clip-path="url(#p919e913a05)">
     <use xlink:href="#C5_0_7cf6611c3a" x="780.911392" y="69.622448" style="fill: #ff0000; fill-opacity: 0.3"/>
    </g>
    <g clip-path="url(#p919e913a05)">
     <use xlink:href="#C5_0_7cf6611c3a" x="764.524709" y="234.880667" style="fill: #ff0000; fill-opacity: 0.3"/>
    </g>
    <g clip-path="url(#p919e913a05)">
     <use xlink:href="#C5_0_7cf6611c3a" x="768.971586" y="129.457137" style="fill: #ff0000; fill-opacity: 0.3"/>
    </g>
    <g clip-path="url(#p919e913a05)">
     <use xlink:href="#C5_0_7cf6611c3a" x="771.699135" y="209.725666" style="fill: #ff0000; fill-opacity: 0.3"/>
    </g>
    <g clip-path="url(#p919e913a05)">
     <use xlink:href="#C5_0_7cf6611c3a" x="781.944546" y="126.743729" style="fill: #ff0000; fill-opacity: 0.3"/>
    </g>
    <g clip-path="url(#p919e913a05)">
     <use xlink:href="#C5_0_7cf6611c3a" x="774.338577" y="122.168658" style="fill: #ff0000; fill-opacity: 0.3"/>
    </g>
   </g>
  </g>
  <g id="text_14">
   <!-- time_combo -->
   <g transform="translate(384.951719 424.08) scale(0.14 -0.14)">
    <use xlink:href="#DejaVuSans-74"/>
    <use xlink:href="#DejaVuSans-69" transform="translate(39.208984 0)"/>
    <use xlink:href="#DejaVuSans-6d" transform="translate(66.992188 0)"/>
    <use xlink:href="#DejaVuSans-65" transform="translate(164.404297 0)"/>
    <use xlink:href="#DejaVuSans-5f" transform="translate(225.927734 0)"/>
    <use xlink:href="#DejaVuSans-63" transform="translate(275.927734 0)"/>
    <use xlink:href="#DejaVuSans-6f" transform="translate(330.908203 0)"/>
    <use xlink:href="#DejaVuSans-6d" transform="translate(392.089844 0)"/>
    <use xlink:href="#DejaVuSans-62" transform="translate(489.501953 0)"/>
    <use xlink:href="#DejaVuSans-6f" transform="translate(552.978516 0)"/>
   </g>
  </g>
 </g>
 <defs>
  <clipPath id="p919e913a05">
   <rect x="50.14375" y="7.2" width="799" height="354.98"/>
  </clipPath>
 </defs>
</svg>
