<?xml version="1.0" encoding="utf-8" standalone="no"?>
<!DOCTYPE svg PUBLIC "-//W3C//DTD SVG 1.1//EN"
  "http://www.w3.org/Graphics/SVG/1.1/DTD/svg11.dtd">
<svg xmlns:xlink="http://www.w3.org/1999/xlink" width="856.520625pt" height="434.580937pt" viewBox="0 0 856.520625 434.580937" xmlns="http://www.w3.org/2000/svg" version="1.1">
 <metadata>
  <rdf:RDF xmlns:dc="http://purl.org/dc/elements/1.1/" xmlns:cc="http://creativecommons.org/ns#" xmlns:rdf="http://www.w3.org/1999/02/22-rdf-syntax-ns#">
   <cc:Work>
    <dc:type rdf:resource="http://purl.org/dc/dcmitype/StillImage"/>
    <dc:date>2025-11-29T21:06:41.590739</dc:date>
    <dc:format>image/svg+xml</dc:format>
    <dc:creator>
     <cc:Agent>
      <dc:title>Matplotlib v3.10.0, https://matplotlib.org/</dc:title>
     </cc:Agent>
    </dc:creator>
   </cc:Work>
  </rdf:RDF>
 </metadata>
 <defs>
  <style type="text/css">*{stroke-linejoin: round; stroke-linecap: butt}</style>
 </defs>
 <g id="figure_1">
  <g id="patch_1">
   <path d="M 0 434.580937 
L 856.520625 434.580937 
L 856.520625 -0 
L 0 -0 
L 0 434.580937 
z
" style="fill: none"/>
  </g>
  <g id="axes_1">
   <g id="patch_2">
    <path d="M 50.421875 362.18 
L 849.320625 362.18 
L 849.320625 7.2 
L 50.421875 7.2 
L 50.421875 362.18 
z
" style="fill: none"/>
   </g>
   <g id="patch_3">
    <path d="M 77.051833 362.18 
L 183.571667 362.18 
L 183.571667 192.367828 
L 77.051833 192.367828 
L 77.051833 362.18 
z
" clip-path="url(#p75e0840760)" style="fill: none; opacity: 0"/>
   </g>
   <g id="patch_4">
    <path d="M 343.351417 362.18 
L 449.87125 362.18 
L 449.87125 192.367828 
L 343.351417 192.367828 
L 343.351417 362.18 
z
" clip-path="url(#p75e0840760)" style="fill: none; opacity: 0"/>
   </g>
   <g id="patch_5">
    <path d="M 609.651 362.18 
L 716.170833 362.18 
L 716.170833 192.367828 
L 609.651 192.367828 
L 609.651 362.18 
z
" clip-path="url(#p75e0840760)" style="fill: none; opacity: 0"/>
   </g>
   <g id="patch_6">
    <path d="M 183.571667 362.18 
L 290.0915 362.18 
L 290.0915 124.132802 
L 183.571667 124.132802 
L 183.571667 362.18 
z
" clip-path="url(#p75e0840760)" style="fill: none; opacity: 0"/>
   </g>
   <g id="patch_7">
    <path d="M 449.87125 362.18 
L 556.391083 362.18 
L 556.391083 213.068229 
L 449.87125 213.068229 
L 449.87125 362.18 
z
" clip-path="url(#p75e0840760)" style="fill: none; opacity: 0"/>
   </g>
   <g id="patch_8">
    <path d="M 716.170833 362.18 
L 822.690667 362.18 
L 822.690667 218.873247 
L 716.170833 218.873247 
L 716.170833 362.18 
z
" clip-path="url(#p75e0840760)" style="fill: none; opacity: 0"/>
   </g>
   <g id="matplotlib.axis_1">
    <g id="xtick_1">
     <g id="line2d_1">
      <defs>
       <path id="m5fc6c61a55" d="M 0 0 
L 0 3.5 
" style="stroke: #000000; stroke-width: 0.8"/>
      </defs>
      <g>
       <use xlink:href="#m5fc6c61a55" x="183.571667" y="362.18" style="stroke: #000000; stroke-width: 0.8"/>
      </g>
     </g>
     <g id="text_1">
      <!-- 11_18_25 -->
      <g transform="translate(186.103698 417.355) rotate(-90) scale(0.1 -0.1)">
       <defs>
        <path id="DejaVuSans-31" d="M 794 531 
L 1825 531 
L 1825 4091 
L 703 3866 
L 703 4441 
L 1819 4666 
L 2450 4666 
L 2450 531 
L 3481 531 
L 3481 0 
L 794 0 
L 794 531 
z
" transform="scale(0.015625)"/>
        <path id="DejaVuSans-5f" d="M 3263 -1063 
L 3263 -1509 
L -63 -1509 
L -63 -1063 
L 3263 -1063 
z
" transform="scale(0.015625)"/>
        <path id="DejaVuSans-38" d="M 2034 2216 
Q 1584 2216 1326 1975 
Q 1069 1734 1069 1313 
Q 1069 891 1326 650 
Q 1584 409 2034 409 
Q 2484 409 2743 651 
Q 3003 894 3003 1313 
Q 3003 1734 2745 1975 
Q 2488 2216 2034 2216 
z
M 1403 2484 
Q 997 2584 770 2862 
Q 544 3141 544 3541 
Q 544 4100 942 4425 
Q 1341 4750 2034 4750 
Q 2731 4750 3128 4425 
Q 3525 4100 3525 3541 
Q 3525 3141 3298 2862 
Q 3072 2584 2669 2484 
Q 3125 2378 3379 2068 
Q 3634 1759 3634 1313 
Q 3634 634 3220 271 
Q 2806 -91 2034 -91 
Q 1263 -91 848 271 
Q 434 634 434 1313 
Q 434 1759 690 2068 
Q 947 2378 1403 2484 
z
M 1172 3481 
Q 1172 3119 1398 2916 
Q 1625 2713 2034 2713 
Q 2441 2713 2670 2916 
Q 2900 3119 2900 3481 
Q 2900 3844 2670 4047 
Q 2441 4250 2034 4250 
Q 1625 4250 1398 4047 
Q 1172 3844 1172 3481 
z
" transform="scale(0.015625)"/>
        <path id="DejaVuSans-32" d="M 1228 531 
L 3431 531 
L 3431 0 
L 469 0 
L 469 531 
Q 828 903 1448 1529 
Q 2069 2156 2228 2338 
Q 2531 2678 2651 2914 
Q 2772 3150 2772 3378 
Q 2772 3750 2511 3984 
Q 2250 4219 1831 4219 
Q 1534 4219 1204 4116 
Q 875 4013 500 3803 
L 500 4441 
Q 881 4594 1212 4672 
Q 1544 4750 1819 4750 
Q 2544 4750 2975 4387 
Q 3406 4025 3406 3419 
Q 3406 3131 3298 2873 
Q 3191 2616 2906 2266 
Q 2828 2175 2409 1742 
Q 1991 1309 1228 531 
z
" transform="scale(0.015625)"/>
        <path id="DejaVuSans-35" d="M 691 4666 
L 3169 4666 
L 3169 4134 
L 1269 4134 
L 1269 2991 
Q 1406 3038 1543 3061 
Q 1681 3084 1819 3084 
Q 2600 3084 3056 2656 
Q 3513 2228 3513 1497 
Q 3513 744 3044 326 
Q 2575 -91 1722 -91 
Q 1428 -91 1123 -41 
Q 819 9 494 109 
L 494 744 
Q 775 591 1075 516 
Q 1375 441 1709 441 
Q 2250 441 2565 725 
Q 2881 1009 2881 1497 
Q 2881 1984 2565 2268 
Q 2250 2553 1709 2553 
Q 1456 2553 1204 2497 
Q 953 2441 691 2322 
L 691 4666 
z
" transform="scale(0.015625)"/>
       </defs>
       <use xlink:href="#DejaVuSans-31"/>
       <use xlink:href="#DejaVuSans-31" transform="translate(63.623047 0)"/>
       <use xlink:href="#DejaVuSans-5f" transform="translate(127.246094 0)"/>
       <use xlink:href="#DejaVuSans-31" transform="translate(177.246094 0)"/>
       <use xlink:href="#DejaVuSans-38" transform="translate(240.869141 0)"/>
       <use xlink:href="#DejaVuSans-5f" transform="translate(304.492188 0)"/>
       <use xlink:href="#DejaVuSans-32" transform="translate(354.492188 0)"/>
       <use xlink:href="#DejaVuSans-35" transform="translate(418.115234 0)"/>
      </g>
     </g>
    </g>
    <g id="xtick_2">
     <g id="line2d_2">
      <g>
       <use xlink:href="#m5fc6c61a55" x="449.87125" y="362.18" style="stroke: #000000; stroke-width: 0.8"/>
      </g>
     </g>
     <g id="text_2">
      <!-- 4_24_23 -->
      <g transform="translate(452.403281 410.9925) rotate(-90) scale(0.1 -0.1)">
       <defs>
        <path id="DejaVuSans-34" d="M 2419 4116 
L 825 1625 
L 2419 1625 
L 2419 4116 
z
M 2253 4666 
L 3047 4666 
L 3047 1625 
L 3713 1625 
L 3713 1100 
L 3047 1100 
L 3047 0 
L 2419 0 
L 2419 1100 
L 313 1100 
L 313 1709 
L 2253 4666 
z
" transform="scale(0.015625)"/>
        <path id="DejaVuSans-33" d="M 2597 2516 
Q 3050 2419 3304 2112 
Q 3559 1806 3559 1356 
Q 3559 666 3084 287 
Q 2609 -91 1734 -91 
Q 1441 -91 1130 -33 
Q 819 25 488 141 
L 488 750 
Q 750 597 1062 519 
Q 1375 441 1716 441 
Q 2309 441 2620 675 
Q 2931 909 2931 1356 
Q 2931 1769 2642 2001 
Q 2353 2234 1838 2234 
L 1294 2234 
L 1294 2753 
L 1863 2753 
Q 2328 2753 2575 2939 
Q 2822 3125 2822 3475 
Q 2822 3834 2567 4026 
Q 2313 4219 1838 4219 
Q 1578 4219 1281 4162 
Q 984 4106 628 3988 
L 628 4550 
Q 988 4650 1302 4700 
Q 1616 4750 1894 4750 
Q 2613 4750 3031 4423 
Q 3450 4097 3450 3541 
Q 3450 3153 3228 2886 
Q 3006 2619 2597 2516 
z
" transform="scale(0.015625)"/>
       </defs>
       <use xlink:href="#DejaVuSans-34"/>
       <use xlink:href="#DejaVuSans-5f" transform="translate(63.623047 0)"/>
       <use xlink:href="#DejaVuSans-32" transform="translate(113.623047 0)"/>
       <use xlink:href="#DejaVuSans-34" transform="translate(177.246094 0)"/>
       <use xlink:href="#DejaVuSans-5f" transform="translate(240.869141 0)"/>
       <use xlink:href="#DejaVuSans-32" transform="translate(290.869141 0)"/>
       <use xlink:href="#DejaVuSans-33" transform="translate(354.492188 0)"/>
      </g>
     </g>
    </g>
    <g id="xtick_3">
     <g id="line2d_3">
      <g>
       <use xlink:href="#m5fc6c61a55" x="716.170833" y="362.18" style="stroke: #000000; stroke-width: 0.8"/>
      </g>
     </g>
     <g id="text_3">
      <!-- 6_6_25 -->
      <g transform="translate(718.702865 404.63) rotate(-90) scale(0.1 -0.1)">
       <defs>
        <path id="DejaVuSans-36" d="M 2113 2584 
Q 1688 2584 1439 2293 
Q 1191 2003 1191 1497 
Q 1191 994 1439 701 
Q 1688 409 2113 409 
Q 2538 409 2786 701 
Q 3034 994 3034 1497 
Q 3034 2003 2786 2293 
Q 2538 2584 2113 2584 
z
M 3366 4563 
L 3366 3988 
Q 3128 4100 2886 4159 
Q 2644 4219 2406 4219 
Q 1781 4219 1451 3797 
Q 1122 3375 1075 2522 
Q 1259 2794 1537 2939 
Q 1816 3084 2150 3084 
Q 2853 3084 3261 2657 
Q 3669 2231 3669 1497 
Q 3669 778 3244 343 
Q 2819 -91 2113 -91 
Q 1303 -91 875 529 
Q 447 1150 447 2328 
Q 447 3434 972 4092 
Q 1497 4750 2381 4750 
Q 2619 4750 2861 4703 
Q 3103 4656 3366 4563 
z
" transform="scale(0.015625)"/>
       </defs>
       <use xlink:href="#DejaVuSans-36"/>
       <use xlink:href="#DejaVuSans-5f" transform="translate(63.623047 0)"/>
       <use xlink:href="#DejaVuSans-36" transform="translate(113.623047 0)"/>
       <use xlink:href="#DejaVuSans-5f" transform="translate(177.246094 0)"/>
       <use xlink:href="#DejaVuSans-32" transform="translate(227.246094 0)"/>
       <use xlink:href="#DejaVuSans-35" transform="translate(290.869141 0)"/>
      </g>
     </g>
    </g>
   </g>
   <g id="matplotlib.axis_2">
    <g id="ytick_1">
     <g id="line2d_4">
      <defs>
       <path id="ma19131731a" d="M 0 0 
L -3.5 0 
" style="stroke: #000000; stroke-width: 0.8"/>
      </defs>
      <g>
       <use xlink:href="#ma19131731a" x="50.421875" y="362.18" style="stroke: #000000; stroke-width: 0.8"/>
      </g>
     </g>
     <g id="text_4">
      <!-- 0.00 -->
      <g transform="translate(21.15625 365.979219) scale(0.1 -0.1)">
       <defs>
        <path id="DejaVuSans-30" d="M 2034 4250 
Q 1547 4250 1301 3770 
Q 1056 3291 1056 2328 
Q 1056 1369 1301 889 
Q 1547 409 2034 409 
Q 2525 409 2770 889 
Q 3016 1369 3016 2328 
Q 3016 3291 2770 3770 
Q 2525 4250 2034 4250 
z
M 2034 4750 
Q 2819 4750 3233 4129 
Q 3647 3509 3647 2328 
Q 3647 1150 3233 529 
Q 2819 -91 2034 -91 
Q 1250 -91 836 529 
Q 422 1150 422 2328 
Q 422 3509 836 4129 
Q 1250 4750 2034 4750 
z
" transform="scale(0.015625)"/>
        <path id="DejaVuSans-2e" d="M 684 794 
L 1344 794 
L 1344 0 
L 684 0 
L 684 794 
z
" transform="scale(0.015625)"/>
       </defs>
       <use xlink:href="#DejaVuSans-30"/>
       <use xlink:href="#DejaVuSans-2e" transform="translate(63.623047 0)"/>
       <use xlink:href="#DejaVuSans-30" transform="translate(95.410156 0)"/>
       <use xlink:href="#DejaVuSans-30" transform="translate(159.033203 0)"/>
      </g>
     </g>
    </g>
    <g id="ytick_2">
     <g id="line2d_5">
      <g>
       <use xlink:href="#ma19131731a" x="50.421875" y="319.726957" style="stroke: #000000; stroke-width: 0.8"/>
      </g>
     </g>
     <g id="text_5">
      <!-- 0.25 -->
      <g transform="translate(21.15625 323.526176) scale(0.1 -0.1)">
       <use xlink:href="#DejaVuSans-30"/>
       <use xlink:href="#DejaVuSans-2e" transform="translate(63.623047 0)"/>
       <use xlink:href="#DejaVuSans-32" transform="translate(95.410156 0)"/>
       <use xlink:href="#DejaVuSans-35" transform="translate(159.033203 0)"/>
      </g>
     </g>
    </g>
    <g id="ytick_3">
     <g id="line2d_6">
      <g>
       <use xlink:href="#ma19131731a" x="50.421875" y="277.273914" style="stroke: #000000; stroke-width: 0.8"/>
      </g>
     </g>
     <g id="text_6">
      <!-- 0.50 -->
      <g transform="translate(21.15625 281.073133) scale(0.1 -0.1)">
       <use xlink:href="#DejaVuSans-30"/>
       <use xlink:href="#DejaVuSans-2e" transform="translate(63.623047 0)"/>
       <use xlink:href="#DejaVuSans-35" transform="translate(95.410156 0)"/>
       <use xlink:href="#DejaVuSans-30" transform="translate(159.033203 0)"/>
      </g>
     </g>
    </g>
    <g id="ytick_4">
     <g id="line2d_7">
      <g>
       <use xlink:href="#ma19131731a" x="50.421875" y="234.820871" style="stroke: #000000; stroke-width: 0.8"/>
      </g>
     </g>
     <g id="text_7">
      <!-- 0.75 -->
      <g transform="translate(21.15625 238.62009) scale(0.1 -0.1)">
       <defs>
        <path id="DejaVuSans-37" d="M 525 4666 
L 3525 4666 
L 3525 4397 
L 1831 0 
L 1172 0 
L 2766 4134 
L 525 4134 
L 525 4666 
z
" transform="scale(0.015625)"/>
       </defs>
       <use xlink:href="#DejaVuSans-30"/>
       <use xlink:href="#DejaVuSans-2e" transform="translate(63.623047 0)"/>
       <use xlink:href="#DejaVuSans-37" transform="translate(95.410156 0)"/>
       <use xlink:href="#DejaVuSans-35" transform="translate(159.033203 0)"/>
      </g>
     </g>
    </g>
    <g id="ytick_5">
     <g id="line2d_8">
      <g>
       <use xlink:href="#ma19131731a" x="50.421875" y="192.367828" style="stroke: #000000; stroke-width: 0.8"/>
      </g>
     </g>
     <g id="text_8">
      <!-- 1.00 -->
      <g transform="translate(21.15625 196.167047) scale(0.1 -0.1)">
       <use xlink:href="#DejaVuSans-31"/>
       <use xlink:href="#DejaVuSans-2e" transform="translate(63.623047 0)"/>
       <use xlink:href="#DejaVuSans-30" transform="translate(95.410156 0)"/>
       <use xlink:href="#DejaVuSans-30" transform="translate(159.033203 0)"/>
      </g>
     </g>
    </g>
    <g id="ytick_6">
     <g id="line2d_9">
      <g>
       <use xlink:href="#ma19131731a" x="50.421875" y="149.914785" style="stroke: #000000; stroke-width: 0.8"/>
      </g>
     </g>
     <g id="text_9">
      <!-- 1.25 -->
      <g transform="translate(21.15625 153.714004) scale(0.1 -0.1)">
       <use xlink:href="#DejaVuSans-31"/>
       <use xlink:href="#DejaVuSans-2e" transform="translate(63.623047 0)"/>
       <use xlink:href="#DejaVuSans-32" transform="translate(95.410156 0)"/>
       <use xlink:href="#DejaVuSans-35" transform="translate(159.033203 0)"/>
      </g>
     </g>
    </g>
    <g id="ytick_7">
     <g id="line2d_10">
      <g>
       <use xlink:href="#ma19131731a" x="50.421875" y="107.461742" style="stroke: #000000; stroke-width: 0.8"/>
      </g>
     </g>
     <g id="text_10">
      <!-- 1.50 -->
      <g transform="translate(21.15625 111.260961) scale(0.1 -0.1)">
       <use xlink:href="#DejaVuSans-31"/>
       <use xlink:href="#DejaVuSans-2e" transform="translate(63.623047 0)"/>
       <use xlink:href="#DejaVuSans-35" transform="translate(95.410156 0)"/>
       <use xlink:href="#DejaVuSans-30" transform="translate(159.033203 0)"/>
      </g>
     </g>
    </g>
    <g id="ytick_8">
     <g id="line2d_11">
      <g>
       <use xlink:href="#ma19131731a" x="50.421875" y="65.008699" style="stroke: #000000; stroke-width: 0.8"/>
      </g>
     </g>
     <g id="text_11">
      <!-- 1.75 -->
      <g transform="translate(21.15625 68.807918) scale(0.1 -0.1)">
       <use xlink:href="#DejaVuSans-31"/>
       <use xlink:href="#DejaVuSans-2e" transform="translate(63.623047 0)"/>
       <use xlink:href="#DejaVuSans-37" transform="translate(95.410156 0)"/>
       <use xlink:href="#DejaVuSans-35" transform="translate(159.033203 0)"/>
      </g>
     </g>
    </g>
    <g id="ytick_9">
     <g id="line2d_12">
      <g>
       <use xlink:href="#ma19131731a" x="50.421875" y="22.555656" style="stroke: #000000; stroke-width: 0.8"/>
      </g>
     </g>
     <g id="text_12">
      <!-- 2.00 -->
      <g transform="translate(21.15625 26.354875) scale(0.1 -0.1)">
       <use xlink:href="#DejaVuSans-32"/>
       <use xlink:href="#DejaVuSans-2e" transform="translate(63.623047 0)"/>
       <use xlink:href="#DejaVuSans-30" transform="translate(95.410156 0)"/>
       <use xlink:href="#DejaVuSans-30" transform="translate(159.033203 0)"/>
      </g>
     </g>
    </g>
    <g id="text_13">
     <!-- Normalized dpix_active: Binned - 1over3600 -->
     <g transform="translate(14.798438 295.750156) rotate(-90) scale(0.1 -0.1)">
      <defs>
       <path id="DejaVuSans-4e" d="M 628 4666 
L 1478 4666 
L 3547 763 
L 3547 4666 
L 4159 4666 
L 4159 0 
L 3309 0 
L 1241 3903 
L 1241 0 
L 628 0 
L 628 4666 
z
" transform="scale(0.015625)"/>
       <path id="DejaVuSans-6f" d="M 1959 3097 
Q 1497 3097 1228 2736 
Q 959 2375 959 1747 
Q 959 1119 1226 758 
Q 1494 397 1959 397 
Q 2419 397 2687 759 
Q 2956 1122 2956 1747 
Q 2956 2369 2687 2733 
Q 2419 3097 1959 3097 
z
M 1959 3584 
Q 2709 3584 3137 3096 
Q 3566 2609 3566 1747 
Q 3566 888 3137 398 
Q 2709 -91 1959 -91 
Q 1206 -91 779 398 
Q 353 888 353 1747 
Q 353 2609 779 3096 
Q 1206 3584 1959 3584 
z
" transform="scale(0.015625)"/>
       <path id="DejaVuSans-72" d="M 2631 2963 
Q 2534 3019 2420 3045 
Q 2306 3072 2169 3072 
Q 1681 3072 1420 2755 
Q 1159 2438 1159 1844 
L 1159 0 
L 581 0 
L 581 3500 
L 1159 3500 
L 1159 2956 
Q 1341 3275 1631 3429 
Q 1922 3584 2338 3584 
Q 2397 3584 2469 3576 
Q 2541 3569 2628 3553 
L 2631 2963 
z
" transform="scale(0.015625)"/>
       <path id="DejaVuSans-6d" d="M 3328 2828 
Q 3544 3216 3844 3400 
Q 4144 3584 4550 3584 
Q 5097 3584 5394 3201 
Q 5691 2819 5691 2113 
L 5691 0 
L 5113 0 
L 5113 2094 
Q 5113 2597 4934 2840 
Q 4756 3084 4391 3084 
Q 3944 3084 3684 2787 
Q 3425 2491 3425 1978 
L 3425 0 
L 2847 0 
L 2847 2094 
Q 2847 2600 2669 2842 
Q 2491 3084 2119 3084 
Q 1678 3084 1418 2786 
Q 1159 2488 1159 1978 
L 1159 0 
L 581 0 
L 581 3500 
L 1159 3500 
L 1159 2956 
Q 1356 3278 1631 3431 
Q 1906 3584 2284 3584 
Q 2666 3584 2933 3390 
Q 3200 3197 3328 2828 
z
" transform="scale(0.015625)"/>
       <path id="DejaVuSans-61" d="M 2194 1759 
Q 1497 1759 1228 1600 
Q 959 1441 959 1056 
Q 959 750 1161 570 
Q 1363 391 1709 391 
Q 2188 391 2477 730 
Q 2766 1069 2766 1631 
L 2766 1759 
L 2194 1759 
z
M 3341 1997 
L 3341 0 
L 2766 0 
L 2766 531 
Q 2569 213 2275 61 
Q 1981 -91 1556 -91 
Q 1019 -91 701 211 
Q 384 513 384 1019 
Q 384 1609 779 1909 
Q 1175 2209 1959 2209 
L 2766 2209 
L 2766 2266 
Q 2766 2663 2505 2880 
Q 2244 3097 1772 3097 
Q 1472 3097 1187 3025 
Q 903 2953 641 2809 
L 641 3341 
Q 956 3463 1253 3523 
Q 1550 3584 1831 3584 
Q 2591 3584 2966 3190 
Q 3341 2797 3341 1997 
z
" transform="scale(0.015625)"/>
       <path id="DejaVuSans-6c" d="M 603 4863 
L 1178 4863 
L 1178 0 
L 603 0 
L 603 4863 
z
" transform="scale(0.015625)"/>
       <path id="DejaVuSans-69" d="M 603 3500 
L 1178 3500 
L 1178 0 
L 603 0 
L 603 3500 
z
M 603 4863 
L 1178 4863 
L 1178 4134 
L 603 4134 
L 603 4863 
z
" transform="scale(0.015625)"/>
       <path id="DejaVuSans-7a" d="M 353 3500 
L 3084 3500 
L 3084 2975 
L 922 459 
L 3084 459 
L 3084 0 
L 275 0 
L 275 525 
L 2438 3041 
L 353 3041 
L 353 3500 
z
" transform="scale(0.015625)"/>
       <path id="DejaVuSans-65" d="M 3597 1894 
L 3597 1613 
L 953 1613 
Q 991 1019 1311 708 
Q 1631 397 2203 397 
Q 2534 397 2845 478 
Q 3156 559 3463 722 
L 3463 178 
Q 3153 47 2828 -22 
Q 2503 -91 2169 -91 
Q 1331 -91 842 396 
Q 353 884 353 1716 
Q 353 2575 817 3079 
Q 1281 3584 2069 3584 
Q 2775 3584 3186 3129 
Q 3597 2675 3597 1894 
z
M 3022 2063 
Q 3016 2534 2758 2815 
Q 2500 3097 2075 3097 
Q 1594 3097 1305 2825 
Q 1016 2553 972 2059 
L 3022 2063 
z
" transform="scale(0.015625)"/>
       <path id="DejaVuSans-64" d="M 2906 2969 
L 2906 4863 
L 3481 4863 
L 3481 0 
L 2906 0 
L 2906 525 
Q 2725 213 2448 61 
Q 2172 -91 1784 -91 
Q 1150 -91 751 415 
Q 353 922 353 1747 
Q 353 2572 751 3078 
Q 1150 3584 1784 3584 
Q 2172 3584 2448 3432 
Q 2725 3281 2906 2969 
z
M 947 1747 
Q 947 1113 1208 752 
Q 1469 391 1925 391 
Q 2381 391 2643 752 
Q 2906 1113 2906 1747 
Q 2906 2381 2643 2742 
Q 2381 3103 1925 3103 
Q 1469 3103 1208 2742 
Q 947 2381 947 1747 
z
" transform="scale(0.015625)"/>
       <path id="DejaVuSans-20" transform="scale(0.015625)"/>
       <path id="DejaVuSans-70" d="M 1159 525 
L 1159 -1331 
L 581 -1331 
L 581 3500 
L 1159 3500 
L 1159 2969 
Q 1341 3281 1617 3432 
Q 1894 3584 2278 3584 
Q 2916 3584 3314 3078 
Q 3713 2572 3713 1747 
Q 3713 922 3314 415 
Q 2916 -91 2278 -91 
Q 1894 -91 1617 61 
Q 1341 213 1159 525 
z
M 3116 1747 
Q 3116 2381 2855 2742 
Q 2594 3103 2138 3103 
Q 1681 3103 1420 2742 
Q 1159 2381 1159 1747 
Q 1159 1113 1420 752 
Q 1681 391 2138 391 
Q 2594 391 2855 752 
Q 3116 1113 3116 1747 
z
" transform="scale(0.015625)"/>
       <path id="DejaVuSans-78" d="M 3513 3500 
L 2247 1797 
L 3578 0 
L 2900 0 
L 1881 1375 
L 863 0 
L 184 0 
L 1544 1831 
L 300 3500 
L 978 3500 
L 1906 2253 
L 2834 3500 
L 3513 3500 
z
" transform="scale(0.015625)"/>
       <path id="DejaVuSans-63" d="M 3122 3366 
L 3122 2828 
Q 2878 2963 2633 3030 
Q 2388 3097 2138 3097 
Q 1578 3097 1268 2742 
Q 959 2388 959 1747 
Q 959 1106 1268 751 
Q 1578 397 2138 397 
Q 2388 397 2633 464 
Q 2878 531 3122 666 
L 3122 134 
Q 2881 22 2623 -34 
Q 2366 -91 2075 -91 
Q 1284 -91 818 406 
Q 353 903 353 1747 
Q 353 2603 823 3093 
Q 1294 3584 2113 3584 
Q 2378 3584 2631 3529 
Q 2884 3475 3122 3366 
z
" transform="scale(0.015625)"/>
       <path id="DejaVuSans-74" d="M 1172 4494 
L 1172 3500 
L 2356 3500 
L 2356 3053 
L 1172 3053 
L 1172 1153 
Q 1172 725 1289 603 
Q 1406 481 1766 481 
L 2356 481 
L 2356 0 
L 1766 0 
Q 1100 0 847 248 
Q 594 497 594 1153 
L 594 3053 
L 172 3053 
L 172 3500 
L 594 3500 
L 594 4494 
L 1172 4494 
z
" transform="scale(0.015625)"/>
       <path id="DejaVuSans-76" d="M 191 3500 
L 800 3500 
L 1894 563 
L 2988 3500 
L 3597 3500 
L 2284 0 
L 1503 0 
L 191 3500 
z
" transform="scale(0.015625)"/>
       <path id="DejaVuSans-3a" d="M 750 794 
L 1409 794 
L 1409 0 
L 750 0 
L 750 794 
z
M 750 3309 
L 1409 3309 
L 1409 2516 
L 750 2516 
L 750 3309 
z
" transform="scale(0.015625)"/>
       <path id="DejaVuSans-42" d="M 1259 2228 
L 1259 519 
L 2272 519 
Q 2781 519 3026 730 
Q 3272 941 3272 1375 
Q 3272 1813 3026 2020 
Q 2781 2228 2272 2228 
L 1259 2228 
z
M 1259 4147 
L 1259 2741 
L 2194 2741 
Q 2656 2741 2882 2914 
Q 3109 3088 3109 3444 
Q 3109 3797 2882 3972 
Q 2656 4147 2194 4147 
L 1259 4147 
z
M 628 4666 
L 2241 4666 
Q 2963 4666 3353 4366 
Q 3744 4066 3744 3513 
Q 3744 3084 3544 2831 
Q 3344 2578 2956 2516 
Q 3422 2416 3680 2098 
Q 3938 1781 3938 1306 
Q 3938 681 3513 340 
Q 3088 0 2303 0 
L 628 0 
L 628 4666 
z
" transform="scale(0.015625)"/>
       <path id="DejaVuSans-6e" d="M 3513 2113 
L 3513 0 
L 2938 0 
L 2938 2094 
Q 2938 2591 2744 2837 
Q 2550 3084 2163 3084 
Q 1697 3084 1428 2787 
Q 1159 2491 1159 1978 
L 1159 0 
L 581 0 
L 581 3500 
L 1159 3500 
L 1159 2956 
Q 1366 3272 1645 3428 
Q 1925 3584 2291 3584 
Q 2894 3584 3203 3211 
Q 3513 2838 3513 2113 
z
" transform="scale(0.015625)"/>
       <path id="DejaVuSans-2d" d="M 313 2009 
L 1997 2009 
L 1997 1497 
L 313 1497 
L 313 2009 
z
" transform="scale(0.015625)"/>
      </defs>
      <use xlink:href="#DejaVuSans-4e"/>
      <use xlink:href="#DejaVuSans-6f" transform="translate(74.804688 0)"/>
      <use xlink:href="#DejaVuSans-72" transform="translate(135.986328 0)"/>
      <use xlink:href="#DejaVuSans-6d" transform="translate(175.349609 0)"/>
      <use xlink:href="#DejaVuSans-61" transform="translate(272.761719 0)"/>
      <use xlink:href="#DejaVuSans-6c" transform="translate(334.041016 0)"/>
      <use xlink:href="#DejaVuSans-69" transform="translate(361.824219 0)"/>
      <use xlink:href="#DejaVuSans-7a" transform="translate(389.607422 0)"/>
      <use xlink:href="#DejaVuSans-65" transform="translate(442.097656 0)"/>
      <use xlink:href="#DejaVuSans-64" transform="translate(503.621094 0)"/>
      <use xlink:href="#DejaVuSans-20" transform="translate(567.097656 0)"/>
      <use xlink:href="#DejaVuSans-64" transform="translate(598.884766 0)"/>
      <use xlink:href="#DejaVuSans-70" transform="translate(662.361328 0)"/>
      <use xlink:href="#DejaVuSans-69" transform="translate(725.837891 0)"/>
      <use xlink:href="#DejaVuSans-78" transform="translate(753.621094 0)"/>
      <use xlink:href="#DejaVuSans-5f" transform="translate(812.800781 0)"/>
      <use xlink:href="#DejaVuSans-61" transform="translate(862.800781 0)"/>
      <use xlink:href="#DejaVuSans-63" transform="translate(924.080078 0)"/>
      <use xlink:href="#DejaVuSans-74" transform="translate(979.060547 0)"/>
      <use xlink:href="#DejaVuSans-69" transform="translate(1018.269531 0)"/>
      <use xlink:href="#DejaVuSans-76" transform="translate(1046.052734 0)"/>
      <use xlink:href="#DejaVuSans-65" transform="translate(1105.232422 0)"/>
      <use xlink:href="#DejaVuSans-3a" transform="translate(1166.755859 0)"/>
      <use xlink:href="#DejaVuSans-20" transform="translate(1200.447266 0)"/>
      <use xlink:href="#DejaVuSans-42" transform="translate(1232.234375 0)"/>
      <use xlink:href="#DejaVuSans-69" transform="translate(1300.837891 0)"/>
      <use xlink:href="#DejaVuSans-6e" transform="translate(1328.621094 0)"/>
      <use xlink:href="#DejaVuSans-6e" transform="translate(1392 0)"/>
      <use xlink:href="#DejaVuSans-65" transform="translate(1455.378906 0)"/>
      <use xlink:href="#DejaVuSans-64" transform="translate(1516.902344 0)"/>
      <use xlink:href="#DejaVuSans-20" transform="translate(1580.378906 0)"/>
      <use xlink:href="#DejaVuSans-2d" transform="translate(1612.166016 0)"/>
      <use xlink:href="#DejaVuSans-20" transform="translate(1648.25 0)"/>
      <use xlink:href="#DejaVuSans-31" transform="translate(1680.037109 0)"/>
      <use xlink:href="#DejaVuSans-6f" transform="translate(1743.660156 0)"/>
      <use xlink:href="#DejaVuSans-76" transform="translate(1804.841797 0)"/>
      <use xlink:href="#DejaVuSans-65" transform="translate(1864.021484 0)"/>
      <use xlink:href="#DejaVuSans-72" transform="translate(1925.544922 0)"/>
      <use xlink:href="#DejaVuSans-33" transform="translate(1966.658203 0)"/>
      <use xlink:href="#DejaVuSans-36" transform="translate(2030.28125 0)"/>
      <use xlink:href="#DejaVuSans-30" transform="translate(2093.904297 0)"/>
      <use xlink:href="#DejaVuSans-30" transform="translate(2157.527344 0)"/>
     </g>
    </g>
   </g>
   <g id="line2d_13">
    <path d="M 116.996771 214.808873 
L 143.626729 214.808873 
M 130.31175 214.808873 
L 130.31175 169.926783 
M 116.996771 169.926783 
L 143.626729 169.926783 
" clip-path="url(#p75e0840760)" style="fill: none; stroke: #000000; stroke-width: 2; stroke-linecap: square"/>
   </g>
   <g id="line2d_14">
    <path d="M 383.296354 206.95555 
L 409.926312 206.95555 
M 396.611333 206.95555 
L 396.611333 177.780106 
M 383.296354 177.780106 
L 409.926312 177.780106 
" clip-path="url(#p75e0840760)" style="fill: none; stroke: #000000; stroke-width: 2; stroke-linecap: square"/>
   </g>
   <g id="line2d_15">
    <path d="M 649.595937 207.782838 
L 676.225896 207.782838 
M 662.910917 207.782838 
L 662.910917 176.952818 
M 649.595937 176.952818 
L 676.225896 176.952818 
" clip-path="url(#p75e0840760)" style="fill: none; stroke: #000000; stroke-width: 2; stroke-linecap: square"/>
   </g>
   <g id="line2d_16">
    <path d="M 223.516604 142.007587 
L 250.146563 142.007587 
M 236.831583 142.007587 
L 236.831583 106.258016 
M 223.516604 106.258016 
L 250.146563 106.258016 
" clip-path="url(#p75e0840760)" style="fill: none; stroke: #ff0000; stroke-width: 2; stroke-linecap: square"/>
   </g>
   <g id="line2d_17">
    <path d="M 489.816188 221.659159 
L 516.446146 221.659159 
M 503.131167 221.659159 
L 503.131167 204.477299 
M 489.816188 204.477299 
L 516.446146 204.477299 
" clip-path="url(#p75e0840760)" style="fill: none; stroke: #ff0000; stroke-width: 2; stroke-linecap: square"/>
   </g>
   <g id="line2d_18">
    <path d="M 756.115771 239.975363 
L 782.745729 239.975363 
M 769.43075 239.975363 
L 769.43075 197.771132 
M 756.115771 197.771132 
L 782.745729 197.771132 
" clip-path="url(#p75e0840760)" style="fill: none; stroke: #ff0000; stroke-width: 2; stroke-linecap: square"/>
   </g>
   <g id="patch_9">
    <path d="M 50.421875 362.18 
L 50.421875 22.555656 
" style="fill: none; stroke: #000000; stroke-width: 0.8; stroke-linejoin: miter; stroke-linecap: square"/>
   </g>
   <g id="patch_10">
    <path d="M 183.571667 362.18 
L 716.170833 362.18 
" style="fill: none; stroke: #000000; stroke-width: 0.8; stroke-linejoin: miter; stroke-linecap: square"/>
   </g>
   <g id="PathCollection_1">
    <defs>
     <path id="C0_0_b4c778e90d" d="M 0 2.5 
C 0.663008 2.5 1.29895 2.236584 1.767767 1.767767 
C 2.236584 1.29895 2.5 0.663008 2.5 -0 
C 2.5 -0.663008 2.236584 -1.29895 1.767767 -1.767767 
C 1.29895 -2.236584 0.663008 -2.5 0 -2.5 
C -0.663008 -2.5 -1.29895 -2.236584 -1.767767 -1.767767 
C -2.236584 -1.29895 -2.5 -0.663008 -2.5 0 
C -2.5 0.663008 -2.236584 1.29895 -1.767767 1.767767 
C -1.29895 2.236584 -0.663008 2.5 0 2.5 
z
"/>
    </defs>
    <g clip-path="url(#p75e0840760)">
     <use xlink:href="#C0_0_b4c778e90d" x="125.656425" y="302.011251" style="fill-opacity: 0.3"/>
    </g>
    <g clip-path="url(#p75e0840760)">
     <use xlink:href="#C0_0_b4c778e90d" x="137.950556" y="116.940324" style="fill-opacity: 0.3"/>
    </g>
    <g clip-path="url(#p75e0840760)">
     <use xlink:href="#C0_0_b4c778e90d" x="138.512144" y="129.930662" style="fill-opacity: 0.3"/>
    </g>
    <g clip-path="url(#p75e0840760)">
     <use xlink:href="#C0_0_b4c778e90d" x="136.804053" y="167.419003" style="fill-opacity: 0.3"/>
    </g>
    <g clip-path="url(#p75e0840760)">
     <use xlink:href="#C0_0_b4c778e90d" x="134.77821" y="280.508704" style="fill-opacity: 0.3"/>
    </g>
    <g clip-path="url(#p75e0840760)">
     <use xlink:href="#C0_0_b4c778e90d" x="131.794308" y="206.709884" style="fill-opacity: 0.3"/>
    </g>
    <g clip-path="url(#p75e0840760)">
     <use xlink:href="#C0_0_b4c778e90d" x="123.99995" y="129.893031" style="fill-opacity: 0.3"/>
    </g>
    <g clip-path="url(#p75e0840760)">
     <use xlink:href="#C0_0_b4c778e90d" x="123.501354" y="282.491876" style="fill-opacity: 0.3"/>
    </g>
    <g clip-path="url(#p75e0840760)">
     <use xlink:href="#C0_0_b4c778e90d" x="140.199833" y="161.969985" style="fill-opacity: 0.3"/>
    </g>
    <g clip-path="url(#p75e0840760)">
     <use xlink:href="#C0_0_b4c778e90d" x="137.759921" y="145.803561" style="fill-opacity: 0.3"/>
    </g>
   </g>
   <g id="PathCollection_2">
    <defs>
     <path id="C1_0_f69984dff1" d="M 0 2.5 
C 0.663008 2.5 1.29895 2.236584 1.767767 1.767767 
C 2.236584 1.29895 2.5 0.663008 2.5 -0 
C 2.5 -0.663008 2.236584 -1.29895 1.767767 -1.767767 
C 1.29895 -2.236584 0.663008 -2.5 0 -2.5 
C -0.663008 -2.5 -1.29895 -2.236584 -1.767767 -1.767767 
C -2.236584 -1.29895 -2.5 -0.663008 -2.5 0 
C -2.5 0.663008 -2.236584 1.29895 -1.767767 1.767767 
C -1.29895 2.236584 -0.663008 2.5 0 2.5 
z
"/>
    </defs>
    <g clip-path="url(#p75e0840760)">
     <use xlink:href="#C1_0_f69984dff1" x="232.698025" y="189.301627" style="fill: #ff0000; fill-opacity: 0.3"/>
    </g>
    <g clip-path="url(#p75e0840760)">
     <use xlink:href="#C1_0_f69984dff1" x="227.242686" y="85.785338" style="fill: #ff0000; fill-opacity: 0.3"/>
    </g>
    <g clip-path="url(#p75e0840760)">
     <use xlink:href="#C1_0_f69984dff1" x="236.330621" y="94.974911" style="fill: #ff0000; fill-opacity: 0.3"/>
    </g>
    <g clip-path="url(#p75e0840760)">
     <use xlink:href="#C1_0_f69984dff1" x="225.302023" y="181.925884" style="fill: #ff0000; fill-opacity: 0.3"/>
    </g>
    <g clip-path="url(#p75e0840760)">
     <use xlink:href="#C1_0_f69984dff1" x="229.4965" y="202.713436" style="fill: #ff0000; fill-opacity: 0.3"/>
    </g>
    <g clip-path="url(#p75e0840760)">
     <use xlink:href="#C1_0_f69984dff1" x="230.561881" y="120.504012" style="fill: #ff0000; fill-opacity: 0.3"/>
    </g>
    <g clip-path="url(#p75e0840760)">
     <use xlink:href="#C1_0_f69984dff1" x="246.440285" y="74.593778" style="fill: #ff0000; fill-opacity: 0.3"/>
    </g>
    <g clip-path="url(#p75e0840760)">
     <use xlink:href="#C1_0_f69984dff1" x="237.237192" y="136.58012" style="fill: #ff0000; fill-opacity: 0.3"/>
    </g>
    <g clip-path="url(#p75e0840760)">
     <use xlink:href="#C1_0_f69984dff1" x="226.024548" y="130.845104" style="fill: #ff0000; fill-opacity: 0.3"/>
    </g>
    <g clip-path="url(#p75e0840760)">
     <use xlink:href="#C1_0_f69984dff1" x="248.740865" y="24.10381" style="fill: #ff0000; fill-opacity: 0.3"/>
    </g>
   </g>
   <g id="PathCollection_3">
    <defs>
     <path id="C2_0_43da89b94c" d="M 0 2.5 
C 0.663008 2.5 1.29895 2.236584 1.767767 1.767767 
C 2.236584 1.29895 2.5 0.663008 2.5 -0 
C 2.5 -0.663008 2.236584 -1.29895 1.767767 -1.767767 
C 1.29895 -2.236584 0.663008 -2.5 0 -2.5 
C -0.663008 -2.5 -1.29895 -2.236584 -1.767767 -1.767767 
C -2.236584 -1.29895 -2.5 -0.663008 -2.5 0 
C -2.5 0.663008 -2.236584 1.29895 -1.767767 1.767767 
C -1.29895 2.236584 -0.663008 2.5 0 2.5 
z
"/>
    </defs>
    <g clip-path="url(#p75e0840760)">
     <use xlink:href="#C2_0_43da89b94c" x="404.286217" y="100.380676" style="fill-opacity: 0.3"/>
    </g>
    <g clip-path="url(#p75e0840760)">
     <use xlink:href="#C2_0_43da89b94c" x="386.298076" y="181.655272" style="fill-opacity: 0.3"/>
    </g>
    <g clip-path="url(#p75e0840760)">
     <use xlink:href="#C2_0_43da89b94c" x="400.193154" y="217.075592" style="fill-opacity: 0.3"/>
    </g>
    <g clip-path="url(#p75e0840760)">
     <use xlink:href="#C2_0_43da89b94c" x="397.236216" y="166.362285" style="fill-opacity: 0.3"/>
    </g>
    <g clip-path="url(#p75e0840760)">
     <use xlink:href="#C2_0_43da89b94c" x="407.158373" y="130.995451" style="fill-opacity: 0.3"/>
    </g>
    <g clip-path="url(#p75e0840760)">
     <use xlink:href="#C2_0_43da89b94c" x="392.177341" y="228.455846" style="fill-opacity: 0.3"/>
    </g>
    <g clip-path="url(#p75e0840760)">
     <use xlink:href="#C2_0_43da89b94c" x="394.227875" y="251.660702" style="fill-opacity: 0.3"/>
    </g>
    <g clip-path="url(#p75e0840760)">
     <use xlink:href="#C2_0_43da89b94c" x="398.299285" y="202.428556" style="fill-opacity: 0.3"/>
    </g>
    <g clip-path="url(#p75e0840760)">
     <use xlink:href="#C2_0_43da89b94c" x="387.431898" y="206.39889" style="fill-opacity: 0.3"/>
    </g>
    <g clip-path="url(#p75e0840760)">
     <use xlink:href="#C2_0_43da89b94c" x="393.541077" y="197.9357" style="fill-opacity: 0.3"/>
    </g>
    <g clip-path="url(#p75e0840760)">
     <use xlink:href="#C2_0_43da89b94c" x="394.979246" y="269.570407" style="fill-opacity: 0.3"/>
    </g>
    <g clip-path="url(#p75e0840760)">
     <use xlink:href="#C2_0_43da89b94c" x="385.47072" y="233.117389" style="fill-opacity: 0.3"/>
    </g>
    <g clip-path="url(#p75e0840760)">
     <use xlink:href="#C2_0_43da89b94c" x="406.643385" y="221.819422" style="fill-opacity: 0.3"/>
    </g>
    <g clip-path="url(#p75e0840760)">
     <use xlink:href="#C2_0_43da89b94c" x="406.899271" y="85.293405" style="fill-opacity: 0.3"/>
    </g>
   </g>
   <g id="PathCollection_4">
    <defs>
     <path id="C3_0_ba6c2cb7af" d="M 0 2.5 
C 0.663008 2.5 1.29895 2.236584 1.767767 1.767767 
C 2.236584 1.29895 2.5 0.663008 2.5 -0 
C 2.5 -0.663008 2.236584 -1.29895 1.767767 -1.767767 
C 1.29895 -2.236584 0.663008 -2.5 0 -2.5 
C -0.663008 -2.5 -1.29895 -2.236584 -1.767767 -1.767767 
C -2.236584 -1.29895 -2.5 -0.663008 -2.5 0 
C -2.5 0.663008 -2.236584 1.29895 -1.767767 1.767767 
C -1.29895 2.236584 -0.663008 2.5 0 2.5 
z
"/>
    </defs>
    <g clip-path="url(#p75e0840760)">
     <use xlink:href="#C3_0_ba6c2cb7af" x="497.332539" y="257.239742" style="fill: #ff0000; fill-opacity: 0.3"/>
    </g>
    <g clip-path="url(#p75e0840760)">
     <use xlink:href="#C3_0_ba6c2cb7af" x="494.805214" y="255.931383" style="fill: #ff0000; fill-opacity: 0.3"/>
    </g>
    <g clip-path="url(#p75e0840760)">
     <use xlink:href="#C3_0_ba6c2cb7af" x="499.150189" y="235.943938" style="fill: #ff0000; fill-opacity: 0.3"/>
    </g>
    <g clip-path="url(#p75e0840760)">
     <use xlink:href="#C3_0_ba6c2cb7af" x="490.252633" y="142.898226" style="fill: #ff0000; fill-opacity: 0.3"/>
    </g>
    <g clip-path="url(#p75e0840760)">
     <use xlink:href="#C3_0_ba6c2cb7af" x="511.043166" y="198.705081" style="fill: #ff0000; fill-opacity: 0.3"/>
    </g>
    <g clip-path="url(#p75e0840760)">
     <use xlink:href="#C3_0_ba6c2cb7af" x="514.850628" y="210.282823" style="fill: #ff0000; fill-opacity: 0.3"/>
    </g>
    <g clip-path="url(#p75e0840760)">
     <use xlink:href="#C3_0_ba6c2cb7af" x="495.778936" y="167.555442" style="fill: #ff0000; fill-opacity: 0.3"/>
    </g>
    <g clip-path="url(#p75e0840760)">
     <use xlink:href="#C3_0_ba6c2cb7af" x="494.237415" y="225.814442" style="fill: #ff0000; fill-opacity: 0.3"/>
    </g>
    <g clip-path="url(#p75e0840760)">
     <use xlink:href="#C3_0_ba6c2cb7af" x="496.651994" y="145.268083" style="fill: #ff0000; fill-opacity: 0.3"/>
    </g>
    <g clip-path="url(#p75e0840760)">
     <use xlink:href="#C3_0_ba6c2cb7af" x="512.153457" y="231.607428" style="fill: #ff0000; fill-opacity: 0.3"/>
    </g>
    <g clip-path="url(#p75e0840760)">
     <use xlink:href="#C3_0_ba6c2cb7af" x="506.358708" y="228.348873" style="fill: #ff0000; fill-opacity: 0.3"/>
    </g>
    <g clip-path="url(#p75e0840760)">
     <use xlink:href="#C3_0_ba6c2cb7af" x="503.324198" y="290.77981" style="fill: #ff0000; fill-opacity: 0.3"/>
    </g>
    <g clip-path="url(#p75e0840760)">
     <use xlink:href="#C3_0_ba6c2cb7af" x="515.930271" y="223.732588" style="fill: #ff0000; fill-opacity: 0.3"/>
    </g>
    <g clip-path="url(#p75e0840760)">
     <use xlink:href="#C3_0_ba6c2cb7af" x="515.015861" y="212.381135" style="fill: #ff0000; fill-opacity: 0.3"/>
    </g>
    <g clip-path="url(#p75e0840760)">
     <use xlink:href="#C3_0_ba6c2cb7af" x="508.815981" y="218.458009" style="fill: #ff0000; fill-opacity: 0.3"/>
    </g>
    <g clip-path="url(#p75e0840760)">
     <use xlink:href="#C3_0_ba6c2cb7af" x="508.582826" y="226.147704" style="fill: #ff0000; fill-opacity: 0.3"/>
    </g>
    <g clip-path="url(#p75e0840760)">
     <use xlink:href="#C3_0_ba6c2cb7af" x="497.306102" y="185.909496" style="fill: #ff0000; fill-opacity: 0.3"/>
    </g>
    <g clip-path="url(#p75e0840760)">
     <use xlink:href="#C3_0_ba6c2cb7af" x="515.535931" y="214.158528" style="fill: #ff0000; fill-opacity: 0.3"/>
    </g>
    <g clip-path="url(#p75e0840760)">
     <use xlink:href="#C3_0_ba6c2cb7af" x="509.964879" y="177.133617" style="fill: #ff0000; fill-opacity: 0.3"/>
    </g>
   </g>
   <g id="PathCollection_5">
    <defs>
     <path id="C4_0_59f222dd43" d="M 0 2.5 
C 0.663008 2.5 1.29895 2.236584 1.767767 1.767767 
C 2.236584 1.29895 2.5 0.663008 2.5 -0 
C 2.5 -0.663008 2.236584 -1.29895 1.767767 -1.767767 
C 1.29895 -2.236584 0.663008 -2.5 0 -2.5 
C -0.663008 -2.5 -1.29895 -2.236584 -1.767767 -1.767767 
C -2.236584 -1.29895 -2.5 -0.663008 -2.5 0 
C -2.5 0.663008 -2.236584 1.29895 -1.767767 1.767767 
C -1.29895 2.236584 -0.663008 2.5 0 2.5 
z
"/>
    </defs>
    <g clip-path="url(#p75e0840760)">
     <use xlink:href="#C4_0_59f222dd43" x="650.212677" y="262.060302" style="fill-opacity: 0.3"/>
    </g>
    <g clip-path="url(#p75e0840760)">
     <use xlink:href="#C4_0_59f222dd43" x="649.657996" y="109.09042" style="fill-opacity: 0.3"/>
    </g>
    <g clip-path="url(#p75e0840760)">
     <use xlink:href="#C4_0_59f222dd43" x="669.237916" y="144.013193" style="fill-opacity: 0.3"/>
    </g>
    <g clip-path="url(#p75e0840760)">
     <use xlink:href="#C4_0_59f222dd43" x="665.978674" y="185.123283" style="fill-opacity: 0.3"/>
    </g>
    <g clip-path="url(#p75e0840760)">
     <use xlink:href="#C4_0_59f222dd43" x="652.048079" y="167.156358" style="fill-opacity: 0.3"/>
    </g>
    <g clip-path="url(#p75e0840760)">
     <use xlink:href="#C4_0_59f222dd43" x="666.310727" y="258.699348" style="fill-opacity: 0.3"/>
    </g>
    <g clip-path="url(#p75e0840760)">
     <use xlink:href="#C4_0_59f222dd43" x="651.105983" y="200.210386" style="fill-opacity: 0.3"/>
    </g>
    <g clip-path="url(#p75e0840760)">
     <use xlink:href="#C4_0_59f222dd43" x="649.915723" y="266.692654" style="fill-opacity: 0.3"/>
    </g>
    <g clip-path="url(#p75e0840760)">
     <use xlink:href="#C4_0_59f222dd43" x="656.502123" y="161.975469" style="fill-opacity: 0.3"/>
    </g>
    <g clip-path="url(#p75e0840760)">
     <use xlink:href="#C4_0_59f222dd43" x="664.050089" y="133.809468" style="fill-opacity: 0.3"/>
    </g>
    <g clip-path="url(#p75e0840760)">
     <use xlink:href="#C4_0_59f222dd43" x="652.146656" y="270.89036" style="fill-opacity: 0.3"/>
    </g>
    <g clip-path="url(#p75e0840760)">
     <use xlink:href="#C4_0_59f222dd43" x="671.116356" y="214.535114" style="fill-opacity: 0.3"/>
    </g>
    <g clip-path="url(#p75e0840760)">
     <use xlink:href="#C4_0_59f222dd43" x="653.424323" y="108.135128" style="fill-opacity: 0.3"/>
    </g>
    <g clip-path="url(#p75e0840760)">
     <use xlink:href="#C4_0_59f222dd43" x="672.896775" y="210.758109" style="fill-opacity: 0.3"/>
    </g>
   </g>
   <g id="PathCollection_6">
    <defs>
     <path id="C5_0_fb6c8362dc" d="M 0 2.5 
C 0.663008 2.5 1.29895 2.236584 1.767767 1.767767 
C 2.236584 1.29895 2.5 0.663008 2.5 -0 
C 2.5 -0.663008 2.236584 -1.29895 1.767767 -1.767767 
C 1.29895 -2.236584 0.663008 -2.5 0 -2.5 
C -0.663008 -2.5 -1.29895 -2.236584 -1.767767 -1.767767 
C -2.236584 -1.29895 -2.5 -0.663008 -2.5 0 
C -2.5 0.663008 -2.236584 1.29895 -1.767767 1.767767 
C -1.29895 2.236584 -0.663008 2.5 0 2.5 
z
"/>
    </defs>
    <g clip-path="url(#p75e0840760)">
     <use xlink:href="#C5_0_fb6c8362dc" x="763.993722" y="362.177676" style="fill: #ff0000; fill-opacity: 0.3"/>
    </g>
    <g clip-path="url(#p75e0840760)">
     <use xlink:href="#C5_0_fb6c8362dc" x="771.714556" y="157.73825" style="fill: #ff0000; fill-opacity: 0.3"/>
    </g>
    <g clip-path="url(#p75e0840760)">
     <use xlink:href="#C5_0_fb6c8362dc" x="760.320926" y="187.508026" style="fill: #ff0000; fill-opacity: 0.3"/>
    </g>
    <g clip-path="url(#p75e0840760)">
     <use xlink:href="#C5_0_fb6c8362dc" x="774.686653" y="110.108468" style="fill: #ff0000; fill-opacity: 0.3"/>
    </g>
    <g clip-path="url(#p75e0840760)">
     <use xlink:href="#C5_0_fb6c8362dc" x="774.236346" y="253.302298" style="fill: #ff0000; fill-opacity: 0.3"/>
    </g>
    <g clip-path="url(#p75e0840760)">
     <use xlink:href="#C5_0_fb6c8362dc" x="782.128541" y="236.390611" style="fill: #ff0000; fill-opacity: 0.3"/>
    </g>
    <g clip-path="url(#p75e0840760)">
     <use xlink:href="#C5_0_fb6c8362dc" x="769.563298" y="255.054829" style="fill: #ff0000; fill-opacity: 0.3"/>
    </g>
    <g clip-path="url(#p75e0840760)">
     <use xlink:href="#C5_0_fb6c8362dc" x="778.314044" y="256.210011" style="fill: #ff0000; fill-opacity: 0.3"/>
    </g>
    <g clip-path="url(#p75e0840760)">
     <use xlink:href="#C5_0_fb6c8362dc" x="763.186182" y="224.278626" style="fill: #ff0000; fill-opacity: 0.3"/>
    </g>
    <g clip-path="url(#p75e0840760)">
     <use xlink:href="#C5_0_fb6c8362dc" x="767.0471" y="191.487246" style="fill: #ff0000; fill-opacity: 0.3"/>
    </g>
    <g clip-path="url(#p75e0840760)">
     <use xlink:href="#C5_0_fb6c8362dc" x="771.627798" y="107.563348" style="fill: #ff0000; fill-opacity: 0.3"/>
    </g>
    <g clip-path="url(#p75e0840760)">
     <use xlink:href="#C5_0_fb6c8362dc" x="766.261683" y="284.659578" style="fill: #ff0000; fill-opacity: 0.3"/>
    </g>
   </g>
  </g>
  <g id="text_14">
   <!-- time_combo -->
   <g transform="translate(385.128594 424.08) scale(0.14 -0.14)">
    <defs>
     <path id="DejaVuSans-62" d="M 3116 1747 
Q 3116 2381 2855 2742 
Q 2594 3103 2138 3103 
Q 1681 3103 1420 2742 
Q 1159 2381 1159 1747 
Q 1159 1113 1420 752 
Q 1681 391 2138 391 
Q 2594 391 2855 752 
Q 3116 1113 3116 1747 
z
M 1159 2969 
Q 1341 3281 1617 3432 
Q 1894 3584 2278 3584 
Q 2916 3584 3314 3078 
Q 3713 2572 3713 1747 
Q 3713 922 3314 415 
Q 2916 -91 2278 -91 
Q 1894 -91 1617 61 
Q 1341 213 1159 525 
L 1159 0 
L 581 0 
L 581 4863 
L 1159 4863 
L 1159 2969 
z
" transform="scale(0.015625)"/>
    </defs>
    <use xlink:href="#DejaVuSans-74"/>
    <use xlink:href="#DejaVuSans-69" transform="translate(39.208984 0)"/>
    <use xlink:href="#DejaVuSans-6d" transform="translate(66.992188 0)"/>
    <use xlink:href="#DejaVuSans-65" transform="translate(164.404297 0)"/>
    <use xlink:href="#DejaVuSans-5f" transform="translate(225.927734 0)"/>
    <use xlink:href="#DejaVuSans-63" transform="translate(275.927734 0)"/>
    <use xlink:href="#DejaVuSans-6f" transform="translate(330.908203 0)"/>
    <use xlink:href="#DejaVuSans-6d" transform="translate(392.089844 0)"/>
    <use xlink:href="#DejaVuSans-62" transform="translate(489.501953 0)"/>
    <use xlink:href="#DejaVuSans-6f" transform="translate(552.978516 0)"/>
   </g>
  </g>
 </g>
 <defs>
  <clipPath id="p75e0840760">
   <rect x="50.421875" y="7.2" width="798.89875" height="354.98"/>
  </clipPath>
 </defs>
</svg>
