<?xml version="1.0" encoding="utf-8" standalone="no"?>
<!DOCTYPE svg PUBLIC "-//W3C//DTD SVG 1.1//EN"
  "http://www.w3.org/Graphics/SVG/1.1/DTD/svg11.dtd">
<svg xmlns:xlink="http://www.w3.org/1999/xlink" width="856.37125pt" height="434.580937pt" viewBox="0 0 856.37125 434.580937" xmlns="http://www.w3.org/2000/svg" version="1.1">
 <metadata>
  <rdf:RDF xmlns:dc="http://purl.org/dc/elements/1.1/" xmlns:cc="http://creativecommons.org/ns#" xmlns:rdf="http://www.w3.org/1999/02/22-rdf-syntax-ns#">
   <cc:Work>
    <dc:type rdf:resource="http://purl.org/dc/dcmitype/StillImage"/>
    <dc:date>2025-11-29T21:06:49.203625</dc:date>
    <dc:format>image/svg+xml</dc:format>
    <dc:creator>
     <cc:Agent>
      <dc:title>Matplotlib v3.10.0, https://matplotlib.org/</dc:title>
     </cc:Agent>
    </dc:creator>
   </cc:Work>
  </rdf:RDF>
 </metadata>
 <defs>
  <style type="text/css">*{stroke-linejoin: round; stroke-linecap: butt}</style>
 </defs>
 <g id="figure_1">
  <g id="patch_1">
   <path d="M 0 434.580937 
L 856.37125 434.580937 
L 856.37125 -0 
L 0 -0 
L 0 434.580937 
z
" style="fill: none"/>
  </g>
  <g id="axes_1">
   <g id="patch_2">
    <path d="M 43.78125 362.18 
L 849.17125 362.18 
L 849.17125 7.2 
L 43.78125 7.2 
L 43.78125 362.18 
z
" style="fill: none"/>
   </g>
   <g id="patch_3">
    <path d="M 80.389886 362.18 
L 184.98599 362.18 
L 184.98599 158.336837 
L 80.389886 158.336837 
L 80.389886 362.18 
z
" clip-path="url(#p19c3306c70)" style="fill: none; opacity: 0"/>
   </g>
   <g id="patch_4">
    <path d="M 341.880146 362.18 
L 446.47625 362.18 
L 446.47625 158.336837 
L 341.880146 158.336837 
L 341.880146 362.18 
z
" clip-path="url(#p19c3306c70)" style="fill: none; opacity: 0"/>
   </g>
   <g id="patch_5">
    <path d="M 603.370406 362.18 
L 707.96651 362.18 
L 707.96651 158.336837 
L 603.370406 158.336837 
L 603.370406 362.18 
z
" clip-path="url(#p19c3306c70)" style="fill: none; opacity: 0"/>
   </g>
   <g id="patch_6">
    <path d="M 184.98599 362.18 
L 289.582094 362.18 
L 289.582094 181.736309 
L 184.98599 181.736309 
L 184.98599 362.18 
z
" clip-path="url(#p19c3306c70)" style="fill: none; opacity: 0"/>
   </g>
   <g id="patch_7">
    <path d="M 446.47625 362.18 
L 551.072354 362.18 
L 551.072354 120.638048 
L 446.47625 120.638048 
L 446.47625 362.18 
z
" clip-path="url(#p19c3306c70)" style="fill: none; opacity: 0"/>
   </g>
   <g id="patch_8">
    <path d="M 707.96651 362.18 
L 812.562614 362.18 
L 812.562614 158.714324 
L 707.96651 158.714324 
L 707.96651 362.18 
z
" clip-path="url(#p19c3306c70)" style="fill: none; opacity: 0"/>
   </g>
   <g id="matplotlib.axis_1">
    <g id="xtick_1">
     <g id="line2d_1">
      <defs>
       <path id="mb9502dc7cb" d="M 0 0 
L 0 3.5 
" style="stroke: #000000; stroke-width: 0.8"/>
      </defs>
      <g>
       <use xlink:href="#mb9502dc7cb" x="184.98599" y="362.18" style="stroke: #000000; stroke-width: 0.8"/>
      </g>
     </g>
     <g id="text_1">
      <!-- 11_18_25 -->
      <g transform="translate(187.518022 417.355) rotate(-90) scale(0.1 -0.1)">
       <defs>
        <path id="DejaVuSans-31" d="M 794 531 
L 1825 531 
L 1825 4091 
L 703 3866 
L 703 4441 
L 1819 4666 
L 2450 4666 
L 2450 531 
L 3481 531 
L 3481 0 
L 794 0 
L 794 531 
z
" transform="scale(0.015625)"/>
        <path id="DejaVuSans-5f" d="M 3263 -1063 
L 3263 -1509 
L -63 -1509 
L -63 -1063 
L 3263 -1063 
z
" transform="scale(0.015625)"/>
        <path id="DejaVuSans-38" d="M 2034 2216 
Q 1584 2216 1326 1975 
Q 1069 1734 1069 1313 
Q 1069 891 1326 650 
Q 1584 409 2034 409 
Q 2484 409 2743 651 
Q 3003 894 3003 1313 
Q 3003 1734 2745 1975 
Q 2488 2216 2034 2216 
z
M 1403 2484 
Q 997 2584 770 2862 
Q 544 3141 544 3541 
Q 544 4100 942 4425 
Q 1341 4750 2034 4750 
Q 2731 4750 3128 4425 
Q 3525 4100 3525 3541 
Q 3525 3141 3298 2862 
Q 3072 2584 2669 2484 
Q 3125 2378 3379 2068 
Q 3634 1759 3634 1313 
Q 3634 634 3220 271 
Q 2806 -91 2034 -91 
Q 1263 -91 848 271 
Q 434 634 434 1313 
Q 434 1759 690 2068 
Q 947 2378 1403 2484 
z
M 1172 3481 
Q 1172 3119 1398 2916 
Q 1625 2713 2034 2713 
Q 2441 2713 2670 2916 
Q 2900 3119 2900 3481 
Q 2900 3844 2670 4047 
Q 2441 4250 2034 4250 
Q 1625 4250 1398 4047 
Q 1172 3844 1172 3481 
z
" transform="scale(0.015625)"/>
        <path id="DejaVuSans-32" d="M 1228 531 
L 3431 531 
L 3431 0 
L 469 0 
L 469 531 
Q 828 903 1448 1529 
Q 2069 2156 2228 2338 
Q 2531 2678 2651 2914 
Q 2772 3150 2772 3378 
Q 2772 3750 2511 3984 
Q 2250 4219 1831 4219 
Q 1534 4219 1204 4116 
Q 875 4013 500 3803 
L 500 4441 
Q 881 4594 1212 4672 
Q 1544 4750 1819 4750 
Q 2544 4750 2975 4387 
Q 3406 4025 3406 3419 
Q 3406 3131 3298 2873 
Q 3191 2616 2906 2266 
Q 2828 2175 2409 1742 
Q 1991 1309 1228 531 
z
" transform="scale(0.015625)"/>
        <path id="DejaVuSans-35" d="M 691 4666 
L 3169 4666 
L 3169 4134 
L 1269 4134 
L 1269 2991 
Q 1406 3038 1543 3061 
Q 1681 3084 1819 3084 
Q 2600 3084 3056 2656 
Q 3513 2228 3513 1497 
Q 3513 744 3044 326 
Q 2575 -91 1722 -91 
Q 1428 -91 1123 -41 
Q 819 9 494 109 
L 494 744 
Q 775 591 1075 516 
Q 1375 441 1709 441 
Q 2250 441 2565 725 
Q 2881 1009 2881 1497 
Q 2881 1984 2565 2268 
Q 2250 2553 1709 2553 
Q 1456 2553 1204 2497 
Q 953 2441 691 2322 
L 691 4666 
z
" transform="scale(0.015625)"/>
       </defs>
       <use xlink:href="#DejaVuSans-31"/>
       <use xlink:href="#DejaVuSans-31" transform="translate(63.623047 0)"/>
       <use xlink:href="#DejaVuSans-5f" transform="translate(127.246094 0)"/>
       <use xlink:href="#DejaVuSans-31" transform="translate(177.246094 0)"/>
       <use xlink:href="#DejaVuSans-38" transform="translate(240.869141 0)"/>
       <use xlink:href="#DejaVuSans-5f" transform="translate(304.492188 0)"/>
       <use xlink:href="#DejaVuSans-32" transform="translate(354.492188 0)"/>
       <use xlink:href="#DejaVuSans-35" transform="translate(418.115234 0)"/>
      </g>
     </g>
    </g>
    <g id="xtick_2">
     <g id="line2d_2">
      <g>
       <use xlink:href="#mb9502dc7cb" x="446.47625" y="362.18" style="stroke: #000000; stroke-width: 0.8"/>
      </g>
     </g>
     <g id="text_2">
      <!-- 4_24_23 -->
      <g transform="translate(449.008281 410.9925) rotate(-90) scale(0.1 -0.1)">
       <defs>
        <path id="DejaVuSans-34" d="M 2419 4116 
L 825 1625 
L 2419 1625 
L 2419 4116 
z
M 2253 4666 
L 3047 4666 
L 3047 1625 
L 3713 1625 
L 3713 1100 
L 3047 1100 
L 3047 0 
L 2419 0 
L 2419 1100 
L 313 1100 
L 313 1709 
L 2253 4666 
z
" transform="scale(0.015625)"/>
        <path id="DejaVuSans-33" d="M 2597 2516 
Q 3050 2419 3304 2112 
Q 3559 1806 3559 1356 
Q 3559 666 3084 287 
Q 2609 -91 1734 -91 
Q 1441 -91 1130 -33 
Q 819 25 488 141 
L 488 750 
Q 750 597 1062 519 
Q 1375 441 1716 441 
Q 2309 441 2620 675 
Q 2931 909 2931 1356 
Q 2931 1769 2642 2001 
Q 2353 2234 1838 2234 
L 1294 2234 
L 1294 2753 
L 1863 2753 
Q 2328 2753 2575 2939 
Q 2822 3125 2822 3475 
Q 2822 3834 2567 4026 
Q 2313 4219 1838 4219 
Q 1578 4219 1281 4162 
Q 984 4106 628 3988 
L 628 4550 
Q 988 4650 1302 4700 
Q 1616 4750 1894 4750 
Q 2613 4750 3031 4423 
Q 3450 4097 3450 3541 
Q 3450 3153 3228 2886 
Q 3006 2619 2597 2516 
z
" transform="scale(0.015625)"/>
       </defs>
       <use xlink:href="#DejaVuSans-34"/>
       <use xlink:href="#DejaVuSans-5f" transform="translate(63.623047 0)"/>
       <use xlink:href="#DejaVuSans-32" transform="translate(113.623047 0)"/>
       <use xlink:href="#DejaVuSans-34" transform="translate(177.246094 0)"/>
       <use xlink:href="#DejaVuSans-5f" transform="translate(240.869141 0)"/>
       <use xlink:href="#DejaVuSans-32" transform="translate(290.869141 0)"/>
       <use xlink:href="#DejaVuSans-33" transform="translate(354.492188 0)"/>
      </g>
     </g>
    </g>
    <g id="xtick_3">
     <g id="line2d_3">
      <g>
       <use xlink:href="#mb9502dc7cb" x="707.96651" y="362.18" style="stroke: #000000; stroke-width: 0.8"/>
      </g>
     </g>
     <g id="text_3">
      <!-- 6_6_25 -->
      <g transform="translate(710.498541 404.63) rotate(-90) scale(0.1 -0.1)">
       <defs>
        <path id="DejaVuSans-36" d="M 2113 2584 
Q 1688 2584 1439 2293 
Q 1191 2003 1191 1497 
Q 1191 994 1439 701 
Q 1688 409 2113 409 
Q 2538 409 2786 701 
Q 3034 994 3034 1497 
Q 3034 2003 2786 2293 
Q 2538 2584 2113 2584 
z
M 3366 4563 
L 3366 3988 
Q 3128 4100 2886 4159 
Q 2644 4219 2406 4219 
Q 1781 4219 1451 3797 
Q 1122 3375 1075 2522 
Q 1259 2794 1537 2939 
Q 1816 3084 2150 3084 
Q 2853 3084 3261 2657 
Q 3669 2231 3669 1497 
Q 3669 778 3244 343 
Q 2819 -91 2113 -91 
Q 1303 -91 875 529 
Q 447 1150 447 2328 
Q 447 3434 972 4092 
Q 1497 4750 2381 4750 
Q 2619 4750 2861 4703 
Q 3103 4656 3366 4563 
z
" transform="scale(0.015625)"/>
       </defs>
       <use xlink:href="#DejaVuSans-36"/>
       <use xlink:href="#DejaVuSans-5f" transform="translate(63.623047 0)"/>
       <use xlink:href="#DejaVuSans-36" transform="translate(113.623047 0)"/>
       <use xlink:href="#DejaVuSans-5f" transform="translate(177.246094 0)"/>
       <use xlink:href="#DejaVuSans-32" transform="translate(227.246094 0)"/>
       <use xlink:href="#DejaVuSans-35" transform="translate(290.869141 0)"/>
      </g>
     </g>
    </g>
   </g>
   <g id="matplotlib.axis_2">
    <g id="ytick_1">
     <g id="line2d_4">
      <defs>
       <path id="mbaae5d9c16" d="M 0 0 
L -3.5 0 
" style="stroke: #000000; stroke-width: 0.8"/>
      </defs>
      <g>
       <use xlink:href="#mbaae5d9c16" x="43.78125" y="362.18" style="stroke: #000000; stroke-width: 0.8"/>
      </g>
     </g>
     <g id="text_4">
      <!-- 0.0 -->
      <g transform="translate(20.878125 365.979219) scale(0.1 -0.1)">
       <defs>
        <path id="DejaVuSans-30" d="M 2034 4250 
Q 1547 4250 1301 3770 
Q 1056 3291 1056 2328 
Q 1056 1369 1301 889 
Q 1547 409 2034 409 
Q 2525 409 2770 889 
Q 3016 1369 3016 2328 
Q 3016 3291 2770 3770 
Q 2525 4250 2034 4250 
z
M 2034 4750 
Q 2819 4750 3233 4129 
Q 3647 3509 3647 2328 
Q 3647 1150 3233 529 
Q 2819 -91 2034 -91 
Q 1250 -91 836 529 
Q 422 1150 422 2328 
Q 422 3509 836 4129 
Q 1250 4750 2034 4750 
z
" transform="scale(0.015625)"/>
        <path id="DejaVuSans-2e" d="M 684 794 
L 1344 794 
L 1344 0 
L 684 0 
L 684 794 
z
" transform="scale(0.015625)"/>
       </defs>
       <use xlink:href="#DejaVuSans-30"/>
       <use xlink:href="#DejaVuSans-2e" transform="translate(63.623047 0)"/>
       <use xlink:href="#DejaVuSans-30" transform="translate(95.410156 0)"/>
      </g>
     </g>
    </g>
    <g id="ytick_2">
     <g id="line2d_5">
      <g>
       <use xlink:href="#mbaae5d9c16" x="43.78125" y="321.411367" style="stroke: #000000; stroke-width: 0.8"/>
      </g>
     </g>
     <g id="text_5">
      <!-- 0.2 -->
      <g transform="translate(20.878125 325.210586) scale(0.1 -0.1)">
       <use xlink:href="#DejaVuSans-30"/>
       <use xlink:href="#DejaVuSans-2e" transform="translate(63.623047 0)"/>
       <use xlink:href="#DejaVuSans-32" transform="translate(95.410156 0)"/>
      </g>
     </g>
    </g>
    <g id="ytick_3">
     <g id="line2d_6">
      <g>
       <use xlink:href="#mbaae5d9c16" x="43.78125" y="280.642735" style="stroke: #000000; stroke-width: 0.8"/>
      </g>
     </g>
     <g id="text_6">
      <!-- 0.4 -->
      <g transform="translate(20.878125 284.441953) scale(0.1 -0.1)">
       <use xlink:href="#DejaVuSans-30"/>
       <use xlink:href="#DejaVuSans-2e" transform="translate(63.623047 0)"/>
       <use xlink:href="#DejaVuSans-34" transform="translate(95.410156 0)"/>
      </g>
     </g>
    </g>
    <g id="ytick_4">
     <g id="line2d_7">
      <g>
       <use xlink:href="#mbaae5d9c16" x="43.78125" y="239.874102" style="stroke: #000000; stroke-width: 0.8"/>
      </g>
     </g>
     <g id="text_7">
      <!-- 0.6 -->
      <g transform="translate(20.878125 243.673321) scale(0.1 -0.1)">
       <use xlink:href="#DejaVuSans-30"/>
       <use xlink:href="#DejaVuSans-2e" transform="translate(63.623047 0)"/>
       <use xlink:href="#DejaVuSans-36" transform="translate(95.410156 0)"/>
      </g>
     </g>
    </g>
    <g id="ytick_5">
     <g id="line2d_8">
      <g>
       <use xlink:href="#mbaae5d9c16" x="43.78125" y="199.105469" style="stroke: #000000; stroke-width: 0.8"/>
      </g>
     </g>
     <g id="text_8">
      <!-- 0.8 -->
      <g transform="translate(20.878125 202.904688) scale(0.1 -0.1)">
       <use xlink:href="#DejaVuSans-30"/>
       <use xlink:href="#DejaVuSans-2e" transform="translate(63.623047 0)"/>
       <use xlink:href="#DejaVuSans-38" transform="translate(95.410156 0)"/>
      </g>
     </g>
    </g>
    <g id="ytick_6">
     <g id="line2d_9">
      <g>
       <use xlink:href="#mbaae5d9c16" x="43.78125" y="158.336837" style="stroke: #000000; stroke-width: 0.8"/>
      </g>
     </g>
     <g id="text_9">
      <!-- 1.0 -->
      <g transform="translate(20.878125 162.136055) scale(0.1 -0.1)">
       <use xlink:href="#DejaVuSans-31"/>
       <use xlink:href="#DejaVuSans-2e" transform="translate(63.623047 0)"/>
       <use xlink:href="#DejaVuSans-30" transform="translate(95.410156 0)"/>
      </g>
     </g>
    </g>
    <g id="ytick_7">
     <g id="line2d_10">
      <g>
       <use xlink:href="#mbaae5d9c16" x="43.78125" y="117.568204" style="stroke: #000000; stroke-width: 0.8"/>
      </g>
     </g>
     <g id="text_10">
      <!-- 1.2 -->
      <g transform="translate(20.878125 121.367423) scale(0.1 -0.1)">
       <use xlink:href="#DejaVuSans-31"/>
       <use xlink:href="#DejaVuSans-2e" transform="translate(63.623047 0)"/>
       <use xlink:href="#DejaVuSans-32" transform="translate(95.410156 0)"/>
      </g>
     </g>
    </g>
    <g id="ytick_8">
     <g id="line2d_11">
      <g>
       <use xlink:href="#mbaae5d9c16" x="43.78125" y="76.799571" style="stroke: #000000; stroke-width: 0.8"/>
      </g>
     </g>
     <g id="text_11">
      <!-- 1.4 -->
      <g transform="translate(20.878125 80.59879) scale(0.1 -0.1)">
       <use xlink:href="#DejaVuSans-31"/>
       <use xlink:href="#DejaVuSans-2e" transform="translate(63.623047 0)"/>
       <use xlink:href="#DejaVuSans-34" transform="translate(95.410156 0)"/>
      </g>
     </g>
    </g>
    <g id="ytick_9">
     <g id="line2d_12">
      <g>
       <use xlink:href="#mbaae5d9c16" x="43.78125" y="36.030939" style="stroke: #000000; stroke-width: 0.8"/>
      </g>
     </g>
     <g id="text_12">
      <!-- 1.6 -->
      <g transform="translate(20.878125 39.830158) scale(0.1 -0.1)">
       <use xlink:href="#DejaVuSans-31"/>
       <use xlink:href="#DejaVuSans-2e" transform="translate(63.623047 0)"/>
       <use xlink:href="#DejaVuSans-36" transform="translate(95.410156 0)"/>
      </g>
     </g>
    </g>
    <g id="text_13">
     <!-- Normalized numberofboutsSLEEP: Binned - 3600 -->
     <g transform="translate(14.798438 306.504844) rotate(-90) scale(0.1 -0.1)">
      <defs>
       <path id="DejaVuSans-4e" d="M 628 4666 
L 1478 4666 
L 3547 763 
L 3547 4666 
L 4159 4666 
L 4159 0 
L 3309 0 
L 1241 3903 
L 1241 0 
L 628 0 
L 628 4666 
z
" transform="scale(0.015625)"/>
       <path id="DejaVuSans-6f" d="M 1959 3097 
Q 1497 3097 1228 2736 
Q 959 2375 959 1747 
Q 959 1119 1226 758 
Q 1494 397 1959 397 
Q 2419 397 2687 759 
Q 2956 1122 2956 1747 
Q 2956 2369 2687 2733 
Q 2419 3097 1959 3097 
z
M 1959 3584 
Q 2709 3584 3137 3096 
Q 3566 2609 3566 1747 
Q 3566 888 3137 398 
Q 2709 -91 1959 -91 
Q 1206 -91 779 398 
Q 353 888 353 1747 
Q 353 2609 779 3096 
Q 1206 3584 1959 3584 
z
" transform="scale(0.015625)"/>
       <path id="DejaVuSans-72" d="M 2631 2963 
Q 2534 3019 2420 3045 
Q 2306 3072 2169 3072 
Q 1681 3072 1420 2755 
Q 1159 2438 1159 1844 
L 1159 0 
L 581 0 
L 581 3500 
L 1159 3500 
L 1159 2956 
Q 1341 3275 1631 3429 
Q 1922 3584 2338 3584 
Q 2397 3584 2469 3576 
Q 2541 3569 2628 3553 
L 2631 2963 
z
" transform="scale(0.015625)"/>
       <path id="DejaVuSans-6d" d="M 3328 2828 
Q 3544 3216 3844 3400 
Q 4144 3584 4550 3584 
Q 5097 3584 5394 3201 
Q 5691 2819 5691 2113 
L 5691 0 
L 5113 0 
L 5113 2094 
Q 5113 2597 4934 2840 
Q 4756 3084 4391 3084 
Q 3944 3084 3684 2787 
Q 3425 2491 3425 1978 
L 3425 0 
L 2847 0 
L 2847 2094 
Q 2847 2600 2669 2842 
Q 2491 3084 2119 3084 
Q 1678 3084 1418 2786 
Q 1159 2488 1159 1978 
L 1159 0 
L 581 0 
L 581 3500 
L 1159 3500 
L 1159 2956 
Q 1356 3278 1631 3431 
Q 1906 3584 2284 3584 
Q 2666 3584 2933 3390 
Q 3200 3197 3328 2828 
z
" transform="scale(0.015625)"/>
       <path id="DejaVuSans-61" d="M 2194 1759 
Q 1497 1759 1228 1600 
Q 959 1441 959 1056 
Q 959 750 1161 570 
Q 1363 391 1709 391 
Q 2188 391 2477 730 
Q 2766 1069 2766 1631 
L 2766 1759 
L 2194 1759 
z
M 3341 1997 
L 3341 0 
L 2766 0 
L 2766 531 
Q 2569 213 2275 61 
Q 1981 -91 1556 -91 
Q 1019 -91 701 211 
Q 384 513 384 1019 
Q 384 1609 779 1909 
Q 1175 2209 1959 2209 
L 2766 2209 
L 2766 2266 
Q 2766 2663 2505 2880 
Q 2244 3097 1772 3097 
Q 1472 3097 1187 3025 
Q 903 2953 641 2809 
L 641 3341 
Q 956 3463 1253 3523 
Q 1550 3584 1831 3584 
Q 2591 3584 2966 3190 
Q 3341 2797 3341 1997 
z
" transform="scale(0.015625)"/>
       <path id="DejaVuSans-6c" d="M 603 4863 
L 1178 4863 
L 1178 0 
L 603 0 
L 603 4863 
z
" transform="scale(0.015625)"/>
       <path id="DejaVuSans-69" d="M 603 3500 
L 1178 3500 
L 1178 0 
L 603 0 
L 603 3500 
z
M 603 4863 
L 1178 4863 
L 1178 4134 
L 603 4134 
L 603 4863 
z
" transform="scale(0.015625)"/>
       <path id="DejaVuSans-7a" d="M 353 3500 
L 3084 3500 
L 3084 2975 
L 922 459 
L 3084 459 
L 3084 0 
L 275 0 
L 275 525 
L 2438 3041 
L 353 3041 
L 353 3500 
z
" transform="scale(0.015625)"/>
       <path id="DejaVuSans-65" d="M 3597 1894 
L 3597 1613 
L 953 1613 
Q 991 1019 1311 708 
Q 1631 397 2203 397 
Q 2534 397 2845 478 
Q 3156 559 3463 722 
L 3463 178 
Q 3153 47 2828 -22 
Q 2503 -91 2169 -91 
Q 1331 -91 842 396 
Q 353 884 353 1716 
Q 353 2575 817 3079 
Q 1281 3584 2069 3584 
Q 2775 3584 3186 3129 
Q 3597 2675 3597 1894 
z
M 3022 2063 
Q 3016 2534 2758 2815 
Q 2500 3097 2075 3097 
Q 1594 3097 1305 2825 
Q 1016 2553 972 2059 
L 3022 2063 
z
" transform="scale(0.015625)"/>
       <path id="DejaVuSans-64" d="M 2906 2969 
L 2906 4863 
L 3481 4863 
L 3481 0 
L 2906 0 
L 2906 525 
Q 2725 213 2448 61 
Q 2172 -91 1784 -91 
Q 1150 -91 751 415 
Q 353 922 353 1747 
Q 353 2572 751 3078 
Q 1150 3584 1784 3584 
Q 2172 3584 2448 3432 
Q 2725 3281 2906 2969 
z
M 947 1747 
Q 947 1113 1208 752 
Q 1469 391 1925 391 
Q 2381 391 2643 752 
Q 2906 1113 2906 1747 
Q 2906 2381 2643 2742 
Q 2381 3103 1925 3103 
Q 1469 3103 1208 2742 
Q 947 2381 947 1747 
z
" transform="scale(0.015625)"/>
       <path id="DejaVuSans-20" transform="scale(0.015625)"/>
       <path id="DejaVuSans-6e" d="M 3513 2113 
L 3513 0 
L 2938 0 
L 2938 2094 
Q 2938 2591 2744 2837 
Q 2550 3084 2163 3084 
Q 1697 3084 1428 2787 
Q 1159 2491 1159 1978 
L 1159 0 
L 581 0 
L 581 3500 
L 1159 3500 
L 1159 2956 
Q 1366 3272 1645 3428 
Q 1925 3584 2291 3584 
Q 2894 3584 3203 3211 
Q 3513 2838 3513 2113 
z
" transform="scale(0.015625)"/>
       <path id="DejaVuSans-75" d="M 544 1381 
L 544 3500 
L 1119 3500 
L 1119 1403 
Q 1119 906 1312 657 
Q 1506 409 1894 409 
Q 2359 409 2629 706 
Q 2900 1003 2900 1516 
L 2900 3500 
L 3475 3500 
L 3475 0 
L 2900 0 
L 2900 538 
Q 2691 219 2414 64 
Q 2138 -91 1772 -91 
Q 1169 -91 856 284 
Q 544 659 544 1381 
z
M 1991 3584 
L 1991 3584 
z
" transform="scale(0.015625)"/>
       <path id="DejaVuSans-62" d="M 3116 1747 
Q 3116 2381 2855 2742 
Q 2594 3103 2138 3103 
Q 1681 3103 1420 2742 
Q 1159 2381 1159 1747 
Q 1159 1113 1420 752 
Q 1681 391 2138 391 
Q 2594 391 2855 752 
Q 3116 1113 3116 1747 
z
M 1159 2969 
Q 1341 3281 1617 3432 
Q 1894 3584 2278 3584 
Q 2916 3584 3314 3078 
Q 3713 2572 3713 1747 
Q 3713 922 3314 415 
Q 2916 -91 2278 -91 
Q 1894 -91 1617 61 
Q 1341 213 1159 525 
L 1159 0 
L 581 0 
L 581 4863 
L 1159 4863 
L 1159 2969 
z
" transform="scale(0.015625)"/>
       <path id="DejaVuSans-66" d="M 2375 4863 
L 2375 4384 
L 1825 4384 
Q 1516 4384 1395 4259 
Q 1275 4134 1275 3809 
L 1275 3500 
L 2222 3500 
L 2222 3053 
L 1275 3053 
L 1275 0 
L 697 0 
L 697 3053 
L 147 3053 
L 147 3500 
L 697 3500 
L 697 3744 
Q 697 4328 969 4595 
Q 1241 4863 1831 4863 
L 2375 4863 
z
" transform="scale(0.015625)"/>
       <path id="DejaVuSans-74" d="M 1172 4494 
L 1172 3500 
L 2356 3500 
L 2356 3053 
L 1172 3053 
L 1172 1153 
Q 1172 725 1289 603 
Q 1406 481 1766 481 
L 2356 481 
L 2356 0 
L 1766 0 
Q 1100 0 847 248 
Q 594 497 594 1153 
L 594 3053 
L 172 3053 
L 172 3500 
L 594 3500 
L 594 4494 
L 1172 4494 
z
" transform="scale(0.015625)"/>
       <path id="DejaVuSans-73" d="M 2834 3397 
L 2834 2853 
Q 2591 2978 2328 3040 
Q 2066 3103 1784 3103 
Q 1356 3103 1142 2972 
Q 928 2841 928 2578 
Q 928 2378 1081 2264 
Q 1234 2150 1697 2047 
L 1894 2003 
Q 2506 1872 2764 1633 
Q 3022 1394 3022 966 
Q 3022 478 2636 193 
Q 2250 -91 1575 -91 
Q 1294 -91 989 -36 
Q 684 19 347 128 
L 347 722 
Q 666 556 975 473 
Q 1284 391 1588 391 
Q 1994 391 2212 530 
Q 2431 669 2431 922 
Q 2431 1156 2273 1281 
Q 2116 1406 1581 1522 
L 1381 1569 
Q 847 1681 609 1914 
Q 372 2147 372 2553 
Q 372 3047 722 3315 
Q 1072 3584 1716 3584 
Q 2034 3584 2315 3537 
Q 2597 3491 2834 3397 
z
" transform="scale(0.015625)"/>
       <path id="DejaVuSans-53" d="M 3425 4513 
L 3425 3897 
Q 3066 4069 2747 4153 
Q 2428 4238 2131 4238 
Q 1616 4238 1336 4038 
Q 1056 3838 1056 3469 
Q 1056 3159 1242 3001 
Q 1428 2844 1947 2747 
L 2328 2669 
Q 3034 2534 3370 2195 
Q 3706 1856 3706 1288 
Q 3706 609 3251 259 
Q 2797 -91 1919 -91 
Q 1588 -91 1214 -16 
Q 841 59 441 206 
L 441 856 
Q 825 641 1194 531 
Q 1563 422 1919 422 
Q 2459 422 2753 634 
Q 3047 847 3047 1241 
Q 3047 1584 2836 1778 
Q 2625 1972 2144 2069 
L 1759 2144 
Q 1053 2284 737 2584 
Q 422 2884 422 3419 
Q 422 4038 858 4394 
Q 1294 4750 2059 4750 
Q 2388 4750 2728 4690 
Q 3069 4631 3425 4513 
z
" transform="scale(0.015625)"/>
       <path id="DejaVuSans-4c" d="M 628 4666 
L 1259 4666 
L 1259 531 
L 3531 531 
L 3531 0 
L 628 0 
L 628 4666 
z
" transform="scale(0.015625)"/>
       <path id="DejaVuSans-45" d="M 628 4666 
L 3578 4666 
L 3578 4134 
L 1259 4134 
L 1259 2753 
L 3481 2753 
L 3481 2222 
L 1259 2222 
L 1259 531 
L 3634 531 
L 3634 0 
L 628 0 
L 628 4666 
z
" transform="scale(0.015625)"/>
       <path id="DejaVuSans-50" d="M 1259 4147 
L 1259 2394 
L 2053 2394 
Q 2494 2394 2734 2622 
Q 2975 2850 2975 3272 
Q 2975 3691 2734 3919 
Q 2494 4147 2053 4147 
L 1259 4147 
z
M 628 4666 
L 2053 4666 
Q 2838 4666 3239 4311 
Q 3641 3956 3641 3272 
Q 3641 2581 3239 2228 
Q 2838 1875 2053 1875 
L 1259 1875 
L 1259 0 
L 628 0 
L 628 4666 
z
" transform="scale(0.015625)"/>
       <path id="DejaVuSans-3a" d="M 750 794 
L 1409 794 
L 1409 0 
L 750 0 
L 750 794 
z
M 750 3309 
L 1409 3309 
L 1409 2516 
L 750 2516 
L 750 3309 
z
" transform="scale(0.015625)"/>
       <path id="DejaVuSans-42" d="M 1259 2228 
L 1259 519 
L 2272 519 
Q 2781 519 3026 730 
Q 3272 941 3272 1375 
Q 3272 1813 3026 2020 
Q 2781 2228 2272 2228 
L 1259 2228 
z
M 1259 4147 
L 1259 2741 
L 2194 2741 
Q 2656 2741 2882 2914 
Q 3109 3088 3109 3444 
Q 3109 3797 2882 3972 
Q 2656 4147 2194 4147 
L 1259 4147 
z
M 628 4666 
L 2241 4666 
Q 2963 4666 3353 4366 
Q 3744 4066 3744 3513 
Q 3744 3084 3544 2831 
Q 3344 2578 2956 2516 
Q 3422 2416 3680 2098 
Q 3938 1781 3938 1306 
Q 3938 681 3513 340 
Q 3088 0 2303 0 
L 628 0 
L 628 4666 
z
" transform="scale(0.015625)"/>
       <path id="DejaVuSans-2d" d="M 313 2009 
L 1997 2009 
L 1997 1497 
L 313 1497 
L 313 2009 
z
" transform="scale(0.015625)"/>
      </defs>
      <use xlink:href="#DejaVuSans-4e"/>
      <use xlink:href="#DejaVuSans-6f" transform="translate(74.804688 0)"/>
      <use xlink:href="#DejaVuSans-72" transform="translate(135.986328 0)"/>
      <use xlink:href="#DejaVuSans-6d" transform="translate(175.349609 0)"/>
      <use xlink:href="#DejaVuSans-61" transform="translate(272.761719 0)"/>
      <use xlink:href="#DejaVuSans-6c" transform="translate(334.041016 0)"/>
      <use xlink:href="#DejaVuSans-69" transform="translate(361.824219 0)"/>
      <use xlink:href="#DejaVuSans-7a" transform="translate(389.607422 0)"/>
      <use xlink:href="#DejaVuSans-65" transform="translate(442.097656 0)"/>
      <use xlink:href="#DejaVuSans-64" transform="translate(503.621094 0)"/>
      <use xlink:href="#DejaVuSans-20" transform="translate(567.097656 0)"/>
      <use xlink:href="#DejaVuSans-6e" transform="translate(598.884766 0)"/>
      <use xlink:href="#DejaVuSans-75" transform="translate(662.263672 0)"/>
      <use xlink:href="#DejaVuSans-6d" transform="translate(725.642578 0)"/>
      <use xlink:href="#DejaVuSans-62" transform="translate(823.054688 0)"/>
      <use xlink:href="#DejaVuSans-65" transform="translate(886.53125 0)"/>
      <use xlink:href="#DejaVuSans-72" transform="translate(948.054688 0)"/>
      <use xlink:href="#DejaVuSans-6f" transform="translate(986.917969 0)"/>
      <use xlink:href="#DejaVuSans-66" transform="translate(1048.099609 0)"/>
      <use xlink:href="#DejaVuSans-62" transform="translate(1083.304688 0)"/>
      <use xlink:href="#DejaVuSans-6f" transform="translate(1146.78125 0)"/>
      <use xlink:href="#DejaVuSans-75" transform="translate(1207.962891 0)"/>
      <use xlink:href="#DejaVuSans-74" transform="translate(1271.341797 0)"/>
      <use xlink:href="#DejaVuSans-73" transform="translate(1310.550781 0)"/>
      <use xlink:href="#DejaVuSans-53" transform="translate(1362.650391 0)"/>
      <use xlink:href="#DejaVuSans-4c" transform="translate(1426.126953 0)"/>
      <use xlink:href="#DejaVuSans-45" transform="translate(1481.839844 0)"/>
      <use xlink:href="#DejaVuSans-45" transform="translate(1545.023438 0)"/>
      <use xlink:href="#DejaVuSans-50" transform="translate(1608.207031 0)"/>
      <use xlink:href="#DejaVuSans-3a" transform="translate(1668.509766 0)"/>
      <use xlink:href="#DejaVuSans-20" transform="translate(1702.201172 0)"/>
      <use xlink:href="#DejaVuSans-42" transform="translate(1733.988281 0)"/>
      <use xlink:href="#DejaVuSans-69" transform="translate(1802.591797 0)"/>
      <use xlink:href="#DejaVuSans-6e" transform="translate(1830.375 0)"/>
      <use xlink:href="#DejaVuSans-6e" transform="translate(1893.753906 0)"/>
      <use xlink:href="#DejaVuSans-65" transform="translate(1957.132812 0)"/>
      <use xlink:href="#DejaVuSans-64" transform="translate(2018.65625 0)"/>
      <use xlink:href="#DejaVuSans-20" transform="translate(2082.132812 0)"/>
      <use xlink:href="#DejaVuSans-2d" transform="translate(2113.919922 0)"/>
      <use xlink:href="#DejaVuSans-20" transform="translate(2150.003906 0)"/>
      <use xlink:href="#DejaVuSans-33" transform="translate(2181.791016 0)"/>
      <use xlink:href="#DejaVuSans-36" transform="translate(2245.414062 0)"/>
      <use xlink:href="#DejaVuSans-30" transform="translate(2309.037109 0)"/>
      <use xlink:href="#DejaVuSans-30" transform="translate(2372.660156 0)"/>
     </g>
    </g>
   </g>
   <g id="line2d_13">
    <path d="M 119.613425 169.67962 
L 145.762451 169.67962 
M 132.687938 169.67962 
L 132.687938 146.994053 
M 119.613425 146.994053 
L 145.762451 146.994053 
" clip-path="url(#p19c3306c70)" style="fill: none; stroke: #000000; stroke-width: 2; stroke-linecap: square"/>
   </g>
   <g id="line2d_14">
    <path d="M 381.103685 169.133983 
L 407.252711 169.133983 
M 394.178198 169.133983 
L 394.178198 147.53969 
M 381.103685 147.53969 
L 407.252711 147.53969 
" clip-path="url(#p19c3306c70)" style="fill: none; stroke: #000000; stroke-width: 2; stroke-linecap: square"/>
   </g>
   <g id="line2d_15">
    <path d="M 642.593945 173.802659 
L 668.742971 173.802659 
M 655.668458 173.802659 
L 655.668458 142.871014 
M 642.593945 142.871014 
L 668.742971 142.871014 
" clip-path="url(#p19c3306c70)" style="fill: none; stroke: #000000; stroke-width: 2; stroke-linecap: square"/>
   </g>
   <g id="line2d_16">
    <path d="M 224.209529 193.794645 
L 250.358555 193.794645 
M 237.284042 193.794645 
L 237.284042 169.677973 
M 224.209529 169.677973 
L 250.358555 169.677973 
" clip-path="url(#p19c3306c70)" style="fill: none; stroke: #ff0000; stroke-width: 2; stroke-linecap: square"/>
   </g>
   <g id="line2d_17">
    <path d="M 485.699789 132.408374 
L 511.848815 132.408374 
M 498.774302 132.408374 
L 498.774302 108.867721 
M 485.699789 108.867721 
L 511.848815 108.867721 
" clip-path="url(#p19c3306c70)" style="fill: none; stroke: #ff0000; stroke-width: 2; stroke-linecap: square"/>
   </g>
   <g id="line2d_18">
    <path d="M 747.190049 180.066557 
L 773.339075 180.066557 
M 760.264562 180.066557 
L 760.264562 137.362091 
M 747.190049 137.362091 
L 773.339075 137.362091 
" clip-path="url(#p19c3306c70)" style="fill: none; stroke: #ff0000; stroke-width: 2; stroke-linecap: square"/>
   </g>
   <g id="line2d_19">
    <path d="M 394.178198 28.180673 
L 394.178198 24.10381 
L 498.774302 24.10381 
L 498.774302 28.180673 
" clip-path="url(#p19c3306c70)" style="fill: none; stroke: #000000; stroke-width: 1.5; stroke-linecap: square"/>
   </g>
   <g id="patch_9">
    <path d="M 43.78125 362.18 
L 43.78125 36.030939 
" style="fill: none; stroke: #000000; stroke-width: 0.8; stroke-linejoin: miter; stroke-linecap: square"/>
   </g>
   <g id="patch_10">
    <path d="M 184.98599 362.18 
L 707.96651 362.18 
" style="fill: none; stroke: #000000; stroke-width: 0.8; stroke-linejoin: miter; stroke-linecap: square"/>
   </g>
   <g id="PathCollection_1">
    <defs>
     <path id="C0_0_d1d07c9a24" d="M 0 2.5 
C 0.663008 2.5 1.29895 2.236584 1.767767 1.767767 
C 2.236584 1.29895 2.5 0.663008 2.5 -0 
C 2.5 -0.663008 2.236584 -1.29895 1.767767 -1.767767 
C 1.29895 -2.236584 0.663008 -2.5 0 -2.5 
C -0.663008 -2.5 -1.29895 -2.236584 -1.767767 -1.767767 
C -2.236584 -1.29895 -2.5 -0.663008 -2.5 0 
C -2.5 0.663008 -2.236584 1.29895 -1.767767 1.767767 
C -1.29895 2.236584 -0.663008 2.5 0 2.5 
z
"/>
    </defs>
    <g clip-path="url(#p19c3306c70)">
     <use xlink:href="#C0_0_d1d07c9a24" x="145.483978" y="117.319851" style="fill-opacity: 0.3"/>
    </g>
    <g clip-path="url(#p19c3306c70)">
     <use xlink:href="#C0_0_d1d07c9a24" x="133.144668" y="220.929455" style="fill-opacity: 0.3"/>
    </g>
    <g clip-path="url(#p19c3306c70)">
     <use xlink:href="#C0_0_d1d07c9a24" x="133.770266" y="193.765888" style="fill-opacity: 0.3"/>
    </g>
    <g clip-path="url(#p19c3306c70)">
     <use xlink:href="#C0_0_d1d07c9a24" x="129.412354" y="171.258933" style="fill-opacity: 0.3"/>
    </g>
    <g clip-path="url(#p19c3306c70)">
     <use xlink:href="#C0_0_d1d07c9a24" x="144.127049" y="140.602908" style="fill-opacity: 0.3"/>
    </g>
    <g clip-path="url(#p19c3306c70)">
     <use xlink:href="#C0_0_d1d07c9a24" x="145.02508" y="143.319265" style="fill-opacity: 0.3"/>
    </g>
    <g clip-path="url(#p19c3306c70)">
     <use xlink:href="#C0_0_d1d07c9a24" x="124.765875" y="176.303596" style="fill-opacity: 0.3"/>
    </g>
    <g clip-path="url(#p19c3306c70)">
     <use xlink:href="#C0_0_d1d07c9a24" x="144.367467" y="152.632488" style="fill-opacity: 0.3"/>
    </g>
    <g clip-path="url(#p19c3306c70)">
     <use xlink:href="#C0_0_d1d07c9a24" x="126.661307" y="168.542577" style="fill-opacity: 0.3"/>
    </g>
    <g clip-path="url(#p19c3306c70)">
     <use xlink:href="#C0_0_d1d07c9a24" x="122.671166" y="98.693406" style="fill-opacity: 0.3"/>
    </g>
   </g>
   <g id="PathCollection_2">
    <defs>
     <path id="C1_0_437b98d98b" d="M 0 2.5 
C 0.663008 2.5 1.29895 2.236584 1.767767 1.767767 
C 2.236584 1.29895 2.5 0.663008 2.5 -0 
C 2.5 -0.663008 2.236584 -1.29895 1.767767 -1.767767 
C 1.29895 -2.236584 0.663008 -2.5 0 -2.5 
C -0.663008 -2.5 -1.29895 -2.236584 -1.767767 -1.767767 
C -2.236584 -1.29895 -2.5 -0.663008 -2.5 0 
C -2.5 0.663008 -2.236584 1.29895 -1.767767 1.767767 
C -1.29895 2.236584 -0.663008 2.5 0 2.5 
z
"/>
    </defs>
    <g clip-path="url(#p19c3306c70)">
     <use xlink:href="#C1_0_437b98d98b" x="246.57493" y="166.602322" style="fill: #ff0000; fill-opacity: 0.3"/>
    </g>
    <g clip-path="url(#p19c3306c70)">
     <use xlink:href="#C1_0_437b98d98b" x="245.446864" y="185.616818" style="fill: #ff0000; fill-opacity: 0.3"/>
    </g>
    <g clip-path="url(#p19c3306c70)">
     <use xlink:href="#C1_0_437b98d98b" x="240.249612" y="197.258347" style="fill: #ff0000; fill-opacity: 0.3"/>
    </g>
    <g clip-path="url(#p19c3306c70)">
     <use xlink:href="#C1_0_437b98d98b" x="247.148467" y="117.319851" style="fill: #ff0000; fill-opacity: 0.3"/>
    </g>
    <g clip-path="url(#p19c3306c70)">
     <use xlink:href="#C1_0_437b98d98b" x="241.243669" y="130.125533" style="fill: #ff0000; fill-opacity: 0.3"/>
    </g>
    <g clip-path="url(#p19c3306c70)">
     <use xlink:href="#C1_0_437b98d98b" x="225.903749" y="207.347672" style="fill: #ff0000; fill-opacity: 0.3"/>
    </g>
    <g clip-path="url(#p19c3306c70)">
     <use xlink:href="#C1_0_437b98d98b" x="232.578998" y="189.497328" style="fill: #ff0000; fill-opacity: 0.3"/>
    </g>
    <g clip-path="url(#p19c3306c70)">
     <use xlink:href="#C1_0_437b98d98b" x="240.155361" y="184.452666" style="fill: #ff0000; fill-opacity: 0.3"/>
    </g>
    <g clip-path="url(#p19c3306c70)">
     <use xlink:href="#C1_0_437b98d98b" x="249.483662" y="186.39292" style="fill: #ff0000; fill-opacity: 0.3"/>
    </g>
    <g clip-path="url(#p19c3306c70)">
     <use xlink:href="#C1_0_437b98d98b" x="231.732466" y="252.749633" style="fill: #ff0000; fill-opacity: 0.3"/>
    </g>
   </g>
   <g id="PathCollection_3">
    <defs>
     <path id="C2_0_295162da95" d="M 0 2.5 
C 0.663008 2.5 1.29895 2.236584 1.767767 1.767767 
C 2.236584 1.29895 2.5 0.663008 2.5 -0 
C 2.5 -0.663008 2.236584 -1.29895 1.767767 -1.767767 
C 1.29895 -2.236584 0.663008 -2.5 0 -2.5 
C -0.663008 -2.5 -1.29895 -2.236584 -1.767767 -1.767767 
C -2.236584 -1.29895 -2.5 -0.663008 -2.5 0 
C -2.5 0.663008 -2.236584 1.29895 -1.767767 1.767767 
C -1.29895 2.236584 -0.663008 2.5 0 2.5 
z
"/>
    </defs>
    <g clip-path="url(#p19c3306c70)">
     <use xlink:href="#C2_0_295162da95" x="384.570431" y="173.495371" style="fill-opacity: 0.3"/>
    </g>
    <g clip-path="url(#p19c3306c70)">
     <use xlink:href="#C2_0_295162da95" x="384.293446" y="218.130445" style="fill-opacity: 0.3"/>
    </g>
    <g clip-path="url(#p19c3306c70)">
     <use xlink:href="#C2_0_295162da95" x="392.711989" y="168.626091" style="fill-opacity: 0.3"/>
    </g>
    <g clip-path="url(#p19c3306c70)">
     <use xlink:href="#C2_0_295162da95" x="403.948557" y="121.556377" style="fill-opacity: 0.3"/>
    </g>
    <g clip-path="url(#p19c3306c70)">
     <use xlink:href="#C2_0_295162da95" x="383.220277" y="136.975766" style="fill-opacity: 0.3"/>
    </g>
    <g clip-path="url(#p19c3306c70)">
     <use xlink:href="#C2_0_295162da95" x="387.318898" y="109.383175" style="fill-opacity: 0.3"/>
    </g>
    <g clip-path="url(#p19c3306c70)">
     <use xlink:href="#C2_0_295162da95" x="397.638167" y="136.569992" style="fill-opacity: 0.3"/>
    </g>
    <g clip-path="url(#p19c3306c70)">
     <use xlink:href="#C2_0_295162da95" x="392.201853" y="142.656593" style="fill-opacity: 0.3"/>
    </g>
    <g clip-path="url(#p19c3306c70)">
     <use xlink:href="#C2_0_295162da95" x="402.227408" y="114.252456" style="fill-opacity: 0.3"/>
    </g>
    <g clip-path="url(#p19c3306c70)">
     <use xlink:href="#C2_0_295162da95" x="397.37354" y="144.279687" style="fill-opacity: 0.3"/>
    </g>
    <g clip-path="url(#p19c3306c70)">
     <use xlink:href="#C2_0_295162da95" x="392.361755" y="117.904416" style="fill-opacity: 0.3"/>
    </g>
    <g clip-path="url(#p19c3306c70)">
     <use xlink:href="#C2_0_295162da95" x="402.856663" y="203.522603" style="fill-opacity: 0.3"/>
    </g>
    <g clip-path="url(#p19c3306c70)">
     <use xlink:href="#C2_0_295162da95" x="405.274344" y="225.028593" style="fill-opacity: 0.3"/>
    </g>
    <g clip-path="url(#p19c3306c70)">
     <use xlink:href="#C2_0_295162da95" x="399.710863" y="204.334149" style="fill-opacity: 0.3"/>
    </g>
   </g>
   <g id="PathCollection_4">
    <defs>
     <path id="C3_0_13da62bc45" d="M 0 2.5 
C 0.663008 2.5 1.29895 2.236584 1.767767 1.767767 
C 2.236584 1.29895 2.5 0.663008 2.5 -0 
C 2.5 -0.663008 2.236584 -1.29895 1.767767 -1.767767 
C 1.29895 -2.236584 0.663008 -2.5 0 -2.5 
C -0.663008 -2.5 -1.29895 -2.236584 -1.767767 -1.767767 
C -2.236584 -1.29895 -2.5 -0.663008 -2.5 0 
C -2.5 0.663008 -2.236584 1.29895 -1.767767 1.767767 
C -1.29895 2.236584 -0.663008 2.5 0 2.5 
z
"/>
    </defs>
    <g clip-path="url(#p19c3306c70)">
     <use xlink:href="#C3_0_13da62bc45" x="496.262275" y="84.630998" style="fill: #ff0000; fill-opacity: 0.3"/>
    </g>
    <g clip-path="url(#p19c3306c70)">
     <use xlink:href="#C3_0_13da62bc45" x="502.323833" y="147.525874" style="fill: #ff0000; fill-opacity: 0.3"/>
    </g>
    <g clip-path="url(#p19c3306c70)">
     <use xlink:href="#C3_0_13da62bc45" x="488.028569" y="114.252456" style="fill: #ff0000; fill-opacity: 0.3"/>
    </g>
    <g clip-path="url(#p19c3306c70)">
     <use xlink:href="#C3_0_13da62bc45" x="506.77797" y="121.556377" style="fill: #ff0000; fill-opacity: 0.3"/>
    </g>
    <g clip-path="url(#p19c3306c70)">
     <use xlink:href="#C3_0_13da62bc45" x="501.390735" y="191.755174" style="fill: #ff0000; fill-opacity: 0.3"/>
    </g>
    <g clip-path="url(#p19c3306c70)">
     <use xlink:href="#C3_0_13da62bc45" x="497.110522" y="38.372831" style="fill: #ff0000; fill-opacity: 0.3"/>
    </g>
    <g clip-path="url(#p19c3306c70)">
     <use xlink:href="#C3_0_13da62bc45" x="493.19504" y="179.176199" style="fill: #ff0000; fill-opacity: 0.3"/>
    </g>
    <g clip-path="url(#p19c3306c70)">
     <use xlink:href="#C3_0_13da62bc45" x="501.843293" y="151.989381" style="fill: #ff0000; fill-opacity: 0.3"/>
    </g>
    <g clip-path="url(#p19c3306c70)">
     <use xlink:href="#C3_0_13da62bc45" x="499.730955" y="180.799293" style="fill: #ff0000; fill-opacity: 0.3"/>
    </g>
    <g clip-path="url(#p19c3306c70)">
     <use xlink:href="#C3_0_13da62bc45" x="508.298328" y="47.705619" style="fill: #ff0000; fill-opacity: 0.3"/>
    </g>
    <g clip-path="url(#p19c3306c70)">
     <use xlink:href="#C3_0_13da62bc45" x="501.747715" y="62.719235" style="fill: #ff0000; fill-opacity: 0.3"/>
    </g>
    <g clip-path="url(#p19c3306c70)">
     <use xlink:href="#C3_0_13da62bc45" x="495.230855" y="95.181106" style="fill: #ff0000; fill-opacity: 0.3"/>
    </g>
    <g clip-path="url(#p19c3306c70)">
     <use xlink:href="#C3_0_13da62bc45" x="489.006166" y="120.339057" style="fill: #ff0000; fill-opacity: 0.3"/>
    </g>
    <g clip-path="url(#p19c3306c70)">
     <use xlink:href="#C3_0_13da62bc45" x="488.976486" y="119.52751" style="fill: #ff0000; fill-opacity: 0.3"/>
    </g>
    <g clip-path="url(#p19c3306c70)">
     <use xlink:href="#C3_0_13da62bc45" x="506.907687" y="159.293303" style="fill: #ff0000; fill-opacity: 0.3"/>
    </g>
    <g clip-path="url(#p19c3306c70)">
     <use xlink:href="#C3_0_13da62bc45" x="505.237524" y="105.325441" style="fill: #ff0000; fill-opacity: 0.3"/>
    </g>
    <g clip-path="url(#p19c3306c70)">
     <use xlink:href="#C3_0_13da62bc45" x="510.589246" y="55.821087" style="fill: #ff0000; fill-opacity: 0.3"/>
    </g>
    <g clip-path="url(#p19c3306c70)">
     <use xlink:href="#C3_0_13da62bc45" x="488.564295" y="97.209973" style="fill: #ff0000; fill-opacity: 0.3"/>
    </g>
    <g clip-path="url(#p19c3306c70)">
     <use xlink:href="#C3_0_13da62bc45" x="493.827386" y="218.941992" style="fill: #ff0000; fill-opacity: 0.3"/>
    </g>
   </g>
   <g id="PathCollection_5">
    <defs>
     <path id="C4_0_be19e58097" d="M 0 2.5 
C 0.663008 2.5 1.29895 2.236584 1.767767 1.767767 
C 2.236584 1.29895 2.5 0.663008 2.5 -0 
C 2.5 -0.663008 2.236584 -1.29895 1.767767 -1.767767 
C 1.29895 -2.236584 0.663008 -2.5 0 -2.5 
C -0.663008 -2.5 -1.29895 -2.236584 -1.767767 -1.767767 
C -2.236584 -1.29895 -2.5 -0.663008 -2.5 0 
C -2.5 0.663008 -2.236584 1.29895 -1.767767 1.767767 
C -1.29895 2.236584 -0.663008 2.5 0 2.5 
z
"/>
    </defs>
    <g clip-path="url(#p19c3306c70)">
     <use xlink:href="#C4_0_be19e58097" x="664.602546" y="92.65404" style="fill-opacity: 0.3"/>
    </g>
    <g clip-path="url(#p19c3306c70)">
     <use xlink:href="#C4_0_be19e58097" x="664.043467" y="231.380637" style="fill-opacity: 0.3"/>
    </g>
    <g clip-path="url(#p19c3306c70)">
     <use xlink:href="#C4_0_be19e58097" x="664.244607" y="188.221251" style="fill-opacity: 0.3"/>
    </g>
    <g clip-path="url(#p19c3306c70)">
     <use xlink:href="#C4_0_be19e58097" x="643.30321" y="221.691795" style="fill-opacity: 0.3"/>
    </g>
    <g clip-path="url(#p19c3306c70)">
     <use xlink:href="#C4_0_be19e58097" x="660.514232" y="136.253827" style="fill-opacity: 0.3"/>
    </g>
    <g clip-path="url(#p19c3306c70)">
     <use xlink:href="#C4_0_be19e58097" x="655.78841" y="60.945103" style="fill-opacity: 0.3"/>
    </g>
    <g clip-path="url(#p19c3306c70)">
     <use xlink:href="#C4_0_be19e58097" x="663.833274" y="133.611416" style="fill-opacity: 0.3"/>
    </g>
    <g clip-path="url(#p19c3306c70)">
     <use xlink:href="#C4_0_be19e58097" x="648.324581" y="108.508508" style="fill-opacity: 0.3"/>
    </g>
    <g clip-path="url(#p19c3306c70)">
     <use xlink:href="#C4_0_be19e58097" x="650.031512" y="142.419454" style="fill-opacity: 0.3"/>
    </g>
    <g clip-path="url(#p19c3306c70)">
     <use xlink:href="#C4_0_be19e58097" x="665.134539" y="200.552504" style="fill-opacity: 0.3"/>
    </g>
    <g clip-path="url(#p19c3306c70)">
     <use xlink:href="#C4_0_be19e58097" x="663.0372" y="232.701843" style="fill-opacity: 0.3"/>
    </g>
    <g clip-path="url(#p19c3306c70)">
     <use xlink:href="#C4_0_be19e58097" x="650.186298" y="220.810991" style="fill-opacity: 0.3"/>
    </g>
    <g clip-path="url(#p19c3306c70)">
     <use xlink:href="#C4_0_be19e58097" x="646.000792" y="155.191109" style="fill-opacity: 0.3"/>
    </g>
    <g clip-path="url(#p19c3306c70)">
     <use xlink:href="#C4_0_be19e58097" x="658.647632" y="91.773236" style="fill-opacity: 0.3"/>
    </g>
   </g>
   <g id="PathCollection_6">
    <defs>
     <path id="C5_0_aec3873932" d="M 0 2.5 
C 0.663008 2.5 1.29895 2.236584 1.767767 1.767767 
C 2.236584 1.29895 2.5 0.663008 2.5 -0 
C 2.5 -0.663008 2.236584 -1.29895 1.767767 -1.767767 
C 1.29895 -2.236584 0.663008 -2.5 0 -2.5 
C -0.663008 -2.5 -1.29895 -2.236584 -1.767767 -1.767767 
C -2.236584 -1.29895 -2.5 -0.663008 -2.5 0 
C -2.5 0.663008 -2.236584 1.29895 -1.767767 1.767767 
C -1.29895 2.236584 -0.663008 2.5 0 2.5 
z
"/>
    </defs>
    <g clip-path="url(#p19c3306c70)">
     <use xlink:href="#C5_0_aec3873932" x="763.754827" y="362.18" style="fill: #ff0000; fill-opacity: 0.3"/>
    </g>
    <g clip-path="url(#p19c3306c70)">
     <use xlink:href="#C5_0_aec3873932" x="760.861868" y="104.104489" style="fill: #ff0000; fill-opacity: 0.3"/>
    </g>
    <g clip-path="url(#p19c3306c70)">
     <use xlink:href="#C5_0_aec3873932" x="752.864465" y="136.253827" style="fill: #ff0000; fill-opacity: 0.3"/>
    </g>
    <g clip-path="url(#p19c3306c70)">
     <use xlink:href="#C5_0_aec3873932" x="763.982368" y="215.085767" style="fill: #ff0000; fill-opacity: 0.3"/>
    </g>
    <g clip-path="url(#p19c3306c70)">
     <use xlink:href="#C5_0_aec3873932" x="753.857558" y="165.320353" style="fill: #ff0000; fill-opacity: 0.3"/>
    </g>
    <g clip-path="url(#p19c3306c70)">
     <use xlink:href="#C5_0_aec3873932" x="752.906983" y="93.975245" style="fill: #ff0000; fill-opacity: 0.3"/>
    </g>
    <g clip-path="url(#p19c3306c70)">
     <use xlink:href="#C5_0_aec3873932" x="748.355584" y="97.058059" style="fill: #ff0000; fill-opacity: 0.3"/>
    </g>
    <g clip-path="url(#p19c3306c70)">
     <use xlink:href="#C5_0_aec3873932" x="765.741051" y="185.57884" style="fill: #ff0000; fill-opacity: 0.3"/>
    </g>
    <g clip-path="url(#p19c3306c70)">
     <use xlink:href="#C5_0_aec3873932" x="763.737442" y="151.227492" style="fill: #ff0000; fill-opacity: 0.3"/>
    </g>
    <g clip-path="url(#p19c3306c70)">
     <use xlink:href="#C5_0_aec3873932" x="769.02959" y="112.031723" style="fill: #ff0000; fill-opacity: 0.3"/>
    </g>
    <g clip-path="url(#p19c3306c70)">
     <use xlink:href="#C5_0_aec3873932" x="770.742104" y="156.512315" style="fill: #ff0000; fill-opacity: 0.3"/>
    </g>
    <g clip-path="url(#p19c3306c70)">
     <use xlink:href="#C5_0_aec3873932" x="750.476212" y="125.24378" style="fill: #ff0000; fill-opacity: 0.3"/>
    </g>
   </g>
   <g id="text_14">
    <!-- * -->
    <g transform="translate(442.97625 20.173031) scale(0.14 -0.14)">
     <defs>
      <path id="DejaVuSans-2a" d="M 3009 3897 
L 1888 3291 
L 3009 2681 
L 2828 2375 
L 1778 3009 
L 1778 1831 
L 1422 1831 
L 1422 3009 
L 372 2375 
L 191 2681 
L 1313 3291 
L 191 3897 
L 372 4206 
L 1422 3572 
L 1422 4750 
L 1778 4750 
L 1778 3572 
L 2828 4206 
L 3009 3897 
z
" transform="scale(0.015625)"/>
     </defs>
     <use xlink:href="#DejaVuSans-2a"/>
    </g>
   </g>
  </g>
  <g id="text_15">
   <!-- time_combo -->
   <g transform="translate(384.979219 424.08) scale(0.14 -0.14)">
    <defs>
     <path id="DejaVuSans-63" d="M 3122 3366 
L 3122 2828 
Q 2878 2963 2633 3030 
Q 2388 3097 2138 3097 
Q 1578 3097 1268 2742 
Q 959 2388 959 1747 
Q 959 1106 1268 751 
Q 1578 397 2138 397 
Q 2388 397 2633 464 
Q 2878 531 3122 666 
L 3122 134 
Q 2881 22 2623 -34 
Q 2366 -91 2075 -91 
Q 1284 -91 818 406 
Q 353 903 353 1747 
Q 353 2603 823 3093 
Q 1294 3584 2113 3584 
Q 2378 3584 2631 3529 
Q 2884 3475 3122 3366 
z
" transform="scale(0.015625)"/>
    </defs>
    <use xlink:href="#DejaVuSans-74"/>
    <use xlink:href="#DejaVuSans-69" transform="translate(39.208984 0)"/>
    <use xlink:href="#DejaVuSans-6d" transform="translate(66.992188 0)"/>
    <use xlink:href="#DejaVuSans-65" transform="translate(164.404297 0)"/>
    <use xlink:href="#DejaVuSans-5f" transform="translate(225.927734 0)"/>
    <use xlink:href="#DejaVuSans-63" transform="translate(275.927734 0)"/>
    <use xlink:href="#DejaVuSans-6f" transform="translate(330.908203 0)"/>
    <use xlink:href="#DejaVuSans-6d" transform="translate(392.089844 0)"/>
    <use xlink:href="#DejaVuSans-62" transform="translate(489.501953 0)"/>
    <use xlink:href="#DejaVuSans-6f" transform="translate(552.978516 0)"/>
   </g>
  </g>
 </g>
 <defs>
  <clipPath id="p19c3306c70">
   <rect x="43.78125" y="7.2" width="805.39" height="354.98"/>
  </clipPath>
 </defs>
</svg>
