<?xml version="1.0" encoding="utf-8" standalone="no"?>
<!DOCTYPE svg PUBLIC "-//W3C//DTD SVG 1.1//EN"
  "http://www.w3.org/Graphics/SVG/1.1/DTD/svg11.dtd">
<svg xmlns:xlink="http://www.w3.org/1999/xlink" width="856.37125pt" height="434.580937pt" viewBox="0 0 856.37125 434.580937" xmlns="http://www.w3.org/2000/svg" version="1.1">
 <metadata>
  <rdf:RDF xmlns:dc="http://purl.org/dc/elements/1.1/" xmlns:cc="http://creativecommons.org/ns#" xmlns:rdf="http://www.w3.org/1999/02/22-rdf-syntax-ns#">
   <cc:Work>
    <dc:type rdf:resource="http://purl.org/dc/dcmitype/StillImage"/>
    <dc:date>2025-11-29T21:06:49.719754</dc:date>
    <dc:format>image/svg+xml</dc:format>
    <dc:creator>
     <cc:Agent>
      <dc:title>Matplotlib v3.10.0, https://matplotlib.org/</dc:title>
     </cc:Agent>
    </dc:creator>
   </cc:Work>
  </rdf:RDF>
 </metadata>
 <defs>
  <style type="text/css">*{stroke-linejoin: round; stroke-linecap: butt}</style>
 </defs>
 <g id="figure_1">
  <g id="patch_1">
   <path d="M 0 434.580937 
L 856.37125 434.580937 
L 856.37125 -0 
L 0 -0 
L 0 434.580937 
z
" style="fill: none"/>
  </g>
  <g id="axes_1">
   <g id="patch_2">
    <path d="M 43.78125 362.18 
L 849.17125 362.18 
L 849.17125 7.2 
L 43.78125 7.2 
L 43.78125 362.18 
z
" style="fill: none"/>
   </g>
   <g id="patch_3">
    <path d="M 80.389886 362.18 
L 184.98599 362.18 
L 184.98599 255.263721 
L 80.389886 255.263721 
L 80.389886 362.18 
z
" clip-path="url(#p03ef44d51f)" style="fill: none; opacity: 0"/>
   </g>
   <g id="patch_4">
    <path d="M 341.880146 362.18 
L 446.47625 362.18 
L 446.47625 255.263721 
L 341.880146 255.263721 
L 341.880146 362.18 
z
" clip-path="url(#p03ef44d51f)" style="fill: none; opacity: 0"/>
   </g>
   <g id="patch_5">
    <path d="M 603.370406 362.18 
L 707.96651 362.18 
L 707.96651 255.263721 
L 603.370406 255.263721 
L 603.370406 362.18 
z
" clip-path="url(#p03ef44d51f)" style="fill: none; opacity: 0"/>
   </g>
   <g id="patch_6">
    <path d="M 184.98599 362.18 
L 289.582094 362.18 
L 289.582094 151.93549 
L 184.98599 151.93549 
L 184.98599 362.18 
z
" clip-path="url(#p03ef44d51f)" style="fill: none; opacity: 0"/>
   </g>
   <g id="patch_7">
    <path d="M 446.47625 362.18 
L 551.072354 362.18 
L 551.072354 263.015356 
L 446.47625 263.015356 
L 446.47625 362.18 
z
" clip-path="url(#p03ef44d51f)" style="fill: none; opacity: 0"/>
   </g>
   <g id="patch_8">
    <path d="M 707.96651 362.18 
L 812.562614 362.18 
L 812.562614 255.967052 
L 707.96651 255.967052 
L 707.96651 362.18 
z
" clip-path="url(#p03ef44d51f)" style="fill: none; opacity: 0"/>
   </g>
   <g id="matplotlib.axis_1">
    <g id="xtick_1">
     <g id="line2d_1">
      <defs>
       <path id="m0484cd6264" d="M 0 0 
L 0 3.5 
" style="stroke: #000000; stroke-width: 0.8"/>
      </defs>
      <g>
       <use xlink:href="#m0484cd6264" x="184.98599" y="362.18" style="stroke: #000000; stroke-width: 0.8"/>
      </g>
     </g>
     <g id="text_1">
      <!-- 11_18_25 -->
      <g transform="translate(187.518022 417.355) rotate(-90) scale(0.1 -0.1)">
       <defs>
        <path id="DejaVuSans-31" d="M 794 531 
L 1825 531 
L 1825 4091 
L 703 3866 
L 703 4441 
L 1819 4666 
L 2450 4666 
L 2450 531 
L 3481 531 
L 3481 0 
L 794 0 
L 794 531 
z
" transform="scale(0.015625)"/>
        <path id="DejaVuSans-5f" d="M 3263 -1063 
L 3263 -1509 
L -63 -1509 
L -63 -1063 
L 3263 -1063 
z
" transform="scale(0.015625)"/>
        <path id="DejaVuSans-38" d="M 2034 2216 
Q 1584 2216 1326 1975 
Q 1069 1734 1069 1313 
Q 1069 891 1326 650 
Q 1584 409 2034 409 
Q 2484 409 2743 651 
Q 3003 894 3003 1313 
Q 3003 1734 2745 1975 
Q 2488 2216 2034 2216 
z
M 1403 2484 
Q 997 2584 770 2862 
Q 544 3141 544 3541 
Q 544 4100 942 4425 
Q 1341 4750 2034 4750 
Q 2731 4750 3128 4425 
Q 3525 4100 3525 3541 
Q 3525 3141 3298 2862 
Q 3072 2584 2669 2484 
Q 3125 2378 3379 2068 
Q 3634 1759 3634 1313 
Q 3634 634 3220 271 
Q 2806 -91 2034 -91 
Q 1263 -91 848 271 
Q 434 634 434 1313 
Q 434 1759 690 2068 
Q 947 2378 1403 2484 
z
M 1172 3481 
Q 1172 3119 1398 2916 
Q 1625 2713 2034 2713 
Q 2441 2713 2670 2916 
Q 2900 3119 2900 3481 
Q 2900 3844 2670 4047 
Q 2441 4250 2034 4250 
Q 1625 4250 1398 4047 
Q 1172 3844 1172 3481 
z
" transform="scale(0.015625)"/>
        <path id="DejaVuSans-32" d="M 1228 531 
L 3431 531 
L 3431 0 
L 469 0 
L 469 531 
Q 828 903 1448 1529 
Q 2069 2156 2228 2338 
Q 2531 2678 2651 2914 
Q 2772 3150 2772 3378 
Q 2772 3750 2511 3984 
Q 2250 4219 1831 4219 
Q 1534 4219 1204 4116 
Q 875 4013 500 3803 
L 500 4441 
Q 881 4594 1212 4672 
Q 1544 4750 1819 4750 
Q 2544 4750 2975 4387 
Q 3406 4025 3406 3419 
Q 3406 3131 3298 2873 
Q 3191 2616 2906 2266 
Q 2828 2175 2409 1742 
Q 1991 1309 1228 531 
z
" transform="scale(0.015625)"/>
        <path id="DejaVuSans-35" d="M 691 4666 
L 3169 4666 
L 3169 4134 
L 1269 4134 
L 1269 2991 
Q 1406 3038 1543 3061 
Q 1681 3084 1819 3084 
Q 2600 3084 3056 2656 
Q 3513 2228 3513 1497 
Q 3513 744 3044 326 
Q 2575 -91 1722 -91 
Q 1428 -91 1123 -41 
Q 819 9 494 109 
L 494 744 
Q 775 591 1075 516 
Q 1375 441 1709 441 
Q 2250 441 2565 725 
Q 2881 1009 2881 1497 
Q 2881 1984 2565 2268 
Q 2250 2553 1709 2553 
Q 1456 2553 1204 2497 
Q 953 2441 691 2322 
L 691 4666 
z
" transform="scale(0.015625)"/>
       </defs>
       <use xlink:href="#DejaVuSans-31"/>
       <use xlink:href="#DejaVuSans-31" transform="translate(63.623047 0)"/>
       <use xlink:href="#DejaVuSans-5f" transform="translate(127.246094 0)"/>
       <use xlink:href="#DejaVuSans-31" transform="translate(177.246094 0)"/>
       <use xlink:href="#DejaVuSans-38" transform="translate(240.869141 0)"/>
       <use xlink:href="#DejaVuSans-5f" transform="translate(304.492188 0)"/>
       <use xlink:href="#DejaVuSans-32" transform="translate(354.492188 0)"/>
       <use xlink:href="#DejaVuSans-35" transform="translate(418.115234 0)"/>
      </g>
     </g>
    </g>
    <g id="xtick_2">
     <g id="line2d_2">
      <g>
       <use xlink:href="#m0484cd6264" x="446.47625" y="362.18" style="stroke: #000000; stroke-width: 0.8"/>
      </g>
     </g>
     <g id="text_2">
      <!-- 4_24_23 -->
      <g transform="translate(449.008281 410.9925) rotate(-90) scale(0.1 -0.1)">
       <defs>
        <path id="DejaVuSans-34" d="M 2419 4116 
L 825 1625 
L 2419 1625 
L 2419 4116 
z
M 2253 4666 
L 3047 4666 
L 3047 1625 
L 3713 1625 
L 3713 1100 
L 3047 1100 
L 3047 0 
L 2419 0 
L 2419 1100 
L 313 1100 
L 313 1709 
L 2253 4666 
z
" transform="scale(0.015625)"/>
        <path id="DejaVuSans-33" d="M 2597 2516 
Q 3050 2419 3304 2112 
Q 3559 1806 3559 1356 
Q 3559 666 3084 287 
Q 2609 -91 1734 -91 
Q 1441 -91 1130 -33 
Q 819 25 488 141 
L 488 750 
Q 750 597 1062 519 
Q 1375 441 1716 441 
Q 2309 441 2620 675 
Q 2931 909 2931 1356 
Q 2931 1769 2642 2001 
Q 2353 2234 1838 2234 
L 1294 2234 
L 1294 2753 
L 1863 2753 
Q 2328 2753 2575 2939 
Q 2822 3125 2822 3475 
Q 2822 3834 2567 4026 
Q 2313 4219 1838 4219 
Q 1578 4219 1281 4162 
Q 984 4106 628 3988 
L 628 4550 
Q 988 4650 1302 4700 
Q 1616 4750 1894 4750 
Q 2613 4750 3031 4423 
Q 3450 4097 3450 3541 
Q 3450 3153 3228 2886 
Q 3006 2619 2597 2516 
z
" transform="scale(0.015625)"/>
       </defs>
       <use xlink:href="#DejaVuSans-34"/>
       <use xlink:href="#DejaVuSans-5f" transform="translate(63.623047 0)"/>
       <use xlink:href="#DejaVuSans-32" transform="translate(113.623047 0)"/>
       <use xlink:href="#DejaVuSans-34" transform="translate(177.246094 0)"/>
       <use xlink:href="#DejaVuSans-5f" transform="translate(240.869141 0)"/>
       <use xlink:href="#DejaVuSans-32" transform="translate(290.869141 0)"/>
       <use xlink:href="#DejaVuSans-33" transform="translate(354.492188 0)"/>
      </g>
     </g>
    </g>
    <g id="xtick_3">
     <g id="line2d_3">
      <g>
       <use xlink:href="#m0484cd6264" x="707.96651" y="362.18" style="stroke: #000000; stroke-width: 0.8"/>
      </g>
     </g>
     <g id="text_3">
      <!-- 6_6_25 -->
      <g transform="translate(710.498541 404.63) rotate(-90) scale(0.1 -0.1)">
       <defs>
        <path id="DejaVuSans-36" d="M 2113 2584 
Q 1688 2584 1439 2293 
Q 1191 2003 1191 1497 
Q 1191 994 1439 701 
Q 1688 409 2113 409 
Q 2538 409 2786 701 
Q 3034 994 3034 1497 
Q 3034 2003 2786 2293 
Q 2538 2584 2113 2584 
z
M 3366 4563 
L 3366 3988 
Q 3128 4100 2886 4159 
Q 2644 4219 2406 4219 
Q 1781 4219 1451 3797 
Q 1122 3375 1075 2522 
Q 1259 2794 1537 2939 
Q 1816 3084 2150 3084 
Q 2853 3084 3261 2657 
Q 3669 2231 3669 1497 
Q 3669 778 3244 343 
Q 2819 -91 2113 -91 
Q 1303 -91 875 529 
Q 447 1150 447 2328 
Q 447 3434 972 4092 
Q 1497 4750 2381 4750 
Q 2619 4750 2861 4703 
Q 3103 4656 3366 4563 
z
" transform="scale(0.015625)"/>
       </defs>
       <use xlink:href="#DejaVuSans-36"/>
       <use xlink:href="#DejaVuSans-5f" transform="translate(63.623047 0)"/>
       <use xlink:href="#DejaVuSans-36" transform="translate(113.623047 0)"/>
       <use xlink:href="#DejaVuSans-5f" transform="translate(177.246094 0)"/>
       <use xlink:href="#DejaVuSans-32" transform="translate(227.246094 0)"/>
       <use xlink:href="#DejaVuSans-35" transform="translate(290.869141 0)"/>
      </g>
     </g>
    </g>
   </g>
   <g id="matplotlib.axis_2">
    <g id="ytick_1">
     <g id="line2d_4">
      <defs>
       <path id="m85cd835b6b" d="M 0 0 
L -3.5 0 
" style="stroke: #000000; stroke-width: 0.8"/>
      </defs>
      <g>
       <use xlink:href="#m85cd835b6b" x="43.78125" y="362.18" style="stroke: #000000; stroke-width: 0.8"/>
      </g>
     </g>
     <g id="text_4">
      <!-- 0.0 -->
      <g transform="translate(20.878125 365.979219) scale(0.1 -0.1)">
       <defs>
        <path id="DejaVuSans-30" d="M 2034 4250 
Q 1547 4250 1301 3770 
Q 1056 3291 1056 2328 
Q 1056 1369 1301 889 
Q 1547 409 2034 409 
Q 2525 409 2770 889 
Q 3016 1369 3016 2328 
Q 3016 3291 2770 3770 
Q 2525 4250 2034 4250 
z
M 2034 4750 
Q 2819 4750 3233 4129 
Q 3647 3509 3647 2328 
Q 3647 1150 3233 529 
Q 2819 -91 2034 -91 
Q 1250 -91 836 529 
Q 422 1150 422 2328 
Q 422 3509 836 4129 
Q 1250 4750 2034 4750 
z
" transform="scale(0.015625)"/>
        <path id="DejaVuSans-2e" d="M 684 794 
L 1344 794 
L 1344 0 
L 684 0 
L 684 794 
z
" transform="scale(0.015625)"/>
       </defs>
       <use xlink:href="#DejaVuSans-30"/>
       <use xlink:href="#DejaVuSans-2e" transform="translate(63.623047 0)"/>
       <use xlink:href="#DejaVuSans-30" transform="translate(95.410156 0)"/>
      </g>
     </g>
    </g>
    <g id="ytick_2">
     <g id="line2d_5">
      <g>
       <use xlink:href="#m85cd835b6b" x="43.78125" y="308.721861" style="stroke: #000000; stroke-width: 0.8"/>
      </g>
     </g>
     <g id="text_5">
      <!-- 0.5 -->
      <g transform="translate(20.878125 312.521079) scale(0.1 -0.1)">
       <use xlink:href="#DejaVuSans-30"/>
       <use xlink:href="#DejaVuSans-2e" transform="translate(63.623047 0)"/>
       <use xlink:href="#DejaVuSans-35" transform="translate(95.410156 0)"/>
      </g>
     </g>
    </g>
    <g id="ytick_3">
     <g id="line2d_6">
      <g>
       <use xlink:href="#m85cd835b6b" x="43.78125" y="255.263721" style="stroke: #000000; stroke-width: 0.8"/>
      </g>
     </g>
     <g id="text_6">
      <!-- 1.0 -->
      <g transform="translate(20.878125 259.06294) scale(0.1 -0.1)">
       <use xlink:href="#DejaVuSans-31"/>
       <use xlink:href="#DejaVuSans-2e" transform="translate(63.623047 0)"/>
       <use xlink:href="#DejaVuSans-30" transform="translate(95.410156 0)"/>
      </g>
     </g>
    </g>
    <g id="ytick_4">
     <g id="line2d_7">
      <g>
       <use xlink:href="#m85cd835b6b" x="43.78125" y="201.805582" style="stroke: #000000; stroke-width: 0.8"/>
      </g>
     </g>
     <g id="text_7">
      <!-- 1.5 -->
      <g transform="translate(20.878125 205.604801) scale(0.1 -0.1)">
       <use xlink:href="#DejaVuSans-31"/>
       <use xlink:href="#DejaVuSans-2e" transform="translate(63.623047 0)"/>
       <use xlink:href="#DejaVuSans-35" transform="translate(95.410156 0)"/>
      </g>
     </g>
    </g>
    <g id="ytick_5">
     <g id="line2d_8">
      <g>
       <use xlink:href="#m85cd835b6b" x="43.78125" y="148.347443" style="stroke: #000000; stroke-width: 0.8"/>
      </g>
     </g>
     <g id="text_8">
      <!-- 2.0 -->
      <g transform="translate(20.878125 152.146661) scale(0.1 -0.1)">
       <use xlink:href="#DejaVuSans-32"/>
       <use xlink:href="#DejaVuSans-2e" transform="translate(63.623047 0)"/>
       <use xlink:href="#DejaVuSans-30" transform="translate(95.410156 0)"/>
      </g>
     </g>
    </g>
    <g id="ytick_6">
     <g id="line2d_9">
      <g>
       <use xlink:href="#m85cd835b6b" x="43.78125" y="94.889303" style="stroke: #000000; stroke-width: 0.8"/>
      </g>
     </g>
     <g id="text_9">
      <!-- 2.5 -->
      <g transform="translate(20.878125 98.688522) scale(0.1 -0.1)">
       <use xlink:href="#DejaVuSans-32"/>
       <use xlink:href="#DejaVuSans-2e" transform="translate(63.623047 0)"/>
       <use xlink:href="#DejaVuSans-35" transform="translate(95.410156 0)"/>
      </g>
     </g>
    </g>
    <g id="ytick_7">
     <g id="line2d_10">
      <g>
       <use xlink:href="#m85cd835b6b" x="43.78125" y="41.431164" style="stroke: #000000; stroke-width: 0.8"/>
      </g>
     </g>
     <g id="text_10">
      <!-- 3.0 -->
      <g transform="translate(20.878125 45.230383) scale(0.1 -0.1)">
       <use xlink:href="#DejaVuSans-33"/>
       <use xlink:href="#DejaVuSans-2e" transform="translate(63.623047 0)"/>
       <use xlink:href="#DejaVuSans-30" transform="translate(95.410156 0)"/>
      </g>
     </g>
    </g>
    <g id="text_11">
     <!-- Normalized numberofbouts: Binned - 3600 -->
     <g transform="translate(14.798438 291.211094) rotate(-90) scale(0.1 -0.1)">
      <defs>
       <path id="DejaVuSans-4e" d="M 628 4666 
L 1478 4666 
L 3547 763 
L 3547 4666 
L 4159 4666 
L 4159 0 
L 3309 0 
L 1241 3903 
L 1241 0 
L 628 0 
L 628 4666 
z
" transform="scale(0.015625)"/>
       <path id="DejaVuSans-6f" d="M 1959 3097 
Q 1497 3097 1228 2736 
Q 959 2375 959 1747 
Q 959 1119 1226 758 
Q 1494 397 1959 397 
Q 2419 397 2687 759 
Q 2956 1122 2956 1747 
Q 2956 2369 2687 2733 
Q 2419 3097 1959 3097 
z
M 1959 3584 
Q 2709 3584 3137 3096 
Q 3566 2609 3566 1747 
Q 3566 888 3137 398 
Q 2709 -91 1959 -91 
Q 1206 -91 779 398 
Q 353 888 353 1747 
Q 353 2609 779 3096 
Q 1206 3584 1959 3584 
z
" transform="scale(0.015625)"/>
       <path id="DejaVuSans-72" d="M 2631 2963 
Q 2534 3019 2420 3045 
Q 2306 3072 2169 3072 
Q 1681 3072 1420 2755 
Q 1159 2438 1159 1844 
L 1159 0 
L 581 0 
L 581 3500 
L 1159 3500 
L 1159 2956 
Q 1341 3275 1631 3429 
Q 1922 3584 2338 3584 
Q 2397 3584 2469 3576 
Q 2541 3569 2628 3553 
L 2631 2963 
z
" transform="scale(0.015625)"/>
       <path id="DejaVuSans-6d" d="M 3328 2828 
Q 3544 3216 3844 3400 
Q 4144 3584 4550 3584 
Q 5097 3584 5394 3201 
Q 5691 2819 5691 2113 
L 5691 0 
L 5113 0 
L 5113 2094 
Q 5113 2597 4934 2840 
Q 4756 3084 4391 3084 
Q 3944 3084 3684 2787 
Q 3425 2491 3425 1978 
L 3425 0 
L 2847 0 
L 2847 2094 
Q 2847 2600 2669 2842 
Q 2491 3084 2119 3084 
Q 1678 3084 1418 2786 
Q 1159 2488 1159 1978 
L 1159 0 
L 581 0 
L 581 3500 
L 1159 3500 
L 1159 2956 
Q 1356 3278 1631 3431 
Q 1906 3584 2284 3584 
Q 2666 3584 2933 3390 
Q 3200 3197 3328 2828 
z
" transform="scale(0.015625)"/>
       <path id="DejaVuSans-61" d="M 2194 1759 
Q 1497 1759 1228 1600 
Q 959 1441 959 1056 
Q 959 750 1161 570 
Q 1363 391 1709 391 
Q 2188 391 2477 730 
Q 2766 1069 2766 1631 
L 2766 1759 
L 2194 1759 
z
M 3341 1997 
L 3341 0 
L 2766 0 
L 2766 531 
Q 2569 213 2275 61 
Q 1981 -91 1556 -91 
Q 1019 -91 701 211 
Q 384 513 384 1019 
Q 384 1609 779 1909 
Q 1175 2209 1959 2209 
L 2766 2209 
L 2766 2266 
Q 2766 2663 2505 2880 
Q 2244 3097 1772 3097 
Q 1472 3097 1187 3025 
Q 903 2953 641 2809 
L 641 3341 
Q 956 3463 1253 3523 
Q 1550 3584 1831 3584 
Q 2591 3584 2966 3190 
Q 3341 2797 3341 1997 
z
" transform="scale(0.015625)"/>
       <path id="DejaVuSans-6c" d="M 603 4863 
L 1178 4863 
L 1178 0 
L 603 0 
L 603 4863 
z
" transform="scale(0.015625)"/>
       <path id="DejaVuSans-69" d="M 603 3500 
L 1178 3500 
L 1178 0 
L 603 0 
L 603 3500 
z
M 603 4863 
L 1178 4863 
L 1178 4134 
L 603 4134 
L 603 4863 
z
" transform="scale(0.015625)"/>
       <path id="DejaVuSans-7a" d="M 353 3500 
L 3084 3500 
L 3084 2975 
L 922 459 
L 3084 459 
L 3084 0 
L 275 0 
L 275 525 
L 2438 3041 
L 353 3041 
L 353 3500 
z
" transform="scale(0.015625)"/>
       <path id="DejaVuSans-65" d="M 3597 1894 
L 3597 1613 
L 953 1613 
Q 991 1019 1311 708 
Q 1631 397 2203 397 
Q 2534 397 2845 478 
Q 3156 559 3463 722 
L 3463 178 
Q 3153 47 2828 -22 
Q 2503 -91 2169 -91 
Q 1331 -91 842 396 
Q 353 884 353 1716 
Q 353 2575 817 3079 
Q 1281 3584 2069 3584 
Q 2775 3584 3186 3129 
Q 3597 2675 3597 1894 
z
M 3022 2063 
Q 3016 2534 2758 2815 
Q 2500 3097 2075 3097 
Q 1594 3097 1305 2825 
Q 1016 2553 972 2059 
L 3022 2063 
z
" transform="scale(0.015625)"/>
       <path id="DejaVuSans-64" d="M 2906 2969 
L 2906 4863 
L 3481 4863 
L 3481 0 
L 2906 0 
L 2906 525 
Q 2725 213 2448 61 
Q 2172 -91 1784 -91 
Q 1150 -91 751 415 
Q 353 922 353 1747 
Q 353 2572 751 3078 
Q 1150 3584 1784 3584 
Q 2172 3584 2448 3432 
Q 2725 3281 2906 2969 
z
M 947 1747 
Q 947 1113 1208 752 
Q 1469 391 1925 391 
Q 2381 391 2643 752 
Q 2906 1113 2906 1747 
Q 2906 2381 2643 2742 
Q 2381 3103 1925 3103 
Q 1469 3103 1208 2742 
Q 947 2381 947 1747 
z
" transform="scale(0.015625)"/>
       <path id="DejaVuSans-20" transform="scale(0.015625)"/>
       <path id="DejaVuSans-6e" d="M 3513 2113 
L 3513 0 
L 2938 0 
L 2938 2094 
Q 2938 2591 2744 2837 
Q 2550 3084 2163 3084 
Q 1697 3084 1428 2787 
Q 1159 2491 1159 1978 
L 1159 0 
L 581 0 
L 581 3500 
L 1159 3500 
L 1159 2956 
Q 1366 3272 1645 3428 
Q 1925 3584 2291 3584 
Q 2894 3584 3203 3211 
Q 3513 2838 3513 2113 
z
" transform="scale(0.015625)"/>
       <path id="DejaVuSans-75" d="M 544 1381 
L 544 3500 
L 1119 3500 
L 1119 1403 
Q 1119 906 1312 657 
Q 1506 409 1894 409 
Q 2359 409 2629 706 
Q 2900 1003 2900 1516 
L 2900 3500 
L 3475 3500 
L 3475 0 
L 2900 0 
L 2900 538 
Q 2691 219 2414 64 
Q 2138 -91 1772 -91 
Q 1169 -91 856 284 
Q 544 659 544 1381 
z
M 1991 3584 
L 1991 3584 
z
" transform="scale(0.015625)"/>
       <path id="DejaVuSans-62" d="M 3116 1747 
Q 3116 2381 2855 2742 
Q 2594 3103 2138 3103 
Q 1681 3103 1420 2742 
Q 1159 2381 1159 1747 
Q 1159 1113 1420 752 
Q 1681 391 2138 391 
Q 2594 391 2855 752 
Q 3116 1113 3116 1747 
z
M 1159 2969 
Q 1341 3281 1617 3432 
Q 1894 3584 2278 3584 
Q 2916 3584 3314 3078 
Q 3713 2572 3713 1747 
Q 3713 922 3314 415 
Q 2916 -91 2278 -91 
Q 1894 -91 1617 61 
Q 1341 213 1159 525 
L 1159 0 
L 581 0 
L 581 4863 
L 1159 4863 
L 1159 2969 
z
" transform="scale(0.015625)"/>
       <path id="DejaVuSans-66" d="M 2375 4863 
L 2375 4384 
L 1825 4384 
Q 1516 4384 1395 4259 
Q 1275 4134 1275 3809 
L 1275 3500 
L 2222 3500 
L 2222 3053 
L 1275 3053 
L 1275 0 
L 697 0 
L 697 3053 
L 147 3053 
L 147 3500 
L 697 3500 
L 697 3744 
Q 697 4328 969 4595 
Q 1241 4863 1831 4863 
L 2375 4863 
z
" transform="scale(0.015625)"/>
       <path id="DejaVuSans-74" d="M 1172 4494 
L 1172 3500 
L 2356 3500 
L 2356 3053 
L 1172 3053 
L 1172 1153 
Q 1172 725 1289 603 
Q 1406 481 1766 481 
L 2356 481 
L 2356 0 
L 1766 0 
Q 1100 0 847 248 
Q 594 497 594 1153 
L 594 3053 
L 172 3053 
L 172 3500 
L 594 3500 
L 594 4494 
L 1172 4494 
z
" transform="scale(0.015625)"/>
       <path id="DejaVuSans-73" d="M 2834 3397 
L 2834 2853 
Q 2591 2978 2328 3040 
Q 2066 3103 1784 3103 
Q 1356 3103 1142 2972 
Q 928 2841 928 2578 
Q 928 2378 1081 2264 
Q 1234 2150 1697 2047 
L 1894 2003 
Q 2506 1872 2764 1633 
Q 3022 1394 3022 966 
Q 3022 478 2636 193 
Q 2250 -91 1575 -91 
Q 1294 -91 989 -36 
Q 684 19 347 128 
L 347 722 
Q 666 556 975 473 
Q 1284 391 1588 391 
Q 1994 391 2212 530 
Q 2431 669 2431 922 
Q 2431 1156 2273 1281 
Q 2116 1406 1581 1522 
L 1381 1569 
Q 847 1681 609 1914 
Q 372 2147 372 2553 
Q 372 3047 722 3315 
Q 1072 3584 1716 3584 
Q 2034 3584 2315 3537 
Q 2597 3491 2834 3397 
z
" transform="scale(0.015625)"/>
       <path id="DejaVuSans-3a" d="M 750 794 
L 1409 794 
L 1409 0 
L 750 0 
L 750 794 
z
M 750 3309 
L 1409 3309 
L 1409 2516 
L 750 2516 
L 750 3309 
z
" transform="scale(0.015625)"/>
       <path id="DejaVuSans-42" d="M 1259 2228 
L 1259 519 
L 2272 519 
Q 2781 519 3026 730 
Q 3272 941 3272 1375 
Q 3272 1813 3026 2020 
Q 2781 2228 2272 2228 
L 1259 2228 
z
M 1259 4147 
L 1259 2741 
L 2194 2741 
Q 2656 2741 2882 2914 
Q 3109 3088 3109 3444 
Q 3109 3797 2882 3972 
Q 2656 4147 2194 4147 
L 1259 4147 
z
M 628 4666 
L 2241 4666 
Q 2963 4666 3353 4366 
Q 3744 4066 3744 3513 
Q 3744 3084 3544 2831 
Q 3344 2578 2956 2516 
Q 3422 2416 3680 2098 
Q 3938 1781 3938 1306 
Q 3938 681 3513 340 
Q 3088 0 2303 0 
L 628 0 
L 628 4666 
z
" transform="scale(0.015625)"/>
       <path id="DejaVuSans-2d" d="M 313 2009 
L 1997 2009 
L 1997 1497 
L 313 1497 
L 313 2009 
z
" transform="scale(0.015625)"/>
      </defs>
      <use xlink:href="#DejaVuSans-4e"/>
      <use xlink:href="#DejaVuSans-6f" transform="translate(74.804688 0)"/>
      <use xlink:href="#DejaVuSans-72" transform="translate(135.986328 0)"/>
      <use xlink:href="#DejaVuSans-6d" transform="translate(175.349609 0)"/>
      <use xlink:href="#DejaVuSans-61" transform="translate(272.761719 0)"/>
      <use xlink:href="#DejaVuSans-6c" transform="translate(334.041016 0)"/>
      <use xlink:href="#DejaVuSans-69" transform="translate(361.824219 0)"/>
      <use xlink:href="#DejaVuSans-7a" transform="translate(389.607422 0)"/>
      <use xlink:href="#DejaVuSans-65" transform="translate(442.097656 0)"/>
      <use xlink:href="#DejaVuSans-64" transform="translate(503.621094 0)"/>
      <use xlink:href="#DejaVuSans-20" transform="translate(567.097656 0)"/>
      <use xlink:href="#DejaVuSans-6e" transform="translate(598.884766 0)"/>
      <use xlink:href="#DejaVuSans-75" transform="translate(662.263672 0)"/>
      <use xlink:href="#DejaVuSans-6d" transform="translate(725.642578 0)"/>
      <use xlink:href="#DejaVuSans-62" transform="translate(823.054688 0)"/>
      <use xlink:href="#DejaVuSans-65" transform="translate(886.53125 0)"/>
      <use xlink:href="#DejaVuSans-72" transform="translate(948.054688 0)"/>
      <use xlink:href="#DejaVuSans-6f" transform="translate(986.917969 0)"/>
      <use xlink:href="#DejaVuSans-66" transform="translate(1048.099609 0)"/>
      <use xlink:href="#DejaVuSans-62" transform="translate(1083.304688 0)"/>
      <use xlink:href="#DejaVuSans-6f" transform="translate(1146.78125 0)"/>
      <use xlink:href="#DejaVuSans-75" transform="translate(1207.962891 0)"/>
      <use xlink:href="#DejaVuSans-74" transform="translate(1271.341797 0)"/>
      <use xlink:href="#DejaVuSans-73" transform="translate(1310.550781 0)"/>
      <use xlink:href="#DejaVuSans-3a" transform="translate(1362.650391 0)"/>
      <use xlink:href="#DejaVuSans-20" transform="translate(1396.341797 0)"/>
      <use xlink:href="#DejaVuSans-42" transform="translate(1428.128906 0)"/>
      <use xlink:href="#DejaVuSans-69" transform="translate(1496.732422 0)"/>
      <use xlink:href="#DejaVuSans-6e" transform="translate(1524.515625 0)"/>
      <use xlink:href="#DejaVuSans-6e" transform="translate(1587.894531 0)"/>
      <use xlink:href="#DejaVuSans-65" transform="translate(1651.273438 0)"/>
      <use xlink:href="#DejaVuSans-64" transform="translate(1712.796875 0)"/>
      <use xlink:href="#DejaVuSans-20" transform="translate(1776.273438 0)"/>
      <use xlink:href="#DejaVuSans-2d" transform="translate(1808.060547 0)"/>
      <use xlink:href="#DejaVuSans-20" transform="translate(1844.144531 0)"/>
      <use xlink:href="#DejaVuSans-33" transform="translate(1875.931641 0)"/>
      <use xlink:href="#DejaVuSans-36" transform="translate(1939.554688 0)"/>
      <use xlink:href="#DejaVuSans-30" transform="translate(2003.177734 0)"/>
      <use xlink:href="#DejaVuSans-30" transform="translate(2066.800781 0)"/>
     </g>
    </g>
   </g>
   <g id="line2d_11">
    <path d="M 119.613425 279.387681 
L 145.762451 279.387681 
M 132.687938 279.387681 
L 132.687938 231.139762 
M 119.613425 231.139762 
L 145.762451 231.139762 
" clip-path="url(#p03ef44d51f)" style="fill: none; stroke: #000000; stroke-width: 2; stroke-linecap: square"/>
   </g>
   <g id="line2d_12">
    <path d="M 381.103685 268.663956 
L 407.252711 268.663956 
M 394.178198 268.663956 
L 394.178198 241.863487 
M 381.103685 241.863487 
L 407.252711 241.863487 
" clip-path="url(#p03ef44d51f)" style="fill: none; stroke: #000000; stroke-width: 2; stroke-linecap: square"/>
   </g>
   <g id="line2d_13">
    <path d="M 642.593945 266.863004 
L 668.742971 266.863004 
M 655.668458 266.863004 
L 655.668458 243.664439 
M 642.593945 243.664439 
L 668.742971 243.664439 
" clip-path="url(#p03ef44d51f)" style="fill: none; stroke: #000000; stroke-width: 2; stroke-linecap: square"/>
   </g>
   <g id="line2d_14">
    <path d="M 224.209529 177.083101 
L 250.358555 177.083101 
M 237.284042 177.083101 
L 237.284042 126.787879 
M 224.209529 126.787879 
L 250.358555 126.787879 
" clip-path="url(#p03ef44d51f)" style="fill: none; stroke: #ff0000; stroke-width: 2; stroke-linecap: square"/>
   </g>
   <g id="line2d_15">
    <path d="M 485.699789 271.347801 
L 511.848815 271.347801 
M 498.774302 271.347801 
L 498.774302 254.682911 
M 485.699789 254.682911 
L 511.848815 254.682911 
" clip-path="url(#p03ef44d51f)" style="fill: none; stroke: #ff0000; stroke-width: 2; stroke-linecap: square"/>
   </g>
   <g id="line2d_16">
    <path d="M 747.190049 275.177093 
L 773.339075 275.177093 
M 760.264562 275.177093 
L 760.264562 236.757011 
M 747.190049 236.757011 
L 773.339075 236.757011 
" clip-path="url(#p03ef44d51f)" style="fill: none; stroke: #ff0000; stroke-width: 2; stroke-linecap: square"/>
   </g>
   <g id="line2d_17">
    <path d="M 132.687938 26.242135 
L 132.687938 24.10381 
L 237.284042 24.10381 
L 237.284042 26.242135 
" clip-path="url(#p03ef44d51f)" style="fill: none; stroke: #000000; stroke-width: 1.5; stroke-linecap: square"/>
   </g>
   <g id="patch_9">
    <path d="M 43.78125 362.18 
L 43.78125 41.431164 
" style="fill: none; stroke: #000000; stroke-width: 0.8; stroke-linejoin: miter; stroke-linecap: square"/>
   </g>
   <g id="patch_10">
    <path d="M 184.98599 362.18 
L 707.96651 362.18 
" style="fill: none; stroke: #000000; stroke-width: 0.8; stroke-linejoin: miter; stroke-linecap: square"/>
   </g>
   <g id="PathCollection_1">
    <defs>
     <path id="C0_0_96e4f573db" d="M 0 2.5 
C 0.663008 2.5 1.29895 2.236584 1.767767 1.767767 
C 2.236584 1.29895 2.5 0.663008 2.5 -0 
C 2.5 -0.663008 2.236584 -1.29895 1.767767 -1.767767 
C 1.29895 -2.236584 0.663008 -2.5 0 -2.5 
C -0.663008 -2.5 -1.29895 -2.236584 -1.767767 -1.767767 
C -2.236584 -1.29895 -2.5 -0.663008 -2.5 0 
C -2.5 0.663008 -2.236584 1.29895 -1.767767 1.767767 
C -1.29895 2.236584 -0.663008 2.5 0 2.5 
z
"/>
    </defs>
    <g clip-path="url(#p03ef44d51f)">
     <use xlink:href="#C0_0_96e4f573db" x="125.988828" y="315.177025" style="fill-opacity: 0.3"/>
    </g>
    <g clip-path="url(#p03ef44d51f)">
     <use xlink:href="#C0_0_96e4f573db" x="124.89166" y="104.171685" style="fill-opacity: 0.3"/>
    </g>
    <g clip-path="url(#p03ef44d51f)">
     <use xlink:href="#C0_0_96e4f573db" x="126.206701" y="151.680228" style="fill-opacity: 0.3"/>
    </g>
    <g clip-path="url(#p03ef44d51f)">
     <use xlink:href="#C0_0_96e4f573db" x="138.646218" y="292.699065" style="fill-opacity: 0.3"/>
    </g>
    <g clip-path="url(#p03ef44d51f)">
     <use xlink:href="#C0_0_96e4f573db" x="145.636572" y="303.52913" style="fill-opacity: 0.3"/>
    </g>
    <g clip-path="url(#p03ef44d51f)">
     <use xlink:href="#C0_0_96e4f573db" x="128.98996" y="304.317221" style="fill-opacity: 0.3"/>
    </g>
    <g clip-path="url(#p03ef44d51f)">
     <use xlink:href="#C0_0_96e4f573db" x="144.036439" y="264.065069" style="fill-opacity: 0.3"/>
    </g>
    <g clip-path="url(#p03ef44d51f)">
     <use xlink:href="#C0_0_96e4f573db" x="136.161457" y="334.849577" style="fill-opacity: 0.3"/>
    </g>
    <g clip-path="url(#p03ef44d51f)">
     <use xlink:href="#C0_0_96e4f573db" x="123.479785" y="274.820785" style="fill-opacity: 0.3"/>
    </g>
    <g clip-path="url(#p03ef44d51f)">
     <use xlink:href="#C0_0_96e4f573db" x="129.154866" y="207.327428" style="fill-opacity: 0.3"/>
    </g>
   </g>
   <g id="PathCollection_2">
    <defs>
     <path id="C1_0_551113edba" d="M 0 2.5 
C 0.663008 2.5 1.29895 2.236584 1.767767 1.767767 
C 2.236584 1.29895 2.5 0.663008 2.5 -0 
C 2.5 -0.663008 2.236584 -1.29895 1.767767 -1.767767 
C 1.29895 -2.236584 0.663008 -2.5 0 -2.5 
C -0.663008 -2.5 -1.29895 -2.236584 -1.767767 -1.767767 
C -2.236584 -1.29895 -2.5 -0.663008 -2.5 0 
C -2.5 0.663008 -2.236584 1.29895 -1.767767 1.767767 
C -1.29895 2.236584 -0.663008 2.5 0 2.5 
z
"/>
    </defs>
    <g clip-path="url(#p03ef44d51f)">
     <use xlink:href="#C1_0_551113edba" x="248.524711" y="171.189213" style="fill: #ff0000; fill-opacity: 0.3"/>
    </g>
    <g clip-path="url(#p03ef44d51f)">
     <use xlink:href="#C1_0_551113edba" x="233.709214" y="130.000273" style="fill: #ff0000; fill-opacity: 0.3"/>
    </g>
    <g clip-path="url(#p03ef44d51f)">
     <use xlink:href="#C1_0_551113edba" x="225.489804" y="66.59607" style="fill: #ff0000; fill-opacity: 0.3"/>
    </g>
    <g clip-path="url(#p03ef44d51f)">
     <use xlink:href="#C1_0_551113edba" x="230.077567" y="104.275772" style="fill: #ff0000; fill-opacity: 0.3"/>
    </g>
    <g clip-path="url(#p03ef44d51f)">
     <use xlink:href="#C1_0_551113edba" x="248.976625" y="168.691111" style="fill: #ff0000; fill-opacity: 0.3"/>
    </g>
    <g clip-path="url(#p03ef44d51f)">
     <use xlink:href="#C1_0_551113edba" x="243.995639" y="207.129166" style="fill: #ff0000; fill-opacity: 0.3"/>
    </g>
    <g clip-path="url(#p03ef44d51f)">
     <use xlink:href="#C1_0_551113edba" x="233.885649" y="105.614041" style="fill: #ff0000; fill-opacity: 0.3"/>
    </g>
    <g clip-path="url(#p03ef44d51f)">
     <use xlink:href="#C1_0_551113edba" x="246.839473" y="269.547015" style="fill: #ff0000; fill-opacity: 0.3"/>
    </g>
    <g clip-path="url(#p03ef44d51f)">
     <use xlink:href="#C1_0_551113edba" x="232.388151" y="264.724291" style="fill: #ff0000; fill-opacity: 0.3"/>
    </g>
    <g clip-path="url(#p03ef44d51f)">
     <use xlink:href="#C1_0_551113edba" x="235.238126" y="31.587949" style="fill: #ff0000; fill-opacity: 0.3"/>
    </g>
   </g>
   <g id="PathCollection_3">
    <defs>
     <path id="C2_0_94a6977c29" d="M 0 2.5 
C 0.663008 2.5 1.29895 2.236584 1.767767 1.767767 
C 2.236584 1.29895 2.5 0.663008 2.5 -0 
C 2.5 -0.663008 2.236584 -1.29895 1.767767 -1.767767 
C 1.29895 -2.236584 0.663008 -2.5 0 -2.5 
C -0.663008 -2.5 -1.29895 -2.236584 -1.767767 -1.767767 
C -2.236584 -1.29895 -2.5 -0.663008 -2.5 0 
C -2.5 0.663008 -2.236584 1.29895 -1.767767 1.767767 
C -1.29895 2.236584 -0.663008 2.5 0 2.5 
z
"/>
    </defs>
    <g clip-path="url(#p03ef44d51f)">
     <use xlink:href="#C2_0_94a6977c29" x="395.00838" y="214.984101" style="fill-opacity: 0.3"/>
    </g>
    <g clip-path="url(#p03ef44d51f)">
     <use xlink:href="#C2_0_94a6977c29" x="398.982805" y="223.780129" style="fill-opacity: 0.3"/>
    </g>
    <g clip-path="url(#p03ef44d51f)">
     <use xlink:href="#C2_0_94a6977c29" x="391.373894" y="282.868221" style="fill-opacity: 0.3"/>
    </g>
    <g clip-path="url(#p03ef44d51f)">
     <use xlink:href="#C2_0_94a6977c29" x="396.030812" y="250.359603" style="fill-opacity: 0.3"/>
    </g>
    <g clip-path="url(#p03ef44d51f)">
     <use xlink:href="#C2_0_94a6977c29" x="381.115507" y="206.32763" style="fill-opacity: 0.3"/>
    </g>
    <g clip-path="url(#p03ef44d51f)">
     <use xlink:href="#C2_0_94a6977c29" x="381.956239" y="302.776909" style="fill-opacity: 0.3"/>
    </g>
    <g clip-path="url(#p03ef44d51f)">
     <use xlink:href="#C2_0_94a6977c29" x="381.718291" y="320.959088" style="fill-opacity: 0.3"/>
    </g>
    <g clip-path="url(#p03ef44d51f)">
     <use xlink:href="#C2_0_94a6977c29" x="403.426086" y="262.050424" style="fill-opacity: 0.3"/>
    </g>
    <g clip-path="url(#p03ef44d51f)">
     <use xlink:href="#C2_0_94a6977c29" x="399.330193" y="292.856457" style="fill-opacity: 0.3"/>
    </g>
    <g clip-path="url(#p03ef44d51f)">
     <use xlink:href="#C2_0_94a6977c29" x="381.898747" y="257.867726" style="fill-opacity: 0.3"/>
    </g>
    <g clip-path="url(#p03ef44d51f)">
     <use xlink:href="#C2_0_94a6977c29" x="389.857355" y="296.090174" style="fill-opacity: 0.3"/>
    </g>
    <g clip-path="url(#p03ef44d51f)">
     <use xlink:href="#C2_0_94a6977c29" x="389.048593" y="278.498119" style="fill-opacity: 0.3"/>
    </g>
    <g clip-path="url(#p03ef44d51f)">
     <use xlink:href="#C2_0_94a6977c29" x="387.333877" y="257.979371" style="fill-opacity: 0.3"/>
    </g>
    <g clip-path="url(#p03ef44d51f)">
     <use xlink:href="#C2_0_94a6977c29" x="397.737842" y="126.294146" style="fill-opacity: 0.3"/>
    </g>
   </g>
   <g id="PathCollection_4">
    <defs>
     <path id="C3_0_1c129ff479" d="M 0 2.5 
C 0.663008 2.5 1.29895 2.236584 1.767767 1.767767 
C 2.236584 1.29895 2.5 0.663008 2.5 -0 
C 2.5 -0.663008 2.236584 -1.29895 1.767767 -1.767767 
C 1.29895 -2.236584 0.663008 -2.5 0 -2.5 
C -0.663008 -2.5 -1.29895 -2.236584 -1.767767 -1.767767 
C -2.236584 -1.29895 -2.5 -0.663008 -2.5 0 
C -2.5 0.663008 -2.236584 1.29895 -1.767767 1.767767 
C -1.29895 2.236584 -0.663008 2.5 0 2.5 
z
"/>
    </defs>
    <g clip-path="url(#p03ef44d51f)">
     <use xlink:href="#C3_0_1c129ff479" x="486.131838" y="304.112661" style="fill: #ff0000; fill-opacity: 0.3"/>
    </g>
    <g clip-path="url(#p03ef44d51f)">
     <use xlink:href="#C3_0_1c129ff479" x="503.218506" y="287.784587" style="fill: #ff0000; fill-opacity: 0.3"/>
    </g>
    <g clip-path="url(#p03ef44d51f)">
     <use xlink:href="#C3_0_1c129ff479" x="493.602821" y="275.061049" style="fill: #ff0000; fill-opacity: 0.3"/>
    </g>
    <g clip-path="url(#p03ef44d51f)">
     <use xlink:href="#C3_0_1c129ff479" x="496.636593" y="177.092601" style="fill: #ff0000; fill-opacity: 0.3"/>
    </g>
    <g clip-path="url(#p03ef44d51f)">
     <use xlink:href="#C3_0_1c129ff479" x="505.18201" y="264.813637" style="fill: #ff0000; fill-opacity: 0.3"/>
    </g>
    <g clip-path="url(#p03ef44d51f)">
     <use xlink:href="#C3_0_1c129ff479" x="487.062116" y="263.800858" style="fill: #ff0000; fill-opacity: 0.3"/>
    </g>
    <g clip-path="url(#p03ef44d51f)">
     <use xlink:href="#C3_0_1c129ff479" x="510.105768" y="214.278346" style="fill: #ff0000; fill-opacity: 0.3"/>
    </g>
    <g clip-path="url(#p03ef44d51f)">
     <use xlink:href="#C3_0_1c129ff479" x="489.479787" y="265.830404" style="fill: #ff0000; fill-opacity: 0.3"/>
    </g>
    <g clip-path="url(#p03ef44d51f)">
     <use xlink:href="#C3_0_1c129ff479" x="486.371396" y="195.42231" style="fill: #ff0000; fill-opacity: 0.3"/>
    </g>
    <g clip-path="url(#p03ef44d51f)">
     <use xlink:href="#C3_0_1c129ff479" x="495.242681" y="299.742559" style="fill: #ff0000; fill-opacity: 0.3"/>
    </g>
    <g clip-path="url(#p03ef44d51f)">
     <use xlink:href="#C3_0_1c129ff479" x="500.820033" y="282.67683" style="fill: #ff0000; fill-opacity: 0.3"/>
    </g>
    <g clip-path="url(#p03ef44d51f)">
     <use xlink:href="#C3_0_1c129ff479" x="490.222121" y="318.626506" style="fill: #ff0000; fill-opacity: 0.3"/>
    </g>
    <g clip-path="url(#p03ef44d51f)">
     <use xlink:href="#C3_0_1c129ff479" x="486.859498" y="288.322875" style="fill: #ff0000; fill-opacity: 0.3"/>
    </g>
    <g clip-path="url(#p03ef44d51f)">
     <use xlink:href="#C3_0_1c129ff479" x="495.606061" y="252.795855" style="fill: #ff0000; fill-opacity: 0.3"/>
    </g>
    <g clip-path="url(#p03ef44d51f)">
     <use xlink:href="#C3_0_1c129ff479" x="497.819194" y="278.015653" style="fill: #ff0000; fill-opacity: 0.3"/>
    </g>
    <g clip-path="url(#p03ef44d51f)">
     <use xlink:href="#C3_0_1c129ff479" x="485.980804" y="261.663654" style="fill: #ff0000; fill-opacity: 0.3"/>
    </g>
    <g clip-path="url(#p03ef44d51f)">
     <use xlink:href="#C3_0_1c129ff479" x="497.125934" y="249.466443" style="fill: #ff0000; fill-opacity: 0.3"/>
    </g>
    <g clip-path="url(#p03ef44d51f)">
     <use xlink:href="#C3_0_1c129ff479" x="501.553605" y="280.587474" style="fill: #ff0000; fill-opacity: 0.3"/>
    </g>
    <g clip-path="url(#p03ef44d51f)">
     <use xlink:href="#C3_0_1c129ff479" x="493.053182" y="237.19746" style="fill: #ff0000; fill-opacity: 0.3"/>
    </g>
   </g>
   <g id="PathCollection_5">
    <defs>
     <path id="C4_0_c5a3356c78" d="M 0 2.5 
C 0.663008 2.5 1.29895 2.236584 1.767767 1.767767 
C 2.236584 1.29895 2.5 0.663008 2.5 -0 
C 2.5 -0.663008 2.236584 -1.29895 1.767767 -1.767767 
C 1.29895 -2.236584 0.663008 -2.5 0 -2.5 
C -0.663008 -2.5 -1.29895 -2.236584 -1.767767 -1.767767 
C -2.236584 -1.29895 -2.5 -0.663008 -2.5 0 
C -2.5 0.663008 -2.236584 1.29895 -1.767767 1.767767 
C -1.29895 2.236584 -0.663008 2.5 0 2.5 
z
"/>
    </defs>
    <g clip-path="url(#p03ef44d51f)">
     <use xlink:href="#C4_0_c5a3356c78" x="653.868231" y="295.988994" style="fill-opacity: 0.3"/>
    </g>
    <g clip-path="url(#p03ef44d51f)">
     <use xlink:href="#C4_0_c5a3356c78" x="666.166093" y="235.485869" style="fill-opacity: 0.3"/>
    </g>
    <g clip-path="url(#p03ef44d51f)">
     <use xlink:href="#C4_0_c5a3356c78" x="643.658195" y="223.684202" style="fill-opacity: 0.3"/>
    </g>
    <g clip-path="url(#p03ef44d51f)">
     <use xlink:href="#C4_0_c5a3356c78" x="661.869547" y="226.033544" style="fill-opacity: 0.3"/>
    </g>
    <g clip-path="url(#p03ef44d51f)">
     <use xlink:href="#C4_0_c5a3356c78" x="653.124656" y="239.975724" style="fill-opacity: 0.3"/>
    </g>
    <g clip-path="url(#p03ef44d51f)">
     <use xlink:href="#C4_0_c5a3356c78" x="642.696274" y="292.485588" style="fill-opacity: 0.3"/>
    </g>
    <g clip-path="url(#p03ef44d51f)">
     <use xlink:href="#C4_0_c5a3356c78" x="663.934878" y="258.825419" style="fill-opacity: 0.3"/>
    </g>
    <g clip-path="url(#p03ef44d51f)">
     <use xlink:href="#C4_0_c5a3356c78" x="644.972545" y="250.038054" style="fill-opacity: 0.3"/>
    </g>
    <g clip-path="url(#p03ef44d51f)">
     <use xlink:href="#C4_0_c5a3356c78" x="660.449637" y="238.472694" style="fill-opacity: 0.3"/>
    </g>
    <g clip-path="url(#p03ef44d51f)">
     <use xlink:href="#C4_0_c5a3356c78" x="648.019766" y="176.74956" style="fill-opacity: 0.3"/>
    </g>
    <g clip-path="url(#p03ef44d51f)">
     <use xlink:href="#C4_0_c5a3356c78" x="658.709177" y="333.144326" style="fill-opacity: 0.3"/>
    </g>
    <g clip-path="url(#p03ef44d51f)">
     <use xlink:href="#C4_0_c5a3356c78" x="648.946687" y="304.729647" style="fill-opacity: 0.3"/>
    </g>
    <g clip-path="url(#p03ef44d51f)">
     <use xlink:href="#C4_0_c5a3356c78" x="646.413517" y="204.936174" style="fill-opacity: 0.3"/>
    </g>
    <g clip-path="url(#p03ef44d51f)">
     <use xlink:href="#C4_0_c5a3356c78" x="651.205953" y="293.142305" style="fill-opacity: 0.3"/>
    </g>
   </g>
   <g id="PathCollection_6">
    <defs>
     <path id="C5_0_490bdcd468" d="M 0 2.5 
C 0.663008 2.5 1.29895 2.236584 1.767767 1.767767 
C 2.236584 1.29895 2.5 0.663008 2.5 -0 
C 2.5 -0.663008 2.236584 -1.29895 1.767767 -1.767767 
C 1.29895 -2.236584 0.663008 -2.5 0 -2.5 
C -0.663008 -2.5 -1.29895 -2.236584 -1.767767 -1.767767 
C -2.236584 -1.29895 -2.5 -0.663008 -2.5 0 
C -2.5 0.663008 -2.236584 1.29895 -1.767767 1.767767 
C -1.29895 2.236584 -0.663008 2.5 0 2.5 
z
"/>
    </defs>
    <g clip-path="url(#p03ef44d51f)">
     <use xlink:href="#C5_0_490bdcd468" x="763.861478" y="362.18" style="fill: #ff0000; fill-opacity: 0.3"/>
    </g>
    <g clip-path="url(#p03ef44d51f)">
     <use xlink:href="#C5_0_490bdcd468" x="768.109381" y="239.214592" style="fill: #ff0000; fill-opacity: 0.3"/>
    </g>
    <g clip-path="url(#p03ef44d51f)">
     <use xlink:href="#C5_0_490bdcd468" x="757.373496" y="197.000617" style="fill: #ff0000; fill-opacity: 0.3"/>
    </g>
    <g clip-path="url(#p03ef44d51f)">
     <use xlink:href="#C5_0_490bdcd468" x="768.332368" y="127.96567" style="fill: #ff0000; fill-opacity: 0.3"/>
    </g>
    <g clip-path="url(#p03ef44d51f)">
     <use xlink:href="#C5_0_490bdcd468" x="754.938863" y="266.175701" style="fill: #ff0000; fill-opacity: 0.3"/>
    </g>
    <g clip-path="url(#p03ef44d51f)">
     <use xlink:href="#C5_0_490bdcd468" x="749.165543" y="309.931173" style="fill: #ff0000; fill-opacity: 0.3"/>
    </g>
    <g clip-path="url(#p03ef44d51f)">
     <use xlink:href="#C5_0_490bdcd468" x="768.306101" y="295.972507" style="fill: #ff0000; fill-opacity: 0.3"/>
    </g>
    <g clip-path="url(#p03ef44d51f)">
     <use xlink:href="#C5_0_490bdcd468" x="752.888099" y="299.409966" style="fill: #ff0000; fill-opacity: 0.3"/>
    </g>
    <g clip-path="url(#p03ef44d51f)">
     <use xlink:href="#C5_0_490bdcd468" x="769.348745" y="277.592681" style="fill: #ff0000; fill-opacity: 0.3"/>
    </g>
    <g clip-path="url(#p03ef44d51f)">
     <use xlink:href="#C5_0_490bdcd468" x="771.491717" y="213.959847" style="fill: #ff0000; fill-opacity: 0.3"/>
    </g>
    <g clip-path="url(#p03ef44d51f)">
     <use xlink:href="#C5_0_490bdcd468" x="759.445895" y="177.422764" style="fill: #ff0000; fill-opacity: 0.3"/>
    </g>
    <g clip-path="url(#p03ef44d51f)">
     <use xlink:href="#C5_0_490bdcd468" x="766.798281" y="304.779107" style="fill: #ff0000; fill-opacity: 0.3"/>
    </g>
   </g>
   <g id="text_12">
    <!-- * -->
    <g transform="translate(181.48599 20.657666) scale(0.14 -0.14)">
     <defs>
      <path id="DejaVuSans-2a" d="M 3009 3897 
L 1888 3291 
L 3009 2681 
L 2828 2375 
L 1778 3009 
L 1778 1831 
L 1422 1831 
L 1422 3009 
L 372 2375 
L 191 2681 
L 1313 3291 
L 191 3897 
L 372 4206 
L 1422 3572 
L 1422 4750 
L 1778 4750 
L 1778 3572 
L 2828 4206 
L 3009 3897 
z
" transform="scale(0.015625)"/>
     </defs>
     <use xlink:href="#DejaVuSans-2a"/>
    </g>
   </g>
  </g>
  <g id="text_13">
   <!-- time_combo -->
   <g transform="translate(384.979219 424.08) scale(0.14 -0.14)">
    <defs>
     <path id="DejaVuSans-63" d="M 3122 3366 
L 3122 2828 
Q 2878 2963 2633 3030 
Q 2388 3097 2138 3097 
Q 1578 3097 1268 2742 
Q 959 2388 959 1747 
Q 959 1106 1268 751 
Q 1578 397 2138 397 
Q 2388 397 2633 464 
Q 2878 531 3122 666 
L 3122 134 
Q 2881 22 2623 -34 
Q 2366 -91 2075 -91 
Q 1284 -91 818 406 
Q 353 903 353 1747 
Q 353 2603 823 3093 
Q 1294 3584 2113 3584 
Q 2378 3584 2631 3529 
Q 2884 3475 3122 3366 
z
" transform="scale(0.015625)"/>
    </defs>
    <use xlink:href="#DejaVuSans-74"/>
    <use xlink:href="#DejaVuSans-69" transform="translate(39.208984 0)"/>
    <use xlink:href="#DejaVuSans-6d" transform="translate(66.992188 0)"/>
    <use xlink:href="#DejaVuSans-65" transform="translate(164.404297 0)"/>
    <use xlink:href="#DejaVuSans-5f" transform="translate(225.927734 0)"/>
    <use xlink:href="#DejaVuSans-63" transform="translate(275.927734 0)"/>
    <use xlink:href="#DejaVuSans-6f" transform="translate(330.908203 0)"/>
    <use xlink:href="#DejaVuSans-6d" transform="translate(392.089844 0)"/>
    <use xlink:href="#DejaVuSans-62" transform="translate(489.501953 0)"/>
    <use xlink:href="#DejaVuSans-6f" transform="translate(552.978516 0)"/>
   </g>
  </g>
 </g>
 <defs>
  <clipPath id="p03ef44d51f">
   <rect x="43.78125" y="7.2" width="805.39" height="354.98"/>
  </clipPath>
 </defs>
</svg>
