<?xml version="1.0" encoding="utf-8" standalone="no"?>
<!DOCTYPE svg PUBLIC "-//W3C//DTD SVG 1.1//EN"
  "http://www.w3.org/Graphics/SVG/1.1/DTD/svg11.dtd">
<svg xmlns:xlink="http://www.w3.org/1999/xlink" width="856.548125pt" height="434.580937pt" viewBox="0 0 856.548125 434.580937" xmlns="http://www.w3.org/2000/svg" version="1.1">
 <metadata>
  <rdf:RDF xmlns:dc="http://purl.org/dc/elements/1.1/" xmlns:cc="http://creativecommons.org/ns#" xmlns:rdf="http://www.w3.org/1999/02/22-rdf-syntax-ns#">
   <cc:Work>
    <dc:type rdf:resource="http://purl.org/dc/dcmitype/StillImage"/>
    <dc:date>2025-11-29T21:06:41.071707</dc:date>
    <dc:format>image/svg+xml</dc:format>
    <dc:creator>
     <cc:Agent>
      <dc:title>Matplotlib v3.10.0, https://matplotlib.org/</dc:title>
     </cc:Agent>
    </dc:creator>
   </cc:Work>
  </rdf:RDF>
 </metadata>
 <defs>
  <style type="text/css">*{stroke-linejoin: round; stroke-linecap: butt}</style>
 </defs>
 <g id="figure_1">
  <g id="patch_1">
   <path d="M 0 434.580937 
L 856.548125 434.580937 
L 856.548125 -0 
L 0 -0 
L 0 434.580937 
z
" style="fill: none"/>
  </g>
  <g id="axes_1">
   <g id="patch_2">
    <path d="M 44.059375 362.18 
L 849.348125 362.18 
L 849.348125 7.2 
L 44.059375 7.2 
L 44.059375 362.18 
z
" style="fill: none"/>
   </g>
   <g id="patch_3">
    <path d="M 80.663409 362.18 
L 185.246364 362.18 
L 185.246364 224.52842 
L 80.663409 224.52842 
L 80.663409 362.18 
z
" clip-path="url(#p7c159da31c)" style="fill: none; opacity: 0"/>
   </g>
   <g id="patch_4">
    <path d="M 342.120795 362.18 
L 446.70375 362.18 
L 446.70375 224.52842 
L 342.120795 224.52842 
L 342.120795 362.18 
z
" clip-path="url(#p7c159da31c)" style="fill: none; opacity: 0"/>
   </g>
   <g id="patch_5">
    <path d="M 603.578182 362.18 
L 708.161136 362.18 
L 708.161136 224.52842 
L 603.578182 224.52842 
L 603.578182 362.18 
z
" clip-path="url(#p7c159da31c)" style="fill: none; opacity: 0"/>
   </g>
   <g id="patch_6">
    <path d="M 185.246364 362.18 
L 289.829318 362.18 
L 289.829318 135.075092 
L 185.246364 135.075092 
L 185.246364 362.18 
z
" clip-path="url(#p7c159da31c)" style="fill: none; opacity: 0"/>
   </g>
   <g id="patch_7">
    <path d="M 446.70375 362.18 
L 551.286705 362.18 
L 551.286705 229.479294 
L 446.70375 229.479294 
L 446.70375 362.18 
z
" clip-path="url(#p7c159da31c)" style="fill: none; opacity: 0"/>
   </g>
   <g id="patch_8">
    <path d="M 708.161136 362.18 
L 812.744091 362.18 
L 812.744091 225.680072 
L 708.161136 225.680072 
L 708.161136 362.18 
z
" clip-path="url(#p7c159da31c)" style="fill: none; opacity: 0"/>
   </g>
   <g id="matplotlib.axis_1">
    <g id="xtick_1">
     <g id="line2d_1">
      <defs>
       <path id="m48fc31b96a" d="M 0 0 
L 0 3.5 
" style="stroke: #000000; stroke-width: 0.8"/>
      </defs>
      <g>
       <use xlink:href="#m48fc31b96a" x="185.246364" y="362.18" style="stroke: #000000; stroke-width: 0.8"/>
      </g>
     </g>
     <g id="text_1">
      <!-- 11_18_25 -->
      <g transform="translate(187.778395 417.355) rotate(-90) scale(0.1 -0.1)">
       <defs>
        <path id="DejaVuSans-31" d="M 794 531 
L 1825 531 
L 1825 4091 
L 703 3866 
L 703 4441 
L 1819 4666 
L 2450 4666 
L 2450 531 
L 3481 531 
L 3481 0 
L 794 0 
L 794 531 
z
" transform="scale(0.015625)"/>
        <path id="DejaVuSans-5f" d="M 3263 -1063 
L 3263 -1509 
L -63 -1509 
L -63 -1063 
L 3263 -1063 
z
" transform="scale(0.015625)"/>
        <path id="DejaVuSans-38" d="M 2034 2216 
Q 1584 2216 1326 1975 
Q 1069 1734 1069 1313 
Q 1069 891 1326 650 
Q 1584 409 2034 409 
Q 2484 409 2743 651 
Q 3003 894 3003 1313 
Q 3003 1734 2745 1975 
Q 2488 2216 2034 2216 
z
M 1403 2484 
Q 997 2584 770 2862 
Q 544 3141 544 3541 
Q 544 4100 942 4425 
Q 1341 4750 2034 4750 
Q 2731 4750 3128 4425 
Q 3525 4100 3525 3541 
Q 3525 3141 3298 2862 
Q 3072 2584 2669 2484 
Q 3125 2378 3379 2068 
Q 3634 1759 3634 1313 
Q 3634 634 3220 271 
Q 2806 -91 2034 -91 
Q 1263 -91 848 271 
Q 434 634 434 1313 
Q 434 1759 690 2068 
Q 947 2378 1403 2484 
z
M 1172 3481 
Q 1172 3119 1398 2916 
Q 1625 2713 2034 2713 
Q 2441 2713 2670 2916 
Q 2900 3119 2900 3481 
Q 2900 3844 2670 4047 
Q 2441 4250 2034 4250 
Q 1625 4250 1398 4047 
Q 1172 3844 1172 3481 
z
" transform="scale(0.015625)"/>
        <path id="DejaVuSans-32" d="M 1228 531 
L 3431 531 
L 3431 0 
L 469 0 
L 469 531 
Q 828 903 1448 1529 
Q 2069 2156 2228 2338 
Q 2531 2678 2651 2914 
Q 2772 3150 2772 3378 
Q 2772 3750 2511 3984 
Q 2250 4219 1831 4219 
Q 1534 4219 1204 4116 
Q 875 4013 500 3803 
L 500 4441 
Q 881 4594 1212 4672 
Q 1544 4750 1819 4750 
Q 2544 4750 2975 4387 
Q 3406 4025 3406 3419 
Q 3406 3131 3298 2873 
Q 3191 2616 2906 2266 
Q 2828 2175 2409 1742 
Q 1991 1309 1228 531 
z
" transform="scale(0.015625)"/>
        <path id="DejaVuSans-35" d="M 691 4666 
L 3169 4666 
L 3169 4134 
L 1269 4134 
L 1269 2991 
Q 1406 3038 1543 3061 
Q 1681 3084 1819 3084 
Q 2600 3084 3056 2656 
Q 3513 2228 3513 1497 
Q 3513 744 3044 326 
Q 2575 -91 1722 -91 
Q 1428 -91 1123 -41 
Q 819 9 494 109 
L 494 744 
Q 775 591 1075 516 
Q 1375 441 1709 441 
Q 2250 441 2565 725 
Q 2881 1009 2881 1497 
Q 2881 1984 2565 2268 
Q 2250 2553 1709 2553 
Q 1456 2553 1204 2497 
Q 953 2441 691 2322 
L 691 4666 
z
" transform="scale(0.015625)"/>
       </defs>
       <use xlink:href="#DejaVuSans-31"/>
       <use xlink:href="#DejaVuSans-31" transform="translate(63.623047 0)"/>
       <use xlink:href="#DejaVuSans-5f" transform="translate(127.246094 0)"/>
       <use xlink:href="#DejaVuSans-31" transform="translate(177.246094 0)"/>
       <use xlink:href="#DejaVuSans-38" transform="translate(240.869141 0)"/>
       <use xlink:href="#DejaVuSans-5f" transform="translate(304.492188 0)"/>
       <use xlink:href="#DejaVuSans-32" transform="translate(354.492188 0)"/>
       <use xlink:href="#DejaVuSans-35" transform="translate(418.115234 0)"/>
      </g>
     </g>
    </g>
    <g id="xtick_2">
     <g id="line2d_2">
      <g>
       <use xlink:href="#m48fc31b96a" x="446.70375" y="362.18" style="stroke: #000000; stroke-width: 0.8"/>
      </g>
     </g>
     <g id="text_2">
      <!-- 4_24_23 -->
      <g transform="translate(449.235781 410.9925) rotate(-90) scale(0.1 -0.1)">
       <defs>
        <path id="DejaVuSans-34" d="M 2419 4116 
L 825 1625 
L 2419 1625 
L 2419 4116 
z
M 2253 4666 
L 3047 4666 
L 3047 1625 
L 3713 1625 
L 3713 1100 
L 3047 1100 
L 3047 0 
L 2419 0 
L 2419 1100 
L 313 1100 
L 313 1709 
L 2253 4666 
z
" transform="scale(0.015625)"/>
        <path id="DejaVuSans-33" d="M 2597 2516 
Q 3050 2419 3304 2112 
Q 3559 1806 3559 1356 
Q 3559 666 3084 287 
Q 2609 -91 1734 -91 
Q 1441 -91 1130 -33 
Q 819 25 488 141 
L 488 750 
Q 750 597 1062 519 
Q 1375 441 1716 441 
Q 2309 441 2620 675 
Q 2931 909 2931 1356 
Q 2931 1769 2642 2001 
Q 2353 2234 1838 2234 
L 1294 2234 
L 1294 2753 
L 1863 2753 
Q 2328 2753 2575 2939 
Q 2822 3125 2822 3475 
Q 2822 3834 2567 4026 
Q 2313 4219 1838 4219 
Q 1578 4219 1281 4162 
Q 984 4106 628 3988 
L 628 4550 
Q 988 4650 1302 4700 
Q 1616 4750 1894 4750 
Q 2613 4750 3031 4423 
Q 3450 4097 3450 3541 
Q 3450 3153 3228 2886 
Q 3006 2619 2597 2516 
z
" transform="scale(0.015625)"/>
       </defs>
       <use xlink:href="#DejaVuSans-34"/>
       <use xlink:href="#DejaVuSans-5f" transform="translate(63.623047 0)"/>
       <use xlink:href="#DejaVuSans-32" transform="translate(113.623047 0)"/>
       <use xlink:href="#DejaVuSans-34" transform="translate(177.246094 0)"/>
       <use xlink:href="#DejaVuSans-5f" transform="translate(240.869141 0)"/>
       <use xlink:href="#DejaVuSans-32" transform="translate(290.869141 0)"/>
       <use xlink:href="#DejaVuSans-33" transform="translate(354.492188 0)"/>
      </g>
     </g>
    </g>
    <g id="xtick_3">
     <g id="line2d_3">
      <g>
       <use xlink:href="#m48fc31b96a" x="708.161136" y="362.18" style="stroke: #000000; stroke-width: 0.8"/>
      </g>
     </g>
     <g id="text_3">
      <!-- 6_6_25 -->
      <g transform="translate(710.693168 404.63) rotate(-90) scale(0.1 -0.1)">
       <defs>
        <path id="DejaVuSans-36" d="M 2113 2584 
Q 1688 2584 1439 2293 
Q 1191 2003 1191 1497 
Q 1191 994 1439 701 
Q 1688 409 2113 409 
Q 2538 409 2786 701 
Q 3034 994 3034 1497 
Q 3034 2003 2786 2293 
Q 2538 2584 2113 2584 
z
M 3366 4563 
L 3366 3988 
Q 3128 4100 2886 4159 
Q 2644 4219 2406 4219 
Q 1781 4219 1451 3797 
Q 1122 3375 1075 2522 
Q 1259 2794 1537 2939 
Q 1816 3084 2150 3084 
Q 2853 3084 3261 2657 
Q 3669 2231 3669 1497 
Q 3669 778 3244 343 
Q 2819 -91 2113 -91 
Q 1303 -91 875 529 
Q 447 1150 447 2328 
Q 447 3434 972 4092 
Q 1497 4750 2381 4750 
Q 2619 4750 2861 4703 
Q 3103 4656 3366 4563 
z
" transform="scale(0.015625)"/>
       </defs>
       <use xlink:href="#DejaVuSans-36"/>
       <use xlink:href="#DejaVuSans-5f" transform="translate(63.623047 0)"/>
       <use xlink:href="#DejaVuSans-36" transform="translate(113.623047 0)"/>
       <use xlink:href="#DejaVuSans-5f" transform="translate(177.246094 0)"/>
       <use xlink:href="#DejaVuSans-32" transform="translate(227.246094 0)"/>
       <use xlink:href="#DejaVuSans-35" transform="translate(290.869141 0)"/>
      </g>
     </g>
    </g>
   </g>
   <g id="matplotlib.axis_2">
    <g id="ytick_1">
     <g id="line2d_4">
      <defs>
       <path id="m79ac260189" d="M 0 0 
L -3.5 0 
" style="stroke: #000000; stroke-width: 0.8"/>
      </defs>
      <g>
       <use xlink:href="#m79ac260189" x="44.059375" y="362.18" style="stroke: #000000; stroke-width: 0.8"/>
      </g>
     </g>
     <g id="text_4">
      <!-- 0.0 -->
      <g transform="translate(21.15625 365.979219) scale(0.1 -0.1)">
       <defs>
        <path id="DejaVuSans-30" d="M 2034 4250 
Q 1547 4250 1301 3770 
Q 1056 3291 1056 2328 
Q 1056 1369 1301 889 
Q 1547 409 2034 409 
Q 2525 409 2770 889 
Q 3016 1369 3016 2328 
Q 3016 3291 2770 3770 
Q 2525 4250 2034 4250 
z
M 2034 4750 
Q 2819 4750 3233 4129 
Q 3647 3509 3647 2328 
Q 3647 1150 3233 529 
Q 2819 -91 2034 -91 
Q 1250 -91 836 529 
Q 422 1150 422 2328 
Q 422 3509 836 4129 
Q 1250 4750 2034 4750 
z
" transform="scale(0.015625)"/>
        <path id="DejaVuSans-2e" d="M 684 794 
L 1344 794 
L 1344 0 
L 684 0 
L 684 794 
z
" transform="scale(0.015625)"/>
       </defs>
       <use xlink:href="#DejaVuSans-30"/>
       <use xlink:href="#DejaVuSans-2e" transform="translate(63.623047 0)"/>
       <use xlink:href="#DejaVuSans-30" transform="translate(95.410156 0)"/>
      </g>
     </g>
    </g>
    <g id="ytick_2">
     <g id="line2d_5">
      <g>
       <use xlink:href="#m79ac260189" x="44.059375" y="293.35421" style="stroke: #000000; stroke-width: 0.8"/>
      </g>
     </g>
     <g id="text_5">
      <!-- 0.5 -->
      <g transform="translate(21.15625 297.153429) scale(0.1 -0.1)">
       <use xlink:href="#DejaVuSans-30"/>
       <use xlink:href="#DejaVuSans-2e" transform="translate(63.623047 0)"/>
       <use xlink:href="#DejaVuSans-35" transform="translate(95.410156 0)"/>
      </g>
     </g>
    </g>
    <g id="ytick_3">
     <g id="line2d_6">
      <g>
       <use xlink:href="#m79ac260189" x="44.059375" y="224.52842" style="stroke: #000000; stroke-width: 0.8"/>
      </g>
     </g>
     <g id="text_6">
      <!-- 1.0 -->
      <g transform="translate(21.15625 228.327639) scale(0.1 -0.1)">
       <use xlink:href="#DejaVuSans-31"/>
       <use xlink:href="#DejaVuSans-2e" transform="translate(63.623047 0)"/>
       <use xlink:href="#DejaVuSans-30" transform="translate(95.410156 0)"/>
      </g>
     </g>
    </g>
    <g id="ytick_4">
     <g id="line2d_7">
      <g>
       <use xlink:href="#m79ac260189" x="44.059375" y="155.702631" style="stroke: #000000; stroke-width: 0.8"/>
      </g>
     </g>
     <g id="text_7">
      <!-- 1.5 -->
      <g transform="translate(21.15625 159.501849) scale(0.1 -0.1)">
       <use xlink:href="#DejaVuSans-31"/>
       <use xlink:href="#DejaVuSans-2e" transform="translate(63.623047 0)"/>
       <use xlink:href="#DejaVuSans-35" transform="translate(95.410156 0)"/>
      </g>
     </g>
    </g>
    <g id="ytick_5">
     <g id="line2d_8">
      <g>
       <use xlink:href="#m79ac260189" x="44.059375" y="86.876841" style="stroke: #000000; stroke-width: 0.8"/>
      </g>
     </g>
     <g id="text_8">
      <!-- 2.0 -->
      <g transform="translate(21.15625 90.67606) scale(0.1 -0.1)">
       <use xlink:href="#DejaVuSans-32"/>
       <use xlink:href="#DejaVuSans-2e" transform="translate(63.623047 0)"/>
       <use xlink:href="#DejaVuSans-30" transform="translate(95.410156 0)"/>
      </g>
     </g>
    </g>
    <g id="ytick_6">
     <g id="line2d_9">
      <g>
       <use xlink:href="#m79ac260189" x="44.059375" y="18.051051" style="stroke: #000000; stroke-width: 0.8"/>
      </g>
     </g>
     <g id="text_9">
      <!-- 2.5 -->
      <g transform="translate(21.15625 21.85027) scale(0.1 -0.1)">
       <use xlink:href="#DejaVuSans-32"/>
       <use xlink:href="#DejaVuSans-2e" transform="translate(63.623047 0)"/>
       <use xlink:href="#DejaVuSans-35" transform="translate(95.410156 0)"/>
      </g>
     </g>
    </g>
    <g id="text_10">
     <!-- Normalized dpix_numberofbouts: Binned - 3600 -->
     <g transform="translate(14.798438 304.407969) rotate(-90) scale(0.1 -0.1)">
      <defs>
       <path id="DejaVuSans-4e" d="M 628 4666 
L 1478 4666 
L 3547 763 
L 3547 4666 
L 4159 4666 
L 4159 0 
L 3309 0 
L 1241 3903 
L 1241 0 
L 628 0 
L 628 4666 
z
" transform="scale(0.015625)"/>
       <path id="DejaVuSans-6f" d="M 1959 3097 
Q 1497 3097 1228 2736 
Q 959 2375 959 1747 
Q 959 1119 1226 758 
Q 1494 397 1959 397 
Q 2419 397 2687 759 
Q 2956 1122 2956 1747 
Q 2956 2369 2687 2733 
Q 2419 3097 1959 3097 
z
M 1959 3584 
Q 2709 3584 3137 3096 
Q 3566 2609 3566 1747 
Q 3566 888 3137 398 
Q 2709 -91 1959 -91 
Q 1206 -91 779 398 
Q 353 888 353 1747 
Q 353 2609 779 3096 
Q 1206 3584 1959 3584 
z
" transform="scale(0.015625)"/>
       <path id="DejaVuSans-72" d="M 2631 2963 
Q 2534 3019 2420 3045 
Q 2306 3072 2169 3072 
Q 1681 3072 1420 2755 
Q 1159 2438 1159 1844 
L 1159 0 
L 581 0 
L 581 3500 
L 1159 3500 
L 1159 2956 
Q 1341 3275 1631 3429 
Q 1922 3584 2338 3584 
Q 2397 3584 2469 3576 
Q 2541 3569 2628 3553 
L 2631 2963 
z
" transform="scale(0.015625)"/>
       <path id="DejaVuSans-6d" d="M 3328 2828 
Q 3544 3216 3844 3400 
Q 4144 3584 4550 3584 
Q 5097 3584 5394 3201 
Q 5691 2819 5691 2113 
L 5691 0 
L 5113 0 
L 5113 2094 
Q 5113 2597 4934 2840 
Q 4756 3084 4391 3084 
Q 3944 3084 3684 2787 
Q 3425 2491 3425 1978 
L 3425 0 
L 2847 0 
L 2847 2094 
Q 2847 2600 2669 2842 
Q 2491 3084 2119 3084 
Q 1678 3084 1418 2786 
Q 1159 2488 1159 1978 
L 1159 0 
L 581 0 
L 581 3500 
L 1159 3500 
L 1159 2956 
Q 1356 3278 1631 3431 
Q 1906 3584 2284 3584 
Q 2666 3584 2933 3390 
Q 3200 3197 3328 2828 
z
" transform="scale(0.015625)"/>
       <path id="DejaVuSans-61" d="M 2194 1759 
Q 1497 1759 1228 1600 
Q 959 1441 959 1056 
Q 959 750 1161 570 
Q 1363 391 1709 391 
Q 2188 391 2477 730 
Q 2766 1069 2766 1631 
L 2766 1759 
L 2194 1759 
z
M 3341 1997 
L 3341 0 
L 2766 0 
L 2766 531 
Q 2569 213 2275 61 
Q 1981 -91 1556 -91 
Q 1019 -91 701 211 
Q 384 513 384 1019 
Q 384 1609 779 1909 
Q 1175 2209 1959 2209 
L 2766 2209 
L 2766 2266 
Q 2766 2663 2505 2880 
Q 2244 3097 1772 3097 
Q 1472 3097 1187 3025 
Q 903 2953 641 2809 
L 641 3341 
Q 956 3463 1253 3523 
Q 1550 3584 1831 3584 
Q 2591 3584 2966 3190 
Q 3341 2797 3341 1997 
z
" transform="scale(0.015625)"/>
       <path id="DejaVuSans-6c" d="M 603 4863 
L 1178 4863 
L 1178 0 
L 603 0 
L 603 4863 
z
" transform="scale(0.015625)"/>
       <path id="DejaVuSans-69" d="M 603 3500 
L 1178 3500 
L 1178 0 
L 603 0 
L 603 3500 
z
M 603 4863 
L 1178 4863 
L 1178 4134 
L 603 4134 
L 603 4863 
z
" transform="scale(0.015625)"/>
       <path id="DejaVuSans-7a" d="M 353 3500 
L 3084 3500 
L 3084 2975 
L 922 459 
L 3084 459 
L 3084 0 
L 275 0 
L 275 525 
L 2438 3041 
L 353 3041 
L 353 3500 
z
" transform="scale(0.015625)"/>
       <path id="DejaVuSans-65" d="M 3597 1894 
L 3597 1613 
L 953 1613 
Q 991 1019 1311 708 
Q 1631 397 2203 397 
Q 2534 397 2845 478 
Q 3156 559 3463 722 
L 3463 178 
Q 3153 47 2828 -22 
Q 2503 -91 2169 -91 
Q 1331 -91 842 396 
Q 353 884 353 1716 
Q 353 2575 817 3079 
Q 1281 3584 2069 3584 
Q 2775 3584 3186 3129 
Q 3597 2675 3597 1894 
z
M 3022 2063 
Q 3016 2534 2758 2815 
Q 2500 3097 2075 3097 
Q 1594 3097 1305 2825 
Q 1016 2553 972 2059 
L 3022 2063 
z
" transform="scale(0.015625)"/>
       <path id="DejaVuSans-64" d="M 2906 2969 
L 2906 4863 
L 3481 4863 
L 3481 0 
L 2906 0 
L 2906 525 
Q 2725 213 2448 61 
Q 2172 -91 1784 -91 
Q 1150 -91 751 415 
Q 353 922 353 1747 
Q 353 2572 751 3078 
Q 1150 3584 1784 3584 
Q 2172 3584 2448 3432 
Q 2725 3281 2906 2969 
z
M 947 1747 
Q 947 1113 1208 752 
Q 1469 391 1925 391 
Q 2381 391 2643 752 
Q 2906 1113 2906 1747 
Q 2906 2381 2643 2742 
Q 2381 3103 1925 3103 
Q 1469 3103 1208 2742 
Q 947 2381 947 1747 
z
" transform="scale(0.015625)"/>
       <path id="DejaVuSans-20" transform="scale(0.015625)"/>
       <path id="DejaVuSans-70" d="M 1159 525 
L 1159 -1331 
L 581 -1331 
L 581 3500 
L 1159 3500 
L 1159 2969 
Q 1341 3281 1617 3432 
Q 1894 3584 2278 3584 
Q 2916 3584 3314 3078 
Q 3713 2572 3713 1747 
Q 3713 922 3314 415 
Q 2916 -91 2278 -91 
Q 1894 -91 1617 61 
Q 1341 213 1159 525 
z
M 3116 1747 
Q 3116 2381 2855 2742 
Q 2594 3103 2138 3103 
Q 1681 3103 1420 2742 
Q 1159 2381 1159 1747 
Q 1159 1113 1420 752 
Q 1681 391 2138 391 
Q 2594 391 2855 752 
Q 3116 1113 3116 1747 
z
" transform="scale(0.015625)"/>
       <path id="DejaVuSans-78" d="M 3513 3500 
L 2247 1797 
L 3578 0 
L 2900 0 
L 1881 1375 
L 863 0 
L 184 0 
L 1544 1831 
L 300 3500 
L 978 3500 
L 1906 2253 
L 2834 3500 
L 3513 3500 
z
" transform="scale(0.015625)"/>
       <path id="DejaVuSans-6e" d="M 3513 2113 
L 3513 0 
L 2938 0 
L 2938 2094 
Q 2938 2591 2744 2837 
Q 2550 3084 2163 3084 
Q 1697 3084 1428 2787 
Q 1159 2491 1159 1978 
L 1159 0 
L 581 0 
L 581 3500 
L 1159 3500 
L 1159 2956 
Q 1366 3272 1645 3428 
Q 1925 3584 2291 3584 
Q 2894 3584 3203 3211 
Q 3513 2838 3513 2113 
z
" transform="scale(0.015625)"/>
       <path id="DejaVuSans-75" d="M 544 1381 
L 544 3500 
L 1119 3500 
L 1119 1403 
Q 1119 906 1312 657 
Q 1506 409 1894 409 
Q 2359 409 2629 706 
Q 2900 1003 2900 1516 
L 2900 3500 
L 3475 3500 
L 3475 0 
L 2900 0 
L 2900 538 
Q 2691 219 2414 64 
Q 2138 -91 1772 -91 
Q 1169 -91 856 284 
Q 544 659 544 1381 
z
M 1991 3584 
L 1991 3584 
z
" transform="scale(0.015625)"/>
       <path id="DejaVuSans-62" d="M 3116 1747 
Q 3116 2381 2855 2742 
Q 2594 3103 2138 3103 
Q 1681 3103 1420 2742 
Q 1159 2381 1159 1747 
Q 1159 1113 1420 752 
Q 1681 391 2138 391 
Q 2594 391 2855 752 
Q 3116 1113 3116 1747 
z
M 1159 2969 
Q 1341 3281 1617 3432 
Q 1894 3584 2278 3584 
Q 2916 3584 3314 3078 
Q 3713 2572 3713 1747 
Q 3713 922 3314 415 
Q 2916 -91 2278 -91 
Q 1894 -91 1617 61 
Q 1341 213 1159 525 
L 1159 0 
L 581 0 
L 581 4863 
L 1159 4863 
L 1159 2969 
z
" transform="scale(0.015625)"/>
       <path id="DejaVuSans-66" d="M 2375 4863 
L 2375 4384 
L 1825 4384 
Q 1516 4384 1395 4259 
Q 1275 4134 1275 3809 
L 1275 3500 
L 2222 3500 
L 2222 3053 
L 1275 3053 
L 1275 0 
L 697 0 
L 697 3053 
L 147 3053 
L 147 3500 
L 697 3500 
L 697 3744 
Q 697 4328 969 4595 
Q 1241 4863 1831 4863 
L 2375 4863 
z
" transform="scale(0.015625)"/>
       <path id="DejaVuSans-74" d="M 1172 4494 
L 1172 3500 
L 2356 3500 
L 2356 3053 
L 1172 3053 
L 1172 1153 
Q 1172 725 1289 603 
Q 1406 481 1766 481 
L 2356 481 
L 2356 0 
L 1766 0 
Q 1100 0 847 248 
Q 594 497 594 1153 
L 594 3053 
L 172 3053 
L 172 3500 
L 594 3500 
L 594 4494 
L 1172 4494 
z
" transform="scale(0.015625)"/>
       <path id="DejaVuSans-73" d="M 2834 3397 
L 2834 2853 
Q 2591 2978 2328 3040 
Q 2066 3103 1784 3103 
Q 1356 3103 1142 2972 
Q 928 2841 928 2578 
Q 928 2378 1081 2264 
Q 1234 2150 1697 2047 
L 1894 2003 
Q 2506 1872 2764 1633 
Q 3022 1394 3022 966 
Q 3022 478 2636 193 
Q 2250 -91 1575 -91 
Q 1294 -91 989 -36 
Q 684 19 347 128 
L 347 722 
Q 666 556 975 473 
Q 1284 391 1588 391 
Q 1994 391 2212 530 
Q 2431 669 2431 922 
Q 2431 1156 2273 1281 
Q 2116 1406 1581 1522 
L 1381 1569 
Q 847 1681 609 1914 
Q 372 2147 372 2553 
Q 372 3047 722 3315 
Q 1072 3584 1716 3584 
Q 2034 3584 2315 3537 
Q 2597 3491 2834 3397 
z
" transform="scale(0.015625)"/>
       <path id="DejaVuSans-3a" d="M 750 794 
L 1409 794 
L 1409 0 
L 750 0 
L 750 794 
z
M 750 3309 
L 1409 3309 
L 1409 2516 
L 750 2516 
L 750 3309 
z
" transform="scale(0.015625)"/>
       <path id="DejaVuSans-42" d="M 1259 2228 
L 1259 519 
L 2272 519 
Q 2781 519 3026 730 
Q 3272 941 3272 1375 
Q 3272 1813 3026 2020 
Q 2781 2228 2272 2228 
L 1259 2228 
z
M 1259 4147 
L 1259 2741 
L 2194 2741 
Q 2656 2741 2882 2914 
Q 3109 3088 3109 3444 
Q 3109 3797 2882 3972 
Q 2656 4147 2194 4147 
L 1259 4147 
z
M 628 4666 
L 2241 4666 
Q 2963 4666 3353 4366 
Q 3744 4066 3744 3513 
Q 3744 3084 3544 2831 
Q 3344 2578 2956 2516 
Q 3422 2416 3680 2098 
Q 3938 1781 3938 1306 
Q 3938 681 3513 340 
Q 3088 0 2303 0 
L 628 0 
L 628 4666 
z
" transform="scale(0.015625)"/>
       <path id="DejaVuSans-2d" d="M 313 2009 
L 1997 2009 
L 1997 1497 
L 313 1497 
L 313 2009 
z
" transform="scale(0.015625)"/>
      </defs>
      <use xlink:href="#DejaVuSans-4e"/>
      <use xlink:href="#DejaVuSans-6f" transform="translate(74.804688 0)"/>
      <use xlink:href="#DejaVuSans-72" transform="translate(135.986328 0)"/>
      <use xlink:href="#DejaVuSans-6d" transform="translate(175.349609 0)"/>
      <use xlink:href="#DejaVuSans-61" transform="translate(272.761719 0)"/>
      <use xlink:href="#DejaVuSans-6c" transform="translate(334.041016 0)"/>
      <use xlink:href="#DejaVuSans-69" transform="translate(361.824219 0)"/>
      <use xlink:href="#DejaVuSans-7a" transform="translate(389.607422 0)"/>
      <use xlink:href="#DejaVuSans-65" transform="translate(442.097656 0)"/>
      <use xlink:href="#DejaVuSans-64" transform="translate(503.621094 0)"/>
      <use xlink:href="#DejaVuSans-20" transform="translate(567.097656 0)"/>
      <use xlink:href="#DejaVuSans-64" transform="translate(598.884766 0)"/>
      <use xlink:href="#DejaVuSans-70" transform="translate(662.361328 0)"/>
      <use xlink:href="#DejaVuSans-69" transform="translate(725.837891 0)"/>
      <use xlink:href="#DejaVuSans-78" transform="translate(753.621094 0)"/>
      <use xlink:href="#DejaVuSans-5f" transform="translate(812.800781 0)"/>
      <use xlink:href="#DejaVuSans-6e" transform="translate(862.800781 0)"/>
      <use xlink:href="#DejaVuSans-75" transform="translate(926.179688 0)"/>
      <use xlink:href="#DejaVuSans-6d" transform="translate(989.558594 0)"/>
      <use xlink:href="#DejaVuSans-62" transform="translate(1086.970703 0)"/>
      <use xlink:href="#DejaVuSans-65" transform="translate(1150.447266 0)"/>
      <use xlink:href="#DejaVuSans-72" transform="translate(1211.970703 0)"/>
      <use xlink:href="#DejaVuSans-6f" transform="translate(1250.833984 0)"/>
      <use xlink:href="#DejaVuSans-66" transform="translate(1312.015625 0)"/>
      <use xlink:href="#DejaVuSans-62" transform="translate(1347.220703 0)"/>
      <use xlink:href="#DejaVuSans-6f" transform="translate(1410.697266 0)"/>
      <use xlink:href="#DejaVuSans-75" transform="translate(1471.878906 0)"/>
      <use xlink:href="#DejaVuSans-74" transform="translate(1535.257812 0)"/>
      <use xlink:href="#DejaVuSans-73" transform="translate(1574.466797 0)"/>
      <use xlink:href="#DejaVuSans-3a" transform="translate(1626.566406 0)"/>
      <use xlink:href="#DejaVuSans-20" transform="translate(1660.257812 0)"/>
      <use xlink:href="#DejaVuSans-42" transform="translate(1692.044922 0)"/>
      <use xlink:href="#DejaVuSans-69" transform="translate(1760.648438 0)"/>
      <use xlink:href="#DejaVuSans-6e" transform="translate(1788.431641 0)"/>
      <use xlink:href="#DejaVuSans-6e" transform="translate(1851.810547 0)"/>
      <use xlink:href="#DejaVuSans-65" transform="translate(1915.189453 0)"/>
      <use xlink:href="#DejaVuSans-64" transform="translate(1976.712891 0)"/>
      <use xlink:href="#DejaVuSans-20" transform="translate(2040.189453 0)"/>
      <use xlink:href="#DejaVuSans-2d" transform="translate(2071.976562 0)"/>
      <use xlink:href="#DejaVuSans-20" transform="translate(2108.060547 0)"/>
      <use xlink:href="#DejaVuSans-33" transform="translate(2139.847656 0)"/>
      <use xlink:href="#DejaVuSans-36" transform="translate(2203.470703 0)"/>
      <use xlink:href="#DejaVuSans-30" transform="translate(2267.09375 0)"/>
      <use xlink:href="#DejaVuSans-30" transform="translate(2330.716797 0)"/>
     </g>
    </g>
   </g>
   <g id="line2d_10">
    <path d="M 119.882017 251.262516 
L 146.027756 251.262516 
M 132.954886 251.262516 
L 132.954886 197.794325 
M 119.882017 197.794325 
L 146.027756 197.794325 
" clip-path="url(#p7c159da31c)" style="fill: none; stroke: #000000; stroke-width: 2; stroke-linecap: square"/>
   </g>
   <g id="line2d_11">
    <path d="M 381.339403 239.91733 
L 407.485142 239.91733 
M 394.412273 239.91733 
L 394.412273 209.139511 
M 381.339403 209.139511 
L 407.485142 209.139511 
" clip-path="url(#p7c159da31c)" style="fill: none; stroke: #000000; stroke-width: 2; stroke-linecap: square"/>
   </g>
   <g id="line2d_12">
    <path d="M 642.79679 241.869042 
L 668.942528 241.869042 
M 655.869659 241.869042 
L 655.869659 207.187799 
M 642.79679 207.187799 
L 668.942528 207.187799 
" clip-path="url(#p7c159da31c)" style="fill: none; stroke: #000000; stroke-width: 2; stroke-linecap: square"/>
   </g>
   <g id="line2d_13">
    <path d="M 224.464972 155.656038 
L 250.61071 155.656038 
M 237.537841 155.656038 
L 237.537841 114.494146 
M 224.464972 114.494146 
L 250.61071 114.494146 
" clip-path="url(#p7c159da31c)" style="fill: none; stroke: #ff0000; stroke-width: 2; stroke-linecap: square"/>
   </g>
   <g id="line2d_14">
    <path d="M 485.922358 239.142668 
L 512.068097 239.142668 
M 498.995227 239.142668 
L 498.995227 219.815921 
M 485.922358 219.815921 
L 512.068097 219.815921 
" clip-path="url(#p7c159da31c)" style="fill: none; stroke: #ff0000; stroke-width: 2; stroke-linecap: square"/>
   </g>
   <g id="line2d_15">
    <path d="M 747.379744 247.960874 
L 773.525483 247.960874 
M 760.452614 247.960874 
L 760.452614 203.399271 
M 747.379744 203.399271 
L 773.525483 203.399271 
" clip-path="url(#p7c159da31c)" style="fill: none; stroke: #ff0000; stroke-width: 2; stroke-linecap: square"/>
   </g>
   <g id="line2d_16">
    <path d="M 132.954886 26.856841 
L 132.954886 24.10381 
L 237.537841 24.10381 
L 237.537841 26.856841 
" clip-path="url(#p7c159da31c)" style="fill: none; stroke: #000000; stroke-width: 1.5; stroke-linecap: square"/>
   </g>
   <g id="patch_9">
    <path d="M 44.059375 362.18 
L 44.059375 18.051051 
" style="fill: none; stroke: #000000; stroke-width: 0.8; stroke-linejoin: miter; stroke-linecap: square"/>
   </g>
   <g id="patch_10">
    <path d="M 185.246364 362.18 
L 708.161136 362.18 
" style="fill: none; stroke: #000000; stroke-width: 0.8; stroke-linejoin: miter; stroke-linecap: square"/>
   </g>
   <g id="PathCollection_1">
    <defs>
     <path id="C0_0_7b7aecfbea" d="M 0 2.5 
C 0.663008 2.5 1.29895 2.236584 1.767767 1.767767 
C 2.236584 1.29895 2.5 0.663008 2.5 -0 
C 2.5 -0.663008 2.236584 -1.29895 1.767767 -1.767767 
C 1.29895 -2.236584 0.663008 -2.5 0 -2.5 
C -0.663008 -2.5 -1.29895 -2.236584 -1.767767 -1.767767 
C -2.236584 -1.29895 -2.5 -0.663008 -2.5 0 
C -2.5 0.663008 -2.236584 1.29895 -1.767767 1.767767 
C -1.29895 2.236584 -0.663008 2.5 0 2.5 
z
"/>
    </defs>
    <g clip-path="url(#p7c159da31c)">
     <use xlink:href="#C0_0_7b7aecfbea" x="126.303202" y="294.928709" style="fill-opacity: 0.3"/>
    </g>
    <g clip-path="url(#p7c159da31c)">
     <use xlink:href="#C0_0_7b7aecfbea" x="131.49115" y="75.462713" style="fill-opacity: 0.3"/>
    </g>
    <g clip-path="url(#p7c159da31c)">
     <use xlink:href="#C0_0_7b7aecfbea" x="129.538816" y="94.012251" style="fill-opacity: 0.3"/>
    </g>
    <g clip-path="url(#p7c159da31c)">
     <use xlink:href="#C0_0_7b7aecfbea" x="140.273096" y="296.140064" style="fill-opacity: 0.3"/>
    </g>
    <g clip-path="url(#p7c159da31c)">
     <use xlink:href="#C0_0_7b7aecfbea" x="125.476301" y="264.018079" style="fill-opacity: 0.3"/>
    </g>
    <g clip-path="url(#p7c159da31c)">
     <use xlink:href="#C0_0_7b7aecfbea" x="129.769988" y="283.131161" style="fill-opacity: 0.3"/>
    </g>
    <g clip-path="url(#p7c159da31c)">
     <use xlink:href="#C0_0_7b7aecfbea" x="130.957179" y="225.78665" style="fill-opacity: 0.3"/>
    </g>
    <g clip-path="url(#p7c159da31c)">
     <use xlink:href="#C0_0_7b7aecfbea" x="145.260262" y="314.679068" style="fill-opacity: 0.3"/>
    </g>
    <g clip-path="url(#p7c159da31c)">
     <use xlink:href="#C0_0_7b7aecfbea" x="120.60128" y="214.589513" style="fill-opacity: 0.3"/>
    </g>
    <g clip-path="url(#p7c159da31c)">
     <use xlink:href="#C0_0_7b7aecfbea" x="137.000362" y="182.535996" style="fill-opacity: 0.3"/>
    </g>
   </g>
   <g id="PathCollection_2">
    <defs>
     <path id="C1_0_93ad891c3c" d="M 0 2.5 
C 0.663008 2.5 1.29895 2.236584 1.767767 1.767767 
C 2.236584 1.29895 2.5 0.663008 2.5 -0 
C 2.5 -0.663008 2.236584 -1.29895 1.767767 -1.767767 
C 1.29895 -2.236584 0.663008 -2.5 0 -2.5 
C -0.663008 -2.5 -1.29895 -2.236584 -1.767767 -1.767767 
C -2.236584 -1.29895 -2.5 -0.663008 -2.5 0 
C -2.5 0.663008 -2.236584 1.29895 -1.767767 1.767767 
C -1.29895 2.236584 -0.663008 2.5 0 2.5 
z
"/>
    </defs>
    <g clip-path="url(#p7c159da31c)">
     <use xlink:href="#C1_0_93ad891c3c" x="225.075959" y="172.760885" style="fill: #ff0000; fill-opacity: 0.3"/>
    </g>
    <g clip-path="url(#p7c159da31c)">
     <use xlink:href="#C1_0_93ad891c3c" x="224.832618" y="101.475253" style="fill: #ff0000; fill-opacity: 0.3"/>
    </g>
    <g clip-path="url(#p7c159da31c)">
     <use xlink:href="#C1_0_93ad891c3c" x="224.873196" y="71.770713" style="fill: #ff0000; fill-opacity: 0.3"/>
    </g>
    <g clip-path="url(#p7c159da31c)">
     <use xlink:href="#C1_0_93ad891c3c" x="242.016053" y="113.320202" style="fill: #ff0000; fill-opacity: 0.3"/>
    </g>
    <g clip-path="url(#p7c159da31c)">
     <use xlink:href="#C1_0_93ad891c3c" x="249.065263" y="162.6171" style="fill: #ff0000; fill-opacity: 0.3"/>
    </g>
    <g clip-path="url(#p7c159da31c)">
     <use xlink:href="#C1_0_93ad891c3c" x="239.879213" y="214.847584" style="fill: #ff0000; fill-opacity: 0.3"/>
    </g>
    <g clip-path="url(#p7c159da31c)">
     <use xlink:href="#C1_0_93ad891c3c" x="229.150856" y="74.088088" style="fill: #ff0000; fill-opacity: 0.3"/>
    </g>
    <g clip-path="url(#p7c159da31c)">
     <use xlink:href="#C1_0_93ad891c3c" x="245.203737" y="183.884287" style="fill: #ff0000; fill-opacity: 0.3"/>
    </g>
    <g clip-path="url(#p7c159da31c)">
     <use xlink:href="#C1_0_93ad891c3c" x="249.719423" y="222.247386" style="fill: #ff0000; fill-opacity: 0.3"/>
    </g>
    <g clip-path="url(#p7c159da31c)">
     <use xlink:href="#C1_0_93ad891c3c" x="242.537044" y="33.73942" style="fill: #ff0000; fill-opacity: 0.3"/>
    </g>
   </g>
   <g id="PathCollection_3">
    <defs>
     <path id="C2_0_7ff9a596d6" d="M 0 2.5 
C 0.663008 2.5 1.29895 2.236584 1.767767 1.767767 
C 2.236584 1.29895 2.5 0.663008 2.5 -0 
C 2.5 -0.663008 2.236584 -1.29895 1.767767 -1.767767 
C 1.29895 -2.236584 0.663008 -2.5 0 -2.5 
C -0.663008 -2.5 -1.29895 -2.236584 -1.767767 -1.767767 
C -2.236584 -1.29895 -2.5 -0.663008 -2.5 0 
C -2.5 0.663008 -2.236584 1.29895 -1.767767 1.767767 
C -1.29895 2.236584 -0.663008 2.5 0 2.5 
z
"/>
    </defs>
    <g clip-path="url(#p7c159da31c)">
     <use xlink:href="#C2_0_7ff9a596d6" x="394.693686" y="191.699053" style="fill-opacity: 0.3"/>
    </g>
    <g clip-path="url(#p7c159da31c)">
     <use xlink:href="#C2_0_7ff9a596d6" x="396.276427" y="207.033675" style="fill-opacity: 0.3"/>
    </g>
    <g clip-path="url(#p7c159da31c)">
     <use xlink:href="#C2_0_7ff9a596d6" x="384.276669" y="260.29983" style="fill-opacity: 0.3"/>
    </g>
    <g clip-path="url(#p7c159da31c)">
     <use xlink:href="#C2_0_7ff9a596d6" x="405.511602" y="241.539388" style="fill-opacity: 0.3"/>
    </g>
    <g clip-path="url(#p7c159da31c)">
     <use xlink:href="#C2_0_7ff9a596d6" x="395.265423" y="158.284653" style="fill-opacity: 0.3"/>
    </g>
    <g clip-path="url(#p7c159da31c)">
     <use xlink:href="#C2_0_7ff9a596d6" x="384.064389" y="272.169255" style="fill-opacity: 0.3"/>
    </g>
    <g clip-path="url(#p7c159da31c)">
     <use xlink:href="#C2_0_7ff9a596d6" x="397.536187" y="285.653147" style="fill-opacity: 0.3"/>
    </g>
    <g clip-path="url(#p7c159da31c)">
     <use xlink:href="#C2_0_7ff9a596d6" x="389.618555" y="220.000038" style="fill-opacity: 0.3"/>
    </g>
    <g clip-path="url(#p7c159da31c)">
     <use xlink:href="#C2_0_7ff9a596d6" x="384.060036" y="261.852418" style="fill-opacity: 0.3"/>
    </g>
    <g clip-path="url(#p7c159da31c)">
     <use xlink:href="#C2_0_7ff9a596d6" x="389.686371" y="214.346591" style="fill-opacity: 0.3"/>
    </g>
    <g clip-path="url(#p7c159da31c)">
     <use xlink:href="#C2_0_7ff9a596d6" x="394.153942" y="282.10357" style="fill-opacity: 0.3"/>
    </g>
    <g clip-path="url(#p7c159da31c)">
     <use xlink:href="#C2_0_7ff9a596d6" x="386.112747" y="251.518706" style="fill-opacity: 0.3"/>
    </g>
    <g clip-path="url(#p7c159da31c)">
     <use xlink:href="#C2_0_7ff9a596d6" x="396.344521" y="227.875486" style="fill-opacity: 0.3"/>
    </g>
    <g clip-path="url(#p7c159da31c)">
     <use xlink:href="#C2_0_7ff9a596d6" x="404.082497" y="69.022075" style="fill-opacity: 0.3"/>
    </g>
   </g>
   <g id="PathCollection_4">
    <defs>
     <path id="C3_0_3657029c06" d="M 0 2.5 
C 0.663008 2.5 1.29895 2.236584 1.767767 1.767767 
C 2.236584 1.29895 2.5 0.663008 2.5 -0 
C 2.5 -0.663008 2.236584 -1.29895 1.767767 -1.767767 
C 1.29895 -2.236584 0.663008 -2.5 0 -2.5 
C -0.663008 -2.5 -1.29895 -2.236584 -1.767767 -1.767767 
C -2.236584 -1.29895 -2.5 -0.663008 -2.5 0 
C -2.5 0.663008 -2.236584 1.29895 -1.767767 1.767767 
C -1.29895 2.236584 -0.663008 2.5 0 2.5 
z
"/>
    </defs>
    <g clip-path="url(#p7c159da31c)">
     <use xlink:href="#C3_0_3657029c06" x="503.892339" y="270.959811" style="fill: #ff0000; fill-opacity: 0.3"/>
    </g>
    <g clip-path="url(#p7c159da31c)">
     <use xlink:href="#C3_0_3657029c06" x="497.393418" y="264.147549" style="fill: #ff0000; fill-opacity: 0.3"/>
    </g>
    <g clip-path="url(#p7c159da31c)">
     <use xlink:href="#C3_0_3657029c06" x="503.589737" y="245.583993" style="fill: #ff0000; fill-opacity: 0.3"/>
    </g>
    <g clip-path="url(#p7c159da31c)">
     <use xlink:href="#C3_0_3657029c06" x="489.73223" y="133.409488" style="fill: #ff0000; fill-opacity: 0.3"/>
    </g>
    <g clip-path="url(#p7c159da31c)">
     <use xlink:href="#C3_0_3657029c06" x="509.398052" y="223.127716" style="fill: #ff0000; fill-opacity: 0.3"/>
    </g>
    <g clip-path="url(#p7c159da31c)">
     <use xlink:href="#C3_0_3657029c06" x="495.001501" y="226.3679" style="fill: #ff0000; fill-opacity: 0.3"/>
    </g>
    <g clip-path="url(#p7c159da31c)">
     <use xlink:href="#C3_0_3657029c06" x="501.725434" y="170.01907" style="fill: #ff0000; fill-opacity: 0.3"/>
    </g>
    <g clip-path="url(#p7c159da31c)">
     <use xlink:href="#C3_0_3657029c06" x="496.837049" y="227.459212" style="fill: #ff0000; fill-opacity: 0.3"/>
    </g>
    <g clip-path="url(#p7c159da31c)">
     <use xlink:href="#C3_0_3657029c06" x="489.634023" y="151.30363" style="fill: #ff0000; fill-opacity: 0.3"/>
    </g>
    <g clip-path="url(#p7c159da31c)">
     <use xlink:href="#C3_0_3657029c06" x="498.96524" y="277.783325" style="fill: #ff0000; fill-opacity: 0.3"/>
    </g>
    <g clip-path="url(#p7c159da31c)">
     <use xlink:href="#C3_0_3657029c06" x="489.782504" y="243.553253" style="fill: #ff0000; fill-opacity: 0.3"/>
    </g>
    <g clip-path="url(#p7c159da31c)">
     <use xlink:href="#C3_0_3657029c06" x="500.627022" y="296.577519" style="fill: #ff0000; fill-opacity: 0.3"/>
    </g>
    <g clip-path="url(#p7c159da31c)">
     <use xlink:href="#C3_0_3657029c06" x="512.046278" y="260.986119" style="fill: #ff0000; fill-opacity: 0.3"/>
    </g>
    <g clip-path="url(#p7c159da31c)">
     <use xlink:href="#C3_0_3657029c06" x="504.415073" y="225.900999" style="fill: #ff0000; fill-opacity: 0.3"/>
    </g>
    <g clip-path="url(#p7c159da31c)">
     <use xlink:href="#C3_0_3657029c06" x="493.554719" y="255.844577" style="fill: #ff0000; fill-opacity: 0.3"/>
    </g>
    <g clip-path="url(#p7c159da31c)">
     <use xlink:href="#C3_0_3657029c06" x="500.846504" y="231.374435" style="fill: #ff0000; fill-opacity: 0.3"/>
    </g>
    <g clip-path="url(#p7c159da31c)">
     <use xlink:href="#C3_0_3657029c06" x="490.217595" y="211.157035" style="fill: #ff0000; fill-opacity: 0.3"/>
    </g>
    <g clip-path="url(#p7c159da31c)">
     <use xlink:href="#C3_0_3657029c06" x="507.109653" y="240.256815" style="fill: #ff0000; fill-opacity: 0.3"/>
    </g>
    <g clip-path="url(#p7c159da31c)">
     <use xlink:href="#C3_0_3657029c06" x="500.64423" y="204.294145" style="fill: #ff0000; fill-opacity: 0.3"/>
    </g>
   </g>
   <g id="PathCollection_5">
    <defs>
     <path id="C4_0_659a5b957e" d="M 0 2.5 
C 0.663008 2.5 1.29895 2.236584 1.767767 1.767767 
C 2.236584 1.29895 2.5 0.663008 2.5 -0 
C 2.5 -0.663008 2.236584 -1.29895 1.767767 -1.767767 
C 1.29895 -2.236584 0.663008 -2.5 0 -2.5 
C -0.663008 -2.5 -1.29895 -2.236584 -1.767767 -1.767767 
C -2.236584 -1.29895 -2.5 -0.663008 -2.5 0 
C -2.5 0.663008 -2.236584 1.29895 -1.767767 1.767767 
C -1.29895 2.236584 -0.663008 2.5 0 2.5 
z
"/>
    </defs>
    <g clip-path="url(#p7c159da31c)">
     <use xlink:href="#C4_0_659a5b957e" x="658.419072" y="276.635942" style="fill-opacity: 0.3"/>
    </g>
    <g clip-path="url(#p7c159da31c)">
     <use xlink:href="#C4_0_659a5b957e" x="654.766678" y="143.932358" style="fill-opacity: 0.3"/>
    </g>
    <g clip-path="url(#p7c159da31c)">
     <use xlink:href="#C4_0_659a5b957e" x="667.274168" y="185.688897" style="fill-opacity: 0.3"/>
    </g>
    <g clip-path="url(#p7c159da31c)">
     <use xlink:href="#C4_0_659a5b957e" x="665.482417" y="183.074862" style="fill-opacity: 0.3"/>
    </g>
    <g clip-path="url(#p7c159da31c)">
     <use xlink:href="#C4_0_659a5b957e" x="663.353844" y="260.893426" style="fill-opacity: 0.3"/>
    </g>
    <g clip-path="url(#p7c159da31c)">
     <use xlink:href="#C4_0_659a5b957e" x="659.676146" y="286.105746" style="fill-opacity: 0.3"/>
    </g>
    <g clip-path="url(#p7c159da31c)">
     <use xlink:href="#C4_0_659a5b957e" x="664.589812" y="293.559148" style="fill-opacity: 0.3"/>
    </g>
    <g clip-path="url(#p7c159da31c)">
     <use xlink:href="#C4_0_659a5b957e" x="651.62476" y="269.18497" style="fill-opacity: 0.3"/>
    </g>
    <g clip-path="url(#p7c159da31c)">
     <use xlink:href="#C4_0_659a5b957e" x="656.93358" y="172.293182" style="fill-opacity: 0.3"/>
    </g>
    <g clip-path="url(#p7c159da31c)">
     <use xlink:href="#C4_0_659a5b957e" x="645.247972" y="93.651051" style="fill-opacity: 0.3"/>
    </g>
    <g clip-path="url(#p7c159da31c)">
     <use xlink:href="#C4_0_659a5b957e" x="667.550107" y="279.23783" style="fill-opacity: 0.3"/>
    </g>
    <g clip-path="url(#p7c159da31c)">
     <use xlink:href="#C4_0_659a5b957e" x="664.370292" y="228.502226" style="fill-opacity: 0.3"/>
    </g>
    <g clip-path="url(#p7c159da31c)">
     <use xlink:href="#C4_0_659a5b957e" x="660.92306" y="174.836764" style="fill-opacity: 0.3"/>
    </g>
    <g clip-path="url(#p7c159da31c)">
     <use xlink:href="#C4_0_659a5b957e" x="657.799092" y="295.801484" style="fill-opacity: 0.3"/>
    </g>
   </g>
   <g id="PathCollection_6">
    <defs>
     <path id="C5_0_8df433a313" d="M 0 2.5 
C 0.663008 2.5 1.29895 2.236584 1.767767 1.767767 
C 2.236584 1.29895 2.5 0.663008 2.5 -0 
C 2.5 -0.663008 2.236584 -1.29895 1.767767 -1.767767 
C 1.29895 -2.236584 0.663008 -2.5 0 -2.5 
C -0.663008 -2.5 -1.29895 -2.236584 -1.767767 -1.767767 
C -2.236584 -1.29895 -2.5 -0.663008 -2.5 0 
C -2.5 0.663008 -2.236584 1.29895 -1.767767 1.767767 
C -1.29895 2.236584 -0.663008 2.5 0 2.5 
z
"/>
    </defs>
    <g clip-path="url(#p7c159da31c)">
     <use xlink:href="#C5_0_8df433a313" x="761.734446" y="362.18" style="fill: #ff0000; fill-opacity: 0.3"/>
    </g>
    <g clip-path="url(#p7c159da31c)">
     <use xlink:href="#C5_0_8df433a313" x="772.566608" y="256.644404" style="fill: #ff0000; fill-opacity: 0.3"/>
    </g>
    <g clip-path="url(#p7c159da31c)">
     <use xlink:href="#C5_0_8df433a313" x="749.002933" y="158.025311" style="fill: #ff0000; fill-opacity: 0.3"/>
    </g>
    <g clip-path="url(#p7c159da31c)">
     <use xlink:href="#C5_0_8df433a313" x="750.900917" y="96.69509" style="fill: #ff0000; fill-opacity: 0.3"/>
    </g>
    <g clip-path="url(#p7c159da31c)">
     <use xlink:href="#C5_0_8df433a313" x="771.874615" y="246.154251" style="fill: #ff0000; fill-opacity: 0.3"/>
    </g>
    <g clip-path="url(#p7c159da31c)">
     <use xlink:href="#C5_0_8df433a313" x="750.991543" y="246.460356" style="fill: #ff0000; fill-opacity: 0.3"/>
    </g>
    <g clip-path="url(#p7c159da31c)">
     <use xlink:href="#C5_0_8df433a313" x="767.332526" y="292.322583" style="fill: #ff0000; fill-opacity: 0.3"/>
    </g>
    <g clip-path="url(#p7c159da31c)">
     <use xlink:href="#C5_0_8df433a313" x="760.705343" y="254.992411" style="fill: #ff0000; fill-opacity: 0.3"/>
    </g>
    <g clip-path="url(#p7c159da31c)">
     <use xlink:href="#C5_0_8df433a313" x="749.269511" y="216.661327" style="fill: #ff0000; fill-opacity: 0.3"/>
    </g>
    <g clip-path="url(#p7c159da31c)">
     <use xlink:href="#C5_0_8df433a313" x="771.954902" y="176.848308" style="fill: #ff0000; fill-opacity: 0.3"/>
    </g>
    <g clip-path="url(#p7c159da31c)">
     <use xlink:href="#C5_0_8df433a313" x="761.686795" y="114.427286" style="fill: #ff0000; fill-opacity: 0.3"/>
    </g>
    <g clip-path="url(#p7c159da31c)">
     <use xlink:href="#C5_0_8df433a313" x="764.453954" y="286.749537" style="fill: #ff0000; fill-opacity: 0.3"/>
    </g>
   </g>
   <g id="text_11">
    <!-- * -->
    <g transform="translate(181.746364 20.503989) scale(0.14 -0.14)">
     <defs>
      <path id="DejaVuSans-2a" d="M 3009 3897 
L 1888 3291 
L 3009 2681 
L 2828 2375 
L 1778 3009 
L 1778 1831 
L 1422 1831 
L 1422 3009 
L 372 2375 
L 191 2681 
L 1313 3291 
L 191 3897 
L 372 4206 
L 1422 3572 
L 1422 4750 
L 1778 4750 
L 1778 3572 
L 2828 4206 
L 3009 3897 
z
" transform="scale(0.015625)"/>
     </defs>
     <use xlink:href="#DejaVuSans-2a"/>
    </g>
   </g>
  </g>
  <g id="text_12">
   <!-- time_combo -->
   <g transform="translate(385.156094 424.08) scale(0.14 -0.14)">
    <defs>
     <path id="DejaVuSans-63" d="M 3122 3366 
L 3122 2828 
Q 2878 2963 2633 3030 
Q 2388 3097 2138 3097 
Q 1578 3097 1268 2742 
Q 959 2388 959 1747 
Q 959 1106 1268 751 
Q 1578 397 2138 397 
Q 2388 397 2633 464 
Q 2878 531 3122 666 
L 3122 134 
Q 2881 22 2623 -34 
Q 2366 -91 2075 -91 
Q 1284 -91 818 406 
Q 353 903 353 1747 
Q 353 2603 823 3093 
Q 1294 3584 2113 3584 
Q 2378 3584 2631 3529 
Q 2884 3475 3122 3366 
z
" transform="scale(0.015625)"/>
    </defs>
    <use xlink:href="#DejaVuSans-74"/>
    <use xlink:href="#DejaVuSans-69" transform="translate(39.208984 0)"/>
    <use xlink:href="#DejaVuSans-6d" transform="translate(66.992188 0)"/>
    <use xlink:href="#DejaVuSans-65" transform="translate(164.404297 0)"/>
    <use xlink:href="#DejaVuSans-5f" transform="translate(225.927734 0)"/>
    <use xlink:href="#DejaVuSans-63" transform="translate(275.927734 0)"/>
    <use xlink:href="#DejaVuSans-6f" transform="translate(330.908203 0)"/>
    <use xlink:href="#DejaVuSans-6d" transform="translate(392.089844 0)"/>
    <use xlink:href="#DejaVuSans-62" transform="translate(489.501953 0)"/>
    <use xlink:href="#DejaVuSans-6f" transform="translate(552.978516 0)"/>
   </g>
  </g>
 </g>
 <defs>
  <clipPath id="p7c159da31c">
   <rect x="44.059375" y="7.2" width="805.28875" height="354.98"/>
  </clipPath>
 </defs>
</svg>
